<svg width="351" height="238" viewBox="0 0 351 238" fill="none" xmlns="http://www.w3.org/2000/svg">
<g style="mix-blend-mode:screen" opacity="0.13">
<g clip-path="url(#clip0)">
<path d="M319.098 13.6267H314.083V18.6356H319.098V13.6267Z" fill="white"/>
<path d="M321.152 178.018V172.231H326.946V178.018H321.152ZM321.9 173.009V177.271H326.167V173.009H321.9Z" fill="#ABABAB"/>
<path d="M350.025 188.284H345.011V193.293H350.025V188.284Z" fill="white"/>
<path d="M295.831 44.9556H290.816V49.9645H295.831V44.9556Z" fill="white"/>
<path d="M140.784 5.78667V0L146.577 0V5.78667L140.784 5.78667ZM141.563 0.746667V5.00889L145.83 5.00889V0.746667L141.563 0.746667Z" fill="white"/>
<path d="M125.117 5.78667V0L130.91 0V5.78667L125.117 5.78667ZM125.865 0.746667V5.00889L130.132 5.00889V0.746667L125.865 0.746667Z" fill="white"/>
<path d="M125.117 13.5956V7.84009L130.91 7.84009V13.6268H125.117V13.5956ZM125.865 8.58675V12.849H130.132V8.58675H125.865Z" fill="white"/>
<path d="M140.784 21.4356V15.6489H146.577V21.4356H140.784ZM141.563 16.4267V20.6889H145.83V16.4267H141.563Z" fill="white"/>
<path d="M146.202 23.8623H141.188V28.8712H146.202V23.8623Z" fill="white"/>
<path d="M130.505 23.8623H125.49V28.8712H130.505V23.8623Z" fill="white"/>
<path d="M146.202 31.7021H141.188V36.711H146.202V31.7021Z" fill="white"/>
<path d="M138.353 31.7021H133.339V36.711H138.353V31.7021Z" fill="white"/>
<path d="M130.505 31.7021H125.49V36.711H130.505V31.7021Z" fill="white"/>
<path d="M271.599 39.5112H266.584V44.5201H271.599V39.5112Z" fill="white"/>
<path d="M138.353 39.5112H133.339V44.5201H138.353V39.5112Z" fill="white"/>
<path d="M250.544 52.7333V46.9778H256.337V52.7645H250.544V52.7333ZM251.291 47.7244V51.9867H255.559V47.7244H251.291Z" fill="white"/>
<path d="M234.846 52.7333V46.9778H240.639V52.7645H234.846V52.7333ZM235.624 47.7244V51.9867H239.891V47.7244H235.624Z" fill="#ABABAB"/>
<path d="M219.18 52.7333V46.9778H224.973V52.7645H219.18V52.7333ZM219.927 47.7244V51.9867H224.194V47.7244H219.927Z" fill="white"/>
<path d="M169.719 47.3511H164.704V52.36H169.719V47.3511Z" fill="white"/>
<path d="M161.87 47.3511H156.855V52.36H161.87V47.3511Z" fill="white"/>
<path d="M146.202 47.3511H141.188V52.36H146.202V47.3511Z" fill="white"/>
<path d="M138.353 47.3511H133.339V52.36H138.353V47.3511Z" fill="white"/>
<path d="M130.505 47.3511H125.49V52.36H130.505V47.3511Z" fill="#999999"/>
<path d="M258.361 60.5733V54.7866H264.155V60.5733H258.361ZM259.14 55.5644V59.8266H263.407V55.5644H259.14Z" fill="white"/>
<path d="M234.846 60.5733V54.7866H240.639V60.5733H234.846ZM235.624 55.5644V59.8266H239.891V55.5644H235.624Z" fill="white"/>
<path d="M177.536 55.1912H172.521V60.2001H177.536V55.1912Z" fill="white"/>
<path d="M169.719 55.1912H164.704V60.2001H169.719V55.1912Z" fill="white"/>
<path d="M138.353 55.1912H133.339V60.2001H138.353V55.1912Z" fill="white"/>
<path d="M130.505 55.1912H125.49V60.2001H130.505V55.1912Z" fill="white"/>
<path d="M83.4736 55.1912H78.459V60.2001H83.4736V55.1912Z" fill="white"/>
<path d="M75.6562 55.1912H70.6416V60.2001H75.6562V55.1912Z" fill="white"/>
<path d="M287.266 63H282.251V68.0089H287.266V63Z" fill="white"/>
<path d="M279.447 63H274.433V68.0089H279.447V63Z" fill="white"/>
<path d="M271.599 63H266.584V68.0089H271.599V63Z" fill="white"/>
<path d="M263.75 63H258.735V68.0089H263.75V63Z" fill="white"/>
<path d="M255.931 63H250.917V68.0089H255.931V63Z" fill="white"/>
<path d="M248.083 63H243.068V68.0089H248.083V63Z" fill="white"/>
<path d="M240.234 63H235.22V68.0089H240.234V63Z" fill="white"/>
<path d="M232.416 63H227.401V68.0089H232.416V63Z" fill="white"/>
<path d="M224.567 63H219.553V68.0089H224.567V63Z" fill="white"/>
<path d="M122.687 63H117.673V68.0089H122.687V63Z" fill="white"/>
<path d="M114.838 63H109.823V68.0089H114.838V63Z" fill="white"/>
<path d="M99.1718 63H94.1572V68.0089H99.1718V63Z" fill="white"/>
<path d="M91.3232 63H86.3086V68.0089H91.3232V63Z" fill="white"/>
<path d="M83.4736 63H78.459V68.0089H83.4736V63Z" fill="white"/>
<path d="M266.211 76.2222V70.4355H272.004V76.2222H266.211ZM266.958 71.2133V75.4755H271.226V71.2133H266.958Z" fill="#ABABAB"/>
<path d="M263.75 70.8401H258.735V75.849H263.75V70.8401Z" fill="white"/>
<path d="M248.083 70.8401H243.068V75.849H248.083V70.8401Z" fill="white"/>
<path d="M232.416 70.8401H227.401V75.849H232.416V70.8401Z" fill="white"/>
<path d="M224.567 70.8401H219.553V75.849H224.567V70.8401Z" fill="white"/>
<path d="M114.838 70.8401H109.823V75.849H114.838V70.8401Z" fill="white"/>
<path d="M106.989 70.8401H101.975V75.849H106.989V70.8401Z" fill="white"/>
<path d="M99.1718 70.8401H94.1572V75.849H99.1718V70.8401Z" fill="white"/>
<path d="M255.931 78.6799H250.917V83.6888H255.931V78.6799Z" fill="#999999"/>
<path d="M248.083 78.6799H243.068V83.6888H248.083V78.6799Z" fill="white"/>
<path d="M224.567 78.6799H219.553V83.6888H224.567V78.6799Z" fill="white"/>
<path d="M132.966 84.0623V78.2756H138.728V84.0623H132.966ZM133.713 79.0534V83.3156H137.98V79.0534H133.713Z" fill="white"/>
<path d="M130.505 78.6799H125.49V83.6888H130.505V78.6799Z" fill="white"/>
<path d="M122.687 78.6799H117.673V83.6888H122.687V78.6799Z" fill="white"/>
<path d="M114.838 78.6799H109.823V83.6888H114.838V78.6799Z" fill="white"/>
<path d="M263.75 86.4888H258.735V91.4976H263.75V86.4888Z" fill="white"/>
<path d="M232.416 86.4888H227.401V91.4976H232.416V86.4888Z" fill="#999999"/>
<path d="M140.784 91.9022V86.1155H146.577V91.9022H140.784ZM141.563 86.8933V91.1555H145.83V86.8933H141.563Z" fill="white"/>
<path d="M130.505 86.4888H125.49V91.4976H130.505V86.4888Z" fill="white"/>
<path d="M122.687 86.4888H117.673V91.4976H122.687V86.4888Z" fill="white"/>
<path d="M114.838 86.4888H109.823V91.4976H114.838V86.4888Z" fill="white"/>
<path d="M101.602 91.9022V86.1155H107.395V91.9022H101.602ZM102.349 86.8933V91.1555H106.616V86.8933H102.349Z" fill="#ABABAB"/>
<path d="M99.1719 86.4888H94.1572V91.4976H99.1719V86.4888Z" fill="white"/>
<path d="M91.3232 86.4888H86.3086V91.4976H91.3232V86.4888Z" fill="white"/>
<path d="M83.4736 86.4888H78.459V91.4976H83.4736V86.4888Z" fill="white"/>
<path d="M75.6562 86.4888H70.6416V91.4976H75.6562V86.4888Z" fill="white"/>
<path d="M140.784 99.7111V93.9556H146.577V99.7422H140.784V99.7111ZM141.563 94.7022V98.9645H145.83V94.7022H141.563Z" fill="white"/>
<path d="M132.966 99.7111V93.9556H138.728V99.7422H132.966V99.7111ZM133.713 94.7022V98.9645H137.98V94.7022H133.713Z" fill="white"/>
<path d="M130.505 94.3289H125.49V99.3377H130.505V94.3289Z" fill="white"/>
<path d="M114.838 94.3279H109.823V99.3368H114.838V94.3279Z" fill="white"/>
<path d="M109.762 99.3999V94.2666H114.87V99.3688H109.762V99.3999ZM109.855 94.391V99.3066H114.776V94.391H109.855Z" fill="white"/>
<path d="M99.1709 94.3279H94.1562V99.3368H99.1709V94.3279Z" fill="white"/>
<path d="M94.0947 99.3999V94.2666H99.2027V99.3688H94.0947V99.3999ZM94.1882 94.391V99.3066H99.1093V94.391H94.1882Z" fill="white"/>
<path d="M91.3222 94.3279H86.3076V99.3368H91.3222V94.3279Z" fill="white"/>
<path d="M86.2461 99.3999V94.2666H91.3853V99.3688H86.2461V99.3999ZM86.3707 94.391V99.3066H91.2918V94.391H86.3707Z" fill="white"/>
<path d="M279.447 102.169H274.433V107.178H279.447V102.169Z" fill="white"/>
<path d="M271.599 102.169H266.584V107.178H271.599V102.169Z" fill="white"/>
<path d="M258.361 107.551V101.764H264.155V107.551H258.361ZM259.14 102.542V106.804H263.407V102.542H259.14Z" fill="white"/>
<path d="M250.544 107.551V101.764H256.337V107.551H250.544ZM251.291 102.542V106.804H255.559V102.542H251.291Z" fill="white"/>
<path d="M248.083 102.169H243.068V107.178H248.083V102.169Z" fill="white"/>
<path d="M232.416 102.169H227.401V107.178H232.416V102.169Z" fill="white"/>
<path d="M224.567 102.169H219.553V107.178H224.567V102.169Z" fill="white"/>
<path d="M140.784 107.551V101.764H146.577V107.551H140.784ZM141.563 102.542V106.804H145.83V102.542H141.563Z" fill="white"/>
<path d="M132.966 107.551V101.764H138.728V107.551H132.966ZM133.713 102.542V106.804H137.98V102.542H133.713Z" fill="white"/>
<path d="M130.505 102.169H125.49V107.178H130.505V102.169Z" fill="white"/>
<path d="M122.686 102.168H117.672V107.177H122.686V102.168Z" fill="white"/>
<path d="M117.61 107.209V102.107H122.718V107.209H117.61ZM117.704 102.2V107.116H122.625V102.2H117.704Z" fill="white"/>
<path d="M114.838 102.168H109.823V107.177H114.838V102.168Z" fill="white"/>
<path d="M109.762 107.209V102.107H114.87V107.209H109.762ZM109.855 102.2V107.116H114.776V102.2H109.855Z" fill="white"/>
<path d="M106.989 102.168H101.975V107.177H106.989V102.168Z" fill="white"/>
<path d="M101.943 107.209V102.107H107.051V107.209H101.943ZM102.037 102.2V107.116H106.958V102.2H102.037Z" fill="white"/>
<path d="M99.1709 102.168H94.1562V107.177H99.1709V102.168Z" fill="white"/>
<path d="M94.0947 107.209V102.107H99.2027V107.209H94.0947ZM94.1882 102.2V107.116H99.1093V102.2H94.1882Z" fill="white"/>
<path d="M44.2909 102.169H39.2764V107.178H44.2909V102.169Z" fill="white"/>
<path d="M271.599 109.978H266.584V114.987H271.599V109.978Z" fill="white"/>
<path d="M248.083 109.978H243.068V114.987H248.083V109.978Z" fill="white"/>
<path d="M224.567 109.978H219.553V114.987H224.567V109.978Z" fill="white"/>
<path d="M216.719 109.978H211.704V114.987H216.719V109.978Z" fill="white"/>
<path d="M208.9 109.978H203.886V114.987H208.9V109.978Z" fill="white"/>
<path d="M114.838 109.977H109.823V114.986H114.838V109.977Z" fill="white"/>
<path d="M109.762 115.049V109.947H114.87V115.049H109.762ZM109.855 110.04V114.955H114.776V110.04H109.855Z" fill="white"/>
<path d="M106.989 109.977H101.975V114.986H106.989V109.977Z" fill="white"/>
<path d="M101.943 115.049V109.947H107.051V115.049H101.943ZM102.037 110.04V114.955H106.958V110.04H102.037Z" fill="white"/>
<path d="M59.958 109.978H54.9434V114.987H59.958V109.978Z" fill="white"/>
<path d="M53.3242 108.796H48.3096V113.805H53.3242V108.796Z" fill="white"/>
<path d="M44.2909 109.978H39.2764V114.987H44.2909V109.978Z" fill="white"/>
<path d="M263.75 117.818H258.735V122.827H263.75V117.818Z" fill="white"/>
<path d="M255.931 117.818H250.917V122.827H255.931V117.818Z" fill="white"/>
<path d="M240.234 117.818H235.22V122.827H240.234V117.818Z" fill="white"/>
<path d="M208.9 117.818H203.886V122.827H208.9V117.818Z" fill="white"/>
<path d="M101.602 123.2V117.413H107.395V123.2H101.602ZM102.349 118.191V122.453H106.616V118.191H102.349Z" fill="white"/>
<path d="M93.7529 123.2V117.413H99.5462V123.2H93.7529ZM94.5316 118.191V122.453H98.7987V118.191H94.5316Z" fill="white"/>
<path d="M83.4736 117.818H78.459V122.827H83.4736V117.818Z" fill="white"/>
<path d="M62.4189 123.2V117.413H68.2122V123.2H62.4189ZM63.1665 118.191V122.453H67.4335V118.191H63.1665Z" fill="#ABABAB"/>
<path d="M59.958 117.818H54.9434V122.827H59.958V117.818Z" fill="white"/>
<path d="M52.1406 117.818H47.126V122.827H52.1406V117.818Z" fill="white"/>
<path d="M279.447 125.658H274.433V130.667H279.447V125.658Z" fill="white"/>
<path d="M271.599 125.658H266.584V130.667H271.599V125.658Z" fill="white"/>
<path d="M263.75 125.658H258.735V130.667H263.75V125.658Z" fill="white"/>
<path d="M248.083 125.658H243.068V130.667H248.083V125.658Z" fill="white"/>
<path d="M232.416 125.658H227.401V130.667H232.416V125.658Z" fill="white"/>
<path d="M224.567 125.658H219.553V130.667H224.567V125.658Z" fill="white"/>
<path d="M208.9 125.658H203.886V130.667H208.9V125.658Z" fill="white"/>
<path d="M193.234 125.658H188.22V130.667H193.234V125.658Z" fill="white"/>
<path d="M185.385 125.658H180.37V130.667H185.385V125.658Z" fill="white"/>
<path d="M177.536 125.658H172.521V130.667H177.536V125.658Z" fill="white"/>
<path d="M161.87 125.658H156.855V130.667H161.87V125.658Z" fill="white"/>
<path d="M132.966 131.04V125.253H138.728V131.04H132.966ZM133.713 126.031V130.293H137.98V126.031H133.713Z" fill="white"/>
<path d="M122.687 125.658H117.673V130.667H122.687V125.658Z" fill="white"/>
<path d="M114.838 125.658H109.823V130.667H114.838V125.658Z" fill="white"/>
<path d="M101.602 131.04V125.253H107.395V131.04H101.602ZM102.349 126.031V130.293H106.616V126.031H102.349Z" fill="white"/>
<path d="M93.7529 131.04V125.253H99.5462V131.04H93.7529ZM94.5316 126.031V130.293H98.7987V126.031H94.5316Z" fill="white"/>
<path d="M85.9346 131.04V125.253H91.6967V131.04H85.9346ZM86.6821 126.031V130.293H90.9491V126.031H86.6821Z" fill="white"/>
<path d="M83.4736 125.658H78.459V130.667H83.4736V125.658Z" fill="white"/>
<path d="M75.6562 125.658H70.6416V130.667H75.6562V125.658Z" fill="white"/>
<path d="M67.8075 125.658H62.793V130.667H67.8075V125.658Z" fill="white"/>
<path d="M59.958 125.658H54.9434V130.667H59.958V125.658Z" fill="white"/>
<path d="M44.2909 125.658H39.2764V130.667H44.2909V125.658Z" fill="white"/>
<path d="M279.447 133.467H274.433V138.475H279.447V133.467Z" fill="white"/>
<path d="M263.75 133.467H258.735V138.475H263.75V133.467Z" fill="white"/>
<path d="M240.234 133.467H235.22V138.475H240.234V133.467Z" fill="white"/>
<path d="M224.567 133.467H219.553V138.475H224.567V133.467Z" fill="white"/>
<path d="M216.719 133.467H211.704V138.475H216.719V133.467Z" fill="white"/>
<path d="M208.9 133.467H203.886V138.475H208.9V133.467Z" fill="white"/>
<path d="M195.664 138.88V133.093H201.457V138.88H195.664ZM196.412 133.84V138.102H200.679V133.84H196.412Z" fill="white"/>
<path d="M187.814 138.88V133.093H193.608V138.88H187.814ZM188.593 133.84V138.102H192.86V133.84H188.593Z" fill="white"/>
<path d="M179.997 138.88V133.093H185.759V138.88H179.997ZM180.745 133.84V138.102H185.012V133.84H180.745Z" fill="white"/>
<path d="M155.204 132.284H150.189V137.293H155.204V132.284Z" fill="white"/>
<path d="M138.353 133.467H133.339V138.475H138.353V133.467Z" fill="white"/>
<path d="M130.505 133.467H125.49V138.475H130.505V133.467Z" fill="white"/>
<path d="M122.687 133.467H117.673V138.475H122.687V133.467Z" fill="white"/>
<path d="M114.838 133.467H109.823V138.475H114.838V133.467Z" fill="white"/>
<path d="M106.989 133.467H101.975V138.475H106.989V133.467Z" fill="#999999"/>
<path d="M99.1719 133.467H94.1572V138.475H99.1719V133.467Z" fill="white"/>
<path d="M91.3232 133.467H86.3086V138.475H91.3232V133.467Z" fill="white"/>
<path d="M75.6562 133.467H70.6416V138.475H75.6562V133.467Z" fill="white"/>
<path d="M59.9579 133.467H54.9434V138.475H59.9579V133.467Z" fill="white"/>
<path d="M232.416 141.307H227.401V146.316H232.416V141.307Z" fill="white"/>
<path d="M216.719 141.307H211.704V146.316H216.719V141.307Z" fill="white"/>
<path d="M187.814 146.689V140.933H193.608V146.72H187.814V146.689ZM188.593 141.68V145.942H192.86V141.68H188.593Z" fill="white"/>
<path d="M179.997 146.689V140.933H185.759V146.72H179.997V146.689ZM180.745 141.68V145.942H185.012V141.68H180.745Z" fill="#ABABAB"/>
<path d="M177.536 141.307H172.521V146.316H177.536V141.307Z" fill="white"/>
<path d="M154.02 141.307H149.006V146.316H154.02V141.307Z" fill="white"/>
<path d="M138.353 141.307H133.339V146.316H138.353V141.307Z" fill="white"/>
<path d="M122.687 141.307H117.673V146.316H122.687V141.307Z" fill="white"/>
<path d="M114.838 141.307H109.823V146.316H114.838V141.307Z" fill="white"/>
<path d="M106.989 141.307H101.975V146.316H106.989V141.307Z" fill="white"/>
<path d="M99.1719 141.307H94.1572V146.316H99.1719V141.307Z" fill="#999999"/>
<path d="M92.5068 140.125H87.4922V145.133H92.5068V140.125Z" fill="white"/>
<path d="M83.4735 141.307H78.459V146.316H83.4735V141.307Z" fill="white"/>
<path d="M67.8075 141.307H62.793V146.316H67.8075V141.307Z" fill="white"/>
<path d="M59.9579 141.307H54.9434V146.316H59.9579V141.307Z" fill="white"/>
<path d="M46.752 146.689V140.933H52.5452V146.72H46.752V146.689ZM47.4995 141.68V145.942H51.7665V141.68H47.4995Z" fill="#ABABAB"/>
<path d="M44.2909 141.307H39.2764V146.316H44.2909V141.307Z" fill="white"/>
<path d="M279.447 149.147H274.433V154.156H279.447V149.147Z" fill="white"/>
<path d="M266.211 154.529V148.742H272.004V154.529H266.211ZM266.958 149.52V153.782H271.226V149.52H266.958Z" fill="white"/>
<path d="M258.361 154.529V148.742H264.155V154.529H258.361ZM259.14 149.52V153.782H263.407V149.52H259.14Z" fill="white"/>
<path d="M240.234 149.147H235.22V154.156H240.234V149.147Z" fill="white"/>
<path d="M224.567 149.147H219.553V154.156H224.567V149.147Z" fill="white"/>
<path d="M208.9 149.147H203.886V154.156H208.9V149.147Z" fill="white"/>
<path d="M201.052 149.147H196.037V154.156H201.052V149.147Z" fill="white"/>
<path d="M185.385 149.147H180.37V154.156H185.385V149.147Z" fill="white"/>
<path d="M177.536 149.147H172.521V154.156H177.536V149.147Z" fill="white"/>
<path d="M146.202 149.147H141.188V154.156H146.202V149.147Z" fill="white"/>
<path d="M139.538 147.933H134.523V152.942H139.538V147.933Z" fill="white"/>
<path d="M117.269 154.529V148.742H123.062V154.529H117.269ZM118.047 149.52V153.782H122.314V149.52H118.047Z" fill="white"/>
<path d="M93.7529 154.529V148.742H99.5462V154.529H93.7529ZM94.5316 149.52V153.782H98.7987V149.52H94.5316Z" fill="white"/>
<path d="M91.3232 149.147H86.3086V154.156H91.3232V149.147Z" fill="white"/>
<path d="M83.4735 149.147H78.459V154.156H83.4735V149.147Z" fill="white"/>
<path d="M75.6562 149.147H70.6416V154.156H75.6562V149.147Z" fill="white"/>
<path d="M67.8075 149.147H62.793V154.156H67.8075V149.147Z" fill="white"/>
<path d="M46.752 154.529V148.742H52.5452V154.529H46.752ZM47.4995 149.52V153.782H51.7665V149.52H47.4995Z" fill="white"/>
<path d="M289.726 162.369V156.582H295.519V162.369H289.726ZM290.473 157.329V161.591H294.74V157.329H290.473Z" fill="#ABABAB"/>
<path d="M263.75 156.956H258.735V161.964H263.75V156.956Z" fill="white"/>
<path d="M250.544 162.369V156.582H256.337V162.369H250.544ZM251.291 157.329V161.591H255.559V157.329H251.291Z" fill="white"/>
<path d="M240.234 156.956H235.22V161.964H240.234V156.956Z" fill="white"/>
<path d="M232.416 156.956H227.401V161.964H232.416V156.956Z" fill="white"/>
<path d="M201.052 156.956H196.037V161.964H201.052V156.956Z" fill="white"/>
<path d="M193.234 156.956H188.22V161.964H193.234V156.956Z" fill="white"/>
<path d="M177.536 156.956H172.521V161.964H177.536V156.956Z" fill="white"/>
<path d="M154.02 156.956H149.006V161.964H154.02V156.956Z" fill="white"/>
<path d="M147.387 155.773H142.372V160.782H147.387V155.773Z" fill="white"/>
<path d="M138.353 156.956H133.339V161.964H138.353V156.956Z" fill="white"/>
<path d="M130.505 156.956H125.49V161.964H130.505V156.956Z" fill="white"/>
<path d="M117.269 162.369V156.582H123.062V162.369H117.269ZM118.047 157.329V161.591H122.314V157.329H118.047Z" fill="white"/>
<path d="M91.3232 156.956H86.3086V161.964H91.3232V156.956Z" fill="white"/>
<path d="M70.2676 162.369V156.582H76.0608V162.369H70.2676ZM71.0151 157.329V161.591H75.2822V157.329H71.0151Z" fill="white"/>
<path d="M46.752 162.369V156.582H52.5452V162.369H46.752ZM47.4995 157.329V161.591H51.7665V157.329H47.4995Z" fill="white"/>
<path d="M38.9033 162.369V156.582H44.6654V162.369H38.9033ZM39.6508 157.329V161.591H43.9179V157.329H39.6508Z" fill="white"/>
<path d="M193.234 164.796H188.22V169.805H193.234V164.796Z" fill="white"/>
<path d="M216.719 164.796H211.704V169.805H216.719V164.796Z" fill="white"/>
<path d="M185.385 164.796H180.37V169.805H185.385V164.796Z" fill="white"/>
<path d="M138.353 164.796H133.339V169.805H138.353V164.796Z" fill="white"/>
<path d="M99.1719 164.796H94.1572V169.805H99.1719V164.796Z" fill="white"/>
<path d="M91.3232 164.796H86.3086V169.805H91.3232V164.796Z" fill="white"/>
<path d="M83.4735 164.796H78.459V169.805H83.4735V164.796Z" fill="white"/>
<path d="M70.2676 170.178V164.391H76.0608V170.178H70.2676ZM71.0151 165.169V169.431H75.2822V165.169H71.0151Z" fill="white"/>
<path d="M62.4189 170.178V164.391H68.2122V170.178H62.4189ZM63.1665 165.169V169.431H67.4335V165.169H63.1665Z" fill="white"/>
<path d="M287.266 172.635H282.251V177.644H287.266V172.635Z" fill="white"/>
<path d="M279.447 172.635H274.433V177.644H279.447V172.635Z" fill="white"/>
<path d="M255.931 172.635H250.917V177.644H255.931V172.635Z" fill="white"/>
<path d="M248.083 172.635H243.068V177.644H248.083V172.635Z" fill="white"/>
<path d="M240.234 172.635H235.22V177.644H240.234V172.635Z" fill="white"/>
<path d="M227.028 178.018V172.231H232.79V178.018H227.028ZM227.776 173.009V177.271H232.043V173.009H227.776Z" fill="#ABABAB"/>
<path d="M224.567 172.635H219.553V177.644H224.567V172.635Z" fill="white"/>
<path d="M195.664 178.018V172.231H201.457V178.018H195.664ZM196.412 173.009V177.271H200.679V173.009H196.412Z" fill="white"/>
<path d="M187.814 178.018V172.231H193.608V178.018H187.814ZM188.593 173.009V177.271H192.86V173.009H188.593Z" fill="white"/>
<path d="M179.997 178.018V172.231H185.759V178.018H179.997ZM180.745 173.009V177.271H185.012V173.009H180.745Z" fill="white"/>
<path d="M169.719 172.635H164.704V177.644H169.719V172.635Z" fill="white"/>
<path d="M154.02 172.635H149.006V177.644H154.02V172.635Z" fill="white"/>
<path d="M132.966 178.018V172.231H138.728V178.018H132.966ZM133.713 173.009V177.271H137.98V173.009H133.713Z" fill="#ABABAB"/>
<path d="M130.505 172.635H125.49V177.644H130.505V172.635Z" fill="white"/>
<path d="M114.994 238V232.213H120.787V238H114.994ZM115.742 232.991V237.253H120.009V232.991H115.742Z" fill="white"/>
<path d="M101.602 178.018V172.231H107.395V178.018H101.602ZM102.349 173.009V177.271H106.616V173.009H102.349Z" fill="white"/>
<path d="M93.7529 178.018V172.231H99.5462V178.018H93.7529ZM94.5316 173.009V177.271H98.7987V173.009H94.5316Z" fill="white"/>
<path d="M85.9346 178.018V172.231H91.6967V178.018H85.9346ZM86.6821 173.009V177.271H90.9491V173.009H86.6821Z" fill="white"/>
<path d="M62.4189 178.018V172.231H68.2122V178.018H62.4189ZM63.1665 173.009V177.271H67.4335V173.009H63.1665Z" fill="white"/>
<path d="M224.567 180.444H219.553V185.453H224.567V180.444Z" fill="white"/>
<path d="M216.719 180.444H211.704V185.453H216.719V180.444Z" fill="white"/>
<path d="M208.9 180.444H203.886V185.453H208.9V180.444Z" fill="white"/>
<path d="M195.664 185.858V180.071H201.457V185.858H195.664ZM196.412 180.818V185.08H200.679V180.818H196.412Z" fill="white"/>
<path d="M179.997 185.858V180.071H185.759V185.858H179.997ZM180.745 180.818V185.08H185.012V180.818H180.745Z" fill="#ABABAB"/>
<path d="M177.536 180.444H172.521V185.453H177.536V180.444Z" fill="white"/>
<path d="M169.719 180.444H164.704V185.453H169.719V180.444Z" fill="white"/>
<path d="M155.204 179.262H150.189V184.271H155.204V179.262Z" fill="white"/>
<path d="M146.202 180.444H141.188V185.453H146.202V180.444Z" fill="white"/>
<path d="M130.505 180.444H125.49V185.453H130.505V180.444Z" fill="white"/>
<path d="M117.269 185.858V180.071H123.062V185.858H117.269ZM118.047 180.818V185.08H122.314V180.818H118.047Z" fill="white"/>
<path d="M109.45 185.858V180.071H115.243V185.858H109.45ZM110.198 180.818V185.08H114.465V180.818H110.198Z" fill="#ABABAB"/>
<path d="M101.602 185.858V180.071H107.395V185.858H101.602ZM102.349 180.818V185.08H106.616V180.818H102.349Z" fill="white"/>
<path d="M99.1718 180.444H94.1572V185.453H99.1718V180.444Z" fill="white"/>
<path d="M91.3232 180.444H86.3086V185.453H91.3232V180.444Z" fill="#999999"/>
<path d="M83.4735 180.444H78.459V185.453H83.4735V180.444Z" fill="white"/>
<path d="M75.6562 180.444H70.6416V185.453H75.6562V180.444Z" fill="white"/>
<path d="M279.447 188.284H274.433V193.293H279.447V188.284Z" fill="white"/>
<path d="M263.75 188.284H258.735V193.293H263.75V188.284Z" fill="white"/>
<path d="M248.083 188.284H243.068V193.293H248.083V188.284Z" fill="white"/>
<path d="M240.234 188.284H235.22V193.293H240.234V188.284Z" fill="white"/>
<path d="M208.9 188.284H203.886V193.293H208.9V188.284Z" fill="white"/>
<path d="M195.664 193.667V187.911H201.457V193.698H195.664V193.667ZM196.412 188.658V192.92H200.679V188.658H196.412Z" fill="white"/>
<path d="M179.997 193.667V187.911H185.759V193.698H179.997V193.667ZM180.745 188.658V192.92H185.012V188.658H180.745Z" fill="white"/>
<path d="M177.536 188.284H172.521V193.293H177.536V188.284Z" fill="white"/>
<path d="M154.02 188.284H149.006V193.293H154.02V188.284Z" fill="white"/>
<path d="M146.202 188.284H141.188V193.293H146.202V188.284Z" fill="white"/>
<path d="M138.353 188.284H133.339V193.293H138.353V188.284Z" fill="white"/>
<path d="M130.505 188.284H125.49V193.293H130.505V188.284Z" fill="white"/>
<path d="M117.269 193.667V187.911H123.062V193.698H117.269V193.667ZM118.047 188.658V192.92H122.314V188.658H118.047Z" fill="#ABABAB"/>
<path d="M101.602 193.667V187.911H107.395V193.698H101.602V193.667ZM102.349 188.658V192.92H106.616V188.658H102.349Z" fill="white"/>
<path d="M83.4735 188.284H78.459V193.293H83.4735V188.284Z" fill="white"/>
<path d="M67.8075 188.284H62.793V193.293H67.8075V188.284Z" fill="white"/>
<path d="M59.9579 188.284H54.9434V193.293H59.9579V188.284Z" fill="white"/>
<path d="M44.2909 188.284H39.2764V193.293H44.2909V188.284Z" fill="white"/>
<path d="M250.544 201.507V195.72H256.337V201.507H250.544ZM251.291 196.498V200.76H255.559V196.498H251.291Z" fill="#ABABAB"/>
<path d="M240.234 196.125H235.22V201.133H240.234V196.125Z" fill="white"/>
<path d="M224.567 196.125H219.553V201.133H224.567V196.125Z" fill="white"/>
<path d="M216.719 196.125H211.704V201.133H216.719V196.125Z" fill="white"/>
<path d="M169.719 196.125H164.704V201.133H169.719V196.125Z" fill="white"/>
<path d="M146.202 196.125H141.188V201.133H146.202V196.125Z" fill="#999999"/>
<path d="M130.505 196.125H125.49V201.133H130.505V196.125Z" fill="white"/>
<path d="M117.269 201.507V195.72H123.062V201.507H117.269ZM118.047 196.498V200.76H122.314V196.498H118.047Z" fill="white"/>
<path d="M109.45 201.507V195.72H115.243V201.507H109.45ZM110.198 196.498V200.76H114.465V196.498H110.198Z" fill="white"/>
<path d="M101.602 201.507V195.72H107.395V201.507H101.602ZM102.349 196.498V200.76H106.616V196.498H102.349Z" fill="white"/>
<path d="M99.1718 196.125H94.1572V201.133H99.1718V196.125Z" fill="white"/>
<path d="M91.3232 196.125H86.3086V201.133H91.3232V196.125Z" fill="white"/>
<path d="M75.6562 196.125H70.6416V201.133H75.6562V196.125Z" fill="white"/>
<path d="M67.8075 196.125H62.793V201.133H67.8075V196.125Z" fill="white"/>
<path d="M59.9579 196.125H54.9434V201.133H59.9579V196.125Z" fill="white"/>
<path d="M52.1406 196.125H47.126V201.133H52.1406V196.125Z" fill="white"/>
<path d="M44.2909 196.125H39.2764V201.133H44.2909V196.125Z" fill="white"/>
<path d="M271.599 203.933H266.584V208.942H271.599V203.933Z" fill="white"/>
<path d="M240.234 203.933H235.22V208.942H240.234V203.933Z" fill="white"/>
<path d="M232.416 203.933H227.401V208.942H232.416V203.933Z" fill="white"/>
<path d="M216.719 203.933H211.704V208.942H216.719V203.933Z" fill="#999999"/>
<path d="M179.997 209.347V203.56H185.759V209.347H179.997ZM180.745 204.307V208.569H185.012V204.307H180.745Z" fill="white"/>
<path d="M154.02 203.933H149.006V208.942H154.02V203.933Z" fill="white"/>
<path d="M146.202 203.933H141.188V208.942H146.202V203.933Z" fill="#999999"/>
<path d="M138.353 203.933H133.339V208.942H138.353V203.933Z" fill="white"/>
<path d="M130.505 203.933H125.49V208.942H130.505V203.933Z" fill="white"/>
<path d="M85.9346 209.347V203.56H91.6967V209.347H85.9346ZM86.6821 204.307V208.569H90.9491V204.307H86.6821Z" fill="white"/>
<path d="M70.2676 209.347V203.56H76.0608V209.347H70.2676ZM71.0151 204.307V208.569H75.2822V204.307H71.0151Z" fill="white"/>
<path d="M62.4189 209.347V203.56H68.2122V209.347H62.4189ZM63.1665 204.307V208.569H67.4335V204.307H63.1665Z" fill="white"/>
<path d="M52.1406 203.933H47.126V208.942H52.1406V203.933Z" fill="white"/>
<path d="M271.599 211.773H266.584V216.782H271.599V211.773Z" fill="white"/>
<path d="M248.083 211.773H243.068V216.782H248.083V211.773Z" fill="white"/>
<path d="M36.5048 141.742H31.4902V146.751H36.5048V141.742Z" fill="white"/>
<path d="M20.8076 141.742H15.793V146.751H20.8076V141.742Z" fill="white"/>
<path d="M5.14056 141.742H0.125977L0.125977 146.751H5.14056L5.14056 141.742Z" fill="white"/>
<path d="M12.9892 149.582H7.97461L7.97461 154.591H12.9892V149.582Z" fill="#999999"/>
<path d="M28.6562 157.422H23.6416V162.431H28.6562V157.422Z" fill="white"/>
<path d="M28.6562 165.231H23.6416V170.24H28.6562V165.231Z" fill="white"/>
<path d="M5.14056 165.231H0.125977L0.125977 170.24H5.14056L5.14056 165.231Z" fill="white"/>
<path d="M240.234 211.773H235.22V216.782H240.234V211.773Z" fill="white"/>
<path d="M216.719 211.773H211.704V216.782H216.719V211.773Z" fill="white"/>
<path d="M161.87 211.773H156.855V216.782H161.87V211.773Z" fill="white"/>
<path d="M146.202 211.773H141.188V216.782H146.202V211.773Z" fill="white"/>
<path d="M138.353 211.773H133.339V216.782H138.353V211.773Z" fill="white"/>
<path d="M117.269 217.156V211.369H123.062V217.156H117.269ZM118.047 212.147V216.409H122.314V212.147H118.047Z" fill="white"/>
<path d="M109.45 217.156V211.369H115.243V217.156H109.45ZM110.198 212.147V216.409H114.465V212.147H110.198Z" fill="white"/>
<path d="M101.602 217.156V211.369H107.395V217.156H101.602ZM102.349 212.147V216.409H106.616V212.147H102.349Z" fill="white"/>
<path d="M78.0859 217.156V211.369H83.8792V217.156H78.0859ZM78.8646 212.147V216.409H83.1317V212.147H78.8646Z" fill="white"/>
<path d="M224.567 219.582H219.553V224.591H224.567V219.582Z" fill="white"/>
<path d="M179.997 224.996V219.209H185.759V224.996H179.997ZM180.745 219.987V224.249H185.012V219.987H180.745Z" fill="white"/>
<path d="M161.87 219.582H156.855V224.591H161.87V219.582Z" fill="white"/>
<path d="M148.633 224.996V219.209H154.426V224.996H148.633ZM149.38 219.987V224.249H153.647V219.987H149.38Z" fill="#ABABAB"/>
<path d="M146.202 219.582H141.188V224.591H146.202V219.582Z" fill="white"/>
<path d="M101.602 224.996V219.209H107.395V224.996H101.602ZM102.349 219.987V224.249H106.616V219.987H102.349Z" fill="white"/>
<path d="M85.9346 224.996V219.209H91.6967V224.996H85.9346ZM86.6821 219.987V224.249H90.9491V219.987H86.6821Z" fill="white"/>
<path d="M78.0859 224.996V219.209H83.8792V224.996H78.0859ZM78.8646 219.987V224.249H83.1317V219.987H78.8646Z" fill="white"/>
</g>
</g>
<defs>
<clipPath id="clip0">
<rect width="349.931" height="238" fill="white" transform="translate(0.125977)"/>
</clipPath>
</defs>
</svg>
