<svg width="94" height="94" viewBox="0 0 94 94" fill="none" xmlns="http://www.w3.org/2000/svg">
<circle cx="47" cy="47" r="47" fill="#1072FF"/>
<path d="M50.0684 54.0703H49.6767C48.7227 51.3734 46.1385 49.5 43.2129 49.5C40.2683 49.5 37.6707 51.398 36.7312 54.1217C34.321 54.4474 32.3829 56.283 31.9021 58.6406H31.7871C29.2665 58.6406 27.2168 60.6903 27.2168 63.2109C27.2168 65.7315 29.2665 67.7812 31.7871 67.7812H50.0684C53.8487 67.7812 57 64.7061 57 60.9258C57 57.1454 53.8487 54.0703 50.0684 54.0703Z" fill="white"/>
<path d="M47.7832 31.2188H18V40.3594H47.7832V31.2188ZM24.9316 38.0742H22.6465V35.7891H24.9316V38.0742ZM29.502 38.0742H27.2168V35.7891H29.502V38.0742ZM34.0723 38.0742H31.7871V35.7891H34.0723V38.0742Z" fill="white"/>
<path d="M43.2129 47.2148C44.8546 47.2148 46.4222 47.6596 47.7832 48.4472V42.6445H18V49.5H37.1934C38.8249 48.0684 40.9414 47.2148 43.2129 47.2148ZM24.9316 47.2148H22.6465V44.9297H24.9316V47.2148ZM29.502 47.2148H27.2168V44.9297H29.502V47.2148ZM34.0723 47.2148H31.7871V44.9297H34.0723V47.2148Z" fill="white"/>
<path d="M30.1859 56.5441C31.1131 54.4519 32.9029 52.8452 35.0943 52.1545C35.1611 52.0255 35.2465 51.9102 35.319 51.7852H18V60.9258H25.3248C26.0936 58.7581 27.9224 57.0877 30.1859 56.5441ZM27.2168 54.0703H29.502V56.3555H27.2168V54.0703ZM24.9316 56.3555H22.6465V54.0703H24.9316V56.3555Z" fill="white"/>
<g clip-path="url(#clip0)">
<path d="M75.4875 25.0032C70.6073 24.9157 65.0416 27.4667 61.5187 31.424C58.1521 31.4875 54.8739 32.8677 52.4604 35.2813C52.3198 35.4198 52.2698 35.6271 52.3312 35.8146C52.3937 36.0032 52.5562 36.1396 52.7521 36.1677L56.7666 36.7427L56.2708 37.2979C56.0864 37.5042 56.0958 37.8177 56.2916 38.0136L62.9864 44.7084C63.0875 44.8094 63.2208 44.8604 63.3552 44.8604C63.4791 44.8604 63.6031 44.8167 63.7021 44.7282L64.2573 44.2323L64.8323 48.2469C64.8604 48.4427 65.0146 48.5865 65.201 48.649C65.2489 48.6646 65.2989 48.6719 65.35 48.6719C65.4979 48.6719 65.6489 48.6073 65.7531 48.5042C68.1333 46.124 69.5135 42.8459 69.5771 39.4792C73.5385 35.949 76.1104 30.3854 75.9969 25.5115C75.9896 25.2344 75.7656 25.0105 75.4875 25.0032ZM70.6875 33.9948C70.1802 34.5021 69.5135 34.7563 68.8458 34.7563C68.1781 34.7563 67.5114 34.5021 67.0041 33.9948C65.9896 32.9792 65.9896 31.3271 67.0041 30.3115C68.0198 29.2959 69.6719 29.2959 70.6875 30.3115C71.7031 31.3271 71.7031 32.9802 70.6875 33.9948Z" fill="white"/>
<path d="M53.8375 42.6094C52.7229 43.7239 51.1927 48.7594 51.0219 49.3292C50.9667 49.5125 51.0177 49.7114 51.1521 49.8469C51.2521 49.9469 51.3844 50 51.5208 50C51.5708 50 51.6208 49.9927 51.6708 49.9781C52.2406 49.8073 57.276 48.2771 58.3906 47.1625C59.6458 45.9073 59.6458 43.8646 58.3906 42.6094C57.1344 41.3541 55.0927 41.3552 53.8375 42.6094Z" fill="white"/>
</g>
<defs>
<clipPath id="clip0">
<rect width="25" height="25" fill="white" transform="translate(51 25)"/>
</clipPath>
</defs>
</svg>
