<svg width="94" height="94" viewBox="0 0 94 94" fill="none" xmlns="http://www.w3.org/2000/svg">
<circle cx="47" cy="47" r="47" fill="#1072FF"/>
<g clip-path="url(#clip0)">
<path d="M31.3396 33.7004C31.9761 33.7004 32.4921 33.1845 32.4921 32.548C32.4921 31.9115 31.9761 31.3955 31.3396 31.3955C30.7031 31.3955 30.1871 31.9115 30.1871 32.548C30.1871 33.1845 30.7031 33.7004 31.3396 33.7004Z" fill="white"/>
<path d="M33.0112 37.1577H29.668C29.3188 37.1577 29.0347 37.4205 29.0347 37.7432V40.1748C29.7504 40.4555 30.526 40.615 31.3396 40.615C32.1532 40.615 32.9288 40.4554 33.6444 40.1748V37.7432C33.6444 37.4205 33.3604 37.1577 33.0112 37.1577Z" fill="white"/>
<path d="M45.1689 26.2097C45.8054 26.2097 46.3213 25.6937 46.3213 25.0572C46.3213 24.4208 45.8054 23.9048 45.1689 23.9048C44.5324 23.9048 44.0164 24.4208 44.0164 25.0572C44.0164 25.6937 44.5324 26.2097 45.1689 26.2097Z" fill="white"/>
<path d="M46.8405 29.667H43.4973C43.1481 29.667 42.864 29.9297 42.864 30.2524V32.6841C43.5797 32.9648 44.3553 33.1243 45.1689 33.1243C45.9825 33.1243 46.7581 32.9647 47.4737 32.6841V30.2524C47.4737 29.9297 47.1896 29.667 46.8405 29.667Z" fill="white"/>
<path d="M52.6597 41.1914C53.2962 41.1914 53.8122 40.6754 53.8122 40.0389C53.8122 39.4024 53.2962 38.8865 52.6597 38.8865C52.0232 38.8865 51.5073 39.4024 51.5073 40.0389C51.5073 40.6754 52.0232 41.1914 52.6597 41.1914Z" fill="white"/>
<path d="M54.3313 44.6487H50.9881C50.6389 44.6487 50.3549 44.9114 50.3549 45.2341V47.6658C51.0705 47.9464 51.8461 48.106 52.6597 48.106C53.4733 48.106 54.2489 47.9464 54.9646 47.6658V45.2341C54.9646 44.912 54.6805 44.6487 54.3313 44.6487Z" fill="white"/>
<path d="M52.6597 35.4293C52.5826 35.4293 52.5076 35.438 52.4316 35.4409L49.9878 30.8899C50.8648 29.8631 51.4151 28.5544 51.49 27.1197L55.115 28.8697C55.0222 29.1192 54.9646 29.386 54.9646 29.6671C54.9646 30.9383 55.9983 31.972 57.2695 31.972C58.5406 31.972 59.5743 30.9382 59.5743 29.6671C59.5743 28.396 58.5406 27.3623 57.2695 27.3623C56.703 27.3623 56.1908 27.5755 55.7892 27.9154L51.4225 25.807C50.8901 22.3975 47.6397 19.8766 43.9616 20.5594C41.4458 21.0261 39.4221 23.0435 38.9467 25.5575C38.8856 25.8802 38.851 26.1994 38.8378 26.514L35.4225 29.4361C34.4568 28.6201 33.2456 28.0877 31.9157 27.9673V24.975C32.9067 24.7174 33.6443 23.8231 33.6443 22.7519C33.6443 21.4807 32.6106 20.447 31.3395 20.447C30.0683 20.447 29.0346 21.4808 29.0346 22.7519C29.0346 23.823 29.7722 24.7174 30.7633 24.975V27.9673C27.5376 28.26 25.0011 30.9758 25.0011 34.2764C25.0011 36.496 26.1501 38.4493 27.8822 39.5822V37.743C27.8822 36.7847 28.6837 36.005 29.6679 36.005H33.0111C33.9959 36.005 34.7969 36.7847 34.7969 37.743V39.5822C36.2362 38.6413 37.2613 37.1293 37.5707 35.3729L40.1712 37.4001C40.0508 37.6796 39.9822 37.9867 39.9822 38.3099C39.9822 39.5811 41.016 40.6148 42.2871 40.6148C43.5582 40.6148 44.5919 39.581 44.5919 38.3099C44.5919 37.0387 43.5582 36.005 42.2871 36.005C41.7569 36.005 41.2741 36.1923 40.884 36.4943L37.6623 33.9831C37.5978 32.5731 37.0775 31.2801 36.2356 30.2567L38.938 27.9437C39.2601 29.6747 40.2875 31.1602 41.7108 32.0908V30.2515C41.7108 29.2932 42.5123 28.5136 43.4965 28.5136H46.8397C47.8244 28.5136 48.6254 29.2932 48.6254 30.2515V30.8554C48.6254 31.0968 48.7648 31.283 48.9486 31.3792L51.2155 35.6012C48.4151 36.2575 46.3211 38.7698 46.3211 41.7673C46.3211 42.4835 46.4519 43.1669 46.672 43.8089L44.3389 45.5589C43.2476 43.6418 41.1893 42.3436 38.8297 42.3436C35.5291 42.3436 32.8128 44.8801 32.5207 48.1057H29.5279C29.2704 47.1147 28.3755 46.3771 27.3049 46.3771C26.0338 46.3769 25 47.4107 25 48.6819C25 49.953 26.0338 50.9867 27.3049 50.9867C28.3755 50.9867 29.2703 50.2491 29.5279 49.2581H32.5283C32.7087 51.2356 33.7925 52.9545 35.3726 53.9877V52.1484C35.3726 51.1902 36.1741 50.4105 37.1583 50.4105H40.5015C41.4862 50.4105 42.2872 51.1902 42.2872 52.1484V53.9877C43.6396 53.1038 44.6273 51.7157 44.9995 50.0948L48.776 51.9185C48.6832 52.168 48.6256 52.4348 48.6256 52.716C48.6256 53.9872 49.6594 55.0209 50.9305 55.0209C52.2016 55.0209 53.2353 53.9871 53.2353 52.716C53.2353 51.4449 52.2016 50.4111 50.9305 50.4111C50.3641 50.4111 49.8518 50.6243 49.4502 50.9643L45.155 48.8905C45.1573 48.8202 45.1683 48.7528 45.1683 48.6825C45.1683 47.9657 45.0432 47.2794 44.8232 46.6363L47.1516 44.8898C47.6535 45.7691 48.3565 46.5199 49.2024 47.0731V45.2338C49.2024 44.2755 50.0039 43.4959 50.9881 43.4959H54.3313C55.3161 43.4959 56.1171 44.2755 56.1171 45.2338V47.0731C57.8492 45.9402 58.9982 43.9868 58.9982 41.7672C58.9982 38.273 56.1545 35.4293 52.6597 35.4293ZM31.3396 34.8531C30.0684 34.8531 29.0347 33.8194 29.0347 32.5483C29.0347 31.2772 30.0685 30.2434 31.3396 30.2434C32.6107 30.2434 33.6445 31.2772 33.6445 32.5483C33.6445 33.8194 32.6102 34.8531 31.3396 34.8531ZM45.1689 27.3623C43.8977 27.3623 42.864 26.3285 42.864 25.0574C42.864 23.7863 43.8978 22.7526 45.1689 22.7526C46.44 22.7526 47.4737 23.7863 47.4737 25.0574C47.4737 26.3285 46.4395 27.3623 45.1689 27.3623ZM38.8304 49.2586C37.5593 49.2586 36.5256 48.2249 36.5256 46.9538C36.5256 45.6826 37.5593 44.6489 38.8304 44.6489C40.1015 44.6489 41.1353 45.6826 41.1353 46.9538C41.1353 48.2249 40.101 49.2586 38.8304 49.2586ZM52.6597 42.344C51.3886 42.344 50.3549 41.3102 50.3549 40.0391C50.3549 38.7679 51.3886 37.7342 52.6597 37.7342C53.9308 37.7342 54.9646 38.768 54.9646 40.0391C54.9646 41.3108 53.9303 42.344 52.6597 42.344Z" fill="white"/>
<path d="M38.8304 48.106C39.4669 48.106 39.9829 47.59 39.9829 46.9535C39.9829 46.317 39.4669 45.801 38.8304 45.801C38.194 45.801 37.678 46.317 37.678 46.9535C37.678 47.59 38.194 48.106 38.8304 48.106Z" fill="white"/>
<path d="M40.502 51.5632H37.1588C36.8097 51.5632 36.5256 51.826 36.5256 52.1487V54.5804C37.2412 54.861 38.0168 55.0206 38.8304 55.0206C39.6441 55.0206 40.4197 54.8609 41.1353 54.5804V52.1487C41.1353 51.8266 40.8512 51.5632 40.502 51.5632Z" fill="white"/>
</g>
<path d="M59.613 55.8579H59.0826C57.7907 52.2362 54.291 49.7202 50.3291 49.7202C46.3415 49.7202 42.8237 52.2691 41.5514 55.9268C38.2875 56.3644 35.6628 58.8294 35.0116 61.9956H34.8559C31.4425 61.9956 28.6667 64.7482 28.6667 68.1333C28.6667 71.5183 31.4425 74.2709 34.8559 74.2709H59.613C64.7324 74.2709 69 70.1412 69 65.0644C69 59.9876 64.7324 55.8579 59.613 55.8579Z" fill="white"/>
<defs>
<clipPath id="clip0">
<rect width="34.5744" height="34.5744" fill="white" transform="translate(25 20.4465)"/>
</clipPath>
</defs>
</svg>
