<svg width="94" height="94" viewBox="0 0 94 94" fill="none" xmlns="http://www.w3.org/2000/svg">
<circle cx="47" cy="47" r="47" fill="#1072FF"/>
<path d="M59.2941 28.1818H58.6892C57.2158 23.8635 53.2245 20.8636 48.7059 20.8636C44.158 20.8636 40.146 23.9028 38.6949 28.264C34.9725 28.7857 31.9791 31.7248 31.2364 35.5H31.0588C27.1658 35.5 24 38.7821 24 42.8182C24 46.8543 27.1658 50.1364 31.0588 50.1364H59.2941C65.1328 50.1364 70 45.2123 70 39.1591C70 33.1059 65.1328 28.1818 59.2941 28.1818Z" fill="white"/>
<g clip-path="url(#clip0)">
<path d="M59.3541 76.9209L55.0652 72.6328L52.9863 74.7117C52.8068 74.8912 52.5463 74.9651 52.2979 74.9077C52.0495 74.8488 51.8499 74.6665 51.7695 74.4246L47.611 61.9497C47.5227 61.6855 47.5916 61.394 47.7883 61.1973C47.9843 61.0013 48.2764 60.9296 48.5406 61.02L61.0156 65.1785C61.2575 65.259 61.4398 65.4585 61.4987 65.7069C61.5568 65.9545 61.4829 66.2151 61.3027 66.3953L59.2238 68.4742L63.5119 72.7631C63.799 73.0502 63.799 73.5154 63.5119 73.8025L60.3935 76.9209C60.1064 77.2081 59.6412 77.2081 59.3541 76.9209Z" fill="white"/>
<path d="M48.1925 57.9261C47.7862 57.9261 47.4574 57.5973 47.4574 57.191V52.7805C47.4574 52.3742 47.7862 52.0454 48.1925 52.0454C48.5988 52.0454 48.9276 52.3742 48.9276 52.7805V57.191C48.9276 57.5973 48.5988 57.9261 48.1925 57.9261Z" fill="white"/>
<path d="M44.5544 59.003L41.4353 55.8838C41.1482 55.5967 41.1482 55.1315 41.4353 54.8444C41.7224 54.5572 42.1876 54.5572 42.4748 54.8444L45.5938 57.9634C45.881 58.2506 45.881 58.7158 45.5938 59.0029C45.3067 59.2901 44.8416 59.2901 44.5544 59.003Z" fill="white"/>
<path d="M41.4353 68.3587C41.1482 68.0716 41.1482 67.6064 41.4353 67.3193L44.5544 64.2002C44.8415 63.9131 45.3067 63.9131 45.5938 64.2002C45.881 64.4873 45.881 64.9525 45.5938 65.2397L42.4748 68.3587C42.1876 68.6459 41.7225 68.6459 41.4353 68.3587Z" fill="white"/>
<path d="M50.7911 59.0029C50.504 58.7158 50.504 58.2506 50.7911 57.9634L53.9102 54.8444C54.1973 54.5572 54.6625 54.5572 54.9496 54.8444C55.2367 55.1315 55.2367 55.5967 54.9496 55.8838L51.8305 59.0029C51.5434 59.29 51.0783 59.29 50.7911 59.0029Z" fill="white"/>
<path d="M43.7819 62.3366H39.3714C38.9651 62.3366 38.6364 62.0078 38.6364 61.6015C38.6364 61.1952 38.9651 60.8665 39.3714 60.8665H43.7819C44.1883 60.8665 44.517 61.1952 44.517 61.6015C44.517 62.0078 44.1883 62.3366 43.7819 62.3366Z" fill="white"/>
</g>
<g clip-path="url(#clip1)">
<path d="M58.3703 38.3225L53.0339 32.9861C52.868 32.8202 52.5744 32.8202 52.4085 32.9861L51.2515 34.1431C51.0787 34.3159 51.0787 34.596 51.2515 34.7688L55.1183 38.6351L51.2518 42.5021C51.079 42.6749 51.079 42.955 51.2518 43.1278L52.4087 44.2848C52.4917 44.3677 52.6043 44.4146 52.7215 44.4146C52.8386 44.4146 52.9514 44.3677 53.0344 44.2848L58.3703 38.9486C58.5431 38.7756 58.5431 38.4953 58.3703 38.3225Z" fill="#1072FF"/>
<path d="M44.8388 42.5021L40.9727 38.6356L44.8395 34.7692C44.9225 34.6862 44.9691 34.5738 44.9691 34.4564C44.9691 34.3391 44.9227 34.2265 44.8395 34.1435L43.6826 32.9866C43.5996 32.9036 43.487 32.8569 43.3697 32.8569C43.2525 32.8569 43.1398 32.9036 43.0569 32.9866L37.7203 38.3225C37.5475 38.4953 37.5475 38.7754 37.7203 38.9484L43.0566 44.2845C43.1396 44.3675 43.2522 44.4144 43.3695 44.4144C43.4868 44.4144 43.5994 44.3675 43.6823 44.2845L44.8393 43.1276C45.0121 42.955 45.0121 42.6749 44.8388 42.5021Z" fill="#1072FF"/>
<path d="M51.0799 31.1909C51.0237 31.0878 50.929 31.0113 50.8166 30.9781L49.8787 30.7013C49.6446 30.6318 49.3981 30.7661 49.3291 31.0004L44.9751 45.7453C44.9419 45.8579 44.9548 45.9789 45.0107 46.0818C45.0667 46.1851 45.1616 46.2614 45.274 46.2948L46.2119 46.5716C46.2537 46.584 46.296 46.59 46.3374 46.59C46.5283 46.59 46.7046 46.4652 46.7615 46.2725L51.1155 31.5274C51.1487 31.4148 51.1361 31.2938 51.0799 31.1909Z" fill="#1072FF"/>
</g>
<defs>
<clipPath id="clip0">
<rect width="25.0909" height="25.0909" fill="white" transform="translate(38.6364 52.0454)"/>
</clipPath>
<clipPath id="clip1">
<rect width="20.9091" height="20.9091" fill="white" transform="translate(37.5909 28.1819)"/>
</clipPath>
</defs>
</svg>
