<svg width="94" height="94" viewBox="0 0 94 94" fill="none" xmlns="http://www.w3.org/2000/svg">
<circle cx="47" cy="47" r="47" fill="#1072FF"/>
<path d="M48.2174 67.0435V52.4348C48.2174 51.7628 47.6708 51.2174 47 51.2174H32.3913C31.7205 51.2174 31.1739 51.7628 31.1739 52.4348V67.0435C31.1739 67.7155 31.7205 68.2609 32.3913 68.2609H47C47.6708 68.2609 48.2174 67.7155 48.2174 67.0435ZM40.913 60.7325V65.8261H38.4783V60.7325C37.0649 60.2285 36.0435 58.8894 36.0435 57.3044C36.0435 55.2908 37.6821 53.6522 39.6957 53.6522C41.7092 53.6522 43.3478 55.2908 43.3478 57.3044C43.3478 58.8894 42.3264 60.2285 40.913 60.7325Z" fill="white"/>
<path d="M39.6957 36.6086C36.3393 36.6086 33.6087 39.3393 33.6087 42.6956V48.7826H45.7826V42.6956C45.7826 39.3393 43.052 36.6086 39.6957 36.6086Z" fill="white"/>
<path d="M28.9631 51.2174C29.3308 50.1863 30.1428 49.3743 31.1739 49.0066V42.6957C31.1739 37.9977 34.9965 34.1739 39.6957 34.1739C44.3948 34.1739 48.2174 37.9977 48.2174 42.6957V49.0066C49.2485 49.3743 50.0605 50.1863 50.4282 51.2174H70.1304C72.816 51.2174 75 49.0334 75 46.3478C75 43.6866 72.855 41.5184 70.2047 41.4783L70.0586 41.4856H68.6988L68.8485 40.1343C68.8875 39.7763 68.913 39.4136 68.913 39.0435C68.913 33.6736 64.5438 29.3043 59.1739 29.3043C57.6205 29.3043 56.1268 29.6671 54.7353 30.383L53.6043 30.9649L53.0723 29.8096C50.8908 25.0654 46.1174 22 40.913 22C33.5296 22 27.5217 28.0078 27.5217 35.3913V36.6087H26.3043C22.276 36.6087 19 39.8847 19 43.913C19 47.9414 22.276 51.2174 26.3043 51.2174H28.9631ZM59.1739 31.7391C63.2023 31.7391 66.4783 35.0151 66.4783 39.0435H64.0435C64.0435 36.3579 61.8595 34.1739 59.1739 34.1739V31.7391ZM40.913 24.4348C44.8123 24.4348 48.4487 26.5336 50.4026 29.9118L48.2953 31.1317C46.7748 28.5033 43.9468 26.8696 40.913 26.8696C40.1923 26.8696 39.4753 26.9597 38.7814 27.1386L38.1763 24.7793C39.0675 24.5517 39.9878 24.4348 40.913 24.4348ZM35.4348 25.9017L36.6534 28.0078C35.8536 28.4717 35.1353 29.0584 34.5217 29.7548L32.6957 28.143C33.4845 27.2506 34.4049 26.4958 35.4348 25.9017Z" fill="white"/>
</svg>
