<svg width="96" height="90" viewBox="0 0 96 90" fill="none" xmlns="http://www.w3.org/2000/svg">
<g clip-path="url(#clip0)">
<path d="M71.9032 73.022C68.3447 70.9453 65.4268 65.9144 65.4268 61.7907C65.3551 60.5283 65.743 59.2829 66.5181 58.2876C64.555 58.4308 63.2266 60.0779 63.2266 62.8708C63.2266 67.0005 66.1267 72.0314 69.7029 74.1082C71.9447 75.4151 73.9196 75.2361 75.0761 73.8993C73.9548 73.9348 72.849 73.629 71.9032 73.022Z" fill="#72B5E8"/>
<path d="M78.1969 71.6612C78.1912 71.1342 78.1536 70.608 78.0842 70.0857L80.6996 69.7515C80.4201 68.3905 80.0233 67.0566 79.5135 65.765L76.5482 64.8579C76.0269 63.731 75.4076 62.6526 74.6978 61.6353L75.4095 58.6096C74.5465 57.5189 73.5921 56.5046 72.5568 55.578L70.9496 57.6667C70.5296 57.3459 70.092 57.049 69.6389 56.7775C69.2151 56.5364 68.7751 56.325 68.3223 56.1449L66.721 52.1883C65.7932 51.9195 64.8247 51.8225 63.8624 51.9018L64.58 55.757C63.8784 55.9421 63.238 56.3106 62.7237 56.8253L59.7584 54.2651C59.2081 55.0542 58.8061 55.9381 58.5723 56.873L61.1877 60.2448C61.1175 60.727 61.0818 61.2136 61.0809 61.7009C61.0846 62.2278 61.1203 62.7539 61.1877 63.2764L58.5723 63.6106C58.8518 64.9716 59.2487 66.3055 59.7584 67.5971L62.7237 68.5042C63.2471 69.6312 63.8683 70.7096 64.58 71.7268L63.8624 74.7525C64.7274 75.8434 65.6837 76.8577 66.721 77.7841L68.3223 75.6954C68.7443 76.0163 69.1839 76.3131 69.6389 76.5846C70.0608 76.8257 70.4987 77.037 70.9496 77.2172L72.5568 81.1678C73.4816 81.4416 74.4488 81.5407 75.4095 81.4602L74.6978 77.6051C75.3976 77.4199 76.0361 77.0513 76.5482 76.5368L79.5135 79.097C80.0638 78.3079 80.4658 77.424 80.6996 76.4891L78.0842 73.1113C78.1567 72.6313 78.1944 72.1467 78.1969 71.6612ZM69.716 74.102C66.1576 72.0252 63.2397 66.9944 63.2397 62.8647C63.2397 58.735 66.1576 57.0819 69.716 59.1825C73.2744 61.2832 76.1864 66.2901 76.1864 70.4198C76.1864 74.5496 73.2744 76.1847 69.716 74.102Z" fill="#A8CFF0"/>
<path d="M70.8131 54.6889L69.2118 50.7383L66.7031 52.1884L68.3044 56.1391L70.8131 54.6889Z" fill="#72B5E8"/>
<path d="M68.3027 56.145C68.7556 56.325 69.1955 56.5364 69.6193 56.7776C70.0724 57.0491 70.51 57.3459 70.93 57.6668L72.5313 55.578L72.128 55.3274C71.7042 55.0862 71.2643 54.8749 70.8114 54.6948L68.3027 56.145Z" fill="#D1EBFF"/>
<path d="M69.211 50.7381C68.2832 50.4693 67.3147 50.3723 66.3524 50.4516L63.8438 51.9018C64.806 51.8224 65.7745 51.9195 66.7023 52.1883L69.211 50.7381Z" fill="#D1EBFF"/>
<path d="M77.8985 57.1596C77.0335 56.0686 76.0771 55.0543 75.0399 54.1279L72.5371 55.602C73.5724 56.5286 74.5268 57.5428 75.3898 58.6336L77.8985 57.1596Z" fill="#D1EBFF"/>
<path d="M75.3914 58.6035L74.6797 61.6351L77.1884 60.185L77.9 57.1533L75.3914 58.6035Z" fill="#72B5E8"/>
<path d="M74.6797 61.6352C75.3895 62.6525 76.0088 63.7309 76.5301 64.8578L79.0387 63.4077C78.5176 62.2794 77.8963 61.2008 77.1824 60.1851L74.6797 61.6352Z" fill="#72B5E8"/>
<path d="M76.5293 64.852L79.5124 65.7591L82.0211 64.3149L79.038 63.4019L76.5293 64.852Z" fill="#D1EBFF"/>
<path d="M79.5117 65.747C80.0215 67.0387 80.4183 68.3725 80.6979 69.7335L83.2065 68.2833C82.927 66.9224 82.5301 65.5885 82.0204 64.2969L79.5117 65.747Z" fill="#72B5E8"/>
<path d="M64.5621 55.7571L64.3545 54.6351L62.2313 52.8149L59.7227 54.2651L62.688 56.8253C63.2072 56.3079 63.8541 55.9392 64.5621 55.7571Z" fill="#72B5E8"/>
<path d="M80.6979 76.4892C80.464 77.4241 80.062 78.308 79.5117 79.0971L82.0204 77.647C82.5707 76.8578 82.9727 75.9739 83.2065 75.0391L80.6979 76.4892Z" fill="#72B5E8"/>
<path d="M80.5924 71.6612C80.6629 71.181 80.6985 70.6963 80.6992 70.211C80.6992 70.0618 80.6992 69.9066 80.6992 69.7515L78.1016 70.0857C78.1709 70.608 78.2085 71.1342 78.2142 71.6612C78.2117 72.1467 78.1741 72.6313 78.1016 73.1113L80.5924 71.6612Z" fill="#72B5E8"/>
<path d="M78.084 73.1113L80.6994 76.4831L83.2081 75.0329L80.5927 71.6611L78.084 73.1113Z" fill="#D1EBFF"/>
<path d="M76.5301 76.5366C76.018 77.0511 75.3795 77.4197 74.6797 77.6049L75.3914 81.46L77.9 80.0099L77.39 77.2766L76.5301 76.5366Z" fill="#72B5E8"/>
<path d="M61.0557 62.1187L58.5352 63.6106L61.1506 63.2764C61.1031 62.8885 61.0735 62.5006 61.0557 62.1187Z" fill="#D1EBFF"/>
<path d="M68.3044 75.6895L66.7031 77.7841L69.2296 76.334C68.9172 76.139 68.6089 75.9242 68.3044 75.6895Z" fill="#72B5E8"/>
<g style="mix-blend-mode:color-dodge">
<g style="mix-blend-mode:color-dodge">
<path d="M64.2522 55.9303V55.8945L63.9082 56.0497L64.2522 55.9303Z" fill="white"/>
</g>
<g style="mix-blend-mode:color-dodge">
<path d="M60.8191 63.3242L58.6426 63.5987C58.6453 63.6405 58.6453 63.6823 58.6426 63.724L60.8013 63.4495C60.8191 63.4078 60.8191 63.36 60.8191 63.3242Z" fill="white"/>
</g>
<g style="mix-blend-mode:color-dodge">
<path d="M75.2488 58.7711L74.5371 61.8027C75.2501 62.817 75.8713 63.8935 76.3934 65.0194L79.3588 65.9265C79.8597 67.1782 80.2565 68.4697 80.5449 69.7876L80.8355 69.7399C80.5589 68.3782 80.162 67.044 79.6494 65.7534L76.684 64.8463C76.1607 63.7192 75.5395 62.6409 74.8277 61.6237L75.5394 58.598C74.6781 57.5059 73.7235 56.4915 72.6868 55.5664L72.5859 55.9006C73.5506 56.782 74.4413 57.7421 75.2488 58.7711Z" fill="white"/>
</g>
<g style="mix-blend-mode:color-dodge">
<path d="M69.7158 74.0603C66.1574 71.9835 63.2455 66.9527 63.2455 62.823C63.2455 60.9968 63.8385 59.66 64.7519 58.9141C63.6665 59.6183 62.9727 61.0207 62.9727 63.002C62.9727 67.1257 65.8728 72.1566 69.449 74.2333C71.2282 75.2837 72.8828 75.3792 74.0571 74.6809C73.9698 74.7091 73.8806 74.731 73.7902 74.7466C72.6812 75.1524 71.2815 74.9614 69.7158 74.0603Z" fill="white"/>
</g>
<g style="mix-blend-mode:color-dodge">
<path d="M75.1602 77.4738C75.5883 77.3159 75.9888 77.0903 76.3463 76.8054L76.2336 76.71C75.9193 77.0214 75.5567 77.2794 75.1602 77.4738Z" fill="white"/>
</g>
<g style="mix-blend-mode:color-dodge">
<path d="M62.5988 56.8912C62.4921 56.8912 62.5988 56.8076 62.7115 56.7181L59.8351 54.2534C59.758 54.3668 59.6809 54.4921 59.8351 54.5041L62.5988 56.8912Z" fill="white"/>
</g>
<g style="mix-blend-mode:color-dodge">
<path d="M74.6086 77.7783L75.2906 81.4664C75.3656 81.4596 75.441 81.4596 75.516 81.4664L74.8102 77.647C74.6679 77.6828 74.5255 77.7365 74.6086 77.7783Z" fill="white"/>
</g>
<g style="mix-blend-mode:color-dodge">
<path d="M78.3207 71.6494C78.316 71.1644 78.2823 70.6801 78.2199 70.1992H77.9648C78.0323 70.7217 78.0679 71.2479 78.0716 71.7747C78.0709 72.2601 78.0353 72.7447 77.9648 73.2249L80.5803 76.6026C80.3756 77.3964 80.0537 78.1548 79.6254 78.8525V79.0614C80.1785 78.2738 80.5807 77.3894 80.8116 76.4535L78.1961 73.0757C78.2715 72.6039 78.3131 72.1272 78.3207 71.6494Z" fill="white"/>
</g>
<g style="mix-blend-mode:color-dodge">
<path d="M66.59 52.2959L68.1973 56.2466C68.6493 56.4263 69.0874 56.6398 69.5079 56.8851C69.9645 57.151 70.4024 57.4481 70.8186 57.7743L70.872 57.5237C70.5118 57.2485 70.1355 56.9954 69.7452 56.7658C69.3233 56.5247 68.8854 56.3133 68.4345 56.1332L66.8273 52.1765C65.9015 51.9078 64.9349 51.8108 63.9746 51.8901L64.0043 52.0572C64.8731 52.0128 65.7437 52.0932 66.59 52.2959Z" fill="white"/>
</g>
<g style="mix-blend-mode:color-dodge">
<path d="M68.0005 75.8926L66.6602 77.6352L66.8262 77.7963L68.1843 76.006L68.0005 75.8926Z" fill="white"/>
</g>
</g>
<path d="M70.1179 42.5922C64.7388 39.465 60.3797 31.8979 60.3797 25.6914C60.3797 23.3879 60.9728 21.6035 62.0166 20.4219C59.0512 20.6367 57.0645 23.1253 57.0645 27.3206C57.0645 33.5271 61.4294 41.0942 66.8026 44.2213C70.1831 46.1847 73.1485 45.9162 74.8921 43.911C73.2057 43.9594 71.5434 43.5001 70.1179 42.5922Z" fill="#72B5E8"/>
<path d="M79.5839 40.5393C79.5753 39.741 79.5198 38.9439 79.4179 38.1521L83.3499 37.6509C82.9351 35.6121 82.3397 33.6149 81.5707 31.6831L77.0871 30.3165C76.3024 28.6213 75.3696 26.9997 74.2997 25.4706L75.3731 20.9172C74.0757 19.2733 72.6369 17.7477 71.0734 16.3578L68.6596 19.5028C68.0319 19.0159 67.3743 18.5694 66.6906 18.1661C66.0571 17.7983 65.3969 17.4791 64.7157 17.2112L62.3019 11.2434C60.9068 10.8368 59.4498 10.6891 58.0022 10.8078L59.0815 16.6144C58.0262 16.8895 57.0623 17.4414 56.2882 18.2138L51.8046 14.3646C50.9764 15.5522 50.3732 16.8834 50.0254 18.2914L53.9634 23.364C53.8525 24.0868 53.795 24.8169 53.7914 25.5482C53.799 26.3468 53.8565 27.144 53.9634 27.9353L50.0254 28.4366C50.444 30.4744 51.0394 32.4713 51.8046 34.4044L56.2882 35.765C57.075 37.4603 58.0098 39.0819 59.0815 40.6109L58.0022 45.1643C59.3029 46.8053 60.7414 48.3307 62.3019 49.7236L64.7157 46.5786C65.3468 47.0655 66.0062 47.5139 66.6906 47.9214C67.3234 48.2849 67.9815 48.602 68.6596 48.8703L71.0734 54.838C72.4686 55.2442 73.9255 55.3918 75.3731 55.2737L74.2997 49.473C75.3536 49.1955 76.3155 48.6415 77.0871 47.8677L81.5766 51.7229C82.4083 50.5373 83.0118 49.2054 83.3558 47.7961L79.4238 42.7235C79.5279 42.0001 79.5814 41.2702 79.5839 40.5393ZM66.8033 44.2214C61.4301 41.0942 57.0651 33.5271 57.0651 27.3206C57.0651 21.1141 61.4301 18.6077 66.8033 21.7348C72.1765 24.8619 76.5415 32.4231 76.5415 38.6355C76.5415 44.848 72.1824 47.3485 66.8033 44.2214Z" fill="#A8CFF0"/>
<path d="M68.4826 15.0153L66.0688 9.06543L62.2969 11.2496L64.7107 17.1935L68.4826 15.0153Z" fill="#72B5E8"/>
<path d="M64.709 17.1993C65.3902 17.4672 66.0504 17.7864 66.6839 18.1542C67.3676 18.5576 68.0252 19.004 68.6529 19.491L71.0667 16.3519C71.0667 16.3519 70.6575 16.0893 70.4736 15.97C69.8376 15.6069 69.1778 15.2879 68.4987 15.0151L64.709 17.1993Z" fill="#D1EBFF"/>
<path d="M66.0678 9.05351C64.6727 8.64683 63.2157 8.4992 61.768 8.61786L57.9961 10.8438C59.4437 10.7252 60.9008 10.8728 62.2958 11.2795L66.0678 9.05351Z" fill="#D1EBFF"/>
<path d="M79.1381 18.7214C77.839 17.0807 76.4003 15.5572 74.8383 14.168L71.0664 16.3462C72.6299 17.736 74.0687 19.2617 75.3662 20.9056L79.1381 18.7214Z" fill="#D1EBFF"/>
<path d="M75.3664 20.8994L74.293 25.4588L78.0649 23.2746L79.1383 18.7212L75.3664 20.8994Z" fill="#72B5E8"/>
<path d="M74.293 25.4585C75.3629 26.9875 76.2957 28.6092 77.0804 30.3043L80.8523 28.1261C80.0676 26.431 79.1348 24.8093 78.0649 23.2803L74.293 25.4585Z" fill="#72B5E8"/>
<path d="M77.082 30.2988L81.5716 31.6655L85.3435 29.4872L80.8539 28.1206L77.082 30.2988Z" fill="#D1EBFF"/>
<path d="M81.5762 31.6714C82.3451 33.6033 82.9406 35.6005 83.3554 37.6392L87.1273 35.461C86.7105 33.4131 86.1151 31.4061 85.3481 29.4634L81.5762 31.6714Z" fill="#72B5E8"/>
<path d="M59.0758 16.6205L58.7615 14.9316L55.5707 12.1924L51.7988 14.3706L56.2824 18.2198C57.0566 17.4475 58.0205 16.8956 59.0758 16.6205Z" fill="#72B5E8"/>
<path d="M83.3554 47.7959C83.0113 49.2052 82.4079 50.5371 81.5762 51.7227L85.354 49.5385C86.1835 48.3538 86.7868 47.0243 87.1332 45.6177L83.3554 47.7959Z" fill="#72B5E8"/>
<path d="M83.1899 40.5454C83.2958 39.8221 83.3512 39.0923 83.3559 38.3612C83.3559 38.1344 83.3559 37.9017 83.3263 37.6689L79.418 38.1643C79.5199 38.956 79.5754 39.7531 79.584 40.5514C79.5796 41.2825 79.5241 42.0123 79.418 42.7356L83.1899 40.5454Z" fill="#72B5E8"/>
<path d="M79.418 42.7238L83.35 47.7964L87.1219 45.6181L83.1899 40.5396L79.418 42.7238Z" fill="#D1EBFF"/>
<path d="M77.0804 47.8735C76.3088 48.6474 75.3469 49.2014 74.293 49.4789L75.3664 55.2795L79.1383 53.1013L78.3733 48.9835L77.0804 47.8735Z" fill="#72B5E8"/>
<path d="M53.8093 26.187L50.0137 28.4309L53.9516 27.9296C53.8745 27.3448 53.833 26.7599 53.8093 26.187Z" fill="#D1EBFF"/>
<path d="M64.7107 46.6025L62.2969 49.7475L66.0984 47.5693C65.6319 47.2709 65.1693 46.9487 64.7107 46.6025Z" fill="#72B5E8"/>
<g style="mix-blend-mode:color-dodge">
<g style="mix-blend-mode:color-dodge">
<path d="M58.6117 16.8769V16.8232C58.4338 16.8889 58.2618 16.9724 58.0898 17.056C58.2559 16.9963 58.4457 16.9307 58.6117 16.8769Z" fill="white"/>
</g>
<g style="mix-blend-mode:color-dodge">
<path d="M53.4709 27.9951L50.2031 28.4129C50.2031 28.4785 50.2328 28.5382 50.2446 28.6038L53.4887 28.1921L53.4709 27.9951Z" fill="white"/>
</g>
<g style="mix-blend-mode:color-dodge">
<path d="M75.154 21.1501L74.0806 25.7036C75.1499 27.2341 76.0846 28.8555 76.8739 30.5494L81.3575 31.916C82.1005 33.7981 82.6818 35.7407 83.0952 37.7227L83.54 37.6451C83.1226 35.607 82.5273 33.61 81.7608 31.6773L77.2713 30.3107C76.4868 28.6142 75.5519 26.9923 74.4779 25.4648L75.5573 20.9114C74.2599 19.2676 72.8211 17.7419 71.2576 16.3521L71.1152 16.8534C72.5751 18.173 73.9258 19.61 75.154 21.1501Z" fill="white"/>
</g>
<g style="mix-blend-mode:color-dodge">
<path d="M66.8383 44.1437C61.4592 41.0226 57.1001 33.4555 57.1001 27.243C57.1001 24.5038 57.9541 22.4688 59.3716 21.3647C57.7347 22.421 56.7324 24.5336 56.7324 27.5115C56.7324 33.718 61.0915 41.2852 66.4706 44.4123C69.1869 45.9878 71.6362 46.131 73.4036 45.0866C73.2731 45.1284 73.1367 45.1523 73.0003 45.1821C71.3219 45.7968 69.1809 45.5044 66.8383 44.1437Z" fill="white"/>
</g>
<g style="mix-blend-mode:color-dodge">
<path d="M75.0176 49.2821C75.662 49.0498 76.2633 48.711 76.7968 48.2795L76.6307 48.1362C76.1578 48.6031 75.6131 48.99 75.0176 49.2821Z" fill="white"/>
</g>
<g style="mix-blend-mode:color-dodge">
<path d="M56.14 18.3211C55.9739 18.3211 56.14 18.1958 56.306 18.0585L51.9885 14.3525C51.864 14.5256 51.7513 14.7106 51.9589 14.7345L56.14 18.3211Z" fill="white"/>
</g>
<g style="mix-blend-mode:color-dodge">
<path d="M74.1808 49.7414L75.2127 55.2915C75.0941 55.2915 75.3254 55.2915 75.5567 55.2616L74.4892 49.5146C74.2757 49.5982 74.0562 49.6758 74.1808 49.7414Z" fill="white"/>
</g>
<g style="mix-blend-mode:color-dodge">
<path d="M79.7975 40.5215C79.7886 39.7932 79.7391 39.066 79.6492 38.3433L79.2578 38.3731C79.3629 39.1645 79.4184 39.9618 79.4239 40.7602C79.4221 41.4914 79.3666 42.2215 79.2578 42.9444L83.1958 48.017C82.8907 49.2126 82.4046 50.3539 81.7546 51.4008L81.7843 51.717C82.6138 50.5302 83.2171 49.1987 83.5635 47.7903L79.6314 42.7176C79.7381 41.9905 79.7936 41.2566 79.7975 40.5215Z" fill="white"/>
</g>
<g style="mix-blend-mode:color-dodge">
<path d="M62.1295 11.4404L64.5432 17.4082C65.2223 17.681 65.8822 18 66.5182 18.3631C67.2016 18.7699 67.861 19.2162 68.4931 19.6998L68.5642 19.3239C68.0228 18.9138 67.4584 18.5353 66.874 18.19C66.2405 17.8222 65.5803 17.503 64.8991 17.2352L62.4853 11.2674C61.0902 10.8607 59.6332 10.7131 58.1855 10.8317L58.233 11.0824C59.5421 11.0177 60.8537 11.1383 62.1295 11.4404Z" fill="white"/>
</g>
<g style="mix-blend-mode:color-dodge">
<path d="M64.2469 46.8652L62.2305 49.4911L62.4855 49.7298L64.5256 47.0682C64.4367 46.9965 64.3418 46.9368 64.2469 46.8652Z" fill="white"/>
</g>
</g>
<path d="M90.425 48.6971H90.3242C90.2502 48.6702 90.19 48.6148 90.1566 48.5432C90.1233 48.4716 90.1195 48.3896 90.1462 48.3152C90.2648 47.9989 90.3716 47.6767 90.4665 47.3365C90.4774 47.2989 90.4955 47.2638 90.5199 47.2332C90.5443 47.2027 90.5744 47.1773 90.6086 47.1584C90.6427 47.1396 90.6802 47.1277 90.7189 47.1234C90.7576 47.1192 90.7968 47.1226 90.8342 47.1336C90.9088 47.1571 90.9715 47.2087 91.0091 47.2777C91.0467 47.3467 91.0563 47.4276 91.0358 47.5036C90.935 47.8557 90.8223 48.1899 90.7037 48.5241C90.6799 48.5778 90.6406 48.623 90.5909 48.6539C90.5412 48.6848 90.4833 48.6998 90.425 48.6971ZM91.1485 45.9579H91.1011C91.0621 45.9522 91.0247 45.9386 90.9911 45.9179C90.9575 45.8971 90.9284 45.8697 90.9057 45.8374C90.8829 45.805 90.867 45.7683 90.8588 45.7295C90.8506 45.6908 90.8503 45.6507 90.8579 45.6118C90.9231 45.2358 90.9825 44.8479 91.024 44.4541C91.0326 44.3749 91.0722 44.3025 91.1339 44.2527C91.1956 44.2029 91.2745 44.1798 91.3531 44.1885C91.4318 44.1972 91.5038 44.237 91.5533 44.2991C91.6027 44.3612 91.6257 44.4406 91.617 44.5197C91.5696 44.9315 91.5103 45.3313 91.445 45.7133C91.4313 45.7822 91.3943 45.8443 91.3402 45.8889C91.2862 45.9335 91.2184 45.9579 91.1485 45.9579ZM91.451 42.974C91.412 42.9725 91.3738 42.9633 91.3384 42.9468C91.303 42.9304 91.2711 42.9071 91.2447 42.8783C91.2183 42.8495 91.1977 42.8157 91.1843 42.7789C91.1708 42.742 91.1647 42.7029 91.1663 42.6637C91.1663 42.4011 91.1663 42.1326 91.1663 41.8641V41.4881C91.1655 41.4489 91.1724 41.4099 91.1866 41.3734C91.2008 41.3369 91.222 41.3036 91.2489 41.2753C91.2759 41.2471 91.3082 41.2244 91.3439 41.2087C91.3796 41.193 91.418 41.1845 91.4569 41.1837C91.5351 41.1852 91.6096 41.2172 91.6649 41.2728C91.7202 41.3284 91.7519 41.4034 91.7534 41.4821V41.876C91.7534 42.1565 91.7534 42.431 91.7534 42.7055C91.7504 42.7836 91.7169 42.8574 91.6604 42.9109C91.6038 42.9645 91.5286 42.9936 91.451 42.992V42.974ZM91.3739 39.9902C91.2992 39.9904 91.2271 39.9623 91.1722 39.9114C91.1172 39.8605 91.0833 39.7906 91.0774 39.7156C91.0477 39.3218 91.0062 38.9339 90.9587 38.5221C90.9503 38.4431 90.9729 38.364 91.0216 38.3016C91.0704 38.2391 91.1415 38.1983 91.2197 38.1879C91.2587 38.1829 91.2983 38.1858 91.3361 38.1963C91.374 38.2068 91.4094 38.2248 91.4403 38.2493C91.4712 38.2737 91.497 38.3041 91.5161 38.3386C91.5353 38.3731 91.5474 38.4112 91.5518 38.4505C91.5993 38.8503 91.6408 39.2502 91.6704 39.644C91.6737 39.6829 91.6691 39.7221 91.6571 39.7592C91.645 39.7963 91.6257 39.8306 91.6003 39.8601C91.5749 39.8895 91.5438 39.9136 91.509 39.9308C91.4742 39.948 91.4363 39.9581 91.3976 39.9603L91.3739 39.9902ZM90.9884 37.0063C90.9187 37.0046 90.8516 36.9788 90.7987 36.9331C90.7457 36.8874 90.7101 36.8247 90.6978 36.7556C90.6325 36.3737 90.5554 35.9858 90.4724 35.5979C90.4637 35.5598 90.4627 35.5204 90.4694 35.482C90.476 35.4435 90.4903 35.4068 90.5113 35.374C90.5323 35.3412 90.5596 35.3129 90.5917 35.2909C90.6237 35.2689 90.6598 35.2536 90.6978 35.2458C90.736 35.237 90.7755 35.2359 90.8141 35.2425C90.8527 35.2492 90.8896 35.2635 90.9227 35.2845C90.9558 35.3056 90.9844 35.3331 91.0068 35.3654C91.0293 35.3976 91.0452 35.4341 91.0536 35.4726C91.1367 35.8704 91.2138 36.2683 91.2849 36.6661C91.2971 36.7443 91.2785 36.8242 91.2331 36.8888C91.1877 36.9534 91.1191 36.9977 91.0418 37.0122L90.9884 37.0063ZM90.3479 34.1179C90.2819 34.1188 90.2176 34.0976 90.1649 34.0576C90.1123 34.0177 90.0744 33.9612 90.0573 33.8971C89.9565 33.5151 89.8497 33.1392 89.737 32.7572C89.715 32.6812 89.7239 32.5996 89.7617 32.5302C89.7995 32.4608 89.8632 32.4094 89.9387 32.3872C89.9756 32.3753 90.0146 32.371 90.0533 32.3745C90.092 32.378 90.1295 32.3892 90.1638 32.4076C90.1981 32.4259 90.2284 32.451 90.2529 32.4813C90.2773 32.5117 90.2955 32.5466 90.3064 32.5842C90.419 32.9721 90.5317 33.354 90.6325 33.7419C90.6424 33.7799 90.6446 33.8195 90.6392 33.8584C90.6337 33.8973 90.6207 33.9347 90.6009 33.9685C90.5811 34.0023 90.5548 34.0319 90.5236 34.0555C90.4924 34.0791 90.4569 34.0962 90.419 34.1059C90.3967 34.1158 90.3722 34.1199 90.3479 34.1179ZM89.4701 31.2653C89.4085 31.2648 89.3485 31.245 89.2985 31.2087C89.2486 31.1723 89.2111 31.1212 89.1914 31.0624C89.0609 30.6924 88.9304 30.3224 88.7881 29.9524C88.7739 29.916 88.7671 29.8771 88.7681 29.838C88.7691 29.7989 88.7779 29.7604 88.7939 29.7248C88.81 29.6892 88.8329 29.6572 88.8615 29.6307C88.89 29.6042 88.9235 29.5837 88.9601 29.5704C89.0325 29.5429 89.1128 29.545 89.1837 29.5762C89.2546 29.6074 89.3106 29.6653 89.3397 29.7375C89.482 30.1115 89.6184 30.4875 89.7489 30.8654C89.7629 30.9022 89.7695 30.9415 89.7681 30.9808C89.7667 31.0202 89.7574 31.0589 89.7408 31.0946C89.7242 31.1302 89.7006 31.1621 89.6714 31.1884C89.6422 31.2147 89.608 31.2347 89.571 31.2474C89.5401 31.2673 89.506 31.2815 89.4701 31.2892V31.2653ZM88.3967 28.4843C88.3386 28.4853 88.2816 28.4688 88.233 28.4369C88.1844 28.4049 88.1464 28.3591 88.1239 28.3053L87.6435 27.2191C87.6206 27.1497 87.6239 27.0743 87.6527 27.0072C87.6815 26.94 87.7337 26.8859 87.7996 26.8549C87.8654 26.824 87.9403 26.8185 88.0099 26.8394C88.0795 26.8604 88.1391 26.9063 88.1772 26.9685C88.3492 27.3325 88.5094 27.7025 88.6695 28.0665C88.6992 28.1402 88.6991 28.2227 88.6692 28.2963C88.6393 28.3699 88.5819 28.4288 88.5094 28.4604C88.4762 28.4853 88.4375 28.5017 88.3967 28.5082V28.4843ZM87.1334 25.7809C87.0785 25.7816 87.0244 25.7668 86.9773 25.7384C86.9302 25.7099 86.8918 25.6689 86.8666 25.6198C86.6886 25.2677 86.5048 24.9156 86.315 24.5694C86.2962 24.535 86.2844 24.4971 86.2802 24.458C86.276 24.419 86.2795 24.3794 86.2905 24.3417C86.3015 24.304 86.3198 24.2689 86.3444 24.2383C86.369 24.2077 86.3993 24.1824 86.4336 24.1636C86.4679 24.1447 86.5055 24.1328 86.5443 24.1286C86.5832 24.1244 86.6224 24.1279 86.6599 24.139C86.6974 24.1501 86.7323 24.1685 86.7627 24.1932C86.7931 24.2179 86.8183 24.2484 86.8369 24.283C87.0267 24.6351 87.2165 24.9872 87.3944 25.3452C87.4126 25.38 87.4237 25.4181 87.427 25.4572C87.4303 25.4963 87.4257 25.5357 87.4135 25.573C87.4014 25.6104 87.3818 25.6448 87.3561 25.6744C87.3304 25.7039 87.2991 25.728 87.2639 25.7451C87.2265 25.7763 87.1814 25.7969 87.1334 25.8048V25.7809ZM85.7279 23.1909C85.6761 23.1906 85.6254 23.1766 85.5806 23.1504C85.5359 23.1243 85.4987 23.0868 85.4729 23.0417C85.2712 22.7015 85.0636 22.3673 84.8798 22.0331C84.8583 22.0001 84.8436 21.963 84.8368 21.9241C84.8299 21.8852 84.8309 21.8453 84.8398 21.8068C84.8486 21.7684 84.8652 21.7321 84.8884 21.7002C84.9115 21.6683 84.9409 21.6415 84.9747 21.6214C85.0069 21.6004 85.043 21.5861 85.0808 21.5792C85.1186 21.5724 85.1574 21.5732 85.1949 21.5815C85.2324 21.5898 85.2679 21.6055 85.2993 21.6277C85.3307 21.6499 85.3575 21.6782 85.378 21.7109C85.5915 22.051 85.799 22.3912 86.0066 22.7373C86.0458 22.8064 86.0566 22.8881 86.0366 22.9651C86.0167 23.0421 85.9676 23.1081 85.8999 23.1491C85.847 23.1776 85.7878 23.192 85.7279 23.1909ZM84.1266 20.6784C84.0785 20.678 84.0313 20.6659 83.9889 20.643C83.9466 20.6201 83.9103 20.5872 83.8834 20.5472C83.662 20.2209 83.4367 19.8987 83.2073 19.5804C83.1835 19.549 83.1662 19.513 83.1566 19.4747C83.1469 19.4364 83.1451 19.3965 83.1512 19.3575C83.1573 19.3184 83.1712 19.281 83.192 19.2475C83.2129 19.2141 83.2403 19.1852 83.2726 19.1626C83.3367 19.1173 83.4159 19.0988 83.4933 19.1111C83.5708 19.1233 83.6405 19.1653 83.6877 19.2283C83.919 19.5505 84.1503 19.8788 84.3757 20.207C84.4055 20.2526 84.4225 20.3055 84.425 20.36C84.4275 20.4146 84.4154 20.4688 84.39 20.517C84.3645 20.5652 84.3266 20.6056 84.2803 20.634C84.2339 20.6624 84.1808 20.6778 84.1266 20.6784ZM82.3474 18.2913C82.3028 18.2916 82.2587 18.2815 82.2186 18.2618C82.1785 18.2421 82.1434 18.2134 82.1161 18.1779C81.8729 17.8676 81.6238 17.5812 81.3748 17.2589C81.3493 17.2294 81.33 17.195 81.318 17.1578C81.306 17.1206 81.3015 17.0814 81.3049 17.0425C81.3082 17.0035 81.3192 16.9657 81.3373 16.9311C81.3555 16.8965 81.3803 16.8659 81.4103 16.8412C81.4713 16.7907 81.5494 16.7661 81.6281 16.7728C81.7068 16.7795 81.7798 16.8169 81.8314 16.877C82.0864 17.1813 82.3355 17.4738 82.5846 17.8079C82.6328 17.8715 82.6542 17.9515 82.6442 18.0308C82.6342 18.1101 82.5936 18.1822 82.5312 18.2317C82.4744 18.2666 82.4076 18.2813 82.3414 18.2734L82.3474 18.2913ZM80.4318 16.0176C80.3902 16.0171 80.3491 16.0079 80.3113 15.9904C80.2735 15.9729 80.2398 15.9476 80.2123 15.9162C79.9455 15.6237 79.6786 15.3194 79.4058 15.0568C79.3511 15 79.3205 14.924 79.3205 14.8449C79.3205 14.7659 79.3511 14.6899 79.4058 14.6331C79.4333 14.6051 79.4661 14.5829 79.5023 14.5678C79.5384 14.5526 79.5772 14.5448 79.6163 14.5448C79.6555 14.5448 79.6942 14.5526 79.7303 14.5678C79.7665 14.5829 79.7993 14.6051 79.8268 14.6331C80.1036 14.9195 80.3764 15.212 80.6453 15.5104C80.6731 15.5381 80.6951 15.5711 80.7102 15.6075C80.7252 15.6438 80.733 15.6828 80.733 15.7222C80.733 15.7616 80.7252 15.8006 80.7102 15.837C80.6951 15.8733 80.6731 15.9063 80.6453 15.9341C80.5824 15.9819 80.5045 16.0052 80.4258 15.9997L80.4318 16.0176ZM78.3501 13.8871C78.2756 13.8877 78.2036 13.86 78.1485 13.8095C77.8638 13.535 77.5554 13.2724 77.2766 13.0099C77.2177 12.9568 77.182 12.8824 77.1776 12.8029C77.1731 12.7235 77.2002 12.6455 77.2529 12.5861C77.3056 12.5268 77.3796 12.4909 77.4586 12.4865C77.5375 12.482 77.615 12.5093 77.674 12.5623C77.9705 12.8249 78.2671 13.0994 78.5577 13.3739C78.5853 13.4011 78.6072 13.4336 78.6222 13.4695C78.6372 13.5053 78.6449 13.5439 78.6449 13.5828C78.6449 13.6217 78.6372 13.6602 78.6222 13.696C78.6072 13.7319 78.5853 13.7644 78.5577 13.7916C78.5291 13.8183 78.4954 13.8389 78.4588 13.8523C78.4221 13.8656 78.3831 13.8714 78.3442 13.8692L78.3501 13.8871ZM76.1083 11.9357C76.0421 11.937 75.9774 11.916 75.9245 11.876C75.6161 11.6313 75.3017 11.3926 74.9874 11.1598C74.9559 11.1367 74.9291 11.1076 74.9088 11.0741C74.8885 11.0406 74.8749 11.0034 74.8688 10.9646C74.8627 10.9258 74.8643 10.8862 74.8735 10.848C74.8827 10.8098 74.8992 10.7738 74.9222 10.7421C74.9451 10.7104 74.9741 10.6835 75.0074 10.663C75.0407 10.6425 75.0777 10.6289 75.1162 10.6228C75.1548 10.6167 75.1941 10.6183 75.2321 10.6275C75.27 10.6367 75.3058 10.6533 75.3373 10.6765C75.6576 10.9152 75.9778 11.1539 76.2922 11.4045C76.3533 11.4538 76.3925 11.5253 76.4014 11.6036C76.4103 11.6818 76.3881 11.7604 76.3396 11.8223C76.3102 11.8557 76.2734 11.8817 76.2322 11.8983C76.191 11.9149 76.1466 11.9215 76.1024 11.9178L76.1083 11.9357ZM73.6945 10.205C73.6375 10.2059 73.5817 10.1893 73.5344 10.1573C73.2023 9.94839 72.8702 9.73952 72.5321 9.56049C72.4982 9.54089 72.4685 9.51478 72.4447 9.48363C72.4208 9.45248 72.4033 9.41692 72.3931 9.37896C72.3829 9.341 72.3803 9.30138 72.3853 9.26239C72.3903 9.22339 72.4029 9.18578 72.4224 9.15169C72.4419 9.11759 72.4678 9.0877 72.4988 9.0637C72.5297 9.0397 72.5651 9.02208 72.6028 9.01183C72.6405 9.00157 72.6799 8.99889 72.7186 9.00395C72.7574 9.009 72.7948 9.02169 72.8286 9.04128C73.1726 9.24419 73.5166 9.45306 73.8546 9.63806C73.9206 9.68087 73.967 9.74826 73.9837 9.82545C74.0004 9.90264 73.986 9.98333 73.9436 10.0498C73.9167 10.0931 73.879 10.1286 73.8343 10.1527C73.7895 10.1767 73.7393 10.1886 73.6886 10.1871L73.6945 10.205Z" fill="#0FBAB8"/>
<path d="M95.1053 45.2181C95.0661 45.2181 95.0273 45.2102 94.9913 45.1947C94.9552 45.1793 94.9226 45.1567 94.8955 45.1283C94.8684 45.0998 94.8472 45.0662 94.8333 45.0293C94.8194 44.9924 94.8131 44.9531 94.8147 44.9137C94.8147 44.7168 94.8147 44.5198 94.8147 44.3169C94.8147 44.2378 94.8459 44.1619 94.9015 44.106C94.9572 44.05 95.0326 44.0186 95.1112 44.0186C95.1899 44.0186 95.2653 44.05 95.3209 44.106C95.3765 44.1619 95.4078 44.2378 95.4078 44.3169C95.4078 44.5198 95.4078 44.7228 95.4078 44.9137C95.4078 44.9944 95.3759 45.0719 95.3192 45.1289C95.2624 45.186 95.1855 45.2181 95.1053 45.2181Z" fill="#A8CFF0"/>
<path d="M91.1604 57.3923C91.089 57.391 91.0202 57.3658 90.9647 57.3207C90.9369 57.2929 90.9148 57.2599 90.8998 57.2236C90.8847 57.1872 90.877 57.1482 90.877 57.1088C90.877 57.0694 90.8847 57.0304 90.8998 56.9941C90.9148 56.9577 90.9369 56.9247 90.9647 56.897C91.2375 56.5867 91.4984 56.2465 91.7475 55.9004C91.77 55.8681 91.7986 55.8406 91.8317 55.8195C91.8648 55.7984 91.9017 55.7842 91.9403 55.7775C91.9789 55.7708 92.0184 55.7719 92.0566 55.7807C92.0947 55.7895 92.1308 55.8058 92.1627 55.8287C92.2262 55.8754 92.2691 55.9451 92.2824 56.0231C92.2957 56.1011 92.2783 56.1812 92.2338 56.2465C91.9729 56.6105 91.6941 56.9626 91.4095 57.2908C91.3782 57.3256 91.3396 57.3527 91.2965 57.3703C91.2534 57.3879 91.2068 57.3954 91.1604 57.3923ZM92.9752 54.7008C92.9276 54.6994 92.881 54.6872 92.8388 54.665C92.77 54.6282 92.7183 54.5656 92.695 54.4908C92.6717 54.416 92.6786 54.3349 92.7142 54.2652C92.9099 53.8892 93.0879 53.5013 93.2539 53.1015C93.2694 53.0653 93.2918 53.0326 93.3199 53.0053C93.348 52.9779 93.3812 52.9564 93.4175 52.9419C93.4539 52.9275 93.4928 52.9205 93.5319 52.9212C93.571 52.922 93.6095 52.9305 93.6453 52.9463C93.681 52.9613 93.7134 52.9832 93.7405 53.0109C93.7677 53.0387 93.7891 53.0715 93.8034 53.1077C93.8178 53.1438 93.8249 53.1824 93.8242 53.2213C93.8235 53.2602 93.8151 53.2986 93.7995 53.3342C93.6275 53.746 93.4437 54.1518 93.242 54.5278C93.2168 54.5769 93.1784 54.6179 93.1313 54.6464C93.0842 54.6748 93.0301 54.6896 92.9752 54.6889V54.7008ZM94.1613 51.6752H94.0783C94.0028 51.653 93.9391 51.6016 93.9013 51.5322C93.8635 51.4628 93.8546 51.3811 93.8766 51.3052C93.9952 50.8993 94.102 50.4756 94.1969 50.0579C94.2142 49.9788 94.262 49.9098 94.3299 49.8661C94.3977 49.8225 94.48 49.8078 94.5587 49.8252C94.6373 49.8426 94.7059 49.8907 94.7492 49.959C94.7926 50.0272 94.8073 50.11 94.79 50.1892C94.6891 50.6248 94.5824 51.0545 94.4578 51.4723C94.4362 51.5288 94.3979 51.5774 94.3481 51.6115C94.2983 51.6456 94.2393 51.6637 94.1791 51.6632L94.1613 51.6752ZM94.8374 48.4824H94.7959C94.7176 48.4706 94.647 48.4283 94.5994 48.3647C94.5517 48.3011 94.5307 48.2212 94.5409 48.1422C94.6002 47.7245 94.6476 47.3008 94.6891 46.8592C94.6962 46.78 94.7342 46.707 94.7949 46.656C94.8555 46.6051 94.9337 46.5805 95.0124 46.5876C95.091 46.5948 95.1636 46.633 95.2142 46.694C95.2648 46.755 95.2893 46.8337 95.2822 46.9129C95.2466 47.3605 95.1932 47.7961 95.1339 48.2258C95.1229 48.2928 95.0891 48.3539 95.0382 48.3985C94.9874 48.4432 94.9227 48.4686 94.8552 48.4705L94.8374 48.4824Z" fill="#A8CFF0"/>
<path d="M89.2864 59.111C89.2394 59.1115 89.193 59.1009 89.1508 59.0802C89.1086 59.0595 89.0717 59.0292 89.0432 58.9917C88.9981 58.9271 88.9798 58.8475 88.9919 58.7695C89.0041 58.6916 89.0459 58.6215 89.1084 58.5739C89.2626 58.4605 89.4168 58.3412 89.5651 58.2159C89.6264 58.166 89.705 58.1427 89.7834 58.1511C89.8618 58.1595 89.9337 58.1989 89.9832 58.2606C90.0328 58.3223 90.0559 58.4013 90.0476 58.4802C90.0392 58.5591 90.0001 58.6315 89.9387 58.6813C89.7786 58.8126 89.6244 58.932 89.4583 59.0513C89.4095 59.0904 89.3488 59.1115 89.2864 59.111Z" fill="#A8CFF0"/>
<path d="M48.1208 17.3248C48.0421 17.3248 47.9667 17.2934 47.9111 17.2374C47.8555 17.1814 47.8242 17.1055 47.8242 17.0264C47.8242 16.8235 47.8242 16.6206 47.8242 16.4296C47.8272 16.352 47.8596 16.2785 47.9148 16.2241C47.9699 16.1698 48.0436 16.1387 48.1208 16.1372C48.1599 16.1372 48.1987 16.1451 48.2348 16.1606C48.2708 16.176 48.3034 16.1986 48.3306 16.227C48.3577 16.2555 48.3789 16.2891 48.3927 16.326C48.4066 16.3629 48.413 16.4022 48.4114 16.4416C48.4114 16.6385 48.4114 16.8354 48.4114 17.0383C48.4084 17.1144 48.3766 17.1864 48.3226 17.2396C48.2686 17.2929 48.1964 17.3233 48.1208 17.3248Z" fill="#A8CFF0"/>
<path d="M91.5103 28.0905C91.4523 28.0915 91.3953 28.075 91.3467 28.0431C91.298 28.0112 91.26 27.9654 91.2375 27.9115C91.0833 27.5415 90.9232 27.1715 90.7631 26.8015C90.7325 26.7293 90.7309 26.648 90.7586 26.5746C90.7862 26.5012 90.8409 26.4414 90.9113 26.4076C90.947 26.391 90.9857 26.3818 91.025 26.3806C91.0643 26.3795 91.1035 26.3864 91.1401 26.4009C91.1767 26.4154 91.21 26.4372 91.2379 26.465C91.2659 26.4929 91.2879 26.5261 91.3027 26.5628C91.4688 26.9328 91.6289 27.3028 91.7831 27.6788C91.8129 27.7524 91.8128 27.8349 91.7829 27.9085C91.7529 27.9822 91.6956 28.041 91.623 28.0726C91.5866 28.0844 91.5486 28.0904 91.5103 28.0905ZM90.2767 25.3334C90.2212 25.3335 90.1667 25.3179 90.1195 25.2884C90.0723 25.2588 90.0343 25.2165 90.0099 25.1663C89.8379 24.8023 89.66 24.4442 89.482 24.0862C89.461 24.051 89.4474 24.0119 89.4421 23.9712C89.4368 23.9305 89.4399 23.8891 89.4512 23.8497C89.4625 23.8103 89.4817 23.7736 89.5077 23.742C89.5337 23.7104 89.5659 23.6845 89.6023 23.666C89.6387 23.6475 89.6785 23.6367 89.7192 23.6344C89.7599 23.6321 89.8007 23.6382 89.8389 23.6524C89.8772 23.6667 89.9121 23.6887 89.9415 23.7171C89.9709 23.7455 89.9942 23.7797 90.0099 23.8176C90.1957 24.1836 90.3736 24.5477 90.5436 24.9097C90.5607 24.9445 90.5707 24.9824 90.5731 25.0212C90.5755 25.0599 90.5702 25.0988 90.5575 25.1354C90.5448 25.1721 90.525 25.2058 90.4992 25.2347C90.4734 25.2636 90.4421 25.287 90.4072 25.3036C90.367 25.3248 90.3221 25.3351 90.2767 25.3334ZM88.9008 22.6479C88.8484 22.6476 88.7969 22.6331 88.752 22.6057C88.7071 22.5784 88.6704 22.5394 88.6458 22.4928L88.0527 21.4424C88.0225 21.3751 88.0182 21.2989 88.0405 21.2286C88.0629 21.1582 88.1104 21.0987 88.1739 21.0616C88.2374 21.0245 88.3123 21.0123 88.3841 21.0276C88.4559 21.0428 88.5196 21.0843 88.5628 21.144C88.7644 21.4961 88.9661 21.8482 89.1558 22.2063C89.1755 22.2406 89.188 22.2785 89.1926 22.3178C89.1972 22.357 89.1939 22.3968 89.1828 22.4348C89.1717 22.4727 89.1531 22.5079 89.1281 22.5384C89.1031 22.5689 89.0722 22.594 89.0372 22.6121C88.9955 22.6354 88.9486 22.6477 88.9008 22.6479ZM87.3944 20.04C87.3434 20.0397 87.2932 20.0265 87.2486 20.0014C87.204 19.9764 87.1665 19.9404 87.1394 19.8968C86.9318 19.5566 86.7183 19.2165 86.4989 18.8823C86.4556 18.8158 86.4404 18.7347 86.4565 18.657C86.4727 18.5792 86.5188 18.511 86.5849 18.4675C86.651 18.424 86.7315 18.4086 86.8088 18.4249C86.8861 18.4411 86.9538 18.4876 86.9971 18.554C87.2165 18.8942 87.43 19.2403 87.6435 19.5805C87.6703 19.6259 87.6849 19.6775 87.6858 19.7303C87.6868 19.7831 87.6741 19.8352 87.649 19.8816C87.6238 19.9279 87.5872 19.9669 87.5425 19.9947C87.4979 20.0225 87.4469 20.0381 87.3944 20.04ZM85.7279 17.5097C85.6803 17.5104 85.6332 17.4994 85.5908 17.4776C85.5484 17.4557 85.512 17.4237 85.4847 17.3844C85.2594 17.0502 85.0281 16.7279 84.7968 16.3997C84.7731 16.3687 84.7559 16.3333 84.7463 16.2954C84.7368 16.2576 84.735 16.2182 84.7411 16.1796C84.7472 16.141 84.7611 16.1041 84.7819 16.0712C84.8027 16.0382 84.8299 16.0099 84.862 15.9879C84.8932 15.9639 84.929 15.9465 84.967 15.9368C85.0051 15.9271 85.0447 15.9253 85.0835 15.9314C85.1223 15.9375 85.1595 15.9515 85.1928 15.9725C85.2261 15.9935 85.2548 16.0211 85.2772 16.0535C85.5085 16.3758 85.7457 16.71 85.9711 17.0442C86.0152 17.1085 86.0324 17.1877 86.0191 17.2647C86.0058 17.3417 85.963 17.4104 85.8999 17.456C85.8492 17.4907 85.7893 17.5094 85.7279 17.5097ZM83.9487 15.0748C83.9032 15.0755 83.8581 15.0657 83.8169 15.046C83.7758 15.0263 83.7397 14.9974 83.7115 14.9614C83.4683 14.6451 83.2252 14.3289 82.9701 14.0185C82.9206 13.9568 82.8974 13.8778 82.9058 13.7989C82.9141 13.72 82.9533 13.6477 83.0146 13.5978C83.076 13.5479 83.1545 13.5246 83.2329 13.533C83.3113 13.5414 83.3832 13.5808 83.4327 13.6426C83.6878 13.9588 83.9368 14.2751 84.18 14.5974C84.2285 14.6592 84.2507 14.7378 84.2418 14.8161C84.2329 14.8944 84.1936 14.9659 84.1325 15.0151C84.0792 15.0543 84.0148 15.0753 83.9487 15.0748ZM48.1985 14.9137H48.1689C48.1301 14.9107 48.0923 14.8999 48.0578 14.882C48.0233 14.8641 47.9926 14.8394 47.9677 14.8093C47.9429 14.7793 47.9242 14.7445 47.9129 14.7071C47.9016 14.6697 47.8979 14.6303 47.902 14.5914C47.902 14.1797 47.9732 13.7738 48.0265 13.3979C48.0368 13.3187 48.0778 13.2469 48.1406 13.1982C48.2035 13.1496 48.283 13.128 48.3616 13.1383C48.4403 13.1486 48.5116 13.1899 48.56 13.2531C48.6084 13.3163 48.6298 13.3963 48.6196 13.4755C48.5722 13.8634 48.5306 14.2572 48.4951 14.669C48.4843 14.7351 48.4513 14.7954 48.4017 14.8399C48.352 14.8844 48.2887 14.9105 48.2223 14.9137H48.1985ZM82.0449 12.7474C82.0018 12.7474 81.9592 12.7378 81.9202 12.7192C81.8813 12.7007 81.8469 12.6736 81.8196 12.64L81.0249 11.7448C80.9973 11.7176 80.9753 11.6851 80.9603 11.6492C80.9454 11.6133 80.9376 11.5748 80.9376 11.5359C80.9376 11.497 80.9454 11.4585 80.9603 11.4227C80.9753 11.3868 80.9973 11.3543 81.0249 11.3271C81.0515 11.2985 81.0837 11.2758 81.1194 11.2602C81.1551 11.2447 81.1935 11.2366 81.2324 11.2366C81.2713 11.2366 81.3098 11.2447 81.3455 11.2602C81.3812 11.2758 81.4134 11.2985 81.44 11.3271C81.7128 11.6254 81.9797 11.9238 82.2466 12.2342C82.2724 12.2633 82.2921 12.2974 82.3046 12.3343C82.3171 12.3713 82.3221 12.4104 82.3193 12.4493C82.3165 12.4883 82.3061 12.5262 82.2885 12.561C82.2709 12.5958 82.2466 12.6267 82.2169 12.6519C82.1788 12.6987 82.1269 12.7321 82.0687 12.7474H82.0449ZM48.6196 11.9298H48.5603C48.5215 11.922 48.4847 11.9065 48.4519 11.8842C48.4192 11.8618 48.3912 11.8332 48.3697 11.7998C48.3481 11.7664 48.3334 11.7291 48.3264 11.6899C48.3195 11.6507 48.3203 11.6106 48.329 11.5717C48.412 11.1659 48.5069 10.7721 48.6137 10.3782C48.6225 10.3398 48.6391 10.3037 48.6625 10.2721C48.6858 10.2404 48.7154 10.214 48.7493 10.1944C48.7833 10.1748 48.8209 10.1625 48.8598 10.1581C48.8987 10.1538 48.9381 10.1576 48.9754 10.1693C49.0131 10.179 49.0485 10.1961 49.0795 10.2198C49.1105 10.2435 49.1364 10.2732 49.1558 10.3071C49.1751 10.3411 49.1875 10.3786 49.1922 10.4175C49.1969 10.4563 49.1938 10.4957 49.183 10.5333C49.0822 10.9093 48.9932 11.2972 48.9102 11.6911C48.8975 11.7547 48.8646 11.8123 48.8165 11.8554C48.7683 11.8985 48.7075 11.9246 48.6433 11.9298H48.6196ZM80.0048 10.5274C79.9266 10.5263 79.852 10.4941 79.7972 10.4379C79.5185 10.1514 79.2338 9.87092 78.9491 9.59043C78.8991 9.53444 78.8719 9.46148 78.8731 9.38618C78.8743 9.31088 78.9037 9.23882 78.9555 9.18445C79.0073 9.13008 79.0776 9.09742 79.1523 9.09303C79.227 9.08863 79.3006 9.11282 79.3583 9.16075C79.649 9.4472 79.9514 9.72769 80.2183 10.0201C80.273 10.0769 80.3036 10.1529 80.3036 10.232C80.3036 10.3111 80.273 10.387 80.2183 10.4438C80.166 10.4921 80.0992 10.5215 80.0285 10.5274H80.0048ZM49.4736 9.05334H49.3669C49.3301 9.03945 49.2965 9.01834 49.2679 8.99126C49.2393 8.96417 49.2163 8.93165 49.2003 8.89556C49.1843 8.85948 49.1756 8.82055 49.1746 8.78104C49.1737 8.74154 49.1806 8.70224 49.1949 8.66543C49.3372 8.27753 49.4974 7.90155 49.6634 7.53155C49.68 7.49572 49.7034 7.46355 49.7324 7.43691C49.7614 7.41027 49.7954 7.38969 49.8323 7.37636C49.8693 7.36304 49.9085 7.35724 49.9477 7.35929C49.987 7.36134 50.0254 7.37122 50.0608 7.38833C50.0962 7.40437 50.128 7.42738 50.1544 7.45602C50.1808 7.48465 50.2013 7.51831 50.2146 7.55503C50.2278 7.59174 50.2336 7.63076 50.2317 7.66978C50.2297 7.7088 50.22 7.74702 50.2031 7.7822C50.043 8.13429 49.8888 8.5043 49.7464 8.88027C49.7237 8.9335 49.6854 8.97853 49.6367 9.00943C49.588 9.04032 49.5312 9.05563 49.4736 9.05334ZM77.8579 8.45656C77.7855 8.45509 77.7161 8.42756 77.6622 8.37897C77.3656 8.11042 77.0691 7.84785 76.7607 7.59123C76.7307 7.56647 76.7058 7.5359 76.6877 7.50133C76.6696 7.46675 76.6585 7.42887 76.6552 7.38992C76.6519 7.35098 76.6564 7.31176 76.6684 7.27459C76.6804 7.23741 76.6997 7.20303 76.7251 7.17349C76.7768 7.1134 76.8497 7.07601 76.9284 7.06932C77.0071 7.06263 77.0853 7.08716 77.1462 7.13768C77.4487 7.39429 77.7393 7.66284 78.0595 7.93139C78.1062 7.97152 78.1394 8.02525 78.1545 8.08516C78.1695 8.14507 78.1657 8.20821 78.1436 8.26585C78.1214 8.32349 78.0821 8.3728 78.0309 8.40696C77.9797 8.44112 77.9193 8.45845 77.8579 8.45656ZM75.5508 6.523C75.4865 6.52438 75.4236 6.5033 75.3729 6.46332C75.0527 6.21864 74.7383 5.97994 74.4181 5.74719C74.3536 5.70129 74.3099 5.63149 74.2965 5.55315C74.2832 5.47481 74.3013 5.39433 74.3469 5.32944C74.3925 5.26455 74.4619 5.22055 74.5398 5.20712C74.6176 5.19369 74.6976 5.21193 74.7621 5.25783C75.0883 5.49654 75.4085 5.74122 75.7347 5.99186C75.7661 6.01531 75.7924 6.04488 75.8122 6.07881C75.8319 6.11274 75.8447 6.15032 75.8496 6.18932C75.8546 6.22832 75.8517 6.26793 75.8412 6.30578C75.8306 6.34363 75.8125 6.37895 75.7881 6.40962C75.7579 6.44244 75.7212 6.46845 75.6803 6.48593C75.6394 6.50342 75.5953 6.51199 75.5508 6.51107V6.523ZM50.7843 6.33203C50.7295 6.33076 50.6761 6.31424 50.6301 6.28429C50.5965 6.26405 50.5672 6.23731 50.5439 6.2056C50.5206 6.17389 50.5037 6.13785 50.4943 6.09956C50.485 6.06127 50.4832 6.02148 50.4892 5.98251C50.4952 5.94354 50.5088 5.90615 50.5293 5.87251C50.7487 5.52041 50.98 5.18025 51.2232 4.85799C51.2704 4.79468 51.3406 4.75282 51.4185 4.74163C51.4963 4.73044 51.5754 4.75083 51.6383 4.79831C51.6695 4.82182 51.6957 4.85128 51.7156 4.885C51.7354 4.91872 51.7485 4.95604 51.754 4.99483C51.7595 5.03362 51.7573 5.07312 51.7477 5.11108C51.738 5.14904 51.721 5.18471 51.6976 5.21606C51.4663 5.52042 51.2469 5.85461 51.0393 6.1888C51.0105 6.22981 50.9723 6.26319 50.9279 6.28605C50.8835 6.30892 50.8342 6.3206 50.7843 6.32009V6.33203ZM73.1015 4.77444C73.0444 4.77618 72.9883 4.75944 72.9413 4.7267C72.6092 4.51186 72.2712 4.29702 71.9331 4.09412C71.8989 4.07447 71.869 4.04802 71.8452 4.01637C71.8214 3.98472 71.8043 3.94853 71.7949 3.91001C71.7854 3.87149 71.7839 3.83143 71.7903 3.79229C71.7968 3.75315 71.811 3.71575 71.8323 3.68234C71.8729 3.6156 71.9379 3.56757 72.0133 3.5486C72.0888 3.52962 72.1686 3.54122 72.2356 3.58089C72.5796 3.78777 72.9236 4.00261 73.2675 4.22541C73.3329 4.27026 73.3783 4.33912 73.3938 4.41722C73.4093 4.49532 73.3938 4.57643 73.3506 4.64315C73.3218 4.68187 73.284 4.71296 73.2407 4.73376C73.1973 4.75455 73.1495 4.76441 73.1015 4.7625V4.77444ZM52.6406 3.96879C52.5605 3.96859 52.4837 3.9364 52.4271 3.87928C52.3724 3.82249 52.3418 3.74651 52.3418 3.66742C52.3418 3.58833 52.3724 3.51234 52.4271 3.45556C52.7194 3.16549 53.0262 2.89062 53.3464 2.63201C53.3761 2.60676 53.4106 2.58776 53.4477 2.57617C53.4849 2.56457 53.524 2.5606 53.5627 2.5645C53.6014 2.5684 53.639 2.58008 53.6731 2.59885C53.7073 2.61762 53.7373 2.6431 53.7615 2.67378C53.811 2.73585 53.8344 2.81496 53.8266 2.89416C53.8189 2.97336 53.7806 3.04636 53.72 3.0975C53.4157 3.34218 53.1247 3.60315 52.8482 3.87928C52.7915 3.93114 52.7172 3.95894 52.6406 3.95686V3.96879ZM70.5157 3.24669C70.4687 3.24607 70.4223 3.23592 70.3793 3.21685C70.0234 3.02588 69.6676 2.84685 69.3118 2.67976C69.2739 2.66478 69.2394 2.6421 69.2106 2.61314C69.1818 2.58418 69.1592 2.54955 69.1443 2.51142C69.1294 2.47329 69.1224 2.43249 69.1238 2.39153C69.1253 2.35058 69.1351 2.31036 69.1526 2.27338C69.1702 2.2364 69.1951 2.20346 69.2259 2.17661C69.2566 2.14976 69.2926 2.12957 69.3314 2.11731C69.3703 2.10504 69.4112 2.10096 69.4517 2.10533C69.4922 2.10969 69.5314 2.12239 69.5668 2.14265C69.9286 2.30975 70.2903 2.49475 70.6521 2.68572C70.6867 2.70335 70.7175 2.72778 70.7426 2.75758C70.7677 2.78737 70.7866 2.82192 70.7982 2.85919C70.8098 2.89646 70.8139 2.9357 70.8102 2.97458C70.8065 3.01345 70.7951 3.05119 70.7766 3.08556C70.7503 3.13154 70.7122 3.16961 70.6663 3.19584C70.6204 3.22206 70.5685 3.23549 70.5157 3.23476V3.24669ZM55.0188 2.14265C54.9541 2.14199 54.8914 2.12003 54.8402 2.08015C54.7891 2.04026 54.7523 1.98463 54.7355 1.92174C54.7187 1.85885 54.7228 1.79216 54.7472 1.73184C54.7716 1.67152 54.8149 1.62088 54.8706 1.58765C55.2285 1.38368 55.5967 1.19843 55.9737 1.03264C56.046 1.00099 56.1279 0.999558 56.2013 1.02866C56.2747 1.05775 56.3336 1.11501 56.3651 1.18781C56.3965 1.26062 56.398 1.34301 56.369 1.41688C56.3401 1.49074 56.2832 1.55002 56.2109 1.58168C55.8532 1.73631 55.5046 1.91166 55.1671 2.10685C55.1202 2.12651 55.0694 2.13469 55.0188 2.13071V2.14265ZM67.7876 1.99346C67.7525 2.00183 67.7159 2.00183 67.6808 1.99346C67.3072 1.85023 66.9336 1.71297 66.5659 1.59362C66.5275 1.58261 66.4918 1.56392 66.4608 1.53869C66.4298 1.51346 66.4041 1.4822 66.3854 1.44677C66.3667 1.41134 66.3553 1.37247 66.3518 1.3325C66.3484 1.29253 66.353 1.25227 66.3653 1.21412C66.3777 1.17598 66.3976 1.14073 66.4238 1.1105C66.45 1.08027 66.482 1.05566 66.5179 1.03816C66.5538 1.02066 66.5928 1.01063 66.6327 1.00866C66.6725 1.00669 66.7123 1.01281 66.7497 1.02668C67.1293 1.152 67.5088 1.28926 67.8943 1.43846C67.9306 1.45293 67.9636 1.47444 67.9916 1.50177C68.0196 1.52911 68.0419 1.56173 68.0573 1.59776C68.0727 1.63379 68.0809 1.67252 68.0815 1.71175C68.082 1.75098 68.0748 1.78992 68.0604 1.82636C68.035 1.87624 67.9956 1.91753 67.9471 1.94511C67.8986 1.97269 67.8432 1.98535 67.7876 1.98152V1.99346ZM64.9231 1.08635H64.8578C64.4664 0.990868 64.0809 0.913291 63.7013 0.847645C63.6227 0.834983 63.5523 0.791401 63.5056 0.726489C63.4588 0.661577 63.4397 0.580651 63.4523 0.501513C63.4648 0.422376 63.5081 0.351508 63.5727 0.304503C63.6372 0.257498 63.7176 0.238206 63.7962 0.250868C64.1936 0.322481 64.5909 0.400061 64.9824 0.501513C65.061 0.51101 65.1327 0.551555 65.1816 0.614229C65.2306 0.676902 65.2528 0.75657 65.2433 0.835707C65.2339 0.914845 65.1936 0.986971 65.1313 1.03621C65.069 1.08546 64.9898 1.10779 64.9112 1.09829L64.9231 1.08635ZM57.8062 1.02071C57.7276 1.03099 57.6481 1.00943 57.5853 0.960743C57.5224 0.912059 57.4814 0.840248 57.4712 0.76111C57.4609 0.681973 57.4824 0.601991 57.5308 0.538757C57.5791 0.475524 57.6505 0.434217 57.7291 0.423929C58.1206 0.322477 58.5238 0.238929 58.9153 0.173284C58.9538 0.167354 58.9932 0.169135 59.0311 0.178529C59.0689 0.187923 59.1046 0.204747 59.136 0.22803C59.1674 0.251313 59.1939 0.280603 59.2141 0.314219C59.2342 0.347835 59.2475 0.385114 59.2533 0.423929C59.2601 0.462389 59.2591 0.501825 59.2505 0.539905C59.2419 0.577985 59.2257 0.613938 59.2031 0.645645C59.1804 0.677352 59.1517 0.704169 59.1185 0.724513C59.0854 0.744857 59.0486 0.758318 59.0102 0.764097C58.6187 0.823775 58.2332 0.90732 57.8596 1.0028L57.8062 1.02071ZM61.9577 0.63877C61.5604 0.63877 61.1689 0.63877 60.7716 0.63877C60.732 0.642214 60.6922 0.63711 60.6547 0.623799C60.6173 0.610488 60.5831 0.589275 60.5544 0.561586C60.5258 0.533897 60.5034 0.500371 60.4887 0.46325C60.4739 0.426129 60.4673 0.386277 60.4691 0.346355C60.4683 0.307168 60.4752 0.268205 60.4894 0.2317C60.5036 0.195194 60.5248 0.161854 60.5518 0.13359C60.5787 0.105327 60.611 0.0826961 60.6467 0.0669793C60.6824 0.0512626 60.7208 0.0427681 60.7597 0.0419922C61.163 0.0419922 61.5663 0.0419922 61.9814 0.0419922C62.0601 0.0419922 62.1355 0.0734338 62.1911 0.129393C62.2467 0.185351 62.278 0.261243 62.278 0.340381C62.278 0.419519 62.2467 0.49542 62.1911 0.551378C62.1355 0.607337 62.0601 0.63877 61.9814 0.63877H61.9577Z" fill="#A8CFF0"/>
<path d="M92.3879 30.3643C92.3269 30.3643 92.2675 30.3454 92.2176 30.3102C92.1677 30.2749 92.1298 30.2251 92.1091 30.1674C92.0439 29.9824 91.9787 29.7974 91.9075 29.6124C91.8885 29.575 91.8775 29.534 91.8754 29.492C91.8732 29.4501 91.8799 29.4081 91.895 29.3689C91.9101 29.3297 91.9332 29.2942 91.9628 29.2646C91.9925 29.2351 92.028 29.2121 92.0671 29.1974C92.1062 29.1826 92.1479 29.1762 92.1896 29.1788C92.2312 29.1813 92.2719 29.1927 92.3089 29.2122C92.3459 29.2316 92.3784 29.2588 92.4043 29.2917C92.4301 29.3247 92.4488 29.3628 92.459 29.4035C92.5302 29.5885 92.6014 29.7795 92.6666 29.9645C92.6807 30.0013 92.6872 30.0405 92.6858 30.0799C92.6844 30.1193 92.6751 30.1579 92.6585 30.1936C92.6419 30.2293 92.6183 30.2612 92.5891 30.2875C92.5599 30.3137 92.5258 30.3338 92.4887 30.3464C92.4565 30.3586 92.4223 30.3647 92.3879 30.3643Z" fill="#A8CFF0"/>
<path d="M84.1868 58.8601C84.1267 58.8597 84.0681 58.8414 84.0185 58.8074C83.9689 58.7734 83.9304 58.7252 83.908 58.6692C83.8369 58.4901 83.7598 58.3051 83.6827 58.1261C83.6545 58.0523 83.6553 57.9704 83.6851 57.8972C83.7148 57.824 83.7713 57.765 83.8428 57.7322C83.879 57.7166 83.9179 57.7084 83.9572 57.708C83.9966 57.7077 84.0356 57.7152 84.0721 57.7302C84.1085 57.7452 84.1416 57.7674 84.1695 57.7954C84.1973 57.8234 84.2193 57.8567 84.2342 57.8933L84.4596 58.4483C84.474 58.4848 84.4812 58.5237 84.4807 58.563C84.4801 58.6022 84.4719 58.6409 84.4565 58.677C84.4411 58.713 84.4187 58.7456 84.3908 58.7729C84.3628 58.8003 84.3298 58.8218 84.2935 58.8363C84.2604 58.8527 84.2237 58.8609 84.1868 58.8601Z" fill="#0FBAB8"/>
<path d="M81.5293 82.7017C81.4767 82.7013 81.4252 82.6873 81.3795 82.6612C81.3339 82.6351 81.2956 82.5977 81.2683 82.5525C81.2314 82.4833 81.2226 82.4025 81.2436 82.3268C81.2646 82.2512 81.3138 82.1867 81.381 82.1467C81.6978 81.9677 82.0029 81.7683 82.2943 81.55C82.3568 81.5073 82.4331 81.4903 82.5076 81.5023C82.5821 81.5143 82.6493 81.5544 82.6954 81.6146C82.7416 81.6747 82.7632 81.7502 82.7559 81.8258C82.7486 81.9014 82.7129 81.9714 82.6561 82.0214C82.3459 82.2653 82.0189 82.4866 81.6775 82.6838C81.6306 82.7033 81.5794 82.7094 81.5293 82.7017ZM83.7236 80.8756C83.6519 80.8763 83.5824 80.8509 83.5279 80.804C83.4732 80.7472 83.4426 80.6712 83.4426 80.5921C83.4426 80.513 83.4732 80.437 83.5279 80.3803C83.7729 80.1001 84.0007 79.8051 84.2099 79.497C84.2321 79.4645 84.2605 79.4367 84.2933 79.4152C84.3262 79.3937 84.363 79.3789 84.4015 79.3717C84.4401 79.3645 84.4797 79.365 84.518 79.3732C84.5564 79.3814 84.5927 79.3971 84.6251 79.4195C84.6574 79.4418 84.685 79.4703 84.7064 79.5034C84.7278 79.5365 84.7424 79.5735 84.7496 79.6122C84.7568 79.651 84.7563 79.6909 84.7481 79.7295C84.74 79.7681 84.7244 79.8047 84.7022 79.8372C84.4772 80.1618 84.2357 80.4745 83.9786 80.7741C83.9468 80.8097 83.9072 80.8374 83.8629 80.855C83.8187 80.8726 83.771 80.8796 83.7236 80.8756ZM85.2834 78.4885C85.238 78.4901 85.1931 78.4798 85.1529 78.4586C85.118 78.442 85.0868 78.4186 85.061 78.3898C85.0352 78.3609 85.0153 78.3271 85.0026 78.2905C84.9899 78.2538 84.9846 78.215 84.987 78.1762C84.9894 78.1375 84.9994 78.0996 85.0165 78.0648C85.1766 77.7306 85.319 77.3844 85.4554 77.0264C85.4885 76.9611 85.5444 76.9103 85.6124 76.8839C85.6804 76.8574 85.7557 76.8571 85.8239 76.8829C85.8921 76.9087 85.9485 76.9589 85.9822 77.0239C86.016 77.0889 86.0248 77.1641 86.0069 77.2352C85.8705 77.6112 85.7163 77.9753 85.5503 78.3214C85.5239 78.3687 85.485 78.4077 85.4379 78.4341C85.3907 78.4604 85.3372 78.4731 85.2834 78.4706V78.4885ZM86.2323 75.7791H86.1611C86.1231 75.7708 86.0872 75.7548 86.0556 75.732C86.024 75.7092 85.9974 75.6801 85.9774 75.6466C85.9574 75.613 85.9444 75.5757 85.9393 75.5369C85.9342 75.4981 85.937 75.4587 85.9476 75.421C86.0306 75.063 86.1077 74.693 86.173 74.311C86.1794 74.2723 86.1934 74.2353 86.2143 74.2022C86.2352 74.1691 86.2626 74.1406 86.2947 74.1183C86.3268 74.096 86.363 74.0805 86.4012 74.0726C86.4394 74.0647 86.4787 74.0646 86.517 74.0723C86.5938 74.0855 86.6624 74.1286 86.7079 74.1922C86.7534 74.2559 86.7721 74.335 86.7601 74.4125C86.689 74.8064 86.6118 75.1943 86.5229 75.5643C86.5015 75.6239 86.4618 75.6751 86.4096 75.7105C86.3573 75.7459 86.2952 75.7637 86.2323 75.7612V75.7791ZM86.683 72.9384C86.6049 72.9309 86.5327 72.893 86.4818 72.8329C86.4309 72.7727 86.4052 72.695 86.4102 72.6162C86.4102 72.2462 86.4577 71.8642 86.4695 71.4823C86.4741 71.4031 86.5085 71.3287 86.5659 71.2744C86.6232 71.22 86.6991 71.1898 86.7779 71.1899C86.8555 71.193 86.9288 71.2266 86.982 71.2835C87.0353 71.3404 87.0642 71.4161 87.0626 71.4942C87.0626 71.8941 87.0329 72.282 86.9973 72.6878C86.9794 72.7561 86.938 72.8158 86.8804 72.8562C86.8228 72.8966 86.7529 72.9152 86.683 72.9086V72.9384ZM86.7305 70.062C86.6547 70.0593 86.5826 70.0286 86.5279 69.9757C86.4732 69.9229 86.4397 69.8516 86.4339 69.7755C86.4339 69.3936 86.3983 69.0176 86.3628 68.6357C86.3595 68.5965 86.364 68.557 86.376 68.5195C86.388 68.4821 86.4072 68.4474 86.4325 68.4174C86.4579 68.3875 86.4889 68.3629 86.5237 68.345C86.5586 68.3272 86.5966 68.3164 86.6356 68.3134C86.6745 68.3101 86.7138 68.3147 86.751 68.3267C86.7882 68.3388 86.8227 68.3581 86.8525 68.3836C86.8822 68.4092 86.9067 68.4403 86.9244 68.4754C86.9422 68.5105 86.9528 68.5487 86.9558 68.5879C86.9914 68.9758 87.0151 69.3638 87.027 69.7457C87.0302 69.8254 87.0022 69.9033 86.949 69.9624C86.8957 70.0216 86.8215 70.0574 86.7423 70.062H86.7305ZM86.4636 67.1915C86.3927 67.1908 86.3243 67.1645 86.271 67.1174C86.2177 67.0703 86.1829 67.0055 86.173 66.9349C86.1196 66.5589 86.0544 66.1829 85.9891 65.807C85.9753 65.7294 85.9924 65.6495 86.0369 65.5847C86.0813 65.5199 86.1494 65.4753 86.2264 65.4608C86.3032 65.4484 86.3818 65.4663 86.4459 65.5108C86.51 65.5553 86.5545 65.6229 86.5703 65.6995C86.6415 66.0874 86.7008 66.4694 86.7601 66.8513C86.7702 66.9296 86.749 67.0088 86.7012 67.0714C86.6534 67.1341 86.5829 67.1751 86.5051 67.1855L86.4636 67.1915ZM85.9298 64.3627C85.8623 64.3631 85.7967 64.3402 85.7438 64.2978C85.691 64.2555 85.6541 64.1963 85.6392 64.13C85.5503 63.76 85.4613 63.396 85.3605 63.026C85.35 62.9868 85.3472 62.9459 85.3524 62.9056C85.3576 62.8654 85.3706 62.8266 85.3907 62.7914C85.4108 62.7562 85.4376 62.7253 85.4696 62.7006C85.5015 62.6758 85.538 62.6576 85.5769 62.647C85.6159 62.6364 85.6565 62.6337 85.6965 62.6389C85.7365 62.6441 85.7751 62.6572 85.8101 62.6774C85.845 62.6977 85.8757 62.7246 85.9003 62.7568C85.925 62.7889 85.943 62.8257 85.9535 62.8648C86.0524 63.2388 86.1473 63.6148 86.2382 63.9927C86.2479 64.0308 86.2498 64.0704 86.244 64.1092C86.2381 64.148 86.2245 64.1852 86.204 64.2186C86.1835 64.252 86.1566 64.281 86.1248 64.3037C86.0929 64.3264 86.0569 64.3424 86.0188 64.3508L85.9298 64.3627ZM85.1351 61.5698C85.0719 61.5693 85.0105 61.5489 84.9594 61.5114C84.9084 61.4739 84.8703 61.4213 84.8504 61.361C84.7378 60.9969 84.6132 60.6389 84.4887 60.2748C84.4702 60.2025 84.4794 60.1258 84.5144 60.06C84.5494 59.9942 84.6077 59.9439 84.6777 59.9192C84.7477 59.8945 84.8244 59.897 84.8926 59.9264C84.9608 59.9558 85.0156 60.0098 85.0462 60.0779C85.1766 60.4419 85.3012 60.8119 85.4139 61.176C85.4267 61.2131 85.432 61.2526 85.4294 61.2919C85.4267 61.3312 85.4163 61.3695 85.3985 61.4046C85.3808 61.4397 85.3562 61.4709 85.3262 61.4962C85.2963 61.5215 85.2615 61.5405 85.2241 61.5519L85.1351 61.5698Z" fill="#0FBAB8"/>
<path d="M79.3884 83.5906C79.3097 83.6009 79.2302 83.5794 79.1674 83.5307C79.1046 83.482 79.0635 83.4102 79.0533 83.3311C79.0431 83.2519 79.0645 83.1719 79.1129 83.1087C79.1613 83.0455 79.2326 83.0042 79.3113 82.9939L79.8628 82.8268C79.9368 82.802 80.0174 82.8076 80.0873 82.8422C80.1573 82.8768 80.2108 82.9377 80.2365 83.0118C80.2613 83.087 80.2559 83.169 80.2216 83.2403C80.1873 83.3116 80.1266 83.3667 80.0526 83.3937C79.8579 83.4614 79.66 83.5192 79.4595 83.5668C79.438 83.5803 79.4136 83.5885 79.3884 83.5906Z" fill="#0FBAB8"/>
<path d="M95.7038 45.6718C95.6412 45.6718 95.5802 45.6515 95.53 45.6139C95.4798 45.5763 95.443 45.5233 95.4251 45.4629L95.0218 44.1739L94.5829 45.4092C94.5704 45.4465 94.5504 45.4809 94.5243 45.5103C94.4982 45.5396 94.4665 45.5634 94.4311 45.5801C94.3956 45.5968 94.3572 45.6062 94.318 45.6076C94.2789 45.609 94.2399 45.6024 94.2034 45.5882C94.1295 45.5613 94.0692 45.506 94.0358 45.4343C94.0025 45.3627 93.9987 45.2807 94.0255 45.2063L94.7549 43.1295C94.7744 43.0698 94.8122 43.0178 94.8627 42.981C94.9133 42.9441 94.9742 42.9243 95.0366 42.9243C95.0991 42.9243 95.1599 42.9441 95.2105 42.981C95.2611 43.0178 95.2988 43.0698 95.3183 43.1295L95.9885 45.272C96.011 45.3479 96.0031 45.4297 95.9665 45.4999C95.93 45.5701 95.8676 45.6232 95.7928 45.6479L95.7038 45.6718Z" fill="#A8CFF0"/>
<path d="M74.1989 35.6276C74.1989 37.4537 73.5703 38.7487 72.5561 39.3754L70.7769 40.4734C69.7153 41.0702 70.3974 39.7215 68.7842 38.7846C65.5461 36.9047 62.9247 32.3453 62.9247 28.6095C62.9247 26.7595 61.2226 26.7416 62.2664 26.1269L64.2354 24.993C65.2911 24.3962 66.7381 24.5216 68.3276 25.4466C71.5717 27.3324 74.1989 31.8858 74.1989 35.6276Z" fill="#FFCC00"/>
<path d="M66.6966 26.4555C65.1428 25.5544 63.7313 25.435 62.6875 25.9602C63.2885 25.8365 63.908 25.8346 64.5098 25.9545C65.1116 26.0744 65.6836 26.3137 66.1925 26.6584C69.4307 28.5382 72.058 33.0916 72.058 36.8334C72.058 38.7789 71.3404 40.1217 70.2017 40.6946C71.6369 40.2888 72.574 38.8565 72.574 36.6365C72.5621 32.9246 69.9348 28.3413 66.6966 26.4555Z" fill="white"/>
<path d="M69.4806 40.4219C71.7482 39.0953 71.7357 34.8168 69.4527 30.8655C67.1698 26.9142 63.4808 24.7865 61.2132 26.1131C58.9457 27.4397 58.9581 31.7183 61.2411 35.6695C63.5241 39.6208 67.213 41.7485 69.4806 40.4219Z" fill="#FFD70F"/>
<path d="M65.3675 30.9431C65.3675 31.4683 64.9998 31.6831 64.5431 31.4205C64.3037 31.2636 64.1043 31.0522 63.961 30.8034C63.8178 30.5546 63.7348 30.2753 63.7188 29.9882C63.7187 29.4631 64.0865 29.2482 64.5431 29.5168C64.7841 29.6706 64.9848 29.8804 65.1283 30.1287C65.2718 30.3769 65.3538 30.6562 65.3675 30.9431Z" fill="#D99F00"/>
<path d="M68.7015 32.8825C68.7015 33.4076 68.3338 33.6165 67.8771 33.3539C67.6373 33.1974 67.4377 32.9861 67.2944 32.7372C67.1511 32.4883 67.0683 32.2089 67.0527 31.9217C67.0527 31.3965 67.4204 31.1876 67.8771 31.4502C68.1169 31.6067 68.3166 31.8181 68.4598 32.067C68.6031 32.3159 68.6859 32.5953 68.7015 32.8825Z" fill="#D99F00"/>
<path d="M63.0957 33.1094L63.8608 33.2407C64.2182 34.5967 65.0637 35.7708 66.233 36.5349C67.2591 37.1316 68.1961 36.9288 68.5697 36.0455L69.3289 36.8273C68.8366 38.0209 67.5971 38.2655 66.233 37.4718C64.684 36.4614 63.5652 34.9059 63.0957 33.1094Z" fill="#D99F00"/>
<path d="M64.7863 31.2476C64.5465 31.0911 64.3468 30.8798 64.2036 30.6309C64.0603 30.382 63.9775 30.1026 63.9619 29.8154C63.9569 29.6743 63.9941 29.535 64.0687 29.4155C63.8611 29.4633 63.7188 29.6662 63.7188 30.0123C63.7348 30.2994 63.8178 30.5786 63.961 30.8274C64.1043 31.0763 64.3037 31.2877 64.5431 31.4446C64.8515 31.6176 65.1362 31.5759 65.2548 31.373C65.0885 31.3927 64.9209 31.3479 64.7863 31.2476Z" fill="#B08100"/>
<path d="M68.1143 33.1872C67.8766 33.029 67.6789 32.8171 67.5368 32.5685C67.3947 32.3198 67.3122 32.0413 67.2959 31.7549C67.2911 31.6121 67.3282 31.4709 67.4027 31.3491C67.1891 31.3969 67.0527 31.5998 67.0527 31.9459C67.0683 32.2331 67.1511 32.5125 67.2944 32.7614C67.4377 33.0103 67.6373 33.2216 67.8771 33.3782C68.1855 33.5572 68.4702 33.5154 68.5888 33.3066C68.4212 33.3315 68.2506 33.2886 68.1143 33.1872Z" fill="#B08100"/>
<path d="M68.6538 36.1409L68.5589 36.0454C68.4798 36.2378 68.3605 36.4108 68.209 36.5527C68.388 36.4534 68.5406 36.3122 68.6538 36.1409Z" fill="#B08100"/>
<path d="M66.4643 37.3047C64.9841 36.3364 63.8966 34.8674 63.3982 33.1631L63.0957 33.1094C63.5623 34.904 64.6766 36.4593 66.2212 37.4718C67.2472 38.0686 68.202 38.0686 68.8248 37.5255C68.4477 37.7045 68.0297 37.7785 67.6146 37.7396C67.1994 37.7008 66.8022 37.5506 66.4643 37.3047Z" fill="#B08100"/>
<path style="mix-blend-mode:multiply" d="M76.7808 77.8307C86.2196 72.2784 86.1232 54.4403 76.5653 37.9883C67.0075 21.5363 51.6076 12.7004 42.1687 18.2527C32.7298 23.8051 32.8263 41.6431 42.3842 58.0951C51.942 74.5472 67.3419 83.3831 76.7808 77.8307Z" fill="url(#paint0_radial)"/>
<path opacity="0.2" d="M52.4454 90.0004C65.5471 90.0004 76.1681 85.5544 76.1681 80.07C76.1681 74.5856 65.5471 70.1396 52.4454 70.1396C39.3437 70.1396 28.7227 74.5856 28.7227 80.07C28.7227 85.5544 39.3437 90.0004 52.4454 90.0004Z" fill="#92B4D1"/>
<path d="M69.7929 66.0873C69.7929 47.4261 56.692 24.6829 40.525 15.2896C32.732 10.7661 25.6508 10.1693 20.4081 12.8548L15.8711 15.3971L17.9765 19.0374C16.9249 22.2188 16.4136 25.5557 16.4642 28.9081C16.4642 47.5693 29.571 70.3125 45.7321 79.6998C48.6622 81.4676 51.8717 82.717 55.2212 83.3939L57.3681 87.1059L60.4046 85.4647C66.1574 82.63 69.7929 75.8924 69.7929 66.0873Z" fill="#03336E"/>
<path d="M57.9265 86.8066C69.2826 80.1265 69.1657 58.6639 57.6655 38.8686C46.1654 19.0733 27.6367 8.44127 16.2807 15.1214C4.92464 21.8015 5.04149 43.2641 16.5417 63.0594C28.0418 82.8548 46.5705 93.4867 57.9265 86.8066Z" fill="#3F92D1"/>
<path d="M57.2722 87.1616C68.6283 80.4815 68.5114 59.0189 57.0112 39.2236C45.5111 19.4282 26.9824 8.79625 15.6264 15.4764C4.27035 22.1565 4.38719 43.6191 15.8874 63.4144C27.3875 83.2098 45.9162 93.8417 57.2722 87.1616Z" fill="#2672AB"/>
<path d="M54.219 81.9064C63.9095 76.206 63.8094 57.8904 53.9953 40.9974C44.1812 24.1043 28.3696 15.0309 18.6791 20.7313C8.98854 26.4317 9.0887 44.7473 18.9028 61.6403C28.7169 78.5333 44.5285 87.6068 54.219 81.9064Z" fill="white"/>
<path d="M58.2582 78.0346C60.2747 75.0507 61.4252 70.927 61.4252 65.8246C61.4252 65.747 61.4252 65.6694 61.4252 65.5918L36.457 51.3169L58.2582 78.0346Z" fill="#EB4680"/>
<path d="M37.4648 79.6402C23.676 71.6314 12.4966 52.2242 12.4966 36.2963C12.4966 28.3233 15.2959 22.7375 19.827 20.1475C14.7029 22.451 11.4766 28.2577 11.4766 36.8095C11.4766 52.7375 22.6559 72.1447 36.4507 80.1534C43.3362 84.1578 49.5694 84.5577 54.0885 81.9796C49.6761 83.9668 43.8522 83.3522 37.4648 79.6402Z" fill="#084C94"/>
<path d="M37.814 52.1106C37.814 52.9819 37.221 53.334 36.45 52.8924C36.0508 52.6318 35.719 52.2794 35.4818 51.8644C35.2447 51.4493 35.109 50.9835 35.0859 50.5052C35.0859 49.6339 35.679 49.3117 36.45 49.7235C36.8491 49.9841 37.181 50.3364 37.4182 50.7515C37.6553 51.1665 37.791 51.6324 37.814 52.1106Z" fill="#03336E"/>
<path d="M36.8288 26.8132C36.7141 26.7308 36.6202 26.6226 36.5543 26.4973C36.4884 26.3719 36.4524 26.2329 36.4492 26.0911V24.8081C36.4492 24.5276 36.6212 24.4023 36.8288 24.5216C36.9442 24.6047 37.0387 24.7138 37.1046 24.8402C37.1705 24.9667 37.2061 25.1069 37.2083 25.2497V26.5268C37.2083 26.8073 37.0364 26.9565 36.8288 26.8132Z" fill="#72B5E8"/>
<path d="M36.8288 78.1126C36.7135 78.0308 36.619 77.9228 36.553 77.7973C36.4871 77.6718 36.4515 77.5324 36.4492 77.3905V76.1074C36.4492 75.8269 36.6212 75.7016 36.8288 75.8209C36.9442 75.904 37.0387 76.0131 37.1046 76.1395C37.1705 76.266 37.2061 76.4062 37.2083 76.549V77.8261C37.2083 78.1066 37.0364 78.2379 36.8288 78.1126Z" fill="#72B5E8"/>
<path d="M15.6096 38.9879C15.6096 39.2326 15.4673 39.34 15.2834 39.2386L13.9668 38.4628C13.8721 38.3936 13.7938 38.3042 13.7374 38.2011C13.681 38.0979 13.648 37.9835 13.6406 37.866C13.6406 37.6273 13.7889 37.5139 13.9668 37.6153L15.3012 38.3911C15.3935 38.4613 15.4691 38.5512 15.5225 38.6545C15.5758 38.7577 15.6056 38.8716 15.6096 38.9879Z" fill="#72B5E8"/>
<path d="M60.0356 64.7985C60.0356 65.0432 59.8933 65.1506 59.7094 65.0491L58.375 64.2733C58.2803 64.2041 58.202 64.1148 58.1456 64.0116C58.0892 63.9085 58.0562 63.794 58.0488 63.6765C58.0488 63.4378 58.1971 63.3244 58.375 63.4259L59.7094 64.2017C59.805 64.27 59.884 64.3591 59.9405 64.4625C59.997 64.5658 60.0295 64.6807 60.0356 64.7985Z" fill="#72B5E8"/>
<path d="M26.2203 23.9368C26.0424 23.9368 25.8111 23.7458 25.7044 23.4713L25.1113 21.8838C25.0105 21.6153 25.0698 21.3885 25.2536 21.3706C25.4315 21.3706 25.6628 21.5616 25.7696 21.8301L26.3627 23.4176C26.4635 23.6861 26.422 23.9188 26.2203 23.9368Z" fill="#72B5E8"/>
<path d="M48.4361 81.2633C48.2522 81.2633 48.0209 81.0783 47.9201 80.8038L47.327 79.2164C47.2203 78.9478 47.2855 78.7151 47.4634 78.7031C47.6473 78.7031 47.8786 78.8941 47.9794 79.1627L48.5725 80.7501C48.6792 81.0186 48.614 81.2633 48.4361 81.2633Z" fill="#72B5E8"/>
<path d="M18.4562 52.8927C18.5571 53.1613 18.4978 53.394 18.3139 53.4119L17.2523 53.5015C17.0685 53.5015 16.8372 53.3105 16.7304 53.0419C16.6296 52.7734 16.6889 52.5406 16.8728 52.5227L17.9344 52.4332C18.1182 52.4153 18.3495 52.6182 18.4562 52.8927Z" fill="#72B5E8"/>
<path d="M56.9297 49.5983C57.0365 49.8669 56.9713 50.0996 56.7933 50.1115L55.7258 50.2011C55.5479 50.2011 55.3166 50.0161 55.2098 49.7415C55.1031 49.473 55.1683 49.2402 55.3462 49.2283L56.4138 49.1328C56.5917 49.1209 56.823 49.3238 56.9297 49.5983Z" fill="#72B5E8"/>
<path d="M18.4562 28.3889C18.3494 28.5381 18.1181 28.4784 17.9343 28.2517L16.8727 26.9208C16.7873 26.8339 16.7285 26.7242 16.7033 26.6046C16.6781 26.4851 16.6875 26.3608 16.7303 26.2465C16.8371 26.0973 17.0684 26.157 17.2522 26.3838L18.3138 27.7146C18.3992 27.8015 18.458 27.9112 18.4832 28.0308C18.5084 28.1503 18.4991 28.2746 18.4562 28.3889Z" fill="#72B5E8"/>
<path d="M56.9291 76.3936C56.8224 76.5427 56.5911 76.4771 56.4132 76.2503L55.3456 74.9255C55.2608 74.837 55.2028 74.7259 55.1787 74.6054C55.1545 74.4848 55.1651 74.3598 55.2092 74.2451C55.316 74.096 55.5473 74.1616 55.7252 74.3884L56.7927 75.7132C56.8776 75.8017 56.9355 75.9128 56.9597 76.0333C56.9839 76.1539 56.9733 76.2789 56.9291 76.3936Z" fill="#72B5E8"/>
<path d="M26.2183 66.374C26.3035 66.4623 26.3622 66.573 26.3874 66.6934C26.4125 66.8139 26.4033 66.939 26.3606 67.0544L25.7676 67.9257C25.6608 68.0748 25.4295 68.0092 25.2516 67.7824C25.1662 67.6955 25.1074 67.5858 25.0822 67.4662C25.057 67.3467 25.0664 67.2224 25.1092 67.1081L25.7023 66.2308C25.8269 66.0876 26.0404 66.1472 26.2183 66.374Z" fill="#72B5E8"/>
<path d="M48.4358 34.852C48.5206 34.9405 48.5786 35.0516 48.6028 35.1721C48.6269 35.2927 48.6163 35.4177 48.5722 35.5323L47.9791 36.4036C47.8783 36.5528 47.647 36.4872 47.4631 36.2604C47.3781 36.1732 47.32 36.0632 47.2958 35.9435C47.2716 35.8239 47.2824 35.6997 47.3267 35.586L47.9198 34.7147C48.0206 34.5656 48.2519 34.6252 48.4358 34.852Z" fill="#72B5E8"/>
<path d="M37.1076 52.7019L35.791 51.9321V30.645L37.1076 31.4089V52.7019Z" fill="#03336E"/>
<path d="M36.6806 51.0366L36.2773 51.6095L54.1228 73.8693L54.5261 73.2964L36.6806 51.0366Z" fill="#03336E"/>
<path d="M37.1316 51.717C37.1316 52.1527 36.8232 52.3138 36.4496 52.105C36.249 51.9758 36.0823 51.7998 35.9636 51.5921C35.8449 51.3843 35.7776 51.1508 35.7676 50.9114C35.7676 50.4758 36.07 50.3146 36.4496 50.5175C36.649 50.6495 36.8146 50.8268 36.9331 51.0352C37.0516 51.2437 37.1196 51.4772 37.1316 51.717Z" fill="#EB4680"/>
<path d="M41.6996 49.1745L40.982 47.9272L38.076 49.5982L38.2658 49.9205L20.2246 60.2686L20.5686 60.8654L38.6038 50.5173L38.7936 50.8395L41.6996 49.1745Z" fill="#EB4680"/>
<path style="mix-blend-mode:multiply" d="M25.6418 46.7401C30.842 43.6812 30.7894 33.8548 25.5245 24.7922C20.2596 15.7297 11.776 10.8628 6.57585 13.9217C1.37571 16.9807 1.42822 26.8071 6.69315 35.8696C11.9581 44.9322 20.4417 49.7991 25.6418 46.7401Z" fill="url(#paint1_radial)"/>
<path d="M21.6112 34.7565C21.6112 28.7887 17.4183 21.5199 12.2526 18.5122C9.76174 17.068 7.50808 16.877 5.81783 17.7364L2.77539 19.3656L3.45149 20.5591C3.11435 21.5765 2.94994 22.6438 2.96517 23.7161C2.96517 29.6839 7.15817 36.9586 12.3238 39.9604C13.2619 40.5276 14.2885 40.9311 15.3603 41.1539L16.0483 42.3475L18.1774 41.2613C20.0218 40.3005 21.6112 37.8955 21.6112 34.7565Z" fill="#0BA19F"/>
<path d="M15.2955 41.7857C18.9123 39.6697 18.8904 32.8418 15.2465 26.535C11.6026 20.2283 5.71654 16.831 2.09968 18.947C-1.51718 21.063 -1.49525 27.8909 2.14866 34.1976C5.79258 40.5044 11.6786 43.9016 15.2955 41.7857Z" fill="#3ECFCD"/>
<path d="M16.0144 42.3079C19.6452 40.1721 19.6069 33.3084 15.9289 26.9775C12.2509 20.6465 6.32595 17.2456 2.69518 19.3814C-0.935588 21.5171 -0.897297 28.3808 2.78071 34.7118C6.45872 41.0428 12.3837 44.4436 16.0144 42.3079Z" fill="#0FBAB8"/>
<path d="M11.4581 26.8432C9.83901 24.0324 7.67431 24.1219 6.89146 25.1424V23.9488C7.15241 23.9488 7.33626 23.7698 7.33626 23.4236C7.32131 23.1639 7.2459 22.9114 7.11609 22.6865C6.98628 22.4615 6.80572 22.2704 6.58899 22.1286C6.17977 21.8899 5.84766 22.0809 5.84766 22.5583C5.86687 22.9459 6.02242 23.3139 6.28653 23.5967V35.6636C6.02558 35.6636 5.84766 35.8426 5.84766 36.1947L7.33626 37.06C7.31477 36.6701 7.15726 36.3002 6.89146 36.0156V30.2508C7.67431 29.2303 9.8568 29.1408 11.4581 31.9456C13.1424 34.8758 15.7282 34.2552 15.7282 34.2552V29.1587C15.7282 29.1587 13.1424 29.7734 11.4581 26.8432Z" fill="white"/>
</g>
<defs>
<radialGradient id="paint0_radial" cx="0" cy="0" r="1" gradientUnits="userSpaceOnUse" gradientTransform="translate(36.7766 57.2228) rotate(-150.042) scale(21.3976 18.4399)">
<stop offset="0.06" stop-color="#7F9BB0"/>
<stop offset="1" stop-color="white"/>
</radialGradient>
<radialGradient id="paint1_radial" cx="0" cy="0" r="1" gradientUnits="userSpaceOnUse" gradientTransform="translate(-180037 13534.4) rotate(-150.042) scale(433.619 647.186)">
<stop offset="0.06" stop-color="#7F9BB0"/>
<stop offset="1" stop-color="white"/>
</radialGradient>
<clipPath id="clip0">
<rect width="96" height="90" fill="white"/>
</clipPath>
</defs>
</svg>
