<svg width="94" height="94" viewBox="0 0 94 94" fill="none" xmlns="http://www.w3.org/2000/svg">
<circle cx="47" cy="47" r="47" fill="#1072FF"/>
<g clip-path="url(#clip0)">
<path d="M65.7273 24H27.2728C24.9162 24 23 25.9162 23 28.2728V34.6819C23 37.0383 24.9162 38.9546 27.2728 38.9546H65.7273C68.0838 38.9546 70.0001 37.0384 70.0001 34.6819V28.2728C70 25.9162 68.0838 24 65.7273 24ZM31.5454 33.6136C31.5454 34.2041 31.0676 34.6819 30.4772 34.6819C29.8868 34.6819 29.4091 34.2041 29.4091 33.6136V29.3409C29.4091 28.7504 29.8869 28.2727 30.4773 28.2727C31.0677 28.2727 31.5455 28.7504 31.5455 29.3409V33.6136H31.5454ZM35.8182 33.6136C35.8182 34.2041 35.3404 34.6819 34.75 34.6819C34.1595 34.6819 33.6818 34.2041 33.6818 33.6136V29.3409C33.6818 28.7504 34.1595 28.2727 34.75 28.2727C35.3404 28.2727 35.8182 28.7504 35.8182 29.3409V33.6136ZM40.091 33.6136C40.091 34.2041 39.6132 34.6819 39.0227 34.6819C38.4323 34.6819 37.9545 34.2041 37.9545 33.6136V29.3409C37.9545 28.7504 38.4323 28.2727 39.0227 28.2727C39.6132 28.2727 40.091 28.7504 40.091 29.3409V33.6136ZM55.0455 33.6136C53.8678 33.6136 52.9091 32.655 52.9091 31.4773C52.9091 30.2996 53.8678 29.3409 55.0455 29.3409C56.2231 29.3409 57.1818 30.2995 57.1818 31.4772C57.1818 32.6549 56.2231 33.6136 55.0455 33.6136ZM61.4546 33.6136C60.2769 33.6136 59.3182 32.655 59.3182 31.4773C59.3182 30.2996 60.2769 29.3409 61.4546 29.3409C62.6322 29.3409 63.5909 30.2995 63.5909 31.4772C63.5909 32.6549 62.6322 33.6136 61.4546 33.6136Z" fill="white"/>
<path d="M65.7273 40.0225H27.2728C24.9162 40.0225 23 41.9387 23 44.2952V50.7043C23 53.0608 24.9162 54.9771 27.2728 54.9771H65.7273C68.0838 54.9771 70.0001 53.0609 70.0001 50.7043V44.2952C70 41.9387 68.0838 40.0225 65.7273 40.0225ZM31.5454 49.6361C31.5454 50.2265 31.0676 50.7043 30.4772 50.7043C29.8868 50.7043 29.4091 50.2265 29.4091 49.6361V45.3633C29.4091 44.7729 29.8869 44.2951 30.4773 44.2951C31.0677 44.2951 31.5455 44.7729 31.5455 45.3633V49.6361H31.5454ZM35.8182 49.6361C35.8182 50.2265 35.3404 50.7043 34.75 50.7043C34.1595 50.7043 33.6818 50.2265 33.6818 49.6361V45.3633C33.6818 44.7729 34.1595 44.2951 34.75 44.2951C35.3404 44.2951 35.8182 44.7729 35.8182 45.3633V49.6361ZM40.091 49.6361C40.091 50.2265 39.6132 50.7043 39.0227 50.7043C38.4323 50.7043 37.9545 50.2265 37.9545 49.6361V45.3633C37.9545 44.7729 38.4323 44.2951 39.0227 44.2951C39.6132 44.2951 40.091 44.7729 40.091 45.3633V49.6361ZM55.0455 49.6361C53.8678 49.6361 52.9091 48.6774 52.9091 47.4998C52.9091 46.3221 53.8678 45.3634 55.0455 45.3634C56.2231 45.3634 57.1818 46.3221 57.1818 47.4998C57.1818 48.6774 56.2231 49.6361 55.0455 49.6361ZM61.4546 49.6361C60.2769 49.6361 59.3182 48.6774 59.3182 47.4998C59.3182 46.3221 60.2769 45.3634 61.4546 45.3634C62.6322 45.3634 63.5909 46.3221 63.5909 47.4998C63.5909 48.6774 62.6322 49.6361 61.4546 49.6361Z" fill="white"/>
<path d="M65.7273 56.0454H27.2728C24.9162 56.0454 23 57.9616 23 60.3182V66.7273C23 69.0837 24.9162 71 27.2728 71H65.7273C68.0838 71 70.0001 69.0838 70.0001 66.7273V60.3182C70 57.9616 68.0838 56.0454 65.7273 56.0454ZM31.5454 65.6591C31.5454 66.2495 31.0676 66.7273 30.4772 66.7273C29.8868 66.7273 29.4091 66.2495 29.4091 65.6591V61.3863C29.4091 60.7959 29.8869 60.3181 30.4773 60.3181C31.0677 60.3181 31.5455 60.7959 31.5455 61.3863V65.6591H31.5454ZM35.8182 65.6591C35.8182 66.2495 35.3404 66.7273 34.75 66.7273C34.1595 66.7273 33.6818 66.2495 33.6818 65.6591V61.3863C33.6818 60.7959 34.1595 60.3181 34.75 60.3181C35.3404 60.3181 35.8182 60.7959 35.8182 61.3863V65.6591ZM40.091 65.6591C40.091 66.2495 39.6132 66.7273 39.0227 66.7273C38.4323 66.7273 37.9545 66.2495 37.9545 65.6591V61.3863C37.9545 60.7959 38.4323 60.3181 39.0227 60.3181C39.6132 60.3181 40.091 60.7959 40.091 61.3863V65.6591ZM55.0455 65.6591C53.8678 65.6591 52.9091 64.7004 52.9091 63.5227C52.9091 62.345 53.8678 61.3864 55.0455 61.3864C56.2231 61.3864 57.1818 62.345 57.1818 63.5227C57.1818 64.7004 56.2231 65.6591 55.0455 65.6591ZM61.4546 65.6591C60.2769 65.6591 59.3182 64.7004 59.3182 63.5227C59.3182 62.345 60.2769 61.3864 61.4546 61.3864C62.6322 61.3864 63.5909 62.345 63.5909 63.5227C63.5909 64.7004 62.6322 65.6591 61.4546 65.6591Z" fill="white"/>
</g>
<defs>
<clipPath id="clip0">
<rect width="47" height="47" fill="white" transform="translate(23 24)"/>
</clipPath>
</defs>
</svg>
