<svg width="87" height="93" viewBox="0 0 87 93" fill="none" xmlns="http://www.w3.org/2000/svg">
<g clip-path="url(#clip0)">
<path opacity="0.2" d="M76.1404 91.512L20.7188 59.5171L31.0509 54.1597L86.4725 86.1546L76.1404 91.512Z" fill="#92B4D1"/>
<path opacity="0.2" d="M66.3224 91.004L12.4434 59.894L22.4885 54.686L76.3675 85.7961L66.3224 91.004Z" fill="#92B4D1"/>
<path opacity="0.2" d="M64.1948 85.527C64.1948 87.0995 62.5744 88.5166 59.9256 89.6048C56.9719 90.8007 52.7505 91.5481 48.0209 91.5481C39.0939 91.5481 31.877 88.8514 31.877 85.527C31.877 82.2025 39.1178 79.5059 48.0209 79.5059C56.924 79.5059 64.1948 82.2025 64.1948 85.527Z" fill="#92B4D1"/>
<path d="M74.5268 90.986L20.9348 60.0134C18.854 58.8176 17.1738 55.6008 17.1738 52.8383V4.05366C17.1738 1.29125 18.854 0.0176712 20.9348 1.21352L74.5447 32.186C76.6195 33.3819 78.3057 36.5987 78.3057 39.3611V88.1338C78.2877 90.9142 76.6016 92.1878 74.5268 90.986Z" fill="#D1EBFF"/>
<path d="M76.0148 31.4267L22.3989 0.466156C22.0804 0.249459 21.7169 0.107815 21.3358 0.051889C20.9547 -0.00403716 20.5658 0.0272149 20.1985 0.14328C20.1208 0.173176 18.6499 0.932541 18.5781 0.974395C18.9585 0.819471 19.3714 0.761847 19.7796 0.80674C20.1878 0.851633 20.5784 0.997622 20.916 1.2315L74.526 32.204C76.6008 33.3998 78.2869 36.6167 78.2869 39.3791V88.1518C78.2869 89.8798 77.6292 91.0219 76.6307 91.3507C76.7484 91.3425 76.8618 91.3033 76.9595 91.2371C77.0073 91.2072 78.5679 90.3641 78.6098 90.3342C79.3273 89.832 79.7698 88.8036 79.7698 87.3865V38.6078C79.7698 35.8394 78.0896 32.6226 76.0148 31.4267Z" fill="#3F92D1"/>
<path d="M75.5901 31.6299L21.9802 0.657418C21.6623 0.439497 21.2988 0.297113 20.9174 0.241154C20.536 0.185194 20.147 0.217135 19.7798 0.334534C19.7021 0.36443 18.6498 0.93246 18.584 0.962357C18.9643 0.807432 19.3773 0.749808 19.7855 0.794701C20.1937 0.839595 20.5843 0.985584 20.9219 1.21946L74.5318 32.192L75.5901 31.6299Z" fill="#4F9FDB"/>
<g style="mix-blend-mode:screen">
<path d="M74.7061 32.1024L21.0962 1.12993C20.7687 0.904984 20.3921 0.761578 19.998 0.711654C19.6038 0.661731 19.2033 0.706738 18.8301 0.842925C19.459 0.774881 20.0922 0.924733 20.6238 1.26745L74.2398 32.24C76.3146 33.4358 77.9947 36.6526 77.9947 39.4151V88.1818C77.9947 89.8201 77.3968 90.9263 76.4999 91.3149C77.6599 91.1296 78.4492 89.9397 78.4492 88.0503V39.2835C78.4671 36.5151 76.7809 33.3043 74.7061 32.1024Z" fill="white"/>
</g>
<path d="M19.2655 8.40088V52.8327C19.2403 53.8825 19.4735 54.9224 19.9448 55.8608C20.4161 56.7992 21.1109 57.6074 21.9681 58.214L75.01 88.8517L75.0997 88.8995C75.2071 88.9616 75.3287 88.9948 75.4527 88.9958C75.5767 88.9969 75.6989 88.9658 75.8073 88.9055C75.9157 88.8453 76.0067 88.758 76.0713 88.6522C76.1359 88.5463 76.172 88.4255 76.176 88.3016V41.2748L19.2655 8.40088Z" fill="#084C94"/>
<path d="M76.0983 88.475L76.0086 88.4271L22.9667 57.7895C22.1095 57.1828 21.4147 56.3747 20.9434 55.4363C20.4721 54.4979 20.2388 53.458 20.2641 52.4081V8.97488L19.2655 8.37695V52.8088C19.2403 53.8586 19.4735 54.8985 19.9448 55.8369C20.4161 56.7753 21.1109 57.5835 21.9681 58.1901L75.01 88.8277L75.0997 88.8756C75.1909 88.9279 75.2925 88.9595 75.3973 88.9679C75.5021 88.9763 75.6074 88.9614 75.7058 88.9242C75.8041 88.8871 75.893 88.8286 75.966 88.753C76.039 88.6773 76.0944 88.5865 76.1282 88.4869L76.0983 88.475Z" fill="#001A46"/>
<path d="M73.1875 35.9412C73.2069 36.3005 73.3107 36.6501 73.4904 36.9617C73.6701 37.2734 73.9207 37.5383 74.2219 37.735C74.8198 38.0639 75.2563 37.8008 75.2563 37.1371C75.2383 36.7775 75.1352 36.4274 74.9553 36.1155C74.7755 35.8036 74.5241 35.539 74.2219 35.3433C73.6539 35.0204 73.1875 35.2835 73.1875 35.9412Z" fill="#FFCC00"/>
<path d="M70.5195 34.3863C70.5389 34.7455 70.6427 35.0951 70.8224 35.4068C71.0022 35.7184 71.2527 35.9833 71.5539 36.1801C72.1519 36.5089 72.5884 36.2458 72.5884 35.5821C72.5714 35.2223 72.4686 34.8718 72.2887 34.5598C72.1087 34.2478 71.8568 33.9833 71.5539 33.7884C70.9859 33.4715 70.5195 33.7345 70.5195 34.3863Z" fill="#EB4680"/>
<path d="M67.8535 32.8376C67.8724 33.197 67.976 33.5467 68.1558 33.8584C68.3356 34.1702 68.5864 34.435 68.888 34.6314C69.456 34.9603 69.9223 34.6972 69.9223 34.0335C69.9039 33.674 69.8005 33.3241 69.6207 33.0123C69.4409 32.7005 69.1898 32.4357 68.888 32.2397C68.3139 31.9168 67.8535 32.1859 67.8535 32.8376Z" fill="#0FBAB8"/>
<g style="mix-blend-mode:multiply">
<g style="mix-blend-mode:multiply" opacity="0.1">
<path d="M17.5137 11.8267L68.8575 41.8664C71.4226 42.7214 73.5033 46.7036 73.5033 50.1237V83.751C73.5033 87.1771 71.4226 88.7497 68.8575 87.2668L17.5137 58.4648V11.8267Z" fill="#F1F2F2"/>
</g>
<g style="mix-blend-mode:multiply" opacity="0.14">
<path d="M17.7656 12.1675L68.5175 41.8305C71.0467 42.6975 73.0976 46.6139 73.0976 49.9862V83.3683C73.0976 86.7406 71.0467 88.2893 68.5175 86.8303L17.7656 58.3512V12.1675Z" fill="#ECEFF0"/>
</g>
<g style="mix-blend-mode:multiply" opacity="0.19">
<path d="M18.0215 12.5381L68.1814 41.8364C70.6688 42.7094 72.6897 46.566 72.6897 49.8845V83.0215C72.6897 86.34 70.6688 87.8646 68.1814 86.4296L18.0215 58.2674V12.5381Z" fill="#E7EBEE"/>
</g>
<g style="mix-blend-mode:multiply" opacity="0.23">
<path d="M18.2793 12.9087L67.8473 41.8303C70.2928 42.7093 72.2779 46.5001 72.2779 49.7648V82.6506C72.2779 85.9153 70.2928 87.434 67.8473 85.999L18.2793 58.1477V12.9087Z" fill="#E2E8EC"/>
</g>
<g style="mix-blend-mode:multiply" opacity="0.27">
<path d="M18.541 13.2793L67.5111 41.8302C69.9028 42.7151 71.8759 46.4462 71.8759 49.657V82.3157C71.8759 85.5266 69.9207 87.0034 67.5111 85.6103L18.541 58.0698V13.2793Z" fill="#DEE5EA"/>
</g>
<g style="mix-blend-mode:multiply" opacity="0.31">
<path d="M18.793 13.6504L67.1711 41.8306C69.5628 42.7215 71.4582 46.3868 71.4582 49.5438V81.9633C71.4582 85.1203 69.5388 86.5733 67.1711 85.2041L18.793 57.9746V13.6504Z" fill="#D9E1E8"/>
</g>
<g style="mix-blend-mode:multiply" opacity="0.36">
<path d="M19.0508 14.021L66.831 41.8245C69.1629 42.7274 71.0523 46.3328 71.0523 49.4361V81.6104C71.0523 84.7136 69.1629 86.1427 66.831 84.7973L19.0508 57.8907V14.021Z" fill="#D4DEE6"/>
</g>
<g style="mix-blend-mode:multiply" opacity="0.4">
<path d="M19.3066 14.3916L66.4949 41.8244C68.7849 42.7332 70.6385 46.273 70.6385 49.3284V81.2575C70.6385 84.3129 68.7849 85.7121 66.4949 84.3906L19.3066 57.789V14.3916Z" fill="#CFDBE4"/>
</g>
<g style="mix-blend-mode:multiply" opacity="0.44">
<path d="M19.5645 14.7622L66.1607 41.8243C68.4089 42.7331 70.2326 46.219 70.2326 49.2146V80.9046C70.2326 83.8943 68.4089 85.2755 66.1607 83.978L19.5645 57.6693V14.7622Z" fill="#CAD7E2"/>
</g>
<g style="mix-blend-mode:multiply" opacity="0.49">
<path d="M19.8223 15.1333L65.8206 41.8247C68.0329 42.7395 69.8207 46.1596 69.8207 49.1074V80.5881C69.8207 83.5299 68.027 84.8872 65.8206 83.6076L19.8223 57.6338V15.1333Z" fill="#C5D4E0"/>
</g>
<g style="mix-blend-mode:multiply" opacity="0.53">
<path d="M20.0801 15.5039L65.4865 41.8126C67.657 42.7334 69.4149 46.0937 69.4149 48.9877V80.1934C69.4149 83.0814 67.657 84.4147 65.4865 83.183L20.0801 57.5081V15.5039Z" fill="#C0D1DE"/>
</g>
<g style="mix-blend-mode:multiply" opacity="0.57">
<path d="M20.3359 15.8745L65.1803 41.8185C67.3089 42.7512 69.0309 46.0518 69.0309 48.8859V79.8525C69.0309 82.6926 67.3089 83.9961 65.1803 82.7644L20.3359 57.4123V15.8745Z" fill="#BCCDDB"/>
</g>
<g style="mix-blend-mode:multiply" opacity="0.61">
<path d="M20.5938 16.2451L64.8402 41.8184C66.9329 42.7571 68.6251 46.0038 68.6251 48.7782V79.4996C68.6251 82.2859 66.9329 83.5655 64.8402 82.3577L20.5938 57.3166V16.2451Z" fill="#B7CAD9"/>
</g>
<g style="mix-blend-mode:multiply" opacity="0.66">
<path d="M20.8496 16.6099L64.4981 41.8124C66.549 42.7571 68.2053 45.9321 68.2053 48.6586V79.1528C68.2053 81.8853 66.549 83.141 64.4981 81.9571L20.8496 57.2329V16.6099Z" fill="#B2C7D7"/>
</g>
<g style="mix-blend-mode:multiply" opacity="0.7">
<path d="M21.1074 16.9868L64.158 41.8186C66.161 42.7693 67.7934 45.8785 67.7934 48.5572V78.7943C67.7934 81.473 66.161 82.6987 64.158 81.5388L21.1074 57.1255V16.9868Z" fill="#ADC3D5"/>
</g>
<g style="mix-blend-mode:multiply" opacity="0.74">
<path d="M21.3652 17.3574L63.8179 41.8185C65.7851 42.7752 67.4054 45.8246 67.4054 48.4495V78.4474C67.4054 81.0723 65.809 82.2801 63.8179 81.144L21.3652 57.0357V17.3574Z" fill="#A8C0D3"/>
</g>
<g style="mix-blend-mode:multiply" opacity="0.79">
<path d="M21.6211 17.728L63.4758 41.8124C65.4011 42.7811 66.9677 45.7647 66.9677 48.3358V78.0945C66.9677 80.6656 65.4011 81.8495 63.4758 80.7374L21.6211 56.9459V17.728Z" fill="#A3BDD1"/>
</g>
<g style="mix-blend-mode:multiply" opacity="0.83">
<path d="M21.8789 18.0986L63.1357 41.8123C65.0252 42.7869 66.5558 45.7108 66.5558 48.2281V77.7416C66.5558 80.2589 65.0252 81.4189 63.1357 80.3306L21.8789 56.8501V18.0986Z" fill="#9EB9CF"/>
</g>
<g style="mix-blend-mode:multiply" opacity="0.87">
<path d="M22.1289 18.4697L62.7878 41.7888C64.6354 42.7634 66.1362 45.6275 66.1362 48.0909V77.3892C66.1362 79.8587 64.6354 80.9768 62.7878 79.9244L22.1289 56.7549V18.4697Z" fill="#9AB6CD"/>
</g>
<g style="mix-blend-mode:multiply" opacity="0.91">
<path d="M22.3926 18.8345L62.4535 41.8127C64.2473 42.7933 65.7242 45.5976 65.7242 48.0072V77.0425C65.7242 79.4342 64.2593 80.5582 62.4535 79.5179L22.3926 56.6592V18.8345Z" fill="#95B3CB"/>
</g>
<g style="mix-blend-mode:multiply" opacity="0.96">
<path d="M22.6504 19.2051L62.1134 41.8066C63.9072 42.7992 65.3183 45.5377 65.3183 47.8995V76.6896C65.3183 79.0454 63.8833 80.1276 62.1134 79.0813L22.6504 56.5395V19.2051Z" fill="#90AFC9"/>
</g>
<g style="mix-blend-mode:multiply">
<path d="M22.9062 19.5996L61.7714 41.8304C63.4994 42.829 64.8985 45.5077 64.8985 47.8097V76.3606C64.8985 78.6626 63.4994 79.7269 61.7714 78.7523L22.9062 56.5215V19.5996Z" fill="#8BACC7"/>
</g>
</g>
<path d="M65.9457 90.89L12.6348 60.2165V12.813L65.9457 43.4806V90.89Z" fill="#2672AB"/>
<path d="M13.5742 59.6725V14.4395L65.0017 44.0308V89.2578L13.5742 59.6725Z" fill="white"/>
<path d="M13.5742 19.5577V14.4395L65.0017 44.0307V49.143L13.5742 19.5577Z" fill="#A8CFF0"/>
<path d="M13.1455 19.0576L12.8496 19.5771L65.4418 49.5266L65.7377 49.007L13.1455 19.0576Z" fill="#2672AB"/>
<path d="M13.1455 24.0874L12.8496 24.6069L65.4418 54.5563L65.7377 54.0368L13.1455 24.0874Z" fill="#2672AB"/>
<path d="M13.1435 29.1201L12.8477 29.6396L65.4398 59.5891L65.7357 59.0695L13.1435 29.1201Z" fill="#2672AB"/>
<path d="M13.1416 34.1494L12.8457 34.6689L65.4379 64.6184L65.7338 64.0988L13.1416 34.1494Z" fill="#2672AB"/>
<path d="M13.1455 39.1821L12.8496 39.7017L65.4418 69.6511L65.7377 69.1315L13.1455 39.1821Z" fill="#2672AB"/>
<path d="M13.1455 44.2114L12.8496 44.731L65.4418 74.6804L65.7377 74.1608L13.1455 44.2114Z" fill="#2672AB"/>
<path d="M13.1435 49.2412L12.8477 49.7607L65.4398 79.7102L65.7357 79.1906L13.1435 49.2412Z" fill="#2672AB"/>
<path d="M13.1474 54.2734L12.8516 54.793L65.4437 84.7424L65.7396 84.2228L13.1474 54.2734Z" fill="#2672AB"/>
<path d="M13.1474 59.3032L12.8516 59.8228L65.4437 89.7722L65.7396 89.2526L13.1474 59.3032Z" fill="#2672AB"/>
<path d="M23.7991 19.9229H23.2012V65.688H23.7991V19.9229Z" fill="#2672AB"/>
<path d="M34.4885 26.0513H33.8906V71.8164H34.4885V26.0513Z" fill="#2672AB"/>
<path d="M45.18 32.186H44.582V77.9512H45.18V32.186Z" fill="#2672AB"/>
<path d="M55.8714 38.3149H55.2734V84.0801H55.8714V38.3149Z" fill="#2672AB"/>
<path d="M13.6582 24.4488V19.9883L31.3209 29.9736V34.4341L13.6582 24.4488Z" fill="#FFCC00"/>
<path d="M23.7383 35.2414V30.7749L50.5851 46.1057V50.5722L23.7383 35.2414Z" fill="#FFCC00"/>
<path d="M44.7969 72.3067V67.8462L62.4596 77.8315V82.2921L44.7969 72.3067Z" fill="#FFCC00"/>
<path d="M13.5391 39.487V35.0205L31.2077 45.0058V49.4664L13.5391 39.487Z" fill="#FFCC00"/>
<path d="M13.5391 49.508V45.0415L23.2613 50.4766V54.9431L13.5391 49.508Z" fill="#FFCC00"/>
<path d="M41.4199 50.4468V45.9863L59.0826 55.9717V60.4322L41.4199 50.4468Z" fill="#FFCC00"/>
<path style="mix-blend-mode:multiply" d="M61.6797 90.6103C70.8053 85.2756 70.713 68.1384 61.4735 52.3333C52.234 36.5281 37.3462 28.0401 28.2206 33.3748C19.095 38.7095 19.1873 55.8468 28.4268 71.6519C37.6663 87.4571 52.5541 95.945 61.6797 90.6103Z" fill="url(#paint0_radial)"/>
<path d="M39.0685 40.832C33.8905 37.8424 29.1788 37.3939 25.6391 39.0681L22.793 40.6825C26.3207 39.0442 31.0085 39.4867 36.1566 42.4763C47.1405 48.8203 56.0436 64.175 56.0436 76.7793C56.0436 82.896 53.9449 87.2369 50.5307 89.3656L52.4381 88.2474C56.4382 86.3879 58.9495 81.8138 58.9495 75.0931C58.9495 62.5307 50.0464 47.17 39.0685 40.832Z" fill="#03336E"/>
<path d="M36.1585 42.4885C25.1746 36.1505 16.2715 41.2268 16.2715 53.849C16.2715 66.4712 25.1746 81.808 36.1585 88.152C47.1423 94.496 56.0454 89.4136 56.0454 76.7914C56.0454 64.1692 47.1423 48.8324 36.1585 42.4885Z" fill="url(#paint1_linear)"/>
<path d="M36.4803 42.3209C30.9136 39.104 25.879 38.829 22.2676 40.9755C25.8551 39.0144 30.7701 39.3611 36.1873 42.4883C47.1712 48.8323 56.0743 64.187 56.0743 76.7912C56.0743 83.0037 53.9098 87.3805 50.4 89.4732C54.0832 87.4582 56.3792 83.0037 56.3792 76.6238C56.3374 64.0196 47.4342 48.6649 36.4803 42.3209Z" fill="#2672AB"/>
<path d="M9.80196 68.1215C9.73957 68.122 9.67868 68.1025 9.62813 68.0659C9.57759 68.0294 9.54003 67.9776 9.52093 67.9182C9.38939 67.5355 9.26382 67.1588 9.14424 66.7762C9.13246 66.7369 9.12852 66.6957 9.13267 66.6549C9.13681 66.6142 9.14894 66.5746 9.16838 66.5385C9.18781 66.5024 9.21416 66.4705 9.24593 66.4446C9.27769 66.4187 9.31425 66.3993 9.35351 66.3875C9.39277 66.3757 9.43397 66.3718 9.47475 66.376C9.51553 66.3801 9.55509 66.3922 9.59118 66.4117C9.62727 66.4311 9.65918 66.4575 9.68508 66.4892C9.71099 66.521 9.73038 66.5575 9.74216 66.5968C9.86175 66.9735 9.98731 67.3502 10.1129 67.7269C10.1377 67.8014 10.1321 67.8827 10.0974 67.9532C10.0627 68.0237 10.0017 68.0777 9.92752 68.1036C9.88769 68.1195 9.84464 68.1256 9.80196 68.1215ZM8.91702 65.2634C8.85209 65.2644 8.78867 65.2438 8.73672 65.2049C8.68477 65.1659 8.64725 65.1108 8.63003 65.0482C8.5224 64.6595 8.41477 64.2709 8.3191 63.8822C8.30074 63.8054 8.31292 63.7244 8.35307 63.6564C8.39322 63.5884 8.45822 63.5386 8.53436 63.5175C8.61201 63.4994 8.69367 63.5124 8.76185 63.5537C8.83002 63.5951 8.87928 63.6615 8.89908 63.7387C8.99475 64.1373 9.09641 64.52 9.20403 64.8867C9.2242 64.9628 9.21354 65.0438 9.17436 65.1121C9.13518 65.1804 9.07064 65.2305 8.99476 65.2515C8.97005 65.2612 8.9435 65.2652 8.91702 65.2634ZM8.20549 62.3635C8.13657 62.3635 8.06977 62.3397 8.01638 62.2961C7.96299 62.2525 7.9263 62.1918 7.91251 62.1243C7.8288 61.7257 7.75106 61.3271 7.67931 60.9285C7.66534 60.8508 7.68265 60.7708 7.72745 60.7058C7.77225 60.6408 7.84093 60.5962 7.9185 60.5817C7.99597 60.5693 8.07525 60.5872 8.13984 60.6318C8.20443 60.6763 8.24935 60.744 8.26529 60.8208C8.33704 61.2195 8.41478 61.6181 8.49849 62.0167C8.51293 62.095 8.4968 62.1758 8.45341 62.2426C8.41003 62.3093 8.34269 62.3569 8.26529 62.3755L8.20549 62.3635ZM7.6853 59.4157C7.61309 59.4152 7.54341 59.3891 7.48867 59.342C7.43392 59.2949 7.39766 59.2299 7.38634 59.1586C7.33252 58.764 7.28469 58.3634 7.23685 57.9628C7.23273 57.9235 7.23643 57.8838 7.24775 57.8459C7.25907 57.808 7.27778 57.7728 7.3028 57.7422C7.32782 57.7116 7.35866 57.6863 7.39353 57.6677C7.42839 57.6491 7.46659 57.6376 7.50593 57.6339C7.58406 57.627 7.66183 57.6506 7.72307 57.6996C7.78431 57.7486 7.82431 57.8193 7.83478 57.897C7.87663 58.2916 7.92446 58.6803 7.97828 59.0928C7.98422 59.1317 7.98243 59.1714 7.97302 59.2096C7.96361 59.2477 7.94677 59.2837 7.92344 59.3154C7.90011 59.347 7.87076 59.3738 7.83708 59.3941C7.8034 59.4144 7.76605 59.4278 7.72716 59.4337L7.6853 59.4157ZM7.38035 56.4261C7.30407 56.4262 7.23063 56.3972 7.17505 56.345C7.11947 56.2927 7.08596 56.2212 7.08139 56.1451C7.08139 55.7445 7.03357 55.3439 7.02161 54.9492C7.02001 54.91 7.02615 54.8707 7.03971 54.8339C7.05327 54.797 7.07398 54.7631 7.10064 54.7343C7.1273 54.7054 7.15938 54.682 7.19507 54.6656C7.23075 54.6491 7.26933 54.6398 7.3086 54.6383C7.34787 54.6367 7.38707 54.6429 7.42396 54.6564C7.46085 54.67 7.49469 54.6907 7.52357 54.7173C7.55245 54.744 7.57579 54.7761 7.59226 54.8118C7.60872 54.8475 7.618 54.886 7.61954 54.9253C7.61954 55.3199 7.61952 55.7146 7.67931 56.1211C7.68265 56.2001 7.65522 56.2772 7.6028 56.3364C7.55038 56.3955 7.47706 56.4319 7.39829 56.438L7.38035 56.4261ZM7.3086 53.4365C7.22982 53.4334 7.1553 53.3999 7.10068 53.343C7.04605 53.2862 7.01556 53.2104 7.01563 53.1315C7.01563 52.7249 7.01562 52.3243 7.06345 51.9357C7.06493 51.8961 7.07442 51.8573 7.09133 51.8215C7.10824 51.7857 7.13222 51.7537 7.16184 51.7274C7.19146 51.7012 7.2261 51.6812 7.26366 51.6687C7.30122 51.6562 7.3409 51.6514 7.38035 51.6547C7.45912 51.6608 7.53244 51.6972 7.58487 51.7564C7.63729 51.8155 7.66471 51.8926 7.66138 51.9716C7.66138 52.3602 7.62551 52.7548 7.61355 53.1674C7.61043 53.2457 7.57675 53.3196 7.51972 53.3732C7.4627 53.4269 7.38689 53.456 7.3086 53.4544V53.4365ZM7.51189 50.4468H7.47602C7.39765 50.4378 7.32602 50.3982 7.27674 50.3366C7.22746 50.275 7.20453 50.1964 7.21293 50.118C7.26077 49.7114 7.31459 49.3108 7.37438 48.9221C7.38763 48.8443 7.43054 48.7746 7.4941 48.7278C7.55767 48.681 7.63694 48.6606 7.71521 48.671C7.75409 48.6769 7.79145 48.6903 7.82513 48.7106C7.85881 48.7309 7.88814 48.7576 7.91147 48.7893C7.9348 48.821 7.95166 48.8569 7.96107 48.8951C7.97048 48.9333 7.97227 48.973 7.96632 49.0118C7.90653 49.4005 7.85272 49.7891 7.80489 50.2077C7.79746 50.2801 7.76334 50.3471 7.70918 50.3958C7.65502 50.4444 7.58469 50.4712 7.51189 50.4708V50.4468ZM8.00818 47.5051H7.9424C7.90408 47.4973 7.86771 47.4819 7.83542 47.4598C7.80313 47.4378 7.77559 47.4095 7.75442 47.3766C7.73324 47.3437 7.71886 47.3069 7.71212 47.2684C7.70539 47.2299 7.70644 47.1904 7.71521 47.1523C7.80489 46.7517 7.90055 46.363 8.0022 45.9564C8.0245 45.8801 8.07575 45.8155 8.145 45.7764C8.21425 45.7373 8.29603 45.7268 8.37291 45.7472C8.44879 45.7682 8.51333 45.8182 8.55252 45.8865C8.5917 45.9548 8.60236 46.0358 8.58219 46.1119C8.48253 46.5105 8.38686 46.8932 8.29517 47.2599C8.28799 47.3319 8.25494 47.3988 8.20217 47.4483C8.14939 47.4978 8.08048 47.5264 8.00818 47.529V47.5051ZM8.82135 44.629C8.77332 44.6286 8.72606 44.6169 8.68342 44.5948C8.64078 44.5726 8.60398 44.5408 8.576 44.5017C8.54802 44.4627 8.52968 44.4175 8.52244 44.3701C8.51521 44.3226 8.51929 44.274 8.53436 44.2284C8.67388 43.8298 8.81738 43.4531 8.96487 43.0983C8.9755 43.0572 8.99478 43.0188 9.02145 42.9856C9.04812 42.9525 9.08156 42.9255 9.11951 42.9063C9.15747 42.8871 9.19906 42.8763 9.24155 42.8744C9.28403 42.8726 9.32642 42.8799 9.36587 42.8957C9.40532 42.9116 9.44094 42.9357 9.47033 42.9664C9.49973 42.9972 9.52224 43.0338 9.53635 43.0739C9.55046 43.114 9.55584 43.1567 9.55215 43.1991C9.54846 43.2414 9.53578 43.2825 9.51495 43.3196C9.37144 43.6843 9.23392 44.049 9.10238 44.4257C9.08675 44.4891 9.05082 44.5456 9.00008 44.5866C8.94934 44.6277 8.88657 44.6509 8.82135 44.653V44.629ZM9.97536 41.8726C9.9299 41.872 9.88507 41.8618 9.84382 41.8427C9.77346 41.8068 9.71981 41.7449 9.69415 41.6702C9.6685 41.5954 9.67285 41.5137 9.70629 41.4421C9.88566 41.0774 10.077 40.7186 10.2743 40.3658C10.314 40.2969 10.3794 40.2465 10.4562 40.2257C10.533 40.205 10.6149 40.2156 10.6839 40.2552C10.7529 40.2949 10.8033 40.3603 10.824 40.4371C10.8448 40.5139 10.8342 40.5958 10.7945 40.6648C10.6032 41.0056 10.4178 41.3524 10.2444 41.7052C10.2233 41.76 10.1865 41.8073 10.1387 41.8414C10.0908 41.8754 10.034 41.8946 9.97536 41.8965V41.8726Z" fill="#A8CFF0"/>
<path d="M50.3056 89.5183C58.0228 85.0068 57.944 70.513 50.1294 57.1453C42.3149 43.7777 29.7238 36.5983 22.0066 41.1097C14.2893 45.6211 14.3682 60.115 22.1827 73.4826C29.9973 86.8503 42.5883 94.0297 50.3056 89.5183Z" fill="#084C94"/>
<path d="M49.5392 88.2072C56.8374 83.9408 56.762 70.2326 49.3707 57.5891C41.9795 44.9455 30.0713 38.1545 22.7732 42.4209C15.475 46.6874 15.5504 60.3956 22.9416 73.0392C30.3329 85.6827 42.241 92.4737 49.5392 88.2072Z" fill="#F0F8FF"/>
<path d="M47.612 84.9089C53.8582 81.2574 53.7933 69.5245 47.467 58.7026C41.1406 47.8808 30.9486 42.068 24.7024 45.7195C18.4562 49.371 18.5211 61.1039 24.8474 71.9258C31.1737 82.7476 41.3658 88.5603 47.612 84.9089Z" fill="#72B5E8"/>
<path d="M45.4389 81.1918C50.502 78.232 50.4507 68.7238 45.3243 59.9545C40.1979 51.1853 31.9377 46.4758 26.8746 49.4357C21.8115 52.3955 21.8628 61.9038 26.9892 70.673C32.1155 79.4422 40.3758 84.1517 45.4389 81.1918Z" fill="#F0F8FF"/>
<path d="M43.3898 77.6871C47.3354 75.3806 47.2955 67.9711 43.3007 61.1376C39.3059 54.3041 32.869 50.6343 28.9234 52.9408C24.9778 55.2474 25.0177 62.6568 29.0125 69.4903C33.0072 76.3238 39.4442 79.9937 43.3898 77.6871Z" fill="#72B5E8"/>
<path d="M41.4606 74.3887C44.3542 72.6972 44.3248 67.263 41.395 62.2512C38.4651 57.2394 33.7443 54.5478 30.8507 56.2394C27.9571 57.9309 27.9864 63.3651 30.9163 68.3769C33.8461 73.3887 38.567 76.0803 41.4606 74.3887Z" fill="#F0F8FF"/>
<path d="M36.4807 86.7108C26.0887 80.7315 17.6699 66.19 17.6699 54.2674C17.6699 48.5752 19.5893 44.5093 22.7224 42.4644C19.4159 44.4435 17.377 48.5871 17.377 54.4229C17.377 66.3455 25.8017 80.8691 36.1877 86.8663C41.6168 90.0054 46.5079 90.1847 49.9399 87.9485C46.4959 90.0173 41.7245 89.7602 36.4807 86.7108Z" fill="#A8CFF0"/>
<path d="M36.4803 80.098C29.2694 75.9125 23.4276 65.8614 23.4276 57.5921C23.4276 53.6338 24.773 50.8056 26.9614 49.3945C24.5996 50.7399 23.1406 53.6398 23.1406 57.7655C23.1406 66.0348 28.9824 76.1098 36.1873 80.2714C39.9423 82.4359 43.3206 82.5674 45.7003 81.0307C43.3086 82.382 40.0679 82.1787 36.4803 80.098Z" fill="#A8CFF0"/>
<path d="M36.4796 73.6819C32.3599 71.2902 29.0235 65.5502 29.0235 60.8206C29.0235 58.6202 29.7469 57.0297 30.9368 56.2046C29.5735 56.964 28.7305 58.5963 28.7305 60.988C28.7305 65.7116 32.0669 71.4696 36.1866 73.8434C38.387 75.1169 40.3721 75.1648 41.7234 74.2141C40.3482 74.9854 38.4946 74.8658 36.4796 73.6819Z" fill="#A8CFF0"/>
<path d="M39.108 70.3625C40.7187 69.4209 40.7032 66.3973 39.0732 63.6092C37.4433 60.8211 34.8163 59.3241 33.2056 60.2658C31.5948 61.2074 31.6104 64.2309 33.2403 67.0191C34.8702 69.8072 37.4973 71.3041 39.108 70.3625Z" fill="#EB4680"/>
<path opacity="0.5" d="M36.599 65.4007C36.599 65.61 36.4555 65.6937 36.2702 65.5921C36.1759 65.529 36.0976 65.4448 36.0416 65.3462C35.9855 65.2476 35.9532 65.1373 35.9473 65.024C35.9473 64.8207 36.0908 64.737 36.2702 64.8387C36.3654 64.8998 36.4449 64.9826 36.502 65.0803C36.5592 65.1779 36.5924 65.2878 36.599 65.4007Z" fill="#231F20"/>
<path d="M36.1578 60.5456C35.7679 60.2743 35.3207 60.0965 34.851 60.026C34.3813 59.9554 33.9016 59.9941 33.4492 60.139C34.2949 59.9837 35.1677 60.1638 35.8828 60.6413C37.0908 61.4258 38.0963 62.4847 38.8174 63.7315C39.5386 64.9784 39.9548 66.3781 40.0324 67.8164C40.0324 69.2514 39.4703 70.2081 38.5914 70.5848C39.6318 70.3217 40.3074 69.3052 40.3074 67.7207C40.229 66.2826 39.8123 64.8833 39.0912 63.6366C38.3702 62.3899 37.3652 61.3308 36.1578 60.5456Z" fill="#D62D69"/>
<path d="M2.56715 84.9826L0.773378 84.7435C0.568079 84.7142 0.379132 84.6151 0.238278 84.4629C0.0974242 84.3107 0.0132435 84.1146 -8.54426e-05 83.9077C-0.0134144 83.7007 0.0449051 83.4955 0.16507 83.3265C0.285235 83.1575 0.459926 83.035 0.65977 82.9796L10.6451 80.2471L2.56715 84.9826Z" fill="#0BA19F"/>
<path d="M2.63781 84.8096L0.844032 84.5704C0.715078 84.5533 0.59136 84.5084 0.481351 84.439C0.371342 84.3695 0.277637 84.2771 0.206657 84.1681C0.135677 84.0591 0.0891048 83.936 0.0701131 83.8073C0.0511215 83.6786 0.0601626 83.5473 0.0966263 83.4224C0.0209424 83.5528 -0.0208823 83.7001 -0.0250461 83.8508C-0.02921 84.0015 0.00442642 84.1508 0.0727955 84.2851C0.141165 84.4195 0.242084 84.5346 0.366357 84.62C0.490629 84.7053 0.634287 84.7582 0.784236 84.7737L2.57801 85.0129L10.6679 80.2773L10.2374 80.3969L2.63781 84.8096Z" fill="#3ECFCD"/>
<path opacity="0.7" d="M0.824928 84.6182L2.6187 84.8573L10.3499 80.3311L10.2363 80.3669L2.64861 84.8095L0.854835 84.5703C0.725881 84.5531 0.602162 84.5083 0.492153 84.4388C0.382144 84.3694 0.288439 84.277 0.21746 84.168C0.14648 84.059 0.0998892 83.9359 0.0808975 83.8072C0.0619059 83.6785 0.0709652 83.5472 0.107429 83.4223C0.107429 83.4223 0.107418 83.4642 0.0775218 83.4821C0.0420276 83.6062 0.0337594 83.7366 0.0532713 83.8642C0.0727831 83.9919 0.119619 84.1138 0.190582 84.2216C0.261544 84.3295 0.354955 84.4208 0.464436 84.4892C0.573916 84.5576 0.69688 84.6016 0.824928 84.6182Z" fill="white"/>
<path d="M36.4216 65.2814C36.4225 65.2971 36.4197 65.3129 36.4135 65.3275C36.4073 65.342 36.3978 65.3549 36.3857 65.3651C35.4064 66.5121 34.2223 67.4671 32.8938 68.1813C29.3481 70.2322 28.7801 70.3697 28.7801 70.3697C28.7801 70.3697 28.7801 70.3039 28.6067 70.2202C28.4557 70.122 28.3299 69.9897 28.2396 69.8339C28.1492 69.6781 28.0968 69.5032 28.0865 69.3233C28.0865 69.1619 27.937 69.1619 28.0267 69.1081C28.1164 69.0543 28.4393 68.7075 31.985 66.6566C33.2624 65.8536 34.684 65.3073 36.1704 65.0482C36.1838 65.0397 36.1994 65.0352 36.2153 65.0352C36.2312 65.0352 36.2467 65.0397 36.2601 65.0482C36.3053 65.0692 36.3441 65.1019 36.3724 65.1429C36.4008 65.1839 36.4178 65.2317 36.4216 65.2814Z" fill="#FFCC00"/>
<path d="M28.9114 70.0468C28.9114 70.3756 28.6782 70.5072 28.3971 70.3397C28.2462 70.2415 28.1204 70.1092 28.03 69.9534C27.9397 69.7976 27.8872 69.6227 27.877 69.4429C27.877 69.114 28.1101 68.9825 28.3971 69.1499C28.5464 69.2494 28.6705 69.3822 28.7597 69.5379C28.8489 69.6935 28.9009 69.8677 28.9114 70.0468Z" fill="#FFDE17"/>
<path d="M28.8095 70.0584C28.8147 70.1176 28.8047 70.1771 28.7807 70.2315C28.7567 70.2858 28.7193 70.3332 28.672 70.3693L2.01652 86.023C1.92683 86.0768 1.98662 85.9632 1.8491 85.8854C1.70637 85.7905 1.5874 85.664 1.50135 85.5158C1.41529 85.3675 1.36447 85.2014 1.35283 85.0304C1.35283 84.875 1.20933 84.869 1.29902 84.8211L27.9665 69.1615C28.0231 69.1383 28.0846 69.13 28.1453 69.1373C28.206 69.1447 28.2638 69.1674 28.3133 69.2033C28.458 69.2962 28.5785 69.4222 28.6648 69.5709C28.7511 69.7196 28.8007 69.8867 28.8095 70.0584Z" fill="#2672AB"/>
<path d="M2.0051 86.0355C2.1961 85.9238 2.19289 85.5629 1.9979 85.2294C1.80291 84.8958 1.48999 84.7159 1.29898 84.8276C1.10797 84.9393 1.1112 85.3002 1.30619 85.6337C1.50118 85.9673 1.81409 86.1471 2.0051 86.0355Z" fill="#3F92D1"/>
<path d="M2.26698 84.3311L10.5303 79.5477L4.08468 79.0155C3.54551 78.9705 3.0049 79.0834 2.52883 79.3405C2.05276 79.5976 1.66182 79.9877 1.40376 80.4632C1.1457 80.9387 1.03168 81.4791 1.07561 82.0184C1.11953 82.5577 1.31951 83.0725 1.65112 83.5L2.26698 84.3311Z" fill="#3ECFCD"/>
<path d="M2.39831 84.3012L10.6616 79.5178L4.19208 79.0155C3.65292 78.9705 3.1123 79.0834 2.63624 79.3405C2.16017 79.5976 1.76924 79.9877 1.51118 80.4632C1.25313 80.9387 1.1391 81.4791 1.18303 82.0184C1.22695 82.5577 1.42691 83.0725 1.75853 83.5L2.39831 84.3012Z" fill="#0BA19F"/>
<path opacity="0.7" d="M1.90204 83.5777C1.57043 83.1502 1.37045 82.6354 1.32652 82.0961C1.2826 81.5569 1.39662 81.0165 1.65468 80.5409C1.91274 80.0654 2.30366 79.6753 2.77973 79.4182C3.2558 79.1611 3.79641 79.0482 4.33558 79.0933L10.5959 79.6015L10.6616 79.5656L4.19208 79.0155C3.65292 78.9705 3.1123 79.0834 2.63624 79.3405C2.16017 79.5976 1.76924 79.9877 1.51118 80.4632C1.25313 80.9387 1.1391 81.4791 1.18303 82.0184C1.22695 82.5577 1.42691 83.0725 1.75853 83.5L2.35645 84.3012H2.41625L1.90204 83.5777Z" fill="white"/>
<path d="M2.79297 85.3L2.99626 86.0295C3.12049 86.4622 3.3673 86.8497 3.70692 87.1452C4.04653 87.4407 4.46442 87.6316 4.91014 87.6948C5.35586 87.758 5.81034 87.6909 6.21874 87.5015C6.62713 87.3121 6.97197 87.0085 7.21162 86.6274L11.0563 80.5884L2.79297 85.3Z" fill="#3ECFCD"/>
<path d="M2.91797 85.192L3.12126 85.9215C3.24174 86.3562 3.48571 86.7466 3.8236 87.0454C4.16148 87.3443 4.57878 87.5387 5.02494 87.6051C5.4711 87.6716 5.92695 87.6072 6.33726 87.4198C6.74757 87.2324 7.09472 86.93 7.33664 86.5493L11.1813 80.5103L2.91797 85.192Z" fill="#0BA19F"/>
<path opacity="0.7" d="M7.40839 86.4296C7.16873 86.8107 6.8239 87.1142 6.4155 87.3036C6.00711 87.493 5.5526 87.5602 5.10689 87.497C4.66117 87.4337 4.24328 87.2429 3.90367 86.9474C3.56405 86.6519 3.31723 86.2644 3.19301 85.8317L3.00765 85.174L2.91797 85.2218L3.12126 85.9512C3.24174 86.3859 3.48571 86.7763 3.8236 87.0752C4.16148 87.374 4.57878 87.5684 5.02494 87.6349C5.4711 87.7013 5.92695 87.637 6.33726 87.4496C6.74757 87.2622 7.09472 86.9598 7.33664 86.5791L11.1813 80.54L7.40839 86.4296Z" fill="white"/>
<path d="M9.13185 76.1876C9.0666 76.187 9.00336 76.165 8.95178 76.125C8.90021 76.085 8.86313 76.0293 8.84619 75.9663C8.82925 75.9033 8.83339 75.8364 8.85798 75.776C8.88256 75.7156 8.92625 75.6648 8.98237 75.6315L10.0168 75.0336C10.0842 75.0031 10.1606 74.9988 10.2311 75.0213C10.3015 75.0439 10.3612 75.0918 10.3984 75.1558C10.4356 75.2198 10.4477 75.2953 10.4324 75.3677C10.4172 75.4401 10.3756 75.5043 10.3157 75.5478L9.28133 76.1458C9.2367 76.1741 9.18471 76.1887 9.13185 76.1876ZM11.7149 74.6808C11.6496 74.6802 11.5864 74.6582 11.5348 74.6182C11.4832 74.5782 11.4461 74.5225 11.4292 74.4595C11.4123 74.3965 11.4164 74.3297 11.441 74.2692C11.4656 74.2088 11.5093 74.1581 11.5654 74.1248L12.5998 73.5268C12.6672 73.4964 12.7436 73.492 12.8141 73.5145C12.8846 73.5371 12.9442 73.585 12.9814 73.649C13.0186 73.713 13.0307 73.7885 13.0155 73.8609C13.0002 73.9333 12.9586 73.9975 12.8988 74.041L11.8644 74.639C11.8197 74.6673 11.7677 74.6819 11.7149 74.6808ZM14.2979 73.1741C14.2327 73.1734 14.1694 73.1514 14.1179 73.1114C14.0663 73.0715 14.0292 73.0157 14.0122 72.9527C13.9953 72.8897 13.9994 72.8229 14.024 72.7625C14.0486 72.702 14.0923 72.6513 14.1484 72.618L15.1769 72.0201C15.2461 71.9806 15.328 71.9697 15.4051 71.9898C15.4822 72.0099 15.5484 72.0594 15.5894 72.1277C15.6097 72.1613 15.6229 72.1986 15.6285 72.2375C15.634 72.2763 15.6317 72.3158 15.6216 72.3538C15.6116 72.3917 15.5941 72.4272 15.57 72.4582C15.546 72.4892 15.516 72.5151 15.4818 72.5343L14.4474 73.1322C14.4025 73.1599 14.3507 73.1744 14.2979 73.1741ZM16.8809 71.6673C16.8157 71.6666 16.7525 71.6446 16.7009 71.6047C16.6493 71.5647 16.6122 71.509 16.5953 71.446C16.5783 71.383 16.5825 71.3161 16.6071 71.2557C16.6317 71.1952 16.6754 71.1445 16.7315 71.1112L17.7599 70.5133C17.8291 70.4738 17.911 70.4629 17.9881 70.483C18.0652 70.5031 18.1314 70.5526 18.1725 70.6209C18.1927 70.6545 18.206 70.6919 18.2115 70.7307C18.217 70.7695 18.2147 70.8091 18.2047 70.847C18.1946 70.8849 18.1771 70.9204 18.1531 70.9514C18.1291 70.9824 18.0991 71.0083 18.0648 71.0275L17.0304 71.6254C16.9855 71.6532 16.9337 71.6676 16.8809 71.6673Z" fill="#0FBAB8"/>
</g>
<defs>
<radialGradient id="paint0_radial" cx="0" cy="0" r="1" gradientUnits="userSpaceOnUse" gradientTransform="translate(23.1052 70.6998) rotate(-150.197) scale(20.6515 17.7411)">
<stop offset="0.06" stop-color="#7F9BB0"/>
<stop offset="1" stop-color="white"/>
</radialGradient>
<linearGradient id="paint1_linear" x1="17.6872" y1="48.5906" x2="57.6434" y2="48.5906" gradientUnits="userSpaceOnUse">
<stop stop-color="#311B61"/>
<stop offset="0.2" stop-color="#290F52"/>
<stop offset="0.49" stop-color="#200041"/>
<stop offset="1" stop-color="#0F001F"/>
</linearGradient>
<clipPath id="clip0">
<rect width="86.4719" height="92.2" fill="white"/>
</clipPath>
</defs>
</svg>
