<svg width="96" height="90" viewBox="0 0 96 90" fill="none" xmlns="http://www.w3.org/2000/svg">
<path opacity="0.2" d="M65.2737 89.9998L10.4512 57.9088L41.1776 40.7388L96.0001 72.8298L65.2737 89.9998Z" fill="#92B4D1"/>
<path d="M22.1609 0.491699L10.5801 57.711L65.4026 89.9999L76.9834 32.3668L22.1609 0.491699Z" fill="#2672AB"/>
<path opacity="0.2" d="M65.4691 84.6745L75.2815 33.1465L23.227 2.89062L13.3496 54.3766L65.4691 84.6745Z" fill="#03336E"/>
<path d="M65.0551 84.0387L75.2814 33.1465L23.227 2.89062L12.9355 53.7409L65.0551 84.0387Z" fill="#F0F8FF"/>
<path opacity="0.2" d="M64.2152 84.5905L75.2815 33.1465L23.227 2.89062L12.0957 54.2926L64.2152 84.5905Z" fill="#03336E"/>
<path d="M63.9789 83.7989L75.2817 33.1465L23.2273 2.89062L11.8594 53.495L63.9789 83.7989Z" fill="white"/>
<path d="M66.4562 57.2374L64.9361 64.0083L45.2168 52.5296L46.7132 45.9507L66.4562 57.2374Z" fill="#EB4680"/>
<path d="M54.727 42.4481L53.201 49.2129L40.2539 41.6805L41.7562 34.9756L54.727 42.4481Z" fill="#0FBAB8"/>
<path d="M21.9434 22.8673L41.7928 34.4059L43.2064 27.2632L23.4752 15.7666L21.9434 22.8673Z" fill="#D1EBFF"/>
<path d="M48.5352 71.1987L61.8371 78.8392L63.3453 71.5945L50.1676 63.9961L48.5352 71.1987Z" fill="#D1EBFF"/>
<path d="M62.0557 79.3549L15.0996 52.0617L15.1469 51.8458L23.3268 15.3408L70.2238 42.6041L62.0557 79.3549ZM15.7739 51.7678L61.6535 78.4374L69.5495 42.9099L23.7231 16.2644L15.7739 51.7678Z" fill="#A8CFF0"/>
<path d="M69.5812 42.3797L61.5645 78.835L62.1417 78.9655L70.1585 42.5102L69.5812 42.3797Z" fill="#A8CFF0"/>
<path d="M55.4316 75.085L56.0882 69.7715L63.0319 38.5381L62.3754 43.8576L55.4316 75.085Z" fill="#A8CFF0"/>
<path d="M48.7129 71.2109L50.6056 60.7098L56.4906 34.7119L54.5979 45.207L48.7129 71.2109Z" fill="#A8CFF0"/>
<path d="M42 67.3364L45.1288 51.6537L49.9492 30.8794L46.8263 46.5621L42 67.3364Z" fill="#A8CFF0"/>
<path d="M35.2871 63.4624L39.6521 42.5981L43.4138 27.0474L39.0488 47.9176L35.2871 63.4624Z" fill="#A8CFF0"/>
<path d="M28.5742 59.5884L34.1694 33.5365L36.8724 23.2153L31.2772 49.2672L28.5742 59.5884Z" fill="#A8CFF0"/>
<path d="M21.8594 55.7199L28.6907 24.4804L30.3291 19.3828L23.4977 50.6222L21.8594 55.7199Z" fill="#A8CFF0"/>
<path d="M23.213 15.4218L15.1562 51.8496L15.7334 51.9808L23.7902 15.5531L23.213 15.4218Z" fill="#A8CFF0"/>
<path d="M15.5833 51.656L15.2891 52.1763L61.7088 79.1651L62.003 78.6448L15.5833 51.656Z" fill="#A8CFF0"/>
<path d="M53.983 66.5029L16.9043 44.811L26.415 49.7887L63.4937 71.4806L53.983 66.5029Z" fill="#A8CFF0"/>
<path d="M46.259 53.8548L18.5254 37.4585L37.2451 47.9236L64.9787 64.326L46.259 53.8548Z" fill="#A8CFF0"/>
<path d="M38.5331 41.2069L20.1445 30.1001L48.0792 46.0646L66.4677 57.1715L38.5331 41.2069Z" fill="#A8CFF0"/>
<path d="M30.815 28.5588L21.7656 22.7476L58.9153 44.2055L67.9587 50.0168L30.815 28.5588Z" fill="#A8CFF0"/>
<path d="M23.388 15.3914L23.0938 15.9116L69.4519 42.8646L69.7461 42.3444L23.388 15.3914Z" fill="#A8CFF0"/>
<path d="M76.9851 32.3667L65.4043 89.9998L77.0028 79.8285L88.5718 76.4401L76.9851 32.3667Z" fill="#084C94"/>
<path d="M88.4 76.4881L88.5716 76.4401L76.9848 32.3667L70.2422 65.933L88.4 76.4881Z" fill="#03336E"/>
<path d="M77.1862 79.7745L68.4799 74.7129L65.4043 89.9998L77.0029 79.8285L77.1862 79.7745Z" fill="#03336E"/>
<path d="M76.991 32.3667L65.4102 89.9998L77.0028 79.8046L88.5718 76.4401L76.991 32.3667ZM76.849 79.5467L65.9011 89.1422L77.0324 33.7521L88.1932 76.2122L76.849 79.5467Z" fill="#3F92D1"/>
<path d="M72.3889 34.1538L69.4316 32.4326L69.0176 34.4537L71.9808 36.1749L72.3889 34.1538Z" fill="#2672AB"/>
<path d="M64.9963 29.854L62.039 28.1328L61.625 30.1539L64.5882 31.8751L64.9963 29.854Z" fill="#2672AB"/>
<path d="M57.6017 25.5542L54.6444 23.833L54.2363 25.8541L57.1936 27.5753L57.6017 25.5542Z" fill="#2672AB"/>
<path d="M50.2092 21.2539L47.2519 19.5327L46.8438 21.5538L49.8011 23.275L50.2092 21.2539Z" fill="#2672AB"/>
<path d="M42.8166 16.9541L39.8593 15.2329L39.4512 17.254L42.4085 18.9752L42.8166 16.9541Z" fill="#2672AB"/>
<path d="M35.428 12.6543L32.4647 10.9331L32.0566 12.9542L35.0139 14.6754L35.428 12.6543Z" fill="#2672AB"/>
<path d="M28.0354 8.35401L25.0722 6.63281L24.6641 8.65387L27.6214 10.3751L28.0354 8.35401Z" fill="#2672AB"/>
<path d="M76.2519 26.1057C75.7918 25.8763 75.2793 25.777 74.7682 25.8182C74.2571 25.8593 73.7664 26.0395 73.3478 26.3396C72.3149 27.0065 71.454 27.9138 70.8367 28.9862C70.2194 30.0585 69.8637 31.2648 69.7991 32.5048C69.7719 32.939 69.8359 33.3741 69.9868 33.7814C70.1376 34.1887 70.372 34.559 70.6744 34.8676C71.0544 35.2298 71.5494 35.4425 72.0703 35.4674L72.3305 34.196C72.186 34.2163 72.0388 34.2049 71.899 34.1625C71.7591 34.12 71.63 34.0476 71.5202 33.9501C71.3522 33.7573 71.2246 33.5319 71.1453 33.2875C71.066 33.0432 71.0366 32.785 71.0589 32.5287C71.1211 31.5122 71.4146 30.5241 71.9163 29.6417C72.4181 28.7594 73.1146 28.0069 73.9511 27.4431C74.1588 27.2263 74.4315 27.0854 74.7265 27.0425C75.0215 26.9995 75.3223 27.0568 75.5818 27.2055C75.8413 27.3542 76.0449 27.5858 76.1608 27.8643C76.2767 28.1427 76.2983 28.4523 76.2223 28.7445C76.1925 29.7 75.9304 30.6332 75.4593 31.4612L76.5595 32.061C77.1435 31.0382 77.4667 29.8839 77.4999 28.7025C77.5366 28.1965 77.4404 27.6896 77.2212 27.2335C77.002 26.7774 76.6676 26.3883 76.2519 26.1057Z" fill="#A8CFF0"/>
<path d="M68.858 21.8057C68.0477 21.3319 67.0185 21.4159 65.9539 22.0396C64.919 22.7042 64.0565 23.611 63.4389 24.6838C62.8214 25.7566 62.4669 26.9641 62.4052 28.2047C62.381 28.6407 62.4487 29.0769 62.6037 29.4843C62.7588 29.8917 62.9975 30.261 63.3042 30.5676C63.6855 30.9275 64.1797 31.1398 64.7 31.1673L64.9603 29.8899C64.8161 29.9127 64.6688 29.903 64.5287 29.8615C64.3887 29.8201 64.2594 29.7479 64.15 29.65C63.9831 29.4565 63.8563 29.231 63.777 28.9868C63.6978 28.7427 63.6677 28.4848 63.6886 28.2287C63.755 27.2158 64.0511 26.2321 64.5538 25.3541C65.0565 24.4762 65.7522 23.7278 66.5868 23.167C66.8191 22.988 67.0928 22.8725 67.3817 22.8315C67.6707 22.7906 67.9652 22.8256 68.237 22.9331C68.4556 23.1174 68.6246 23.3549 68.728 23.6234C68.8315 23.8919 68.866 24.1827 68.8284 24.4684C68.7946 25.4332 68.5264 26.3747 68.0477 27.2092L69.1419 27.8089C69.7259 26.7861 70.0491 25.6318 70.0823 24.4504C70.1302 23.9389 70.0419 23.4236 69.8265 22.9585C69.6112 22.4933 69.2767 22.0952 68.858 21.8057Z" fill="#A8CFF0"/>
<path d="M61.4645 17.5059C60.6542 17.0321 59.6251 17.1161 58.5605 17.7398C57.5275 18.4066 56.6666 19.314 56.0493 20.3863C55.4321 21.4587 55.0763 22.665 55.0117 23.9049C54.9852 24.3385 55.049 24.773 55.1988 25.18C55.3486 25.5871 55.581 25.9577 55.8811 26.2678C56.2625 26.6277 56.7567 26.84 57.277 26.8675L57.5372 25.5901C57.3931 25.6116 57.2461 25.6014 57.1062 25.56C56.9664 25.5186 56.837 25.447 56.7269 25.3502C56.5601 25.1567 56.4333 24.9312 56.354 24.687C56.2748 24.4429 56.2447 24.185 56.2656 23.9289C56.332 22.916 56.6281 21.9322 57.1308 21.0543C57.6334 20.1764 58.3291 19.4279 59.1637 18.8672C59.396 18.6882 59.6698 18.5727 59.9587 18.5317C60.2477 18.4908 60.5421 18.5258 60.8139 18.6333C61.0335 18.8169 61.2031 19.0543 61.3066 19.323C61.4101 19.5917 61.4441 19.8828 61.4054 20.1686C61.3716 21.1334 61.1034 22.0748 60.6247 22.9093L61.7248 23.5091C62.3046 22.4849 62.6257 21.3311 62.6593 20.1506C62.7103 19.6419 62.6265 19.1285 62.4165 18.6636C62.2064 18.1986 61.8778 17.799 61.4645 17.5059Z" fill="#A8CFF0"/>
<path d="M54.0723 13.2061C53.262 12.7323 52.2328 12.8162 51.1682 13.44C50.1353 14.1068 49.2743 15.0142 48.6571 16.0865C48.0398 17.1589 47.6841 18.3652 47.6195 19.6051C47.5969 20.0409 47.6653 20.4767 47.8202 20.8839C47.9751 21.291 48.213 21.6605 48.5185 21.968C48.8998 22.3279 49.394 22.5402 49.9143 22.5677L50.1746 21.2903C50.0304 21.3118 49.8834 21.3016 49.7435 21.2602C49.6037 21.2188 49.4743 21.1472 49.3643 21.0504C49.1974 20.8569 49.0706 20.6314 48.9913 20.3872C48.9121 20.143 48.882 19.8852 48.9029 19.6291C48.9685 18.6151 49.2641 17.6302 49.7668 16.7512C50.2695 15.8721 50.9657 15.1228 51.8011 14.5614C52.0344 14.3845 52.3083 14.2707 52.597 14.2308C52.8858 14.1909 53.1797 14.2263 53.4512 14.3335C53.6708 14.5171 53.8404 14.7545 53.9439 15.0232C54.0474 15.2919 54.0814 15.583 54.0427 15.8688C54.0089 16.8336 53.7407 17.775 53.262 18.6095L54.3621 19.2093C54.9474 18.1926 55.2765 17.0452 55.3203 15.8688C55.3689 15.3521 55.2786 14.8316 55.0588 14.3627C54.8391 13.8939 54.4982 13.4942 54.0723 13.2061Z" fill="#A8CFF0"/>
<path d="M46.6781 8.90578C45.8678 8.432 44.8386 8.51596 43.774 9.13967C42.741 9.80651 41.8801 10.7139 41.2628 11.7862C40.6456 12.8586 40.2898 14.0649 40.2252 15.3048C40.2019 15.7402 40.2693 16.1757 40.4232 16.5828C40.5771 16.99 40.814 17.3596 41.1183 17.6677C41.4997 18.0276 41.9939 18.2399 42.5142 18.2674L42.7744 16.99C42.6303 17.0116 42.4833 17.0013 42.3434 16.9599C42.2035 16.9185 42.0742 16.8469 41.9641 16.7501C41.7973 16.5566 41.6704 16.3311 41.5912 16.0869C41.5119 15.8428 41.4819 15.5849 41.5028 15.3288C41.5683 14.3148 41.864 13.3299 42.3667 12.4509C42.8694 11.5719 43.5656 10.8225 44.4009 10.2611C44.6343 10.0842 44.9082 9.97037 45.1969 9.9305C45.4856 9.89062 45.7796 9.92599 46.0511 10.0332C46.2707 10.2168 46.4403 10.4542 46.5438 10.7229C46.6473 10.9916 46.6813 11.2827 46.6426 11.5685C46.608 12.5332 46.3399 13.4745 45.8618 14.3093L46.962 14.909C47.5405 13.8842 47.8614 12.7308 47.8965 11.5505C47.945 11.0395 47.8575 10.5247 47.6433 10.0595C47.429 9.59441 47.0957 9.196 46.6781 8.90578Z" fill="#A8CFF0"/>
<path d="M39.2911 4.60606C38.83 4.37677 38.3165 4.2775 37.8045 4.31865C37.2925 4.3598 36.8009 4.53986 36.3811 4.83995C35.3482 5.50679 34.4872 6.41414 33.87 7.48649C33.2527 8.55884 32.897 9.76516 32.8323 11.0051C32.8097 11.4409 32.8781 11.8767 33.0331 12.2838C33.188 12.691 33.4259 13.0604 33.7314 13.368C34.1145 13.7288 34.6109 13.9411 35.1331 13.9677L35.3875 12.6903C35.2433 12.7118 35.0963 12.7016 34.9564 12.6601C34.8166 12.6187 34.6872 12.5472 34.5771 12.4504C34.4103 12.2569 34.2835 12.0314 34.2042 11.7872C34.125 11.543 34.0949 11.2852 34.1158 11.0291C34.1813 10.0151 34.477 9.0302 34.9797 8.15117C35.4824 7.27214 36.1786 6.52274 37.014 5.96142C37.2473 5.78444 37.5212 5.67065 37.8099 5.63077C38.0987 5.5909 38.3926 5.62626 38.6641 5.73353C38.8837 5.91703 39.0533 6.15444 39.1568 6.42317C39.2603 6.69189 39.2943 6.983 39.2556 7.26881C39.2211 8.2335 38.9529 9.17474 38.4749 10.0095L39.575 10.6093C40.1535 9.58446 40.4744 8.43108 40.5095 7.25082C40.5574 6.73988 40.4697 6.22524 40.2554 5.76023C40.0412 5.29521 39.7083 4.89673 39.2911 4.60606Z" fill="#A8CFF0"/>
<path d="M31.8982 0.305843C31.4372 0.0769492 30.9243 -0.0226306 30.4125 0.0174449C29.9008 0.0575203 29.409 0.23579 28.9882 0.533738C27.9545 1.20116 27.093 2.10946 26.4757 3.18292C25.8584 4.25639 25.5031 5.46392 25.4394 6.70486C25.413 7.1385 25.4767 7.57293 25.6265 7.97999C25.7763 8.38705 26.0088 8.75765 26.3089 9.06775C26.692 9.42855 27.1884 9.64089 27.7106 9.66747L27.965 8.39007C27.8208 8.41162 27.6738 8.40134 27.5339 8.35994C27.3941 8.31854 27.2647 8.24699 27.1547 8.15018C26.9878 7.95667 26.861 7.73114 26.7817 7.48698C26.7025 7.24282 26.6724 6.98501 26.6933 6.72884C26.7553 5.71073 27.0492 4.72106 27.5521 3.8376C28.055 2.95413 28.7531 2.20095 29.5915 1.63722C29.8248 1.46024 30.0987 1.34645 30.3875 1.30657C30.6762 1.2667 30.9701 1.30206 31.2417 1.40933C31.4612 1.59284 31.6308 1.83024 31.7343 2.09897C31.8378 2.36769 31.8719 2.6588 31.8331 2.94461C31.8129 3.90062 31.5632 4.83723 31.1056 5.67334L32.2057 6.27306C32.7796 5.25717 33.1004 4.11465 33.1402 2.94461C33.1851 2.43231 33.0936 1.91718 32.8751 1.45301C32.6566 0.988841 32.3192 0.592662 31.8982 0.305843Z" fill="#A8CFF0"/>
<path d="M29.4727 17.02L24.6346 14.2073C24.5547 14.1657 24.4666 14.1432 24.3768 14.1412C24.2871 14.1393 24.1981 14.1582 24.1166 14.1963C24.0351 14.2345 23.9632 14.2909 23.9064 14.3614C23.8496 14.4319 23.8094 14.5145 23.7888 14.6031L23.6113 15.6227L30.0346 19.3589L30.1825 18.5553C30.2342 18.2564 30.1938 17.9487 30.0668 17.6739C29.9398 17.3992 29.7324 17.1708 29.4727 17.02Z" fill="#72B5E8"/>
<path d="M36.096 20.8522L31.2519 18.0396C31.1723 17.9991 31.0847 17.9775 30.9957 17.9761C30.9067 17.9748 30.8185 17.9939 30.7378 18.0319C30.657 18.07 30.5858 18.126 30.5294 18.1959C30.473 18.2657 30.4329 18.3476 30.412 18.4354L30.2109 19.4669L36.6342 23.2032L36.7821 22.3995C36.8377 22.1014 36.8018 21.7932 36.6791 21.5164C36.5564 21.2397 36.3528 21.0079 36.096 20.8522Z" fill="#72B5E8"/>
<path d="M42.6795 24.6847L37.8709 21.866C37.791 21.8244 37.7029 21.8018 37.6131 21.7999C37.5234 21.798 37.4344 21.8169 37.3529 21.855C37.2714 21.8931 37.1995 21.9496 37.1427 22.0201C37.0859 22.0906 37.0457 22.1732 37.0251 22.2618L36.8477 23.2813L43.2709 27.0176L43.4129 26.214C43.4612 25.9135 43.4166 25.6052 43.2853 25.3314C43.154 25.0576 42.9424 24.8317 42.6795 24.6847Z" fill="#72B5E8"/>
<path d="M49.2872 28.5168L44.4432 25.7041C44.3635 25.6637 44.276 25.642 44.1869 25.6407C44.0979 25.6394 44.0097 25.6584 43.929 25.6965C43.8483 25.7345 43.777 25.7906 43.7206 25.8604C43.6642 25.9303 43.6241 26.0122 43.6033 26.0999L43.4199 27.1195L49.8432 30.8617L49.991 30.0581C50.0447 29.759 50.0058 29.4503 49.8798 29.1744C49.7538 28.8986 49.5469 28.6689 49.2872 28.5168Z" fill="#72B5E8"/>
<path d="M55.8868 32.3491L51.0486 29.5364C50.9688 29.4948 50.8806 29.4723 50.7909 29.4703C50.7011 29.4684 50.6121 29.4873 50.5306 29.5254C50.4491 29.5636 50.3773 29.62 50.3205 29.6905C50.2637 29.761 50.2234 29.8436 50.2028 29.9322L50.0254 30.9518L56.4487 34.682L56.5906 33.8844C56.6438 33.5861 56.6047 33.2785 56.4787 33.0036C56.3527 32.7288 56.1459 32.5002 55.8868 32.3491Z" fill="#72B5E8"/>
<path d="M62.4942 36.1809L57.6502 33.3682C57.5706 33.3278 57.483 33.3061 57.394 33.3048C57.3049 33.3034 57.2168 33.3225 57.136 33.3606C57.0553 33.3986 56.9841 33.4547 56.9277 33.5245C56.8713 33.5944 56.8312 33.6762 56.8103 33.764L56.627 34.7835L63.0502 38.5138L63.1981 37.7161C63.2504 37.4179 63.2109 37.1106 63.085 36.8359C62.959 36.5613 62.7528 36.3326 62.4942 36.1809Z" fill="#72B5E8"/>
<path d="M69.0938 40.0132L64.2556 37.2005C64.1758 37.1589 64.0876 37.1363 63.9979 37.1344C63.9082 37.1325 63.8192 37.1513 63.7377 37.1895C63.6562 37.2276 63.5843 37.2841 63.5275 37.3546C63.4707 37.425 63.4305 37.5077 63.4099 37.5963L63.2324 38.6158L69.6557 42.3461L69.7976 41.5425C69.8504 41.2451 69.8111 40.9384 69.685 40.6646C69.559 40.3907 69.3525 40.1632 69.0938 40.0132Z" fill="#72B5E8"/>
<g style="mix-blend-mode:multiply">
<g style="mix-blend-mode:multiply" opacity="0.1">
<path d="M48.3766 50.1365L19.4956 32.9665C17.0588 32.1388 17.0588 9.33149 19.4956 10.7768L48.3766 26.7234V50.1365Z" fill="#F1F2F2"/>
</g>
<g style="mix-blend-mode:multiply" opacity="0.14">
<path d="M48.151 49.8905L19.5361 32.8884C17.1703 32.0608 17.1703 9.66129 19.5361 11.0706L48.1451 26.9332L48.151 49.8905Z" fill="#ECEFF0"/>
</g>
<g style="mix-blend-mode:multiply" opacity="0.19">
<path d="M47.9277 49.6508L19.5908 32.8107C17.2249 31.9711 17.2249 10.0213 19.5908 11.3767L47.9277 27.1313V49.6508Z" fill="#E7EBEE"/>
</g>
<g style="mix-blend-mode:multiply" opacity="0.23">
<path d="M47.7022 49.4107L19.6315 32.7324C17.3129 31.8868 17.3129 10.3329 19.6315 11.6883L47.7022 27.335V49.4107Z" fill="#E2E8EC"/>
</g>
<g style="mix-blend-mode:multiply" opacity="0.27">
<path d="M47.4772 49.1648L19.6785 32.6605C17.4014 31.8149 17.4014 10.6688 19.6785 12.0062L47.4772 27.5449V49.1648Z" fill="#DEE5EA"/>
</g>
<g style="mix-blend-mode:multiply" opacity="0.31">
<path d="M47.2527 48.9248L19.7261 32.5764C17.4845 31.7248 17.4845 10.9865 19.7261 12.3119L47.2527 27.7427V48.9248Z" fill="#D9E1E8"/>
</g>
<g style="mix-blend-mode:multiply" opacity="0.36">
<path d="M47.0283 48.6851L19.7738 32.4927C17.5676 31.6351 17.5676 11.3286 19.7738 12.618L47.0283 27.9468V48.6851Z" fill="#D4DEE6"/>
</g>
<g style="mix-blend-mode:multiply" opacity="0.4">
<path d="M46.8033 48.4453L19.8208 32.4268C17.6561 31.5572 17.6561 11.6645 19.8208 12.9359L46.8033 28.1568V48.4453Z" fill="#CFDBE4"/>
</g>
<g style="mix-blend-mode:multiply" opacity="0.44">
<path d="M46.5786 48.1996L19.8683 32.349C17.7627 31.4614 17.7627 12.0005 19.8683 13.2479L46.5786 28.3609V48.1996Z" fill="#CAD7E2"/>
</g>
<g style="mix-blend-mode:multiply" opacity="0.49">
<path d="M46.3543 47.9593L19.916 32.2707C17.8223 31.3891 17.8223 12.336 19.916 13.5594L46.3543 28.5524V47.9593Z" fill="#C5D4E0"/>
</g>
<g style="mix-blend-mode:multiply" opacity="0.53">
<path d="M46.153 47.7196L19.9631 32.1929C17.9107 31.3053 17.9107 12.672 19.9631 13.8714L46.153 28.7685V47.7196Z" fill="#C0D1DE"/>
</g>
<g style="mix-blend-mode:multiply" opacity="0.57">
<path d="M45.9049 47.4734L20.0107 32.1146C17.9938 31.221 17.9938 13.0015 20.0107 14.183L45.9049 28.9721V47.4734Z" fill="#BCCDDB"/>
</g>
<g style="mix-blend-mode:multiply" opacity="0.61">
<path d="M45.6804 47.2336L20.0583 32.0607C18.0769 31.1611 18.0769 13.3615 20.0583 14.5189L45.6804 29.1761V47.2336Z" fill="#B7CAD9"/>
</g>
<g style="mix-blend-mode:multiply" opacity="0.66">
<path d="M45.4552 46.994L20.1288 31.959C18.1888 31.0534 18.1888 13.6735 20.1288 14.807L45.4788 29.3802L45.4552 46.994Z" fill="#B2C7D7"/>
</g>
<g style="mix-blend-mode:multiply" opacity="0.7">
<path d="M45.2311 46.7478L20.1295 31.8808C18.225 30.9692 18.225 14.0031 20.1295 15.1186L45.2075 29.5838L45.2311 46.7478Z" fill="#ADC3D5"/>
</g>
<g style="mix-blend-mode:multiply" opacity="0.74">
<path d="M45.0122 46.5082L20.2004 31.809C18.3551 30.8615 18.3551 14.3392 20.2004 15.4307L45.0122 29.8239V46.5082Z" fill="#A8C0D3"/>
</g>
<g style="mix-blend-mode:multiply" opacity="0.79">
<path d="M44.7854 46.2684L20.2457 31.7312C18.4181 30.8016 18.4181 14.6751 20.2457 15.7426L44.7854 29.998V46.2684Z" fill="#A3BDD1"/>
</g>
<g style="mix-blend-mode:multiply" opacity="0.83">
<path d="M44.5611 46.0281L20.3113 31.6348C18.5369 30.6992 18.5369 14.9866 20.3113 16.0421L44.5611 30.1895V46.0281Z" fill="#9EB9CF"/>
</g>
<g style="mix-blend-mode:multiply" opacity="0.87">
<path d="M44.3381 45.7825L20.3425 31.5751C18.5681 30.6336 18.5681 15.3407 20.3425 16.3662L44.3381 30.4057V45.7825Z" fill="#9AB6CD"/>
</g>
<g style="mix-blend-mode:multiply" opacity="0.91">
<path d="M44.113 45.5428L20.3836 31.4973C18.6742 30.5498 18.6742 15.6767 20.3836 16.6783L44.113 30.6098V45.5428Z" fill="#95B3CB"/>
</g>
<g style="mix-blend-mode:multiply" opacity="0.96">
<path d="M43.8885 45.3026L20.4312 31.4191C18.7573 30.4655 18.7573 16.0122 20.4312 16.9898L43.8885 30.7834V45.3026Z" fill="#90AFC9"/>
</g>
<g style="mix-blend-mode:multiply">
<path d="M43.6635 45.0568L20.4782 31.3413C18.8458 30.3877 18.8458 16.3482 20.4782 17.3018L43.6635 31.0174V45.0568Z" fill="#8BACC7"/>
</g>
</g>
<path d="M9.48095 26.0639L3.11683 22.2737C1.39568 21.2662 0.0175781 18.5674 0.0175781 16.2465V10.3633C0.0175781 8.04234 1.41343 6.96885 3.13458 7.96438L9.48095 11.7846V26.0639Z" fill="#FFCC00"/>
<path d="M10.9427 11.0228L4.58449 7.22053C4.32157 7.03694 4.02054 6.91712 3.70466 6.87032C3.38878 6.82353 3.06652 6.85101 2.76279 6.95065C2.69773 6.95065 1.24274 7.72429 1.18359 7.76027C1.49933 7.63069 1.84184 7.58258 2.18043 7.62026C2.51902 7.65794 2.84309 7.78023 3.12358 7.97617L9.48179 11.7844L10.9427 11.0228Z" fill="#FFE029"/>
<path d="M44.2598 31.9708V46.2322L45.6852 45.4405V31.0952L44.2598 31.9708Z" fill="#2672AB"/>
<path d="M44.2702 31.971V46.2323L9.48047 26.1357V11.7964L44.2702 31.971Z" fill="#3F92D1"/>
<path d="M9.48047 11.7968L44.2702 31.9714L45.6838 31.0958L10.8763 10.9512L9.48047 11.7968Z" fill="#72B5E8"/>
<path d="M4.87343 18.8313L3.06356 18.8673C2.89796 18.8673 2.69686 18.5854 2.72643 18.3875L3.07539 16.2465C3.08319 16.1499 3.06041 16.0532 3.01033 15.9706L1.54351 13.4698C1.40747 13.2299 1.48436 13.008 1.67363 13.086L3.69643 13.9256C3.72568 13.9412 3.75968 13.9449 3.79154 13.936C3.82339 13.9271 3.85071 13.9062 3.86795 13.8776L4.74923 12.2704C4.83203 12.1204 5.08044 12.2704 5.16325 12.5162L6.06818 15.173C6.10291 15.2706 6.16201 15.3574 6.23971 15.4249L8.29799 16.9542C8.48726 17.0981 8.56415 17.4159 8.42811 17.4879L6.94946 18.2676C6.92034 18.2902 6.89857 18.3211 6.88697 18.3564C6.87538 18.3917 6.87448 18.4297 6.8844 18.4655L7.23336 21.0083C7.23336 21.2482 7.06184 21.3021 6.89623 21.0982L5.08636 18.9332C5.03115 18.8725 4.95478 18.8359 4.87343 18.8313Z" fill="white"/>
<path d="M3.98671 13.7097C4.01686 13.7256 4.05178 13.7295 4.08462 13.7206C4.11746 13.7117 4.14583 13.6907 4.16415 13.6617L4.96263 12.2703C4.94989 12.2541 4.9337 12.241 4.91526 12.232C4.89683 12.2229 4.87663 12.2183 4.85616 12.2183C4.8357 12.2183 4.8155 12.2229 4.79706 12.232C4.77863 12.241 4.76244 12.2541 4.7497 12.2703L3.94531 13.6917L3.98671 13.7097Z" fill="#E6E7E8"/>
<path d="M7.24469 18.0756C7.22978 18.0849 7.21685 18.0971 7.20669 18.1115C7.19653 18.1259 7.18934 18.1423 7.18555 18.1596L8.41579 17.4879C8.44628 17.4669 8.46749 17.4346 8.47493 17.3979L7.24469 18.0756Z" fill="#E6E7E8"/>
<path d="M7.18577 20.9061L5.41139 18.7411C5.38721 18.7055 5.35559 18.6758 5.31879 18.654C5.28198 18.6322 5.2409 18.619 5.19846 18.6151L3.38859 18.6631C3.21707 18.6631 3.02189 18.3812 3.05146 18.1833L3.40042 16.0423C3.40923 15.9448 3.38412 15.8472 3.32944 15.7665L1.86854 13.2536C1.84855 13.2155 1.83269 13.1753 1.82122 13.1337L1.70293 13.0857C1.51366 13.0077 1.43677 13.2296 1.57281 13.4695L3.03963 15.9824C3.0897 16.065 3.11249 16.1616 3.10469 16.2582L2.75573 18.3992C2.75573 18.5971 2.92725 18.885 3.09286 18.879L4.90273 18.831C4.94477 18.8363 4.98532 18.8502 5.02192 18.8719C5.05851 18.8935 5.0904 18.9225 5.11566 18.957L6.92553 21.122C7.09114 21.3259 7.29223 21.2719 7.25675 21.032V20.9241L7.18577 20.9061Z" fill="#E6E7E8"/>
<path d="M23.4579 30.0401L11.6523 23.1553V24.1448L23.4579 31.0236V30.0401Z" fill="white"/>
<path d="M28.9585 26.7774L11.6523 16.7261V18.5492L28.9585 28.5945V26.7774Z" fill="white"/>
<path d="M19.6311 25.7518L11.6523 21.104V22.0935L19.6311 26.7354V25.7518Z" fill="white"/>
<path d="M20.5879 26.3096V27.2991L36.7348 36.6188V35.6292L20.5879 26.3096Z" fill="white"/>
<path d="M24.416 30.5977V31.5872L33.7907 37.0506V36.0611L24.416 30.5977Z" fill="white"/>
<path d="M29.916 29.1586L35.6354 32.499V30.6759L29.916 27.3354V29.1586Z" fill="white"/>
<path d="M37.6934 37.1824L41.8927 39.6413V38.6517L37.6934 36.1929V37.1824Z" fill="white"/>
<path d="M34.7539 37.6082L41.8928 41.6923V40.7027L34.7539 36.6187V37.6082Z" fill="white"/>
<g style="mix-blend-mode:multiply">
<g style="mix-blend-mode:multiply" opacity="0.1">
<path d="M73.5125 84.2365L36.8419 63.0244C34.4051 62.1967 32.4355 58.3765 32.4355 55.0901V44.1692C32.4355 40.8827 34.4051 39.3714 36.8419 40.7927L75.4584 62.7305L73.5125 84.2365Z" fill="#F1F2F2"/>
</g>
<g style="mix-blend-mode:multiply" opacity="0.14">
<path d="M73.3227 83.9968L37.2436 63.1266C34.8778 62.293 32.9082 58.5327 32.9082 55.2942V44.6552C32.9082 41.4167 34.8482 39.9294 37.2436 41.3328L75.2982 62.9587L73.3227 83.9968Z" fill="#ECEFF0"/>
</g>
<g style="mix-blend-mode:multiply" opacity="0.19">
<path d="M73.1408 83.7687L37.6532 63.2403C35.2873 62.4067 33.3828 58.7004 33.3828 55.5159V45.0808C33.3828 41.8902 35.2932 40.4269 37.6532 41.8063L75.134 63.1263L73.1408 83.7687Z" fill="#E7EBEE"/>
</g>
<g style="mix-blend-mode:multiply" opacity="0.23">
<path d="M72.951 83.5468L38.0548 63.3602C35.7363 62.5146 33.8555 58.8743 33.8555 55.7377V45.5425C33.8555 42.406 35.7363 40.9606 38.0548 42.322L74.9797 63.3122L72.951 83.5468Z" fill="#E2E8EC"/>
</g>
<g style="mix-blend-mode:multiply" opacity="0.27">
<path d="M72.7675 83.325L38.4332 63.4803C36.1561 62.6287 34.293 59.0424 34.293 55.9598V45.9864C34.293 42.9039 36.1442 41.4885 38.4332 42.8199L74.7962 63.5223L72.7675 83.325Z" fill="#DEE5EA"/>
</g>
<g style="mix-blend-mode:multiply" opacity="0.31">
<path d="M72.5719 83.1028L38.8172 63.5939C36.5756 62.7363 34.7598 59.216 34.7598 56.1814V46.4539C34.7598 43.4194 36.5756 42.028 38.8172 43.3414L74.6183 63.7319L72.5719 83.1028Z" fill="#D9E1E8"/>
</g>
<g style="mix-blend-mode:multiply" opacity="0.36">
<path d="M72.3881 82.875L39.2072 63.714C37.007 62.8504 35.2148 59.39 35.2148 56.4034V46.8978C35.2148 43.8992 36.9892 42.5438 39.2072 43.8392L74.4405 63.9119L72.3881 82.875Z" fill="#D4DEE6"/>
</g>
<g style="mix-blend-mode:multiply" opacity="0.4">
<path d="M72.1748 82.6529L39.6031 63.8457C37.4324 62.9761 35.6758 59.5697 35.6758 56.649V47.3534C35.6758 44.4208 37.4502 43.0714 39.6031 44.3548L74.2686 64.1455L72.1748 82.6529Z" fill="#CFDBE4"/>
</g>
<g style="mix-blend-mode:multiply" opacity="0.44">
<path d="M72.0108 82.4375L39.995 63.9542C37.8657 63.0786 36.1387 59.7561 36.1387 56.8595V47.8037C36.1387 44.925 37.8657 43.6057 39.995 44.8531L74.0927 64.308L72.0108 82.4375Z" fill="#CAD7E2"/>
</g>
<g style="mix-blend-mode:multiply" opacity="0.49">
<path d="M71.8212 82.2034L40.385 64.0679C38.2912 63.1863 36.5938 59.8698 36.5938 57.0752V48.2533C36.5938 45.4286 38.2912 44.1272 40.385 45.3506L73.9504 64.5057L71.8212 82.2034Z" fill="#C5D4E0"/>
</g>
<g style="mix-blend-mode:multiply" opacity="0.53">
<path d="M71.6374 81.9814L40.775 64.1877C38.7226 63.3001 37.0547 60.0736 37.0547 57.2969V48.7149C37.0547 45.9382 38.7226 44.6608 40.775 45.8662L73.7489 64.7034L71.6374 81.9814Z" fill="#C0D1DE"/>
</g>
<g style="mix-blend-mode:multiply" opacity="0.57">
<path d="M71.4477 81.7595L41.1649 64.3017C39.1481 63.4081 37.5156 60.2416 37.5156 57.5188V49.1707C37.5156 46.442 39.1481 45.1886 41.1649 46.37L73.5711 64.9014L71.4477 81.7595Z" fill="#BCCDDB"/>
</g>
<g style="mix-blend-mode:multiply" opacity="0.61">
<path d="M71.2597 81.5316L41.5566 64.4456C39.5811 63.546 38.0078 60.4395 38.0078 57.7647V49.6265C38.0078 46.9518 39.6107 45.7223 41.5566 46.8798L73.4008 65.0993L71.2597 81.5316Z" fill="#B7CAD9"/>
</g>
<g style="mix-blend-mode:multiply" opacity="0.66">
<path d="M71.0704 81.3099L41.9469 64.5177C40.0069 63.6062 38.4336 60.5596 38.4336 57.9208V50.0525C38.4336 47.4317 40.0069 46.2263 41.9469 47.3598L73.2292 65.2734L71.0704 81.3099Z" fill="#B2C7D7"/>
</g>
<g style="mix-blend-mode:multiply" opacity="0.7">
<path d="M70.8867 81.0879L42.3368 64.6556C40.4382 63.744 38.8945 60.7574 38.8945 58.1846V50.5322C38.8945 47.9594 40.4382 46.778 42.3368 47.8934L73.0514 65.4952L70.8867 81.0879Z" fill="#ADC3D5"/>
</g>
<g style="mix-blend-mode:multiply" opacity="0.74">
<path d="M70.697 80.8602L42.7327 64.7757C40.8637 63.8581 39.3555 60.9255 39.3555 58.4067V50.9881C39.3555 48.4693 40.8637 47.3058 42.7327 48.3973L72.8972 65.6933L70.697 80.8602Z" fill="#A8C0D3"/>
</g>
<g style="mix-blend-mode:multiply" opacity="0.79">
<path d="M70.5073 80.6383L43.1227 64.8957C41.2951 63.9661 39.8164 61.0995 39.8164 58.6286V51.432C39.8164 48.9611 41.2951 47.8336 43.1227 48.8952L72.6957 65.8792L70.5073 80.6383Z" fill="#A3BDD1"/>
</g>
<g style="mix-blend-mode:multiply" opacity="0.83">
<path d="M70.3177 80.4162L43.5127 65.0094C41.7383 64.0798 40.2715 61.2671 40.2715 58.8503V51.8995C40.2715 49.5006 41.7206 48.3672 43.5127 49.4167L72.5298 66.0889L70.3177 80.4162Z" fill="#9EB9CF"/>
</g>
<g style="mix-blend-mode:multiply" opacity="0.87">
<path d="M70.1359 80.1941L43.9046 65.1291C42.1302 64.1876 40.7344 61.4409 40.7344 59.072V52.3491C40.7344 49.9862 42.1539 48.8947 43.9046 49.9202L72.3598 66.2866L70.1359 80.1941Z" fill="#9AB6CD"/>
</g>
<g style="mix-blend-mode:multiply" opacity="0.91">
<path d="M69.9462 79.9664L44.2946 65.2493C42.5852 64.3017 41.1953 61.609 41.1953 59.2941V52.8051C41.1953 50.4902 42.5852 49.4227 44.2946 50.4062L72.176 66.4847L69.9462 79.9664Z" fill="#95B3CB"/>
</g>
<g style="mix-blend-mode:multiply" opacity="0.96">
<path d="M69.7566 79.7447L44.6845 65.3514C43.0107 64.4039 41.6562 61.7531 41.6562 59.5042V53.2611C41.6562 50.9941 43.0107 49.9566 44.6845 50.9342L72.01 66.6828L69.7566 79.7447Z" fill="#90AFC9"/>
</g>
<g style="mix-blend-mode:multiply">
<path d="M69.5669 79.5224L45.0745 65.4829C43.4421 64.5234 42.1172 61.9566 42.1172 59.7376V53.7404C42.1172 51.5274 43.448 50.5079 45.0745 51.4675L71.8381 66.9043L69.5669 79.5224Z" fill="#8BACC7"/>
</g>
</g>
<path d="M41.065 64.2838L34.7068 60.4816C32.9916 59.4741 31.5957 56.7753 31.5957 54.4484V48.5712C31.5957 46.2442 32.9916 45.1767 34.7068 46.1723L41.065 49.9745V64.2838Z" fill="#FFCC00"/>
<path d="M42.5325 49.231L36.1743 45.4287C35.9111 45.2458 35.6103 45.1259 35.2948 45.0781C34.9792 45.0303 34.657 45.0559 34.3526 45.1529L32.7793 45.9685C33.0938 45.8378 33.4356 45.7891 33.7734 45.8268C34.1113 45.8645 34.4344 45.9875 34.7134 46.1844L41.0716 49.9866L42.5325 49.231Z" fill="#FFE029"/>
<path d="M75.8555 70.1793V84.4406L77.2809 83.649V69.3037L75.8555 70.1793Z" fill="#2672AB"/>
<path d="M75.8619 70.1795V84.4408L41.0781 64.3442V50.0049L75.8619 70.1795Z" fill="#3F92D1"/>
<path d="M41.0781 50.0048L75.8619 70.1794L77.2814 69.3038L42.474 49.1592L41.0781 50.0048Z" fill="#72B5E8"/>
<path d="M36.4632 57.0392L34.6593 57.0871C34.4877 57.0871 34.2926 56.8053 34.3221 56.6074L34.6652 54.4664C34.6768 54.3695 34.6537 54.2716 34.6001 54.1905L33.1392 51.6777C33.0032 51.4378 33.0801 51.2099 33.2693 51.2938L35.2862 52.1335C35.3164 52.1494 35.3513 52.1533 35.3841 52.1444C35.417 52.1355 35.4453 52.1145 35.4637 52.0855L36.3686 50.4842C36.4514 50.3343 36.6939 50.4842 36.7826 50.7301L37.6876 53.3869C37.7176 53.4868 37.7775 53.5749 37.8591 53.6387L39.8819 55.162C40.0711 55.306 40.1421 55.6178 40.0061 55.6958L38.5452 56.4994C38.516 56.522 38.4943 56.553 38.4827 56.5882C38.4711 56.6235 38.4702 56.6615 38.4801 56.6973L38.8232 59.2401C38.8586 59.48 38.6575 59.534 38.486 59.3301L36.688 57.1651C36.662 57.1286 36.6283 57.0984 36.5895 57.0767C36.5506 57.0549 36.5075 57.0421 36.4632 57.0392Z" fill="white"/>
<path d="M35.5822 51.9178C35.6123 51.9337 35.6473 51.9376 35.6801 51.9288C35.7129 51.9199 35.7413 51.8989 35.7596 51.8698L36.5581 50.4485C36.4812 50.4125 36.4043 50.4485 36.3688 50.4845L35.5645 51.9058L35.5822 51.9178Z" fill="#E6E7E8"/>
<path d="M38.8404 56.2836C38.8255 56.2929 38.8126 56.3051 38.8024 56.3195C38.7922 56.3339 38.785 56.3503 38.7812 56.3676L40.0056 55.6959C40.0224 55.6875 40.0367 55.6748 40.047 55.659C40.0574 55.6432 40.0635 55.6249 40.0647 55.606L38.8404 56.2836Z" fill="#E6E7E8"/>
<path d="M38.7817 59.1085L36.9778 56.9495C36.9533 56.9129 36.9208 56.8824 36.8829 56.8606C36.8449 56.8387 36.8025 56.8261 36.759 56.8235L34.955 56.8715C34.7835 56.8715 34.5824 56.5897 34.6179 56.3857L34.9609 54.2507C34.97 54.154 34.9471 54.057 34.8959 53.9749L33.4349 51.4561C33.4125 51.4205 33.3946 51.3822 33.3817 51.3421L33.2693 51.2941C33.0801 51.2102 33.0032 51.4381 33.1392 51.678L34.6001 54.1908C34.6537 54.2719 34.6767 54.3698 34.6652 54.4666L34.3221 56.6076C34.3221 56.8055 34.4877 57.0934 34.6593 57.0874L36.4632 57.0394C36.5065 57.0432 36.5484 57.0564 36.5862 57.0782C36.624 57.0999 36.6567 57.1297 36.6821 57.1654L38.486 59.3304C38.6575 59.5343 38.8586 59.4803 38.8231 59.2404V59.1325L38.7817 59.1085Z" fill="#E6E7E8"/>
<path d="M55.0477 68.2481L43.248 61.3633V62.3528L55.0477 69.2316V68.2481Z" fill="white"/>
<path d="M60.5483 64.9854L43.248 54.9341V56.7572L60.5483 66.8025V64.9854Z" fill="white"/>
<path d="M51.2268 63.9543L43.248 59.3125V60.302L51.2268 64.9439V63.9543Z" fill="white"/>
<path d="M52.1836 64.5181V65.5076L68.3305 74.8272V73.8377L52.1836 64.5181Z" fill="white"/>
<path d="M56.0059 68.8057V69.7952L65.3864 75.2527V74.2691L56.0059 68.8057Z" fill="white"/>
<path d="M61.5059 67.3666L67.2253 70.701V68.8839L61.5059 65.5435V67.3666Z" fill="white"/>
<path d="M69.2891 75.3849L73.4825 77.8498V76.8602L69.2891 74.4014V75.3849Z" fill="white"/>
<path d="M66.3438 75.8167L73.4827 79.9008V78.9112L66.3438 74.8271V75.8167Z" fill="white"/>
<path d="M92.0834 67.4926C92.0186 67.4922 91.9558 67.4703 91.9045 67.4302C91.8532 67.3901 91.8163 67.3341 91.7995 67.2707L91.4919 66.1132C91.4733 66.0362 91.4844 65.9548 91.5228 65.8858C91.5613 65.8167 91.6243 65.7651 91.6989 65.7414C91.7758 65.7212 91.8574 65.7326 91.926 65.773C91.9947 65.8134 92.0448 65.8796 92.0657 65.9573L92.3673 67.1148C92.378 67.1526 92.3811 67.1922 92.3764 67.2312C92.3718 67.2703 92.3594 67.308 92.3401 67.3421C92.3208 67.3762 92.2949 67.406 92.264 67.4298C92.2332 67.4536 92.1979 67.4709 92.1603 67.4806L92.0834 67.4926ZM91.3204 64.5959C91.2556 64.5956 91.1928 64.5737 91.1415 64.5336C91.0902 64.4935 91.0533 64.4374 91.0365 64.374L90.7289 63.2166C90.7085 63.1371 90.7202 63.0526 90.7612 62.9817C90.8022 62.9109 90.8694 62.8594 90.9478 62.8388C91.0262 62.8181 91.1095 62.8298 91.1794 62.8715C91.2493 62.9131 91.3 62.9811 91.3204 63.0607L91.6221 64.2181C91.6328 64.2559 91.6359 64.2955 91.6312 64.3346C91.6265 64.3736 91.6142 64.4113 91.5949 64.4454C91.5756 64.4795 91.5497 64.5094 91.5188 64.5332C91.4879 64.557 91.4526 64.5742 91.415 64.5839L91.3204 64.5959ZM90.5574 61.6993C90.4924 61.7 90.4291 61.6784 90.3776 61.6382C90.3261 61.5979 90.2894 61.5413 90.2735 61.4774L89.966 60.3199C89.9474 60.2429 89.9584 60.1615 89.9969 60.0925C90.0353 60.0234 90.0983 59.9718 90.173 59.9481C90.2106 59.9382 90.2499 59.9359 90.2884 59.9414C90.327 59.9469 90.3641 59.9601 90.3976 59.9801C90.4311 60.0002 90.4604 60.0267 90.4837 60.0583C90.5071 60.0899 90.5241 60.1258 90.5338 60.164L90.8413 61.3215C90.8613 61.3978 90.8507 61.479 90.812 61.5475C90.7732 61.616 90.7094 61.6662 90.6343 61.6873L90.5574 61.6993ZM89.7944 58.8026C89.7289 58.8026 89.6652 58.7809 89.6129 58.7409C89.5606 58.7008 89.5226 58.6446 89.5046 58.5807L89.203 57.4233C89.1826 57.3438 89.1942 57.2593 89.2352 57.1884C89.2763 57.1176 89.3434 57.0661 89.4218 57.0455C89.5003 57.0248 89.5836 57.0365 89.6535 57.0782C89.7233 57.1198 89.774 57.1878 89.7944 57.2674L90.102 58.4248C90.1219 58.5012 90.1114 58.5824 90.0726 58.6509C90.0339 58.7194 89.9701 58.7696 89.895 58.7907L89.7944 58.8026ZM89.0315 55.906C88.9657 55.907 88.9015 55.8857 88.849 55.8455C88.7965 55.8053 88.7587 55.7485 88.7416 55.6841L88.44 54.5266C88.4299 54.4873 88.4275 54.4463 88.4331 54.406C88.4386 54.3657 88.4519 54.3269 88.4722 54.2918C88.4926 54.2567 88.5195 54.226 88.5515 54.2015C88.5835 54.177 88.62 54.1591 88.6588 54.1488C88.6977 54.1386 88.7381 54.1362 88.7779 54.1418C88.8176 54.1474 88.8559 54.1609 88.8905 54.1815C88.9251 54.2021 88.9553 54.2294 88.9795 54.2619C89.0037 54.2944 89.0214 54.3313 89.0315 54.3707L89.339 55.5282C89.3488 55.5664 89.351 55.6062 89.3456 55.6452C89.3402 55.6843 89.3272 55.7219 89.3075 55.7559C89.2877 55.7899 89.2615 55.8196 89.2303 55.8433C89.1992 55.867 89.1638 55.8842 89.1261 55.894L89.0315 55.906ZM88.2626 53.0093C88.1978 53.009 88.135 52.9871 88.0837 52.947C88.0324 52.9069 87.9955 52.8509 87.9787 52.7875L87.677 51.624C87.6663 51.5862 87.6632 51.5466 87.6679 51.5075C87.6725 51.4685 87.6849 51.4308 87.7042 51.3967C87.7235 51.3626 87.7494 51.3327 87.7803 51.3089C87.8111 51.2851 87.8464 51.2679 87.884 51.2582C87.9217 51.2482 87.9609 51.246 87.9995 51.2515C88.038 51.257 88.0751 51.2701 88.1086 51.2902C88.1421 51.3102 88.1714 51.3368 88.1948 51.3684C88.2182 51.3999 88.2352 51.4358 88.2448 51.4741L88.5524 52.6315C88.5621 52.6697 88.5644 52.7095 88.559 52.7486C88.5536 52.7877 88.5406 52.8253 88.5208 52.8593C88.501 52.8932 88.4748 52.9229 88.4437 52.9466C88.4126 52.9703 88.3772 52.9876 88.3394 52.9974L88.2626 53.0093ZM87.4996 50.1127C87.4348 50.1123 87.372 50.0904 87.3207 50.0503C87.2694 50.0103 87.2325 49.9542 87.2157 49.8908L86.9081 48.7273C86.8885 48.6478 86.9009 48.5637 86.9425 48.4934C86.984 48.4231 87.0515 48.3724 87.1299 48.3525C87.2083 48.3326 87.2914 48.3452 87.3607 48.3873C87.43 48.4295 87.48 48.4979 87.4996 48.5774L87.8071 49.7349C87.8169 49.7731 87.8192 49.8129 87.8137 49.8519C87.8083 49.891 87.7953 49.9286 87.7756 49.9626C87.7558 49.9966 87.7296 50.0263 87.6985 50.05C87.6673 50.0737 87.6319 50.0909 87.5942 50.1007L87.4996 50.1127ZM86.7366 47.2161C86.6718 47.2157 86.609 47.1938 86.5577 47.1537C86.5064 47.1136 86.4695 47.0576 86.4527 46.9942L86.1451 45.8307C86.1255 45.7512 86.1379 45.667 86.1795 45.5967C86.2211 45.5264 86.2885 45.4758 86.3669 45.4559C86.4454 45.436 86.5284 45.4485 86.5977 45.4907C86.667 45.5329 86.717 45.6012 86.7366 45.6808L87.0441 46.8382C87.0539 46.8764 87.0562 46.9162 87.0508 46.9553C87.0453 46.9944 87.0324 47.032 87.0126 47.066C86.9928 47.1 86.9666 47.1297 86.9355 47.1533C86.9044 47.177 86.8689 47.1943 86.8312 47.2041L86.7366 47.2161ZM85.9736 44.3194C85.9088 44.319 85.846 44.2971 85.7947 44.257C85.7434 44.217 85.7065 44.1609 85.6897 44.0975L85.3821 42.9341C85.3625 42.8545 85.3749 42.7704 85.4165 42.7001C85.4581 42.6298 85.5255 42.5791 85.6039 42.5592C85.6824 42.5393 85.7654 42.5519 85.8347 42.594C85.904 42.6362 85.954 42.7046 85.9736 42.7841L86.2752 43.9416C86.2859 43.9794 86.2891 44.019 86.2844 44.058C86.2797 44.0971 86.2674 44.1348 86.2481 44.1689C86.2287 44.203 86.2029 44.2328 86.172 44.2566C86.1411 44.2804 86.1058 44.2977 86.0682 44.3074L85.9736 44.3194ZM85.187 41.4228C85.1214 41.422 85.058 41.3993 85.0066 41.358C84.9552 41.3168 84.9188 41.2594 84.9031 41.1949L84.5955 40.0374C84.5755 39.9611 84.5861 39.8798 84.6248 39.8113C84.6636 39.7429 84.7275 39.6926 84.8025 39.6716C84.8786 39.6512 84.9595 39.6617 85.028 39.7009C85.0965 39.7401 85.1472 39.8049 85.1692 39.8815L85.4709 41.0449C85.4908 41.1213 85.4803 41.2025 85.4415 41.271C85.4028 41.3395 85.3389 41.3897 85.2639 41.4108L85.187 41.4228ZM84.424 38.5261C84.3584 38.5254 84.295 38.5026 84.2436 38.4614C84.1922 38.4201 84.1558 38.3627 84.1401 38.2982L83.8325 37.1408C83.8126 37.0644 83.8231 36.9832 83.8619 36.9147C83.9006 36.8462 83.9645 36.796 84.0395 36.7749C84.1155 36.7561 84.1957 36.7673 84.2639 36.8063C84.332 36.8453 84.3829 36.9091 84.4062 36.9848L84.7079 38.1483C84.7278 38.2246 84.7173 38.3058 84.6785 38.3743C84.6398 38.4428 84.5759 38.4931 84.5009 38.5141L84.424 38.5261ZM83.6847 35.6595C83.6188 35.6598 83.5549 35.6374 83.5033 35.596C83.4517 35.5546 83.4155 35.4966 83.4007 35.4316L83.0932 34.2741C83.0831 34.2347 83.0807 34.1937 83.0863 34.1534C83.0918 34.1131 83.1051 34.0743 83.1254 34.0392C83.1458 34.0041 83.1727 33.9735 83.2047 33.9489C83.2367 33.9244 83.2732 33.9065 83.312 33.8963C83.3509 33.886 83.3913 33.8837 83.4311 33.8893C83.4708 33.8949 83.5091 33.9084 83.5437 33.929C83.5783 33.9496 83.6085 33.9769 83.6327 34.0093C83.6569 34.0418 83.6746 34.0788 83.6847 34.1182L83.9922 35.2816C84.0122 35.358 84.0016 35.4392 83.9629 35.5077C83.9241 35.5762 83.8603 35.6264 83.7852 35.6475L83.6847 35.6595ZM82.9217 32.7568C82.8559 32.7578 82.7917 32.7365 82.7392 32.6963C82.6867 32.6561 82.6489 32.5993 82.6318 32.5349L82.3302 31.3774C82.3195 31.3396 82.3164 31.3 82.3211 31.261C82.3257 31.222 82.3381 31.1843 82.3574 31.1501C82.3767 31.116 82.4026 31.0862 82.4335 31.0624C82.4643 31.0386 82.4996 31.0213 82.5372 31.0116C82.6125 30.9914 82.6926 31.0021 82.7602 31.0414C82.8277 31.0807 82.8772 31.1454 82.898 31.2215L83.2056 32.385C83.2255 32.4613 83.215 32.5425 83.1762 32.611C83.1375 32.6795 83.0736 32.7298 82.9986 32.7508L82.9217 32.7568ZM82.1587 29.8602C82.0927 29.8622 82.0279 29.8413 81.9752 29.8009C81.9225 29.7606 81.885 29.7032 81.8689 29.6383L81.5672 28.4628C81.5556 28.425 81.5519 28.3852 81.5561 28.3458C81.5604 28.3065 81.5727 28.2685 81.5921 28.2341C81.6115 28.1998 81.6377 28.1699 81.6691 28.1463C81.7004 28.1227 81.7362 28.1059 81.7742 28.097C81.8495 28.0767 81.9296 28.0874 81.9972 28.1267C82.0647 28.166 82.1143 28.2308 82.135 28.3069L82.4426 29.4703C82.4524 29.5085 82.4546 29.5483 82.4492 29.5874C82.4438 29.6265 82.4308 29.6641 82.411 29.6981C82.3912 29.7321 82.365 29.7618 82.3339 29.7855C82.3028 29.8092 82.2674 29.8264 82.2297 29.8362L82.1587 29.8602ZM81.3898 26.9635C81.3248 26.9642 81.2614 26.9426 81.2099 26.9024C81.1584 26.8622 81.1218 26.8055 81.1059 26.7416L80.8042 25.5842C80.7927 25.5464 80.7889 25.5065 80.7932 25.4672C80.7974 25.4278 80.8097 25.3898 80.8291 25.3555C80.8485 25.3212 80.8747 25.2913 80.9061 25.2677C80.9374 25.2441 80.9732 25.2273 81.0112 25.2183C81.0865 25.1981 81.1666 25.2088 81.2342 25.2481C81.3017 25.2874 81.3513 25.3521 81.372 25.4282L81.6796 26.5857C81.6995 26.6636 81.6883 26.7463 81.6484 26.8159C81.6086 26.8855 81.5433 26.9364 81.4667 26.9575L81.3898 26.9635ZM80.4553 24.1688C80.4035 24.1661 80.353 24.1518 80.3074 24.1268L79.2842 23.5271C79.2182 23.486 79.1703 23.4207 79.1505 23.3448C79.1307 23.2689 79.1404 23.1881 79.1777 23.1193C79.2183 23.0508 79.2838 23.0012 79.3601 22.981C79.4363 22.9608 79.5174 22.9717 79.5858 23.0114L80.609 23.6111C80.665 23.6447 80.7084 23.6961 80.7326 23.7574C80.7569 23.8186 80.7605 23.8862 80.743 23.9497C80.7255 24.0132 80.6878 24.0691 80.6358 24.1087C80.5838 24.1483 80.5203 24.1695 80.4553 24.1688ZM77.9061 22.6575C77.8523 22.6557 77.7997 22.6414 77.7523 22.6155L76.735 22.0158C76.6973 21.9985 76.6636 21.9734 76.636 21.9421C76.6085 21.9108 76.5877 21.874 76.5751 21.834C76.5625 21.794 76.5583 21.7518 76.5628 21.7101C76.5673 21.6684 76.5803 21.6281 76.6011 21.5919C76.6219 21.5556 76.65 21.5241 76.6835 21.4996C76.7171 21.475 76.7553 21.4578 76.7958 21.4492C76.8363 21.4405 76.8781 21.4406 76.9186 21.4493C76.959 21.4581 76.9973 21.4754 77.0307 21.5001L78.0539 22.0998C78.1125 22.1318 78.1587 22.1828 78.1851 22.2447C78.2115 22.3066 78.2165 22.3757 78.1995 22.4408C78.1824 22.506 78.1441 22.5634 78.0909 22.6038C78.0377 22.6442 77.9725 22.6652 77.9061 22.6635V22.6575ZM75.351 21.1402C75.2995 21.1405 75.2488 21.1281 75.2031 21.1042L74.1799 20.5045C74.1116 20.4648 74.0618 20.3991 74.0413 20.3221C74.0207 20.2451 74.0312 20.1629 74.0705 20.0937C74.1097 20.0245 74.1744 19.974 74.2504 19.9532C74.3263 19.9324 74.4074 19.943 74.4756 19.9828L75.4988 20.5825C75.5664 20.6237 75.6153 20.69 75.6352 20.7674C75.6551 20.8447 75.6444 20.9269 75.6053 20.9963C75.5797 21.04 75.5434 21.0763 75.4998 21.1015C75.4563 21.1267 75.407 21.1401 75.3569 21.1402H75.351ZM72.7959 19.6289C72.7436 19.63 72.6921 19.6154 72.648 19.587L71.6248 18.9872C71.5565 18.9467 71.507 18.8803 71.487 18.8027C71.467 18.7251 71.4783 18.6426 71.5183 18.5734C71.5583 18.5042 71.6238 18.454 71.7003 18.4337C71.7768 18.4135 71.8582 18.4249 71.9264 18.4655L72.9437 19.0652C72.9992 19.0986 73.0424 19.1495 73.0668 19.2101C73.0911 19.2707 73.0952 19.3377 73.0784 19.4009C73.0617 19.4641 73.025 19.52 72.974 19.5601C72.9229 19.6002 72.8604 19.6223 72.7959 19.6229V19.6289ZM70.2407 18.1176C70.1885 18.118 70.1373 18.1034 70.0929 18.0757L69.0697 17.4759C69.0358 17.4567 69.0061 17.4307 68.9824 17.3996C68.9586 17.3685 68.9413 17.3329 68.9313 17.2949C68.9214 17.2568 68.9191 17.2172 68.9246 17.1782C68.93 17.1393 68.9432 17.1018 68.9632 17.0681C69.0038 16.9996 69.0693 16.95 69.1455 16.9298C69.2218 16.9096 69.3028 16.9205 69.3713 16.9602L70.3886 17.5599C70.4441 17.5933 70.4873 17.6442 70.5117 17.7048C70.536 17.7654 70.5401 17.8324 70.5233 17.8956C70.5066 17.9588 70.4699 18.0147 70.4189 18.0548C70.3678 18.0949 70.3053 18.117 70.2407 18.1176ZM67.6856 16.6063C67.6334 16.6067 67.5822 16.5922 67.5378 16.5644L66.5205 15.9646C66.4828 15.9474 66.449 15.9223 66.4215 15.8909C66.394 15.8596 66.3732 15.8228 66.3606 15.7828C66.348 15.7429 66.3438 15.7007 66.3483 15.659C66.3527 15.6172 66.3658 15.577 66.3866 15.5407C66.4074 15.5044 66.4355 15.473 66.469 15.4484C66.5025 15.4238 66.5408 15.4066 66.5813 15.398C66.6218 15.3893 66.6636 15.3894 66.7041 15.3982C66.7445 15.4069 66.7827 15.4242 66.8162 15.4489L67.8394 16.0486C67.8733 16.0679 67.9029 16.0938 67.9267 16.1249C67.9505 16.156 67.9678 16.1916 67.9777 16.2297C67.9877 16.2677 67.99 16.3074 67.9845 16.3463C67.979 16.3853 67.9659 16.4227 67.9459 16.4564C67.9196 16.5013 67.8825 16.5387 67.838 16.5649C67.7934 16.5912 67.743 16.6054 67.6915 16.6063H67.6856ZM65.1364 15.095C65.0823 15.0962 65.0289 15.0817 64.9827 15.0531L63.9653 14.4533C63.9061 14.4097 63.865 14.3453 63.8499 14.2727C63.8348 14.2 63.8468 14.1243 63.8836 14.0601C63.9204 13.9959 63.9794 13.9479 64.0491 13.9253C64.1188 13.9026 64.1944 13.907 64.2611 13.9376L65.2843 14.5373C65.3398 14.5707 65.383 14.6216 65.4073 14.6822C65.4317 14.7428 65.4358 14.8098 65.419 14.873C65.4023 14.9362 65.3656 14.9922 65.3146 15.0322C65.2635 15.0723 65.201 15.0944 65.1364 15.095ZM62.5813 13.5838C62.529 13.5848 62.4776 13.5702 62.4335 13.5418L61.4102 12.9421C61.351 12.8984 61.3099 12.834 61.2948 12.7614C61.2797 12.6887 61.2917 12.613 61.3285 12.5488C61.3653 12.4847 61.4243 12.4366 61.494 12.414C61.5637 12.3913 61.6393 12.3957 61.706 12.4263L62.7292 13.026C62.7847 13.0594 62.8279 13.1103 62.8522 13.1709C62.8766 13.2315 62.8807 13.2986 62.8639 13.3618C62.8471 13.425 62.8105 13.4809 62.7594 13.5209C62.7084 13.561 62.6459 13.5831 62.5813 13.5838ZM60.0262 12.0725C59.9745 12.0698 59.924 12.0554 59.8784 12.0305L58.8551 11.4308C58.788 11.3907 58.7391 11.3254 58.7192 11.249C58.6993 11.1727 58.7099 11.0914 58.7487 11.0229C58.7893 10.9545 58.8547 10.9048 58.931 10.8846C59.0073 10.8645 59.0883 10.8754 59.1568 10.915L60.1741 11.5147C60.2416 11.5559 60.2906 11.6223 60.3105 11.6996C60.3304 11.777 60.3196 11.8591 60.2805 11.9285C60.2545 11.9719 60.2181 12.0078 60.1746 12.033C60.1312 12.0582 60.0822 12.0717 60.0321 12.0725H60.0262ZM57.4711 10.5612C57.4194 10.5585 57.3688 10.5441 57.3232 10.5192L56.3 9.91947C56.2335 9.8773 56.1857 9.8105 56.167 9.73324C56.1482 9.65598 56.1599 9.57434 56.1995 9.50566C56.2399 9.43859 56.3048 9.39033 56.38 9.37126C56.4552 9.35219 56.5348 9.36384 56.6017 9.40371L57.6249 10.0034C57.6913 10.0457 57.7393 10.112 57.7591 10.1889C57.7789 10.2658 57.769 10.3475 57.7314 10.4172C57.7044 10.461 57.6669 10.4972 57.6225 10.5224C57.578 10.5476 57.5279 10.5609 57.477 10.5612H57.4711Z" fill="#0FBAB8"/>
<path d="M94.0951 59.4021C94.0304 59.4017 93.9675 59.3798 93.9163 59.3397C93.865 59.2996 93.8281 59.2436 93.8112 59.1802L93.5037 58.0227C93.4838 57.9448 93.495 57.8621 93.5348 57.7925C93.5747 57.7228 93.64 57.672 93.7166 57.6509C93.7543 57.641 93.7935 57.6387 93.8321 57.6442C93.8706 57.6497 93.9077 57.6628 93.9412 57.6829C93.9747 57.7029 94.004 57.7295 94.0274 57.7611C94.0508 57.7926 94.0678 57.8285 94.0774 57.8668L94.385 59.0242C94.3947 59.0624 94.397 59.1022 94.3916 59.1413C94.3862 59.1804 94.3732 59.218 94.3534 59.252C94.3336 59.286 94.3074 59.3156 94.2763 59.3393C94.2452 59.363 94.2097 59.3803 94.172 59.3901L94.0951 59.4021ZM93.3322 56.5054C93.2674 56.505 93.2046 56.4831 93.1533 56.443C93.102 56.403 93.0651 56.3469 93.0483 56.2835L92.7407 55.1261C92.7208 55.0481 92.732 54.9654 92.7719 54.8958C92.8117 54.8262 92.877 54.7753 92.9536 54.7542C92.9913 54.7443 93.0305 54.742 93.0691 54.7475C93.1076 54.753 93.1447 54.7662 93.1782 54.7862C93.2117 54.8063 93.241 54.8329 93.2644 54.8644C93.2878 54.896 93.3048 54.9319 93.3144 54.9701L93.622 56.1276C93.6318 56.1658 93.634 56.2056 93.6286 56.2447C93.6232 56.2837 93.6102 56.3213 93.5904 56.3553C93.5706 56.3893 93.5444 56.419 93.5133 56.4427C93.4822 56.4664 93.4468 56.4836 93.409 56.4934L93.3322 56.5054ZM92.5692 53.6088C92.5044 53.6084 92.4416 53.5865 92.3903 53.5464C92.339 53.5063 92.3021 53.4503 92.2853 53.3869L91.9777 52.2234C91.9581 52.1439 91.9705 52.0597 92.0121 51.9894C92.0537 51.9191 92.1211 51.8685 92.1995 51.8486C92.2779 51.8287 92.361 51.8412 92.4303 51.8834C92.4996 51.9256 92.5496 51.9939 92.5692 52.0735L92.8708 53.2309C92.8815 53.2687 92.8846 53.3083 92.88 53.3474C92.8753 53.3864 92.8629 53.4241 92.8436 53.4583C92.8243 53.4924 92.7985 53.5222 92.7676 53.546C92.7367 53.5698 92.7014 53.5871 92.6638 53.5968L92.5692 53.6088ZM91.8062 50.7121C91.7414 50.7118 91.6786 50.6898 91.6273 50.6498C91.576 50.6097 91.5391 50.5536 91.5223 50.4902L91.2147 49.3268C91.205 49.2874 91.2031 49.2465 91.209 49.2063C91.2148 49.1662 91.2285 49.1276 91.2491 49.0928C91.2697 49.058 91.2968 49.0276 91.329 49.0035C91.3612 48.9793 91.3977 48.9618 91.4365 48.9519C91.4754 48.9421 91.5157 48.9401 91.5553 48.9461C91.5949 48.9521 91.633 48.9659 91.6673 48.9868C91.7016 49.0076 91.7316 49.0352 91.7554 49.0678C91.7792 49.1004 91.7965 49.1375 91.8062 49.1768L92.1078 50.3343C92.1278 50.4106 92.1172 50.4919 92.0785 50.5603C92.0397 50.6288 91.9759 50.6791 91.9008 50.7001L91.8062 50.7121ZM91.0432 47.8155C90.9785 47.8151 90.9156 47.7932 90.8643 47.7531C90.813 47.713 90.7761 47.657 90.7593 47.5936L90.4518 46.4541C90.4318 46.3778 90.4424 46.2965 90.4811 46.228C90.5199 46.1596 90.5837 46.1093 90.6588 46.0883C90.7356 46.0681 90.8172 46.0794 90.8858 46.1199C90.9545 46.1603 91.0047 46.2265 91.0255 46.3042L91.3271 47.4616C91.3471 47.538 91.3365 47.6192 91.2978 47.6877C91.259 47.7562 91.1952 47.8064 91.1201 47.8275L91.0432 47.8155ZM90.2802 44.9188C90.2147 44.9188 90.151 44.8971 90.0987 44.857C90.0464 44.817 90.0084 44.7608 89.9904 44.6969L89.6888 43.5335C89.6787 43.4941 89.6763 43.4531 89.6819 43.4128C89.6874 43.3725 89.7007 43.3337 89.721 43.2986C89.7413 43.2635 89.7683 43.2328 89.8003 43.2083C89.8323 43.1838 89.8688 43.1659 89.9076 43.1556C89.9464 43.1454 89.9869 43.143 90.0266 43.1486C90.0664 43.1542 90.1046 43.1677 90.1392 43.1883C90.1738 43.2089 90.2041 43.2363 90.2283 43.2687C90.2525 43.3012 90.2701 43.3382 90.2802 43.3775L90.5878 44.541C90.6077 44.6173 90.5972 44.6986 90.5584 44.7671C90.5197 44.8355 90.4558 44.8858 90.3808 44.9068L90.2802 44.9188ZM89.5173 42.0222C89.451 42.0218 89.3866 41.9992 89.3343 41.958C89.2819 41.9168 89.2443 41.8593 89.2274 41.7943L88.9258 40.6368C88.9054 40.5573 88.917 40.4728 88.958 40.402C88.9991 40.3311 89.0662 40.2797 89.1446 40.259C89.2231 40.2383 89.3064 40.2501 89.3763 40.2917C89.4461 40.3333 89.4969 40.4014 89.5173 40.4809L89.8248 41.6444C89.8448 41.7207 89.8342 41.8019 89.7955 41.8704C89.7567 41.9389 89.6929 41.9891 89.6178 42.0102L89.5173 42.0222ZM88.7484 39.1195C88.6833 39.1202 88.62 39.0987 88.5685 39.0584C88.517 39.0182 88.4804 38.9615 88.4644 38.8976L88.1628 37.7402C88.1521 37.7024 88.149 37.6628 88.1537 37.6237C88.1583 37.5847 88.1707 37.547 88.19 37.5129C88.2093 37.4787 88.2352 37.4489 88.2661 37.4251C88.2969 37.4013 88.3322 37.3841 88.3698 37.3743C88.4451 37.3541 88.5252 37.3648 88.5928 37.4041C88.6603 37.4434 88.7098 37.5081 88.7306 37.5842L89.0382 38.7477C89.0479 38.7859 89.0502 38.8257 89.0448 38.8648C89.0394 38.9038 89.0264 38.9415 89.0066 38.9754C88.9868 39.0094 88.9606 39.0391 88.9295 39.0628C88.8984 39.0865 88.8629 39.1037 88.8252 39.1135L88.7484 39.1195ZM87.9854 36.2229C87.9204 36.2235 87.857 36.202 87.8055 36.1618C87.754 36.1215 87.7174 36.0649 87.7015 36.001L87.3939 34.8435C87.3838 34.8041 87.3815 34.7631 87.387 34.7228C87.3925 34.6825 87.4058 34.6437 87.4262 34.6087C87.4465 34.5736 87.4734 34.5429 87.5054 34.5184C87.5374 34.4938 87.5739 34.4759 87.6128 34.4657C87.6516 34.4555 87.692 34.4531 87.7318 34.4587C87.7715 34.4643 87.8098 34.4778 87.8444 34.4984C87.879 34.519 87.9092 34.5463 87.9334 34.5788C87.9576 34.6112 87.9753 34.6482 87.9854 34.6876L88.2929 35.8511C88.3027 35.8893 88.3049 35.929 88.2995 35.9681C88.2941 36.0072 88.2811 36.0448 88.2614 36.0788C88.2416 36.1128 88.2154 36.1425 88.1843 36.1662C88.1531 36.1899 88.1177 36.2071 88.08 36.2169L87.9854 36.2229ZM87.2224 33.3262C87.1574 33.3269 87.094 33.3054 87.0425 33.2651C86.9911 33.2249 86.9544 33.1682 86.9385 33.1043L86.6309 31.9469C86.6105 31.8673 86.6221 31.7829 86.6632 31.712C86.7042 31.6412 86.7713 31.5897 86.8498 31.5691C86.9282 31.5484 87.0115 31.5601 87.0814 31.6017C87.1513 31.6434 87.202 31.7114 87.2224 31.791L87.5299 32.9484C87.5498 33.0263 87.5386 33.1091 87.4988 33.1787C87.4589 33.2483 87.3936 33.2991 87.317 33.3202L87.2224 33.3262Z" fill="#A8CFF0"/>
<path d="M86.424 33.98C86.3854 33.9771 86.3477 33.9662 86.3132 33.9482C86.2788 33.9302 86.2482 33.9054 86.2234 33.8752C86.1986 33.845 86.18 33.81 86.1688 33.7724C86.1575 33.7348 86.1538 33.6953 86.1579 33.6562L86.353 31.2573C86.3581 31.1999 86.3794 31.1452 86.4144 31.0998C86.4494 31.0544 86.4965 31.0201 86.5502 31.0011C86.6038 30.9821 86.6618 30.9792 86.717 30.9928C86.7722 31.0063 86.8225 31.0357 86.8617 31.0774L88.4409 32.7746C88.495 32.8327 88.5241 32.9101 88.5219 32.99C88.5197 33.0699 88.4863 33.1455 88.429 33.2004C88.3718 33.2553 88.2954 33.2849 88.2166 33.2826C88.1379 33.2804 88.0632 33.2465 88.0091 33.1884L86.8853 31.989L86.7434 33.7222C86.7345 33.7992 86.6959 33.8695 86.6361 33.9178C86.5763 33.9661 86.5 33.9885 86.424 33.98Z" fill="#A8CFF0"/>
</svg>
