<svg width="94" height="94" viewBox="0 0 94 94" fill="none" xmlns="http://www.w3.org/2000/svg">
<circle cx="47" cy="47" r="47" fill="#1072FF"/>
<path d="M66.036 53.2337L60.9386 59.8997C59.9186 61.2334 58.3354 62.0158 56.6564 62.0158H47.1914C46.4471 62.0158 45.8438 61.4124 45.8438 60.6681C45.8438 59.9239 46.4471 59.3205 47.1914 59.3205H55.3949C57.1581 59.3205 58.6347 57.8775 58.601 56.1146C58.5683 54.4062 57.1732 53.0314 55.457 53.0314H46.0234C43.3149 50.4271 39.1352 50.1224 36.0776 52.3064L35.0625 53.0314V68.3048H44.0469H45.8438H58.4995C61.2509 68.3048 63.8134 66.9058 65.3012 64.5914L70.5606 56.4102C70.8474 55.9639 70.9999 55.4447 70.9999 54.9142C71 52.2686 67.643 51.1322 66.036 53.2337Z" fill="white"/>
<path d="M31.0195 50.3359H26.3477C25.6034 50.3359 25 50.9393 25 51.6836V69.6523C25 70.3966 25.6034 71 26.3477 71H31.0195C31.7638 71 32.3672 70.3966 32.3672 69.6523V51.6836C32.3672 50.9393 31.7638 50.3359 31.0195 50.3359Z" fill="white"/>
<path d="M50.7222 32.4487C50.448 32.659 50.2969 32.9773 50.2449 33.2534C50.1731 33.6342 50.264 33.988 50.4765 34.1546C50.5513 34.2133 50.6338 34.2709 50.7222 34.3276V32.4487Z" fill="white"/>
<path d="M51.6836 47.4609C57.8761 47.4609 62.9141 42.4229 62.9141 36.2305C62.9141 30.038 57.8761 25 51.6836 25C45.4911 25 40.4531 30.038 40.4531 36.2305C40.4531 42.4229 45.4911 47.4609 51.6836 47.4609ZM48.284 39.9023C48.5555 39.4872 49.1124 39.3704 49.5277 39.6423C50.0129 39.9597 50.3171 40.0973 50.7232 40.1544V36.3602C50.1493 36.0972 49.7204 35.8441 49.3685 35.5681C48.6229 34.9833 48.2825 33.9687 48.48 32.9202C48.6953 31.7775 49.4907 30.8684 50.5556 30.5477C50.612 30.5307 50.6678 30.5151 50.7232 30.5005V29.9414C50.7232 29.4453 51.1255 29.043 51.6216 29.043C52.1177 29.043 52.52 29.4453 52.52 29.9414V30.402C53.3923 30.5531 54.0088 30.9825 54.3075 31.3253C54.6334 31.6994 54.5943 32.2669 54.2202 32.5928C53.848 32.9169 53.2846 32.8801 52.9578 32.5115C52.9373 32.4907 52.7945 32.3533 52.52 32.252V35.155C52.6795 35.2142 52.8389 35.2717 52.9953 35.327C54.5746 35.8853 55.453 37.3472 55.1811 38.9649C54.9697 40.2222 54.0129 41.4974 52.52 41.8761V42.5195C52.52 43.0156 52.1177 43.418 51.6216 43.418C51.1255 43.418 50.7232 43.0156 50.7232 42.5195V41.9623C49.9978 41.8996 49.3964 41.7037 48.544 41.146C48.1287 40.8743 48.0124 40.3176 48.284 39.9023Z" fill="white"/>
<path d="M53.4086 38.6673C53.4677 38.3161 53.4918 37.4792 52.5195 37.0698V39.9557C53.0249 39.6662 53.3268 39.1543 53.4086 38.6673Z" fill="white"/>
</svg>
