<svg width="94" height="94" viewBox="0 0 94 94" fill="none" xmlns="http://www.w3.org/2000/svg">
<circle cx="47" cy="47" r="47" fill="#1072FF"/>
<g clip-path="url(#clip0)">
<path d="M71.8391 44.6685C71.7586 43.9517 70.9225 43.4124 70.1995 43.4124C67.8629 43.4124 65.7892 42.041 64.9196 39.9184C64.0318 37.7448 64.6046 35.2104 66.3455 33.6133C66.8938 33.112 66.9606 32.2726 66.5009 31.6899C65.3046 30.1711 63.9456 28.799 62.4612 27.61C61.8805 27.1442 61.0272 27.209 60.5232 27.7668C59.0033 29.4501 56.2731 30.0756 54.1632 29.1954C51.9685 28.2719 50.5831 26.0471 50.7192 23.6592C50.764 22.9086 50.2153 22.2564 49.4674 22.1693C47.5624 21.9487 45.6407 21.9423 43.7302 22.1543C42.9918 22.2359 42.4435 22.8727 42.468 23.6137C42.5507 25.9783 41.1497 28.1638 38.9761 29.0542C36.8916 29.9058 34.1803 29.2849 32.6636 27.6164C32.1622 27.0668 31.3239 26.9993 30.7392 27.4552C29.2112 28.6543 27.8215 30.0273 26.6141 31.5337C26.1437 32.1193 26.2132 32.968 26.7661 33.4711C28.5414 35.0787 29.1137 37.635 28.192 39.8339C27.312 41.9303 25.1353 43.2808 22.6437 43.2808C21.8351 43.2547 21.2597 43.798 21.1704 44.5333C20.9463 46.4484 20.9439 48.4008 21.1596 50.3315C21.2401 51.0514 22.1009 51.5861 22.8318 51.5861C25.0528 51.5296 27.1838 52.9037 28.0791 55.0799C28.9699 57.2535 28.3965 59.7868 26.6527 61.3861C26.1073 61.8874 26.0376 62.7248 26.4981 63.3069C27.6823 64.8162 29.0427 66.1891 30.5315 67.3883C31.1159 67.859 31.966 67.793 32.4726 67.2346C33.9984 65.5473 36.7282 64.9229 38.8295 65.8049C41.0306 66.726 42.4153 68.9505 42.2801 71.3391C42.2357 72.0897 42.7858 72.7438 43.5311 72.829C44.5059 72.943 45.4859 72.9995 46.4689 72.9995C47.4018 72.9995 48.335 72.9485 49.2682 72.8446C50.0075 72.763 50.5549 72.1256 50.53 71.3843C50.4446 69.0208 51.8487 66.8351 54.0196 65.9465C56.118 65.0894 58.8172 65.7167 60.3348 67.3828C60.8388 67.9313 61.6721 67.9979 62.2592 67.5438C63.7846 66.3477 65.1717 64.9754 66.3843 63.465C66.8552 62.8805 66.7883 62.0307 66.2323 61.5268C64.4575 59.9202 63.8821 57.3629 64.8038 55.1661C65.6701 53.098 67.7658 51.7093 70.0199 51.7093L70.3353 51.7177C71.0671 51.7771 71.7396 51.2135 71.8281 50.467C72.0532 48.5501 72.0557 46.5999 71.8391 44.6685ZM46.4995 62.2006C38.3802 62.2006 31.7986 55.6189 31.7986 47.4998C31.7986 39.3807 38.3804 32.799 46.4995 32.799C54.6187 32.799 61.2005 39.3807 61.2005 47.4998C61.2005 50.2557 60.4407 52.8333 59.1211 55.0375L52.684 48.6002C53.15 47.5013 53.3961 46.3101 53.3959 45.0807C53.3959 42.6734 52.4583 40.4102 50.7558 38.7082C49.0538 37.0062 46.7907 36.0688 44.3837 36.0688C43.5805 36.0688 42.781 36.1755 42.0075 36.3862C41.6687 36.4786 41.3917 36.7578 41.3015 37.0972C41.2093 37.4444 41.3131 37.8002 41.5844 38.0717C41.5844 38.0717 44.7624 41.2741 45.8257 42.3372C45.9371 42.4486 45.9369 42.7144 45.9212 42.8101L45.9113 42.88C45.8041 44.049 45.5975 45.4522 45.427 45.9914C45.404 46.0141 45.3824 46.0333 45.359 46.0567C45.3346 46.0812 45.3121 46.1048 45.2885 46.129C44.7421 46.3044 43.3173 46.5135 42.1299 46.6198L42.1301 46.6134L42.0767 46.6268C42.0672 46.6279 42.0496 46.6293 42.0262 46.6293C41.8978 46.6293 41.709 46.5933 41.5375 46.4219C40.4307 45.3152 37.3773 42.2836 37.3773 42.2836C37.1034 42.0106 36.8224 41.9532 36.6351 41.9532C36.1987 41.9532 35.8078 42.2686 35.6848 42.721C34.8442 45.8315 35.7353 49.1774 38.0108 51.4531C39.7132 53.1553 41.9766 54.0927 44.384 54.0927C45.6133 54.0927 46.8046 53.8468 47.9032 53.3807L54.4102 59.8878C52.1257 61.3497 49.4129 62.2006 46.4995 62.2006Z" fill="white"/>
</g>
<defs>
<clipPath id="clip0">
<rect width="51" height="51" fill="white" transform="translate(21 22)"/>
</clipPath>
</defs>
</svg>
