<svg width="131" height="66" viewBox="0 0 131 66" fill="none" xmlns="http://www.w3.org/2000/svg">
<path d="M19.5321 42.2956C19.5321 42.2956 17.6101 43.4649 20.87 43.7999C24.7857 44.3002 26.885 44.2176 31.2294 43.3822C31.2294 43.3822 32.3987 44.1327 33.9868 44.7201C24.2114 48.8969 11.8473 44.4699 19.5332 42.2978L19.5321 42.2956ZM18.279 36.8657C18.279 36.8657 16.1906 38.4538 19.4483 38.7877C23.7089 39.2054 27.0623 39.288 32.8164 38.1198C32.8164 38.1198 33.5669 38.9552 34.8211 39.3729C23.041 42.8819 9.84048 39.7068 18.279 36.8668V36.8657ZM41.3387 46.3898C41.3387 46.3898 42.7592 47.5591 39.7506 48.4782C34.1532 50.1489 16.2743 50.6504 11.261 48.4782C9.50655 47.7276 12.8491 46.6291 13.9347 46.4735C15.0224 46.2233 15.6054 46.2233 15.6054 46.2233C13.6845 44.8854 2.82251 48.9807 10.0907 50.1391C30.0579 53.3968 46.5162 48.7186 41.3365 46.38L41.3387 46.3898ZM20.4501 31.1845C20.4501 31.1845 11.3437 33.3567 17.1913 34.1083C19.6974 34.4422 24.6269 34.3585 29.2215 34.0246C32.9806 33.6906 36.7409 33.0217 36.7409 33.0217C36.7409 33.0217 35.403 33.6069 34.4849 34.191C25.211 36.6133 7.41595 35.5289 12.513 33.0217C16.8574 30.9333 20.4501 31.1726 20.4501 31.1726V31.1845ZM36.742 40.2909C46.0985 35.4451 41.7542 30.7668 38.7466 31.352C37.9961 31.5195 37.6589 31.686 37.6589 31.686C37.6589 31.686 37.9091 31.1856 38.4943 31.0181C44.4256 28.9297 49.105 37.2834 36.5723 40.5422C36.5723 40.5422 36.656 40.4584 36.7398 40.292L36.742 40.2909ZM21.3703 53.4904C30.3929 54.0756 44.1798 53.1565 44.5126 48.8959C44.5126 48.8959 43.8448 50.5666 37.077 51.8197C29.3912 53.2402 19.8671 53.0727 14.2675 52.1536C14.2675 52.1536 15.4368 53.1565 21.3703 53.4915V53.4904Z" fill="#4E7896"/>
<path d="M31.0593 3.61401C31.0593 3.61401 36.239 8.87858 26.1298 16.8146C18.0263 23.2474 24.2806 26.9238 26.1298 31.1007C21.3677 26.8401 17.9425 23.0809 20.2811 19.5709C23.7074 14.3911 33.1466 11.885 31.0582 3.61401H31.0593ZM28.3857 27.5917C30.808 30.3491 27.7167 32.8563 27.7167 32.8563C27.7167 32.8563 33.8993 29.6801 31.0582 25.7535C28.4694 21.9943 26.4637 20.1561 37.3235 13.8897C37.3235 13.8897 20.1963 18.1503 28.3846 27.5906L28.3857 27.5917Z" fill="#F58219"/>
<path d="M81.9243 37.5096V24.8083C81.9243 21.5669 80.11 19.3654 75.5742 19.3654C72.9821 19.3654 70.7773 20.0136 68.8347 20.7903L69.483 23.1234C70.9079 22.6046 72.7244 22.0868 74.667 22.0868C77.1296 22.0868 78.2957 23.1234 78.2957 25.1977V26.8837H77.01C70.7882 26.8837 67.9384 29.2168 67.9384 32.9749C67.9384 36.0858 69.8821 37.9001 73.3813 37.9001C75.5851 37.9001 77.2699 36.8635 78.8243 35.5669L79.0832 37.5107H81.933L81.9243 37.5096ZM78.2935 33.3632C76.9991 34.5292 75.572 35.1775 74.2754 35.1775C72.5895 35.1775 71.554 34.1409 71.554 32.3277C71.554 30.5145 72.5906 29.2168 76.738 29.2168H78.2935V33.3643V33.3632ZM94.1046 37.5107H89.5688L84.1269 19.7558H88.0155L91.3853 30.6439L92.163 33.8853C93.849 29.219 95.1433 24.4243 95.6622 19.7591H99.5497C98.5131 25.5915 96.6999 31.9416 94.1067 37.5139L94.1046 37.5107ZM115.1 37.5107V24.8083C115.1 21.5669 113.285 19.3654 108.747 19.3654C106.155 19.3654 103.953 20.0136 102.008 20.7903L102.527 23.1234C104.082 22.6046 105.897 22.0868 107.84 22.0868C110.303 22.0868 111.469 23.1234 111.469 25.1977V26.8837H110.175C103.953 26.8837 101.103 29.2168 101.103 32.9749C101.103 36.0858 102.917 37.9001 106.416 37.9001C108.75 37.9001 110.435 36.8635 111.989 35.5669L112.248 37.5107H115.098H115.1ZM111.471 33.3632C110.177 34.5292 108.75 35.1775 107.453 35.1775C105.767 35.1775 104.732 34.1409 104.732 32.3277C104.732 30.5145 105.768 29.2168 109.916 29.2168H111.471V33.3643V33.3632ZM63.9073 40.491C62.8707 42.0465 61.3153 43.2125 59.3715 43.8608L57.6855 41.7876C58.9821 41.0099 60.2776 39.8438 60.7964 38.8072C61.3153 37.9001 61.4447 36.6035 61.4447 33.6232V13.4036H65.3333V33.3632C65.3333 37.3812 64.9439 38.9356 63.9084 40.491H63.9073Z" fill="#4E7896"/>
</svg>
