<svg width="120" height="63" viewBox="0 0 120 63" fill="none" xmlns="http://www.w3.org/2000/svg">
<g clip-path="url(#clip0)">
<path d="M0 56.8134H3.94176V41.1575L10.044 54.8108C10.7637 56.4566 11.7499 57.048 13.6825 57.048C15.6151 57.048 16.5628 56.4631 17.2837 54.8108L23.3865 41.1575V56.8193H27.3288V41.1834C27.3288 39.658 26.7212 38.9203 25.471 38.5394C22.4769 37.5988 20.4677 38.4124 19.5587 40.4462L13.5704 53.9208L7.77018 40.4404C6.89852 38.4065 4.85198 37.593 1.85783 38.5335C0.606425 38.915 0 39.6527 0 41.1775V56.8134ZM30.6052 44.066H34.5458V52.6952C34.509 53.1643 34.6953 54.2647 36.8546 54.2982C37.9565 54.3158 45.3574 54.2982 45.4264 54.2982V44.0231H49.3757C49.3932 44.0231 49.3716 58.0332 49.3722 58.0931C49.3938 61.5483 45.1109 62.299 43.1374 62.3572H30.6911V59.6885L43.1596 59.6879C45.6963 59.4175 45.3971 58.1496 45.3971 57.7222V56.6818H37.0194C33.1214 56.6465 30.6396 54.9342 30.6087 52.965C30.6058 52.7887 30.6928 44.1507 30.6063 44.0654L30.6052 44.066Z" fill="#00618A"/>
<path d="M52.416 56.8133H63.7488C65.075 56.8133 66.3644 56.5341 67.3885 56.0503C69.0944 55.2627 69.9281 54.1946 69.9281 52.7962V49.8982C69.9281 48.7537 68.9805 47.6863 67.1239 46.9744C66.1383 46.5923 64.9254 46.3895 63.7505 46.3895H58.9745C57.3831 46.3895 56.6248 45.9064 56.4355 44.8389C56.3975 44.7119 56.3975 44.6038 56.3975 44.4827V42.6781C56.3975 42.5764 56.3975 42.4741 56.4355 42.3471C56.6248 41.5336 57.0419 41.3043 58.444 41.1715C58.558 41.1715 58.7093 41.1456 58.8238 41.1456H70.0806V38.5022H59.0131C57.4211 38.5022 56.5874 38.6039 55.8291 38.8326C53.477 39.5703 52.4534 40.7459 52.4534 42.7798V45.0934C52.4534 46.8733 54.4631 48.3987 57.8353 48.7543C58.215 48.7796 58.5936 48.8049 58.9722 48.8049H63.0658C63.2177 48.8049 63.3696 48.8049 63.483 48.8308C64.7332 48.9324 65.2649 49.1611 65.6434 49.6184C65.8771 49.8536 65.9472 50.0769 65.9472 50.3238V52.6375C65.9472 52.9173 65.7579 53.2735 65.3788 53.578C65.0376 53.8836 64.4691 54.0864 63.7108 54.1376C63.5589 54.1376 63.4456 54.1629 63.2943 54.1629H52.416V56.8069V56.8133ZM94.5175 52.2119C94.5175 54.9323 96.5261 56.4577 100.582 56.7628C100.96 56.7922 101.339 56.8091 101.719 56.8133H111.991V54.1693H101.643C99.331 54.1693 98.4587 53.5844 98.4587 52.186V38.5075H94.517V52.2107L94.5175 52.2119ZM72.4426 52.3494V42.9238C72.4426 40.529 74.1135 39.0765 77.4179 38.618C77.7703 38.5674 78.1258 38.5418 78.4818 38.5416H85.9639C86.3325 38.5418 86.7006 38.5673 87.0658 38.618C90.3701 39.0765 92.041 40.5284 92.041 42.9238V52.3494C92.041 54.2922 91.3312 55.332 89.6954 56.0098L93.5781 59.5367H89.0013L85.8599 56.6834L82.6975 56.885H78.4818C77.7602 56.885 77.0007 56.7828 76.1647 56.5535C73.6526 55.8658 72.4432 54.5408 72.4432 52.3494H72.4426ZM76.6975 52.1143C76.6975 52.2419 76.7355 52.3688 76.7735 52.5223C77.0072 53.6179 78.0266 54.2293 79.5778 54.2293H83.1591L79.8699 51.2414H84.4467L87.3094 53.8472C87.8381 53.5639 88.1857 53.1301 88.3026 52.5734C88.3405 52.4464 88.3405 52.3189 88.3405 52.1913V43.1536C88.3405 43.0519 88.3405 42.9185 88.3026 42.7968C88.0689 41.7781 87.0488 41.1921 85.5298 41.1921H79.5848C77.8321 41.1921 76.6987 41.9562 76.6987 43.1536V52.1214L76.6975 52.1143Z" fill="#E48E00"/>
<path d="M115.456 34.1214C113.033 34.0556 111.182 34.2819 109.6 34.9532C109.15 35.1442 108.433 35.1489 108.36 35.7161C108.607 35.9766 108.646 36.3657 108.842 36.686C109.22 37.3015 109.858 38.1262 110.427 38.5577C111.048 39.0297 111.688 39.5352 112.356 39.9449C113.542 40.6726 114.866 41.0882 116.008 41.8165C116.681 42.2456 117.349 42.7864 118.006 43.272C118.33 43.5118 118.549 43.8845 118.97 44.0344V43.965C118.748 43.6811 118.691 43.2908 118.488 42.9951L117.592 42.094C116.716 40.9183 115.605 39.8973 114.423 39.0432C113.48 38.3625 111.371 37.4432 110.977 36.3392L110.909 36.2699C111.577 36.1935 112.359 35.9507 112.977 35.7849C114.013 35.5057 114.939 35.5774 116.009 35.3L117.456 34.8838V34.6063C116.915 34.0479 116.529 33.309 115.94 32.8041C114.398 31.4815 112.713 30.1618 110.98 29.0597C110.018 28.4484 108.83 28.0522 107.81 27.5343C107.467 27.3603 106.865 27.2698 106.639 26.9794C106.104 26.2928 105.812 25.4217 105.399 24.6281C104.535 22.9528 103.685 21.1224 102.919 19.3595C102.396 18.1574 102.054 16.9718 101.403 15.8931C98.2747 10.718 94.9067 7.59433 89.6907 4.52474C88.5807 3.87226 87.2446 3.61362 85.8319 3.2768L83.5581 3.13808C83.0954 2.9441 82.614 2.37391 82.1793 2.09764C80.4512 0.998417 76.0187 -1.38989 74.7387 1.74495C73.9307 3.72766 75.9463 5.66217 76.6678 6.66734C77.1737 7.37272 77.8222 8.16216 78.1832 8.95513C78.421 9.47593 78.4625 9.9985 78.6658 10.5499C79.1665 11.9019 79.6023 13.3849 80.2502 14.6399C80.5774 15.2748 80.9384 15.9437 81.3527 16.5115C81.6068 16.8601 82.042 17.0135 82.1104 17.552C81.6851 18.1515 81.6606 19.0803 81.421 19.8398C80.3443 23.2562 80.7503 27.502 82.3166 30.0308C82.7974 30.8067 83.9291 32.4714 85.486 31.833C86.8473 31.2746 86.5377 29.5464 86.9332 28.0204C87.0208 27.6736 86.9671 27.4209 87.14 27.1887V27.258L88.3803 29.7533C89.2975 31.2405 90.9275 32.7953 92.3075 33.8445C93.0231 34.3883 93.5927 35.3288 94.5123 35.6468V35.5774H94.4434C94.264 35.2953 93.9836 35.1795 93.754 34.9543C93.2148 34.4224 92.6148 33.7611 92.169 33.1521C90.9129 31.4368 89.804 29.5605 88.7933 27.606C88.3108 26.6731 87.8907 25.6439 87.4847 24.6946C87.3281 24.3283 87.3299 23.7752 87.0027 23.5853C86.5569 24.2813 85.9003 24.8433 85.5556 25.665C85.0041 26.9782 84.9328 28.5794 84.7289 30.2406C84.608 30.2841 84.6617 30.2541 84.591 30.31C83.6317 30.0772 83.294 29.0832 82.9377 28.2303C82.0356 26.073 81.8685 22.6013 82.6619 20.1196C82.8664 19.4777 83.7953 17.4544 83.4196 16.8613C83.2403 16.2694 82.6485 15.9208 82.3172 15.474C81.9083 14.9156 81.4981 14.1785 81.2148 13.5331C80.4763 11.8519 80.1316 9.965 79.3546 8.26444C78.9831 7.45207 78.3556 6.6303 77.8391 5.91317C77.2678 5.11373 76.628 4.52356 76.1858 3.56189C76.028 3.21802 75.8142 2.66841 76.0479 2.31395C76.0702 2.21211 76.121 2.11882 76.1943 2.04508C76.2676 1.97134 76.3603 1.92023 76.4615 1.89778C76.8612 1.588 77.9747 2.00065 78.3906 2.17523C79.4948 2.63725 80.4179 3.07694 81.3538 3.70062C81.8037 3.99453 82.2576 4.57999 82.8004 4.74106H83.4196C84.3895 4.9656 85.4761 4.81159 86.3817 5.08787C87.9836 5.57752 89.4185 6.33992 90.7224 7.16757C94.694 9.69049 97.9405 13.2821 100.162 17.572C100.519 18.2615 100.674 18.9204 100.988 19.6517C101.623 21.1212 102.423 22.6454 103.055 24.0879C103.686 25.5281 104.3 26.98 105.191 28.178C105.66 28.8069 107.47 29.1455 108.292 29.4947C108.868 29.7398 109.813 29.9955 110.359 30.3264C111.402 30.9595 112.412 31.7137 113.391 32.4073C113.88 32.7541 115.383 33.5142 115.458 34.1402L115.456 34.1214Z" fill="#00618A"/>
<path fill-rule="evenodd" clip-rule="evenodd" d="M84.6602 7.70943C84.1549 7.70002 83.7979 7.76468 83.4199 7.84815V7.91752H83.4889C83.7296 8.41599 84.1549 8.73635 84.4528 9.16545L85.1422 10.6209L85.2112 10.5515C85.6376 10.2488 85.8334 9.76503 85.8304 9.02614C85.6593 8.84509 85.6341 8.61819 85.4857 8.40188C85.2889 8.11385 84.9015 7.95043 84.6591 7.70825L84.6602 7.70943Z" fill="#00618A"/>
<path fill-rule="evenodd" clip-rule="evenodd" d="M113.84 54.0943C113.84 55.8401 115.211 57.0169 116.745 57.0169C118.278 57.0169 119.649 55.8401 119.649 54.0943C119.649 52.3484 118.278 51.1716 116.745 51.1716C115.211 51.1716 113.84 52.3484 113.84 54.0943ZM118.999 54.0943C118.999 55.4192 117.992 56.4091 116.743 56.4091C115.482 56.4091 114.488 55.4192 114.488 54.0943C114.488 52.7693 115.48 51.7794 116.743 51.7794C117.991 51.7794 118.999 52.7693 118.999 54.0943ZM117.526 55.7625H118.177L117.224 54.2976C117.735 54.243 118.122 53.9932 118.122 53.3854C118.122 52.707 117.696 52.4272 116.875 52.4272H115.581V55.7631H116.139V54.3212H116.658L117.526 55.7631L117.526 55.7625ZM116.139 53.8521V52.8939H116.782C117.115 52.8939 117.518 52.9562 117.518 53.3466C117.518 53.8139 117.154 53.8533 116.735 53.8533H116.139V53.8521Z" fill="#E48E00"/>
</g>
<defs>
<clipPath id="clip0">
<rect width="119.649" height="62.5439" fill="white"/>
</clipPath>
</defs>
</svg>
