<svg width="113" height="68" viewBox="0 0 113 68" fill="none" xmlns="http://www.w3.org/2000/svg">
<g clip-path="url(#clip0)">
<path d="M55.5647 67.9799C55.191 67.9801 54.8238 67.8832 54.5001 67.6989L51.1107 65.7191C50.6025 65.4406 50.8566 65.3402 51.0192 65.2825C51.5546 65.1175 52.0668 64.8865 52.5437 64.595C52.5841 64.5759 52.6288 64.5677 52.6734 64.5713C52.7181 64.5748 52.7609 64.5899 52.7977 64.615L55.3995 66.1407C55.4479 66.1666 55.502 66.1801 55.5571 66.1801C55.6121 66.1801 55.6662 66.1666 55.7146 66.1407L65.8651 60.3544C65.9124 60.3262 65.9516 60.2865 65.9787 60.239C66.0059 60.1915 66.0201 60.1379 66.0201 60.0834V48.5159C66.0203 48.4603 66.0058 48.4057 65.9782 48.3573C65.9506 48.309 65.9108 48.2685 65.8626 48.2398L55.7171 42.4686C55.6696 42.4415 55.6157 42.4273 55.5609 42.4273C55.506 42.4273 55.4521 42.4415 55.4046 42.4686L45.2592 48.2398C45.2105 48.2682 45.1702 48.3085 45.1421 48.3569C45.114 48.4053 45.0992 48.4601 45.0991 48.5159V60.0834C45.099 60.1382 45.1138 60.192 45.142 60.2392C45.1701 60.2865 45.2106 60.3254 45.2592 60.3519L48.0388 61.9377C49.5481 62.6905 50.4729 61.8047 50.4729 60.934V49.502C50.4729 49.4639 50.4806 49.4261 50.4954 49.391C50.5102 49.3558 50.532 49.3239 50.5594 49.297C50.5868 49.2702 50.6193 49.249 50.655 49.2347C50.6908 49.2203 50.7291 49.2131 50.7676 49.2134H52.0533C52.0919 49.2131 52.1301 49.2203 52.1659 49.2347C52.2016 49.249 52.2341 49.2702 52.2615 49.297C52.2889 49.3239 52.3107 49.3558 52.3255 49.391C52.3404 49.4261 52.348 49.4639 52.348 49.502V60.924C52.348 62.9138 51.2529 64.053 49.3423 64.053C48.7553 64.053 48.2954 64.053 47.0047 63.4257L44.3419 61.9201C44.0184 61.7333 43.75 61.4663 43.5632 61.1454C43.3765 60.8245 43.2779 60.461 43.2773 60.0909V48.5234C43.2774 48.1535 43.3757 47.7901 43.5625 47.4696C43.7493 47.149 44.0181 46.8825 44.3419 46.6967L54.4874 40.8953C54.8147 40.7188 55.1816 40.6262 55.5545 40.6262C55.9274 40.6262 56.2944 40.7188 56.6217 40.8953L66.7722 46.6891C67.0958 46.8751 67.3645 47.1417 67.5513 47.4622C67.7381 47.7828 67.8365 48.146 67.8368 48.5159V60.0834C67.8359 60.4534 67.7373 60.8168 67.5506 61.1377C67.3638 61.4585 67.0955 61.7256 66.7722 61.9126L56.6217 67.6989C56.3001 67.8817 55.9358 67.9786 55.5647 67.9799Z" fill="#679E63"/>
<path d="M58.6877 60.0107C54.2464 60.0107 53.3164 58.0033 53.3164 56.3095C53.3161 56.2716 53.3234 56.2339 53.338 56.1987C53.3525 56.1636 53.374 56.1316 53.4012 56.1048C53.4284 56.0779 53.4608 56.0566 53.4964 56.0423C53.532 56.0279 53.5701 56.0206 53.6086 56.021H54.9222C54.9935 56.0204 55.0626 56.0456 55.1164 56.0918C55.1703 56.138 55.2051 56.2021 55.2144 56.2719C55.4126 57.5918 56.0021 58.2592 58.6877 58.2592C60.827 58.2592 61.7366 57.7799 61.7366 56.6608C61.7366 56.0135 61.4826 55.5342 58.1567 55.213C55.3796 54.942 53.662 54.3348 53.662 52.1417C53.662 50.1193 55.3872 48.9124 58.2812 48.9124C61.5334 48.9124 63.1417 50.0264 63.345 52.4253C63.3485 52.4653 63.3436 52.5056 63.3305 52.5436C63.3173 52.5816 63.2963 52.6165 63.2688 52.6461C63.2411 52.6753 63.2076 52.6986 63.1705 52.7145C63.1333 52.7305 63.0933 52.7388 63.0528 52.7389H61.7366C61.6703 52.7388 61.606 52.7163 61.5543 52.6753C61.5025 52.6343 61.4665 52.577 61.4521 52.5131C61.1345 51.1255 60.3672 50.6814 58.2812 50.6814C55.9462 50.6814 55.6743 51.4843 55.6743 52.0865C55.6743 52.8142 55.9944 53.0275 59.1476 53.439C62.3007 53.8505 63.749 54.4226 63.749 56.5881C63.749 58.7535 61.917 60.0107 58.6877 60.0107Z" fill="#679E63"/>
<path d="M73.325 47.8784C73.325 48.2605 73.2102 48.6341 72.9952 48.9518C72.7803 49.2695 72.4747 49.5172 72.1172 49.6634C71.7597 49.8097 71.3664 49.8479 70.9869 49.7734C70.6073 49.6988 70.2587 49.5148 69.9851 49.2446C69.7115 48.9744 69.5252 48.6301 69.4497 48.2553C69.3742 47.8805 69.413 47.4921 69.561 47.139C69.7091 46.786 69.9599 46.4842 70.2816 46.2719C70.6033 46.0596 70.9816 45.9463 71.3685 45.9463C71.887 45.9476 72.3838 46.1516 72.7505 46.5137C73.1171 46.8757 73.3236 47.3664 73.325 47.8784ZM69.7272 47.8784C69.7262 48.1994 69.8217 48.5135 70.0017 48.7808C70.1816 49.0482 70.4379 49.2567 70.7381 49.38C71.0382 49.5033 71.3686 49.5358 71.6875 49.4735C72.0064 49.4111 72.2993 49.2566 72.5291 49.0296C72.759 48.8026 72.9154 48.5133 72.9786 48.1984C73.0418 47.8835 73.0088 47.5572 72.884 47.2608C72.7591 46.9644 72.548 46.7113 72.2773 46.5335C72.0066 46.3558 71.6885 46.2615 71.3635 46.2625C70.9308 46.2638 70.5161 46.4338 70.2097 46.7354C69.9033 47.0371 69.7298 47.4461 69.7272 47.8734V47.8784ZM70.6342 46.7994H71.3965C71.6506 46.7994 72.1587 46.7994 72.1587 47.3715C72.1684 47.495 72.1314 47.6177 72.0549 47.7159C71.9785 47.8141 71.8679 47.8809 71.7446 47.9035C72.0444 47.9236 72.0647 48.1193 72.1054 48.4053C72.1168 48.6003 72.1553 48.7928 72.2197 48.9774H71.7547C71.7547 48.8746 71.6709 48.3225 71.6709 48.2924C71.6404 48.1695 71.5972 48.1092 71.4422 48.1092H71.0636V48.9774H70.6393L70.6342 46.7994ZM71.0484 47.7504H71.3889C71.432 47.7561 71.4758 47.7522 71.5172 47.7391C71.5586 47.7261 71.5966 47.7041 71.6284 47.6749C71.6602 47.6456 71.6851 47.6098 71.7012 47.5699C71.7173 47.53 71.7243 47.4871 71.7217 47.4443C71.7217 47.1482 71.5134 47.1482 71.399 47.1482H71.0484V47.7504Z" fill="#679E63"/>
<path fill-rule="evenodd" clip-rule="evenodd" d="M24.1199 22.7211C24.1208 22.4948 24.0612 22.2724 23.9469 22.0762C23.8327 21.8801 23.668 21.7174 23.4694 21.6045L12.7091 15.4895C12.5285 15.3865 12.3255 15.3279 12.1171 15.3188H12.0053C11.7962 15.3282 11.5924 15.3867 11.4108 15.4895L0.650448 21.6045C0.452439 21.7179 0.288117 21.8808 0.173956 22.0768C0.0597946 22.2728 -0.000196246 22.495 4.82294e-07 22.7211L0.0228687 39.1891C0.0218693 39.3018 0.0515186 39.4128 0.108724 39.5103C0.16593 39.6078 0.248594 39.6884 0.348092 39.7437C0.445486 39.8016 0.557052 39.8323 0.670773 39.8323C0.784495 39.8323 0.896062 39.8016 0.993457 39.7437L7.38867 36.1279C7.58579 36.014 7.74945 35.8514 7.86352 35.656C7.97758 35.4606 8.0381 35.2393 8.03911 35.0138V27.318C8.03897 27.0932 8.09877 26.8723 8.21251 26.6776C8.32625 26.483 8.48991 26.3213 8.68702 26.2089L11.4108 24.6582C11.6093 24.5453 11.8346 24.4864 12.0637 24.4876C12.2904 24.4866 12.5133 24.5455 12.7091 24.6582L15.4329 26.2089C15.63 26.3213 15.7936 26.483 15.9074 26.6776C16.0211 26.8723 16.0809 27.0932 16.0808 27.318V35.0138C16.082 35.2395 16.1429 35.4611 16.2575 35.6564C16.372 35.8518 16.5362 36.0143 16.7337 36.1279L23.1264 39.7437C23.2248 39.8016 23.3371 39.8321 23.4516 39.8321C23.5661 39.8321 23.6785 39.8016 23.7769 39.7437C23.875 39.6871 23.9564 39.6062 24.0131 39.5089C24.0697 39.4116 24.0995 39.3013 24.0995 39.1891L24.1199 22.7211Z" fill="#333333"/>
<path fill-rule="evenodd" clip-rule="evenodd" d="M75.8926 0.0803857C75.7937 0.0263401 75.6823 -0.00134611 75.5694 5.03261e-05C75.4564 0.00144676 75.3457 0.0318778 75.2483 0.0883496C75.1509 0.144821 75.07 0.225387 75.0137 0.322108C74.9573 0.418828 74.9275 0.52837 74.9271 0.639946V16.9499C74.9266 17.0291 74.9053 17.1069 74.8652 17.1755C74.8251 17.2442 74.7676 17.3013 74.6984 17.3414C74.6293 17.3808 74.5508 17.4015 74.471 17.4015C74.3912 17.4015 74.3127 17.3808 74.2436 17.3414L71.558 15.8032C71.3607 15.6904 71.1367 15.631 70.9088 15.631C70.6808 15.631 70.4569 15.6904 70.2596 15.8032L59.4942 21.9383C59.2961 22.0503 59.1315 22.2122 59.0173 22.4075C58.903 22.6027 58.8432 22.8244 58.8438 23.0498V35.325C58.8439 35.5503 58.9041 35.7717 59.0183 35.9668C59.1325 36.1619 59.2966 36.3239 59.4942 36.4366L70.2596 42.5766C70.4571 42.6889 70.6809 42.748 70.9088 42.748C71.1366 42.748 71.3605 42.6889 71.558 42.5766L82.3259 36.4366C82.5232 36.3235 82.687 36.1614 82.8011 35.9664C82.9152 35.7714 82.9757 35.5502 82.9763 35.325V4.73249C82.9764 4.50366 82.9145 4.27896 82.797 4.08174C82.6795 3.88451 82.5107 3.72193 82.3081 3.61087L75.8926 0.0803857ZM74.894 31.2952C74.8944 31.3517 74.8795 31.4072 74.8509 31.4562C74.8223 31.5051 74.7811 31.5457 74.7314 31.5737L71.0346 33.6789C70.9848 33.7062 70.9288 33.7205 70.8719 33.7205C70.815 33.7205 70.7591 33.7062 70.7093 33.6789L67.015 31.5737C66.9653 31.5457 66.9241 31.5051 66.8955 31.4562C66.8669 31.4072 66.8521 31.3517 66.8524 31.2952V27.0797C66.8525 27.0239 66.8673 26.9691 66.8954 26.9207C66.9235 26.8723 66.9638 26.832 67.0124 26.8036L70.7093 24.6934C70.7587 24.6649 70.8148 24.65 70.8719 24.65C70.9291 24.65 70.9852 24.6649 71.0346 24.6934L74.7314 26.8036C74.7807 26.8315 74.8217 26.8716 74.8503 26.9201C74.8788 26.9685 74.8939 27.0236 74.894 27.0797V31.2952Z" fill="#333333"/>
<path fill-rule="evenodd" clip-rule="evenodd" d="M111.749 26.9692C111.946 26.8568 112.109 26.6951 112.223 26.5004C112.337 26.3057 112.397 26.0849 112.397 25.8601V22.8867C112.397 22.6616 112.337 22.4404 112.223 22.2453C112.109 22.0502 111.946 21.8881 111.749 21.7751L101.044 15.6425C100.846 15.5298 100.621 15.4705 100.393 15.4705C100.164 15.4705 99.9391 15.5298 99.7408 15.6425L88.9805 21.7801C88.7824 21.8922 88.6178 22.0541 88.5036 22.2493C88.3894 22.4446 88.3295 22.6662 88.3301 22.8917V35.1618C88.3303 35.3881 88.3911 35.6102 88.5062 35.8059C88.6213 36.0015 88.7867 36.1636 88.9856 36.2759L99.6824 42.298C99.8766 42.405 100.095 42.4612 100.318 42.4612C100.54 42.4612 100.759 42.405 100.953 42.298L107.422 38.7475C107.522 38.6916 107.606 38.6103 107.664 38.5119C107.722 38.4136 107.753 38.3018 107.753 38.1879C107.753 38.074 107.722 37.9622 107.664 37.8639C107.606 37.7656 107.522 37.6843 107.422 37.6284L96.5928 31.4908C96.4935 31.4345 96.4109 31.3534 96.3534 31.2556C96.2959 31.1578 96.2654 31.0468 96.265 30.9337V27.0946C96.2651 26.9821 96.2952 26.8716 96.3523 26.7743C96.4094 26.6769 96.4914 26.5961 96.5902 26.5401L99.9619 24.6205C100.06 24.5639 100.172 24.534 100.286 24.534C100.4 24.534 100.511 24.5639 100.61 24.6205L103.984 26.5401C104.083 26.5961 104.165 26.6769 104.222 26.7743C104.279 26.8716 104.309 26.9821 104.309 27.0946V30.1057C104.309 30.2186 104.339 30.3296 104.396 30.4275C104.453 30.5253 104.535 30.6066 104.634 30.6629C104.733 30.7192 104.845 30.7486 104.96 30.7482C105.074 30.7477 105.186 30.7174 105.285 30.6602L111.749 26.9692Z" fill="#333333"/>
<path fill-rule="evenodd" clip-rule="evenodd" d="M100.243 26.3947C100.281 26.3727 100.325 26.3611 100.37 26.3611C100.414 26.3611 100.458 26.3727 100.497 26.3947L102.57 27.5715C102.608 27.5934 102.64 27.6249 102.663 27.6627C102.685 27.7006 102.697 27.7435 102.697 27.7873V30.141C102.696 30.1843 102.684 30.2268 102.662 30.2642C102.64 30.3015 102.608 30.3326 102.57 30.3543L100.504 31.5336C100.466 31.5556 100.422 31.5672 100.377 31.5672C100.333 31.5672 100.289 31.5556 100.25 31.5336L98.187 30.3543C98.1494 30.3323 98.1182 30.3011 98.0964 30.2637C98.0746 30.2264 98.0629 30.1841 98.0625 30.141V27.7873C98.0625 27.7438 98.074 27.701 98.0958 27.6632C98.1176 27.6253 98.1491 27.5937 98.187 27.5715L100.243 26.3947Z" fill="#679E63"/>
<path fill-rule="evenodd" clip-rule="evenodd" d="M42.13 15.7053C41.9334 15.5932 41.7103 15.5342 41.4833 15.5342C41.2563 15.5342 41.0333 15.5932 40.8367 15.7053L30.1323 21.8052C29.9354 21.9172 29.7718 22.0784 29.6581 22.2727C29.5443 22.467 29.4844 22.6874 29.4844 22.9118V35.1242C29.4846 35.3482 29.5446 35.5682 29.6584 35.7621C29.7721 35.9559 29.9356 36.1167 30.1323 36.2283L40.8291 42.3357C41.0257 42.4478 41.2487 42.5068 41.4757 42.5068C41.7027 42.5068 41.9257 42.4478 42.1223 42.3357L52.8268 36.2283C53.0228 36.1162 53.1856 35.9552 53.2989 35.7614C53.4122 35.5677 53.4719 35.3479 53.4721 35.1242V22.9118C53.4721 22.6874 53.4122 22.467 53.2984 22.2727C53.1847 22.0784 53.0211 21.9172 52.8242 21.8052L42.13 15.7053Z" fill="url(#paint0_linear)"/>
<path d="M52.853 21.8054L42.1181 15.7055C42.0124 15.6456 41.8986 15.6008 41.7802 15.5725L29.7266 35.9349C29.8306 36.0507 29.9523 36.1498 30.0874 36.2285L40.8426 42.3359C40.9926 42.4205 41.158 42.4749 41.3294 42.496C41.5008 42.5171 41.6747 42.5045 41.8411 42.4589L53.1401 22.0237C53.0535 21.9399 52.9572 21.8667 52.853 21.8054Z" fill="url(#paint1_linear)"/>
<path d="M40.4794 13.4622L40.332 13.545H40.5277L40.4794 13.4622Z" fill="url(#paint2_linear)"/>
<path d="M52.8599 36.2285C53.0144 36.1408 53.1499 36.0239 53.2585 35.8844C53.367 35.7448 53.4466 35.5855 53.4926 35.4155L41.7236 15.5524C41.4128 15.4899 41.0897 15.5407 40.814 15.6955L30.1426 21.7603L41.6601 42.484C41.8263 42.4615 41.9867 42.4078 42.1326 42.3259L52.8599 36.2285Z" fill="url(#paint3_linear)"/>
<path d="M53.856 36.0323L53.7852 35.9148V36.0723L53.856 36.0323Z" fill="url(#paint4_linear)"/>
<path d="M52.8577 36.2284L42.1406 42.3359C41.9947 42.4178 41.8342 42.4714 41.668 42.4939L41.8814 42.8779L53.7851 36.0728V35.9122L53.4903 35.4104C53.445 35.5813 53.3657 35.7416 53.2571 35.882C53.1485 36.0225 53.0127 36.1402 52.8577 36.2284Z" fill="url(#paint5_linear)"/>
<path d="M52.8577 36.2284L42.1406 42.3359C41.9947 42.4178 41.8342 42.4714 41.668 42.4939L41.8814 42.8779L53.7851 36.0728V35.9122L53.4903 35.4104C53.445 35.5813 53.3657 35.7416 53.2571 35.882C53.1485 36.0225 53.0127 36.1402 52.8577 36.2284Z" fill="url(#paint6_linear)"/>
</g>
<defs>
<linearGradient id="paint0_linear" x1="45.8345" y1="20.247" x2="36.3577" y2="39.8273" gradientUnits="userSpaceOnUse">
<stop stop-color="#3F873F"/>
<stop offset="0.33" stop-color="#3F8B3D"/>
<stop offset="0.64" stop-color="#3E9637"/>
<stop offset="0.93" stop-color="#3DA92E"/>
<stop offset="1" stop-color="#3DAE2B"/>
</linearGradient>
<linearGradient id="paint1_linear" x1="39.8517" y1="30.4447" x2="66.7469" y2="10.3228" gradientUnits="userSpaceOnUse">
<stop offset="0.14" stop-color="#3F873F"/>
<stop offset="0.4" stop-color="#529F44"/>
<stop offset="0.71" stop-color="#63B649"/>
<stop offset="0.91" stop-color="#6ABF4B"/>
</linearGradient>
<linearGradient id="paint2_linear" x1="29.1071" y1="13.5048" x2="53.8564" y2="13.5048" gradientUnits="userSpaceOnUse">
<stop offset="0.09" stop-color="#6ABF4B"/>
<stop offset="0.29" stop-color="#63B649"/>
<stop offset="0.6" stop-color="#529F44"/>
<stop offset="0.86" stop-color="#3F873F"/>
</linearGradient>
<linearGradient id="paint3_linear" x1="4533.43" y1="7554.22" x2="6808.18" y2="7554.22" gradientUnits="userSpaceOnUse">
<stop offset="0.09" stop-color="#6ABF4B"/>
<stop offset="0.29" stop-color="#63B649"/>
<stop offset="0.6" stop-color="#529F44"/>
<stop offset="0.86" stop-color="#3F873F"/>
</linearGradient>
<linearGradient id="paint4_linear" x1="61.9035" y1="58.5034" x2="68.8065" y2="58.5034" gradientUnits="userSpaceOnUse">
<stop offset="0.09" stop-color="#6ABF4B"/>
<stop offset="0.29" stop-color="#63B649"/>
<stop offset="0.6" stop-color="#529F44"/>
<stop offset="0.86" stop-color="#3F873F"/>
</linearGradient>
<linearGradient id="paint5_linear" x1="2378.57" y1="2425.22" x2="3559.02" y2="2425.22" gradientUnits="userSpaceOnUse">
<stop offset="0.09" stop-color="#6ABF4B"/>
<stop offset="0.29" stop-color="#63B649"/>
<stop offset="0.6" stop-color="#529F44"/>
<stop offset="0.86" stop-color="#3F873F"/>
</linearGradient>
<linearGradient id="paint6_linear" x1="3730.96" y1="1845.6" x2="3416.72" y2="2885.87" gradientUnits="userSpaceOnUse">
<stop stop-color="#3F873F"/>
<stop offset="0.33" stop-color="#3F8B3D"/>
<stop offset="0.64" stop-color="#3E9637"/>
<stop offset="0.93" stop-color="#3DA92E"/>
<stop offset="1" stop-color="#3DAE2B"/>
</linearGradient>
<clipPath id="clip0">
<rect width="112.398" height="67.9825" fill="white"/>
</clipPath>
</defs>
</svg>
