<svg width="106" height="58" viewBox="0 0 106 58" fill="none" xmlns="http://www.w3.org/2000/svg">
<path d="M1.49023 29C1.49023 44.1811 24.5523 56.488 52.9997 56.488C81.4471 56.488 104.509 44.1811 104.509 29C104.509 13.8192 81.4471 1.51205 52.9997 1.51205C24.5523 1.51205 1.49023 13.8192 1.49023 29Z" fill="url(#paint0_radial)"/>
<path d="M52.9993 54.4473C80.3356 54.4473 102.497 43.0541 102.497 29.0001C102.497 14.9462 80.3356 3.55291 52.9993 3.55291C25.6631 3.55291 3.50195 14.9462 3.50195 29.0001C3.50195 43.0541 25.6631 54.4473 52.9993 54.4473Z" fill="#777BB3"/>
<path d="M29.4756 32.1552C31.7234 32.1552 33.4015 31.7347 34.4632 30.9057C35.5136 30.0853 36.2391 28.6638 36.6193 26.681C36.9738 24.8277 36.8388 23.5336 36.218 22.8352C35.5833 22.1219 34.211 21.7602 32.1392 21.7602H28.5471L26.5557 32.1552H29.4756ZM17.7267 44.96C17.56 44.96 17.4016 44.8844 17.2956 44.7536C17.1894 44.623 17.1464 44.451 17.1782 44.2849L22.4559 16.7379C22.5069 16.4716 22.737 16.2792 23.0045 16.2792H34.3792C37.954 16.2792 40.6148 17.2639 42.2873 19.2062C43.9686 21.1588 44.4879 23.8881 43.8304 27.3183C43.5629 28.7158 43.1027 30.0136 42.4627 31.1756C41.822 32.3389 40.9753 33.4153 39.9456 34.3754C38.713 35.5457 37.318 36.3943 35.8029 36.8936C34.3119 37.3863 32.3971 37.6362 30.1117 37.6362H25.5059L24.1906 44.5011C24.1395 44.7676 23.9096 44.96 23.6421 44.96H17.7267Z" fill="black"/>
<path d="M29.0082 22.3271H32.1396C34.64 22.3271 35.5086 22.8837 35.8037 23.2154C36.2933 23.7661 36.3857 24.9273 36.071 26.5734C35.7174 28.4161 35.062 29.7227 34.1226 30.4564C33.1609 31.2074 31.5975 31.5881 29.476 31.5881H27.234L29.0082 22.3271ZM34.3796 15.7121H23.0047C22.4697 15.7121 22.0097 16.0969 21.9076 16.6297L16.6299 44.1766C16.5662 44.5091 16.6523 44.8529 16.8645 45.1143C17.0769 45.3757 17.3932 45.5269 17.7271 45.5269H23.6423C24.1775 45.5269 24.6375 45.1421 24.7396 44.6093L25.967 38.2031H30.1121C32.4561 38.2031 34.4295 37.9438 35.9767 37.4325C37.568 36.9081 39.032 36.0188 40.3277 34.7896C41.3993 33.7894 42.282 32.6667 42.9509 31.4524C43.6199 30.2377 44.1006 28.8831 44.3795 27.4263C45.0716 23.8156 44.5093 20.9243 42.7085 18.8332C40.9252 16.7622 38.1228 15.7121 34.3796 15.7121ZM25.8779 32.7221H29.476C31.8609 32.7221 33.6373 32.2664 34.8045 31.3549C35.9719 30.4431 36.7592 28.9215 37.1683 26.7892C37.5598 24.7419 37.3815 23.2972 36.6335 22.4556C35.8845 21.614 34.3868 21.1931 32.1396 21.1931H28.0867L25.8779 32.7221ZM34.3796 16.8461C37.8014 16.8461 40.2977 17.7571 41.8668 19.5792C43.4356 21.4014 43.9081 23.9447 43.2821 27.2101C43.0245 28.5552 42.5887 29.785 41.9752 30.8992C41.3609 32.0141 40.5589 33.0336 39.5678 33.958C38.3866 35.0793 37.0745 35.8784 35.6306 36.3543C34.1867 36.8315 32.3477 37.0691 30.1121 37.0691H25.0453L23.6423 44.3929H17.7271L23.0047 16.8461H34.3796Z" fill="white"/>
<path d="M57.3937 37.6362C57.2268 37.6362 57.0686 37.5606 56.9626 37.4298C56.8562 37.2992 56.8132 37.1274 56.8451 36.9611L59.1796 24.7727C59.4017 23.6135 59.3469 22.7816 59.0256 22.43C58.8288 22.2151 58.2379 21.8547 56.4905 21.8547H52.261L49.3258 37.1773C49.2748 37.4438 49.0447 37.6362 48.7771 37.6362H42.9086C42.7416 37.6362 42.5835 37.5606 42.4773 37.4298C42.3711 37.2992 42.328 37.1273 42.3599 36.9611L47.6375 9.41414C47.6886 9.14784 47.9187 8.95544 48.1862 8.95544H54.0548C54.2217 8.95544 54.3799 9.03104 54.4861 9.16164C54.5923 9.29243 54.6353 9.46423 54.6034 9.63055L53.3299 16.2792H57.8798C61.346 16.2792 63.6964 16.8991 65.0654 18.1745C66.4608 19.4756 66.8962 21.5559 66.3596 24.3584L63.9041 37.1773C63.8531 37.4438 63.6232 37.6362 63.3555 37.6362H57.3937Z" fill="black"/>
<path d="M54.0532 8.38835H48.1846C47.6493 8.38835 47.1894 8.77315 47.0873 9.30594L41.8096 36.8529C41.7459 37.1854 41.832 37.5292 42.0444 37.7905C42.2568 38.0519 42.5731 38.2031 42.907 38.2031H48.7755C49.3106 38.2031 49.7708 37.8183 49.8729 37.2855L52.7202 22.4216H56.4889C58.2333 22.4216 58.5994 22.7996 58.6141 22.8159C58.7199 22.9313 58.8591 23.4662 58.6294 24.6645L56.2948 36.8529C56.2311 37.1854 56.3172 37.5292 56.5295 37.7905C56.7419 38.0519 57.0583 38.2031 57.3921 38.2031H63.3539C63.8889 38.2031 64.3491 37.8183 64.4512 37.2855L66.9065 24.4666C67.4828 21.4575 66.9898 19.2003 65.442 17.7571C63.965 16.381 61.4908 15.7121 57.8782 15.7121H54.006L55.1505 9.73876C55.214 9.40631 55.1282 9.06233 54.9158 8.80113C54.7034 8.53974 54.387 8.38835 54.0532 8.38835ZM54.0532 9.52235L52.6501 16.8461H57.8782C61.1678 16.8461 63.4368 17.4286 64.6856 18.5921C65.9344 19.7563 66.3085 21.6427 65.8094 24.2504L63.3539 37.0691H57.3921L59.7267 24.8809C59.9924 23.4944 59.8948 22.5486 59.4335 22.0444C58.972 21.5401 57.9904 21.2876 56.4889 21.2876H51.7985L48.7755 37.0691H42.907L48.1846 9.52235H54.0532Z" fill="white"/>
<path d="M75.6455 32.1552C77.8933 32.1552 79.5714 31.7347 80.6331 30.9057C81.6835 30.0855 82.409 28.664 82.7894 26.681C83.1439 24.8277 83.0089 23.5336 82.3879 22.8352C81.7532 22.1219 80.3808 21.7602 78.3091 21.7602H74.717L72.7256 32.1552H75.6455ZM63.8968 44.96C63.7301 44.96 63.5717 44.8844 63.4657 44.7536C63.3595 44.623 63.3163 44.451 63.3481 44.2849L68.6258 16.7379C68.677 16.4716 68.9069 16.2792 69.1746 16.2792H80.5491C84.1241 16.2792 86.7847 17.2639 88.4573 19.2062C90.1387 21.1586 90.6578 23.888 90.0005 27.3183C89.7326 28.7158 89.2726 30.0136 88.6326 31.1756C87.9919 32.3389 87.1452 33.4153 86.1155 34.3754C84.8829 35.5457 83.4879 36.3943 81.9728 36.8936C80.4818 37.3863 78.567 37.6362 76.2816 37.6362H71.6756L70.3608 44.5011C70.3096 44.7676 70.0797 44.96 69.812 44.96H63.8968Z" fill="black"/>
<path d="M75.1779 22.3271H78.3094C80.8098 22.3271 81.6783 22.8837 81.9734 23.2154C82.4632 23.7661 82.5556 24.9274 82.2408 26.5732C81.8872 28.4161 81.2315 29.7227 80.2924 30.4564C79.3307 31.2074 77.7672 31.5881 75.6458 31.5881H73.404L75.1779 22.3271ZM80.5493 15.7121H69.1746C68.6396 15.7121 68.1796 16.0969 68.0775 16.6297L62.7999 44.1766C62.7361 44.5091 62.8222 44.8529 63.0344 45.1143C63.2468 45.3757 63.5631 45.5269 63.897 45.5269H69.8122C70.3473 45.5269 70.8074 45.1421 70.9095 44.6093L72.1367 38.2031H76.2818C78.6259 38.2031 80.5992 37.9438 82.1465 37.4325C83.7377 36.9081 85.2021 36.0186 86.4978 34.7892C87.5695 33.7892 88.4518 32.6667 89.1206 31.4524C89.7896 30.2377 90.2703 28.8831 90.5492 27.4263C91.2413 23.8155 90.6791 20.9241 88.8782 18.833C87.0949 16.7622 84.2927 15.7121 80.5493 15.7121ZM72.0478 32.7221H75.6458C78.0306 32.7221 79.8071 32.2664 80.9743 31.3549C82.1418 30.4431 82.929 28.9215 83.3381 26.7892C83.7297 24.7419 83.5514 23.2972 82.8032 22.4556C82.0543 21.614 80.5566 21.1931 78.3094 21.1931H74.2565L72.0478 32.7221ZM80.5493 16.8461C83.9712 16.8461 86.4675 17.7571 88.0365 19.5792C89.6056 21.4014 90.0779 23.9447 89.4519 27.2101C89.1942 28.5552 88.7584 29.785 88.1449 30.8992C87.5307 32.0141 86.7287 33.0336 85.7375 33.958C84.5563 35.0793 83.2442 35.8784 81.8003 36.3543C80.3565 36.8315 78.5175 37.0691 76.2818 37.0691H71.2151L69.8122 44.3929H63.897L69.1746 16.8461H80.5493Z" fill="white"/>
<defs>
<radialGradient id="paint0_radial" cx="0" cy="0" r="1" gradientUnits="userSpaceOnUse" gradientTransform="translate(32.4168 11.176) scale(67.6393 68.618)">
<stop stop-color="#AEB2D5"/>
<stop offset="0.3" stop-color="#AEB2D5"/>
<stop offset="0.75" stop-color="#484C89"/>
<stop offset="1" stop-color="#484C89"/>
</radialGradient>
</defs>
</svg>
