<svg width="131" height="43" viewBox="0 0 131 43" fill="none" xmlns="http://www.w3.org/2000/svg">
<path d="M53.7753 19.4324C53.7753 15.711 52.6978 13.8005 50.5429 13.6959C49.6854 13.656 48.8482 13.7905 48.0338 14.1019C47.3838 14.331 46.9462 14.5577 46.7161 14.7869V23.6694C48.0945 24.5213 49.3187 24.9173 50.386 24.8551C52.6447 24.7081 53.7753 22.9022 53.7753 19.4324ZM56.4336 19.5868C56.4336 21.4774 55.9833 23.0467 55.0779 24.2946C54.0687 25.707 52.67 26.4343 50.8818 26.4742C49.5337 26.5165 48.1451 26.1005 46.7161 25.2287V33.3017L44.4043 32.4897V14.5702C44.7837 14.1118 45.2718 13.7183 45.8637 13.3845C47.2396 12.5949 48.9115 12.1889 50.8793 12.1689L50.9121 12.2013C52.7105 12.1789 54.0965 12.9063 55.0703 14.3809C55.9783 15.7334 56.4336 17.4671 56.4336 19.5868Z" fill="#646464"/>
<path d="M70.5648 24.885C70.5648 27.4207 70.3068 29.1768 69.7909 30.1532C69.2724 31.1296 68.286 31.9093 66.8291 32.4897C65.6479 32.948 64.3706 33.1971 62.9998 33.2394L62.6178 31.8047C64.0115 31.6179 64.9928 31.431 65.5619 31.2442C66.6824 30.8706 67.4513 30.2977 67.8737 29.5305C68.2126 28.9053 68.3795 27.7121 68.3795 25.9461V25.3533C66.7987 26.0607 65.1421 26.4119 63.4095 26.4119C62.2713 26.4119 61.2672 26.0607 60.4022 25.3533C59.4309 24.5836 58.9453 23.6071 58.9453 22.424V12.9486L61.2571 12.1689V21.7066C61.2571 22.7254 61.5909 23.51 62.2587 24.0605C62.9264 24.611 63.7914 24.875 64.8512 24.8551C65.911 24.8327 67.0466 24.4291 68.2531 23.6395V12.5127H70.5648V24.885Z" fill="#646464"/>
<path d="M79.5878 26.3497C79.3121 26.3721 79.0592 26.3821 78.8265 26.3821C77.5188 26.3821 76.4995 26.0757 75.7711 25.4605C75.0452 24.8452 74.681 23.9958 74.681 22.9123V13.9451H73.0977V12.5128H74.681V8.7092L76.9902 7.89966V12.5128H79.5878V13.9451H76.9902V22.85C76.9902 23.7044 77.2229 24.3097 77.6883 24.6634C78.0879 24.9548 78.7228 25.1217 79.5878 25.164V26.3497Z" fill="#646464"/>
<path d="M93.5849 26.163H91.2732V17.3752C91.2732 16.4809 91.0607 15.7112 90.6383 15.0686C90.1502 14.3412 89.4723 13.9776 88.6022 13.9776C87.5425 13.9776 86.2171 14.5281 84.6262 15.629V26.163H82.3145V5.15732L84.6262 4.43994V14.0075C86.1033 12.9488 87.717 12.4183 89.4698 12.4183C90.694 12.4183 91.6854 12.8243 92.4442 13.6338C93.2055 14.4434 93.5849 15.4522 93.5849 16.6578V26.163Z" fill="#646464"/>
<path d="M105.874 19.0737C105.874 17.6439 105.598 16.4632 105.049 15.5292C104.396 14.3908 103.382 13.7905 102.011 13.7282C99.477 13.8727 98.2124 15.6612 98.2124 19.0886C98.2124 20.6604 98.4754 21.9731 99.0066 23.0268C99.6844 24.3693 100.701 25.0319 102.057 25.0095C104.601 24.9896 105.874 23.0118 105.874 19.0737ZM108.405 19.0886C108.405 21.1237 107.877 22.8175 106.822 24.1701C105.661 25.6845 104.058 26.4443 102.011 26.4443C99.9829 26.4443 98.4021 25.6845 97.2614 24.1701C96.2269 22.8175 95.7109 21.1237 95.7109 19.0886C95.7109 17.1756 96.2699 15.5665 97.3878 14.2563C98.569 12.8664 100.122 12.1689 102.042 12.1689C103.961 12.1689 105.525 12.8664 106.728 14.2563C107.846 15.5665 108.405 17.1756 108.405 19.0886Z" fill="#646464"/>
<path d="M121.657 26.1628H119.346V16.8767C119.346 15.858 119.034 15.0634 118.412 14.4905C117.79 13.92 116.96 13.6436 115.926 13.666C114.828 13.6859 113.784 14.0396 112.792 14.7246V26.1628H110.48V14.4431C111.811 13.4891 113.035 12.8664 114.153 12.575C115.208 12.3035 116.138 12.1689 116.94 12.1689C117.489 12.1689 118.005 12.2213 118.491 12.3259C119.399 12.5326 120.137 12.9162 120.706 13.4792C121.341 14.1019 121.657 14.8491 121.657 15.7235V26.1628Z" fill="#646464"/>
<path d="M126.157 10.4833H126.563V7.9798H127.523V7.6814H125.197V7.9798H126.157V10.4833ZM127.882 10.4833H128.229V8.19681L128.98 10.483H129.366L130.149 8.20456V10.4833H130.527V7.6814H130.027L129.171 10.0818L128.441 7.6814H127.882V10.4833Z" fill="#646464"/>
<path d="M17.5842 0.000289871C16.1166 0.00700578 14.715 0.130273 13.4818 0.345178C9.84892 0.97725 9.18933 2.30023 9.18933 4.74004V7.96227H17.7743V9.03635H9.18933H5.96747C3.47243 9.03635 1.28771 10.5133 0.604361 13.3228C-0.183878 16.5432 -0.21884 18.5528 0.604361 21.9155C1.21461 24.4185 2.67197 26.2019 5.167 26.2019H8.11871V22.3392C8.11871 19.5486 10.5704 17.087 13.4818 17.087H22.0568C24.4437 17.087 26.3493 15.1515 26.3493 12.7907V4.74004C26.3493 2.44877 24.3865 0.727581 22.0568 0.345178C20.582 0.103409 19.0518 -0.00642604 17.5842 0.000289871ZM12.9415 2.59188C13.8283 2.59188 14.5524 3.3167 14.5524 4.20792C14.5524 5.09599 13.8283 5.81411 12.9415 5.81411C12.0516 5.81411 11.3306 5.09599 11.3306 4.20792C11.3306 3.3167 12.0516 2.59188 12.9415 2.59188Z" fill="url(#paint0_linear)"/>
<path d="M27.42 9.03613V12.7905C27.42 15.7012 24.9143 18.151 22.0569 18.151H13.4819C11.1331 18.151 9.18945 20.1308 9.18945 22.4473V30.498C9.18945 32.7893 11.2126 34.137 13.4819 34.7943C16.1995 35.5813 18.8054 35.7235 22.0569 34.7943C24.2182 34.1781 26.3494 32.9378 26.3494 30.498V27.2758H17.7744V26.2017H26.3494H30.6419C33.1369 26.2017 34.0667 24.4878 34.9344 21.9152C35.8307 19.2668 35.7925 16.72 34.9344 13.3226C34.3177 10.8765 33.1401 9.03613 30.6419 9.03613H27.42ZM22.5972 29.4239C23.4872 29.4239 24.2081 30.1421 24.2081 31.0301C24.2081 31.9213 23.4872 32.6462 22.5972 32.6462C21.7104 32.6462 20.9863 31.9213 20.9863 31.0301C20.9863 30.1421 21.7104 29.4239 22.5972 29.4239Z" fill="url(#paint1_linear)"/>
<path opacity="0.44382" d="M29.3783 40.2673C29.3783 40.5558 29.0807 40.8415 28.5026 41.108C27.9244 41.3746 27.077 41.6168 26.0087 41.8208C24.9404 42.0248 23.6721 42.1866 22.2763 42.297C20.8805 42.4074 19.3845 42.4643 17.8737 42.4643C16.3629 42.4643 14.8669 42.4074 13.4711 42.297C12.0753 42.1866 10.8071 42.0248 9.73875 41.8208C8.67045 41.6168 7.82303 41.3746 7.24487 41.108C6.66672 40.8415 6.36914 40.5558 6.36914 40.2673C6.36914 39.9788 6.66672 39.6931 7.24487 39.4265C7.82303 39.16 8.67045 38.9178 9.73875 38.7138C10.8071 38.5098 12.0753 38.348 13.4711 38.2375C14.8669 38.1271 16.3629 38.0703 17.8737 38.0703C19.3845 38.0703 20.8805 38.1271 22.2763 38.2375C23.6721 38.348 24.9404 38.5098 26.0087 38.7138C27.077 38.9178 27.9244 39.16 28.5026 39.4265C29.0807 39.6931 29.3783 39.9788 29.3783 40.2673Z" fill="url(#paint2_radial)"/>
<defs>
<linearGradient id="paint0_linear" x1="2.80201e-08" y1="2.39709e-08" x2="19.5407" y2="16.908" gradientUnits="userSpaceOnUse">
<stop stop-color="#5A9FD4"/>
<stop offset="1" stop-color="#306998"/>
</linearGradient>
<linearGradient id="paint1_linear" x1="22.3909" y1="30.7592" x2="15.4321" y2="20.8575" gradientUnits="userSpaceOnUse">
<stop stop-color="#FFD43B"/>
<stop offset="1" stop-color="#FFE873"/>
</linearGradient>
<radialGradient id="paint2_radial" cx="0" cy="0" r="1" gradientUnits="userSpaceOnUse" gradientTransform="translate(17.8737 40.2673) rotate(-90) scale(2.19698 9.80545)">
<stop stop-color="#B8B8B8" stop-opacity="0.498039"/>
<stop offset="1" stop-color="#7F7F7F" stop-opacity="0"/>
</radialGradient>
</defs>
</svg>
