<svg width="91" height="91" viewBox="0 0 91 91" fill="none" xmlns="http://www.w3.org/2000/svg">
<g clip-path="url(#clip0)">
<path d="M61.4528 32.0142L51.4425 35.2829L42.7337 39.1265L40.2973 39.7697C39.6768 40.3599 39.0262 40.9577 38.3225 41.563C37.5508 42.2288 36.832 42.8342 36.2796 43.2729C35.6667 43.7572 34.7588 44.6652 34.2972 45.2401C33.6087 46.1026 33.0639 47.0181 32.8293 47.7219C32.4132 48.9931 32.6176 50.2793 33.4196 51.4673C34.4486 52.9805 36.4991 54.524 38.89 55.5757C40.1082 56.113 42.1587 56.8015 43.7021 57.1873C46.2671 57.8381 51.2306 58.5418 53.962 58.6478C54.5143 58.6704 55.2558 58.6704 55.286 58.6478C55.3466 58.6098 55.7703 57.8003 56.2622 56.794C57.942 53.3664 59.1525 50.1507 59.8108 47.4042C60.2042 45.7397 60.5144 43.5227 60.7186 40.8973C60.7717 40.1633 60.7943 37.7043 60.7489 36.8719C60.6807 35.51 60.5597 34.4054 60.3707 33.3234C60.3404 33.1644 60.3327 33.0207 60.3479 33.0131C60.3781 32.9904 60.4689 32.9602 61.7022 32.6045L61.4526 32.0144V32.0142H61.4528V32.0142ZM59.1677 33.3535C59.2585 33.3535 59.5006 35.6763 59.5611 37.1443C59.5763 37.4544 59.5686 37.6587 59.5535 37.6587C59.4931 37.6587 58.2748 36.94 57.4048 36.3953C56.6482 35.9185 55.2106 34.9651 54.9836 34.7836C54.9078 34.7306 54.9154 34.7231 55.5359 34.5112C56.5875 34.1555 59.0845 33.3535 59.1677 33.3535ZM54.068 35.0332C54.1362 35.0332 54.3101 35.1315 54.7263 35.3888C56.2849 36.3649 58.4035 37.5453 59.3115 37.9388C59.5914 38.0598 59.6215 38.0143 58.9785 38.4533C57.6015 39.3915 55.8838 40.3145 53.7804 41.2452C53.4097 41.4116 53.0995 41.5402 53.092 41.5402C53.0769 41.5402 53.1221 41.3512 53.1826 41.1241C53.6896 39.24 53.9771 37.3333 53.9924 35.8049C53.9999 35.0483 53.9999 35.0483 54.068 35.0257C54.0528 35.0332 54.0604 35.0332 54.068 35.0332ZM53.0163 35.4342C53.0616 35.4795 53.0314 37.1745 52.9709 37.636C52.8347 38.7407 52.6228 39.7697 52.2749 40.9274C52.1916 41.2072 52.1158 41.4419 52.1009 41.457C52.0704 41.4948 51.0339 40.4809 50.6934 40.0875C50.1032 39.4065 49.6418 38.7255 49.3013 38.0597C49.1272 37.7192 48.8549 37.0534 48.8775 37.0307C48.9986 36.9475 52.9861 35.404 53.0163 35.4342ZM48.0679 37.3787C48.0754 37.3787 48.083 37.3787 48.0906 37.3863C48.1057 37.4014 48.1588 37.5225 48.2042 37.6587C48.4462 38.3169 48.9909 39.2854 49.4601 39.9059C49.9746 40.5869 50.6481 41.3132 51.2079 41.7899C51.3896 41.9412 51.5559 42.0849 51.5786 42.1076C51.6241 42.1531 51.6392 42.1454 50.4058 42.6146C48.9759 43.1594 47.4172 43.7041 45.6315 44.2791C45.2049 44.4167 44.7787 44.5554 44.353 44.6953C44.2848 44.7181 44.3075 44.6802 44.5042 44.37C45.3894 42.9853 46.7362 40.2691 47.4929 38.3472C47.6215 38.0143 47.7501 37.6814 47.7729 37.6057C47.8032 37.4997 47.8409 37.4619 47.9392 37.4089C47.9922 37.3939 48.0452 37.3787 48.0679 37.3787ZM46.5548 38.0067C46.5774 38.0219 46.1915 38.8315 45.8132 39.573C45.0792 41.003 44.2772 42.4104 43.2028 44.1203C43.0212 44.4154 42.8473 44.6878 42.8245 44.7181C42.7867 44.7711 42.7715 44.7559 42.6505 44.5214C42.3932 44.0144 42.1813 43.3637 42.0678 42.7659C41.9543 42.1757 41.9771 41.1468 42.1057 40.5112C42.204 40.0421 42.1965 40.0497 42.4235 39.9362C43.392 39.4444 46.5245 37.9765 46.5548 38.0067ZM59.6066 38.5364V38.8542C59.6066 40.5415 59.425 42.8568 59.1601 44.5441C59.1147 44.8392 59.0767 45.0812 59.0693 45.0889C59.0693 45.0889 58.8499 45.0284 58.5926 44.9526C57.4577 44.597 56.2244 44.0749 55.1121 43.4622C54.3781 43.0611 53.3113 42.4028 53.3416 42.3725C53.3491 42.365 53.6669 42.1985 54.0376 42.0018C55.5208 41.23 56.9431 40.3977 58.1765 39.573C58.638 39.2628 59.334 38.7635 59.4855 38.6272L59.6066 38.5364ZM40.8421 40.7759C40.8723 40.7759 40.8648 40.8365 40.8194 41.1089C40.7891 41.3056 40.7513 41.6688 40.7363 41.9184C40.6756 43.0231 40.8573 43.8403 41.402 44.9601C41.5534 45.2704 41.6745 45.5276 41.6668 45.5351C41.6138 45.5806 36.605 47.0485 35.0311 47.4797C34.5621 47.6083 34.1536 47.7218 34.1231 47.7293C34.0703 47.7445 34.0627 47.737 34.0854 47.6082C34.2594 46.4961 35.1068 45.0433 36.2871 43.8175C37.0741 43.0004 37.7021 42.5238 38.7765 41.9108C39.5483 41.472 40.7362 40.8139 40.8269 40.7835C40.827 40.7759 40.8345 40.7759 40.8421 40.7759ZM52.6456 42.8869C52.6531 42.8794 52.8347 42.9778 53.0541 43.1064C54.6733 44.0447 56.928 44.9148 58.8498 45.3612L59.0239 45.3991L58.7817 45.5351C57.7755 46.0951 54.469 47.4721 51.0869 48.7357C50.595 48.9172 50.1108 49.0989 50.0199 49.1367C49.9291 49.1745 49.8459 49.1972 49.8459 49.1897C49.8459 49.182 49.9821 48.9172 50.156 48.5919C51.1018 46.8214 52.0553 44.6651 52.5395 43.1669C52.6002 43.0232 52.6379 42.8946 52.6456 42.8869ZM51.4425 43.2804C51.4502 43.2882 51.3896 43.4469 51.3139 43.6285C50.6557 45.225 49.793 46.9653 48.6884 48.9174C48.4085 49.4168 48.1738 49.8178 48.1662 49.8178C48.1587 49.8178 47.9317 49.6816 47.6593 49.5151C46.0552 48.5315 44.6328 47.3209 43.7022 46.1481L43.5659 45.9816L44.2544 45.7925C46.7211 45.1191 48.8168 44.3928 50.8977 43.5C51.1928 43.3789 51.435 43.2804 51.4425 43.2804ZM58.918 45.8908C58.918 45.8908 58.9256 45.8984 58.918 45.8908C58.9256 46.0649 58.5397 47.6235 58.2219 48.7508C57.9571 49.6966 57.73 50.4382 57.3139 51.747C57.1323 52.3222 56.9736 52.7988 56.9659 52.7988C56.9583 52.7988 56.913 52.7912 56.8676 52.7762C54.6204 52.3675 52.6077 51.8 50.7162 51.0435C50.1864 50.8315 49.4299 50.491 49.3845 50.4532C49.3694 50.438 49.8234 50.2262 50.3984 49.9765C53.8411 48.4708 57.4123 46.7608 58.638 46.027C58.7817 45.9362 58.8953 45.8908 58.918 45.8908ZM41.6593 46.481C41.6744 46.4961 40.7135 47.8808 39.3666 49.7648C38.8976 50.4231 38.3528 51.1948 38.1486 51.4823C37.9442 51.7698 37.6341 52.2238 37.46 52.4962L37.1421 52.988L36.8016 52.7005C36.4006 52.3675 35.7045 51.6564 35.3943 51.2629C34.7436 50.4534 34.3048 49.5984 34.1308 48.8191C34.0475 48.4559 34.0475 48.2742 34.1231 48.2516C34.2366 48.2214 36.2568 47.7447 38.1485 47.3057C39.2002 47.0637 40.4183 46.7762 40.8572 46.6702C41.2961 46.5641 41.6518 46.481 41.6593 46.481ZM42.6277 46.8518L42.8698 47.1241C43.9595 48.3423 45.0717 49.2429 46.4185 50.0296C46.6607 50.1659 46.8422 50.2868 46.827 50.2946C46.7742 50.3323 42.151 51.9741 40.0098 52.7156C38.8068 53.1393 37.8156 53.4798 37.8081 53.4798C37.8006 53.4798 37.7324 53.4344 37.6566 53.3814L37.5205 53.283L37.7399 52.9653C38.4511 51.9363 39.3441 50.809 41.2886 48.4634L42.6277 46.8518ZM48.6657 51.1721C48.6732 51.1646 49.0061 51.2855 49.4146 51.437C50.3984 51.8077 51.1776 52.0422 52.2218 52.3071C53.5081 52.6325 55.3694 52.9503 56.4666 53.041C56.6331 53.0561 56.7238 53.0713 56.6936 53.094C56.6405 53.1243 55.5284 53.495 54.7112 53.7523C53.4097 54.1608 49.4374 55.3336 46.1991 56.2643C45.6013 56.4383 45.0868 56.5821 45.0565 56.5896C44.981 56.6048 44.7312 56.5366 44.7312 56.5063C44.7312 56.4913 44.9128 56.2567 45.1322 55.9995C46.2217 54.698 47.3038 53.2453 48.2042 51.8682C48.4538 51.4898 48.6657 51.1796 48.6657 51.1721ZM47.334 51.21C47.3415 51.2175 46.8043 52.08 45.8662 53.563C45.4651 54.191 45.0187 54.9022 44.8598 55.1519C44.7084 55.3941 44.4815 55.7724 44.3529 55.9842L44.1334 56.3702L44.02 56.3399C43.7475 56.2642 41.8333 55.5907 41.3263 55.3865C40.6983 55.1368 40.0476 54.8342 39.5633 54.5769C38.9581 54.2516 38.2015 53.7673 38.262 53.7522C38.2771 53.7447 39.3137 53.4646 40.562 53.1242C43.8761 52.2237 45.7147 51.7017 46.9178 51.3234C47.1373 51.2553 47.3264 51.2023 47.334 51.21ZM56.754 53.4192H56.7616C56.7918 53.495 55.5662 56.8998 55.1196 57.9741C55.0214 58.2163 54.9836 58.2769 54.9306 58.2692C54.8019 58.2618 53.0239 58.012 51.9418 57.8531C50.0579 57.5656 46.8951 57.0132 46.1007 56.8317L45.9192 56.7939L47.0464 56.5365C49.4677 55.9917 50.6329 55.6967 51.8132 55.3335C53.3038 54.8795 54.7793 54.312 56.2698 53.616C56.5043 53.51 56.7011 53.4268 56.754 53.4192Z" fill="url(#paint0_linear)"/>
<path d="M51.1327 8.67959C50.9663 8.65701 48.2802 9.62548 46.5476 10.3291C44.2095 11.2825 42.3937 12.1905 41.2739 12.9773C40.8578 13.2725 40.3356 13.7945 40.2525 13.9987C40.2222 14.0744 40.207 14.1652 40.207 14.256L41.221 15.2169L43.6345 15.9887L49.3774 17.0177L55.9448 18.1451L56.013 17.5776C55.9903 17.5776 55.9751 17.5701 55.9526 17.5701L55.0898 17.4339L54.9159 17.1237C54.0231 15.5498 53.0395 13.5977 52.4645 12.2812C52.0181 11.2597 51.5944 10.0795 51.3597 9.23202C51.2311 8.71751 51.216 8.68726 51.1329 8.67973V8.67955H51.1327V8.67959ZM51.0115 9.06559H51.0193C51.0268 9.07305 51.057 9.28505 51.0874 9.53459C51.2159 10.594 51.4506 11.6153 51.8213 12.72C52.1012 13.5524 52.1012 13.507 51.7759 13.4086C51.0041 13.1968 47.5464 12.599 45.0419 12.251C44.6409 12.198 44.3004 12.1451 44.3004 12.1375C44.2702 12.1073 46.1087 11.1463 46.9183 10.7681C47.9549 10.2913 50.7998 9.10337 51.0115 9.06559ZM43.7177 12.4552L44.0129 12.5535C45.6168 13.0984 49.6496 13.8702 51.8742 14.0517C52.1238 14.0744 52.3358 14.0972 52.3432 14.0972C52.3507 14.1047 52.139 14.2182 51.8665 14.3468C50.7922 14.884 49.6119 15.5423 48.7947 16.0493C48.5526 16.2005 48.3331 16.3217 48.3029 16.3217C48.2726 16.3217 48.1138 16.2914 47.9473 16.2687L47.6447 16.2232L46.8882 15.4817C45.5565 14.1879 44.5123 13.1892 44.1113 12.8108L43.7177 12.4552ZM43.4152 12.6898L44.482 14.0215C45.0645 14.7554 45.6547 15.4742 45.7834 15.633C45.9119 15.792 46.0179 15.9207 46.0104 15.9282C45.9801 15.9509 44.467 15.6557 43.6648 15.4742C42.8401 15.285 42.4996 15.1942 41.9927 15.0354L41.5765 14.8992V14.7932C41.5841 14.2862 42.2273 13.5296 43.3168 12.7579L43.4152 12.6898ZM52.4795 14.5057C52.5098 14.5057 52.5475 14.5738 52.6383 14.7781C52.8956 15.3455 53.6978 16.874 53.8943 17.169C53.955 17.2675 54.0608 17.275 52.994 17.101C50.4291 16.6847 49.6043 16.5487 49.6043 16.5335C49.6043 16.526 49.68 16.473 49.7784 16.42C50.5729 15.9812 51.3748 15.4213 52.0861 14.8235C52.2601 14.6797 52.419 14.5435 52.4492 14.5208C52.4568 14.5057 52.472 14.4982 52.4795 14.5057Z" fill="url(#paint1_linear)"/>
<path d="M40.3039 13.8928C40.3039 13.8928 40.1375 14.1578 40.2964 14.5512C40.3948 14.7933 40.6823 15.0883 41.0076 15.391C41.0076 15.391 44.3746 18.6748 44.7832 19.1439C46.6444 21.2927 47.4541 23.4113 47.5297 26.3319C47.5751 28.2084 47.2194 29.8578 46.3342 31.7721C44.7604 35.2072 41.4388 38.998 36.3164 43.2049L37.0656 42.9551C37.5498 42.5919 38.2081 42.2061 39.7516 41.3587C43.3152 39.4064 47.3254 37.6133 52.2436 35.7671C59.3254 33.1037 70.9701 29.9863 77.5981 28.9725L78.2867 28.8665L78.1807 28.7001C77.5755 27.7618 77.1592 27.1793 76.6598 26.5588C75.2072 24.758 73.4443 23.2978 71.2878 22.0872C68.3218 20.4302 64.4856 19.1364 59.6282 18.1755C58.7127 17.9938 56.7 17.6458 55.0657 17.3961C51.6003 16.859 49.3607 16.4882 46.8941 16.0645C46.0089 15.9131 44.6847 15.6862 43.807 15.497C43.3531 15.3986 42.483 15.1943 41.802 14.9598C41.2573 14.7478 40.4703 14.536 40.3039 13.8928ZM42.2561 15.7845C42.2636 15.777 42.3846 15.8223 42.5436 15.8753C42.8311 15.9735 43.2018 16.0871 43.6408 16.2082C43.9729 16.2995 44.3058 16.3878 44.6395 16.473C45.0935 16.5864 45.4717 16.6924 45.4793 16.6924C45.5323 16.7454 46.2965 19.1891 46.5538 20.1274C46.652 20.4831 46.7278 20.7857 46.7203 20.7857C46.7125 20.7933 46.6294 20.6646 46.531 20.4906C45.6458 18.9319 44.246 17.3506 42.6268 16.0794C42.415 15.9282 42.2561 15.792 42.2561 15.7845ZM45.9787 16.8135C46.0165 16.8135 46.183 16.8362 46.3872 16.8816C47.6735 17.1691 49.9813 17.6079 51.4566 17.8576C51.7063 17.8954 51.9031 17.9409 51.9031 17.956C51.9031 17.9712 51.8122 18.024 51.6987 18.0846C51.4491 18.2132 50.4427 18.8109 50.1099 19.0379C49.27 19.5978 48.5134 20.2031 47.9686 20.7479C47.7492 20.9673 47.5599 21.1489 47.5599 21.1489C47.5599 21.1489 47.5147 21.0203 47.4767 20.8613C47.2045 19.8096 46.6369 18.2509 46.1224 17.1539C46.0392 16.9799 45.971 16.821 45.971 16.8059C45.971 16.821 45.971 16.8135 45.9787 16.8135ZM52.5311 18.0619C52.5764 18.077 52.6521 18.3343 52.8034 18.9017C53.0834 19.9989 53.2121 21.2246 53.1667 22.3671C53.1515 22.6849 53.1364 22.98 53.1212 23.0179L53.0985 23.0935L52.7051 22.9649C51.8955 22.7076 50.579 22.3217 49.4517 22.004C48.8084 21.8299 48.2865 21.671 48.2865 21.6559C48.2865 21.6105 49.2247 20.6723 49.6257 20.3167C50.3898 19.6432 52.4629 18.0392 52.5311 18.0619ZM53.0531 18.1375C53.0759 18.1149 56.1856 18.652 57.6005 18.9244C58.6523 19.1287 60.1806 19.4465 60.2714 19.4844C60.3168 19.4995 60.1579 19.5903 59.6509 19.8172C57.6534 20.7177 56.1704 21.5272 54.6951 22.5109C54.3092 22.7681 53.9838 22.98 53.9763 22.98C53.9687 22.98 53.9612 22.7606 53.9612 22.4957C53.9612 21.0582 53.6736 19.6054 53.1439 18.3797C53.0909 18.2586 53.0456 18.1452 53.0531 18.1375ZM61.0961 19.7265C61.1188 19.7492 61.0204 20.3621 60.9296 20.7252C60.6573 21.8526 59.9234 23.5249 59.0231 25.0986C58.864 25.3786 58.7203 25.6056 58.7051 25.6131C58.6901 25.6206 58.4858 25.5071 58.2512 25.3709C57.3735 24.8564 56.3748 24.3722 55.2852 23.9181C54.9826 23.7896 54.7177 23.6836 54.7102 23.6686C54.6571 23.6231 57.0935 22.0115 58.3798 21.2397C59.4013 20.6193 61.0658 19.6962 61.0961 19.7265ZM61.6711 19.8173C61.7392 19.8173 63.1163 20.1956 63.835 20.4075C65.6131 20.9372 67.656 21.6862 68.9877 22.2915L69.5399 22.5412L69.1542 22.632C65.9008 23.381 63.1163 24.2436 60.4302 25.3332C60.2108 25.4239 60.014 25.4996 59.9991 25.4996C59.9839 25.4996 60.0595 25.3256 60.1579 25.1137C60.9675 23.3962 61.4896 21.603 61.6181 20.0745C61.6258 19.9307 61.6483 19.8173 61.6711 19.8173ZM47.9611 22.9649C47.9837 22.9421 49.0355 23.1919 49.6029 23.3506C50.4655 23.5929 52.2964 24.2057 52.2964 24.2511C52.2964 24.2587 52.0922 24.4327 51.8502 24.6446C50.859 25.4693 49.9056 26.3393 48.763 27.4441C48.4225 27.7695 48.1351 28.0343 48.12 28.0343C48.1048 28.0343 48.0973 27.9888 48.1048 27.9283C48.2788 26.6571 48.2411 25.0229 47.9989 23.3659C47.9761 23.1539 47.9535 22.9724 47.9611 22.9649ZM70.0622 22.9876C70.0772 23.0027 69.5779 23.7896 69.2601 24.2359C68.8062 24.8866 68.1402 25.7493 66.6345 27.6409C65.8402 28.6395 64.9472 29.767 64.6523 30.1453C64.3495 30.5236 64.0999 30.8413 64.0922 30.8413C64.0847 30.8413 63.9865 30.7052 63.8805 30.5388C63.033 29.2676 62.0191 28.1553 60.816 27.1566C60.5891 26.9674 60.3395 26.7631 60.2563 26.7026C60.173 26.6421 60.1049 26.5815 60.1049 26.574C60.1049 26.5513 61.391 25.9989 62.3672 25.6055C64.0772 24.9094 66.4074 24.0771 68.1554 23.5399C69.0709 23.2524 70.047 22.9724 70.0622 22.9876ZM70.6448 23.1389C70.6749 23.1314 70.8566 23.2221 71.076 23.3506C72.9147 24.4024 74.7154 25.7568 76.1379 27.149C76.5389 27.5425 77.5301 28.5715 77.5149 28.5791C77.5149 28.5791 77.1668 28.6093 76.7583 28.6395C73.5729 28.8818 69.4948 29.555 65.5754 30.5008C65.3106 30.5613 65.0761 30.6143 65.0609 30.6143C65.0459 30.6143 65.3409 30.3192 65.7117 29.9637C68.0118 27.7467 69.0636 26.347 70.3043 23.85C70.4783 23.4794 70.6297 23.1616 70.6448 23.1389C70.6372 23.1389 70.6372 23.1389 70.6448 23.1389ZM53.7946 24.8641C53.9006 24.8867 54.8842 25.3484 55.6257 25.719C56.3067 26.0594 57.3282 26.6043 57.3811 26.6496C57.3886 26.6571 57.0254 26.8463 56.5791 27.0658C55.1566 27.777 53.9385 28.4503 52.6672 29.2221C52.3041 29.4416 52.0014 29.6233 51.9939 29.6233C51.9636 29.6233 51.9712 29.5928 52.1755 29.2221C52.8565 27.9814 53.4012 26.4983 53.7115 25.0531C53.7416 24.9397 53.772 24.8641 53.7946 24.8641ZM52.8109 25.0456C52.8337 25.0683 52.5764 25.9989 52.4176 26.5059C52.1073 27.4668 51.5853 28.6698 51.0784 29.5778C50.9572 29.7896 50.7756 30.0998 50.6773 30.2738L50.4882 30.5765L50.0645 30.168C49.5727 29.6913 49.1716 29.3962 48.6572 29.1313C48.4528 29.0255 48.294 28.9346 48.294 28.9195C48.294 28.859 49.5878 27.6862 50.579 26.8388C51.2902 26.2259 52.7883 25.0229 52.8109 25.0456ZM58.8263 27.5198L59.1971 27.7619C60.0443 28.3143 61.043 29.0482 61.8074 29.6913C62.2386 30.0468 63.0708 30.796 63.2374 30.9776L63.3281 31.076L62.7153 31.25C59.2499 32.2108 56.5715 33.0658 53.4466 34.216C53.0985 34.3445 52.8034 34.4505 52.7807 34.4505C52.7354 34.4505 52.6974 34.4883 53.4769 33.7694C55.4744 31.931 57.2448 29.9031 58.5614 27.9283L58.8263 27.5198ZM57.2449 27.9132C57.26 27.9283 56.2234 29.3886 55.6029 30.2133C54.8615 31.197 53.5449 32.8464 52.6369 33.9207C52.2587 34.3672 51.9334 34.7379 51.9182 34.7456C51.8955 34.7531 51.8879 34.6396 51.8879 34.4656C51.8879 33.55 51.6534 32.5739 51.2448 31.7417C51.0708 31.3937 51.0405 31.3104 51.0784 31.2726C51.2221 31.144 53.4239 29.8879 54.8161 29.1389C55.7543 28.6396 57.222 27.8981 57.2449 27.9132ZM47.681 30.2588C47.7038 30.2588 47.8778 30.3495 48.0746 30.4555C48.5588 30.7203 48.9901 31.0154 49.3759 31.3332C49.391 31.3483 49.1944 31.5073 48.9371 31.6963C48.2183 32.2108 47.1288 33.0356 46.4933 33.5426C45.8273 34.0722 45.8048 34.0873 45.8803 33.9739C46.3798 33.2096 46.6293 32.7784 46.8943 32.2261C47.1288 31.7343 47.3633 31.1517 47.5297 30.6447C47.5902 30.4253 47.6659 30.2588 47.681 30.2588ZM50.231 32.2562C50.2687 32.2488 50.3142 32.3168 50.5184 32.6195C50.9497 33.2625 51.2826 34.1252 51.366 34.8213L51.3809 34.9727L50.3445 35.3737C48.4906 36.0924 46.7808 36.8037 45.623 37.3333C45.2977 37.4846 44.7302 37.757 44.3595 37.9387C43.9887 38.1277 43.6861 38.2715 43.6861 38.264C43.6861 38.2564 43.9206 38.0824 44.2081 37.8705C46.4706 36.2287 48.4302 34.4278 49.898 32.6271C50.0569 32.4379 50.2007 32.2638 50.2158 32.2563L50.231 32.2562ZM49.0582 32.5438C49.0885 32.5741 48.2259 33.5501 47.6358 34.1478C46.1755 35.6385 44.7303 36.8037 42.937 37.9387C42.7101 38.0824 42.5058 38.211 42.4831 38.2262C42.4301 38.2564 42.4981 38.1807 43.2851 37.3257C43.7845 36.7885 44.1627 36.3345 44.594 35.7747C44.8815 35.404 44.9345 35.351 45.3508 35.0558C46.463 34.2538 49.0279 32.5135 49.0582 32.5438Z" fill="url(#paint2_radial)"/>
<path d="M16.2956 63.8734C16.156 63.8734 16.0164 63.8867 15.8781 63.8867C13.0589 64.0369 11.1575 65.2776 10.0457 67.7005C9.09491 69.8918 9.19872 72.7561 10.0564 74.9608C11.0538 77.115 12.6654 78.252 15.3554 78.6814C15.9246 78.7746 16.3063 79.0871 17.4086 80.3742L18.765 81.9633H21.225L19.5893 80.3143C18.685 79.4101 17.9537 78.6228 17.9537 78.5537C17.9537 78.4846 18.2996 78.333 18.7183 78.2054C20.0986 77.7877 21.2449 76.7213 22.0467 75.087C22.6956 73.7746 22.7888 73.3689 22.8818 71.7361C23.1252 66.8759 20.5627 63.8373 16.2955 63.872L16.2956 63.8734ZM18.4524 76.5832C17.2556 77.1629 15.5178 77.2786 14.3835 76.8624C13.2106 76.4316 12.075 75.2136 11.5643 73.8346C10.9965 72.3267 11.0776 69.5449 11.7265 68.2921C12.7704 66.2975 14.1507 65.38 16.1679 65.38C19.1599 65.38 20.8619 67.2125 21.084 70.6565C21.2596 73.5315 20.2968 75.6883 18.4537 76.582L18.4524 76.5832ZM60.9487 68.0249C59.9168 68.0249 59.1269 68.4425 58.5949 69.2654L58.1774 69.9171V68.2229H56.3916V78.3823H58.1762V75.1351C58.1762 72.1657 58.2133 71.8186 58.6282 71.0061C59.2001 69.8918 60.184 69.3361 61.1349 69.602L61.7731 69.7882V68.0276H60.9487V68.0249ZM50.457 67.9317C50.1071 67.9317 49.7361 67.9783 49.3666 68.0595C46.9769 68.6844 45.6299 70.9716 45.7123 73.3253C45.7123 75.296 46.0952 76.2813 47.0462 77.3146C48.9943 78.9129 50.7561 79.0405 53.1337 78.1829C53.5393 78.0101 53.9808 77.8106 53.9808 77.8106V76.2123L53.1337 76.6511C51.2095 77.4888 49.7601 77.4888 48.5992 76.5021C47.8587 75.7481 47.5327 74.8439 47.3826 73.8121H54.5831V72.4423C54.5831 69.6498 52.9023 67.8865 50.4555 67.9317H50.457ZM47.5448 72.3865C47.5448 72.3865 47.8108 70.6445 48.7974 69.961C49.2723 69.6258 49.8173 69.4637 50.3505 69.4637C50.8852 69.4637 51.4183 69.6365 51.8585 69.973C52.7628 70.6684 52.9144 72.3733 52.9144 72.3733H47.5448V72.3865H47.5448ZM4.49131 70.5541C2.55525 69.3812 1.69622 68.5354 1.80126 67.5381C2.10173 64.7789 5.51131 65.1605 7.39947 66.2045L7.4129 64.3482C7.4129 64.3482 6.36899 63.8961 4.87297 63.8721C2.57782 63.8375 1.09381 64.5901 0.398445 66.122C-0.6229 68.3826 0.281447 70.0873 3.55005 71.9889C5.38505 73.0566 6.19613 73.9835 6.19613 74.9941C6.19613 77.0819 3.67894 77.8106 1.08198 76.5007C0.547514 76.2348 0.0953406 76.0127 0.0714258 76.0127C-0.0217192 76.6045 0.0262943 78.0206 0.0262943 78.0206C0.0262943 78.0206 0.82419 78.3558 2.02085 78.587C4.98874 79.1787 7.68958 77.7865 7.94485 75.5259C8.16695 73.4037 7.39953 72.2906 4.49143 70.5526L4.49131 70.5541ZM76.7541 67.9079C76.4057 67.9079 76.036 67.9557 75.6503 68.0368C73.2635 68.6618 71.919 70.9491 72.0108 73.3028C72.0108 75.2708 72.3925 76.2468 73.3432 77.2786C75.2914 78.8784 77.0533 79.0073 79.4429 78.1484C79.8471 77.9756 80.2872 77.7789 80.2872 77.7789V76.1779L79.4416 76.6192C77.5135 77.4543 76.0639 77.4543 74.9071 76.4677C74.1624 75.715 73.8393 74.8214 73.689 73.7775H80.8777V72.4079C80.8777 69.6288 79.1968 67.8641 76.7501 67.9107L76.7541 67.9079ZM73.8419 72.3625C73.8419 72.3625 74.1105 70.6232 75.0958 69.9264C75.5693 69.59 76.1144 69.4277 76.6477 69.4277C77.1795 69.4277 77.7155 69.6006 78.1558 69.9383C79.06 70.6338 79.2116 72.3505 79.2116 72.3505H73.8434L73.8419 72.3625ZM41.1087 70.5767C39.1727 69.4065 38.3162 68.5581 38.42 67.5607C38.7204 64.8 42.1301 65.1831 44.0182 66.227L44.0316 64.3707C44.0316 64.3707 42.9877 63.9186 41.4917 63.8972C39.1965 63.8627 37.7125 64.6153 37.0159 66.1472C35.9959 68.4077 36.9121 70.1125 40.17 72.0141C42.0025 73.0807 42.8135 73.9955 42.8135 75.0061C42.8135 77.0938 40.2976 77.8345 37.7006 76.5126C37.1687 76.2467 36.7167 76.0272 36.6901 76.0272C36.5969 76.6189 36.6449 78.0352 36.6449 78.0352C36.6449 78.0352 37.4334 78.3584 38.6262 78.6016C41.5968 79.1947 44.2989 77.8037 44.553 75.5432C44.7737 73.4315 44.0078 72.3185 41.1088 70.5792V70.5767H41.1087ZM87.2472 68.001C86.2153 68.001 85.4162 68.4197 84.8935 69.2429L84.4759 69.8918V68.2004H82.6901V78.3571H84.4746V75.1099C84.4746 72.1418 84.5104 71.7934 84.9268 70.9823C85.4986 69.8693 86.4825 69.3122 87.4333 69.5794L88.0715 69.7655V68.001H87.2472V68.001ZM26.907 70.5182V64.0475H25.1066V78.3797H32.6783V76.687H26.9071V70.5182H26.907ZM68.5442 72.5353L67.0602 76.397L65.6333 72.5141L64.1839 68.211H62.3409C63.5351 71.5967 64.834 75.0406 66.144 78.3797C66.7118 78.393 67.2809 78.3797 67.8486 78.3797L69.8527 73.3479L71.8938 68.2123H70.132C70.132 68.2123 69.3539 70.2522 68.5429 72.5367L68.5442 72.5353ZM31.0558 60.142C31.3457 60.142 31.5877 60.049 31.7872 59.8495C31.9839 59.6526 32.0876 59.4213 32.0876 59.1314C32.0876 58.8415 31.9839 58.5995 31.7872 58.4133C31.5877 58.2272 31.3576 58.134 31.0691 58.134C30.7766 58.134 30.5345 58.2272 30.3377 58.4239C30.1383 58.6208 30.0478 58.8628 30.0478 59.1421C30.0478 59.4347 30.141 59.6766 30.3377 59.8602C30.5239 60.0463 30.7659 60.1394 31.0558 60.1394V60.142ZM30.4176 58.4931C30.5904 58.3203 30.8005 58.2404 31.0691 58.2404C31.3218 58.2404 31.532 58.3203 31.7075 58.4931C31.8804 58.666 31.9735 58.8761 31.9735 59.1314C31.9735 59.3867 31.8804 59.6075 31.7075 59.7803C31.532 59.9531 31.3218 60.0356 31.0691 60.0356C30.8125 60.0356 30.6037 59.9558 30.4309 59.7803C30.258 59.6075 30.165 59.3867 30.165 59.1314C30.165 58.8761 30.2447 58.6661 30.4176 58.4931ZM30.847 59.2246H30.964C31.0465 59.2246 31.1276 59.3043 31.1967 59.4559L31.3365 59.7696H31.5558L31.383 59.4212C31.3126 59.2817 31.2434 59.2005 31.1623 59.1778C31.2647 59.1539 31.3457 59.1193 31.4043 59.0501C31.4627 58.9904 31.484 58.9092 31.484 58.8174C31.484 58.7111 31.4508 58.6314 31.3804 58.5728C31.3005 58.5063 31.1729 58.4705 31.0079 58.4705H30.6384V59.7696H30.8245V59.2244L30.847 59.2246ZM30.847 58.6208H31.0093C31.1263 58.6208 31.2088 58.6447 31.254 58.6792C31.2979 58.7138 31.3099 58.7591 31.3099 58.8415C31.3099 58.9917 31.2166 59.0623 31.0439 59.0623H30.8445V58.6208H30.847ZM1.10571 59.1088C1.10571 58.6567 1.09247 58.3203 1.0818 58.1222H1.09247C1.13895 58.356 1.19616 58.5304 1.2427 58.646L2.97131 62.5077H3.26123L4.98984 58.6115C5.03651 58.5052 5.08305 58.3455 5.1402 58.1234H5.15344C5.11892 58.5091 5.10696 58.8442 5.10696 59.1114V62.5197H5.69858V57.4533H4.95661L3.36762 60.9771C3.30906 61.1167 3.22793 61.3256 3.12424 61.6021H3.1002C3.06568 61.4651 2.98455 61.2564 2.86891 61.001L1.31567 57.4412H0.527217V62.5075H1.09633V59.1113L1.10571 59.1088ZM6.99519 59.1182H7.50592V62.2737H6.99519V59.1182ZM7.25053 57.9612C7.35698 57.9612 7.44736 57.9253 7.51647 57.8549C7.58699 57.7857 7.63359 57.6953 7.63359 57.589C7.63359 57.4852 7.59895 57.3921 7.51788 57.323C7.44607 57.2525 7.35428 57.2165 7.24924 57.2165C7.14561 57.2165 7.05252 57.2525 6.98323 57.323C6.91296 57.3921 6.86629 57.4852 6.86629 57.589C6.86629 57.7047 6.90223 57.7857 6.98323 57.8549C7.06319 57.9253 7.14555 57.9612 7.24924 57.9612H7.25053ZM11.1468 62.3429V61.787C10.8675 61.9958 10.567 62.0996 10.2558 62.0996C9.88361 62.0996 9.5816 61.972 9.36085 61.7274C9.14151 61.4853 9.02451 61.1487 9.02451 60.7299C9.02451 60.2911 9.14151 59.9426 9.38348 59.6766C9.61619 59.4213 9.91813 59.2937 10.2878 59.2937C10.5896 59.2937 10.8794 59.3869 11.1469 59.5731V58.9814C10.9035 58.8537 10.6256 58.7951 10.3117 58.7951C9.7319 58.7951 9.27991 58.9814 8.94216 59.3405C8.60699 59.6995 8.43412 60.1875 8.43412 60.7766C8.43412 61.3005 8.58436 61.7407 8.89697 62.0772C9.2227 62.4228 9.63906 62.5984 10.1496 62.5984C10.5444 62.5875 10.8675 62.505 11.1468 62.3429ZM12.6081 60.6607C12.6081 60.2444 12.7012 59.9081 12.8741 59.6766C13.0364 59.4679 13.2331 59.3628 13.4658 59.3628C13.6626 59.3628 13.8022 59.3987 13.9045 59.4798V58.8761C13.8248 58.8416 13.7091 58.8296 13.5589 58.8296C13.3501 58.8296 13.164 58.8999 13.0004 59.0291C12.8276 59.1659 12.6893 59.3748 12.6082 59.6407H12.5949V58.9H12.0165V62.517H12.5962V60.6607H12.6081ZM15.9365 62.5888C16.4818 62.5888 16.9206 62.4132 17.2463 62.0649C17.5707 61.719 17.7329 61.2537 17.7329 60.6738C17.7329 60.0823 17.5841 59.6301 17.2809 59.2935C16.9804 58.9573 16.5628 58.7948 16.0175 58.7948C15.4722 58.7948 15.0334 58.9572 14.7077 59.2709C14.3594 59.6168 14.1758 60.1048 14.1758 60.7311C14.1758 61.2763 14.3248 61.7285 14.6387 62.0649C14.963 62.4132 15.3926 62.5874 15.9365 62.5874V62.5888ZM15.1121 59.642C15.3328 59.4093 15.6228 59.2936 15.9817 59.2936C16.3542 59.2936 16.6333 59.4093 16.8408 59.642C17.0495 59.8854 17.1533 60.2325 17.1533 60.6966C17.1533 61.1379 17.0602 61.4851 16.8634 61.7178C16.6666 61.9612 16.3767 62.0901 15.9937 62.0901C15.6214 62.0901 15.3328 61.961 15.1121 61.7178C14.8927 61.4731 14.7876 61.1379 14.7876 60.6966C14.765 60.2578 14.8808 59.8988 15.1121 59.642ZM20.2716 62.2737C20.4923 62.0769 20.6094 61.8349 20.6094 61.5316C20.6094 61.2656 20.5162 61.0449 20.3434 60.8707C20.2024 60.7312 19.9844 60.6048 19.6692 60.4771C19.3899 60.3602 19.2171 60.2563 19.1239 60.1752C19.0309 60.0822 18.9737 59.9666 18.9737 59.8029C18.9737 59.6527 19.0322 59.537 19.1467 59.4439C19.2637 59.3509 19.4126 59.3058 19.6121 59.3058C19.9246 59.3058 20.1918 59.3881 20.4364 59.5624V58.9825C20.2024 58.8657 19.9484 58.8098 19.6585 58.8098C19.2862 58.8098 18.9724 58.9123 18.7409 59.1102C18.4975 59.3072 18.3819 59.5624 18.3819 59.8628C18.3819 60.1288 18.4617 60.3496 18.6132 60.5117C18.7409 60.6501 18.9591 60.7911 19.2621 60.9173C19.5521 61.045 19.7489 61.1606 19.8539 61.2537C19.9576 61.3469 20.0041 61.4624 20.0041 61.5996C20.0041 61.9372 19.7728 62.1115 19.3206 62.1115C18.9722 62.1115 18.6598 61.9971 18.3804 61.7658V62.3906C18.6331 62.5424 18.9363 62.6114 19.2714 62.6114C19.7009 62.5888 20.0373 62.4838 20.2687 62.275L20.2716 62.2737ZM23.0321 58.795C22.4868 58.795 22.0481 58.9573 21.7223 59.271C21.3766 59.617 21.1904 60.1049 21.1904 60.7313C21.1904 61.2765 21.3408 61.7286 21.6532 62.065C21.979 62.4133 22.4071 62.5876 22.9524 62.5876C23.5108 62.5876 23.9364 62.4121 24.2622 62.0636C24.588 61.7179 24.7501 61.2525 24.7501 60.6726C24.7501 60.0809 24.5986 59.6289 24.298 59.2924C23.9843 58.9559 23.5666 58.7937 23.0347 58.7937L23.0321 58.795ZM24.1571 60.6966C24.1571 61.138 24.064 61.4851 23.8672 61.7178C23.6704 61.9612 23.3804 62.0901 22.9974 62.0901C22.625 62.0901 22.3365 61.9611 22.1157 61.7178C21.8964 61.4732 21.7913 61.138 21.7913 60.6966C21.7913 60.2312 21.9071 59.8722 22.1398 59.6301C22.3591 59.3987 22.6491 59.2817 23.0095 59.2817C23.3684 59.2817 23.6571 59.3986 23.8657 59.6301C24.052 59.8854 24.1557 60.2325 24.1557 60.6966H24.1571ZM25.7236 62.5064H26.302V59.3749H27.149V58.8881H26.302V58.3296C26.302 57.8217 26.4987 57.5664 26.9057 57.5664C27.0427 57.5664 27.1823 57.6009 27.286 57.6595V57.137C27.1823 57.0904 27.0427 57.0798 26.8683 57.0798C26.5559 57.0798 26.3006 57.173 26.0918 57.3697C25.8484 57.6011 25.7195 57.9016 25.7195 58.3086V58.9017H25.1076V59.3884H25.7195V62.5081L25.7236 62.5064ZM28.0998 61.5197C28.0998 62.2272 28.4124 62.5875 29.0506 62.5875C29.282 62.5875 29.4562 62.5503 29.5958 62.4679V61.9705C29.4894 62.0504 29.3631 62.0877 29.2235 62.0877C29.0268 62.0877 28.8885 62.0409 28.8073 61.9359C28.7248 61.8323 28.6783 61.6566 28.6783 61.4146V59.3735H29.5957V58.8868H28.6783V57.8204C28.4788 57.8895 28.2834 57.9481 28.0985 58.0064V58.8867H27.4735V59.3735H28.0985V61.5184L28.0998 61.5197ZM90.3322 68.187C90.1354 68.001 89.9027 67.9078 89.6142 67.9078C89.3217 67.9078 89.0795 68.001 88.8828 68.2004C88.686 68.3959 88.5928 68.6391 88.5928 68.9185C88.5928 69.2084 88.686 69.4504 88.8813 69.6365C89.0782 69.8227 89.3201 69.9159 89.6127 69.9159C89.9012 69.9159 90.1446 69.8227 90.3441 69.6259C90.5396 69.4264 90.6433 69.1964 90.6433 68.9079C90.6327 68.6153 90.5276 68.3732 90.3308 68.1871L90.3322 68.187ZM90.2392 69.5568C90.0662 69.7296 89.8562 69.8094 89.6008 69.8094C89.3483 69.8094 89.1382 69.7296 88.9626 69.5568C88.7898 69.3812 88.6966 69.1618 88.6966 68.9051C88.6966 68.6524 88.7764 68.4425 88.9519 68.2669C89.1247 68.0942 89.3337 68.0142 89.6008 68.0142C89.8535 68.0142 90.0637 68.0942 90.2392 68.2669C90.412 68.4425 90.5051 68.6524 90.5051 68.9051C90.5051 69.1738 90.4253 69.3812 90.2392 69.5568ZM89.7178 68.965C89.8215 68.9411 89.9041 68.8945 89.9612 68.8374C90.0198 68.7775 90.0411 68.6963 90.0411 68.6034C90.0411 68.4997 90.0078 68.4172 89.9374 68.3601C89.8576 68.2935 89.7287 68.2576 89.5652 68.2576H89.1955V69.5554H89.3817V69.0102H89.4973C89.5772 69.0102 89.657 69.0899 89.7287 69.2415L89.8669 69.554H90.0878L89.915 69.2055C89.8551 69.0539 89.7859 68.9847 89.7156 68.9621L89.7178 68.965ZM89.5902 68.848H89.3907V68.4093H89.5543C89.6701 68.4093 89.7511 68.4304 89.7977 68.4664C89.8442 68.501 89.8549 68.5462 89.8549 68.6287C89.8549 68.7789 89.7618 68.8482 89.589 68.8482L89.5902 68.848ZM57.2387 58.7379H57.401V57.4387H57.8303V57.2764H56.8092V57.4387H57.2388V58.7379H57.2387ZM58.2227 57.7618C58.2227 57.6354 58.2227 57.5317 58.2134 57.4733C58.2241 57.5424 58.248 57.589 58.2586 57.6236L58.7574 58.7379H58.8371L59.337 57.6128C59.3504 57.5783 59.3611 57.5331 59.3836 57.4733C59.373 57.589 59.373 57.6819 59.373 57.7525V58.7366H59.5459V57.2764H59.337L58.885 58.2844C58.8744 58.3204 58.8383 58.3907 58.8158 58.4706H58.8025C58.7932 58.424 58.7693 58.3775 58.736 58.2978L58.2839 57.2765H58.0499V58.7393H58.2134V57.7632L58.2227 57.7618Z" fill="#231F1F"/>
</g>
<defs>
<linearGradient id="paint0_linear" x1="40.1502" y1="53.7202" x2="43.7699" y2="51.5814" gradientUnits="userSpaceOnUse">
<stop stop-color="#909CA9"/>
<stop offset="1" stop-color="#EDEDEE"/>
</linearGradient>
<linearGradient id="paint1_linear" x1="40.2336" y1="13.3975" x2="43.1461" y2="13.3975" gradientUnits="userSpaceOnUse">
<stop stop-color="#939FAB"/>
<stop offset="1" stop-color="#DCDEE1"/>
</linearGradient>
<radialGradient id="paint2_radial" cx="0" cy="0" r="1" gradientUnits="userSpaceOnUse" gradientTransform="translate(54.9286 26.7552) rotate(-171.457) scale(3.75502 7.5119)">
<stop stop-color="#EE352C"/>
<stop offset="1" stop-color="#A91D22"/>
</radialGradient>
<clipPath id="clip0">
<rect width="90.6433" height="90.6433" fill="white"/>
</clipPath>
</defs>
</svg>
