<svg width="53" height="53" viewBox="0 0 53 53" fill="none" xmlns="http://www.w3.org/2000/svg">
<path fill-rule="evenodd" clip-rule="evenodd" d="M1.104 12.9346C1.104 10.082 3.37404 7.72925 6.22332 7.72925H42.3596C45.2091 7.72925 47.479 10.082 47.479 12.9346V24.2917C47.479 24.9015 46.9846 25.3959 46.3748 25.3959C45.7651 25.3959 45.2707 24.9015 45.2707 24.2917V12.9346C45.2707 11.2572 43.9454 9.93758 42.3596 9.93758H6.22332C4.63758 9.93758 3.31234 11.2572 3.31234 12.9346V33.4407C3.31234 35.1179 4.63758 36.4376 6.22332 36.4376H22.0832C22.6929 36.4376 23.1873 36.932 23.1873 37.5417C23.1873 38.1515 22.6929 38.6459 22.0832 38.6459H6.22332C3.37404 38.6459 1.104 36.2932 1.104 33.4407V12.9346Z" fill="white"/>
<path fill-rule="evenodd" clip-rule="evenodd" d="M1.104 15.4584C1.104 14.8486 1.59836 14.3542 2.20817 14.3542H46.3748C46.9846 14.3542 47.479 14.8486 47.479 15.4584C47.479 16.0682 46.9846 16.5626 46.3748 16.5626H2.20817C1.59836 16.5626 1.104 16.0682 1.104 15.4584Z" fill="white"/>
<path fill-rule="evenodd" clip-rule="evenodd" d="M5.52051 26.5002C5.52051 25.8904 6.01487 25.396 6.62467 25.396H11.0413C11.6512 25.396 12.1455 25.8904 12.1455 26.5002C12.1455 27.1099 11.6512 27.6043 11.0413 27.6043H6.62467C6.01487 27.6043 5.52051 27.1099 5.52051 26.5002Z" fill="white"/>
<path fill-rule="evenodd" clip-rule="evenodd" d="M5.52051 32.0209C5.52051 31.4112 6.01487 30.9167 6.62467 30.9167H15.458C16.0678 30.9167 16.5622 31.4112 16.5622 32.0209C16.5622 32.6306 16.0678 33.1251 15.458 33.1251H6.62467C6.01487 33.1251 5.52051 32.6306 5.52051 32.0209Z" fill="white"/>
<path fill-rule="evenodd" clip-rule="evenodd" d="M39.7498 29.8126C34.2615 29.8126 29.8123 34.2617 29.8123 39.7501C29.8123 45.2384 34.2615 49.6876 39.7498 49.6876C45.2382 49.6876 49.6873 45.2384 49.6873 39.7501C49.6873 34.2617 45.2382 29.8126 39.7498 29.8126ZM27.604 39.7501C27.604 33.042 33.0418 27.6042 39.7498 27.6042C46.4579 27.6042 51.8957 33.042 51.8957 39.7501C51.8957 46.4581 46.4579 51.8959 39.7498 51.8959C33.0418 51.8959 27.604 46.4581 27.604 39.7501Z" fill="white"/>
<path fill-rule="evenodd" clip-rule="evenodd" d="M43.3855 37.865C43.8168 37.434 44.5159 37.434 44.9472 37.865C45.3783 38.2963 45.3783 38.9955 44.9472 39.4268L40.5305 43.8434C40.0992 44.2745 39.4001 44.2745 38.9688 43.8434L35.6563 40.5309C35.2252 40.0997 35.2252 39.4005 35.6563 38.9692C36.0876 38.5381 36.7868 38.5381 37.218 38.9692L39.7497 41.5011L43.3855 37.865Z" fill="white"/>
</svg>
