<svg width="37" height="37" viewBox="0 0 37 37" fill="none" xmlns="http://www.w3.org/2000/svg">
<g clip-path="url(#clip0)">
<path d="M27.1239 6.60696C24.3277 6.60696 21.5425 6.60696 18.7463 6.59595C18.4491 6.59595 18.295 6.65101 18.1849 6.97036C17.4473 9.15071 15.4658 10.5712 13.209 10.5712C10.9632 10.5712 8.97067 9.1397 8.2331 6.97036C8.13402 6.67303 8.00191 6.60696 7.71569 6.60696C5.61304 6.61797 3.5104 6.60696 1.40775 6.60696C0.383944 6.60696 -0.276573 5.65994 0.108729 4.76797C0.361927 4.20637 0.82429 3.96411 1.42976 3.96411C3.51039 3.96411 5.58002 3.9641 7.66065 3.97512C7.9799 3.97512 8.13402 3.90905 8.24411 3.57869C8.97067 1.43137 10.9632 0.0108313 13.198 -0.000180572C15.4548 -0.0111925 17.4473 1.40934 18.1849 3.57869C18.284 3.87601 18.4161 3.97512 18.7353 3.96411C24.2947 3.95309 29.854 3.95309 35.4134 3.96411C35.6005 3.96411 35.7987 3.96411 35.9859 4.00815C36.6354 4.16232 37.0647 4.77899 36.9876 5.42869C36.9216 6.0894 36.3601 6.60696 35.6666 6.60696C34.0593 6.61797 32.4521 6.60696 30.8338 6.61797C29.6008 6.60696 28.3569 6.60696 27.1239 6.60696ZM13.231 2.64268C11.7669 2.64268 10.5669 3.83196 10.5779 5.29655C10.5779 6.73911 11.7669 7.92839 13.198 7.92839C14.6511 7.9394 15.8511 6.73911 15.8511 5.27452C15.8511 3.83196 14.6731 2.65369 13.231 2.64268Z" fill="white"/>
<path d="M9.83081 19.8215C7.02361 19.8215 4.21641 19.8215 1.40921 19.8215C0.385409 19.8215 -0.275108 18.8855 0.110194 17.9935C0.352383 17.4429 0.792728 17.1786 1.38719 17.1786C2.93941 17.1786 4.49163 17.1786 6.05485 17.1786C10.128 17.1786 14.2012 17.1786 18.2744 17.1896C18.5827 17.1896 18.7258 17.1236 18.8249 16.8152C19.5514 14.6569 21.555 13.2253 23.8008 13.2253C26.0465 13.2253 28.0391 14.6569 28.7656 16.8262C28.8647 17.1125 28.9858 17.2006 29.2831 17.2006C31.3967 17.1896 33.5214 17.1896 35.635 17.2006C36.6258 17.2006 37.2753 18.1477 36.901 19.0286C36.6588 19.5902 36.1965 19.8435 35.591 19.8435C33.4994 19.8435 31.4077 19.8545 29.3161 19.8325C29.0078 19.8325 28.8647 19.9096 28.7656 20.2179C28.0281 22.3873 26.0355 23.8078 23.7898 23.8078C21.544 23.8078 19.5514 22.3762 18.8249 20.2069C18.7258 19.9096 18.5937 19.8435 18.3075 19.8435C15.4672 19.8215 12.649 19.8215 9.83081 19.8215ZM26.4208 18.5111C26.4208 17.0465 25.2429 15.8572 23.7787 15.8572C22.3256 15.8572 21.1367 17.0575 21.1367 18.5111C21.1367 19.9536 22.3146 21.1319 23.7567 21.1429C25.2319 21.1429 26.4208 19.9646 26.4208 18.5111Z" fill="white"/>
<path d="M27.1362 33.0356C24.329 33.0356 21.5218 33.0356 18.7146 33.0246C18.4284 33.0246 18.2963 33.0907 18.1972 33.388C17.4596 35.5683 15.4891 36.9889 13.2323 36.9889C10.9755 36.9889 8.97196 35.5573 8.23438 33.366C8.14631 33.0907 8.02522 33.0136 7.73899 33.0246C5.62534 33.0356 3.50067 33.0356 1.38701 33.0246C0.319177 33.0246 -0.330332 31.9564 0.176065 31.0645C0.440272 30.591 0.869609 30.3817 1.40903 30.3817C3.51168 30.3817 5.61433 30.3817 7.72798 30.3928C8.02522 30.3928 8.14631 30.3157 8.24539 30.0183C8.97196 27.86 10.9535 26.4285 13.2103 26.4285C15.467 26.4285 17.4486 27.838 18.1862 30.0183C18.2853 30.3267 18.4284 30.4038 18.7366 30.4038C24.351 30.3928 29.9654 30.3928 35.5688 30.3928C36.5926 30.3928 37.2531 31.3067 36.9008 32.2097C36.6917 32.7383 36.2073 33.0356 35.5468 33.0356C32.7396 33.0356 29.9324 33.0356 27.1362 33.0356ZM15.8523 31.7362C15.8634 30.2826 14.6744 29.0823 13.2213 29.0713C11.7792 29.0713 10.5902 30.2386 10.5682 31.6701C10.5462 33.1237 11.7351 34.335 13.1773 34.357C14.6414 34.368 15.8523 33.1898 15.8523 31.7362Z" fill="white"/>
</g>
<defs>
<clipPath id="clip0">
<rect width="37" height="37" fill="white"/>
</clipPath>
</defs>
</svg>
