<svg width="43" height="43" viewBox="0 0 43 43" fill="none" xmlns="http://www.w3.org/2000/svg">
<g clip-path="url(#clip0)">
<path d="M22.3959 25.0832H36.7292C37.2237 25.0832 37.6251 24.6819 37.6251 24.1874C37.6251 23.6929 37.2237 23.2915 36.7292 23.2915H22.3959C21.9014 23.2915 21.5 23.6929 21.5 24.1874C21.5 24.6819 21.9014 25.0832 22.3959 25.0832Z" fill="white"/>
<path d="M43 17.0209V13.4375C43 12.5721 42.742 11.7712 42.3156 11.085C42.3049 11.0635 42.3031 11.0384 42.2905 11.0188L36.7506 2.11414C35.9283 0.791889 34.5057 0 32.947 0H10.0549C8.49435 0 7.0735 0.791889 6.25112 2.11414L0.711264 11.0188C0.700514 11.0366 0.700514 11.0564 0.689764 11.0761C0.259764 11.7623 0 12.5685 0 13.4375V17.0209C0 18.49 0.722014 19.7872 1.82036 20.6042C0.722014 21.4211 0 22.7165 0 24.1875V27.7709C0 29.24 0.722014 30.5372 1.82036 31.3542C0.722014 32.1711 0 33.4665 0 34.9375V38.5209C0 40.9897 2.01025 43 4.47914 43H16.2253C16.7215 43 17.1211 42.5986 17.1211 42.1041C17.1211 41.6096 16.7198 41.2083 16.2253 41.2083H4.47914C2.9974 41.2083 1.79164 40.0025 1.79164 38.5208V34.9375C1.79164 33.454 2.9974 32.25 4.47914 32.25H19.4646C19.9591 32.25 20.3605 31.8486 20.3605 31.3541C20.3605 30.8596 19.9591 30.4583 19.4646 30.4583H4.47914C2.9974 30.4583 1.79164 29.2525 1.79164 27.7708V24.1875C1.79164 22.704 2.9974 21.5 4.47914 21.5H38.5208C40.0025 21.5 41.2083 22.7058 41.2083 24.1875V27.7709C41.2083 28.165 41.1115 28.561 40.9252 28.9426C40.7084 29.387 40.8912 29.9226 41.3354 30.1412C41.7816 30.3598 42.3173 30.1771 42.5341 29.731C42.844 29.1003 42.9999 28.4427 42.9999 27.7709V24.1875C42.9999 22.7184 42.2779 21.4211 41.1796 20.6041C42.278 19.7854 43 18.49 43 17.0209ZM7.77225 3.06014C8.26499 2.2664 9.11776 1.79164 10.053 1.79164H32.9451C33.8804 1.79164 34.7332 2.2664 35.2277 3.06014L38.924 8.99951C38.7896 8.98515 38.6588 8.95828 38.5209 8.95828H4.47914C4.34115 8.95828 4.21039 8.98515 4.07601 8.99767L7.77225 3.06014ZM41.2084 17.0209C41.2084 18.5026 40.0026 19.7084 38.5209 19.7084H4.47914C2.9974 19.7084 1.79164 18.5026 1.79164 17.0209V13.4375C1.79164 11.954 2.9974 10.75 4.47914 10.75H38.5208C40.0025 10.75 41.2083 11.954 41.2083 13.4375V17.0209H41.2084Z" fill="white"/>
<path d="M3.5835 36.729C3.5835 38.2107 4.78926 39.4165 6.271 39.4165C7.75273 39.4165 8.95849 38.2107 8.95849 36.729C8.95849 35.2473 7.75273 34.0415 6.271 34.0415C4.78926 34.0415 3.5835 35.2455 3.5835 36.729ZM7.16677 36.729C7.16677 37.2235 6.76541 37.6249 6.27091 37.6249C5.77641 37.6249 5.37513 37.2235 5.37513 36.729C5.37513 36.2345 5.7765 35.8331 6.271 35.8331C6.7655 35.8331 7.16677 36.2345 7.16677 36.729Z" fill="white"/>
<path d="M36.7294 30.4584C36.5664 30.4584 36.4033 30.4673 36.2439 30.4816C34.7514 28.242 32.2449 26.875 29.5628 26.875C25.3918 26.875 21.95 30.0588 21.5415 34.1241C19.4793 34.5219 17.917 36.3422 17.917 38.5209C17.917 40.9897 19.9272 43 22.3961 43H36.7295C40.1874 43 43.0003 40.1871 43.0003 36.7291C43.0003 33.2712 40.1874 30.4584 36.7294 30.4584ZM36.7294 41.2084H22.3961C20.9144 41.2084 19.7086 40.0026 19.7086 38.5209C19.7086 37.0391 20.9144 35.8334 22.3961 35.8334C22.8906 35.8334 23.292 35.432 23.292 34.9375C23.292 31.4796 26.1049 28.6666 29.5629 28.6666C31.8025 28.6666 33.8897 29.9011 35.006 31.888C35.1923 32.2195 35.5614 32.395 35.9448 32.3305C36.2011 32.2858 36.4608 32.2499 36.7296 32.2499C39.1985 32.2499 41.2087 34.2602 41.2087 36.7291C41.2087 39.1979 39.1984 41.2084 36.7294 41.2084Z" fill="white"/>
<path d="M36.7291 12.5417H22.3959C21.9014 12.5417 21.5 12.9431 21.5 13.4376C21.5 13.9321 21.9014 14.3335 22.3959 14.3335H36.7292C37.2237 14.3335 37.6251 13.9321 37.6251 13.4376C37.6251 12.9431 37.2236 12.5417 36.7291 12.5417Z" fill="white"/>
<path d="M36.7291 16.125H22.3959C21.9014 16.125 21.5 16.5264 21.5 17.0209C21.5 17.5154 21.9014 17.9167 22.3959 17.9167H36.7292C37.2237 17.9167 37.6251 17.5154 37.6251 17.0209C37.6251 16.5264 37.2236 16.125 36.7291 16.125Z" fill="white"/>
<path d="M6.271 12.5417C4.78926 12.5417 3.5835 13.7457 3.5835 15.2292C3.5835 16.7127 4.78926 17.9167 6.271 17.9167C7.75273 17.9167 8.95849 16.711 8.95849 15.2292C8.95849 13.7476 7.75265 12.5417 6.271 12.5417ZM6.271 16.1251C5.7765 16.1251 5.37513 15.7237 5.37513 15.2292C5.37513 14.7347 5.7765 14.3334 6.271 14.3334C6.7655 14.3334 7.16686 14.7347 7.16686 15.2292C7.16686 15.7237 6.7655 16.1251 6.271 16.1251Z" fill="white"/>
<path d="M3.5835 25.979C3.5835 27.4607 4.78926 28.6665 6.271 28.6665C7.75273 28.6665 8.95849 27.4607 8.95849 25.979C8.95849 24.4973 7.75273 23.2915 6.271 23.2915C4.78926 23.2915 3.5835 24.4955 3.5835 25.979ZM7.16677 25.979C7.16677 26.4735 6.76541 26.8749 6.27091 26.8749C5.77641 26.8749 5.37513 26.4735 5.37513 25.979C5.37513 25.4845 5.7765 25.0831 6.271 25.0831C6.7655 25.0831 7.16677 25.4845 7.16677 25.979Z" fill="white"/>
</g>
<defs>
<clipPath id="clip0">
<rect width="43" height="43" fill="white"/>
</clipPath>
</defs>
</svg>
