<svg width="46" height="46" viewBox="0 0 46 46" fill="none" xmlns="http://www.w3.org/2000/svg">
<path d="M19.381 21.3184L21.0392 22.9673L19.381 24.6159H7.70866V30.1092L0.590332 22.9673L7.70866 15.9453V21.3184H19.381ZM24.5118 7.29053H38.6943V21.4733H24.5118V7.29053Z" fill="#033782"/>
<path d="M24.6664 19.381L23.0177 21.0392L21.3691 19.381V7.70866H15.8755L23.0177 0.590332L30.0395 7.70866H24.6664V19.381ZM24.5117 24.5118H38.6942V38.6946H24.5117V24.5118Z" fill="#033782"/>
<path d="M26.6041 24.6664L24.9456 23.0177L26.6041 21.3691H38.2762V15.8755L45.3948 23.0177L38.2762 30.0395V24.6664H26.6041ZM7.29053 24.5117H21.473V38.6945H7.29053V24.5117Z" fill="#033782"/>
<path d="M21.3184 26.6041L22.967 24.9456L24.6159 26.6041V38.2765H30.1092L22.967 45.3948L15.9456 38.2765H21.3184V26.6041ZM7.29053 7.29053H21.473V21.4733H7.29053V7.29053Z" fill="#033782"/>
<path d="M6.78369 6.78369H21.9794V21.9794H6.78369V6.78369ZM7.79659 20.9665H20.9662V7.79691H7.79659V20.9665ZM24.0055 6.78369H39.2012V21.9794H24.0055V6.78369ZM25.0184 20.9665H38.1879V7.79691H25.0184V20.9665ZM24.0055 24.0055H39.2012V39.2015H24.0055V24.0055ZM25.0184 38.188H38.1879V25.0184H25.0184V38.188ZM6.78369 24.0055H21.9794V39.2015H6.78369V24.0055ZM7.79659 38.188H20.9662V25.0184H7.79659V38.188Z" fill="white"/>
<path d="M10.8151 33.7377L0.0698242 22.9925L10.8148 12.2475L21.56 22.9925L10.8151 33.7377ZM1.50261 22.9925L10.8151 32.3049L20.1272 22.9925L10.8148 13.6803L1.50261 22.9925ZM22.9925 21.56L12.2475 10.8151L22.9925 0.0698242L33.7374 10.8151L22.9925 21.56ZM13.6803 10.8151L22.9925 20.1272L32.3049 10.8151L22.9925 1.50261L13.6803 10.8151ZM35.1702 33.7377L24.4253 22.9925L35.1702 12.2475L45.9151 22.9925L35.1702 33.7377ZM25.8577 22.9925L35.1702 32.3049L44.4823 22.9925L35.1702 13.6803L25.8577 22.9925ZM22.9925 45.9151L12.2475 35.1702L22.9925 24.4253L33.7374 35.1702L22.9925 45.9151ZM13.6803 35.1702L22.9925 44.4823L32.3049 35.1702L22.9925 25.858L13.6803 35.1702Z" fill="white"/>
</svg>
