<svg width="33" height="33" viewBox="0 0 33 33" fill="none" xmlns="http://www.w3.org/2000/svg">
<path d="M16.5 0C7.40154 0 0 7.40154 0 16.5C0 25.5985 7.40154 33 16.5 33C25.5985 33 33 25.5985 33 16.5C33 7.40154 25.5985 0 16.5 0ZM24.3472 25.0345C24.079 25.3026 23.7271 25.4376 23.3751 25.4376C23.0231 25.4376 22.6709 25.3026 22.403 25.0345L15.5279 18.1597C15.2693 17.9026 15.1251 17.5532 15.1251 17.1876V8.25C15.1251 7.48965 15.7409 6.87508 16.5 6.87508C17.2591 6.87508 17.8749 7.48965 17.8749 8.25V16.6183L24.3472 23.0903C24.8847 23.6281 24.8847 24.497 24.3472 25.0345Z" fill="#033782"/>
</svg>
