<svg width="78" height="17" viewBox="0 0 78 17" fill="none" xmlns="http://www.w3.org/2000/svg">
<path d="M6.49251 4.40656H11.1072L10.3925 7.13891C10.2833 7.51967 10.0792 7.82553 9.77994 8.05649C9.48039 8.28786 9.13319 8.4032 8.73863 8.4032H6.5946C6.10447 8.4032 5.67213 8.54587 5.29791 8.83141C4.92329 9.11688 4.66145 9.50423 4.5117 9.99361C4.41641 10.3607 4.40621 10.7074 4.48114 11.0335C4.55588 11.3599 4.68854 11.6489 4.87932 11.9001C5.06983 12.1518 5.31479 12.3523 5.61448 12.5018C5.91369 12.6515 6.24047 12.726 6.5946 12.726H7.90137C8.1464 12.726 8.34712 12.8248 8.50374 13.0216C8.66008 13.2189 8.70446 13.4396 8.63653 13.6843L7.81976 16.7021H6.39041C5.41029 16.7021 4.5083 16.488 3.68486 16.0599C2.86101 15.6316 2.17697 15.0643 1.63273 14.3572C1.08808 13.6506 0.71699 12.8452 0.519877 11.9411C0.322354 11.0371 0.346245 10.1093 0.591276 9.15759L0.673021 8.85173C0.849716 8.1993 1.12538 7.5977 1.49986 7.04722C1.87422 6.4966 2.31663 6.02769 2.82712 5.6402C3.3376 5.25277 3.90593 4.95045 4.53219 4.73288C5.15818 4.51558 5.81159 4.40656 6.49251 4.40656Z" fill="#033782"/>
<path d="M8.82031 16.7026L12.8429 1.6543C12.9516 1.27388 13.1558 0.96802 13.4555 0.736722C13.7547 0.505695 14.1018 0.390079 14.4969 0.390079H18.7645C19.7446 0.390079 20.6462 0.604181 21.47 1.03239C22.2934 1.46059 22.9775 2.0284 23.5222 2.73501C24.0664 3.44196 24.441 4.24746 24.6452 5.15131C24.8494 6.05557 24.8219 6.98328 24.5635 7.93464L24.4819 8.2405C24.3048 8.893 24.0327 9.49453 23.6651 10.0451C23.2975 10.5956 22.8586 11.0681 22.3481 11.4622C21.8376 11.8567 21.269 12.1625 20.643 12.3798C20.0167 12.5974 19.3633 12.7061 18.6828 12.7061H14.9869L15.722 9.95332C15.8308 9.58628 16.035 9.28742 16.3346 9.05613C16.6339 8.82517 16.9809 8.70948 17.3759 8.70948H18.5603C19.0503 8.70948 19.4894 8.56002 19.8773 8.26089C20.2653 7.96203 20.5205 7.5746 20.643 7.09862C20.7381 6.75898 20.7483 6.42573 20.6737 6.09947C20.5988 5.77322 20.466 5.48456 20.2754 5.23287C20.0847 4.98152 19.8396 4.77761 19.5404 4.62115C19.2408 4.46502 18.9142 4.38666 18.5603 4.38666H16.2733L13.2921 15.4589C13.183 15.8258 12.9788 16.125 12.6795 16.356C12.38 16.5873 12.0395 16.7026 11.6585 16.7026H8.82031Z" fill="#033782"/>
<path d="M34.2827 8.66852L34.344 8.44422C34.3712 8.3356 34.3543 8.24385 34.293 8.16895C34.2317 8.09445 34.1466 8.0568 34.0377 8.0568H27.4015C27.1157 8.0568 26.8568 7.99569 26.6255 7.87328C26.394 7.75094 26.2035 7.59128 26.0539 7.3941C25.9039 7.19726 25.8018 6.96943 25.7476 6.71101C25.693 6.45293 25.6997 6.18785 25.7679 5.91577L26.1763 4.36608H35.1608C35.7189 4.36608 36.2294 4.48842 36.6922 4.73318C37.1549 4.9778 37.5398 5.29732 37.846 5.69148C38.1523 6.0859 38.3631 6.53769 38.4789 7.04746C38.5945 7.55722 38.5842 8.08419 38.4483 8.62774L36.8352 14.6227C36.6719 15.2344 36.3417 15.7307 35.8449 16.1112C35.3478 16.492 34.7795 16.6821 34.1398 16.6821L27.5036 16.6617C26.9181 16.6617 26.3805 16.5361 25.8905 16.2844C25.4004 16.0332 24.9988 15.7002 24.6857 15.2854C24.3725 14.8709 24.1549 14.3951 24.0323 13.858C23.9099 13.3211 23.9236 12.774 24.0731 12.2165L24.1549 11.9106C24.25 11.5303 24.4101 11.1766 24.6346 10.8504C24.8593 10.5241 25.1212 10.2456 25.4209 10.0143C25.7201 9.78328 26.0539 9.60329 26.4213 9.47402C26.7889 9.34494 27.177 9.28024 27.5854 9.28024H33.1597L32.7513 10.8096C32.6423 11.1766 32.4381 11.4758 32.1387 11.7067C31.8392 11.9381 31.4988 12.0534 31.1178 12.0534H28.6266C28.3951 12.0534 28.2454 12.1691 28.1775 12.4001C28.1366 12.5498 28.1638 12.6824 28.2591 12.7977C28.3542 12.9133 28.4767 12.971 28.6266 12.971H32.6492C32.7989 12.971 32.9281 12.9302 33.0372 12.8487C33.146 12.767 33.2139 12.6584 33.2414 12.5224L33.2823 12.3592L34.2827 8.66852Z" fill="#033782"/>
<path d="M46.1666 4.40705C47.1599 4.40705 48.0686 4.62115 48.8923 5.04935C49.716 5.47756 50.3998 6.04537 50.9446 6.75198C51.4889 7.45899 51.86 8.26796 52.0573 9.17847C52.2546 10.0894 52.224 11.0208 51.9656 11.9721L50.9446 15.8055C50.8763 16.0775 50.7301 16.2948 50.5057 16.458C50.281 16.6211 50.0324 16.7026 49.7602 16.7026H47.5549C47.2963 16.7026 47.0921 16.6043 46.9424 16.407C46.7924 16.2101 46.7515 15.989 46.8199 15.7443L48.045 11.1157C48.1402 10.7759 48.1503 10.4428 48.0756 10.1164C48.0006 9.79019 47.8679 9.50153 47.6775 9.24984C47.4867 8.99849 47.2418 8.79458 46.9424 8.63812C46.6428 8.48199 46.316 8.40369 45.9624 8.40369H43.6753L41.6946 15.8055C41.6265 16.0775 41.4802 16.2948 41.2556 16.458C41.0309 16.6211 40.7757 16.7026 40.4899 16.7026H38.305C38.06 16.7026 37.859 16.6043 37.7027 16.407C37.5464 16.2101 37.5019 15.989 37.5699 15.7443L40.592 4.40705H46.1666Z" fill="#033782"/>
<path d="M58.1931 8.29147C58.0299 8.42082 57.9139 8.58714 57.846 8.79105L56.9271 12.2575C56.8727 12.4481 56.9068 12.6245 57.0292 12.7876C57.1518 12.9508 57.3152 13.0323 57.5194 13.0323H65.9729L65.3195 15.4589C65.2104 15.8258 65.0062 16.125 64.7069 16.356C64.4073 16.5873 64.0669 16.7026 63.686 16.7026H55.988C55.4296 16.7026 54.9191 16.5838 54.4565 16.3458C53.9935 16.1082 53.609 15.7887 53.3027 15.3874C52.9964 14.9867 52.7852 14.5311 52.6698 14.0213C52.5543 13.5116 52.5711 12.9915 52.7209 12.4614L53.9663 7.83268C54.1023 7.32999 54.3135 6.86766 54.5994 6.44612C54.8852 6.02491 55.2222 5.66461 55.6101 5.36541C55.998 5.06655 56.4335 4.83213 56.9169 4.66193C57.4 4.49214 57.9002 4.40705 58.4178 4.40705H63.8697C64.4278 4.40705 64.9383 4.52939 65.4011 4.77408C65.8638 5.01877 66.2487 5.33836 66.555 5.73244C66.8612 6.12687 67.0686 6.58219 67.1776 7.09862C67.2865 7.61539 67.2728 8.13855 67.1368 8.6687L66.7692 10.0553C66.606 10.6671 66.2758 11.1598 65.7789 11.5337C65.2819 11.9076 64.7203 12.0944 64.0944 12.0944H57.9278L58.3362 10.5854C58.4312 10.2184 58.6286 9.91954 58.9283 9.68824C59.2275 9.45721 59.5746 9.3416 59.9697 9.3416H62.4608C62.6922 9.3416 62.8417 9.22625 62.91 8.99495L62.9916 8.68909C63.0326 8.53963 63.0051 8.40362 62.91 8.28128C62.8145 8.15893 62.6922 8.09776 62.5424 8.09776H58.7446C58.5404 8.09776 58.3565 8.16247 58.1931 8.29147Z" fill="#033782"/>
<path d="M65.9521 16.7026L70.0564 1.30766C70.1243 1.03592 70.2708 0.81509 70.4954 0.644964C70.72 0.475178 70.9752 0.390079 71.2612 0.390079H73.446C73.7044 0.390079 73.9121 0.48884 74.0688 0.685745C74.2251 0.882992 74.2694 1.10375 74.2015 1.34844L71.1386 12.7061C70.9886 13.3045 70.7471 13.8479 70.4137 14.3374C70.08 14.8267 69.6853 15.2448 69.2293 15.5913C68.7731 15.938 68.2662 16.2101 67.7081 16.407C67.1498 16.6043 66.5647 16.7026 65.9521 16.7026Z" fill="#033782"/>
<path d="M76.1087 1.73021H76.3097C76.409 1.73021 76.4886 1.70452 76.5489 1.65307C76.6091 1.60168 76.6391 1.5363 76.6391 1.45698C76.6391 1.36406 76.6124 1.29752 76.5591 1.25722C76.5058 1.21698 76.4214 1.19679 76.3059 1.19679H76.1087V1.73021ZM76.9164 1.44957C76.9164 1.54873 76.8901 1.63635 76.8373 1.71254C76.7846 1.78873 76.7105 1.84542 76.6149 1.8826L77.0578 2.61673H76.7452L76.3599 1.95879H76.1087V2.61673H75.8332V0.960803H76.319C76.5249 0.960803 76.6761 1.00104 76.7722 1.08158C76.8683 1.16219 76.9164 1.28481 76.9164 1.44957ZM75.1446 1.78785C75.1446 2.00222 75.1986 2.2026 75.3066 2.38904C75.4145 2.57561 75.5618 2.72242 75.7486 2.82954C75.9353 2.93673 76.1354 2.99029 76.3488 2.99029C76.5647 2.99029 76.765 2.93639 76.9499 2.82859C77.1348 2.72079 77.2814 2.57493 77.3901 2.39094C77.4987 2.20695 77.5529 2.00596 77.5529 1.78785C77.5529 1.57225 77.499 1.37215 77.391 1.18755C77.2831 1.00294 77.1369 0.85647 76.9527 0.747992C76.7684 0.639581 76.5672 0.585342 76.3488 0.585342C76.1329 0.585342 75.9325 0.639241 75.7476 0.74704C75.5627 0.854839 75.4161 1.00077 75.3075 1.18476C75.1989 1.36875 75.1446 1.56981 75.1446 1.78785ZM74.9492 1.78785C74.9492 1.54003 75.0113 1.30772 75.1353 1.0909C75.2593 0.874074 75.43 0.703132 75.6471 0.577933C75.8642 0.452802 76.0982 0.390203 76.3488 0.390203C76.597 0.390203 76.8296 0.45219 77.0467 0.576098C77.2638 0.700005 77.435 0.870404 77.5604 1.08716C77.6857 1.30398 77.7484 1.53759 77.7484 1.78785C77.7484 2.03193 77.6881 2.26119 77.5678 2.47549C77.4475 2.68987 77.2786 2.86149 77.0616 2.99029C76.8445 3.11923 76.6068 3.18359 76.3488 3.18359C76.0919 3.18359 75.8549 3.11943 75.6378 2.99124C75.4208 2.86298 75.2516 2.6917 75.1307 2.47733C75.0097 2.26302 74.9492 2.03315 74.9492 1.78785Z" fill="#033782"/>
<path fill-rule="evenodd" clip-rule="evenodd" d="M9.15953 15.6842C9.29883 15.1787 10.1878 11.8544 11.135 8.29685C12.0822 4.73933 12.9236 1.65853 13.0047 1.45063C13.0858 1.24272 13.3435 0.936336 13.5773 0.769765C13.9649 0.493694 14.1919 0.462648 16.1444 0.418726C19.8574 0.335197 21.2457 0.687743 22.7764 2.10287C24.4032 3.60694 25.0395 5.7214 24.4984 7.82568C23.8626 10.298 22.1601 12.001 19.8253 12.4999C19.4279 12.5849 18.1939 12.6544 17.0832 12.6544H15.0637L15.4561 11.2128C16.0404 9.06622 16.2039 8.91694 18.1102 8.7902C19.425 8.70279 20.0159 8.41115 20.4535 7.6335C21.0544 6.56589 20.74 5.37598 19.666 4.65325C19.2383 4.36544 19.0749 4.34258 17.6955 4.37767L16.1914 4.41592L14.6828 9.99901C13.853 13.0697 13.0979 15.7193 13.0047 15.8871C12.69 16.4538 12.1611 16.6034 10.4725 16.6034H8.90625L9.15953 15.6842Z" fill="#033782"/>
<path fill-rule="evenodd" clip-rule="evenodd" d="M26.6155 16.4789C25.667 16.1828 24.8313 15.4748 24.3512 14.5607C23.9807 13.8553 24.0098 12.3778 24.4115 11.4968C24.8172 10.607 25.3019 10.1059 26.1392 9.71064C26.7936 9.40168 26.9459 9.38871 29.9341 9.38744L33.0472 9.38611L32.9544 9.82867C32.787 10.6263 32.3854 11.3805 31.9712 11.6751C31.6212 11.9239 31.3394 11.9698 29.9572 12.0029C28.6014 12.0354 28.3266 12.0787 28.1999 12.2798C28.0905 12.4533 28.0905 12.5828 28.2 12.7564C28.3308 12.9638 28.6244 12.9995 30.4656 13.0321C31.629 13.0527 32.7297 13.013 32.9114 12.944C33.203 12.8333 33.311 12.5597 33.8285 10.6214C34.1511 9.41298 34.3804 8.33429 34.3382 8.22432C34.2733 8.0555 33.7013 8.02438 30.6636 8.02438C27.1444 8.02438 27.0558 8.0176 26.6045 7.7139C25.7824 7.16068 25.6472 6.46901 26.0728 4.99453L26.2201 4.48389H31.0561C35.6989 4.48389 35.9167 4.49542 36.5071 4.77253C37.6526 5.31024 38.4801 6.56865 38.4801 7.77301C38.4801 8.38395 36.7592 14.7821 36.4535 15.3077C36.3234 15.5314 35.954 15.8991 35.6325 16.1248L35.0481 16.5352L31.0027 16.5604C28.7777 16.5743 26.8035 16.5376 26.6155 16.4789H26.6155Z" fill="#033782"/>
<path fill-rule="evenodd" clip-rule="evenodd" d="M37.8256 16.4403C37.7356 16.3504 37.6638 16.1206 37.6661 15.9296C37.6683 15.7387 38.3349 13.1007 39.1474 10.0674L40.6245 4.55241L43.732 4.51576C47.2322 4.47447 47.9723 4.58541 49.2337 5.34048C51.0667 6.43763 52.2507 8.6765 52.085 10.7319C51.9818 12.0116 50.8812 15.9432 50.5271 16.2968C50.246 16.5775 50.0934 16.6037 48.7408 16.6037C47.1603 16.6037 46.9347 16.5217 46.9347 15.947C46.9347 15.7656 47.2172 14.5385 47.5626 13.2202C48.2504 10.5947 48.2806 9.99046 47.7602 9.26075C47.2389 8.52957 46.7723 8.37296 45.103 8.36889L43.6123 8.36525L42.8279 11.293C42.3964 12.9032 41.937 14.6168 41.8069 15.101C41.6768 15.5851 41.4301 16.1213 41.2587 16.2925C40.9724 16.5784 40.8268 16.6037 39.4681 16.6037C38.4997 16.6037 37.9327 16.5473 37.8256 16.4403Z" fill="#033782"/>
<path fill-rule="evenodd" clip-rule="evenodd" d="M54.8623 16.4171C53.7403 16.0117 52.6661 14.569 52.6631 13.4637C52.6614 12.8377 53.9455 8.02903 54.3536 7.13332C54.81 6.13158 55.43 5.50134 56.4546 4.99761L57.3606 4.55225H61.0452C65.1257 4.55225 65.2697 4.57845 66.1765 5.48605C67.1399 6.45025 67.3421 7.69284 66.8337 9.52529C66.5048 10.7105 66.0843 11.324 65.3411 11.7026C64.8526 11.9514 64.5347 11.9737 61.4626 11.9737C58.7838 11.9737 58.1163 11.9379 58.1163 11.7941C58.1163 11.2732 58.5662 10.2153 58.9398 9.85749C59.3522 9.46258 59.3941 9.45354 61.0226 9.40847C61.9366 9.38317 62.7612 9.29907 62.8549 9.22158C63.1042 9.01553 63.0714 8.2076 62.8097 8.10731C62.691 8.06185 61.6547 8.02465 60.5066 8.02465C58.7178 8.02465 58.3786 8.05874 58.1351 8.26296C57.9394 8.42711 57.7013 9.05803 57.37 10.2906C56.8512 12.2208 56.7993 12.6467 57.0527 12.8996C57.1731 13.0199 58.3638 13.0631 61.5618 13.0631C65.6368 13.0631 65.9029 13.0779 65.8358 13.3014C65.7965 13.4324 65.6447 13.9771 65.4986 14.5119C65.1764 15.6908 65.0418 15.9548 64.576 16.3206C64.2275 16.5945 64.0729 16.6032 59.7684 16.5932C56.6406 16.5859 55.1848 16.5337 54.8623 16.4171Z" fill="#033782"/>
<path fill-rule="evenodd" clip-rule="evenodd" d="M66.0865 16.4526C66.1235 16.3484 67.0472 12.9006 68.1393 8.79088C69.2314 4.68118 70.1893 1.19848 70.2681 1.05154C70.4926 0.632635 71.2402 0.398926 72.3558 0.398926C73.407 0.398926 74.0016 0.56626 74.129 0.897945C74.2269 1.15273 70.9981 13.086 70.6434 13.7803C70.1958 14.6565 69.2362 15.5764 68.2792 16.0469C67.2951 16.5307 65.9721 16.7755 66.0865 16.4526Z" fill="#033782"/>
<path fill-rule="evenodd" clip-rule="evenodd" d="M6.84375 6.3903V4.48389H8.8892C10.4348 4.48389 10.9346 4.52548 10.9343 4.6541C10.9341 4.74772 10.78 5.40646 10.5918 6.11796C10.3076 7.19247 10.1694 7.48656 9.77594 7.85416C9.31404 8.28575 9.27183 8.29672 8.07302 8.29672H6.84375V6.3903Z" fill="#033782"/>
<path fill-rule="evenodd" clip-rule="evenodd" d="M75.8359 1.78838V0.962402H76.1032C76.2605 0.962402 76.3879 0.963699 76.4128 0.965556C76.538 0.974874 76.6336 0.999595 76.7117 1.04285C76.8113 1.09804 76.8774 1.1937 76.9024 1.31897C76.9112 1.363 76.9158 1.42444 76.9138 1.47101C76.9063 1.64727 76.8106 1.78937 76.6482 1.86536C76.629 1.87432 76.6139 1.88301 76.6145 1.88467C76.6152 1.88632 76.7142 2.05084 76.8346 2.25026L77.0535 2.61285L76.902 2.61363C76.8186 2.61407 76.7491 2.61389 76.7474 2.61325C76.7457 2.61261 76.6583 2.46502 76.553 2.28528L76.3617 1.95847L76.2344 1.95843L76.1071 1.95839V2.28638V2.61436H75.9715H75.8359V1.78838V1.78838ZM76.3426 1.7297C76.429 1.72348 76.4894 1.7021 76.5435 1.65856C76.6124 1.60325 76.6444 1.52924 76.6396 1.43656C76.6331 1.31036 76.579 1.2421 76.4619 1.21231C76.4103 1.19919 76.3795 1.19678 76.2405 1.19499L76.1071 1.19328V1.463V1.73271L76.2043 1.73269C76.2577 1.73267 76.32 1.73133 76.3426 1.7297V1.7297Z" fill="#033782"/>
<path fill-rule="evenodd" clip-rule="evenodd" d="M76.274 3.17998C75.9694 3.16463 75.6919 3.05522 75.4476 2.85405C75.1973 2.64795 75.0205 2.33626 74.9687 2.00955C74.9519 1.90321 74.9473 1.75424 74.9577 1.65298C74.9835 1.40217 75.071 1.17156 75.2185 0.965671C75.2918 0.863344 75.3978 0.754335 75.4962 0.68016L75.513 0.66748L75.7075 0.668255L75.9021 0.66903L75.8624 0.686837C75.6195 0.795919 75.4196 0.979629 75.2909 1.21216C75.2116 1.35535 75.1649 1.50683 75.1489 1.67254C75.144 1.72373 75.144 1.8513 75.1489 1.90273C75.1631 2.04913 75.2016 2.1833 75.2683 2.31798C75.3831 2.54998 75.5534 2.72601 75.7816 2.84878C75.9574 2.94332 76.145 2.9903 76.3474 2.99044C76.6335 2.99064 76.89 2.89847 77.1169 2.71395C77.1591 2.67962 77.2419 2.59705 77.2771 2.55418C77.4606 2.33039 77.5538 2.07244 77.5538 1.78831C77.5538 1.59803 77.5139 1.42703 77.4302 1.2585C77.317 1.03087 77.145 0.852021 76.9199 0.728057C76.8895 0.711346 76.8141 0.675292 76.7975 0.669562C76.795 0.668703 76.881 0.667894 76.9885 0.667763L77.1839 0.667525L77.1994 0.678809C77.259 0.722328 77.3447 0.802266 77.4009 0.866828C77.5035 0.984674 77.594 1.13393 77.6531 1.28248C77.6946 1.38665 77.7261 1.51791 77.7395 1.64245C77.7468 1.70993 77.7469 1.86466 77.7397 1.93079C77.7089 2.21308 77.5996 2.47085 77.4185 2.68808C77.3823 2.73156 77.3058 2.80771 77.2586 2.84737C76.9759 3.08477 76.6395 3.1984 76.2741 3.17998L76.274 3.17998Z" fill="#033782"/>
</svg>
