<svg width="44" height="44" viewBox="0 0 44 44" fill="none" xmlns="http://www.w3.org/2000/svg">
<g clip-path="url(#clip0)">
<path d="M25.9007 23.2217C25.1729 23.239 26.0393 23.603 26.9925 23.7416C27.2528 23.5337 27.4951 23.3257 27.703 23.1351C27.1138 23.2737 26.5077 23.2737 25.9007 23.2217L25.9007 23.2217ZM29.8172 22.2512C30.2504 21.6447 30.5624 21.0035 30.6836 20.3276C30.5796 20.8129 30.3197 21.2288 30.0771 21.662C28.708 22.5112 29.9558 21.1595 30.0771 20.6396C28.6041 22.4765 29.8691 21.7313 29.8168 22.2512L29.8172 22.2512ZM31.2556 18.4907C31.3422 17.1736 30.9952 17.5895 30.8743 18.0921C31.0129 18.1787 31.1169 19.0279 31.2556 18.4907ZM23.1449 0.571853C23.5261 0.64152 23.9941 0.693146 23.9247 0.779826C24.3406 0.693183 24.4446 0.60654 23.1449 0.571853ZM23.9247 0.797097L23.6474 0.84909L23.9078 0.831746L23.9251 0.797097H23.9247ZM36.0385 18.9933C36.0905 20.1718 35.6919 20.7436 35.3454 21.7487L34.7215 22.0606C34.2015 23.0658 34.7735 22.7018 34.4095 23.499C33.6124 24.2095 31.9661 25.7346 31.4461 25.8732C31.0649 25.8732 31.7065 25.4226 31.7928 25.2493C30.7183 25.9945 30.9263 26.3584 29.28 26.8089L29.228 26.705C25.1728 28.6116 19.5234 24.8333 19.61 19.6691C19.5754 19.9984 19.4887 19.9117 19.4021 20.0504C19.1941 17.3989 20.6325 14.7302 23.0586 13.6384C25.4328 12.4599 28.2055 12.9452 29.9038 14.5222C28.968 13.3091 27.1138 12.0094 24.9129 12.1307C22.764 12.1653 20.7364 13.5344 20.0779 15.0248C18.9688 15.718 18.8475 17.7109 18.3619 18.0748C17.7207 22.8231 19.575 24.8853 22.729 27.2942C23.2315 27.6235 22.8676 27.6754 22.9369 27.9354C21.8972 27.4501 20.9267 26.705 20.1469 25.8038C20.5628 26.4104 21.0133 27.0169 21.6025 27.4848C20.6147 27.1556 19.2977 25.0933 18.9164 25.0067C20.6147 28.0567 25.831 30.3615 28.5517 29.2178C27.2866 29.2698 25.6923 29.2351 24.2712 28.7152C23.682 28.4033 22.8675 27.7794 23.0062 27.6581C26.7321 29.0441 30.5619 28.7152 33.7852 26.1328C34.5997 25.4916 35.5012 24.4168 35.7608 24.3998C35.3796 24.989 35.8305 24.6771 35.5355 25.1969C36.35 23.8799 35.1889 24.6598 36.3847 22.9268L36.8353 23.5333C36.662 22.4415 38.187 21.1071 38.0306 19.3915C38.3772 18.8716 38.4119 19.9634 38.048 21.1764C38.5679 19.8247 38.1866 19.6168 38.3083 18.4903C38.4469 18.8716 38.6376 19.2702 38.7416 19.6514C38.4123 18.3517 39.0882 17.4505 39.2441 16.7054C39.0708 16.6357 38.7242 17.2773 38.6549 15.7349C38.6722 15.0591 38.8456 15.3883 38.9152 15.215C38.7766 15.1453 38.4474 14.6257 38.2394 13.6383C38.3954 13.413 38.6379 14.2449 38.8459 14.2622C38.7073 13.4824 38.482 12.8931 38.482 12.2866C37.8755 11.0215 38.274 12.4599 37.7715 11.7494C37.1303 9.73918 38.3086 11.2816 38.378 10.3804C39.3485 11.7841 39.9033 13.9849 40.1629 14.8861C39.9723 13.777 39.6604 12.7026 39.2618 11.6801C39.5564 11.8014 38.7939 9.40991 39.6431 10.9869C38.7238 7.60764 35.7089 4.43663 32.9361 2.96329C33.2827 3.27521 33.6986 3.65647 33.5426 3.72581C32.1566 2.91133 32.3989 2.842 32.2083 2.49539C31.0819 2.04483 31.0129 2.53004 30.2673 2.49539C28.1531 1.36899 27.7372 1.49028 25.7963 0.779387L25.8829 1.1953C24.4792 0.72743 24.2539 1.36858 22.7289 1.1953C22.6423 1.12563 23.2142 0.934963 23.6994 0.86603C22.3477 1.03932 22.3997 0.605696 21.0826 0.918023C21.4119 0.692743 21.7584 0.536763 22.1051 0.346133C20.996 0.415799 19.4536 0.987323 19.9389 0.467426C18.1366 1.2819 14.9302 2.40834 13.1283 4.08936L13.0763 3.7081C12.2449 4.6963 9.48945 6.67183 9.2642 7.95428L9.03892 8.00628C8.60567 8.73411 8.3284 9.54862 7.99913 10.3111C7.44458 11.2643 7.18465 10.6751 7.25395 10.8311C6.14486 13.0666 5.60762 14.9555 5.12241 16.4979C5.45168 17.0005 5.12241 19.5302 5.26101 21.5582C4.70646 31.5747 12.2795 41.2966 20.5804 43.5325C21.7935 43.9658 23.5958 43.9484 25.1381 44.0004C23.3185 43.4804 23.0932 43.7231 21.3256 43.1166C20.0605 42.51 19.7659 41.8342 18.8647 41.0543L19.2287 41.6782C17.461 41.0543 18.2062 40.8984 16.7679 40.4478L17.1491 39.9452C16.5772 39.8932 15.6238 38.9748 15.3642 38.4722L14.7403 38.4895C13.9951 37.5537 13.5792 36.8952 13.6139 36.3754L13.3366 36.6873C13.1113 36.2887 10.5639 33.204 11.881 33.9145C11.6383 33.6893 11.3091 33.5506 10.9625 32.9094L11.2228 32.5975C10.5816 31.783 10.0617 30.7259 10.0964 30.3793C10.443 30.8299 10.6683 30.9165 10.9109 31.0032C9.29922 27.0174 9.21258 30.7779 7.99953 26.9481L8.25987 26.9307C8.0692 26.6361 7.94794 26.3068 7.792 25.9949L7.89599 24.8858C6.7349 23.5514 7.56672 19.219 7.74001 16.8275C7.8613 15.857 8.71046 14.8346 9.35165 13.2056L8.95309 13.1359C9.69826 11.8188 13.2504 7.86764 14.8798 8.07565C15.6769 7.07054 14.7238 8.07565 14.5679 7.81532C16.3182 6.01304 16.8554 6.53294 18.0338 6.22098C19.2989 5.4758 16.942 6.51559 17.5486 5.92636C19.7494 5.37181 19.1082 4.64398 21.9676 4.36671C22.2622 4.53999 21.2744 4.62704 21.0145 4.85195C22.8333 3.95116 26.8018 4.15906 29.3666 5.35484C32.3473 6.74084 35.6916 10.8657 35.831 14.7475L35.9869 14.7822C35.9173 16.3245 36.2296 18.1094 35.675 19.7384L36.0385 18.9933V18.9933ZM17.9637 24.2268L17.8597 24.7294C18.345 25.3879 18.7261 26.0811 19.3327 26.5836C18.8822 25.7344 18.5529 25.3883 17.9637 24.2268L17.9637 24.2268ZM19.0901 24.1748C18.8298 23.8976 18.6916 23.551 18.5182 23.2217C18.6742 23.811 19.0035 24.3135 19.3154 24.8334L19.0901 24.1748H19.0901ZM39.1059 19.8251L39.0019 20.1024C38.8112 21.4884 38.378 22.8751 37.7368 24.1575C38.4473 22.8058 38.9153 21.3328 39.1059 19.8251ZM23.2839 0.22528C23.7692 0.0519932 24.497 0.121293 25.0169 0C24.3411 0.0519933 23.6652 0.0866433 22.9893 0.173287L23.284 0.22528H23.2839ZM6.00663 9.41028C6.12792 10.4674 5.20949 10.8659 6.2146 10.1728C6.73453 8.99433 5.98932 9.86088 6.00663 9.41028ZM4.84554 14.2796C5.07082 13.5864 5.12281 13.1532 5.20946 12.7543C4.56827 13.5514 4.91484 13.7247 4.84554 14.2796ZM82.1162 35.3145C81.9622 35.3181 82.1456 35.3951 82.3472 35.4245L82.4976 35.2961C82.3729 35.3255 82.2446 35.3255 82.1162 35.3145ZM82.9449 35.1091C83.0365 34.9808 83.1025 34.8451 83.1282 34.7021C83.1062 34.8048 83.0512 34.8928 82.9999 34.9845C82.7102 35.1641 82.9742 34.8781 82.9999 34.7681C82.6882 35.1568 82.9559 34.9991 82.9449 35.1091ZM83.2492 34.3135C83.2675 34.0348 83.1942 34.1228 83.1685 34.2291C83.1979 34.2475 83.2199 34.4271 83.2492 34.3135ZM81.5332 30.5221C81.6139 30.5368 81.7129 30.5478 81.6982 30.5661C81.7862 30.5478 81.8082 30.5295 81.5332 30.5221Z" fill="#033782"/>
</g>
<defs>
<clipPath id="clip0">
<rect width="44" height="44" fill="white"/>
</clipPath>
</defs>
</svg>
