<svg width="69" height="40" viewBox="0 0 69 40" fill="none" xmlns="http://www.w3.org/2000/svg">
<g clip-path="url(#clip0)">
<path d="M39.8992 12.631H46.085V19.0879H49.2126C50.6559 19.0879 52.1435 18.8249 53.5092 18.3525C54.1823 18.1206 54.9358 17.7954 55.5979 17.3881C54.7253 16.2229 54.2793 14.755 54.1491 13.3069C53.9718 11.3356 54.3596 8.77042 55.6672 7.22902L56.3181 6.46256L57.0938 7.09892C59.044 8.69971 60.684 10.934 60.9749 13.4851C63.324 12.7809 66.0831 12.9477 68.1524 14.1667L69.0029 14.6673L68.5569 15.5582C66.8061 19.0483 63.1439 20.1287 59.5648 19.9364C54.21 33.5544 42.5503 40.0028 28.4112 40.0028C21.1062 40.0028 14.405 37.2142 10.5905 30.5989L10.5268 30.4914L9.96996 29.3375C8.67905 26.4244 8.25244 23.2341 8.54331 20.0467L8.63196 19.0907H13.923V12.631H20.1089V6.31549H32.4806V0H39.9047V12.631" fill="#033782"/>
<path d="M59.9414 15.0211C60.3569 11.729 57.9441 9.14397 56.4482 7.9165C54.7251 9.95285 54.4564 15.2841 57.1601 17.5297C55.6504 18.8986 52.4702 20.1402 49.2124 20.1402H9.56819C9.25238 23.6105 9.84798 26.8064 11.2109 29.5442L11.6625 30.387C11.9478 30.8819 12.2608 31.3599 12.596 31.8181C14.2249 31.9256 15.7291 31.9623 17.1031 31.9312C19.8041 31.8718 22.0091 31.5437 23.6796 30.9526C23.9316 30.8734 24.1976 31.0149 24.2751 31.2722C24.3499 31.5183 24.2253 31.7785 23.9898 31.8718C23.7682 31.951 23.5355 32.0245 23.2973 32.0953C21.9814 32.4799 20.5714 32.7373 18.7514 32.8504C18.8594 32.8532 18.6378 32.8674 18.6378 32.8674C18.5769 32.8702 18.4993 32.8815 18.4356 32.8843C17.7181 32.9268 16.9452 32.9352 16.1557 32.9352C15.2914 32.9352 14.441 32.9183 13.488 32.8702L13.4631 32.8872C16.7652 36.677 21.9316 38.9509 28.4055 38.9509C42.1069 38.9509 53.7279 32.7486 58.8749 18.8279C62.526 19.2097 66.0358 18.2594 67.6315 15.0776C65.094 13.5758 61.8224 14.0538 59.9414 15.0211Z" fill="#033782"/>
<path d="M59.9411 15.0211C60.3567 11.729 57.9438 9.14397 56.4479 7.9165C54.7249 9.95285 54.4561 15.2841 57.1599 17.5297C55.6501 18.8986 52.4699 20.1402 49.2122 20.1402H11.917C11.7563 25.4545 13.6872 29.4904 17.1056 31.9312C19.8065 31.8718 22.0116 31.5437 23.682 30.9526C23.9341 30.8734 24.2001 31.0149 24.2776 31.2722C24.3524 31.5183 24.2278 31.7785 23.9923 31.8718C23.7707 31.951 23.538 32.0245 23.2997 32.0952C21.9839 32.4799 20.452 32.7712 18.632 32.8843L18.5876 32.8419C23.2499 35.2827 30.0119 35.2742 37.7629 32.2338C46.4558 28.8258 54.5448 22.3293 60.1877 14.8995C60.1046 14.9391 60.0215 14.9787 59.9411 15.0211Z" fill="#033782"/>
<path d="M9.64307 24.3569C9.88961 26.2151 10.4215 27.9573 11.211 29.544L11.6625 30.3868C11.9479 30.8817 12.2609 31.3597 12.5961 31.8179C14.225 31.9254 15.7292 31.9621 17.1032 31.931C19.8041 31.8716 22.0092 31.5435 23.6796 30.9524C23.9317 30.8732 24.1977 31.0147 24.2752 31.272C24.35 31.5181 24.2254 31.7783 23.9899 31.8716C23.7683 31.9508 23.5356 32.0243 23.2973 32.0951C21.9815 32.4797 20.4579 32.754 18.6379 32.8672C18.5742 32.87 18.4661 32.8728 18.4024 32.8757C17.6877 32.9152 16.9204 32.9407 16.1309 32.9407C15.2666 32.9407 14.3829 32.9237 13.4299 32.8757C16.732 36.6655 21.9289 38.9479 28.4028 38.9479C40.1318 38.9479 50.3372 34.4029 56.2626 24.3598H9.64307" fill="#033782"/>
<path d="M12.272 24.3569C12.9728 27.6207 14.6571 30.1831 17.106 31.931C19.8069 31.8716 22.012 31.5435 23.6824 30.9524C23.9345 30.8732 24.2004 31.0146 24.278 31.272C24.3528 31.518 24.2281 31.7782 23.9927 31.8716C23.7711 31.9508 23.5384 32.0243 23.3001 32.095C21.9843 32.4796 20.4274 32.754 18.6074 32.8671C23.2696 35.3079 30.0123 35.274 37.7633 32.2336C42.4532 30.3952 46.9659 27.6547 51.0159 24.3569H12.272Z" fill="#033782"/>
<path d="M14.9478 13.6832H20.3081V19.1558H14.9478V13.6832ZM15.3965 14.1413H15.8176V18.7033H15.3938V14.1413H15.3965ZM16.1916 14.1413H16.632V18.7033H16.1916V14.1413ZM17.0032 14.1413H17.4437V18.7033H17.0032V14.1413ZM17.8149 14.1413H18.2554V18.7033H17.8149V14.1413ZM18.6293 14.1413H19.0698V18.7033H18.6293V14.1413ZM19.441 14.1413H19.8648V18.7033H19.441V14.1413ZM21.1336 7.36768H26.4939V12.8403H21.1336V7.36768ZM21.5824 7.82585H22.0062V12.3878H21.5824V7.82585ZM22.3774 7.82585H22.8179V12.3878H22.3774V7.82585ZM23.1891 7.82585H23.6295V12.3878H23.1891V7.82585ZM24.0007 7.82585H24.4412V12.3878H24.0007V7.82585ZM24.8152 7.82585H25.2556V12.3878H24.8152V7.82585ZM25.6269 7.82585H26.0507V12.3878H25.6269V7.82585Z" fill="#2E63B0"/>
<path d="M21.1338 13.6831H26.4941V19.1558H21.1338V13.6831ZM21.5826 14.1413H22.0064V18.7033H21.5826V14.1413ZM22.3776 14.1413H22.8181V18.7033H22.3776V14.1413ZM23.1893 14.1413H23.6297V18.7033H23.1893V14.1413ZM24.0009 14.1413H24.4414V18.7033H24.0009V14.1413ZM24.8154 14.1413H25.2558V18.7033H24.8154V14.1413ZM25.627 14.1413H26.0509V18.7033H25.627V14.1413Z" fill="#033782"/>
<path d="M27.3228 13.6831H32.6831V19.1558H27.3228V13.6831ZM27.7688 14.1413H28.1926V18.7033H27.7688V14.1413ZM28.5638 14.1413H29.0043V18.7033H28.5638V14.1413ZM29.3755 14.1413H29.8159V18.7033H29.3755V14.1413ZM30.1871 14.1413H30.6276V18.7033H30.1871V14.1413ZM31.0016 14.1413H31.4421V18.7033H31.0016V14.1413ZM31.8133 14.1413H32.2371V18.7033H31.8133V14.1413Z" fill="#2E63B0"/>
<path d="M27.3228 7.36768H32.6831V12.8403H27.3228V7.36768ZM27.7688 7.82585H28.1926V12.3878H27.7688V7.82585ZM28.5638 7.82585H29.0043V12.3878H28.5638V7.82585ZM29.3755 7.82585H29.8159V12.3878H29.3755V7.82585ZM30.1871 7.82585H30.6276V12.3878H30.1871V7.82585ZM31.0016 7.82585H31.442V12.3878H31.0016V7.82585ZM31.8132 7.82585H32.2371V12.3878H31.8132V7.82585ZM33.5086 13.6832H38.8689V19.1558H33.5086V13.6832ZM33.9546 14.1413H34.3785V18.7033H33.9546V14.1413ZM34.7497 14.1413H35.1901V18.7033H34.7497V14.1413ZM35.5613 14.1413H36.0018V18.7033H35.5613V14.1413ZM36.373 14.1413H36.8135V18.7033H36.373V14.1413ZM37.1874 14.1413H37.6279V18.7033H37.1874V14.1413ZM37.9991 14.1413H38.4229V18.7033H37.9991V14.1413Z" fill="#033782"/>
<path d="M33.5083 7.36768H38.8686V12.8404H33.5083V7.36768ZM33.9543 7.82585H34.3781V12.3878H33.9543V7.82585ZM34.7493 7.82585H35.1898V12.3878H34.7493V7.82585ZM35.561 7.82585H36.0015V12.3878H35.561V7.82585ZM36.3727 7.82585H36.8131V12.3878H36.3727V7.82585ZM37.1871 7.82585H37.6276V12.3878H37.1871V7.82585ZM37.9988 7.82585H38.4226V12.3878H37.9988V7.82585Z" fill="#2E63B0"/>
<path d="M33.5083 1.05225H38.8686V6.52775H33.5083V1.05225ZM33.9543 1.50759H34.3781V6.06957H33.9543V1.50759ZM34.7493 1.50759H35.1898V6.06957H34.7493V1.50759ZM35.561 1.50759H36.0015V6.06957H35.561V1.50759ZM36.3727 1.50759H36.8131V6.06957H36.3727V1.50759ZM37.1871 1.50759H37.6276V6.06957H37.1871V1.50759ZM37.9988 1.50759H38.4226V6.06957H37.9988V1.50759Z" fill="#033782"/>
<path d="M39.6943 13.6831H45.0547V19.1558H39.6943V13.6831ZM40.1403 14.1413H40.5642V18.7033H40.1403V14.1413ZM40.9354 14.1413H41.3758V18.7033H40.9354V14.1413ZM41.747 14.1413H42.1875V18.7033H41.747V14.1413ZM42.5587 14.1413H42.9992V18.7033H42.5587V14.1413ZM43.3732 14.1413H43.8136V18.7033H43.3732V14.1413ZM44.1848 14.1413H44.6087V18.7033H44.1848V14.1413Z" fill="#2E63B0"/>
<path d="M26.1617 28.0309C26.9789 28.0196 27.6493 28.6871 27.6603 29.5214C27.6714 30.3557 27.0177 31.0401 26.2005 31.0515C26.1866 31.0515 26.1728 31.0515 26.1617 31.0515C25.3445 31.0401 24.6907 30.3557 24.7018 29.5214C24.7129 28.704 25.3583 28.0422 26.1617 28.0309Z" fill="#D3ECEC"/>
<path d="M26.1617 28.4607C26.2975 28.4607 26.4249 28.4861 26.544 28.5342C26.3362 28.6558 26.267 28.9274 26.3861 29.1366C26.4637 29.2724 26.6049 29.3573 26.7601 29.3573C26.9235 29.3573 27.0648 29.2639 27.1396 29.1282C27.364 29.6797 27.1063 30.3132 26.5662 30.5423C26.026 30.7714 25.4055 30.5084 25.1811 29.9568C24.9567 29.4053 25.2143 28.7718 25.7545 28.5427C25.8847 28.489 26.0204 28.4607 26.1617 28.4607ZM0 24.9027H68.8033C67.3046 24.5153 64.0635 23.9921 64.5982 21.9868C61.8751 25.2054 55.3042 24.2438 53.6476 22.6571C51.8026 25.392 41.0543 24.3512 40.3036 22.2216C37.9877 24.9961 30.8156 24.9961 28.5025 22.2216C27.7518 24.3512 17.0035 25.392 15.1585 22.6571C13.5019 24.2438 6.93103 25.2054 4.20792 21.9868C4.7398 23.9892 1.49867 24.5153 0 24.9027Z" fill="#597BAC"/>
<path d="M30.0928 38.9135C26.4306 37.1402 24.4194 34.7277 23.3002 32.0918C21.9401 32.4878 20.3029 32.7423 18.4025 32.8498C17.6878 32.8894 16.9343 32.912 16.1448 32.912C15.2334 32.912 14.275 32.8837 13.2666 32.83C16.6268 36.2578 20.7572 38.8966 28.4085 38.9447C28.9736 38.9447 29.5359 38.9333 30.0928 38.9135Z" fill="white"/>
<path d="M24.6602 34.5213C24.1533 33.8199 23.6629 32.9374 23.3 32.0918C21.9399 32.4878 20.3027 32.7423 18.4023 32.8526C19.7099 33.5738 21.577 34.2441 24.6602 34.5213Z" fill="white"/>
</g>
<defs>
<clipPath id="clip0">
<rect width="69" height="40" fill="white"/>
</clipPath>
</defs>
</svg>
