<svg width="44" height="44" viewBox="0 0 44 44" fill="none" xmlns="http://www.w3.org/2000/svg">
<path d="M44 22.0007C44 9.85015 34.15 0 21.9997 0C9.85462 0 0.00859375 9.84191 0 21.9852V39.0101C0.00653125 41.7673 2.2428 43.9995 5.00173 43.9995H22.0086C34.155 43.9947 44 34.1479 44 22.0007Z" fill="#033782"/>
<path d="M28.4592 5.20898C22.7686 5.20898 18.139 9.83844 18.139 15.5292V21.0069H12.684C6.99339 21.0069 2.36377 25.6367 2.36377 31.3273C2.36377 37.0177 6.99339 41.6475 12.684 41.6475C18.3746 41.6475 23.0042 37.0177 23.0042 31.3273V25.8495H28.4592C34.1498 25.8495 38.7796 21.2198 38.7796 15.5292C38.7796 9.83844 34.1498 5.20898 28.4592 5.20898ZM18.1771 31.3273C18.1771 34.3561 15.713 36.8202 12.684 36.8202C9.65505 36.8202 7.19088 34.3561 7.19088 31.3273C7.19088 28.2983 9.65505 25.8342 12.684 25.8342H18.139V25.8495H18.1771V31.3273ZM28.4592 21.0223H23.0042V21.0069H22.9663V15.5292C22.9663 12.5003 25.4304 10.0361 28.4592 10.0361C31.488 10.0361 33.9523 12.5003 33.9523 15.5292C33.9523 18.5582 31.488 21.0223 28.4592 21.0223Z" fill="#3C6EB4"/>
<path d="M30.7402 5.52181C29.9392 5.31247 29.3243 5.21484 28.4592 5.21484C22.7569 5.21484 18.1338 9.83811 18.1338 15.5401V21.0129H13.8095C12.4611 21.0129 11.3714 22.0725 11.3723 23.4185C11.3723 24.756 12.4499 25.8201 13.784 25.8201L17.3644 25.8208C17.7894 25.8208 18.1342 26.1645 18.1342 26.5889V31.3245C18.1289 34.3308 15.6903 36.7659 12.684 36.7659C11.6657 36.7659 11.4135 36.6326 10.7183 36.6326C9.25787 36.6326 8.28076 37.6116 8.28076 38.9577C8.28111 40.0713 9.23536 41.0286 10.4031 41.3342C11.204 41.5435 11.819 41.6413 12.684 41.6413C18.3863 41.6413 23.0094 37.0181 23.0094 31.316V25.8433H27.3338C28.6821 25.8433 29.7718 24.7837 29.771 23.4377C29.771 22.1 28.6933 21.0361 27.3592 21.0361L23.7789 21.0354C23.5749 21.0356 23.3793 20.9548 23.2349 20.8107C23.0905 20.6666 23.0093 20.4711 23.0091 20.2671V15.5315C23.0144 12.5252 25.453 10.0901 28.4592 10.0901C29.4776 10.0901 29.7297 10.2236 30.425 10.2236C31.8854 10.2236 32.8625 9.24445 32.8625 7.8985C32.8622 6.78475 31.9079 5.82741 30.7402 5.52181Z" fill="white"/>
</svg>
