<svg width="34" height="34" viewBox="0 0 34 34" fill="none" xmlns="http://www.w3.org/2000/svg">
<g clip-path="url(#clip0)">
<path d="M25.5 17C23.9332 17 22.4514 17.4363 21.1452 18.2254L20.23 17.3117C19.9269 17.0071 19.4693 16.9178 19.0726 17.0808C18.676 17.2451 18.4167 17.6332 18.4167 18.0625V21.6042C18.4167 22.1907 18.8927 22.6667 19.4792 22.6667H23.0209C23.4515 22.6667 23.8383 22.4074 24.0026 22.0107C24.1655 21.6141 24.0763 21.1565 23.7717 20.8533L23.2362 20.3178C23.9417 20.0104 24.7025 19.8333 25.5 19.8333C28.6252 19.8333 31.1667 22.3748 31.1667 25.5C31.1667 28.6252 28.6252 31.1667 25.5 31.1667C22.807 31.1667 20.4765 29.2641 19.9637 26.6447C19.8135 25.8768 19.0655 25.3753 18.3005 25.5269C17.5327 25.6771 17.0312 26.4223 17.1828 27.1901C17.9577 31.1355 21.4555 34 25.5 34C30.1878 34 34 30.1877 34 25.5C34 20.8122 30.1878 17 25.5 17Z" fill="#033782"/>
<path d="M0 12.75V21.25H15.5833V18.0625C15.5833 16.4758 16.5325 15.0733 17.9917 14.4642C19.2242 13.9542 20.5983 14.1242 21.6608 14.8467C22.8792 14.4075 24.1683 14.1667 25.5 14.1667V12.75H0Z" fill="#033782"/>
<path d="M14.4075 27.7385C14.1383 26.3785 14.5633 25.0468 15.4275 24.0835H0V30.1043C0 32.2577 1.7425 34.0002 3.89583 34.0002H18.0342C16.2067 32.4135 14.9033 30.246 14.4075 27.7385Z" fill="#033782"/>
<path d="M21.6042 0H3.89583C1.7425 0 0 1.7425 0 3.89583V9.91667H25.5V3.89583C25.5 1.7425 23.7575 0 21.6042 0ZM4.95833 7.08333C3.7825 7.08333 2.83333 6.13417 2.83333 4.95833C2.83333 3.7825 3.7825 2.83333 4.95833 2.83333C6.13417 2.83333 7.08333 3.7825 7.08333 4.95833C7.08333 6.13417 6.13417 7.08333 4.95833 7.08333ZM12.0417 7.08333C10.8658 7.08333 9.91667 6.13417 9.91667 4.95833C9.91667 3.7825 10.8658 2.83333 12.0417 2.83333C13.2175 2.83333 14.1667 3.7825 14.1667 4.95833C14.1667 6.13417 13.2175 7.08333 12.0417 7.08333ZM19.125 7.08333C17.9492 7.08333 17 6.13417 17 4.95833C17 3.7825 17.9492 2.83333 19.125 2.83333C20.3008 2.83333 21.25 3.7825 21.25 4.95833C21.25 6.13417 20.3008 7.08333 19.125 7.08333Z" fill="#033782"/>
</g>
<defs>
<clipPath id="clip0">
<rect width="34" height="34" fill="white"/>
</clipPath>
</defs>
</svg>
