<svg width="43" height="43" viewBox="0 0 43 43" fill="none" xmlns="http://www.w3.org/2000/svg">
<g clip-path="url(#clip0)">
<path d="M14.7135 21.0196C14.7135 17.6978 16.2729 14.7407 18.6948 12.8369L14.988 6.90381C11.8814 9.13502 9.54375 12.3644 8.44092 16.1235C10.1674 17.2347 11.3123 19.1764 11.3123 21.3831C11.3123 23.5115 10.2541 25.3881 8.62968 26.5176C9.81539 30.0784 12.126 33.1266 15.14 35.2421L18.5875 29.1106C16.2254 27.2075 14.7135 24.2899 14.7135 21.0196Z" fill="#033782"/>
<path d="M9.56024 21.3829C9.56024 23.8652 7.54437 25.879 5.0627 25.879C2.57982 25.879 0.56543 23.8653 0.56543 21.3829C0.56543 18.9019 2.57982 16.8882 5.0627 16.8882C7.54437 16.8882 9.56024 18.9019 9.56024 21.3829Z" fill="#033782"/>
<path d="M34.8144 32.2552C35.8603 32.2552 36.845 32.5111 37.7103 32.9653C40.4052 30.1252 42.1465 26.3775 42.4345 22.2265L35.4499 22.0913C34.9122 27.3298 30.4866 31.4108 25.1077 31.4108C23.6189 31.4108 22.198 31.0976 20.9158 30.5313L17.4438 36.6057C19.7585 37.7446 22.3568 38.3845 25.1076 38.3845C26.2947 38.3845 27.4589 38.2643 28.5807 38.0353C28.82 34.8047 31.519 32.2552 34.8144 32.2552Z" fill="#033782"/>
<path d="M39.3093 38.5053C39.3093 40.9871 37.2976 43 34.8146 43C32.3315 43 30.3184 40.9871 30.3184 38.5053C30.3184 36.0217 32.3315 34.0093 34.8146 34.0093C37.2976 34.0093 39.3093 36.0217 39.3093 38.5053Z" fill="#033782"/>
<path d="M38.1886 9.59928C37.171 10.3199 35.9256 10.7464 34.5808 10.7464C31.1266 10.7464 28.3298 7.94881 28.3298 4.49669C28.3298 4.31333 28.338 4.13599 28.3516 3.95804C27.3015 3.75699 26.2162 3.65381 25.1078 3.65381C22.3314 3.65381 19.7058 4.30723 17.3789 5.46445L20.8305 11.5429C22.1359 10.9548 23.5837 10.624 25.1078 10.624C30.4392 10.624 34.8334 14.6392 35.4339 19.8105L42.4184 19.5972C42.11 15.7839 40.5656 12.32 38.1886 9.59928Z" fill="#033782"/>
<path d="M39.0744 4.49684C39.0744 6.97981 37.0667 8.99289 34.581 8.99289C32.0981 8.99289 30.085 6.97981 30.085 4.49684C30.0849 2.01369 32.098 0 34.5809 0C37.0666 0 39.0744 2.01369 39.0744 4.49684Z" fill="#033782"/>
</g>
<defs>
<clipPath id="clip0">
<rect width="43" height="43" fill="white"/>
</clipPath>
</defs>
</svg>
