<svg width="44" height="34" viewBox="0 0 44 34" fill="none" xmlns="http://www.w3.org/2000/svg">
<path d="M34.3801 33.0077H27.2685H25.3535H24.9399V23.4687H28.0597C28.8508 23.4687 29.3183 22.5696 28.8508 21.9223L22.7822 13.5251C22.3956 12.9856 21.5954 12.9856 21.2088 13.5251L15.1402 21.9223C14.6727 22.5696 15.1312 23.4687 15.9313 23.4687H19.0511V33.0077H18.6375H16.7225H8.47814C3.75807 32.747 0 28.3326 0 23.5496C0 20.2501 1.78913 17.3731 4.44136 15.8177C4.19861 15.1614 4.07274 14.4601 4.07274 13.7229C4.07274 10.3514 6.79689 7.62725 10.1684 7.62725C10.8966 7.62725 11.5979 7.75312 12.2542 7.99587C14.2051 3.86019 18.4128 0.992188 23.3036 0.992188C29.633 1.00118 34.8476 5.84711 35.4409 12.0237C40.3049 12.8598 44 17.3641 44 22.4617C44 27.91 39.7564 32.6301 34.3801 33.0077Z" fill="#033782"/>
</svg>
