<svg width="58" height="58" viewBox="0 0 58 58" fill="none" xmlns="http://www.w3.org/2000/svg">
<circle cx="29" cy="29" r="29" fill="#0069FF"/>
<g clip-path="url(#clip0_2613:103)">
<path d="M22.0971 47.6264C12.6271 37.9873 12.6412 22.3733 22.0971 12.7485C22.5126 12.3256 23.1563 12.2563 23.6475 12.5688L28.3738 15.5756C28.623 15.7341 28.8095 15.9768 28.9008 16.2611C28.9921 16.5454 28.9823 16.8533 28.8732 17.1311L26.5101 23.1444C26.4091 23.4012 26.2289 23.6177 25.9965 23.7612C25.7641 23.9047 25.4922 23.9674 25.2217 23.9399L21.1522 23.5258C19.6173 27.8498 19.6493 32.6154 21.1522 36.8491L25.2218 36.4349C25.4922 36.4074 25.7642 36.4701 25.9966 36.6136C26.2289 36.7571 26.4092 36.9736 26.5101 37.2305L28.8732 43.2438C28.9824 43.5216 28.9921 43.8295 28.9009 44.1138C28.8096 44.3981 28.623 44.6408 28.3738 44.7993L23.6476 47.8061C23.4072 47.959 23.1231 48.0245 22.8415 47.9918C22.5599 47.9592 22.2975 47.8303 22.0971 47.6264ZM33.0195 17.0859C33.8822 18.5737 33.8822 20.4263 33.0195 21.9142C32.7315 22.4109 32.0637 22.5049 31.6546 22.1057L31.219 21.6808C30.9338 21.4026 30.8695 20.9666 31.0541 20.6113C31.2318 20.2688 31.3247 19.8873 31.3247 19.5C31.3247 19.1127 31.2318 18.7313 31.0541 18.3888C30.8694 18.0334 30.9338 17.5975 31.219 17.3193L31.6546 16.8943C32.0637 16.4952 32.7315 16.5891 33.0195 17.0859ZM39.7123 10.3181C44.0975 15.6325 44.094 23.3718 39.7123 28.6819C39.3861 29.0773 38.7986 29.1084 38.4325 28.7511L38.0097 28.3387C37.6772 28.0143 37.6468 27.483 37.9419 27.1231C41.5649 22.7042 41.5619 16.2921 37.9419 11.8769C37.6468 11.5169 37.6771 10.9857 38.0097 10.6613L38.4325 10.2488C38.7986 9.89163 39.3861 9.92273 39.7123 10.3181ZM36.3602 13.6536C38.9888 17.0915 38.993 21.9029 36.3602 25.3464C36.0401 25.7651 35.4343 25.8104 35.0582 25.4432L34.6339 25.0291C34.3131 24.716 34.2695 24.2057 34.5402 23.8468C36.4752 21.2815 36.475 17.7184 34.5402 15.1532C34.2695 14.7943 34.3131 14.284 34.6339 13.9708L35.0582 13.5568C35.4343 13.1896 36.0401 13.2349 36.3602 13.6536Z" fill="white"/>
</g>
<defs>
<clipPath id="clip0_2613:103">
<rect width="28" height="38" fill="white" transform="translate(15 10)"/>
</clipPath>
</defs>
</svg>
