<svg width="58" height="58" viewBox="0 0 58 58" fill="none" xmlns="http://www.w3.org/2000/svg">
<circle cx="29" cy="29" r="29" fill="#0069FF"/>
<g clip-path="url(#clip0)">
<path d="M36.3383 14.7373H16.2038C14.6986 14.7373 13.4747 15.9617 13.4747 17.4664V32.0214C13.4747 33.5267 14.6986 34.7505 16.2038 34.7505C18.1135 34.7505 18.37 34.7505 18.37 34.7505H18.9328V39.299C18.9328 40.1104 19.9165 40.5113 20.4854 39.9424C23.0252 37.402 21.2416 39.1862 25.4105 35.0173C25.5815 34.8463 25.8119 34.7505 26.0539 34.7505H36.3383C37.8429 34.7505 39.0673 33.5267 39.0673 32.0214C39.0673 23.5273 39.0673 25.9811 39.0673 17.4664C39.0674 15.9617 37.8429 14.7373 36.3383 14.7373ZM18.0232 20.1954H30.8802C31.383 20.1954 31.7899 20.6023 31.7899 21.1051C31.7899 21.6078 31.383 22.0148 30.8802 22.0148H18.0232C17.5205 22.0148 17.1135 21.6078 17.1135 21.1051C17.1135 20.6023 17.5205 20.1954 18.0232 20.1954ZM27.2414 29.2924H18.0232C17.5205 29.2924 17.1135 28.8854 17.1135 28.3827C17.1135 27.8799 17.5205 27.473 18.0232 27.473H27.2414C27.7442 27.473 28.1511 27.8799 28.1511 28.3827C28.1511 28.8854 27.7442 29.2924 27.2414 29.2924ZM34.5189 25.6536H18.0232C17.5205 25.6536 17.1135 25.2466 17.1135 24.7439C17.1135 24.2411 17.5205 23.8342 18.0232 23.8342H34.5189C35.0217 23.8342 35.4286 24.2411 35.4286 24.7439C35.4286 25.2466 35.0217 25.6536 34.5189 25.6536Z" fill="white"/>
<path d="M41.7963 18.376H40.8987V32.0214C40.8987 34.5292 38.8461 36.5698 36.3381 36.5698H26.5519L24.6112 38.3771H32.3227L37.5144 43.5809C38.0847 44.1512 39.0672 43.7509 39.0672 42.9377V38.3771H41.7962C43.3011 38.3771 44.5253 37.165 44.5253 35.6602V21.1051C44.5254 19.6002 43.3012 18.376 41.7963 18.376Z" fill="white"/>
</g>
<defs>
<clipPath id="clip0">
<rect width="31.0505" height="31.0505" fill="white" transform="translate(13.4747 13.7676)"/>
</clipPath>
</defs>
</svg>
