<svg width="58" height="58" viewBox="0 0 58 58" fill="none" xmlns="http://www.w3.org/2000/svg">
<circle cx="29" cy="29" r="29" fill="#0069FF"/>
<g clip-path="url(#clip0)">
<path d="M35.7886 18.1597L13.85 18.1597C13.3192 18.1597 12.8888 18.59 12.8888 19.1208L12.8888 24.3272C12.8888 24.7055 13.1108 25.0486 13.4558 25.2038C14.8334 25.8234 15.7236 27.1985 15.7236 28.707C15.7236 30.2155 14.8334 31.5907 13.4558 32.2102C13.1108 32.3654 12.8888 32.7085 12.8888 33.0868L12.8888 38.2933C12.8888 38.8241 13.3192 39.2544 13.85 39.2544L35.7886 39.2544L35.7886 18.1597Z" fill="white"/>
<path d="M45.697 38.2933L45.697 33.0869C45.697 32.7086 45.4751 32.3654 45.13 32.2103C43.7524 31.5907 42.8623 30.2156 42.8623 28.7071C42.8623 27.1986 43.7524 25.8234 45.1301 25.2039C45.4751 25.0487 45.697 24.7055 45.697 24.3272L45.697 19.1208C45.697 18.59 45.2666 18.1597 44.7358 18.1597L37.711 18.1597L37.711 39.2545L44.7358 39.2545C45.2666 39.2545 45.697 38.8241 45.697 38.2933Z" fill="white"/>
</g>
<defs>
<clipPath id="clip0">
<rect width="32.8081" height="32.8081" fill="white" transform="translate(45.697 12.3032) rotate(90)"/>
</clipPath>
</defs>
</svg>
