<svg width="103" height="32" viewBox="0 0 103 32" fill="none" xmlns="http://www.w3.org/2000/svg">
<g clip-path="url(#clip0)">
<path d="M32.3711 28.3707L41.0829 16.2622H32.5362V12.834H45.9099V16.2622L37.64 28.0294H46.0507V31.4576H32.3711V28.3707Z" fill="#FF7800"/>
<path d="M47.1289 22.0949C47.1289 17.3451 50.6059 12.293 57.0596 12.293C63.5133 12.293 66.9903 17.3451 66.9903 22.129C66.9903 26.947 63.5133 31.9992 57.0596 31.9992C50.6059 31.9992 47.1289 26.947 47.1289 22.129V22.0949ZM51.5577 22.1631C51.5577 25.4207 54.0245 27.8297 57.0645 27.8297C60.1044 27.8297 62.5373 25.4207 62.5373 22.129C62.5373 18.8373 60.1044 16.4283 57.0645 16.4283C54.0245 16.4283 51.5577 18.8373 51.5577 22.129V22.1631Z" fill="#FF7800"/>
<path d="M68.0049 28.3707L76.7216 16.2622H68.1748V12.834H81.5485V16.2622L73.2737 28.0342H81.6845V31.4625H68.0049V28.3707Z" fill="#FF7800"/>
<path d="M82.7676 22.0949C82.7676 17.3451 86.2445 12.293 92.6983 12.293C99.152 12.293 102.629 17.3451 102.629 22.129C102.629 26.947 99.152 31.9992 92.6983 31.9992C86.2445 31.9992 82.7676 26.947 82.7676 22.129V22.0949ZM87.1915 22.1631C87.1915 25.4207 89.6584 27.8297 92.6983 27.8297C95.7382 27.8297 98.1711 25.4207 98.1711 22.129C98.1711 18.8373 95.7382 16.4283 92.6983 16.4283C89.6584 16.4283 87.1915 18.8373 87.1915 22.129V22.1631Z" fill="#FF7800"/>
<path d="M14.0292 32.0009V28.6361L13.9952 18.7171C13.9903 17.6931 13.7233 16.6885 13.2134 15.8009L10.897 11.7729L9.78012 9.83203L7.21611 14.2941L7.02672 14.6208C6.61395 15.3962 6.38086 16.2837 6.38086 17.2249C6.38086 18.1271 6.59453 18.9756 6.9733 19.7266L7.71143 21.0091L12.9123 30.0551L14.0292 32.0009Z" fill="#FF7800"/>
<path d="M26.4463 24.9582C25.7421 26.1823 24.7806 27.1576 23.6637 27.8549L23.1781 28.1378C23.1781 28.1378 23.1781 28.1378 23.1733 28.1378L16.5059 32.0049V28.64V12.9668V10.7431C16.5738 9.48004 16.9332 8.21213 17.6033 7.04663C18.3075 5.82261 19.269 4.8473 20.3859 4.14995L20.8715 3.86711C20.8715 3.86711 20.8715 3.86711 20.8763 3.86711L27.5438 0V3.36483V19.0381V21.2618V21.2667C27.4758 22.5248 27.1164 23.7879 26.4463 24.9582Z" fill="#FF7800"/>
<path d="M4.04512 31.9993C6.27918 31.9993 8.09024 30.1806 8.09024 27.9372C8.09024 25.6937 6.27918 23.875 4.04512 23.875C1.81106 23.875 0 25.6937 0 27.9372C0 30.1806 1.81106 31.9993 4.04512 31.9993Z" fill="#FF7800"/>
</g>
<defs>
<clipPath id="clip0">
<rect width="102.629" height="32" fill="white"/>
</clipPath>
</defs>
</svg>
