<svg width="358" height="319" viewBox="0 0 358 319" fill="none" xmlns="http://www.w3.org/2000/svg">
<g clip-path="url(#clip0)">
<path d="M132.739 189.032C179.341 189.032 217.119 151.27 217.119 104.689C217.119 58.1075 179.341 20.3457 132.739 20.3457C86.1368 20.3457 48.3584 58.1075 48.3584 104.689C48.3584 151.27 86.1368 189.032 132.739 189.032Z" fill="#1172FF"/>
<path d="M202.958 121.059C211.986 82.3253 187.891 43.6102 149.141 34.5861C110.39 25.562 71.6581 49.6461 62.63 88.3794C53.6019 127.113 77.6966 165.828 116.447 174.852C155.197 183.876 193.929 159.792 202.958 121.059Z" fill="white"/>
<path d="M132.861 106.415C131.998 106.415 131.381 105.799 131.381 105.059V47.3505C131.381 46.6107 131.998 45.9941 132.738 45.9941C133.478 45.9941 134.095 46.6107 134.095 47.3505V105.059C134.218 105.799 133.601 106.415 132.861 106.415Z" fill="#110239"/>
<path d="M134.095 105.799C133.725 106.539 132.862 106.785 132.122 106.415L97.9499 88.0424C97.2098 87.6725 96.963 86.8093 97.3331 86.1928C97.7032 85.4529 98.5667 85.2063 99.1836 85.5762L133.479 103.949C134.219 104.319 134.465 105.182 134.095 105.799Z" fill="#110239"/>
<path d="M289.657 107.402C316.092 107.402 337.522 85.9816 337.522 59.5582C337.522 33.1348 316.092 11.7144 289.657 11.7144C263.222 11.7144 241.792 33.1348 241.792 59.5582C241.792 85.9816 263.222 107.402 289.657 107.402Z" fill="#EFB118"/>
<path d="M289.657 95.8108C309.687 95.8108 325.925 79.5798 325.925 59.558C325.925 39.5361 309.687 23.3052 289.657 23.3052C269.626 23.3052 253.388 39.5361 253.388 59.558C253.388 79.5798 269.626 95.8108 289.657 95.8108Z" fill="white"/>
<path d="M314.216 67.7988C318.799 54.2511 311.526 39.5552 297.973 34.9744C284.419 30.3937 269.716 37.6629 265.134 51.2105C260.551 64.7582 267.823 79.4541 281.377 84.0348C294.931 88.6156 309.633 81.3464 314.216 67.7988Z" fill="#EFB118"/>
<path d="M307.3 61.7308C308.54 52.0027 301.656 43.1116 291.924 41.872C282.191 40.6325 273.296 47.5138 272.056 57.242C270.816 66.9702 277.7 75.8613 287.433 77.1009C297.165 78.3404 306.06 71.459 307.3 61.7308Z" fill="white"/>
<path d="M281.392 59.5581C281.392 64.1205 285.092 67.8198 289.657 67.8198C294.221 67.8198 297.922 64.1205 297.922 59.5581C297.922 54.9957 294.221 51.2964 289.657 51.2964C285.092 51.2964 281.392 54.9957 281.392 59.5581Z" fill="#EFB118"/>
<path d="M343.566 109.622H212.308V143.655H159.262V177.811H106.216V211.845H53.0462V245.878H0V289.036H343.566V109.622Z" fill="#EFB118"/>
<path d="M269.549 37.2391C269.549 37.2391 270.659 39.8286 270.536 39.7053C270.536 39.582 272.139 38.9654 272.263 38.9654C272.386 38.9654 273.743 38.9654 274.36 38.8421C274.977 38.7188 275.347 38.3489 275.594 38.2256C275.84 38.1023 276.087 37.7323 275.84 37.609C275.594 37.4857 275.224 37.8556 275.1 37.9789C274.977 38.1022 274.36 38.1023 274.36 38.1023C274.36 38.1023 274.607 37.9789 275.1 37.8556C275.594 37.609 276.457 37.3624 276.581 37.1158C276.704 36.9925 276.704 36.6225 276.334 36.7459C275.84 36.8692 275.347 37.1158 275.224 37.1158C275.1 37.1158 274.36 37.4857 274.36 37.4857C274.36 37.4857 275.1 37.2391 275.347 37.1158C275.594 36.9925 276.334 36.7459 276.827 36.4992C277.321 36.2526 277.197 35.7594 276.704 35.7594C276.334 35.7594 275.347 36.3759 275.1 36.3759C274.977 36.3759 274.237 36.7459 274.237 36.7459C274.237 36.7459 275.1 36.3759 275.224 36.2526C275.347 36.1293 276.334 35.7594 276.457 35.5128C276.457 35.3895 276.457 35.1428 276.087 35.1428C275.717 35.2661 275.1 35.3895 274.853 35.5128C274.607 35.6361 273.25 36.2526 273.003 36.2526C272.756 36.2526 272.386 36.2526 272.386 35.8827L271.893 35.0195C271.893 35.0195 271.523 35.1428 271.399 36.006C271.276 36.3759 270.536 36.8692 269.549 37.2391Z" fill="#F88667"/>
<path d="M240.435 47.4739C240.435 45.3777 242.162 43.528 244.259 43.2814C247.713 42.7882 254.251 41.8017 256.225 41.3085C258.939 40.6919 270.042 36.9927 270.042 36.9927L271.275 39.9521C271.275 39.9521 259.186 45.9942 256.965 46.4875C254.745 46.9807 243.642 50.9266 241.421 49.6935C240.681 49.2003 240.435 48.3371 240.435 47.4739Z" fill="#1172FF"/>
<path d="M240.928 33.6631C241.051 33.7864 241.051 33.7864 241.175 33.9097C241.791 34.5262 242.408 35.1428 243.148 35.636C243.642 35.8826 244.259 36.1293 244.629 36.3759C244.752 36.4992 244.999 36.6225 245.122 36.7458C244.875 37.9789 244.382 41.3082 244.382 42.5413C244.382 42.5413 240.434 42.2947 238.954 40.6917C238.954 40.6917 240.681 36.2526 240.928 33.6631Z" fill="#F88667"/>
<path d="M243.025 40.3218C242.778 39.212 242.161 38.1022 241.174 37.3623C240.804 37.1157 240.558 36.8691 240.188 36.6225C240.434 35.636 240.681 34.5262 240.804 33.6631C240.928 33.7864 240.928 33.7864 241.051 33.9097C241.668 34.5262 242.285 35.1428 243.025 35.636C243.518 35.8826 244.135 36.1293 244.505 36.3759C244.629 36.4992 244.875 36.6225 244.999 36.7458C244.752 37.9789 244.259 41.3082 244.259 42.5413C244.259 42.5413 243.518 42.5413 242.655 42.2947C243.148 41.6782 243.272 41.0616 243.025 40.3218Z" fill="#E45940"/>
<path d="M243.148 104.566C243.148 104.566 243.272 108.512 243.889 109.128C244.505 109.621 252.401 109.868 253.017 109.128C253.758 108.388 253.264 107.155 251.66 106.662C249.81 106.169 248.946 106.662 247.836 106.169C246.726 105.676 246.973 103.949 246.973 103.949L243.148 104.566Z" fill="#110239"/>
<path d="M223.534 104.442C223.534 104.442 222.917 108.265 223.534 108.881C224.151 109.498 232.169 110.114 232.91 109.375C233.65 108.635 233.28 107.402 231.553 106.908C229.702 106.292 228.839 106.662 227.728 106.292C226.865 105.922 227.482 104.072 227.482 104.072L223.534 104.442Z" fill="#110239"/>
<path d="M229.455 82.2466C229.332 71.2721 230.566 63.7503 231.059 60.1743C232.416 60.1743 233.65 60.2976 235.007 60.9142C237.474 62.024 239.818 63.0104 242.285 64.1202C240.311 68.1894 235.994 81.3834 235.5 84.2196C234.883 87.6722 227.605 105.305 227.605 105.305L223.287 104.812C223.287 101.976 229.455 83.2331 229.455 82.2466Z" fill="#C6C7D7"/>
<path d="M238.337 62.5173C239.571 63.1339 240.928 63.6271 242.285 64.1204C240.311 68.0662 236.857 79.164 235.994 82.0001C235.377 80.1505 232.416 75.7114 231.306 70.779C230.566 67.4497 230.442 64.1204 230.936 60.791C233.403 61.0376 235.747 61.2843 238.337 62.5173Z" fill="#ABADC4"/>
<path d="M235.13 61.9007C236.857 62.5172 239.941 63.2571 242.285 64.1202C243.889 68.1894 248.7 77.9308 248.947 82.3699C249.194 87.179 247.59 105.552 247.59 105.552H242.532C242.532 105.552 242.038 84.8361 241.422 83.603C239.078 79.1639 236.61 75.7113 235.13 72.9985C232.663 68.436 231.923 65.4766 231.429 63.3804C231.183 62.3939 230.442 59.3112 232.046 58.3247C233.28 58.5713 233.65 61.5307 235.13 61.9007Z" fill="#C6C7D7"/>
<path d="M244.013 65.2302C244.013 65.2302 239.818 66.9565 235.624 66.5866C232.54 66.34 230.936 66.2167 229.209 65.2302C229.209 65.2302 231.183 50.3098 233.28 45.6241C235.5 40.9384 239.078 40.0752 239.078 40.0752C239.078 40.0752 241.915 41.6782 244.259 41.6782C244.259 41.6782 244.259 50.8031 244.013 54.5023C244.013 58.0783 244.013 65.2302 244.013 65.2302Z" fill="#1172FF"/>
<path d="M244.259 53.0229C244.259 52.653 244.259 52.1598 244.259 51.7898V51.6665C244.259 51.2966 244.259 50.8034 244.259 50.3101C244.259 50.1868 244.259 50.1868 244.259 50.0635C244.259 49.5703 244.259 49.0771 244.259 48.5838C244.012 48.5838 243.889 48.5838 243.642 48.5838C242.162 48.3372 240.928 47.474 239.695 46.7342C239.448 46.6109 239.201 46.4876 239.078 46.3643C238.831 48.3372 239.695 50.6801 240.065 52.2831C241.175 56.5989 241.668 62.0245 240.805 66.217C242.655 65.8471 244.012 65.3538 244.012 65.3538C244.012 65.3538 244.012 58.2019 244.136 54.626C244.136 54.256 244.136 53.8861 244.136 53.5162C244.259 53.2696 244.259 53.1462 244.259 53.0229Z" fill="#002987"/>
<path d="M238.831 29.9636C238.831 29.9636 240.558 26.3876 242.779 26.5109C245 26.6342 246.48 27.0042 246.85 27.8673C247.097 28.7305 247.714 31.1967 248.207 32.0598C248.824 32.923 250.057 34.1561 250.057 34.526C250.057 34.8959 248.7 35.0192 248.7 35.2659C248.577 35.3892 247.96 38.3486 247.467 38.7185C246.973 38.9651 242.656 37.3621 242.039 36.0057C241.299 34.6493 238.708 32.3064 238.831 29.9636Z" fill="#F88667"/>
<path d="M243.519 30.3338C243.766 30.3338 244.012 30.4571 244.136 30.5804C244.506 30.5804 244.752 30.7037 245.123 30.7037C245.739 30.827 246.48 30.9503 247.096 30.7037C248.083 30.3338 247.713 29.4706 248.207 28.7307C248.453 28.3608 248.947 28.3608 249.07 27.9909C249.317 27.621 249.317 27.1277 249.317 26.7578C249.317 25.7713 248.33 25.648 247.466 25.4014C246.603 25.1548 246.48 24.6616 245.986 23.9217C244.876 22.1954 243.395 24.5382 242.162 24.4149C241.545 24.2916 240.928 23.9217 240.311 24.2916C239.818 24.5382 239.448 25.1548 239.078 25.5247C238.708 26.018 238.338 25.7713 237.844 26.018C237.474 26.1413 236.981 26.5112 236.734 26.8811C236.117 27.621 235.747 28.6074 235.87 29.5939C235.994 30.3338 236.734 30.827 236.734 31.6902C236.734 32.3067 236.734 33.1699 237.104 33.7864C237.597 34.6496 238.584 34.7729 239.324 35.3894C239.941 36.006 240.928 36.3759 241.792 36.1293C241.915 35.5127 241.792 34.403 241.298 34.1563C241.052 34.033 240.805 34.033 240.435 33.7864C239.818 33.2932 240.188 31.9368 241.422 32.1834C242.162 32.3067 242.409 34.2796 243.272 33.9097C243.889 33.6631 243.149 32.6766 243.025 32.3067C242.779 31.8135 242.655 30.7037 243.149 30.3338C243.272 30.3338 243.395 30.3338 243.519 30.3338Z" fill="#110239"/>
<path d="M262.393 65.2304C262.64 65.2304 262.887 65.1071 263.01 65.2304C263.38 65.3537 263.997 65.2304 264.244 65.1071C264.86 64.8605 265.724 64.4905 266.341 64.6138C266.711 64.7372 268.931 65.2304 268.315 66.0936C268.191 66.2169 267.944 66.3402 267.944 66.3402C267.698 66.2169 267.081 65.9702 267.081 65.9702C267.081 65.9702 267.574 66.0936 267.698 66.2169C267.821 66.2169 267.944 66.3402 267.944 66.4635C268.068 66.7101 267.821 67.08 267.698 67.08C267.451 67.2033 267.328 66.9567 267.204 66.8334C267.328 66.9567 267.698 67.08 267.451 67.45C267.204 67.9432 267.081 67.6966 266.834 67.5733C266.711 67.5733 266.711 67.5733 266.587 67.45C266.711 67.45 266.958 67.6966 267.081 67.6966C267.328 67.8199 266.834 68.4364 266.464 68.4364C266.217 68.4364 265.601 68.0665 265.477 68.0665C265.354 68.0665 265.107 68.0665 264.984 68.0665C264.49 68.0665 263.997 67.9432 263.503 67.8199C263.257 67.6966 262.887 67.5733 262.64 67.45C262.146 67.2033 261.53 66.7101 261.406 66.5868C261.9 66.0936 262.517 65.9702 262.393 65.2304Z" fill="#F88667"/>
<path d="M261.653 67.943L263.38 64.4903C263.38 64.4903 254.621 58.9414 251.537 55.7354C248.33 52.5294 244.876 45.994 242.532 45.6241C240.064 45.2542 237.721 46.6106 239.078 49.9399C240.435 53.2692 247.59 57.8317 249.07 59.3114C250.427 60.6678 260.296 67.2031 261.653 67.943Z" fill="#1172FF"/>
<path d="M257.212 1.47977C258.199 1.23315 261.653 5.93662e-05 263.257 6.28881C264.861 12.3309 266.341 20.346 266.341 20.346C266.341 20.346 260.79 14.3039 257.089 9.49484C253.018 4.31587 256.225 1.973 257.212 1.47977Z" fill="#EFB118"/>
<path d="M261.899 6.78174L266.957 13.8103C268.437 15.9066 269.794 18.1262 271.028 20.469L290.273 60.2978L266.834 26.3878C264.243 22.5653 262.146 18.3728 260.912 13.9337L259.309 8.50806C260.295 8.13814 261.159 7.52159 261.899 6.78174Z" fill="#110239"/>
<path d="M267.205 20.9625C267.205 20.9625 272.756 10.3579 270.042 2.46616C267.328 -5.3023 260.42 7.76844 260.42 7.76844L267.205 20.9625Z" fill="#EFB118"/>
<path d="M267.328 20.8393C267.328 20.8393 255.361 19.113 250.674 12.331C245.986 5.54903 260.666 7.64528 260.666 7.64528L267.328 20.8393Z" fill="#EFB118"/>
<path d="M272.016 37.3624C272.139 37.3624 273.99 36.8692 274.113 36.8692L273.373 35.3895C273.373 35.0196 274.853 34.8962 275.223 34.7729C276.21 34.2797 275.84 33.6632 275.347 33.7865C275.1 33.9098 274.36 34.0331 274.113 34.1564C273.866 34.2797 273.373 34.2797 273.126 34.2797C272.88 34.2797 272.139 35.0196 271.893 35.1429C271.646 35.2662 271.399 36.006 271.399 36.4993C271.276 37.1158 271.646 37.4857 272.016 37.3624Z" fill="#F88667"/>
<path d="M282.378 244.892L282.995 307.039C282.995 310.245 283.982 312.095 288.546 312.712C294.344 313.451 296.071 312.465 296.935 310.862C298.539 307.903 314.206 248.468 316.796 244.399C319.387 240.453 282.378 244.892 282.378 244.892Z" fill="#110239"/>
<path d="M340.606 223.436C343.813 223.436 346.774 225.655 347.514 228.861C347.884 230.711 348.254 233.177 348.254 236.137C348.254 239.713 348.007 241.932 347.144 243.905C346.034 246.248 343.69 247.728 341.099 247.851C328.516 248.344 282.995 250.07 273.496 252.29C262.393 254.88 225.508 271.28 225.508 271.28L232.54 188.169C232.54 188.169 266.464 215.667 288.053 219.983C304.83 223.312 330.243 223.559 340.606 223.436Z" fill="#C6C7D7"/>
<path d="M317.413 248.838C312.725 249.084 307.791 249.331 302.979 249.577C305.94 239.836 304.83 228.738 303.226 222.08C308.037 222.573 312.972 222.819 317.66 223.066C320.004 232.438 319.633 241.316 317.413 248.838Z" fill="#1172FF"/>
<path d="M189.363 226.888C189.116 256.976 203.426 281.391 221.314 281.514C239.201 281.638 253.881 257.346 254.128 227.382C254.375 197.294 240.065 172.879 222.177 172.756C204.289 172.633 189.609 196.801 189.363 226.888Z" fill="#E5E6ED"/>
<path d="M191.83 226.889C191.583 252.413 203.796 273.253 219.093 273.376C234.267 273.499 246.85 252.907 247.097 227.258C247.343 201.733 235.13 180.894 219.833 180.771C204.536 180.771 192.077 201.364 191.83 226.889Z" fill="#110239"/>
<path d="M225.261 231.697C224.644 222.573 230.566 214.681 238.584 214.188C241.298 213.941 243.889 214.681 246.233 216.037C246.726 219.737 247.096 223.436 246.973 227.382C246.973 234.164 245.986 240.576 244.382 246.371C243.272 246.741 242.162 247.111 240.928 247.111C232.909 247.728 225.878 240.699 225.261 231.697Z" fill="#EFB118"/>
<path d="M273.373 198.404C273.496 197.418 273.496 196.554 273.003 195.568C273.496 195.691 274.113 195.691 274.113 195.445C274.113 195.075 273.99 194.582 274.237 194.582C274.483 194.582 274.73 194.828 274.977 194.951C275.47 195.321 275.964 195.321 276.58 195.321C276.827 195.938 277.321 196.924 276.951 197.664C276.827 198.034 275.84 197.911 275.347 198.034C274.73 198.281 273.99 198.281 273.373 198.404Z" fill="#F88667"/>
<path d="M286.696 169.057C286.696 169.057 290.644 168.81 296.072 171.399L293.605 182.374C293.605 182.374 291.014 180.771 287.436 181.018L286.696 169.057Z" fill="white"/>
<path d="M289.287 174.852C289.287 173.003 289.163 171.153 289.163 169.303C287.683 169.057 286.696 169.057 286.696 169.057L287.436 181.018C288.423 179.415 288.917 179.784 289.163 179.661C289.163 178.058 289.287 176.332 289.287 174.852Z" fill="#C6C7D7"/>
<path d="M264.737 169.55C264.737 169.55 279.047 163.877 288.423 165.85L289.04 179.538C289.04 179.538 280.651 177.688 269.178 182.744L264.737 169.55Z" fill="white"/>
<path d="M265.513 169.406L264.348 169.811L275.64 202.311L276.806 201.907L265.513 169.406Z" fill="#110239"/>
<path d="M275.84 198.404V194.581C275.84 194.581 287.436 194.705 292.247 193.225C297.058 191.869 303.597 186.073 306.187 187.06C308.778 187.923 310.382 190.636 307.174 193.102C303.967 195.568 296.318 197.788 292.987 198.281C290.767 198.774 277.69 198.404 275.84 198.404Z" fill="#1172FF"/>
<path d="M295.209 196.061C299.279 194.335 303.104 190.635 306.435 187.183C308.902 188.169 310.382 190.759 307.175 193.225C303.967 195.691 296.319 197.91 292.988 198.404C291.878 198.527 288.053 198.65 284.353 198.527C288.177 198.157 291.878 197.417 295.209 196.061Z" fill="#002987"/>
<path d="M295.331 243.412C295.331 243.412 297.552 247.111 297.305 247.974C296.935 248.837 289.163 253.4 288.053 253.03C286.943 252.66 286.819 251.427 288.176 250.194C289.41 249.084 290.644 248.714 291.507 247.604C292.247 246.618 291.507 244.151 291.507 244.151L295.331 243.412Z" fill="#110239"/>
<path d="M308.531 212.461C308.531 212.461 306.927 213.694 305.324 213.571C303.72 213.324 287.436 215.051 285.832 216.407C284.228 217.763 291.013 245.138 291.013 245.138L296.688 244.151C296.688 244.151 294.714 224.175 294.961 223.929C295.331 223.806 303.843 223.806 318.277 223.806C321.854 223.806 325.802 216.407 321.237 211.228L308.531 212.461Z" fill="#110239"/>
<path d="M306.064 181.881C306.681 181.634 307.175 181.264 307.545 180.894C307.791 182.62 308.408 185.58 310.135 187.183C310.135 187.183 306.681 188.662 303.72 188.046C303.72 188.046 304.09 184.1 303.474 182.25C304.337 182.374 305.201 182.25 306.064 181.881Z" fill="#F88667"/>
<path d="M307.791 186.69C307.298 184.963 305.447 183.853 303.72 183.853C303.72 183.237 303.597 182.744 303.474 182.25C304.337 182.25 305.201 182.25 306.064 181.881C306.681 181.634 307.175 181.264 307.545 180.894C307.791 182.62 308.408 185.58 310.135 187.183C310.135 187.183 309.272 187.553 308.038 187.799C308.038 187.553 307.915 187.059 307.791 186.69Z" fill="#E45940"/>
<path d="M307.051 172.386C307.051 172.386 302.856 171.029 301.623 171.892C300.266 172.756 299.279 175.345 299.526 176.825C299.772 178.304 298.045 180.031 297.922 180.647C297.922 181.141 299.279 181.387 299.279 181.51C299.279 181.634 299.402 184.47 301.253 184.84C303.843 185.456 307.297 183.483 308.408 181.88C309.518 180.401 310.998 173.372 307.051 172.386Z" fill="#F88667"/>
<path d="M299.278 172.632C299.525 172.386 300.019 172.016 300.142 171.769C300.265 171.523 300.265 171.276 300.512 171.029C301.006 170.413 301.129 169.92 302.979 169.303C304.583 168.81 306.68 169.426 308.037 170.413C308.531 170.783 308.901 171.276 309.271 171.769C309.394 171.892 309.641 172.386 309.518 172.509C309.394 172.756 308.777 172.879 308.654 173.002C308.284 173.249 308.037 173.495 307.667 173.742C305.817 175.222 302.856 176.948 300.759 174.852C300.512 174.605 300.265 174.235 300.019 173.989C299.649 174.852 299.402 175.838 299.402 176.702C299.402 176.702 298.662 176.208 298.538 175.345C298.292 173.989 298.785 173.126 299.278 172.632Z" fill="#110239"/>
<path d="M308.038 172.509C308.532 172.262 309.519 172.386 310.012 172.386C311.122 172.632 311.739 173.372 311.862 174.482C311.986 175.099 312.109 175.838 312.109 176.455C312.109 177.565 311.986 178.305 311.616 179.414C311.246 180.401 310.752 181.387 309.889 182.127C309.148 182.744 307.668 183.607 306.928 183.237C306.681 183.114 306.188 181.141 306.311 180.648C306.434 180.154 306.681 180.154 307.051 179.908C307.668 179.538 308.408 178.798 307.915 177.935C307.175 176.825 305.941 177.318 305.448 178.921C305.448 178.921 304.954 179.784 304.707 179.661C304.584 179.538 303.227 175.099 308.038 172.509Z" fill="#110239"/>
<path d="M307.545 178.182C307.545 178.182 306.804 177.935 306.311 178.551C305.818 179.168 306.064 180.031 306.558 179.661C307.051 179.291 306.804 179.045 306.928 178.675C307.051 178.428 307.421 178.182 307.545 178.182Z" fill="#E45940"/>
<path d="M323.212 210.858C323.212 210.858 317.29 215.42 305.201 213.324C305.201 213.324 305.201 209.872 304.214 206.419C303.227 202.966 301.623 196.308 301.623 192.855C301.623 188.909 303.72 187.059 303.72 187.059C303.72 187.059 306.064 189.156 309.395 186.443C309.395 186.443 315.81 187.923 318.894 195.321C321.978 202.72 323.212 210.858 323.212 210.858Z" fill="#1172FF"/>
<path d="M308.655 192.239C311.739 195.691 308.779 203.953 304.831 208.639C304.708 207.899 304.584 207.282 304.337 206.543C303.844 204.693 303.104 202.103 302.61 199.391C303.721 198.774 304.584 197.788 305.201 196.308C306.311 193.349 307.051 191.376 308.655 192.239Z" fill="#002987"/>
<path d="M283.118 215.544C282.625 215.914 282.255 216.284 281.638 216.284C281.391 216.284 281.145 216.284 280.898 216.53C280.651 216.654 280.281 216.777 280.034 216.777C279.788 216.9 279.418 216.9 279.294 217.147C279.047 217.394 279.541 217.517 279.788 217.517C280.158 217.517 281.021 216.9 281.268 217.147C281.515 217.394 280.404 218.01 280.158 218.133C279.664 218.38 279.171 218.133 278.677 218.257C278.307 218.257 278.184 218.38 278.431 218.627C278.554 218.873 278.924 218.873 279.171 218.873C279.664 218.873 280.281 218.873 280.775 218.627C280.404 218.873 279.664 218.997 279.294 218.997C279.047 218.997 277.69 218.873 277.69 219.367C277.69 220.353 280.528 219.736 280.898 219.367C280.404 219.613 279.911 219.736 279.418 219.86C279.171 219.983 278.431 220.106 278.801 220.476C279.418 221.093 280.775 220.106 281.391 219.736C281.021 220.106 280.651 220.23 280.158 220.476C279.541 220.723 280.034 221.093 280.651 220.846C280.898 220.723 281.391 220.476 281.515 220.476C282.625 219.86 283.118 219.243 283.735 218.133C283.982 217.763 284.846 217.27 284.722 216.9C284.722 216.284 283.735 215.914 283.118 215.544Z" fill="#F88667"/>
<path d="M282.255 215.05L284.599 218.257C284.599 218.257 299.649 211.721 301.006 209.995C302.363 208.269 306.804 201.98 307.544 200.253C309.148 196.308 311.122 191.745 307.544 190.882C305.57 190.389 304.337 190.882 303.103 193.841C301.5 197.787 297.922 203.953 296.442 205.926C295.948 206.665 282.255 215.05 282.255 215.05Z" fill="#1172FF"/>
<path d="M271.646 195.691C271.399 196.061 272.016 197.541 272.632 198.034C273.126 198.527 273.619 198.404 273.989 198.157C274.483 197.911 274.976 197.787 275.1 197.541C275.223 196.431 274.236 197.294 273.743 197.418C273.743 197.418 274.976 196.801 274.976 196.308C274.976 195.321 273.496 196.431 273.003 196.678C273.373 196.554 274.113 196.061 274.113 195.938C274.36 195.691 274.236 195.445 274.113 195.321C273.743 195.075 272.509 195.938 272.509 195.938C272.756 195.815 273.619 195.445 273.249 194.951C273.003 194.705 272.632 194.951 272.386 194.951C272.139 195.075 271.769 195.445 271.646 195.691Z" fill="#F88667"/>
<path d="M274.483 195.568C274.36 195.568 274.237 195.445 274.113 195.445C274.113 195.075 272.633 194.951 272.386 194.828C271.399 194.335 271.769 193.718 272.263 193.842C272.51 193.965 273.25 194.088 273.496 194.212C273.743 194.335 274.237 194.335 274.483 194.335C274.73 194.335 275.47 195.075 275.717 195.198C276.087 195.568 275.1 195.815 274.483 195.568Z" fill="#F88667"/>
<path d="M169.13 206.666C168.76 207.529 171.597 209.378 175.422 210.735C179.246 212.091 182.577 212.584 182.823 211.721C183.194 210.858 180.356 209.009 176.532 207.652C172.708 206.296 169.377 205.926 169.13 206.666Z" fill="white"/>
<path d="M176.039 189.649C175.669 190.512 178.383 192.485 182.083 194.088C185.784 195.691 189.115 196.308 189.485 195.444C189.855 194.581 187.141 192.608 183.44 191.005C179.616 189.526 176.409 188.909 176.039 189.649Z" fill="white"/>
<path d="M170.857 252.167C171.104 253.03 174.435 252.783 178.259 251.55C182.083 250.317 185.044 248.714 184.797 247.851C184.55 246.988 181.22 247.234 177.395 248.467C173.571 249.577 170.61 251.304 170.857 252.167Z" fill="white"/>
<path d="M177.889 270.54C178.259 271.403 181.59 270.786 185.291 269.307C188.992 267.827 191.829 265.854 191.459 265.114C191.089 264.251 187.758 264.868 184.057 266.347C180.356 267.827 177.519 269.8 177.889 270.54Z" fill="white"/>
<path d="M167.033 229.601C167.033 230.464 170.364 231.081 174.435 230.834C178.506 230.587 181.713 229.724 181.59 228.861C181.59 227.998 178.259 227.381 174.188 227.628C170.241 227.875 167.033 228.738 167.033 229.601Z" fill="white"/>
<path d="M334.314 251.427L333.574 249.7L305.2 249.577L305.817 251.303L334.314 251.427Z" fill="#110239"/>
<path d="M337.891 260.552L337.275 258.825H308.654L309.271 260.552H337.891Z" fill="#110239"/>
<path d="M329.874 242.302L329.133 240.576L300.76 240.329L301.377 242.055L329.874 242.302Z" fill="#110239"/>
<path d="M341.592 269.8L340.975 268.074L312.108 268.197L312.849 270.047L341.592 269.8Z" fill="#110239"/>
<path d="M345.417 279.295L344.677 277.445L315.687 277.815L316.303 279.542L345.417 279.295Z" fill="#110239"/>
<path d="M349.241 288.789L348.501 287.063L319.264 287.433L320.004 289.283L349.241 288.789Z" fill="#110239"/>
<path d="M353.066 298.654L352.325 296.804L322.965 297.421L323.705 299.27L353.066 298.654Z" fill="#110239"/>
<path d="M327.653 313.698H327.776C328.64 313.698 329.256 312.835 329.01 311.971L301.5 237.986C301.376 237.493 300.759 237.123 300.266 237.123C299.402 237.123 298.786 237.863 299.032 238.603L326.419 312.835C326.542 313.328 327.159 313.698 327.653 313.698Z" fill="#110239"/>
<path d="M356.643 313.698H356.766C357.63 313.698 358.247 312.835 358 311.971L330.49 237.986C330.367 237.493 329.75 237.123 329.256 237.123C328.393 237.123 327.776 237.863 328.023 238.603L355.409 312.835C355.533 313.328 356.026 313.698 356.643 313.698Z" fill="#110239"/>
<path d="M122.499 146.737C122.499 146.737 119.538 157.589 118.058 159.315C116.578 161.041 111.767 163.631 111.767 163.631L113 165.85C113 165.85 121.759 161.411 123.239 157.712C124.103 155.616 124.72 153.766 124.966 152.163C125.213 150.807 126.2 147.477 125.707 146.121C125.46 145.381 123.239 145.011 122.499 146.737Z" fill="#1172FF"/>
<path opacity="0.65" d="M122.499 146.737C122.499 146.737 119.538 157.589 118.058 159.315C116.578 161.041 111.767 163.631 111.767 163.631L113 165.85C113 165.85 121.759 161.411 123.239 157.712C124.103 155.616 124.72 153.766 124.966 152.163C125.213 150.807 126.2 147.477 125.707 146.121C125.46 145.381 123.239 145.011 122.499 146.737Z" fill="#00A1CC"/>
<path d="M92.5222 198.404L90.3017 196.308C90.3017 196.308 81.4195 195.691 80.9261 196.431C80.4326 197.171 89.3148 201.363 90.425 201.363C91.5353 201.24 92.2755 199.267 92.5222 198.404Z" fill="#110239"/>
<path d="M108.683 168.44C108.683 168.44 100.294 166.344 99.6774 167.7C98.9372 169.056 90.3018 196.308 90.3018 196.308L92.5223 198.404C92.5223 198.404 101.775 175.468 104.489 173.126C107.203 170.659 109.916 169.426 108.683 168.44Z" fill="#F88667"/>
<path d="M108.683 168.44C108.683 168.44 100.294 166.344 99.6774 167.7C98.9372 169.056 90.3018 196.308 90.3018 196.308L92.5223 198.404C92.5223 198.404 101.775 175.468 104.489 173.126C107.203 170.659 109.916 169.426 108.683 168.44Z" fill="#E45940"/>
<path d="M113 163.507C112.383 163.384 111.89 163.137 111.273 162.767C110.78 162.521 110.409 162.274 109.793 162.398C109.423 162.398 106.215 163.754 107.079 164.37C107.325 164.617 108.066 164.247 108.312 164.124C108.682 164.001 109.052 163.754 109.423 163.631C109.052 163.631 107.325 164.371 107.572 164.74C107.942 165.48 109.669 164.494 110.039 164.247C109.669 164.247 108.682 164.74 108.682 165.11C108.682 165.727 109.916 165.234 110.286 165.11C110.533 164.987 110.656 164.864 110.903 164.864C111.15 164.864 111.396 164.987 111.643 164.987C112.137 165.11 112.507 165.11 113 164.987C113.247 164.987 113.864 164.987 113.987 164.74C114.11 164.494 113.987 164.001 113.864 163.754C113.617 163.631 113.247 163.507 113 163.507Z" fill="#F88667"/>
<path d="M113 163.507C112.383 163.384 111.89 163.137 111.273 162.767C110.78 162.521 110.409 162.274 109.793 162.398C109.423 162.398 106.215 163.754 107.079 164.37C107.325 164.617 108.066 164.247 108.312 164.124C108.682 164.001 109.052 163.754 109.423 163.631C109.052 163.631 107.325 164.371 107.572 164.74C107.942 165.48 109.669 164.494 110.039 164.247C109.669 164.247 108.682 164.74 108.682 165.11C108.682 165.727 109.916 165.234 110.286 165.11C110.533 164.987 110.656 164.864 110.903 164.864C111.15 164.864 111.396 164.987 111.643 164.987C112.137 165.11 112.507 165.11 113 164.987C113.247 164.987 113.864 164.987 113.987 164.74C114.11 164.494 113.987 164.001 113.864 163.754C113.617 163.631 113.247 163.507 113 163.507Z" fill="#E45940"/>
<path d="M98.5666 149.08L96.5928 149.82L103.254 166.097L105.228 165.11L98.5666 149.08Z" fill="#110239"/>
<path d="M117.441 164.74H104.611V166.713H117.441V164.74Z" fill="#110239"/>
<path d="M140.141 155.492C138.413 154.506 138.167 153.396 139.03 149.82C140.017 146.244 137.55 142.545 135.083 141.558C133.356 140.819 131.752 140.572 130.765 138.599C129.655 136.749 131.752 132.68 128.298 129.721C125.83 127.501 122.253 129.228 122.253 129.228C121.513 128.858 121.143 133.297 121.143 136.626C125.46 143.161 124.227 151.793 122.623 159.068C122.623 159.192 122.5 159.438 122.5 159.561C122.87 165.234 123.116 169.919 123.116 169.919C123.116 169.919 133.479 175.715 140.511 170.783C147.542 165.974 143.595 157.465 140.141 155.492Z" fill="#110239"/>
<path d="M109.793 197.047L107.203 198.527C107.203 198.527 103.995 206.789 104.612 207.529C105.229 208.268 111.767 200.993 112.137 199.883C112.261 198.774 110.533 197.417 109.793 197.047Z" fill="#110239"/>
<path d="M113.124 167.947C113.124 167.947 96.3463 169.18 94.7426 170.659C93.1389 172.139 107.449 198.281 107.449 198.281L109.793 196.924C109.793 196.924 106.215 184.47 105.352 181.634C104.488 178.798 102.638 175.222 103.008 174.852C103.378 174.359 120.279 176.948 120.155 172.139C120.032 167.453 113.124 167.947 113.124 167.947Z" fill="#F88667"/>
<path d="M121.389 139.585C121.389 139.585 123.116 144.395 122.129 147.971L128.05 146.491C128.05 146.491 125.583 138.476 124.596 137.119C123.486 135.763 121.389 139.585 121.389 139.585Z" fill="#F88667"/>
<path d="M123.857 143.901C125.83 143.901 126.817 145.381 126.941 146.86L128.051 146.614C128.051 146.614 125.584 138.599 124.597 137.242C123.61 135.886 121.513 139.709 121.513 139.709C121.513 139.709 122.253 141.928 122.5 144.394C122.87 144.024 123.363 143.901 123.857 143.901Z" fill="#E45940"/>
<path d="M120.773 133.297C120.773 133.297 118.429 134.407 117.936 135.27C117.442 136.133 117.812 137.489 117.812 138.353C117.812 139.216 117.565 140.449 117.689 140.695C117.812 140.942 118.676 140.695 118.799 140.819C118.922 140.942 120.033 141.682 120.403 142.422C120.773 143.162 121.143 143.285 122.007 142.915C122.747 142.545 125.831 138.476 125.954 136.626C125.954 134.777 123.117 132.557 120.773 133.297Z" fill="#F88667"/>
<path d="M122.747 130.831C122.747 130.831 121.636 132.927 121.513 133.79C121.39 134.653 122.253 137.119 122.747 137.489C123.24 137.859 122.87 134.653 123.98 135.64C125.214 136.626 123.857 138.352 123.98 138.722C124.104 139.092 124.597 140.325 125.831 140.325C127.064 140.449 129.161 134.16 127.804 132.68C126.571 131.2 124.227 130.831 122.747 130.831Z" fill="#110239"/>
<path d="M122.993 129.474C122.993 129.474 121.019 127.994 118.922 129.597C116.824 131.324 116.948 133.79 115.221 133.667C115.221 133.667 116.331 136.626 118.922 135.886C121.265 135.27 123.856 131.324 122.993 129.474Z" fill="#110239"/>
<path d="M129.778 162.891L122.006 162.274C122.006 162.274 117.935 166.837 113.987 166.837C110.04 166.837 100.294 166.837 100.294 166.837C100.294 166.837 101.034 173.126 104.365 177.565C104.365 177.565 117.441 177.935 123.733 177.441C130.024 176.948 136.069 169.92 129.778 162.891Z" fill="#110239"/>
<path d="M103.871 167.7C105.845 167.453 107.819 167.084 109.793 166.837H101.157C102.021 167.207 102.391 167.823 103.871 167.7Z" fill="#E25B00"/>
<path d="M127.31 143.901C127.31 143.901 123.733 145.258 122.499 145.381C122.499 145.381 120.032 150.93 119.045 152.41C118.058 153.889 121.512 159.685 121.759 162.151C121.759 162.151 123.856 164.124 130.148 162.891C130.024 163.014 131.751 147.354 127.31 143.901Z" fill="#1172FF"/>
<path opacity="0.65" d="M128.174 147.231C127.063 146.738 125.213 147.231 124.596 148.341C123.979 149.697 124.596 152.163 124.473 153.643C124.349 155.246 124.349 157.219 123.856 158.698C123.609 159.932 122.746 161.288 121.759 162.521C122.622 163.014 124.966 164.001 129.777 163.014C129.777 163.014 130.764 153.519 129.161 147.601C128.914 147.477 128.544 147.354 128.174 147.231Z" fill="#00A1CC"/>
<path d="M114.233 163.507C113.617 163.384 113.123 163.137 112.506 162.767C112.013 162.521 111.643 162.274 111.026 162.398C110.656 162.398 107.448 163.754 108.312 164.37C108.559 164.617 109.299 164.247 109.546 164.124C109.916 164.001 110.286 163.754 110.656 163.631C110.286 163.631 108.559 164.371 108.805 164.74C109.176 165.48 110.903 164.494 111.273 164.247C110.903 164.247 109.916 164.74 109.916 165.11C109.916 165.727 111.149 165.234 111.519 165.11C111.766 164.987 111.89 164.864 112.136 164.864C112.383 164.864 112.63 164.987 112.876 164.987C113.37 165.11 113.74 165.11 114.233 164.987C114.48 164.987 115.097 164.987 115.22 164.74C115.344 164.494 115.22 164.001 115.097 163.754C114.85 163.631 114.48 163.507 114.233 163.507Z" fill="#F88667"/>
<path d="M113.617 163.384L114.357 165.974C114.357 165.974 131.258 164.001 131.628 161.041C131.998 158.082 130.888 144.148 126.817 145.504C122.746 146.984 126.817 157.095 126.077 157.835C125.583 158.698 113.617 163.384 113.617 163.384Z" fill="#1172FF"/>
<path d="M319.044 29.9022C319.044 29.9022 309.109 32.3851 301.657 37.8474C294.205 43.3097 286.256 60.6898 284.766 72.6075C283.275 84.7736 280.295 94.2085 284.766 100.416C289.237 106.623 304.141 107.864 317.057 109.106C329.725 110.347 347.361 107.368 351.087 102.898C354.565 98.4293 354.317 64.9106 347.61 51.9998C340.903 39.0889 328.732 29.654 319.044 29.9022Z" fill="#1172FF"/>
<path d="M335.935 102.402C333.451 101.657 330.719 100.664 328.483 98.9259C324.012 95.2016 321.28 93.9601 315.567 94.2084C310.35 94.2084 305.382 94.2084 300.911 91.229C296.937 88.4978 294.701 82.7872 295.695 78.0698C296.44 74.8421 297.434 72.1109 299.421 69.3798C302.402 65.4072 302.898 62.676 301.905 57.9586C300.663 52.248 300.414 47.2822 302.153 41.5717C303.147 38.5922 305.134 36.3576 307.369 34.6196C305.382 35.6128 303.147 36.8542 301.16 38.3439C293.708 43.8062 285.759 61.1863 284.269 73.1041C282.778 85.2701 279.798 94.705 284.269 100.912C288.74 107.119 303.644 108.361 316.56 109.602C329.228 110.844 346.864 107.864 350.59 103.395C351.336 102.65 351.832 100.664 352.081 97.9327C348.106 101.905 342.393 104.388 335.935 102.402Z" fill="#002987"/>
<path d="M317.553 32.3853C317.553 32.3853 306.872 29.9024 305.382 21.709C303.892 13.5155 308.114 10.7844 311.592 12.5224C314.821 14.5087 315.318 13.2672 317.802 12.0258C320.037 10.5361 323.515 13.0189 325.005 15.2535C326.744 17.7364 326.993 14.7569 330.967 14.5086C334.941 14.2604 336.183 17.7364 334.196 22.7021C331.96 27.4196 329.973 32.6336 317.553 32.3853Z" fill="#1172FF"/>
<path d="M329.229 27.9157C326.496 28.6606 327.987 24.9363 327.738 23.6949C326.993 23.6949 326.745 24.9363 326.496 25.4329C325.999 26.6743 324.758 27.4192 323.516 27.4192C321.777 27.4192 321.528 25.4329 320.783 24.4397C320.535 23.9432 320.286 23.9432 320.038 24.4397C319.79 25.1846 320.038 25.9295 319.541 26.426C318.548 27.4192 316.56 26.1777 315.815 25.4329C314.822 24.688 314.573 23.1983 313.58 22.4534C313.331 22.7017 313.331 22.95 313.331 23.1983C313.083 24.4397 313.083 26.6743 311.344 26.1777C309.605 25.9295 308.612 23.1983 308.115 21.9569C307.618 20.4672 306.873 18.4809 306.873 16.9911C306.873 16.2463 306.873 15.5014 307.121 14.7566C307.121 14.26 307.37 13.5151 307.618 13.0186C306.128 14.26 305.134 17.2394 305.879 21.7086C307.121 28.6606 315.07 31.64 317.306 32.1366C317.802 32.3849 318.051 32.3849 318.548 32.3849C328.235 32.3849 331.464 28.9089 333.203 25.1846C332.955 25.1846 330.222 27.6675 329.229 27.9157Z" fill="#002987"/>
<path d="M322.025 56.4689C327.241 56.9655 331.961 59.4483 331.961 64.6623L323.267 64.4141C323.267 62.4278 321.28 61.9312 320.038 61.9312C319.293 61.9312 316.56 61.9312 316.56 63.4209C316.56 67.1452 332.706 63.6692 332.457 73.8489C332.457 80.0561 327.49 82.0424 321.528 82.539L321.776 88.9944H316.312L316.809 82.539C311.344 81.7941 306.376 79.3112 306.376 73.6007L315.07 73.8489V74.0972C315.07 76.5801 317.802 77.0767 319.044 77.0767C320.286 77.0767 323.018 77.0767 323.018 75.3387C323.018 71.6144 306.873 74.8421 307.121 64.9106C307.121 59.2 311.592 57.2137 317.057 56.7172L316.809 50.2617H322.273L322.025 56.4689Z" fill="white"/>
<path d="M309.853 28.6611L308.859 33.8751C308.859 33.8751 311.592 36.6063 319.044 36.6063C326.496 36.6063 330.47 33.8751 330.47 33.8751L329.973 29.1577C329.973 29.1577 319.789 31.6406 309.853 28.6611Z" fill="#110239"/>
<path d="M90.9183 240.699C105.352 247.604 102.021 246.494 104.365 247.111C106.709 247.727 120.525 248.591 120.525 248.591L122.006 254.509C122.006 254.509 105.105 253.646 102.761 253.03C100.417 252.536 90.7949 248.837 90.7949 248.837L90.9183 240.699Z" fill="white"/>
<path d="M114.234 249.084C113.864 249.824 113.001 250.317 112.014 250.317C109.67 250.194 107.449 250.194 105.229 249.824C103.995 249.701 102.638 249.454 101.404 249.084C99.184 248.344 96.8401 247.604 94.7429 246.618C93.6326 246.125 92.2756 245.878 91.042 245.385V248.961C91.042 248.961 100.788 252.66 103.008 253.153C105.352 253.646 122.253 254.633 122.253 254.633L120.773 248.714C118.429 248.961 116.331 248.961 114.234 249.084Z" fill="#E5E6ED"/>
<path d="M88.9449 310.862C88.9449 310.862 88.3281 312.711 88.3281 314.068C88.3281 315.424 88.4515 316.904 88.8216 317.274C89.6851 318.014 100.418 318.014 101.281 317.027C102.145 316.041 101.528 314.438 99.3074 313.821C96.8402 313.205 96.4701 313.451 94.9897 312.958C93.5094 312.342 93.8795 310.615 93.8795 310.615L88.9449 310.862Z" fill="#110239"/>
<path d="M65.2592 308.766C65.2592 308.766 64.0256 310.245 63.5322 311.478C63.0387 312.712 62.5453 314.191 62.9153 314.684C63.4088 315.671 73.5246 319.493 74.6348 318.877C75.7451 318.26 75.8685 316.534 73.8947 315.178C71.7975 313.698 71.4274 313.821 70.1938 312.835C68.9601 311.725 69.947 310.245 69.947 310.245L65.2592 308.766Z" fill="#110239"/>
<path d="M88.8212 265.114L74.3877 266.717C74.3877 266.717 87.3408 287.433 88.3277 290.762C89.3146 294.092 87.9577 312.095 87.9577 312.095H94.4959C94.4959 312.095 95.8529 290.762 95.6062 289.159C95.2361 287.68 88.8212 265.114 88.8212 265.114Z" fill="#110239"/>
<path d="M88.3283 266.224H71.6742C71.6742 266.224 69.7004 271.279 70.6873 275.102C71.5509 278.924 72.1677 287.186 72.0443 288.666C71.921 290.146 63.9023 309.382 63.9023 309.382L69.9471 311.601C69.9471 311.601 78.2125 293.228 79.076 291.132C79.8162 289.036 88.3283 266.224 88.3283 266.224Z" fill="#110239"/>
<path d="M87.588 232.067C86.231 232.191 84.874 232.067 83.6404 231.697C83.1469 231.574 82.7768 231.451 82.2834 231.204C82.16 232.807 81.6666 236.753 80.3096 238.233C80.3096 238.233 80.5563 240.206 83.8871 240.699C87.3413 241.192 88.0815 238.603 88.0815 238.603C88.0815 238.603 87.3413 234.533 87.588 232.067Z" fill="#F88667"/>
<path d="M80.1865 238.356V238.479C80.1865 238.603 80.1865 238.603 80.3099 238.726C80.3099 238.849 80.4332 238.849 80.4332 238.973C80.5566 239.219 80.68 239.343 81.0501 239.589C81.1734 239.712 81.2968 239.836 81.5435 239.836C81.5435 239.836 81.5435 239.836 81.6669 239.836C81.7902 239.959 82.037 240.082 82.2837 240.082C82.5304 239.219 82.9005 238.356 83.6407 237.739C84.8743 236.63 86.2313 236.013 87.835 236.013C87.7117 234.657 87.5883 233.054 87.7117 231.821C86.3547 231.944 84.9977 231.821 83.7641 231.451C83.2706 231.327 82.9005 231.204 82.4071 230.958C82.037 232.93 81.6669 236.753 80.1865 238.356C80.1865 238.233 80.1865 238.233 80.1865 238.356Z" fill="#E45940"/>
<path d="M82.0365 222.202C82.0365 222.202 87.8345 220.846 88.5747 222.202C89.4383 223.559 89.1915 225.778 89.4383 226.765C89.8084 227.751 91.1654 228.861 91.2887 229.231C91.4121 229.601 90.3018 230.341 90.1784 230.587C90.0551 230.834 89.3149 234.04 88.328 234.78C87.3411 235.396 82.1598 233.3 80.9262 230.711C79.6926 228.245 80.4328 222.942 82.0365 222.202Z" fill="#F88667"/>
<path d="M87.958 237.986C87.958 237.986 83.887 239.959 80.6796 237.616C80.6796 237.616 74.3881 238.726 73.6479 238.973C73.0311 239.219 74.6348 248.097 74.018 252.537C73.2778 256.976 70.4404 267.827 70.4404 267.827C70.4404 267.827 78.0889 273.746 91.1654 270.047C91.1654 270.047 91.5355 254.879 91.4122 250.687C91.1654 244.522 91.1654 240.822 91.1654 240.822C91.1654 240.822 89.6851 239.343 87.958 237.986Z" fill="white"/>
<path d="M78.4593 262.648C77.8425 260.305 77.4724 257.962 77.8425 255.619C78.336 253.03 76.3622 249.577 75.9921 246.864C75.622 244.028 75.3753 242.055 73.4015 240.452C73.5248 243.165 74.3884 249.207 73.8949 252.66C73.1547 257.099 70.3174 267.95 70.3174 267.95C70.3174 267.95 75.1285 271.649 83.764 271.279C80.4332 269.183 79.4463 266.47 78.4593 262.648Z" fill="#E5E6ED"/>
<path d="M84.5038 222.942C84.5038 222.942 84.6272 224.299 83.7636 225.902C83.3935 226.518 84.9972 228.491 84.5038 229.231C84.1337 229.724 83.7636 229.601 83.3935 228.491C83.2702 228.121 82.9001 227.875 82.53 227.628C81.173 227.012 80.8029 229.108 81.9132 229.724C82.7767 230.218 82.1599 232.437 82.1599 232.437C81.173 233.054 78.0889 232.067 78.5824 229.848C78.8291 228.368 78.9524 227.875 78.459 227.505C77.5954 226.888 76.4852 225.039 78.0889 223.559C80.3094 221.586 78.3356 220.846 80.8029 220.353C83.1468 219.983 85.1206 221.463 84.5038 222.942Z" fill="#110239"/>
<path d="M80.3096 221.586C80.4329 221.093 81.4198 220.476 81.9133 220.106C82.6535 219.613 83.517 219.243 84.3806 219.12C85.2441 218.873 86.231 218.997 87.0945 219.12C87.8347 219.243 88.4515 219.736 89.3151 219.86C90.0553 219.983 90.7954 219.983 91.2889 219.613C91.4123 220.106 91.4123 221.093 91.2889 221.463C91.1655 222.203 90.6721 222.819 90.1786 223.436C88.945 225.039 85.7376 225.902 83.6404 224.915C82.6535 224.422 81.6666 224.052 81.1731 223.066C80.9264 222.326 80.6797 222.079 80.3096 221.586Z" fill="#110239"/>
<path d="M65.6291 302.477C65.1356 302.6 64.6422 302.723 64.1487 302.723C63.902 302.723 63.7786 302.723 63.5319 302.723C62.6684 302.723 61.8048 302.847 60.9413 302.477C59.2142 301.86 58.3506 300.75 57.9806 298.654C57.6105 296.805 58.1039 294.832 59.3375 293.229C59.9544 292.489 60.5712 291.996 61.188 291.502L61.4347 291.379C62.2983 290.762 62.7917 289.653 63.2852 288.543L63.4085 288.42C63.5319 287.926 63.7786 287.556 63.902 287.063C64.0253 286.693 64.1487 286.447 64.2721 286.077C65.8758 281.761 70.3169 280.035 73.8944 279.295L74.0178 280.035C70.687 280.774 66.3692 282.377 64.8889 286.323C64.7655 286.693 64.6422 286.94 64.5188 287.31C64.3954 287.803 64.2721 288.173 64.0254 288.666L63.902 288.79C63.4085 289.899 62.9151 291.132 61.8048 291.872L61.5581 291.996C60.8179 292.489 60.3245 292.859 59.831 293.475C58.7207 294.955 58.2273 296.681 58.5974 298.408C58.9675 300.257 59.7076 301.12 61.188 301.737C61.9282 301.984 62.6684 301.984 63.5319 301.984C63.7786 301.984 64.0253 301.984 64.1487 301.984C65.6291 301.984 66.7393 301.244 67.973 300.504C68.7131 300.134 69.4533 299.641 70.1935 299.394C71.9206 298.654 73.2776 297.421 74.1411 295.448L74.2645 295.325C75.4981 292.735 76.3617 290.639 78.5822 288.543L78.9523 288.296C80.556 286.817 81.5429 285.83 81.7897 283.611C82.0364 281.514 81.1728 279.295 79.9392 278.432C79.0757 277.815 78.0888 277.692 76.8551 278.185L76.485 277.445C78.2121 276.705 79.5691 277.199 80.3093 277.815C82.0364 279.048 82.6532 281.761 82.4065 283.734C82.1597 286.2 80.9261 287.433 79.3224 288.913L78.9523 289.159C76.8551 291.132 75.9916 293.105 74.8813 295.695L74.7579 295.818C73.771 298.038 72.414 299.394 70.4402 300.134C69.7001 300.381 68.9599 300.874 68.3431 301.244C67.6029 301.614 66.7393 302.23 65.6291 302.477Z" fill="white"/>
<path d="M130.642 245.755L79.8165 260.552C78.3361 261.045 76.9791 261.908 75.9922 263.018L69.7007 271.033C68.2203 272.883 67.7269 275.472 68.3437 277.815L69.2072 280.898C69.9474 283.241 71.6745 285.09 74.0184 285.83L83.6407 289.159C85.1211 289.653 86.7248 289.653 88.2052 289.283L139.031 274.486C142.978 273.376 145.322 269.183 144.089 265.237L139.894 250.81C138.784 246.864 134.59 244.522 130.642 245.755ZM84.6276 278.555C81.0501 282.624 75.1287 279.295 76.609 274.116C76.7324 273.746 76.8558 273.376 77.1025 273.129C80.68 269.06 86.6014 272.389 85.1211 277.568C84.9977 277.938 84.8744 278.308 84.6276 278.555Z" fill="#1172FF"/>
<path d="M93.6326 278.678L91.4121 266.347L94.4962 265.484C94.9896 265.361 95.3597 265.237 95.7298 265.237C96.0999 265.237 96.47 265.237 96.8401 265.237C97.2102 265.237 97.4569 265.361 97.7036 265.607C97.9503 265.731 98.1971 266.1 98.3204 266.347C98.4438 266.594 98.5672 266.84 98.5672 267.087C98.5672 267.21 98.6905 267.457 98.6905 267.703C98.9373 269.183 98.5672 270.17 97.3335 270.786C98.5672 270.663 99.4307 271.279 99.9242 272.636C99.9242 272.759 100.048 273.006 100.048 273.129C100.294 274.362 100.171 275.349 99.6774 276.088C99.184 276.828 98.3204 277.445 97.2102 277.691L93.6326 278.678ZM95.7298 276.212L96.47 275.965C97.0868 275.842 97.4569 275.472 97.7036 275.102C97.9503 274.732 97.9504 274.239 97.827 273.499C97.827 273.376 97.7036 273.129 97.7036 273.006C97.5803 272.513 97.3335 272.266 97.0868 272.019C96.7167 271.773 96.3466 271.773 95.6065 271.896L94.9896 272.019L95.7298 276.212ZM94.6195 270.54L95.2364 270.416C95.8532 270.293 96.2233 269.923 96.47 269.676C96.5934 269.306 96.7167 268.813 96.5934 268.197C96.5934 268.073 96.5934 267.95 96.47 267.95C96.3466 267.58 96.0999 267.334 95.8532 267.21C95.4831 267.087 94.9896 267.087 94.3728 267.334L94.0027 267.457L94.6195 270.54Z" fill="white"/>
<path d="M102.021 276.212L99.8008 263.881L102.761 263.018C103.255 262.895 103.748 262.771 104.118 262.771C104.489 262.771 104.859 262.771 105.229 262.771C105.599 262.771 105.846 262.895 106.092 263.141C106.339 263.388 106.586 263.635 106.709 263.881C106.832 264.128 106.956 264.374 106.956 264.621C106.956 264.744 107.079 264.991 107.079 265.238C107.203 265.978 107.203 266.717 107.079 267.211C106.956 267.827 106.586 268.32 106.092 268.69L108.93 274.239L106.586 274.979L104.118 269.8L103.255 270.047L104.242 275.596L102.021 276.212ZM103.132 268.32L103.748 268.197C104.365 268.074 104.735 267.704 104.982 267.457C105.229 267.087 105.229 266.594 105.105 265.977C105.105 265.854 104.982 265.731 104.982 265.608C104.859 265.238 104.735 264.991 104.489 264.744C104.242 264.498 103.748 264.498 103.255 264.621L102.515 264.868L103.132 268.32Z" fill="white"/>
<path d="M109.917 273.869L110.04 260.798L112.631 260.059L117.195 271.773L114.975 272.389L113.988 269.8L112.014 270.417V273.253L109.917 273.869ZM112.138 268.69L113.618 268.32L112.014 263.635L112.138 268.69Z" fill="white"/>
<path d="M118.429 271.403L116.208 259.072L117.935 258.579L121.883 264.374L120.649 257.839L122.623 257.222L124.843 269.553L123.24 270.046L119.292 263.881L120.526 270.786L118.429 271.403Z" fill="white"/>
<path d="M126.57 269.06L124.35 256.729L127.187 255.866C127.927 255.619 128.544 255.496 129.161 255.496C129.654 255.496 130.148 255.619 130.518 255.866C130.888 256.113 131.135 256.483 131.381 256.852C131.505 257.099 131.628 257.346 131.628 257.592C131.751 257.839 131.751 258.209 131.875 258.579L132.738 263.018C132.862 264.004 132.985 264.744 132.862 265.361C132.738 265.977 132.368 266.594 131.875 266.964C131.381 267.457 130.641 267.827 129.654 268.074L126.57 269.06ZM128.667 266.594L129.161 266.471C129.407 266.471 129.531 266.347 129.654 266.224C129.778 266.101 129.901 266.101 130.024 265.977C130.148 265.854 130.148 265.854 130.271 265.731C130.271 265.607 130.394 265.484 130.394 265.361C130.394 265.237 130.394 265.114 130.394 264.991C130.394 264.868 130.394 264.621 130.394 264.498C130.394 264.374 130.394 264.128 130.271 263.881L129.408 258.949C129.408 258.702 129.284 258.455 129.284 258.209C129.284 258.086 129.161 257.962 129.161 257.839C129.037 257.592 128.914 257.469 128.667 257.346C128.421 257.222 128.051 257.346 127.68 257.469L127.064 257.716L128.667 266.594Z" fill="white"/>
<path d="M81.1727 278.678C81.0494 278.925 80.926 279.048 80.6793 279.295C81.4194 280.405 81.7895 282.008 81.6662 283.611C81.5428 284.474 81.1727 285.584 80.5559 286.447C80.1858 287.063 79.6924 287.433 79.3223 287.803C79.569 287.926 79.8157 288.05 79.9391 288.173C80.1858 287.803 80.6793 287.433 81.0493 286.94C81.6662 285.953 82.283 284.72 82.283 283.734C82.5297 282.008 82.1596 280.035 81.1727 278.678Z" fill="white"/>
<path d="M124.72 247.974C123.856 246.865 122.129 246.988 121.019 247.358C120.156 247.728 120.156 248.714 120.032 250.071C119.909 251.057 119.909 251.92 120.156 252.167C121.266 253.03 121.266 249.824 121.513 249.084C121.513 249.084 121.142 252.414 121.636 252.66C122.746 253.153 122.746 250.071 122.87 249.331C122.623 250.071 122.623 251.427 122.746 251.55C122.746 252.167 123.24 252.044 123.363 251.92C123.98 251.55 123.856 249.084 123.856 249.084C123.856 249.577 123.486 251.18 124.227 250.811C124.72 250.564 124.72 249.824 124.843 249.454C124.967 248.838 124.843 248.221 124.72 247.974Z" fill="#F88667"/>
<path d="M77.1015 262.401C78.2118 262.401 79.5688 262.524 80.8024 262.524C81.2959 262.524 81.9127 262.401 82.4061 262.401C82.7762 262.401 83.393 262.278 83.6398 262.648C83.8865 263.018 83.1463 263.264 82.8996 263.264C82.5295 263.388 81.6659 263.264 81.6659 263.757C81.5426 264.497 82.8996 264.744 83.5164 264.991C84.0098 265.237 85.3668 265.73 84.5033 266.224C83.8865 266.594 82.6529 265.854 82.1594 265.607C82.7762 265.73 83.393 265.977 84.0098 266.347C84.3799 266.594 84.9968 266.84 84.9968 267.21C84.9968 267.827 83.7631 267.457 83.393 267.333C82.6529 266.963 82.5295 266.963 82.036 266.594C82.5295 266.84 84.5033 267.703 83.8865 268.32C83.5164 268.69 82.036 267.58 81.4192 267.333C81.7893 267.58 82.7762 267.827 82.6529 268.443C82.6529 268.813 82.036 268.567 81.7893 268.32C81.4192 268.073 81.0491 267.827 80.679 267.58C80.4323 267.457 80.1856 267.21 79.8155 267.087C79.0753 266.594 78.5819 266.47 77.965 265.854C77.4716 265.237 76.8548 264.621 76.3613 264.127C77.3482 263.881 76.238 263.018 77.1015 262.401Z" fill="#F88667"/>
<path d="M78.706 262.155L77.1022 265.854C77.1022 265.854 60.4482 260.428 61.3118 256.113C62.0519 252.29 71.6743 239.466 73.7714 238.973C76.6088 238.356 77.719 245.138 76.1153 246.741C72.6612 250.194 67.85 255.003 68.2201 255.866C68.5902 256.606 78.706 262.155 78.706 262.155Z" fill="white"/>
</g>
<defs>
<clipPath id="clip0">
<rect width="358" height="319" fill="white"/>
</clipPath>
</defs>
</svg>
