<svg width="504" height="507" viewBox="0 0 504 507" fill="none" xmlns="http://www.w3.org/2000/svg">
<path d="M314.292 459.468H362.299L362.299 90.0737H314.292L314.292 459.468Z" fill="#1B57B3"/>
<path d="M361.96 459.519H495.86L495.86 90.19H361.96L361.96 459.519Z" fill="#4096FF"/>
<path d="M371.042 436.137H486.777L486.777 143.465H371.042L371.042 436.137Z" fill="#265399"/>
<path d="M491.284 266.774C492.387 266.774 493.231 265.865 493.231 264.827V232.372C493.231 231.269 492.322 230.425 491.284 230.425C490.182 230.425 489.338 231.334 489.338 232.372V264.827C489.273 265.93 490.182 266.774 491.284 266.774Z" fill="#265399"/>
<path d="M361.987 195.187H366.269V172.145H361.987V195.187Z" fill="#265399"/>
<path d="M361.987 398.164H366.269V375.121H361.987V398.164Z" fill="#265399"/>
<path d="M373.83 224.95H482.105V189.315H373.83V224.95Z" fill="#408BFF"/>
<path d="M373.83 266.405H482.105V230.771H373.83V266.405Z" fill="#408BFF"/>
<path d="M373.83 307.796H482.105V272.161H373.83V307.796Z" fill="#408BFF"/>
<path d="M373.83 349.251H482.105V313.616H373.83V349.251Z" fill="#408BFF"/>
<path d="M373.83 390.706H482.105V355.072H373.83V390.706Z" fill="#408BFF"/>
<path d="M373.83 432.097H482.105V396.462H373.83V432.097Z" fill="#408BFF"/>
<path d="M373.83 183.495H482.105V147.86H373.83V183.495Z" fill="#408BFF"/>
<path d="M384.093 174.856H473.359V157.136H384.093V174.856Z" fill="#265399"/>
<path d="M405.742 170.087H469.772V161.973H405.742V170.087Z" fill="#40BEFF"/>
<path d="M399.229 166.036C399.229 167.204 400.137 168.178 401.305 168.178C402.407 168.178 403.38 167.204 403.38 166.036C403.38 164.867 402.472 163.894 401.305 163.894C400.202 163.894 399.229 164.867 399.229 166.036Z" fill="#246AD6"/>
<path d="M393.325 166.036C393.325 167.204 394.233 168.178 395.401 168.178C396.568 168.178 397.477 167.204 397.477 166.036C397.477 164.867 396.568 163.894 395.401 163.894C394.233 163.894 393.325 164.867 393.325 166.036Z" fill="#408BFF"/>
<path d="M387.356 166.036C387.356 167.204 388.265 168.178 389.432 168.178C390.535 168.178 391.508 167.204 391.508 166.036C391.508 164.867 390.6 163.894 389.432 163.894C388.33 163.894 387.356 164.867 387.356 166.036Z" fill="#408BFF"/>
<path d="M384.093 216.721H473.359V199.001H384.093V216.721Z" fill="#265399"/>
<path d="M405.742 212.017H469.772V203.903H405.742V212.017Z" fill="#40BEFF"/>
<path d="M384.093 258.651H473.359V240.931H384.093V258.651Z" fill="#265399"/>
<path d="M405.742 253.882H469.772V245.768H405.742V253.882Z" fill="#40BEFF"/>
<path d="M384.093 300.516H473.359V282.796H384.093V300.516Z" fill="#265399"/>
<path d="M405.742 295.812H469.772V287.698H405.742V295.812Z" fill="#40BEFF"/>
<path d="M384.093 341.351H473.359V323.631H384.093V341.351Z" fill="#265399"/>
<path d="M405.742 336.582H469.772V328.468H405.742V336.582Z" fill="#40BEFF"/>
<path d="M399.229 332.721C399.229 333.889 400.137 334.863 401.305 334.863C402.407 334.863 403.38 333.889 403.38 332.721C403.38 331.552 402.472 330.579 401.305 330.579C400.202 330.579 399.229 331.487 399.229 332.721Z" fill="#246AD6"/>
<path d="M393.325 332.721C393.325 333.889 394.233 334.863 395.401 334.863C396.568 334.863 397.477 333.889 397.477 332.721C397.477 331.552 396.568 330.579 395.401 330.579C394.233 330.579 393.325 331.487 393.325 332.721Z" fill="#408BFF"/>
<path d="M387.356 332.721C387.356 333.889 388.265 334.863 389.432 334.863C390.535 334.863 391.508 333.889 391.508 332.721C391.508 331.552 390.6 330.579 389.432 330.579C388.33 330.579 387.356 331.487 387.356 332.721Z" fill="#408BFF"/>
<path d="M384.093 383.4H473.359V365.68H384.093V383.4Z" fill="#265399"/>
<path d="M405.742 378.631H469.772V370.517H405.742V378.631Z" fill="#40BEFF"/>
<path d="M384.093 424.539H473.359V406.819H384.093V424.539Z" fill="#265399"/>
<path d="M405.742 419.77H469.772V411.656H405.742V419.77Z" fill="#40BEFF"/>
<path d="M399.229 415.933C399.229 417.102 400.137 418.075 401.305 418.075C402.407 418.075 403.38 417.102 403.38 415.933C403.38 414.765 402.472 413.792 401.305 413.792C400.202 413.792 399.229 414.765 399.229 415.933Z" fill="#246AD6"/>
<path d="M393.325 415.933C393.325 417.102 394.233 418.075 395.401 418.075C396.568 418.075 397.477 417.102 397.477 415.933C397.477 414.765 396.568 413.792 395.401 413.792C394.233 413.792 393.325 414.765 393.325 415.933Z" fill="#408BFF"/>
<path d="M387.356 415.933C387.356 417.102 388.265 418.075 389.432 418.075C390.535 418.075 391.508 417.102 391.508 415.933C391.508 414.765 390.6 413.792 389.432 413.792C388.33 413.792 387.356 414.765 387.356 415.933Z" fill="#408BFF"/>
<path d="M401.305 210.433C402.451 210.433 403.38 209.474 403.38 208.291C403.38 207.108 402.451 206.149 401.305 206.149C400.158 206.149 399.229 207.108 399.229 208.291C399.229 209.474 400.158 210.433 401.305 210.433Z" fill="#246AD6"/>
<path d="M395.401 210.433C396.548 210.433 397.477 209.474 397.477 208.291C397.477 207.108 396.548 206.149 395.401 206.149C394.255 206.149 393.325 207.108 393.325 208.291C393.325 209.474 394.255 210.433 395.401 210.433Z" fill="#408BFF"/>
<path d="M389.432 210.433C390.579 210.433 391.508 209.474 391.508 208.291C391.508 207.108 390.579 206.149 389.432 206.149C388.286 206.149 387.356 207.108 387.356 208.291C387.356 209.474 388.286 210.433 389.432 210.433Z" fill="#408BFF"/>
<path d="M399.229 249.768C399.229 250.936 400.137 251.91 401.305 251.91C402.407 251.91 403.38 250.936 403.38 249.768C403.38 248.599 402.472 247.626 401.305 247.626C400.202 247.561 399.229 248.534 399.229 249.768Z" fill="#246AD6"/>
<path d="M393.325 249.768C393.325 250.936 394.233 251.91 395.401 251.91C396.569 251.91 397.477 250.936 397.477 249.768C397.477 248.599 396.569 247.626 395.401 247.626C394.233 247.626 393.325 248.534 393.325 249.768Z" fill="#408BFF"/>
<path d="M387.356 249.768C387.356 250.936 388.265 251.91 389.432 251.91C390.535 251.91 391.508 250.936 391.508 249.768C391.508 248.599 390.6 247.626 389.432 247.626C388.33 247.561 387.356 248.534 387.356 249.768Z" fill="#408BFF"/>
<path d="M399.229 291.893C399.229 293.062 400.137 294.035 401.305 294.035C402.407 294.035 403.38 293.062 403.38 291.893C403.38 290.725 402.472 289.751 401.305 289.751C400.202 289.686 399.229 290.66 399.229 291.893Z" fill="#246AD6"/>
<path d="M393.325 291.893C393.325 293.062 394.233 294.035 395.401 294.035C396.569 294.035 397.477 293.062 397.477 291.893C397.477 290.725 396.569 289.751 395.401 289.751C394.233 289.751 393.325 290.66 393.325 291.893Z" fill="#408BFF"/>
<path d="M387.356 291.893C387.356 293.062 388.265 294.035 389.432 294.035C390.535 294.035 391.508 293.062 391.508 291.893C391.508 290.725 390.6 289.751 389.432 289.751C388.33 289.686 387.356 290.66 387.356 291.893Z" fill="#408BFF"/>
<path d="M401.305 376.923C402.451 376.923 403.38 375.964 403.38 374.781C403.38 373.598 402.451 372.639 401.305 372.639C400.158 372.639 399.229 373.598 399.229 374.781C399.229 375.964 400.158 376.923 401.305 376.923Z" fill="#246AD6"/>
<path d="M395.401 376.923C396.548 376.923 397.477 375.964 397.477 374.781C397.477 373.598 396.548 372.639 395.401 372.639C394.255 372.639 393.325 373.598 393.325 374.781C393.325 375.964 394.255 376.923 395.401 376.923Z" fill="#408BFF"/>
<path d="M389.432 376.923C390.579 376.923 391.508 375.964 391.508 374.781C391.508 373.598 390.579 372.639 389.432 372.639C388.286 372.639 387.356 373.598 387.356 374.781C387.356 375.964 388.286 376.923 389.432 376.923Z" fill="#408BFF"/>
<path d="M358.705 459.468H362.273L362.273 90.0737H358.705L358.705 459.468Z" fill="#2D76E6"/>
<path d="M359.006 459.487H358.422V137.93H495.761V138.515H359.006V459.487Z" fill="#0B254D"/>
<path d="M361.987 293.142H366.269V270.1H361.987V293.142Z" fill="#265399"/>
<path d="M433.806 103.334H483.046L486.873 99.6345H433.806V103.334Z" fill="#265399"/>
<path d="M433.806 108.852H483.046L486.873 105.217H433.806V108.852Z" fill="#265399"/>
<path d="M433.806 114.434H483.046L486.873 110.734H433.806V114.434Z" fill="#265399"/>
<path d="M433.806 119.951H483.046L486.873 116.316H433.806V119.951Z" fill="#265399"/>
<path d="M433.806 125.533H483.046L486.873 121.833H433.806V125.533Z" fill="#265399"/>
<path d="M433.806 131.05H483.046L486.873 127.415H433.806V131.05Z" fill="#265399"/>
<path d="M371.852 103.334H421.026L424.854 99.6345H371.852V103.334Z" fill="#265399"/>
<path d="M371.852 108.852H421.026L424.854 105.217H371.852V108.852Z" fill="#265399"/>
<path d="M371.852 114.434H421.026L424.854 110.734H371.852V114.434Z" fill="#265399"/>
<path d="M371.852 119.951H421.026L424.854 116.316H371.852V119.951Z" fill="#265399"/>
<path d="M371.852 125.533H421.026L424.854 121.833H371.852V125.533Z" fill="#265399"/>
<path d="M371.852 131.05H421.026L424.854 127.415H371.852V131.05Z" fill="#265399"/>
<path d="M353.168 166.23H319.304V143.642H353.168V166.23ZM319.693 165.841H352.844V144.032H319.693V165.841Z" fill="#408BFF"/>
<path d="M353.168 197.516H319.304V174.928H353.168V197.516ZM319.693 197.127H352.844V175.318H319.693V197.127Z" fill="#408BFF"/>
<path d="M353.168 230.36H319.304V207.772H353.168V230.36ZM319.693 230.035H352.844V208.226H319.693V230.035Z" fill="#408BFF"/>
<path d="M353.168 261.646H319.304V239.058H353.168V261.646ZM319.693 261.321H352.844V239.512H319.693V261.321Z" fill="#408BFF"/>
<path d="M353.168 435.536H319.304V273.654H353.168V435.536ZM319.693 435.146H352.844V274.043H319.693V435.146Z" fill="#408BFF"/>
<path d="M313.011 459.552H464.686C466.503 459.552 467.995 461.045 467.995 462.862V503.3C467.995 505.118 466.503 506.61 464.686 506.61H313.011C311.194 506.61 309.702 505.118 309.702 503.3V462.862C309.702 461.045 311.194 459.552 313.011 459.552Z" fill="#113873"/>
<path d="M356.671 459.357C383.139 459.357 476.104 459.487 499.653 459.552C502.053 459.552 504 461.499 504 463.836V502.326C504 504.663 502.053 506.61 499.653 506.61C475.974 506.675 384.112 506.935 356.671 507C354.27 507 352.324 505.053 352.324 502.716V463.706C352.324 461.304 354.27 459.357 356.671 459.357Z" fill="#1951A6"/>
<path d="M495.955 458.708H314.243V459.487H495.955V458.708Z" fill="#0B254D"/>
<path d="M456.512 471.56H494.398C496.085 471.56 497.447 470.197 497.447 468.509C497.447 466.822 496.085 465.458 494.398 465.458H456.512C454.825 465.458 453.463 466.822 453.463 468.509C453.463 470.197 454.825 471.56 456.512 471.56Z" fill="#408BFF"/>
<path d="M118.42 451.992H174.017L174.017 24.2457H118.42L118.42 451.992Z" fill="#1B57B3"/>
<path d="M173.598 451.987H328.711L328.711 24.2403H173.598L173.598 451.987Z" fill="#4096FF"/>
<path d="M184.172 424.971H318.202L318.202 86.0192H184.172L184.172 424.971Z" fill="#265399"/>
<path d="M323.39 228.802C324.623 228.802 325.661 227.764 325.661 226.531V188.949C325.661 187.715 324.623 186.677 323.39 186.677C322.158 186.677 321.12 187.715 321.12 188.949V226.531C321.12 227.829 322.093 228.802 323.39 228.802Z" fill="#265399"/>
<path d="M173.634 145.904H178.629V119.227H173.634V145.904Z" fill="#265399"/>
<path d="M173.634 380.941H178.629V354.263H173.634V380.941Z" fill="#265399"/>
<path d="M187.376 180.367L312.777 180.367V139.15H187.376V180.367Z" fill="#408BFF"/>
<path d="M187.376 228.305L312.777 228.305V187.088H187.376V228.305Z" fill="#408BFF"/>
<path d="M187.376 276.307H312.777V235.091H187.376V276.307Z" fill="#408BFF"/>
<path d="M187.376 324.31H312.777V283.093H187.376V324.31Z" fill="#408BFF"/>
<path d="M187.376 372.313H312.777V331.096H187.376V372.313Z" fill="#408BFF"/>
<path d="M187.376 420.251H312.777V379.034H187.376V420.251Z" fill="#408BFF"/>
<path d="M187.376 132.364L312.777 132.364V91.147L187.376 91.147V132.364Z" fill="#408BFF"/>
<path d="M199.238 122.324L302.647 122.324V101.813L199.238 101.813V122.324Z" fill="#265399"/>
<path d="M224.32 116.856L298.471 116.856V107.445L224.32 107.445V116.856Z" fill="#40BEFF"/>
<path d="M219.203 114.693C220.529 114.693 221.603 113.56 221.603 112.162C221.603 110.764 220.529 109.63 219.203 109.63C217.877 109.63 216.803 110.764 216.803 112.162C216.803 113.56 217.877 114.693 219.203 114.693Z" fill="#246AD6"/>
<path d="M212.326 114.693C213.652 114.693 214.727 113.56 214.727 112.162C214.727 110.764 213.652 109.63 212.326 109.63C211 109.63 209.926 110.764 209.926 112.162C209.926 113.56 211 114.693 212.326 114.693Z" fill="#408BFF"/>
<path d="M205.45 114.693C206.775 114.693 207.85 113.56 207.85 112.162C207.85 110.764 206.775 109.63 205.45 109.63C204.124 109.63 203.049 110.764 203.049 112.162C203.049 113.56 204.124 114.693 205.45 114.693Z" fill="#408BFF"/>
<path d="M199.238 170.883H302.647V150.372H199.238V170.883Z" fill="#265399"/>
<path d="M224.321 165.351H298.472V155.939H224.321V165.351Z" fill="#40BEFF"/>
<path d="M199.238 219.377H302.647V198.866H199.238V219.377Z" fill="#265399"/>
<path d="M224.321 213.91H298.472V204.498H224.321V213.91Z" fill="#40BEFF"/>
<path d="M199.238 267.872H302.647V247.361H199.238V267.872Z" fill="#265399"/>
<path d="M224.321 262.405H298.472V252.993H224.321V262.405Z" fill="#408BFF"/>
<path d="M199.238 315.119H302.647V294.607H199.238V315.119Z" fill="#265399"/>
<path d="M224.321 309.651H298.472V300.24H224.321V309.651Z" fill="#408BFF"/>
<path d="M216.803 305.135C216.803 306.498 217.841 307.666 219.203 307.666C220.501 307.666 221.603 306.563 221.603 305.135C221.603 303.772 220.565 302.603 219.203 302.603C217.906 302.668 216.803 303.772 216.803 305.135Z" fill="#246AD6"/>
<path d="M209.926 305.135C209.926 306.498 210.964 307.666 212.326 307.666C213.624 307.666 214.727 306.563 214.727 305.135C214.727 303.772 213.688 302.603 212.326 302.603C211.029 302.668 209.926 303.772 209.926 305.135Z" fill="#408BFF"/>
<path d="M203.049 305.135C203.049 306.498 204.087 307.666 205.45 307.666C206.747 307.666 207.85 306.563 207.85 305.135C207.85 303.772 206.812 302.603 205.45 302.603C204.152 302.668 203.049 303.772 203.049 305.135Z" fill="#408BFF"/>
<path d="M199.238 363.847H302.647V343.336H199.238V363.847Z" fill="#265399"/>
<path d="M224.321 358.38H298.472V348.968H224.321V358.38Z" fill="#408BFF"/>
<path d="M199.238 411.496H302.647V390.985H199.238V411.496Z" fill="#265399"/>
<path d="M224.321 405.964H298.472V396.552H224.321V405.964Z" fill="#408BFF"/>
<path d="M216.803 401.589C216.803 402.952 217.841 404.12 219.203 404.12C220.501 404.12 221.603 403.017 221.603 401.589C221.603 400.226 220.565 399.057 219.203 399.057C217.906 399.057 216.803 400.161 216.803 401.589Z" fill="#246AD6"/>
<path d="M209.926 401.589C209.926 402.952 210.964 404.12 212.326 404.12C213.624 404.12 214.727 403.017 214.727 401.589C214.727 400.226 213.688 399.057 212.326 399.057C211.029 399.057 209.926 400.161 209.926 401.589Z" fill="#408BFF"/>
<path d="M203.049 401.589C203.049 402.952 204.087 404.12 205.45 404.12C206.747 404.12 207.85 403.017 207.85 401.589C207.85 400.226 206.812 399.057 205.45 399.057C204.152 399.057 203.049 400.161 203.049 401.589Z" fill="#408BFF"/>
<path d="M216.803 161.038C216.803 162.401 217.841 163.569 219.203 163.569C220.501 163.569 221.603 162.466 221.603 161.038C221.603 159.675 220.565 158.506 219.203 158.506C217.906 158.571 216.803 159.675 216.803 161.038Z" fill="#246AD6"/>
<path d="M209.926 161.038C209.926 162.401 210.964 163.569 212.326 163.569C213.624 163.569 214.727 162.466 214.727 161.038C214.727 159.675 213.688 158.506 212.326 158.506C211.029 158.571 209.926 159.675 209.926 161.038Z" fill="#408BFF"/>
<path d="M203.049 161.038C203.049 162.401 204.087 163.569 205.45 163.569C206.747 163.569 207.85 162.466 207.85 161.038C207.85 159.675 206.812 158.506 205.45 158.506C204.152 158.571 203.049 159.675 203.049 161.038Z" fill="#408BFF"/>
<path d="M216.803 209.07C216.803 210.433 217.841 211.602 219.203 211.602C220.501 211.602 221.603 210.498 221.603 209.07C221.603 207.707 220.565 206.539 219.203 206.539C217.906 206.539 216.803 207.707 216.803 209.07Z" fill="#246AD6"/>
<path d="M209.926 209.07C209.926 210.433 210.964 211.602 212.326 211.602C213.624 211.602 214.727 210.498 214.727 209.07C214.727 207.707 213.688 206.539 212.326 206.539C211.029 206.539 209.926 207.707 209.926 209.07Z" fill="#408BFF"/>
<path d="M203.049 209.07C203.049 210.433 204.087 211.602 205.45 211.602C206.747 211.602 207.85 210.498 207.85 209.07C207.85 207.707 206.812 206.539 205.45 206.539C204.152 206.539 203.049 207.707 203.049 209.07Z" fill="#408BFF"/>
<path d="M219.203 260.413C220.529 260.413 221.603 259.279 221.603 257.881C221.603 256.483 220.529 255.35 219.203 255.35C217.877 255.35 216.803 256.483 216.803 257.881C216.803 259.279 217.877 260.413 219.203 260.413Z" fill="#246AD6"/>
<path d="M212.326 260.413C213.652 260.413 214.727 259.279 214.727 257.881C214.727 256.483 213.652 255.35 212.326 255.35C211 255.35 209.926 256.483 209.926 257.881C209.926 259.279 211 260.413 212.326 260.413Z" fill="#408BFF"/>
<path d="M205.45 260.413C206.775 260.413 207.85 259.279 207.85 257.881C207.85 256.483 206.775 255.35 205.45 255.35C204.124 255.35 203.049 256.483 203.049 257.881C203.049 259.279 204.124 260.413 205.45 260.413Z" fill="#408BFF"/>
<path d="M216.803 353.881C216.803 355.244 217.841 356.412 219.203 356.412C220.501 356.412 221.603 355.309 221.603 353.881C221.603 352.518 220.565 351.349 219.203 351.349C217.906 351.414 216.803 352.518 216.803 353.881Z" fill="#246AD6"/>
<path d="M209.926 353.881C209.926 355.244 210.964 356.412 212.326 356.412C213.624 356.412 214.727 355.309 214.727 353.881C214.727 352.518 213.688 351.349 212.326 351.349C211.029 351.414 209.926 352.518 209.926 353.881Z" fill="#408BFF"/>
<path d="M203.049 353.881C203.049 355.244 204.087 356.412 205.45 356.412C206.747 356.412 207.85 355.309 207.85 353.881C207.85 352.518 206.812 351.349 205.45 351.349C204.152 351.414 203.049 352.518 203.049 353.881Z" fill="#408BFF"/>
<path d="M169.856 451.992H174.008L174.008 24.2457H169.856L169.856 451.992Z" fill="#2D76E6"/>
<path d="M170.223 451.958H169.574V79.5779H328.581V80.227H170.223V451.958Z" fill="#0B254D"/>
<path d="M173.634 259.323H178.629V232.645H173.634V259.323Z" fill="#265399"/>
<path d="M256.83 39.4644H313.854L318.265 35.2454H256.83V39.4644Z" fill="#265399"/>
<path d="M256.83 45.8903H313.854L318.265 41.6713H256.83V45.8903Z" fill="#265399"/>
<path d="M256.83 52.3812H313.854L318.265 48.0973H256.83V52.3812Z" fill="#265399"/>
<path d="M256.83 58.8072H313.854L318.265 54.5232H256.83V58.8072Z" fill="#265399"/>
<path d="M256.83 65.2331H313.854L318.265 60.9491H256.83V65.2331Z" fill="#265399"/>
<path d="M256.83 71.659H313.854L318.265 67.375H256.83V71.659Z" fill="#265399"/>
<path d="M185.079 39.4644H242.103L246.45 35.2454H185.079V39.4644Z" fill="#265399"/>
<path d="M185.079 45.8903H242.103L246.45 41.6713H185.079V45.8903Z" fill="#265399"/>
<path d="M185.079 52.3812H242.103L246.45 48.0973H185.079V52.3812Z" fill="#265399"/>
<path d="M185.079 58.8072H242.103L246.45 54.5232H185.079V58.8072Z" fill="#265399"/>
<path d="M185.079 65.2331H242.103L246.45 60.9491H185.079V65.2331Z" fill="#265399"/>
<path d="M185.079 71.659H242.103L246.45 67.375H185.079V71.659Z" fill="#265399"/>
<path d="M124.447 112.124H163.241V86.4199H124.447V112.124Z" fill="#2370E6"/>
<path d="M124.447 148.347H163.241V122.643H124.447V148.347Z" fill="#2370E6"/>
<path d="M124.447 186.466H163.241V160.762H124.447V186.466Z" fill="#2370E6"/>
<path d="M124.447 222.688H163.241V196.985H124.447V222.688Z" fill="#2370E6"/>
<path d="M124.447 424.036H163.241L163.241 237.035H124.447L124.447 424.036Z" fill="#2370E6"/>
<path d="M116.896 452.087H292.575C294.716 452.087 296.403 453.775 296.403 455.917V502.716C296.403 504.858 294.716 506.546 292.575 506.546H116.896C114.756 506.546 113.069 504.858 113.069 502.716V455.917C113.069 453.775 114.82 452.087 116.896 452.087Z" fill="#113873"/>
<path d="M167.498 451.828C198.184 451.893 305.81 452.023 333.122 452.023C335.911 452.023 338.182 454.229 338.182 457.02V501.548C338.182 504.274 335.976 506.546 333.122 506.546C305.68 506.611 199.351 506.87 167.498 507C164.709 507 162.438 504.793 162.438 502.002V456.826C162.438 454.035 164.709 451.828 167.498 451.828Z" fill="#1951A6"/>
<path d="M328.775 451.049H118.324V451.893H328.775V451.049Z" fill="#0B254D"/>
<path d="M283.169 465.978H327.088C329.035 465.978 330.656 464.355 330.656 462.408C330.656 460.461 329.035 458.838 327.088 458.838H283.169C281.222 458.838 279.601 460.461 279.601 462.408C279.601 464.355 281.222 465.978 283.169 465.978Z" fill="#408BFF"/>
<path d="M111.188 0H-102.118V449.231H111.188V0Z" fill="#4096FF"/>
<path d="M92.0499 64.8435H-87.9756V420.802H92.0499V64.8435Z" fill="#265399"/>
<path d="M87.7035 120.665H-80.7744V163.959H87.7035V120.665Z" fill="#408BFF"/>
<path d="M87.7035 171.034H-80.7744V214.328H87.7035V171.034Z" fill="#408BFF"/>
<path d="M87.7035 221.403H-80.7744V264.697H87.7035V221.403Z" fill="#408BFF"/>
<path d="M87.7035 271.837H-80.7744V315.131H87.7035V271.837Z" fill="#408BFF"/>
<path d="M87.7035 322.206H-80.7744V365.5H87.7035V322.206Z" fill="#408BFF"/>
<path d="M87.7035 372.639H-80.7744V415.933H87.7035V372.639Z" fill="#408BFF"/>
<path d="M87.7035 70.231H-80.7744V113.525H87.7035V70.231Z" fill="#408BFF"/>
<path d="M71.7444 81.4601H-67.1509V103.01H71.7444V81.4601Z" fill="#265399"/>
<path d="M38.0748 87.3668H-61.5068V97.2329H38.0748V87.3668Z" fill="#40BEFF"/>
<path d="M44.9513 95.6102C46.7069 95.6102 48.1301 94.1281 48.1301 92.2998C48.1301 90.4716 46.7069 88.9895 44.9513 88.9895C43.1957 88.9895 41.7725 90.4716 41.7725 92.2998C41.7725 94.1281 43.1957 95.6102 44.9513 95.6102Z" fill="#40BEFF"/>
<path d="M54.2281 95.6102C55.9837 95.6102 57.4069 94.1281 57.4069 92.2998C57.4069 90.4716 55.9837 88.9895 54.2281 88.9895C52.4725 88.9895 51.0493 90.4716 51.0493 92.2998C51.0493 94.1281 52.4725 95.6102 54.2281 95.6102Z" fill="#40BEFF"/>
<path d="M66.6193 92.2998C66.6193 94.1173 65.1921 95.6102 63.4405 95.6102C61.6889 95.6102 60.2617 94.1173 60.2617 92.2998C60.2617 90.4824 61.6889 88.9895 63.4405 88.9895C65.1921 88.9895 66.6193 90.4824 66.6193 92.2998Z" fill="#408BFF"/>
<path d="M71.7444 132.413H-67.1509V153.963H71.7444V132.413Z" fill="#265399"/>
<path d="M38.0748 138.32H-61.5068V148.186H38.0748V138.32Z" fill="#40BEFF"/>
<path d="M71.7444 183.431H-67.1509V204.981H71.7444V183.431Z" fill="#265399"/>
<path d="M38.0748 189.273H-61.5068V199.139H38.0748V189.273Z" fill="#40BEFF"/>
<path d="M71.7444 234.385H-67.1509V255.934H71.7444V234.385Z" fill="#265399"/>
<path d="M38.0748 240.226H-61.5068V250.092H38.0748V240.226Z" fill="#40BEFF"/>
<path d="M71.7444 283.974H-67.1509V305.524H71.7444V283.974Z" fill="#265399"/>
<path d="M38.0748 289.881H-61.5068V299.747H38.0748V289.881Z" fill="#40BEFF"/>
<path d="M71.7444 335.122H-67.1509V356.672H71.7444V335.122Z" fill="#265399"/>
<path d="M38.0748 341.029H-61.5068V350.895H38.0748V341.029Z" fill="#40BEFF"/>
<path d="M71.7444 385.167H-67.1509V406.716H71.7444V385.167Z" fill="#265399"/>
<path d="M38.0748 391.009H-61.5068V400.875H38.0748V391.009Z" fill="#40BEFF"/>
<path d="M45.6002 146.823C47.3558 146.823 48.779 145.341 48.779 143.513C48.779 141.684 47.3558 140.202 45.6002 140.202C43.8446 140.202 42.4214 141.684 42.4214 143.513C42.4214 145.341 43.8446 146.823 45.6002 146.823Z" fill="#246AD6"/>
<path d="M54.8121 146.823C56.5677 146.823 57.991 145.341 57.991 143.513C57.991 141.684 56.5677 140.202 54.8121 140.202C53.0565 140.202 51.6333 141.684 51.6333 143.513C51.6333 145.341 53.0565 146.823 54.8121 146.823Z" fill="#40BEFF"/>
<path d="M64.0245 146.823C65.7801 146.823 67.2034 145.341 67.2034 143.513C67.2034 141.684 65.7801 140.202 64.0245 140.202C62.2689 140.202 60.8457 141.684 60.8457 143.513C60.8457 145.341 62.2689 146.823 64.0245 146.823Z" fill="#40BEFF"/>
<path d="M44.8864 197.387C46.642 197.387 48.0652 195.905 48.0652 194.076C48.0652 192.248 46.642 190.766 44.8864 190.766C43.1307 190.766 41.7075 192.248 41.7075 194.076C41.7075 195.905 43.1307 197.387 44.8864 197.387Z" fill="#40BEFF"/>
<path d="M54.0983 197.387C55.854 197.387 57.2772 195.905 57.2772 194.076C57.2772 192.248 55.854 190.766 54.0983 190.766C52.3427 190.766 50.9194 192.248 50.9194 194.076C50.9194 195.905 52.3427 197.387 54.0983 197.387Z" fill="#40BEFF"/>
<path d="M63.3756 197.387C65.1312 197.387 66.5544 195.905 66.5544 194.076C66.5544 192.248 65.1312 190.766 63.3756 190.766C61.62 190.766 60.1968 192.248 60.1968 194.076C60.1968 195.905 61.62 197.387 63.3756 197.387Z" fill="#408BFF"/>
<path d="M44.8864 248.405C46.642 248.405 48.0652 246.923 48.0652 245.094C48.0652 243.266 46.642 241.784 44.8864 241.784C43.1307 241.784 41.7075 243.266 41.7075 245.094C41.7075 246.923 43.1307 248.405 44.8864 248.405Z" fill="#40BEFF"/>
<path d="M54.0983 248.405C55.854 248.405 57.2772 246.923 57.2772 245.094C57.2772 243.266 55.854 241.784 54.0983 241.784C52.3427 241.784 50.9194 243.266 50.9194 245.094C50.9194 246.923 52.3427 248.405 54.0983 248.405Z" fill="#40BEFF"/>
<path d="M63.3756 248.405C65.1312 248.405 66.5544 246.923 66.5544 245.094C66.5544 243.266 65.1312 241.784 63.3756 241.784C61.62 241.784 60.1968 243.266 60.1968 245.094C60.1968 246.923 61.62 248.405 63.3756 248.405Z" fill="#408BFF"/>
<path d="M44.4322 297.93C46.1879 297.93 47.6111 296.448 47.6111 294.62C47.6111 292.791 46.1879 291.309 44.4322 291.309C42.6766 291.309 41.2534 292.791 41.2534 294.62C41.2534 296.448 42.6766 297.93 44.4322 297.93Z" fill="#246AD6"/>
<path d="M53.7091 297.93C55.4647 297.93 56.8879 296.448 56.8879 294.62C56.8879 292.791 55.4647 291.309 53.7091 291.309C51.9534 291.309 50.5303 292.791 50.5303 294.62C50.5303 296.448 51.9534 297.93 53.7091 297.93Z" fill="#40BEFF"/>
<path d="M62.9215 297.93C64.6771 297.93 66.1003 296.448 66.1003 294.62C66.1003 292.791 64.6771 291.309 62.9215 291.309C61.1659 291.309 59.7427 292.791 59.7427 294.62C59.7427 296.448 61.1659 297.93 62.9215 297.93Z" fill="#40BEFF"/>
<path d="M45.0163 348.948C46.7719 348.948 48.1951 347.466 48.1951 345.638C48.1951 343.809 46.7719 342.327 45.0163 342.327C43.2606 342.327 41.8374 343.809 41.8374 345.638C41.8374 347.466 43.2606 348.948 45.0163 348.948Z" fill="#40BEFF"/>
<path d="M54.2281 348.948C55.9837 348.948 57.4069 347.466 57.4069 345.638C57.4069 343.809 55.9837 342.327 54.2281 342.327C52.4725 342.327 51.0493 343.809 51.0493 345.638C51.0493 347.466 52.4725 348.948 54.2281 348.948Z" fill="#40BEFF"/>
<path d="M63.4405 348.948C65.1961 348.948 66.6193 347.466 66.6193 345.638C66.6193 343.809 65.1961 342.327 63.4405 342.327C61.6849 342.327 60.2617 343.809 60.2617 345.638C60.2617 347.466 61.6849 348.948 63.4405 348.948Z" fill="#408BFF"/>
<path d="M45.0163 398.862C46.7719 398.862 48.1951 397.38 48.1951 395.552C48.1951 393.724 46.7719 392.242 45.0163 392.242C43.2606 392.242 41.8374 393.724 41.8374 395.552C41.8374 397.38 43.2606 398.862 45.0163 398.862Z" fill="#246AD6"/>
<path d="M54.2281 398.862C55.9837 398.862 57.4069 397.38 57.4069 395.552C57.4069 393.724 55.9837 392.242 54.2281 392.242C52.4725 392.242 51.0493 393.724 51.0493 395.552C51.0493 397.38 52.4725 398.862 54.2281 398.862Z" fill="#40BEFF"/>
<path d="M63.4405 398.862C65.1961 398.862 66.6193 397.38 66.6193 395.552C66.6193 393.724 65.1961 392.242 63.4405 392.242C61.6849 392.242 60.2617 393.724 60.2617 395.552C60.2617 397.38 61.6849 398.862 63.4405 398.862Z" fill="#40BEFF"/>
<path d="M111.253 58.093H-101.923V58.8719H111.253V58.093Z" fill="#0B254D"/>
<path d="M90.8171 11.5537H10.6328V16.0324H90.8171V11.5537Z" fill="#265399"/>
<path d="M90.8171 18.3042H10.6328V22.7829H90.8171V18.3042Z" fill="#265399"/>
<path d="M90.8171 25.0547H10.6328V29.5334H90.8171V25.0547Z" fill="#265399"/>
<path d="M90.8171 31.8052H10.6328V36.2839H90.8171V31.8052Z" fill="#265399"/>
<path d="M90.8171 38.5557H10.6328V43.0344H90.8171V38.5557Z" fill="#265399"/>
<path d="M90.8171 45.3062H10.6328V49.7848H90.8171V45.3062Z" fill="#265399"/>
<path d="M114.432 449.037C73.2365 449.102 -71.3029 449.231 -107.957 449.231C-111.719 449.231 -114.704 451.568 -114.704 454.489V501.288C-114.704 504.144 -111.719 506.481 -107.957 506.481C-71.1082 506.546 71.7444 506.87 114.432 506.935C118.194 506.935 121.243 504.598 121.243 501.678V454.229C121.178 451.373 118.194 449.037 114.432 449.037Z" fill="#1951A6"/>
<path d="M114.366 448.193H-102.248V449.231H114.366V448.193Z" fill="#0B254D"/>
</svg>
