<svg width="1531" height="697" viewBox="0 0 1531 697" fill="none" xmlns="http://www.w3.org/2000/svg">
<g clip-path="url(#clip0)">
<path d="M784.688 63.0955C785.521 62.6797 787.883 61.2104 787.55 60.6837C786.577 59.159 782.882 60.351 781.187 61.2659C779.937 61.9589 780.742 62.9569 780.742 62.9569C780.742 62.9569 782.965 63.9549 784.688 63.0955Z" fill="#F5AB74"/>
<path d="M755.181 54.4462C760.571 59.4085 776.241 62.9292 779.964 64.6479C781.298 66.339 782.715 68.6122 785.216 69.8597C785.966 70.2478 789.772 68.3904 789.8 66.6162C789.828 65.2856 786.049 58.9372 781.159 61.5708C779.187 61.6262 765.655 53.7532 761.488 50.9255C759.598 49.6503 756.653 47.9315 755.431 49.0404C753.486 50.7869 753.18 52.6165 755.181 54.4462Z" fill="#F5AB74"/>
<path d="M747.762 49.7057C747.762 49.7057 753.875 53.7531 755.903 54.6125C757.348 55.2224 758.07 53.1433 758.515 51.8958C758.96 50.6205 756.153 46.4622 752.764 43.8841C750.18 41.8881 747.512 49.1236 747.762 49.7057Z" fill="#F5AB74"/>
<path d="M729.563 36.2605C733.731 40.7238 750.291 53.0047 750.291 53.0047C750.291 53.0047 752.263 52.5334 754.903 49.5948C758.876 45.187 758.96 42.6366 758.96 42.6366C758.96 42.6366 749.902 32.2408 743.122 25.837C737.788 20.7916 730.619 20.7638 727.285 25.4212C724.562 29.2191 727.257 33.7655 729.563 36.2605Z" fill="url(#paint0_linear)"/>
<path d="M677.273 68.8063C676.356 68.6954 673.633 68.1132 673.772 67.5033C674.161 65.7291 678.051 65.5905 679.968 65.8677C681.385 66.0895 680.968 67.2815 680.968 67.2815C680.968 67.2815 679.19 69.028 677.273 68.8063Z" fill="#F5AB74"/>
<path d="M707.086 58.1055C701.918 63.2896 686.414 67.4756 682.747 69.3607C681.496 71.0795 680.163 73.4359 677.718 74.7942C676.967 75.2101 673.105 73.519 673.022 71.7448C672.939 70.4141 676.439 63.9272 681.441 66.339C683.413 66.3113 696.583 57.856 700.64 54.862C702.474 53.5036 705.335 51.674 706.614 52.6997C708.614 54.363 709.003 56.1927 707.086 58.1055Z" fill="#F5AB74"/>
<path d="M714.087 51.868C714.087 51.868 708.753 56.9135 706.919 58.1055C705.585 58.9649 704.557 57.0521 703.89 55.86C703.224 54.6957 705.28 50.0938 708.169 46.9612C710.364 44.6048 714.254 51.2581 714.087 51.868Z" fill="#F5AB74"/>
<path d="M729.675 35.4843C726.34 40.5851 712.143 55.5551 712.143 55.5551C712.143 55.5551 710.114 55.4165 707.002 52.9769C702.335 49.3453 701.834 46.8226 701.834 46.8226C701.834 46.8226 708.975 35.013 714.504 27.5558C718.894 21.6509 725.951 20.4034 730.036 24.4232C733.398 27.7221 731.536 32.6566 729.675 35.4843Z" fill="url(#paint1_linear)"/>
<path d="M763.155 149.117C763.155 149.117 762.432 148.979 760.182 148.424C757.931 147.842 757.987 149.034 757.987 149.783C757.987 150.143 757.848 152.777 757.737 155.216H761.238C762.155 152.305 763.155 149.117 763.155 149.117Z" fill="#0C1B29"/>
<path d="M754.32 157.683C754.792 157.739 756.904 157.711 759.182 157.711C759.793 157.711 760.432 157.711 761.238 155.188C761.488 154.412 758.098 154.384 758.098 154.384C755.959 154.967 753.986 155.493 753.986 155.493C752.375 156.769 753.236 157.573 754.32 157.683Z" fill="#0C1B29"/>
<path d="M702.751 155.382C702.751 155.382 711.698 153.081 712.365 152.887C713.087 152.666 714.226 152.25 714.365 154.606C714.504 156.963 714.588 157.711 714.588 157.711C714.588 157.711 704.224 157.739 703.113 157.6C702.001 157.489 701.112 156.658 702.751 155.382Z" fill="#0C1B29"/>
<path d="M714.199 67.4479C714.199 67.4479 711.254 97.3323 710.892 103.348C710.559 109.364 721.923 111.942 725.979 104.568C730.036 97.2215 735.51 86.9643 736.454 79.0912C737.399 71.2458 736.204 65.0361 731.064 59.7134C725.924 54.4462 715.005 59.4085 714.199 67.4479Z" fill="url(#paint2_linear)"/>
<path d="M711.059 102.877C710.809 110.251 711.309 110.306 711.253 119.205C711.198 128.132 710.92 153.802 710.92 153.802C710.92 153.802 711.476 154.523 712.226 154.495C713.365 154.468 713.559 153.858 713.559 153.858C713.559 153.858 714.198 147.537 715.727 143.49C717.283 139.442 724.59 113.744 725.896 108.615C727.202 103.487 726.368 99.2452 720.394 98.2472C714.449 97.2492 711.17 99.6333 711.059 102.877Z" fill="url(#paint3_linear)"/>
<path d="M727.535 69.7766C727.535 83.4158 733.037 99.7442 733.981 105.677C734.954 111.609 746.595 111.692 748.985 103.625C751.374 95.5581 754.486 84.3861 753.708 76.513C752.93 68.64 750.43 62.8183 744.261 58.7709C738.066 54.668 727.535 59.1867 727.535 69.7766Z" fill="#082947"/>
<path d="M734.314 106.647C737.537 113.273 738.01 113.079 742.15 121.007C746.289 128.908 758.348 152.111 758.348 152.111C758.348 152.111 760.126 151.474 759.737 149.394C758.82 146.955 758.015 144.709 757.487 140.385C756.959 136.088 751.374 109.974 750.096 104.817C748.846 99.661 746.123 96.3066 740.371 98.2195C734.675 100.105 732.897 103.764 734.314 106.647Z" fill="#082947"/>
<path d="M724.812 21.9282C715.449 23.342 715.81 31.7973 715.143 38.811C713.587 55.0561 712.754 76.6239 712.754 76.6239C712.754 76.6239 717.894 79.1466 732.898 78.1209C752.375 76.7903 753.986 71.135 753.986 71.135C753.986 71.135 745.401 47.0444 744.4 29.9676C744.123 25.2272 738.899 21.4292 731.119 21.3738C728.869 21.3738 727.119 21.5678 724.812 21.9282Z" fill="#0387DA"/>
<path d="M717.783 13.5007C714.421 11.5047 711.837 4.43554 716.56 0C718.116 3.27121 721.812 2.93854 724.84 2.41182C730.592 1.35838 734.648 5.93253 733.092 11.0888C732.12 14.2492 730.953 15.1917 729.369 19.655C728.897 20.9579 727.285 14.8313 723.673 13.6947C720.061 12.5304 717.783 13.5007 717.783 13.5007Z" fill="#082947"/>
<path d="M719.866 23.0925C719.561 25.9202 718.116 32.2131 724.729 31.326C732.481 30.3003 733.509 22.1222 732.981 21.2629C731.814 19.2669 728.813 20.653 726.868 20.9302C724.923 21.2351 720.117 20.7084 719.866 23.0925Z" fill="#082947"/>
<path d="M730.925 21.2628C730.536 21.2628 730.174 21.2628 729.758 21.2905C727.535 21.4014 725.812 21.7064 723.534 22.2054C722.812 22.344 722.145 22.538 721.561 22.7875C721.478 24.6172 720.089 29.7458 725.062 29.2468C730.174 28.6923 731.202 23.0093 730.925 21.2628Z" fill="url(#paint4_linear)"/>
<path d="M729.758 22.0113C729.119 16.9382 727.563 13.9996 725.34 10.1463C723.645 8.95423 721.673 11.6987 718.95 9.09284C718.033 8.23345 717.227 8.89878 717.227 9.95222C717.227 9.95222 717.338 13.2234 718.394 16.5224C719.394 19.655 720.617 21.2628 723.534 19.2669C723.506 20.7916 723.451 22.6489 723.256 24.0351C722.867 26.8073 724.701 27.6667 726.035 27.6667C727.396 27.6389 730.425 27.1677 729.758 22.0113Z" fill="url(#paint5_linear)"/>
<path d="M728.897 10.8671C729.48 11.5601 729.119 12.8353 728.063 13.6947C727.035 14.5541 725.702 14.665 725.146 13.9719C724.562 13.2789 724.924 12.0037 725.979 11.1443C727.007 10.2849 728.313 10.174 728.897 10.8671Z" fill="url(#paint6_linear)"/>
<path d="M820.03 69.1666C820.03 69.1666 815.946 98.3026 815.39 104.18C814.806 110.057 825.837 113.023 830.116 105.982C834.395 98.9402 840.118 89.1266 841.368 81.4753C842.619 73.824 841.674 67.6974 836.867 62.3193C832.005 56.9135 821.114 61.3213 820.03 69.1666Z" fill="#ED9254"/>
<path d="M856.9 154.579C856.928 154.357 856.956 154.163 856.984 153.969C857.289 152.361 858.262 152.693 858.873 152.915C858.984 152.943 859.373 153.054 859.929 153.22C860.485 153.082 860.874 152.971 860.985 152.943C861.624 152.749 862.596 152.416 862.874 154.052C862.902 154.218 862.93 154.44 862.93 154.662C863.041 156.963 863.124 157.711 863.124 157.711C863.124 157.711 861.707 157.711 859.873 157.683C858.04 157.656 856.623 157.628 856.623 157.628C856.623 157.628 856.734 156.907 856.9 154.579Z" fill="#0C1B29"/>
<path d="M829.644 77.4279C829.644 77.4279 840.785 104.679 843.258 110.029C845.703 115.379 856.734 112.441 856.9 104.207C857.039 95.974 857.067 84.6079 854.289 77.3725C851.51 70.137 847.62 65.3133 840.73 63.0678C833.839 60.7946 826.643 70.0815 829.644 77.4279Z" fill="#F5AB74"/>
<path d="M841.257 105.455C843.758 114.16 858.567 153.886 858.567 153.886C858.567 153.886 858.817 154.274 859.929 154.385C861.235 154.495 861.235 153.802 861.235 153.802C861.235 153.802 859.095 146.733 859.29 142.492C859.484 138.25 858.484 118.956 858.15 113.772C857.789 108.588 855.705 98.0532 849.843 98.9403C843.98 99.8274 840.98 104.457 841.257 105.455Z" fill="#F5AB74"/>
<path d="M801.109 150.614C801.109 150.614 810.222 152.194 810.889 152.278C811.639 152.361 812.834 152.472 812.001 154.662C811.139 156.879 810.917 157.573 810.917 157.573C810.917 157.573 801.47 153.331 800.498 152.749C799.525 152.194 799.081 151.086 801.109 150.614Z" fill="#0C1B29"/>
<path d="M815.362 102.378C814.112 109.641 814.612 109.78 813.39 118.595C812.167 127.439 808.444 152.86 808.444 152.86C808.444 152.86 808.916 153.636 809.666 153.719C810.778 153.858 811.083 153.276 811.083 153.276C811.083 153.276 812.556 147.094 814.64 143.268C816.724 139.442 827.365 114.964 829.366 110.057C831.338 105.15 831.088 100.825 825.309 99.0511C819.474 97.2492 815.918 99.1897 815.362 102.378Z" fill="#ED9254"/>
<path d="M817.696 74.323C816.863 80.4496 813.807 104.152 813.807 104.152C813.807 104.152 817.974 110.389 833.339 111.304C848.704 112.219 858.623 108.449 858.623 108.449C858.623 108.449 857.79 88.9603 856.039 77.8714C854.289 66.7826 847.148 61.5986 839.285 61.2382C831.422 60.8501 819.169 63.7332 817.696 74.323Z" fill="#082947"/>
<path d="M836.756 26.5301C836.756 26.5301 834.145 25.0885 833.95 23.0371C833.783 20.9857 834.978 20.2649 834.589 19.6273C833.895 18.3798 833.867 14.4155 834.867 12.1423C836.145 9.12059 837.59 5.40583 846.759 6.07116C852.482 6.48699 856.344 13.7502 859.179 24.3123C860.512 29.2746 866.069 29.1082 869.264 29.5518C875.155 30.4112 877.016 35.4566 876.933 39.9753C876.849 43.7732 874.377 44.1336 874.377 44.7712C874.377 46.5177 876.072 53.3651 863.985 57.5511C857.234 59.9075 848.898 60.8223 839.035 55.0007C829.171 49.179 830.227 38.506 832.728 34.3477C835.2 30.2171 836.756 26.5301 836.756 26.5301Z" fill="#082947"/>
<path d="M789.495 67.3648C789.328 68.2796 789.384 70.8855 790.023 70.941C791.829 71.1073 792.357 67.8084 792.634 65.9233C792.829 64.5094 791.551 64.5649 791.551 64.5649C791.551 64.5649 789.856 65.4797 789.495 67.3648Z" fill="#EF9456"/>
<path d="M818.308 59.3531C812.306 63.5391 796.302 64.8698 792.357 66.0618C790.912 68.0301 787.967 70.2479 785.438 70.2479C784.133 70.2479 780.826 67.9747 781.215 66.2282C781.66 64.2044 787.106 59.5749 791.607 62.8183C793.552 63.151 808.027 57.1907 812.556 54.973C814.584 53.975 817.752 52.672 818.808 53.9195C820.475 55.9433 820.53 57.8006 818.308 59.3531Z" fill="#EF9456"/>
<path d="M826.032 54.7512C826.032 54.7512 820.03 58.7155 818.058 59.5749C816.641 60.1848 815.946 58.1611 815.502 56.9136C815.057 55.6661 817.835 51.5909 821.142 49.0682C823.67 47.0999 826.282 54.1968 826.032 54.7512Z" fill="#EF9456"/>
<path d="M841.925 37.2586C837.701 48.0147 824.531 59.0481 824.531 59.0481C824.531 59.0481 821.614 58.466 819.308 55.3888C817.196 52.5612 817.196 50.6761 817.196 50.6761C817.196 50.6761 826.81 37.4249 830.45 30.5775C831.478 28.637 833.784 25.1163 837.034 26.7242C839.535 27.9439 843.397 33.4606 841.925 37.2586Z" fill="url(#paint7_linear)"/>
<path d="M831.366 31.5755C832.144 26.3083 833.45 25.6984 841.146 26.5024C843.425 26.7519 845.092 27.1954 847.231 27.5281C854.622 28.7201 858.067 33.2943 856.511 41.3337C853.705 55.7215 856.928 78.8694 856.928 78.8694C856.928 78.8694 852.594 82.1406 834.895 80.4496C820.252 79.0358 816.779 73.9072 816.779 73.9072C816.779 73.9072 818.891 62.5688 826.448 53.0879C823.281 51.5909 820.169 48.7078 820.391 46.0464C820.891 40.5575 830.033 40.6129 831.366 31.5755Z" fill="#22ABEF"/>
<path d="M898.438 67.5588C899.133 66.9212 900.633 64.8143 900.161 64.3985C898.827 63.1787 896.41 65.5074 895.048 66.8658C894.048 67.8638 895.076 68.6123 895.076 68.6123C895.076 68.6123 897.021 68.8618 898.438 67.5588Z" fill="#F5AB74"/>
<path d="M870.57 56.7472C877.905 56.9967 891.492 65.5074 895.382 66.9213C897.716 66.2005 901.411 66.1728 903.439 67.6975C904.467 68.4737 905.745 72.2716 904.412 73.4359C902.828 74.8221 895.687 75.2379 894.048 69.943C892.687 68.5291 877.516 64.6203 872.571 63.6778C870.348 63.2619 867.041 62.4025 866.93 60.7669C866.764 58.1611 867.875 56.6363 870.57 56.7472Z" fill="#F5AB74"/>
<path d="M860.54 57.6621C860.54 57.6621 866.542 61.6263 868.514 62.4857C869.931 63.0956 870.626 61.0719 871.07 59.8244C871.515 58.5769 868.737 54.5017 865.43 51.979C862.902 50.0108 860.29 57.1076 860.54 57.6621Z" fill="#F5AB74"/>
<path d="M844.675 40.1694C848.898 50.9256 862.068 61.959 862.068 61.959C862.068 61.959 864.986 61.3768 867.292 58.2997C869.403 55.472 869.403 53.5869 869.403 53.5869C869.403 53.5869 859.79 40.3357 856.15 33.4884C855.122 31.5478 852.816 28.0271 849.565 29.635C847.037 30.8548 843.175 36.3715 844.675 40.1694Z" fill="url(#paint8_linear)"/>
<path d="M843.703 26.2251C846.953 26.8072 850.843 25.7261 850.843 28.027C850.843 30.3279 847.342 38.4782 841.869 40.197C836.395 41.9158 832.617 39.2545 833.311 36.5377C833.978 33.8209 835.506 31.0487 836.34 28.9696C837.173 26.8904 836.59 24.6172 838.896 25.0053C841.202 25.3657 841.924 25.8924 843.703 26.2251Z" fill="#082947"/>
<path d="M841.146 26.5023C843.425 26.7518 845.092 27.1954 847.231 27.528C847.87 27.6389 848.454 27.7221 849.01 27.833C848.009 30.9656 844.564 40.8069 837.423 38.8109C832.005 37.2862 836.034 36.0387 838.563 26.2528C839.34 26.336 840.202 26.4191 841.146 26.5023Z" fill="#F5AB74"/>
<path d="M846.786 28.4151C847.398 24.2568 845.731 21.1242 844.842 16.855C844.869 16.7164 838.284 15.9402 837.229 12.5858C837.229 12.5858 836.117 16.5224 836.089 19.9322C836.089 23.1479 836.728 25.0053 840.063 24.035C840.424 25.9202 840.59 26.4192 840.507 26.6409C839.729 29.2745 840.702 31.9081 841.952 32.2962C843.202 32.7398 846.036 33.4328 846.786 28.4151Z" fill="#F5AB74"/>
<path d="M847.592 17.853C847.926 18.6847 847.203 19.7381 845.953 20.2371C844.73 20.7084 843.48 20.4312 843.147 19.6272C842.813 18.7956 843.536 17.7421 844.786 17.2431C846.008 16.7441 847.259 17.0214 847.592 17.853Z" fill="#F5AB74"/>
<path d="M846.009 52.2007C846.009 52.2007 845.648 54.2799 843.481 55.6383C841.313 56.9967 832.922 55.6383 826.449 53.1156C825.921 53.7809 825.393 54.474 824.92 55.167C830.227 57.8006 838.757 59.4085 842.591 58.0501C846.648 56.6363 846.009 52.2007 846.009 52.2007Z" fill="#C9C9C9"/>
<path d="M1001.3 71.523C1002.19 71.2735 1005.16 71.4399 1005.46 72.2992C1005.96 73.6022 1003.55 73.2141 1002.46 74.2675C1001.46 75.2655 998.018 73.4913 998.018 73.4913C998.018 73.4913 999.435 72.022 1001.3 71.523Z" fill="#F5AB74"/>
<path d="M979.513 55.167C986.071 58.4104 995.823 71.523 999.074 72.6319C1001.19 73.3527 1005.49 73.4636 1006.58 75.7645C1008.94 80.8376 1004.35 81.0871 1001.27 80.1169C1000.24 79.7842 997.573 78.7308 997.296 75.4318C996.156 73.824 982.57 65.2024 978.458 62.3193C976.596 61.0163 973.957 58.8817 974.54 57.357C975.457 54.8897 977.068 53.9472 979.513 55.167Z" fill="#F5AB74"/>
<path d="M968.816 52.7274C968.816 52.7274 973.679 58.2164 975.401 59.5748C976.652 60.5451 977.874 58.7154 978.624 57.6065C979.402 56.4977 977.763 51.7295 975.151 48.3751C973.179 45.7969 968.705 52.0898 968.816 52.7274Z" fill="#F5AB74"/>
<path d="M954.757 35.013C957.619 40.3911 970.4 56.5808 970.4 56.5808C970.4 56.5808 972.428 56.6363 975.735 54.4739C980.736 51.2582 981.486 48.7909 981.486 48.7909C981.486 48.7909 975.457 36.3991 970.595 28.4706C966.76 22.2054 959.842 20.3203 955.396 23.9519C951.757 26.9181 953.174 31.9913 954.757 35.013Z" fill="url(#paint9_linear)"/>
<path d="M900.188 67.1984C899.271 67.1153 896.576 66.8103 896.826 65.8955C897.299 64.149 900.772 64.3985 902.717 64.648C904.134 64.8143 903.745 66.0341 903.745 66.0341C903.745 66.0341 902.105 67.3648 900.188 67.1984Z" fill="#ED9254"/>
<path d="M928.279 55.0838C923.277 60.4342 909.218 66.0063 905.634 68.0301C904.44 69.8043 904.384 72.7428 901.995 74.1844C901.272 74.6279 894.409 74.0458 894.882 72.1607C895.215 70.8854 899.133 62.8183 904.217 65.0361C906.19 64.9529 917.776 55.167 921.722 52.0344C923.5 50.6206 926.306 48.7077 927.612 49.678C929.696 51.2859 930.14 53.0878 928.279 55.0838Z" fill="#ED9254"/>
<path d="M936.309 49.7612C936.309 49.7612 930.168 53.7809 928.14 54.6126C926.695 55.2225 926.001 53.1433 925.556 51.8681C925.111 50.5929 927.973 46.4345 931.363 43.8841C933.975 41.9436 936.587 49.179 936.309 49.7612Z" fill="#ED9254"/>
<path d="M954.591 36.4269C950.395 40.8624 933.78 53.0601 933.78 53.0601C933.78 53.0601 931.835 52.5611 929.196 49.6226C925.25 45.187 925.167 42.6366 925.167 42.6366C925.167 42.6366 934.28 32.2963 941.088 25.9479C946.45 20.9302 953.618 20.9302 956.953 25.6152C959.648 29.4132 956.925 33.9319 954.591 36.4269Z" fill="url(#paint10_linear)"/>
<path d="M989.738 151.085C989.738 151.085 980.569 152.25 979.903 152.277C979.152 152.333 977.93 152.361 978.68 154.606C979.43 156.852 979.625 157.572 979.625 157.572C979.625 157.572 989.266 153.774 990.266 153.248C991.239 152.749 991.739 151.64 989.738 151.085Z" fill="#0C1B29"/>
<path d="M969.066 67.2538C969.066 67.2538 975.457 96.6115 976.513 102.544C977.541 108.477 966.566 112.33 961.676 105.51C956.786 98.663 950.173 89.0989 948.339 81.4198C946.505 73.7131 946.95 67.4202 951.451 61.5431C955.924 55.6937 967.344 59.353 969.066 67.2538Z" fill="url(#paint11_linear)"/>
<path d="M976.318 102.073C977.43 109.364 976.93 109.475 978.013 118.318C979.097 127.161 982.348 152.666 982.348 152.666C982.348 152.666 981.875 153.442 981.125 153.497C980.014 153.608 979.736 153.026 979.736 153.026C979.736 153.026 978.374 146.816 976.374 142.963C974.374 139.11 964.121 114.437 962.232 109.475C960.342 104.512 960.676 100.215 966.483 98.5521C972.29 96.861 975.818 98.8847 976.318 102.073Z" fill="url(#paint12_linear)"/>
<path d="M940.393 154.357C942.504 153.303 944.421 153.109 945.06 152.887C945.783 152.666 946.922 152.25 947.061 154.606C947.2 156.963 947.283 157.711 947.283 157.711C947.283 157.711 941.004 157.711 939.781 157.711C938.698 157.711 939.031 155.05 940.393 154.357Z" fill="#0C1B29"/>
<path d="M950.423 102.821C949.7 110.667 949.7 110.667 948.95 119.565C948.2 128.464 946.227 154.079 946.227 154.079C946.227 154.079 945.616 154.745 944.866 154.662C943.755 154.523 943.588 153.913 943.588 153.913C943.588 153.913 943.505 147.565 942.338 143.379C941.143 139.193 935.086 102.433 934.225 97.1937C933.391 91.9542 935.669 98.358 941.699 97.8868C947.728 97.3878 950.729 99.6055 950.423 102.821Z" fill="#082947"/>
<path d="M955.98 62.7351C955.98 62.7351 951.367 97.5818 950.312 103.514C949.256 109.447 937.614 109.336 935.336 101.241C933.057 93.1463 930.112 81.9188 931.001 74.0458C931.89 66.1727 932.807 61.5708 939.059 57.6065C945.283 53.6423 957.23 55.3888 955.98 62.7351Z" fill="#082947"/>
<path d="M960.009 21.9282C969.372 23.342 969.011 31.7973 969.678 38.811C971.206 55.0561 972.067 76.6239 972.067 76.6239C972.067 76.6239 966.927 79.1466 951.924 78.1209C932.447 76.7903 930.085 71.0795 930.085 71.0795C930.085 71.0795 939.421 47.0445 940.449 29.9676C940.726 25.2272 945.95 21.4292 953.73 21.3738C955.952 21.3738 957.675 21.5678 960.009 21.9282Z" fill="#0387DA"/>
<path d="M965.093 13.9997C968.538 12.1423 971.456 4.0197 967.705 1.44154C963.065 -1.7465 961.398 3.54842 958.369 2.93853C951.784 1.60787 949.451 5.68302 949.534 11.0334C949.589 14.5264 951.618 17.1323 954.452 18.7124C955.674 19.3777 955.508 14.9422 959.175 13.9442C962.87 12.9462 965.093 13.9997 965.093 13.9997Z" fill="#082947"/>
<path d="M962.065 21.9005C962.704 24.6727 964.926 30.7161 958.258 30.6607C950.423 30.6052 948.422 22.6213 948.811 21.6787C949.701 19.5718 952.868 20.5698 954.841 20.5975C956.813 20.6807 961.509 19.5718 962.065 21.9005Z" fill="#082947"/>
<path d="M950.868 21.4569C951.257 21.4014 951.618 21.3737 952.034 21.346C954.229 21.1796 956.008 21.2905 958.314 21.4846C959.036 21.54 959.731 21.6509 960.342 21.8173C960.675 23.6192 962.676 28.5537 957.675 28.6369C952.507 28.7201 950.812 23.2034 950.868 21.4569Z" fill="url(#paint13_linear)"/>
<path d="M952.09 22.1499C952.284 18.7956 955.313 14.2214 957.675 10.4512C957.702 10.3126 963.704 12.5304 965.899 9.67499C965.899 9.67499 965.565 13.8333 964.343 17.1045C963.204 20.1817 961.926 21.7341 959.092 19.6272C958.842 20.9024 958.619 22.3994 958.675 22.7598C958.925 25.5598 957.786 27.1122 956.48 27.2785C955.146 27.4449 951.784 27.334 952.09 22.1499Z" fill="url(#paint14_linear)"/>
<path d="M954.118 10.8947C953.507 11.5601 953.812 12.8353 954.813 13.7501C955.813 14.6372 957.119 14.8313 957.73 14.1659C958.341 13.5006 958.036 12.2254 957.036 11.3106C956.035 10.4234 954.729 10.2294 954.118 10.8947Z" fill="url(#paint15_linear)"/>
<path d="M636.652 9.86906C635.569 6.95824 641.598 1.19204 646.293 6.32063C651.156 11.6433 648.322 20.348 653.434 24.6727C658.574 28.9973 662.242 29.4409 662.992 38.9218C664.159 53.3373 643.265 57.2184 636.541 46.4345C629.817 35.5952 640.875 21.3737 636.652 9.86906Z" fill="#082947"/>
<path d="M633.929 10.0909C633.929 10.0909 636.624 9.17602 637.18 9.03741C637.736 8.87108 639.542 10.3404 640.042 12.9462C640.542 15.5521 639.875 17.7144 639.097 18.0194C638.291 18.3243 635.93 18.9619 635.93 18.9619C635.93 18.9619 633.151 18.1857 632.679 15.2472C632.179 12.2809 633.929 10.0909 633.929 10.0909Z" fill="#0387DA"/>
<path d="M619.009 22.5935C617.231 18.9896 615.286 6.95823 624.149 6.09884C631.984 5.35035 636.624 8.64928 636.708 17.1322C636.819 27.2231 621.787 28.2488 619.009 22.5935Z" fill="#082947"/>
<path d="M583.889 81.7525C583.056 82.0851 580.916 83.3604 581.083 83.9425C581.277 84.5801 581.75 84.4693 582.611 84.1366C583.472 83.7762 586.751 81.7247 586.751 81.7247C586.751 81.7247 584.834 81.3921 583.889 81.7525Z" fill="#F5AB74"/>
<path d="M604.811 70.3032C602.338 72.8537 591.53 81.2812 589.335 83.8594C587.862 85.5781 588.363 88.5167 586.056 89.8473C584.084 90.9839 581.416 88.7662 580.694 87.9622C579.86 87.0474 581.416 86.0217 582.417 84.8019C583.472 83.499 581.972 81.004 586.751 81.7525C589.446 79.701 592.058 77.7605 594.614 73.8517C597.17 69.9428 600.504 65.9509 602.255 63.2895C603.477 61.4321 605.895 59.6302 608.729 62.4579C610.924 64.6202 606.645 68.3904 604.811 70.3032Z" fill="#F5AB74"/>
<path d="M614.258 59.1036C614.258 59.1036 609.229 64.2044 607.45 65.4519C606.172 66.339 605.089 64.4816 604.394 63.3728C603.7 62.2362 605.561 57.6897 608.284 54.5294C610.368 52.1176 614.369 58.4937 614.258 59.1036Z" fill="#F5AB74"/>
<path d="M624.899 44.4663C622.621 53.5314 613.674 63.5945 613.674 63.5945C613.674 63.5945 610.701 63.65 607.812 61.0718C605.172 58.7432 604.755 56.8858 604.755 56.8858C604.755 56.8858 610.062 46.1019 612.174 38.6446C612.785 36.5377 616.48 27.4449 621.926 30.0508C627.372 32.7398 625.872 40.502 624.899 44.4663Z" fill="url(#paint16_linear)"/>
<path d="M617.064 155.438C617.064 155.438 625.816 153.192 626.455 152.971C627.15 152.749 628.289 152.333 628.4 154.662C628.539 156.963 628.622 157.683 628.622 157.683C628.622 157.683 618.481 157.711 617.37 157.6C616.314 157.517 615.453 156.685 617.064 155.438Z" fill="#0C1B29"/>
<path d="M616.758 74.9328C616.758 74.9328 619.064 100.576 619.87 106.425C620.704 112.275 632.095 112.552 634.596 104.706C637.097 96.861 640.347 85.9662 639.736 78.2318C639.125 70.4973 636.791 64.7588 630.817 60.6559C624.871 56.5808 616.203 69.527 616.758 74.9328Z" fill="url(#paint17_linear)"/>
<path d="M619.676 105.788C620.509 114.797 620.398 115.269 621.037 120.813C622.01 129.49 624.955 153.747 624.955 153.747C624.955 153.747 625.094 154.329 626.344 154.606C627.039 154.773 627.567 154.218 627.567 154.218C627.567 154.218 627.4 148.008 628.4 143.878C629.4 139.747 632.068 120.619 632.707 115.463C633.346 110.306 633.262 99.5778 627.344 99.3283C621.426 99.0788 619.37 102.239 619.676 105.788Z" fill="url(#paint18_linear)"/>
<path d="M649.6 154.551C649.6 154.329 649.628 154.135 649.655 153.941C649.933 152.305 650.906 152.638 651.545 152.86C651.656 152.887 652.045 152.998 652.6 153.137C653.156 152.971 653.545 152.86 653.656 152.832C654.295 152.61 655.24 152.278 655.546 153.885C655.573 154.052 655.601 154.274 655.629 154.495C655.796 156.796 655.879 157.517 655.879 157.517C655.879 157.517 654.462 157.545 652.628 157.545C650.794 157.545 649.377 157.545 649.377 157.545C649.377 157.545 649.489 156.879 649.6 154.551Z" fill="#0C1B29"/>
<path d="M629.734 75.6813C629.734 75.6813 638.514 103.764 640.486 109.336C642.487 114.88 653.712 112.884 654.573 104.706C655.435 96.5284 656.49 84.2475 652.378 72.6319C649.794 65.341 648.655 65.1747 641.987 62.347C635.319 59.4916 627.344 68.1132 629.734 75.6813Z" fill="#082947"/>
<path d="M638.903 104.595C640.653 113.494 651.489 153.858 651.489 153.858C651.489 153.858 651.712 154.218 652.768 153.913C653.796 153.636 653.962 153.248 653.962 153.248C653.962 153.248 653.157 147.204 653.712 142.991C654.268 138.777 654.935 119.482 655.018 114.271C655.101 109.086 653.907 98.4135 648.016 98.8016C642.07 99.2174 638.709 103.57 638.903 104.595Z" fill="#082947"/>
<path d="M616.425 35.9556C615.619 30.7161 616.675 29.7181 624.26 28.2211C626.511 27.7776 628.234 27.7221 630.373 27.4172C637.791 26.3637 639.459 27.1954 642.598 34.7635C650.517 53.8086 654.157 75.6259 654.157 75.6259C654.157 75.6259 653.545 78.1763 634.457 80.3387C619.843 82.002 616.62 78.2318 616.62 78.2318C616.62 78.2318 618.565 68.2795 618.148 57.9669C614.675 57.4679 610.84 55.6383 610.257 53.0324C609.062 47.6543 617.814 44.9653 616.425 35.9556Z" fill="url(#paint19_linear)"/>
<path d="M616.425 35.9556C615.619 30.7161 616.675 29.7181 624.26 28.2211C626.511 27.7776 628.233 27.7221 630.373 27.4172C637.791 26.3637 639.458 27.1954 642.598 34.7635C650.517 53.8086 654.156 75.6259 654.156 75.6259C654.156 75.6259 653.545 78.1763 634.457 80.3387C619.842 82.002 615.452 77.7605 615.452 77.7605C615.452 77.7605 618.425 66.8657 618.175 57.9669C614.702 57.4679 610.868 55.6383 610.284 53.0324C609.062 47.6543 617.814 44.9653 616.425 35.9556Z" fill="#22ABEF"/>
<path d="M673.272 70.9964C673.522 71.8557 674.661 74.0735 675.244 73.9626C675.884 73.824 675.828 73.3527 675.55 72.4656C675.272 71.5785 673.466 68.141 673.466 68.141C673.466 68.141 672.966 69.9984 673.272 70.9964Z" fill="#F5AB74"/>
<path d="M663.464 49.2899C665.826 51.9512 673.383 63.3727 675.801 65.7568C677.412 67.337 681.802 67.3924 682.58 70.8023C682.858 72.022 680.274 73.5745 679.718 73.9349C676.551 76.014 676.606 73.9903 676.023 73.1309C675.078 71.7448 672.383 72.826 673.494 68.1409C671.661 65.2856 669.91 62.5411 666.215 59.6857C662.52 56.8303 657.768 52.3671 655.24 50.4265C653.462 49.0681 654.879 44.0782 657.213 45.1316C660.436 46.6009 661.714 47.2939 663.464 49.2899Z" fill="#F5AB74"/>
<path d="M653.601 40.3911C653.601 40.3911 658.352 45.7692 659.463 47.6266C660.269 48.9572 658.324 49.8998 657.157 50.5097C655.99 51.1195 651.545 48.9295 648.599 45.9909C646.321 43.7732 652.989 40.2247 653.601 40.3911Z" fill="#F5AB74"/>
<path d="M641.098 28.2488C652.434 31.6864 658.602 39.0327 658.602 39.0327C658.602 39.0327 657.907 44.2999 655.129 46.9889C652.601 49.4562 650.711 49.7057 650.711 49.7057C650.711 49.7057 639.486 42.6089 632.207 39.9475C630.151 39.199 625.427 35.3734 628.178 30.3557C631.012 25.1439 637.18 27.0568 641.098 28.2488Z" fill="url(#paint20_linear)"/>
<path d="M626.455 26.7241C628.872 26.0865 632.512 25.0885 633.345 25.7816C634.179 26.4746 634.874 28.2489 633.984 33.5438C633.068 38.811 630.734 43.7455 623.954 43.7455C617.175 43.7455 618.703 39.1991 619.509 36.2883C620.287 33.3497 619.509 28.4152 621.454 27.8608C623.371 27.2509 624.121 27.334 626.455 26.7241Z" fill="#082947"/>
<path d="M624.232 28.2212C626.483 27.7776 628.206 27.7222 630.345 27.4172C630.984 27.334 631.595 27.2509 632.151 27.1954C632.151 30.4944 633.096 41.1674 624.594 41.805C617.814 42.304 622.232 38.8942 621.704 28.8033C622.454 28.5815 623.288 28.4152 624.232 28.2212Z" fill="#F5AB74"/>
<path d="M630.429 28.0548C629.845 23.0648 628.4 22.5658 627.178 18.3798C627.178 18.2412 620.565 17.9917 619.259 14.7205C619.259 14.7205 618.453 18.7124 618.703 22.1223C618.953 25.338 619.731 27.14 622.982 25.9202C623.732 28.5538 623.788 28.6924 623.594 30.0231C623.177 32.7398 625.427 33.4883 626.733 33.5161C628.039 33.5438 631.012 33.1002 630.429 28.0548Z" fill="#F5AB74"/>
<path d="M629.984 19.156C630.373 19.9599 629.734 21.0688 628.539 21.651C627.344 22.2331 626.066 22.0391 625.677 21.2629C625.288 20.4589 625.927 19.35 627.122 18.7679C628.317 18.1857 629.595 18.352 629.984 19.156Z" fill="#F5AB74"/>
<path d="M638.041 53.5036C638.208 53.3096 638.263 53.1987 638.263 53.1987C638.263 53.1987 638.18 53.3096 638.041 53.5036ZM633.679 56.1095C629.789 57.5788 623.176 58.0223 618.147 57.9669C618.175 58.7708 618.175 59.6025 618.147 60.4341C619.314 60.3787 621.648 60.2401 626.316 59.8243C633.401 59.2144 637.152 54.6957 638.041 53.4759C637.624 54.0026 636.485 55.0561 633.679 56.1095Z" fill="#C9C9C9"/>
<path d="M490.033 42.0545C489.478 40.9178 488.783 39.8367 488.061 39.9753C486.922 40.2248 488.005 41.7495 487.811 43.9118C487.672 45.3257 491.645 46.1851 491.645 46.1851C491.645 46.1851 490.867 43.8009 490.033 42.0545Z" fill="#F5AB74"/>
<path d="M507.676 67.2539C504.954 60.4897 494.34 51.4523 491.811 46.4623C490.7 44.2722 486.643 41.3337 483.143 42.2762C481.559 42.6921 482.531 47.5712 483.893 48.6801C484.726 49.3454 487.644 48.6246 488.894 48.0147C490.422 49.2622 497.924 63.4282 500.48 67.7529C501.619 69.6934 503.564 72.4933 505.12 72.0498C507.621 71.3013 508.677 69.7766 507.676 67.2539Z" fill="#F5AB74"/>
<path d="M514.011 65.535C514.011 65.535 508.454 70.3033 506.537 71.4121C505.176 72.2161 504.203 70.2478 503.62 69.028C503.008 67.836 505.287 63.345 508.315 60.3787C510.649 58.1055 514.178 64.9252 514.011 65.535Z" fill="#F5AB74"/>
<path d="M530.348 49.9552C522.208 61.1272 511.9 69.0835 511.9 69.0835C511.9 69.0835 509.899 68.8617 506.898 66.2836C502.397 62.4302 501.98 59.9075 501.98 59.9075C501.98 59.9075 510.899 47.7652 517.762 36.7872C521.652 30.5775 527.32 34.7635 531.238 38.9496C534.433 42.3871 532.349 47.2107 530.348 49.9552Z" fill="url(#paint21_linear)"/>
<path d="M484.393 47.8761C484.421 48.0147 484.56 48.0979 484.699 48.0702L486.56 47.4603C486.699 47.4048 486.838 47.2385 486.838 47.0999L487.588 37.8684C487.588 37.7298 487.505 37.6189 487.338 37.6744L483.42 38.9219C483.281 38.9773 483.17 39.1436 483.198 39.2823L484.393 47.8761Z" fill="#0898C4"/>
<path d="M487.366 37.6744L486.255 38.0348C486.393 37.9793 486.505 38.0625 486.505 38.2288L485.754 47.4603C485.754 47.5989 485.615 47.7652 485.477 47.8207L486.588 47.4603C486.727 47.4048 486.866 47.2385 486.866 47.0999L487.616 37.8684C487.616 37.7298 487.505 37.6189 487.366 37.6744Z" fill="url(#paint22_linear)"/>
<path d="M491.478 36.1219C491.589 36.4823 491.394 36.8704 491.033 36.9813L489.283 37.5358C488.921 37.6466 488.532 37.4526 488.421 37.0922L487.004 32.7121C486.893 32.3517 487.088 31.9636 487.449 31.8527L489.199 31.2983C489.561 31.1874 489.95 31.3814 490.061 31.7418L491.478 36.1219Z" fill="#03B2F7"/>
<path d="M470.75 43.302L475.168 43.7178L472.334 35.0408L469 37.9516L470.75 43.302Z" fill="#082947"/>
<path d="M486.782 37.7575C486.893 38.1179 486.726 38.5615 486.421 38.7555L475.613 46.1851C475.307 46.3791 474.946 46.2682 474.835 45.9078L470.778 33.4883C470.667 33.128 470.861 32.823 471.25 32.7953L484.393 32.5458C484.754 32.5181 485.17 32.7953 485.282 33.1557L486.782 37.7575Z" fill="#03B2F7"/>
<path d="M489.7 37.9516C489.755 38.1179 489.672 38.312 489.477 38.3674L486.588 39.2822C486.421 39.3377 486.226 39.2545 486.171 39.0605L484.004 32.3794C483.948 32.2131 484.032 32.0191 484.226 31.9636L487.116 31.0488C487.282 30.9933 487.477 31.1042 487.532 31.2706L489.7 37.9516Z" fill="#082947"/>
<path d="M473.529 41.999L470.195 41.6941L470.723 43.3019L474.057 43.6069L473.529 41.999ZM490.533 35.3457L489.005 35.8447L489.172 36.3437C489.227 36.51 489.144 36.7041 488.949 36.7595L486.06 37.7021C485.893 37.7575 485.699 37.6744 485.643 37.4803L485.587 37.3417L475.057 44.5772C474.751 44.7712 474.39 44.6603 474.279 44.2999L474.807 45.9078C474.918 46.2682 475.279 46.3791 475.585 46.185L486.115 38.9496L486.171 39.0882C486.227 39.2545 486.421 39.3654 486.588 39.31L489.477 38.3951C489.644 38.3397 489.755 38.1456 489.7 37.9793L489.533 37.4803L491.061 36.9813C491.422 36.8704 491.617 36.4823 491.506 36.1219L490.978 34.514C491.089 34.8467 490.894 35.2348 490.533 35.3457Z" fill="url(#paint23_linear)"/>
<path d="M483.003 42.3594C483.809 41.6941 485.81 41.4723 485.976 43.496C486.143 45.492 486.643 48.2365 485.643 48.7078C484.615 49.179 483.587 48.8741 483.059 47.5989C482.531 46.2959 481.781 43.3851 483.003 42.3594Z" fill="#F5AB74"/>
<path d="M589.641 149.062C589.641 149.062 588.918 149.006 586.612 148.674C584.306 148.341 584.473 149.505 584.556 150.254C584.584 150.614 584.723 153.248 584.862 155.687L588.335 155.327C589.002 152.333 589.641 149.062 589.641 149.062Z" fill="#0C1B29"/>
<path d="M581.389 157.711C581.861 157.767 583.973 157.767 586.251 157.767C586.862 157.767 587.585 157.822 588.39 155.299C588.64 154.523 585.195 154.44 585.195 154.44C583.056 154.994 581.083 155.521 581.083 155.521C579.416 156.769 580.277 157.572 581.389 157.711Z" fill="#0C1B29"/>
<path d="M500.424 159.153C500.424 159.153 509.538 160.622 510.232 160.677C510.982 160.761 512.205 160.844 511.371 163.061C510.538 165.279 510.343 166 510.343 166C510.343 166 500.813 161.897 499.841 161.315C498.868 160.761 498.396 159.652 500.424 159.153Z" fill="#0C1B29"/>
<path d="M521.374 75.9586C521.374 75.9586 514.872 105.289 513.816 111.221C512.76 117.154 523.735 121.062 528.653 114.215C533.571 107.395 540.212 97.859 542.073 90.18C543.935 82.501 543.49 76.1804 539.017 70.3033C534.543 64.4262 523.124 68.0301 521.374 75.9586Z" fill="url(#paint24_linear)"/>
<path d="M514.011 110.722C512.872 118.013 513.372 118.124 512.26 126.967C511.149 135.811 507.787 161.287 507.787 161.287C507.787 161.287 508.259 162.063 509.01 162.119C510.121 162.23 510.399 161.648 510.399 161.648C510.399 161.648 511.788 155.438 513.789 151.612C515.817 147.759 526.125 123.142 528.042 118.179C529.959 113.245 529.626 108.92 523.819 107.229C518.04 105.538 514.511 107.534 514.011 110.722Z" fill="url(#paint25_linear)"/>
<path d="M532.293 78.3704C532.293 78.3704 541.712 106.896 543.852 112.552C545.963 118.179 557.41 115.962 558.133 107.59C558.883 99.2175 559.689 87.6296 557.383 80.0615C555.049 72.4933 551.437 67.3093 544.602 64.5371C537.711 61.7372 529.737 70.6914 532.293 78.3704Z" fill="url(#paint26_linear)"/>
<path d="M544.991 114.409C550.159 119.704 550.548 119.371 556.966 125.553C563.384 131.763 585.084 152.139 585.084 152.139C585.084 152.139 585.557 152.084 585.89 150.975C586.196 149.893 585.918 149.311 585.918 149.311C585.918 149.311 583.028 146.511 580.944 143.822C578.305 140.385 562.245 112.164 559.411 107.645C556.605 103.154 552.937 100.825 548.103 104.429C543.268 108.089 542.741 112.108 544.991 114.409Z" fill="url(#paint27_linear)"/>
<path d="M523.958 32.7121C514.789 35.0962 516.012 43.4682 516.095 50.5097C516.262 66.8103 517.651 88.3503 517.651 88.3503C517.651 88.3503 523.013 90.3186 537.823 87.7404C557.05 84.3861 558.05 78.5921 558.05 78.5921C558.05 78.5921 546.992 55.5274 544.213 38.6723C543.435 33.9873 537.85 30.7438 530.126 31.4923C527.931 31.7418 526.236 32.1299 523.958 32.7121Z" fill="#0387DA"/>
<path d="M579.86 84.2475C579.721 85.1624 579.499 88.1286 580.222 88.1286C581.361 88.1286 581.333 86.9366 582.806 85.301C583.75 84.2475 581.444 80.81 581.444 80.81C581.444 80.81 580.166 82.3347 579.86 84.2475Z" fill="#F5AB74"/>
<path d="M560.356 62.7906C564.356 68.9172 579.249 78.8417 580.722 81.9466C581.694 83.9703 582.055 88.4059 584.25 89.7365C586.973 91.3998 589.39 85.8554 588.946 84.4416C588.64 83.4159 586.612 79.7843 583.278 79.8674C581.527 78.9249 570.691 64.6757 567.329 60.9332C565.829 59.2422 563.384 56.8581 561.939 57.6066C559.605 58.7986 558.855 60.5174 560.356 62.7906Z" fill="#F5AB74"/>
<path d="M558.577 51.6462C558.577 51.6462 563.301 57.2461 564.384 59.1589C565.162 60.5173 563.162 61.4599 561.967 62.042C560.745 62.6242 556.271 60.2955 553.326 57.2461C551.075 54.9174 557.966 51.4522 558.577 51.6462Z" fill="#F5AB74"/>
<path d="M543.129 35.1239C548.019 38.7555 562.134 53.7809 562.134 53.7809C562.134 53.7809 561.884 55.7769 559.244 58.7431C555.299 63.1787 552.771 63.5668 552.771 63.5668C552.771 63.5668 541.379 55.7491 534.266 49.7889C528.626 45.0484 527.792 37.9516 532.071 34.1259C535.572 30.9656 540.379 33.1002 543.129 35.1239Z" fill="url(#paint28_linear)"/>
<path d="M517.512 24.9222C513.955 23.2866 510.538 15.3581 514.122 12.5581C518.568 9.09286 520.54 14.2769 523.513 13.473C530.015 11.7265 532.877 15.4412 533.432 20.7361C533.766 24.0351 532.071 27.6944 529.654 29.829C528.598 30.7438 527.098 25.2549 523.347 24.5064C519.651 23.7301 517.512 24.9222 517.512 24.9222Z" fill="#082947"/>
<path d="M520.568 34.2646C520.568 37.0922 519.79 43.496 526.264 41.9436C533.877 40.1139 534.016 31.8805 533.433 31.0765C532.071 29.2191 529.237 30.9102 527.32 31.3815C525.403 31.8804 520.568 31.8527 520.568 34.2646Z" fill="#082947"/>
<path d="M531.376 31.2983C530.987 31.326 530.626 31.3814 530.209 31.4369C528.014 31.7696 526.347 32.2686 524.124 32.9893C523.43 33.2111 522.791 33.4883 522.207 33.7655C522.291 35.5952 521.457 40.8347 526.375 39.809C531.404 38.7555 531.821 32.9893 531.376 31.2983Z" fill="url(#paint29_linear)"/>
<path d="M530.293 32.13C529.126 27.14 527.264 24.3955 524.68 20.7639C524.652 20.6253 518.79 23.2034 516.428 20.5144C516.428 20.5144 517.012 24.645 518.429 27.833C519.762 30.8548 521.124 32.324 523.847 30.0231C523.986 31.5478 524.125 33.4052 524.069 34.7913C523.958 37.5912 525.903 38.2566 527.209 38.1179C528.515 37.9793 531.487 37.2031 530.293 32.13Z" fill="url(#paint30_linear)"/>
<path d="M528.237 21.152C528.876 21.7896 528.653 23.0926 527.709 24.0351C526.764 25.0054 525.486 25.2549 524.819 24.6173C524.18 23.9797 524.402 22.6767 525.347 21.7342C526.319 20.7639 527.598 20.5144 528.237 21.152Z" fill="url(#paint31_linear)"/>
<path d="M523.985 42.2762L525.347 44.9098L527.542 44.6881L528.764 40.807C528.764 40.807 525.097 40.0585 523.985 42.2762Z" fill="#082947"/>
<path d="M525.347 44.9098L525.986 74.6556L532.488 85.9108L535.655 73.6577L527.542 44.6881C527.542 44.6603 526.57 43.3851 525.347 44.9098Z" fill="#082947"/>
</g>
<g clip-path="url(#clip1)">
<path d="M156.367 159.288C158.271 151.236 150.178 139.848 136.847 132.591C123.517 125.334 109.552 124.698 103.839 130.737L104.05 129.678L102.411 132.75C98.0201 140.801 106.378 153.779 121.031 161.777C135.683 169.776 151.13 169.723 155.467 161.671L157.107 158.599L156.367 159.288Z" fill="#E0B13B"/>
<path d="M156.963 158.799C161.333 150.756 152.996 137.766 138.343 129.784C123.689 121.803 108.269 121.853 103.9 129.896C99.5306 137.94 107.867 150.93 122.521 158.911C137.174 166.893 152.594 166.843 156.963 158.799Z" fill="#FFD541"/>
<path d="M136.794 152.243C134.837 152.773 132.192 152.349 129.071 150.919L126.744 155.58L123.887 153.991L126.479 149.488C124.575 148.323 122.935 146.999 121.56 145.569C120.237 144.138 119.391 142.867 119.021 141.649L122.194 140.378C122.565 141.384 123.305 142.443 124.31 143.609C125.368 144.774 126.638 145.781 128.119 146.681L131.61 140.642C130.288 139.583 129.23 138.683 128.489 137.888C127.749 137.093 127.22 136.299 127.008 135.504C126.797 134.71 126.955 134.021 127.537 133.386C128.225 132.644 129.283 132.273 130.711 132.326C132.086 132.379 133.673 132.856 135.578 133.809L136.424 132.379L137.905 133.174L137.165 134.657C138.117 135.187 138.963 135.769 139.809 136.405C140.656 137.04 141.343 137.729 141.925 138.365L140.656 139.265C139.439 137.888 138.064 136.776 136.53 135.875L134.467 140.007C135.789 141.066 136.9 141.967 137.746 142.814C138.593 143.662 139.28 144.562 139.809 145.569C140.338 146.628 140.444 147.74 140.127 149.012C139.757 150.601 138.646 151.713 136.794 152.243ZM130.446 136.352C130.87 136.988 131.663 137.729 132.774 138.577L134.89 134.922C133.726 134.392 132.774 134.127 132.033 134.127C131.24 134.127 130.711 134.286 130.394 134.763C129.97 135.187 130.023 135.769 130.446 136.352ZM134.784 148.853C135.789 148.694 136.477 148.164 136.741 147.317C137.006 146.469 136.847 145.675 136.265 144.827C135.683 144.033 134.731 143.079 133.462 142.073L130.552 147.952C132.298 148.694 133.726 149.012 134.784 148.853Z" fill="#E0B13B"/>
<path d="M167.105 253.733C163.984 251.032 157.16 252.038 150.971 256.223C144.782 260.461 141.291 266.446 142.666 270.313L142.243 269.995L143.195 271.425C145.734 275.186 153.351 274.445 160.175 269.836C166.999 265.175 170.49 258.395 167.951 254.634L166.999 253.204L167.105 253.733Z" fill="#E0B13B"/>
<path d="M159.111 268.325C165.956 263.682 169.445 256.874 166.906 253.12C164.366 249.366 156.758 250.087 149.913 254.731C143.068 259.374 139.578 266.182 142.118 269.936C144.658 273.69 152.266 272.969 159.111 268.325Z" fill="#FFD541"/>
<path d="M183.662 125.864C182.656 122.686 177.525 120.461 171.442 120.673C165.359 120.938 160.439 123.586 159.699 126.87L159.54 126.446L159.593 127.824C159.752 131.479 165.306 134.233 171.971 133.968C178.689 133.703 183.979 130.472 183.82 126.817L183.767 125.44L183.662 125.864Z" fill="#E0B13B"/>
<path d="M171.934 132.531C178.618 132.248 183.91 129.034 183.755 125.351C183.6 121.668 178.055 118.912 171.371 119.194C164.687 119.477 159.394 122.691 159.55 126.374C159.705 130.057 165.249 132.813 171.934 132.531Z" fill="#FFD541"/>
<path d="M110.081 169.67C107.33 167.816 101.882 169.299 97.3327 173.325C92.7835 177.351 90.6146 182.542 92.0958 185.508L91.7255 185.296L92.6248 186.355C95.0581 189.11 101.088 187.786 106.114 183.336C111.139 178.887 113.255 173.06 110.822 170.306L109.922 169.246L110.081 169.67Z" fill="#E0B13B"/>
<path d="M105.19 182.236C110.212 177.81 112.312 171.979 109.88 169.212C107.448 166.445 101.405 167.79 96.3823 172.216C91.36 176.642 89.2602 182.473 91.6922 185.24C94.1243 188.008 100.167 186.663 105.19 182.236Z" fill="#FFD541"/>
<path d="M82.362 150.124C82.7323 150.389 83.2084 149.912 82.891 149.541C72.6288 138.629 36.8698 101.18 33.7488 106.53C30.6807 111.827 70.5658 141.49 82.362 150.124Z" fill="#FFD541"/>
<path d="M61.4145 155.315C61.9435 155.527 62.2609 154.785 61.7848 154.521C46.0741 146.151 1.48108 122.739 0.0528368 127.188C-1.37541 131.637 44.9103 149.224 61.4145 155.315Z" fill="#FFD541"/>
<path d="M67.4446 171.206C68.0794 171.153 68.0794 170.253 67.4446 170.147C55.1194 168.822 22.5871 165.803 21.7408 170.676C20.9473 175.603 54.802 172.53 67.4446 171.206Z" fill="#FFD541"/>
<path d="M152.822 114.687C150.706 114.369 149.066 112.727 148.749 110.608C148.696 110.396 148.432 110.396 148.379 110.608C148.061 112.727 146.422 114.369 144.306 114.687C144.094 114.74 144.094 115.005 144.306 115.058C146.422 115.376 148.061 117.018 148.379 119.137C148.432 119.348 148.696 119.348 148.749 119.137C149.066 117.018 150.706 115.376 152.822 115.058C153.034 115.005 153.034 114.74 152.822 114.687Z" fill="white"/>
<path d="M129.389 274.445C127.273 274.127 125.633 272.485 125.316 270.366C125.263 270.154 124.998 270.154 124.945 270.366C124.628 272.485 122.988 274.127 120.872 274.445C120.66 274.498 120.66 274.762 120.872 274.815C122.988 275.133 124.628 276.775 124.945 278.894C124.998 279.106 125.263 279.106 125.316 278.894C125.633 276.775 127.273 275.133 129.389 274.815C129.6 274.762 129.6 274.445 129.389 274.445Z" fill="white"/>
<path d="M167.845 227.036C165.729 226.719 164.089 225.077 163.772 222.958C163.719 222.746 163.455 222.746 163.402 222.958C163.084 225.077 161.445 226.719 159.329 227.036C159.117 227.089 159.117 227.354 159.329 227.407C161.445 227.725 163.084 229.367 163.402 231.486C163.455 231.698 163.719 231.698 163.772 231.486C164.089 229.367 165.729 227.725 167.845 227.407C168.057 227.354 168.057 227.089 167.845 227.036Z" fill="white"/>
<path d="M123.57 185.773C121.454 185.455 119.814 183.813 119.497 181.694C119.444 181.482 119.179 181.482 119.126 181.694C118.809 183.813 117.169 185.455 115.053 185.773C114.842 185.826 114.842 186.091 115.053 186.144C117.169 186.461 118.809 188.104 119.126 190.222C119.179 190.434 119.444 190.434 119.497 190.222C119.814 188.104 121.454 186.461 123.57 186.144C123.781 186.091 123.781 185.773 123.57 185.773Z" fill="white"/>
<path d="M165.359 181.27C161.286 180.635 158.059 177.457 157.477 173.378C157.424 173.007 156.842 173.007 156.789 173.378C156.155 177.457 152.981 180.688 148.908 181.27C148.537 181.323 148.537 181.906 148.908 181.959C152.981 182.595 156.208 185.773 156.789 189.851C156.842 190.222 157.424 190.222 157.477 189.851C158.112 185.773 161.286 182.542 165.359 181.959C165.782 181.906 165.782 181.376 165.359 181.27Z" fill="white"/>
<path d="M208.789 125.228C205.773 124.751 203.446 122.421 202.97 119.401C202.917 119.137 202.494 119.137 202.494 119.401C202.018 122.421 199.69 124.751 196.675 125.228C196.41 125.281 196.41 125.705 196.675 125.705C199.69 126.182 202.018 128.512 202.494 131.532C202.547 131.796 202.97 131.796 202.97 131.532C203.446 128.512 205.773 126.182 208.789 125.705C209.053 125.652 209.053 125.281 208.789 125.228Z" fill="white"/>
<path d="M196.093 261.308C193.078 260.831 190.75 258.501 190.274 255.481C190.221 255.217 189.798 255.217 189.798 255.481C189.322 258.501 186.994 260.831 183.979 261.308C183.715 261.361 183.715 261.785 183.979 261.785C186.994 262.262 189.322 264.592 189.798 267.611C189.851 267.876 190.274 267.876 190.274 267.611C190.75 264.592 193.078 262.262 196.093 261.785C196.41 261.732 196.41 261.308 196.093 261.308Z" fill="white"/>
<path d="M113.043 204.948C110.028 204.471 107.7 202.141 107.224 199.121C107.171 198.856 106.748 198.856 106.748 199.121C106.272 202.141 103.945 204.471 100.929 204.948C100.665 205.001 100.665 205.372 100.929 205.425C103.945 205.901 106.272 208.232 106.748 211.251C106.801 211.516 107.224 211.516 107.224 211.251C107.7 208.232 110.028 205.901 113.043 205.425C113.307 205.425 113.307 205.001 113.043 204.948Z" fill="white"/>
</g>
<g clip-path="url(#clip2)">
<path d="M1422.83 182.729C1415.11 180.078 1403.21 187.007 1394.88 199.433C1386.56 211.859 1384.72 225.527 1390.09 231.715L1389.06 231.444L1391.88 233.365C1399.36 238.409 1412.89 231.427 1422.01 217.736C1431.13 204.045 1432.52 188.895 1424.97 183.83L1422.15 181.909L1422.83 182.729Z" fill="#E0B13B"/>
<path d="M1419.48 215.955C1428.63 202.281 1429.96 187.109 1422.47 182.068C1414.97 177.027 1401.48 184.026 1392.33 197.7C1383.18 211.374 1381.84 226.546 1389.34 231.587C1396.84 236.628 1410.33 229.63 1419.48 215.955Z" fill="#FFD541"/>
<path d="M1403.29 218.431C1401.52 218.558 1399.72 217.75 1397.98 216.193L1395.85 219.371L1394.63 217.89L1396.7 214.808C1395.82 213.737 1395.15 212.612 1394.69 211.435C1394.26 210.303 1393.99 209.259 1393.97 208.254L1395.84 206.885C1395.87 207.819 1396.11 208.7 1396.52 209.669C1396.95 210.684 1397.52 211.624 1398.25 212.42L1402.47 206.088C1401.66 205.038 1401.07 204.168 1400.65 203.387C1400.25 202.652 1400.08 201.792 1400.12 200.879C1400.16 199.966 1400.5 199.066 1401.19 198.038C1402.03 196.749 1403.14 195.848 1404.57 195.311C1406.04 194.749 1407.75 194.718 1409.7 195.263L1411.81 192.156L1413.65 192.704L1411.52 195.883C1412.61 196.362 1413.59 196.962 1414.53 197.704C1415.49 198.491 1416.19 199.357 1416.76 200.298L1413.94 202.306C1412.92 200.421 1411.56 199.132 1409.97 198.271L1405.55 204.89C1406.6 206.049 1407.4 207.098 1408 208.085C1408.62 209.117 1409.01 210.274 1409.14 211.509C1409.26 212.814 1408.86 214.16 1407.91 215.57C1406.68 217.363 1405.18 218.3 1403.29 218.431ZM1402.79 201.214C1403 201.932 1403.47 202.688 1404.2 203.6L1408.13 197.722C1406.95 197.409 1406 197.393 1405.14 197.678C1404.33 197.937 1403.68 198.473 1403.21 199.143C1402.74 199.812 1402.58 200.496 1402.79 201.214ZM1402.63 214.921C1403.61 214.866 1404.36 214.398 1404.94 213.491C1405.52 212.584 1405.67 211.667 1405.38 210.694C1405.11 209.767 1404.5 208.735 1403.71 207.614L1399.65 213.684C1400.66 214.564 1401.65 214.976 1402.63 214.921Z" fill="#E0B13B"/>
<path d="M1311.57 127.61C1310.14 122.675 1302.29 119.023 1292.89 119.184C1283.49 119.346 1275.82 123.263 1274.57 128.283L1274.34 127.636L1274.39 129.809C1274.49 135.464 1282.96 139.916 1293.29 139.725C1303.63 139.533 1311.91 134.801 1311.74 129.125L1311.69 126.952L1311.57 127.61Z" fill="#E0B13B"/>
<path d="M1311.73 126.816C1311.61 121.16 1303.16 116.73 1292.84 116.919C1282.53 117.109 1274.27 121.847 1274.38 127.502C1274.5 133.158 1282.96 137.588 1293.27 137.399C1303.58 137.209 1311.85 132.471 1311.73 126.816Z" fill="#FFD541"/>
<path d="M1377.71 204.942C1377.64 201.647 1373.43 198.041 1367.59 196.568C1361.75 195.095 1356.35 196.181 1354.77 199.061L1354.73 198.664L1354.38 199.985C1353.5 203.497 1357.96 207.68 1364.37 209.322C1370.77 210.963 1376.69 209.417 1377.58 205.905L1377.93 204.584L1377.71 204.942Z" fill="#E0B13B"/>
<path d="M1377.91 204.506C1378.8 200.982 1374.33 196.803 1367.93 195.173C1361.53 193.542 1355.63 195.077 1354.74 198.6C1353.85 202.124 1358.32 206.303 1364.72 207.934C1371.12 209.565 1377.02 208.03 1377.91 204.506Z" fill="#FFD541"/>
<path d="M1388.58 241.935C1386.3 239.6 1380.78 239.917 1375.51 242.892C1370.29 245.842 1367.14 250.41 1367.97 253.587L1367.63 253.293L1368.28 254.489C1370.05 257.635 1376.18 257.579 1381.91 254.355C1387.68 251.107 1390.86 245.93 1389.07 242.738L1388.42 241.543L1388.58 241.935Z" fill="#E0B13B"/>
<path d="M1381.26 253.045C1387.01 249.806 1390.21 244.61 1388.43 241.441C1386.64 238.271 1380.53 238.327 1374.79 241.566C1369.05 244.806 1365.84 250.001 1367.63 253.171C1369.41 256.34 1375.52 256.284 1381.26 253.045Z" fill="#FFD541"/>
<path d="M1440.82 186.361C1440.04 186.246 1439.85 187.304 1440.53 187.586C1456.99 192.997 1500.65 206.794 1500.85 201.036C1501 195.302 1457.56 188.7 1440.82 186.361Z" fill="#FFD541"/>
<path d="M1462.05 170.504C1460.84 170.683 1460.97 172.456 1462.21 172.44C1483.54 172.176 1521.09 171.205 1520.34 167.207C1519.57 163.28 1482.87 167.661 1462.05 170.504Z" fill="#FFD541"/>
<path d="M1439.64 161.777C1439.35 161.997 1439.6 162.456 1439.94 162.328C1449.52 158.443 1482.75 144.586 1481.04 139.684C1479.28 134.807 1448.31 155.77 1439.64 161.777Z" fill="#FFD541"/>
<path d="M1362.87 183.485C1360.89 184.203 1358.69 183.549 1357.42 181.859C1357.27 181.7 1357.05 181.825 1357.1 182.033C1357.82 184.021 1357.17 186.217 1355.49 187.487C1355.33 187.632 1355.46 187.862 1355.66 187.808C1357.65 187.09 1359.84 187.744 1361.11 189.434C1361.26 189.593 1361.49 189.469 1361.43 189.26C1360.71 187.272 1361.36 185.077 1363.04 183.807C1363.2 183.661 1363.05 183.386 1362.87 183.485Z" fill="white"/>
<path d="M1336.57 103.822C1334.59 104.541 1332.39 103.886 1331.12 102.197C1330.98 102.038 1330.75 102.162 1330.8 102.371C1331.52 104.359 1330.87 106.554 1329.19 107.824C1329.03 107.969 1329.16 108.199 1329.37 108.146C1331.35 107.427 1333.54 108.082 1334.81 109.771C1334.96 109.93 1335.19 109.806 1335.13 109.597C1334.41 107.61 1335.06 105.414 1336.74 104.144C1336.9 103.999 1336.78 103.769 1336.57 103.822Z" fill="white"/>
<path d="M1432.02 227.002C1430.03 227.721 1427.84 227.066 1426.57 225.377C1426.42 225.218 1426.19 225.342 1426.25 225.551C1426.97 227.538 1426.32 229.734 1424.64 231.004C1424.48 231.149 1424.6 231.379 1424.81 231.325C1426.8 230.607 1428.99 231.262 1430.26 232.951C1430.41 233.11 1430.64 232.986 1430.58 232.777C1429.86 230.789 1430.51 228.594 1432.19 227.324C1432.32 227.133 1432.2 226.903 1432.02 227.002Z" fill="white"/>
<path d="M1325.92 134.048C1323.93 134.766 1321.74 134.111 1320.47 132.422C1320.32 132.263 1320.09 132.387 1320.15 132.596C1320.87 134.584 1320.22 136.779 1318.54 138.049C1318.38 138.194 1318.5 138.424 1318.71 138.371C1320.7 137.652 1322.89 138.307 1324.16 139.996C1324.31 140.155 1324.54 140.031 1324.48 139.822C1323.76 137.835 1324.41 135.639 1326.09 134.369C1326.25 134.224 1326.1 133.948 1325.92 134.048Z" fill="white"/>
<path d="M1346.16 139.664C1342.33 141.026 1338.04 139.785 1335.62 136.519C1335.4 136.222 1334.89 136.495 1335.02 136.842C1336.39 140.679 1335.16 144.975 1331.91 147.394C1331.61 147.614 1331.89 148.119 1332.23 147.991C1336.06 146.629 1340.35 147.871 1342.78 151.137C1343 151.434 1343.5 151.161 1343.37 150.814C1342 146.976 1343.23 142.681 1346.49 140.262C1346.78 140.042 1346.53 139.582 1346.16 139.664Z" fill="white"/>
<path d="M1375.86 170.371C1373.03 171.374 1369.91 170.445 1368.08 168.049C1367.91 167.844 1367.59 168.018 1367.67 168.273C1368.67 171.116 1367.76 174.232 1365.37 176.063C1365.16 176.233 1365.36 176.601 1365.59 176.476C1368.43 175.473 1371.54 176.402 1373.37 178.799C1373.55 179.004 1373.91 178.805 1373.79 178.575C1372.78 175.731 1373.7 172.615 1376.09 170.785C1376.32 170.661 1376.12 170.293 1375.86 170.371Z" fill="white"/>
<path d="M1359.18 238.483C1356.35 239.486 1353.24 238.557 1351.4 236.16C1351.23 235.955 1350.91 236.129 1350.99 236.384C1352 239.228 1351.08 242.344 1348.69 244.174C1348.49 244.344 1348.69 244.712 1348.91 244.588C1351.75 243.585 1354.86 244.514 1356.7 246.91C1356.87 247.115 1357.23 246.916 1357.11 246.687C1356.1 243.843 1357.02 240.727 1359.41 238.896C1359.68 238.747 1359.48 238.38 1359.18 238.483Z" fill="white"/>
</g>
<path d="M253.145 173.714C248.326 173.714 244.566 175.696 241.866 179.661C239.166 183.592 237.815 189.026 237.815 195.965C237.815 210.389 243.301 217.601 254.273 217.601C257.588 217.601 260.801 217.139 263.912 216.216C267.022 215.293 270.149 214.183 273.294 212.884V230.008C267.039 232.776 259.964 234.161 252.068 234.161C240.755 234.161 232.073 230.879 226.023 224.317C220.008 217.754 217 208.27 217 195.862C217 188.104 218.453 181.285 221.358 175.406C224.297 169.527 228.501 165.015 233.97 161.871C239.473 158.692 245.933 157.103 253.35 157.103C261.451 157.103 269.192 158.863 276.575 162.383L270.372 178.328C267.603 177.029 264.834 175.936 262.066 175.047C259.297 174.158 256.324 173.714 253.145 173.714Z" fill="white"/>
<path d="M283.232 233.135V158.179H303.483V216.78H332.348V233.135H283.232Z" fill="white"/>
<path d="M409.757 195.555C409.757 208.167 406.664 217.754 400.477 224.317C394.291 230.879 385.233 234.161 373.304 234.161C361.547 234.161 352.523 230.862 346.234 224.266C339.979 217.669 336.852 208.064 336.852 195.452C336.852 182.977 339.962 173.458 346.183 166.895C352.438 160.298 361.512 157 373.407 157C385.336 157 394.376 160.264 400.529 166.792C406.681 173.321 409.757 182.908 409.757 195.555ZM358.18 195.555C358.18 210.047 363.221 217.293 373.304 217.293C378.431 217.293 382.225 215.533 384.686 212.012C387.181 208.492 388.429 203.006 388.429 195.555C388.429 188.069 387.164 182.549 384.635 178.995C382.14 175.406 378.397 173.611 373.407 173.611C363.256 173.611 358.18 180.926 358.18 195.555Z" fill="white"/>
<path d="M482.295 158.179V203.296C482.295 213.106 479.51 220.711 473.938 226.111C468.401 231.478 460.403 234.161 449.944 234.161C439.724 234.161 431.863 231.546 426.36 226.316C420.891 221.087 418.157 213.567 418.157 203.758V158.179H438.511V202.168C438.511 207.466 439.502 211.312 441.485 213.704C443.467 216.097 446.389 217.293 450.252 217.293C454.387 217.293 457.378 216.114 459.224 213.755C461.104 211.363 462.044 207.466 462.044 202.066V158.179H482.295Z" fill="white"/>
<path d="M556.935 194.068C556.935 206.578 553.483 216.216 546.579 222.984C539.709 229.751 530.036 233.135 517.56 233.135H493.31V158.179H519.252C531.284 158.179 540.563 161.255 547.092 167.408C553.654 173.56 556.935 182.447 556.935 194.068ZM535.915 194.786C535.915 187.916 534.548 182.823 531.813 179.507C529.113 176.192 524.995 174.534 519.457 174.534H513.561V216.524H518.073C524.225 216.524 528.737 214.747 531.608 211.192C534.479 207.603 535.915 202.134 535.915 194.786Z" fill="white"/>
<path d="M585.638 233.135H565.694V158.179H609.991V174.432H585.638V188.736H608.094V204.988H585.638V233.135Z" fill="white"/>
<path d="M617.571 233.135V158.179H637.822V216.78H666.687V233.135H617.571Z" fill="white"/>
<path d="M700.722 185.967L713.642 158.179H735.585L710.924 203.86V233.135H690.519V204.476L665.859 158.179H687.904L700.722 185.967Z" fill="white"/>
<path d="M808.354 233.135L804.662 219.087H780.309L776.515 233.135H754.264L778.72 157.872H805.739L830.502 233.135H808.354ZM800.458 202.476L797.228 190.171C796.476 187.437 795.553 183.899 794.459 179.559C793.4 175.218 792.699 172.107 792.357 170.228C792.05 171.971 791.435 174.842 790.512 178.841C789.623 182.84 787.624 190.718 784.513 202.476H800.458Z" fill="#1CCC4B"/>
<path d="M853.873 233.135H833.929V158.179H878.226V174.432H853.873V188.736H876.329V204.988H853.873V233.135Z" fill="#1CCC4B"/>
<path d="M905.749 233.135H885.805V158.179H930.102V174.432H905.749V188.736H928.205V204.988H905.749V233.135Z" fill="#1CCC4B"/>
<path d="M937.682 233.135V158.179H958.036V233.135H937.682Z" fill="#1CCC4B"/>
<path d="M969.563 233.135V158.179H989.815V216.78H1018.68V233.135H969.563Z" fill="#1CCC4B"/>
<path d="M1025.95 233.135V158.179H1046.31V233.135H1025.95Z" fill="#1CCC4B"/>
<path d="M1103.82 233.135L1100.13 219.087H1075.78L1071.98 233.135H1049.73L1074.19 157.872H1101.21L1125.97 233.135H1103.82ZM1095.93 202.476L1092.7 190.171C1091.94 187.437 1091.02 183.899 1089.93 179.559C1088.87 175.218 1088.17 172.107 1087.83 170.228C1087.52 171.971 1086.9 174.842 1085.98 178.841C1085.09 182.84 1083.09 190.718 1079.98 202.476H1095.93Z" fill="#1CCC4B"/>
<path d="M1162.47 233.135H1142.21V174.739H1123.91V158.179H1180.72V174.739H1162.47V233.135Z" fill="#1CCC4B"/>
<path d="M1231.21 233.135H1186.71V158.179H1231.21V174.432H1206.96V186.224H1229.42V202.476H1206.96V216.626H1231.21V233.135Z" fill="#1CCC4B"/>
<path d="M1113.7 454L1119.61 454L1191 696.454L1185.1 696.454L1113.7 454Z" fill="#075784"/>
<path d="M1064 454L1069.9 454L1141.3 696.454L1135.39 696.454L1064 454Z" fill="#075784"/>
<path d="M1130.18 670.977L1179.6 670.977L1179.6 665.088L1130.18 665.088L1130.18 670.977Z" fill="#075784"/>
<path d="M1117.48 627.474L1166.89 627.474L1166.89 621.585L1117.48 621.585L1117.48 627.474Z" fill="#075784"/>
<path d="M1104.77 583.971L1154.19 583.971L1154.19 578.082L1104.77 578.082L1104.77 583.971Z" fill="#075784"/>
<path d="M1092.06 540.468L1141.48 540.468L1141.48 534.579L1092.06 534.579L1092.06 540.468Z" fill="#075784"/>
<path d="M1079.33 496.965L1128.75 496.965L1128.75 491.076L1079.33 491.076L1079.33 496.965Z" fill="#075784"/>
<g clip-path="url(#clip3)">
<path d="M1078.3 483H1072.39L1001 240.546H1006.9L1078.3 483Z" fill="#075784"/>
<path d="M1128 483H1122.1L1050.7 240.546H1056.61L1128 483Z" fill="#075784"/>
<path d="M1061.82 266.023H1012.4V271.912H1061.82V266.023Z" fill="#075784"/>
<path d="M1074.52 309.526H1025.11V315.415H1074.52V309.526Z" fill="#075784"/>
<path d="M1087.23 353.029H1037.81V358.918H1087.23V353.029Z" fill="#075784"/>
<path d="M1099.94 396.532H1050.52V402.421H1099.94V396.532Z" fill="#075784"/>
<path d="M1112.67 440.035H1063.25V445.924H1112.67V440.035Z" fill="#075784"/>
<path d="M1079.74 350.263C1079.71 350.059 1079.71 349.879 1079.66 349.7C1079.4 348.215 1078.5 348.522 1077.91 348.702C1077.81 348.727 1077.45 348.83 1076.94 348.983C1076.42 348.855 1076.06 348.753 1075.96 348.702C1075.37 348.522 1074.47 348.189 1074.22 349.7C1074.19 349.854 1074.17 350.059 1074.14 350.263C1074.01 352.389 1073.93 353.08 1073.93 353.08C1073.93 353.08 1075.24 353.08 1076.94 353.08C1078.63 353.08 1079.94 353.08 1079.94 353.08C1079.94 353.08 1079.86 352.389 1079.74 350.263Z" fill="#0C1B29"/>
<path d="M1070.26 266.893C1069.42 266.868 1066.85 266.561 1066.93 265.997C1067.13 264.333 1070.7 263.872 1072.5 263.974C1073.81 264.051 1073.52 265.203 1073.52 265.203C1073.52 265.203 1072.04 266.945 1070.26 266.893Z" fill="#F5AB74"/>
<path d="M1096.81 254.577C1092.5 259.775 1078.58 264.896 1075.35 266.945C1074.35 268.635 1073.32 270.913 1071.19 272.373C1070.55 272.808 1066.85 271.579 1066.59 269.966C1066.41 268.763 1069.08 262.489 1073.88 264.282C1075.71 264.102 1087.13 255.217 1090.6 252.145C1092.16 250.737 1094.65 248.816 1095.91 249.661C1097.91 250.993 1098.4 252.657 1096.81 254.577Z" fill="#F5AB74"/>
<path d="M1091.13 243.798C1091.13 243.798 1095.73 248.765 1096.83 250.48C1097.63 251.71 1095.83 252.657 1094.73 253.246C1093.62 253.835 1089.41 251.889 1086.54 249.2C1084.36 247.152 1090.57 243.67 1091.13 243.798Z" fill="#F5AB74"/>
<path d="M1076.12 229.28C1080.81 232.403 1094.52 245.641 1094.52 245.641C1094.52 245.641 1094.37 247.485 1092.08 250.353C1088.64 254.629 1086.31 255.089 1086.31 255.089C1086.31 255.089 1075.45 248.407 1068.59 243.209C1063.18 239.112 1062.07 232.583 1065.85 228.844C1068.95 225.746 1073.5 227.538 1076.12 229.28Z" fill="url(#paint32_linear)"/>
<path d="M1068.08 226.54C1067.72 226.54 1067.39 226.54 1067 226.565C1064.95 226.668 1063.36 226.95 1061.25 227.41C1060.58 227.538 1059.97 227.718 1059.43 227.948C1059.35 229.638 1058.07 234.375 1062.66 233.914C1067.39 233.402 1068.31 228.127 1068.08 226.54Z" fill="url(#paint33_linear)"/>
<path d="M1066.98 227.206C1066.39 222.52 1067.26 221.342 1067.72 217.245C1067.11 215.427 1064.15 216.426 1063.51 212.995C1063.31 211.868 1062.33 211.919 1061.74 212.713C1061.74 212.713 1060.05 215.197 1059.04 218.269C1058.09 221.163 1058.15 223.006 1061.41 223.109C1061.05 225.413 1060.74 227.743 1060.56 229.024C1060.2 231.584 1062.3 232.429 1063.54 232.429C1064.79 232.429 1067.59 231.968 1066.98 227.206Z" fill="url(#paint34_linear)"/>
<path d="M1061.61 213.635C1059.94 212.15 1060.74 207.336 1064.44 205.288C1065.21 204.878 1066.85 204.776 1067.05 205.749C1067.7 208.847 1070.01 209.538 1072.24 210.665C1076.19 212.636 1077.19 217.296 1074.06 221.086C1072.34 223.186 1070.31 224.517 1066.75 224.338C1063.23 224.133 1066.03 220.727 1065.26 218.474C1064.02 214.941 1063.2 215.069 1061.61 213.635Z" fill="#082947"/>
<path d="M1059.02 228.87C1058.92 231.482 1056.91 237.14 1062.95 235.911C1070.03 234.477 1069.44 228.255 1069.21 227.026C1068.83 224.927 1066.93 225.234 1064.36 225.567C1062.48 225.823 1059.1 226.668 1059.02 228.87Z" fill="#082947"/>
<path d="M1066.28 216.887C1066.57 217.86 1065.56 218.705 1064.49 219.089C1063.41 219.473 1063.05 218.91 1062.77 218.193C1062.51 217.476 1062.18 216.784 1063.23 216.4C1064.31 216.042 1065.95 215.735 1066.28 216.887Z" fill="url(#paint35_linear)"/>
<path d="M1031.81 307.375C1031.81 307.375 1040.07 305.25 1040.69 305.07C1041.36 304.866 1042.41 304.482 1042.54 306.658C1042.67 308.834 1042.74 309.526 1042.74 309.526C1042.74 309.526 1033.17 309.551 1032.14 309.423C1031.09 309.321 1030.29 308.553 1031.81 307.375Z" fill="#0C1B29"/>
<path d="M1071.93 278.749C1071.93 278.749 1046.05 264.538 1040.82 262.617C1035.58 260.697 1030.27 270.043 1035.71 275.599C1041.15 281.155 1049.03 292.166 1055.66 295.264C1063.9 299.105 1067.72 299.489 1074.55 299.489C1081.28 299.463 1078.86 281.591 1071.93 278.749Z" fill="#082947"/>
<path d="M1066.98 271.374C1066.98 271.374 1070.01 298.951 1070.85 304.456C1071.7 309.961 1082.46 310.115 1084.72 302.689C1087 295.264 1089.95 284.971 1089.31 277.673C1088.67 270.401 1086.39 264.999 1080.74 261.183C1075.06 257.394 1066.13 263.949 1066.98 271.374Z" fill="#082947"/>
<path d="M1030.47 268.763C1031.55 278.006 1038.89 306.658 1038.89 306.658C1038.89 306.658 1039.56 307.145 1040.23 306.965C1041.23 306.684 1041.25 306.069 1041.25 306.069C1041.25 306.069 1040.3 300.282 1040.71 296.288C1041.13 292.294 1045.13 275.241 1045.08 270.35C1045.03 265.46 1043.26 261.875 1037.71 262.387C1032.14 262.95 1030.11 265.792 1030.47 268.763Z" fill="#082947"/>
<path d="M1070.62 303.073C1071.11 309.859 1071.6 309.859 1072.45 318.052C1073.29 326.246 1075.58 349.854 1075.58 349.854C1075.58 349.854 1076.17 350.443 1076.86 350.366C1077.89 350.238 1078.02 349.649 1078.02 349.649C1078.02 349.649 1077.96 343.785 1078.99 339.893C1080.02 336.001 1084.15 311.702 1084.85 306.863C1085.54 302.024 1084.36 298.208 1078.76 297.876C1073.16 297.568 1070.39 300.103 1070.62 303.073Z" fill="#082947"/>
<path d="M1062.41 227.666C1053.76 228.972 1053.45 236.756 1053.47 243.26C1053.52 258.213 1050.73 266.893 1050.73 266.893C1050.73 266.893 1055.07 280.131 1072.91 282.18C1090.39 284.177 1090.24 275.65 1090.24 275.65C1090.24 275.65 1087.59 248.483 1080.48 235.092C1078.43 231.226 1075.4 227.206 1068.21 227.154C1066.16 227.129 1064.54 227.334 1062.41 227.666Z" fill="#0387DA"/>
<path d="M1029.98 195.635C1030.34 194.866 1031.65 192.639 1032.14 192.946C1033.58 193.791 1032.6 197.248 1031.78 198.835C1031.19 200.013 1030.24 199.296 1030.24 199.296C1030.24 199.296 1029.24 197.248 1029.98 195.635Z" fill="#F5AB74"/>
<path d="M1030.78 224.824C1027.7 218.807 1028.52 204.033 1027.93 200.269C1025.23 199.527 1023.77 195.046 1024.82 192.588C1025.34 191.41 1027.85 190.027 1029.52 191.947C1030.32 192.869 1034.53 196.3 1030.98 199.987C1030.45 201.729 1034.04 215.709 1035.5 220.113C1036.17 222.11 1036.94 225.157 1035.66 225.951C1033.63 227.257 1031.91 227.052 1030.78 224.824Z" fill="#F5AB74"/>
<path d="M1039.3 231.174C1039.3 231.174 1033.5 227.666 1031.99 226.309C1030.88 225.336 1032.37 223.928 1033.24 223.058C1034.14 222.187 1038.74 222.904 1042.23 224.722C1044.92 226.105 1039.89 231.149 1039.3 231.174Z" fill="#F5AB74"/>
<path d="M1055.96 244.079C1050.6 242.364 1033.78 233.351 1033.78 233.351C1033.78 233.351 1033.42 231.533 1034.84 228.153C1036.97 223.109 1039.1 222.033 1039.1 222.033C1039.1 222.033 1051.37 225.516 1059.38 228.639C1065.72 231.123 1068.54 237.089 1065.95 241.698C1063.82 245.513 1058.97 245.052 1055.96 244.079Z" fill="url(#paint36_linear)"/>
</g>
<defs>
<linearGradient id="paint0_linear" x1="738.601" y1="33.0487" x2="770.771" y2="59.5698" gradientUnits="userSpaceOnUse">
<stop stop-color="#0387DA"/>
<stop offset="1" stop-color="#035677"/>
</linearGradient>
<linearGradient id="paint1_linear" x1="720.236" y1="33.8924" x2="693.139" y2="65.5579" gradientUnits="userSpaceOnUse">
<stop stop-color="#0387DA"/>
<stop offset="1" stop-color="#035677"/>
</linearGradient>
<linearGradient id="paint2_linear" x1="720.439" y1="82.5186" x2="753.103" y2="103.065" gradientUnits="userSpaceOnUse">
<stop stop-color="#091E2F"/>
<stop offset="1" stop-color="#082947"/>
</linearGradient>
<linearGradient id="paint3_linear" x1="718.662" y1="95.5315" x2="718.662" y2="134.06" gradientUnits="userSpaceOnUse">
<stop stop-color="#091E2F"/>
<stop offset="1" stop-color="#082947"/>
</linearGradient>
<linearGradient id="paint4_linear" x1="727.415" y1="-14.1898" x2="723.252" y2="110.649" gradientUnits="userSpaceOnUse">
<stop stop-color="#F8B37F"/>
<stop offset="1" stop-color="#EB8744"/>
</linearGradient>
<linearGradient id="paint5_linear" x1="724.593" y1="-14.6179" x2="720.393" y2="111.338" gradientUnits="userSpaceOnUse">
<stop stop-color="#F8B37F"/>
<stop offset="1" stop-color="#EB8744"/>
</linearGradient>
<linearGradient id="paint6_linear" x1="727.882" y1="-13.6396" x2="723.768" y2="109.734" gradientUnits="userSpaceOnUse">
<stop stop-color="#F8B37F"/>
<stop offset="1" stop-color="#EB8744"/>
</linearGradient>
<linearGradient id="paint7_linear" x1="835.998" y1="34.8968" x2="812.174" y2="67.8446" gradientUnits="userSpaceOnUse">
<stop stop-color="#22ABEF"/>
<stop offset="1" stop-color="#035677"/>
</linearGradient>
<linearGradient id="paint8_linear" x1="853.272" y1="41.4265" x2="871.563" y2="62.3512" gradientUnits="userSpaceOnUse">
<stop stop-color="#22ABEF"/>
<stop offset="1" stop-color="#035677"/>
</linearGradient>
<linearGradient id="paint9_linear" x1="962.802" y1="31.9647" x2="981.265" y2="62.6808" gradientUnits="userSpaceOnUse">
<stop stop-color="#0387DA"/>
<stop offset="1" stop-color="#035677"/>
</linearGradient>
<linearGradient id="paint10_linear" x1="946.312" y1="32.5185" x2="921.551" y2="59.1873" gradientUnits="userSpaceOnUse">
<stop stop-color="#0387DA"/>
<stop offset="1" stop-color="#035677"/>
</linearGradient>
<linearGradient id="paint11_linear" x1="958.432" y1="73.5707" x2="978.126" y2="135.212" gradientUnits="userSpaceOnUse">
<stop stop-color="#091E2F"/>
<stop offset="1" stop-color="#082947"/>
</linearGradient>
<linearGradient id="paint12_linear" x1="958.901" y1="73.4212" x2="978.594" y2="135.063" gradientUnits="userSpaceOnUse">
<stop stop-color="#091E2F"/>
<stop offset="1" stop-color="#082947"/>
</linearGradient>
<linearGradient id="paint13_linear" x1="949.952" y1="-14.1756" x2="969.486" y2="109.211" gradientUnits="userSpaceOnUse">
<stop stop-color="#F8B37F"/>
<stop offset="1" stop-color="#EB8744"/>
</linearGradient>
<linearGradient id="paint14_linear" x1="954.759" y1="-10.0259" x2="972.098" y2="99.499" gradientUnits="userSpaceOnUse">
<stop stop-color="#F8B37F"/>
<stop offset="1" stop-color="#EB8744"/>
</linearGradient>
<linearGradient id="paint15_linear" x1="956.152" y1="-13.5272" x2="955.13" y2="109.902" gradientUnits="userSpaceOnUse">
<stop stop-color="#F8B37F"/>
<stop offset="1" stop-color="#EB8744"/>
</linearGradient>
<linearGradient id="paint16_linear" x1="621.168" y1="38.2436" x2="596.427" y2="77.1051" gradientUnits="userSpaceOnUse">
<stop stop-color="#22ABEF"/>
<stop offset="1" stop-color="#035677"/>
</linearGradient>
<linearGradient id="paint17_linear" x1="630.705" y1="91.8053" x2="644.571" y2="119.983" gradientUnits="userSpaceOnUse">
<stop stop-color="#091E2F"/>
<stop offset="1" stop-color="#082947"/>
</linearGradient>
<linearGradient id="paint18_linear" x1="623.967" y1="94.7829" x2="628.337" y2="126.857" gradientUnits="userSpaceOnUse">
<stop stop-color="#091E2F"/>
<stop offset="1" stop-color="#082947"/>
</linearGradient>
<linearGradient id="paint19_linear" x1="630.06" y1="53.2281" x2="634.901" y2="78.3206" gradientUnits="userSpaceOnUse">
<stop stop-color="#35BDB8"/>
<stop offset="1" stop-color="#18A6AD"/>
</linearGradient>
<linearGradient id="paint20_linear" x1="638.414" y1="34.3953" x2="660.335" y2="48.4397" gradientUnits="userSpaceOnUse">
<stop stop-color="#22ABEF"/>
<stop offset="1" stop-color="#035677"/>
</linearGradient>
<linearGradient id="paint21_linear" x1="521.442" y1="46.5598" x2="501.996" y2="66.7458" gradientUnits="userSpaceOnUse">
<stop stop-color="#0387DA"/>
<stop offset="1" stop-color="#035677"/>
</linearGradient>
<linearGradient id="paint22_linear" x1="486.511" y1="38.065" x2="486.537" y2="54.6405" gradientUnits="userSpaceOnUse">
<stop stop-color="white"/>
<stop offset="1" stop-color="#B6B6B7"/>
</linearGradient>
<linearGradient id="paint23_linear" x1="478.861" y1="32.7452" x2="483.065" y2="45.8135" gradientUnits="userSpaceOnUse">
<stop stop-color="white"/>
<stop offset="1" stop-color="#B6B6B7"/>
</linearGradient>
<linearGradient id="paint24_linear" x1="529.149" y1="91.885" x2="521.206" y2="158.307" gradientUnits="userSpaceOnUse">
<stop stop-color="#091E2F"/>
<stop offset="1" stop-color="#082947"/>
</linearGradient>
<linearGradient id="paint25_linear" x1="524.019" y1="91.2717" x2="516.076" y2="157.693" gradientUnits="userSpaceOnUse">
<stop stop-color="#091E2F"/>
<stop offset="1" stop-color="#082947"/>
</linearGradient>
<linearGradient id="paint26_linear" x1="547.124" y1="88.1112" x2="574.143" y2="149.332" gradientUnits="userSpaceOnUse">
<stop stop-color="#091E2F"/>
<stop offset="1" stop-color="#082947"/>
</linearGradient>
<linearGradient id="paint27_linear" x1="534.735" y1="94.0708" x2="586.028" y2="143.231" gradientUnits="userSpaceOnUse">
<stop stop-color="#091E2F"/>
<stop offset="1" stop-color="#082947"/>
</linearGradient>
<linearGradient id="paint28_linear" x1="539.96" y1="43.5099" x2="560.064" y2="61.5742" gradientUnits="userSpaceOnUse">
<stop stop-color="#0387DA"/>
<stop offset="1" stop-color="#035677"/>
</linearGradient>
<linearGradient id="paint29_linear" x1="524.177" y1="-3.61473" x2="533.027" y2="120.978" gradientUnits="userSpaceOnUse">
<stop stop-color="#F8B37F"/>
<stop offset="1" stop-color="#EB8744"/>
</linearGradient>
<linearGradient id="paint30_linear" x1="521.334" y1="-2.86948" x2="530.077" y2="120.227" gradientUnits="userSpaceOnUse">
<stop stop-color="#F8B37F"/>
<stop offset="1" stop-color="#EB8744"/>
</linearGradient>
<linearGradient id="paint31_linear" x1="524.688" y1="-3.11635" x2="533.434" y2="120.015" gradientUnits="userSpaceOnUse">
<stop stop-color="#F8B37F"/>
<stop offset="1" stop-color="#EB8744"/>
</linearGradient>
<linearGradient id="paint32_linear" x1="1075.8" y1="238.654" x2="1097.31" y2="260.603" gradientUnits="userSpaceOnUse">
<stop stop-color="#0387DA"/>
<stop offset="1" stop-color="#035677"/>
</linearGradient>
<linearGradient id="paint33_linear" x1="1064.82" y1="193.782" x2="1060.98" y2="309.087" gradientUnits="userSpaceOnUse">
<stop stop-color="#F8B37F"/>
<stop offset="1" stop-color="#EB8744"/>
</linearGradient>
<linearGradient id="paint34_linear" x1="1064.21" y1="186.782" x2="1059.67" y2="323.021" gradientUnits="userSpaceOnUse">
<stop stop-color="#F8B37F"/>
<stop offset="1" stop-color="#EB8744"/>
</linearGradient>
<linearGradient id="paint35_linear" x1="1072.75" y1="196.389" x2="1032.88" y2="296.789" gradientUnits="userSpaceOnUse">
<stop stop-color="#F8B37F"/>
<stop offset="1" stop-color="#EB8744"/>
</linearGradient>
<linearGradient id="paint36_linear" x1="1054.17" y1="235.593" x2="1031.61" y2="221.457" gradientUnits="userSpaceOnUse">
<stop stop-color="#0387DA"/>
<stop offset="1" stop-color="#035677"/>
</linearGradient>
<clipPath id="clip0">
<rect width="538.242" height="166" fill="white" transform="translate(469)"/>
</clipPath>
<clipPath id="clip1">
<rect width="209" height="173" fill="white" transform="translate(0 106)"/>
</clipPath>
<clipPath id="clip2">
<rect width="199" height="177" fill="white" transform="translate(1271 124.867) rotate(-28.4714)"/>
</clipPath>
<clipPath id="clip3">
<rect width="127" height="292" fill="white" transform="translate(1001 191)"/>
</clipPath>
</defs>
</svg>
