<svg width="494" height="507" viewBox="0 0 494 507" fill="none" xmlns="http://www.w3.org/2000/svg">
<path d="M189.692 90.1578H141.685V459.552H189.692V90.1578Z" fill="#1B57B3"/>
<path d="M142.009 90.1578H8.10938V459.487H142.009V90.1578Z" fill="#4096FF"/>
<path d="M132.927 143.513H17.1919V436.185H132.927V143.513Z" fill="#265399"/>
<path d="M12.7153 266.774C11.6124 266.774 10.769 265.865 10.769 264.827V232.372C10.769 231.269 11.6773 230.425 12.7153 230.425C13.8181 230.425 14.6615 231.334 14.6615 232.372V264.827C14.7264 265.93 13.8181 266.774 12.7153 266.774Z" fill="#265399"/>
<path d="M142.009 172.137H137.728V195.18H142.009V172.137Z" fill="#265399"/>
<path d="M142.009 375.106H137.728V398.148H142.009V375.106Z" fill="#265399"/>
<path d="M130.138 189.338H21.8628V224.973H130.138V189.338Z" fill="#408BFF"/>
<path d="M130.138 230.75H21.8628V266.384H130.138V230.75Z" fill="#408BFF"/>
<path d="M130.138 272.226H21.8628V307.861H130.138V272.226Z" fill="#408BFF"/>
<path d="M130.138 313.638H21.8628V349.272H130.138V313.638Z" fill="#408BFF"/>
<path d="M130.138 355.049H21.8628V390.684H130.138V355.049Z" fill="#408BFF"/>
<path d="M130.138 396.526H21.8628V432.161H130.138V396.526Z" fill="#408BFF"/>
<path d="M130.138 147.926H21.8628V183.561H130.138V147.926Z" fill="#408BFF"/>
<path d="M119.887 157.143H30.6206V174.863H119.887V157.143Z" fill="#265399"/>
<path d="M98.2841 162.012H34.2534V170.125H98.2841V162.012Z" fill="#40BEFF"/>
<path d="M104.772 166.036C104.772 167.204 103.863 168.178 102.696 168.178C101.593 168.178 100.62 167.204 100.62 166.036C100.62 164.868 101.528 163.894 102.696 163.894C103.863 163.894 104.772 164.868 104.772 166.036Z" fill="#246AD6"/>
<path d="M110.675 166.036C110.675 167.204 109.767 168.178 108.599 168.178C107.496 168.178 106.523 167.204 106.523 166.036C106.523 164.868 107.431 163.894 108.599 163.894C109.767 163.894 110.675 164.868 110.675 166.036Z" fill="#408BFF"/>
<path d="M116.644 166.036C116.644 167.204 115.735 168.178 114.568 168.178C113.465 168.178 112.492 167.204 112.492 166.036C112.492 164.868 113.4 163.894 114.568 163.894C115.671 163.894 116.644 164.868 116.644 166.036Z" fill="#408BFF"/>
<path d="M119.887 199.074H30.6206V216.794H119.887V199.074Z" fill="#265399"/>
<path d="M98.2841 203.877H34.2534V211.991H98.2841V203.877Z" fill="#40BEFF"/>
<path d="M119.887 240.94H30.6206V258.66H119.887V240.94Z" fill="#265399"/>
<path d="M98.2841 245.808H34.2534V253.922H98.2841V245.808Z" fill="#40BEFF"/>
<path d="M119.887 282.871H30.6206V300.591H119.887V282.871Z" fill="#265399"/>
<path d="M98.2841 287.674H34.2534V295.788H98.2841V287.674Z" fill="#40BEFF"/>
<path d="M119.887 323.634H30.6206V341.354H119.887V323.634Z" fill="#265399"/>
<path d="M98.2841 328.502H34.2534V336.615H98.2841V328.502Z" fill="#40BEFF"/>
<path d="M104.772 332.721C104.772 333.889 103.863 334.863 102.696 334.863C101.593 334.863 100.62 333.889 100.62 332.721C100.62 331.552 101.528 330.579 102.696 330.579C103.863 330.579 104.772 331.487 104.772 332.721Z" fill="#246AD6"/>
<path d="M110.675 332.721C110.675 333.889 109.767 334.863 108.599 334.863C107.496 334.863 106.523 333.889 106.523 332.721C106.523 331.552 107.431 330.579 108.599 330.579C109.767 330.579 110.675 331.487 110.675 332.721Z" fill="#408BFF"/>
<path d="M116.644 332.721C116.644 333.889 115.735 334.863 114.568 334.863C113.465 334.863 112.492 333.889 112.492 332.721C112.492 331.552 113.4 330.579 114.568 330.579C115.671 330.579 116.644 331.487 116.644 332.721Z" fill="#408BFF"/>
<path d="M119.887 365.694H30.6206V383.414H119.887V365.694Z" fill="#265399"/>
<path d="M98.2841 370.562H34.2534V378.676H98.2841V370.562Z" fill="#40BEFF"/>
<path d="M119.887 406.781H30.6206V424.501H119.887V406.781Z" fill="#265399"/>
<path d="M98.2841 411.65H34.2534V419.763H98.2841V411.65Z" fill="#40BEFF"/>
<path d="M104.772 415.933C104.772 417.102 103.863 418.075 102.696 418.075C101.593 418.075 100.62 417.102 100.62 415.933C100.62 414.765 101.528 413.792 102.696 413.792C103.863 413.792 104.772 414.765 104.772 415.933Z" fill="#246AD6"/>
<path d="M110.675 415.933C110.675 417.102 109.767 418.075 108.599 418.075C107.496 418.075 106.523 417.102 106.523 415.933C106.523 414.765 107.431 413.792 108.599 413.792C109.767 413.792 110.675 414.765 110.675 415.933Z" fill="#408BFF"/>
<path d="M116.644 415.933C116.644 417.102 115.735 418.075 114.568 418.075C113.465 418.075 112.492 417.102 112.492 415.933C112.492 414.765 113.4 413.792 114.568 413.792C115.671 413.792 116.644 414.765 116.644 415.933Z" fill="#408BFF"/>
<path d="M102.696 210.433C103.843 210.433 104.772 209.474 104.772 208.291C104.772 207.108 103.843 206.149 102.696 206.149C101.55 206.149 100.62 207.108 100.62 208.291C100.62 209.474 101.55 210.433 102.696 210.433Z" fill="#246AD6"/>
<path d="M108.664 210.433C109.811 210.433 110.74 209.474 110.74 208.291C110.74 207.108 109.811 206.149 108.664 206.149C107.518 206.149 106.588 207.108 106.588 208.291C106.588 209.474 107.518 210.433 108.664 210.433Z" fill="#408BFF"/>
<path d="M114.568 210.433C115.715 210.433 116.644 209.474 116.644 208.291C116.644 207.108 115.715 206.149 114.568 206.149C113.422 206.149 112.492 207.108 112.492 208.291C112.492 209.474 113.422 210.433 114.568 210.433Z" fill="#408BFF"/>
<path d="M104.772 249.768C104.772 250.936 103.864 251.91 102.696 251.91C101.593 251.91 100.62 250.936 100.62 249.768C100.62 248.599 101.528 247.626 102.696 247.626C103.864 247.561 104.772 248.534 104.772 249.768Z" fill="#246AD6"/>
<path d="M110.675 249.768C110.675 250.936 109.767 251.91 108.599 251.91C107.497 251.91 106.523 250.936 106.523 249.768C106.523 248.599 107.432 247.626 108.599 247.626C109.767 247.561 110.675 248.534 110.675 249.768Z" fill="#408BFF"/>
<path d="M116.644 249.768C116.644 250.936 115.736 251.91 114.568 251.91C113.465 251.91 112.492 250.936 112.492 249.768C112.492 248.599 113.4 247.626 114.568 247.626C115.671 247.561 116.644 248.534 116.644 249.768Z" fill="#408BFF"/>
<path d="M104.772 291.893C104.772 293.062 103.864 294.035 102.696 294.035C101.593 294.035 100.62 293.062 100.62 291.893C100.62 290.725 101.528 289.751 102.696 289.751C103.864 289.686 104.772 290.66 104.772 291.893Z" fill="#246AD6"/>
<path d="M110.675 291.893C110.675 293.062 109.767 294.035 108.599 294.035C107.497 294.035 106.523 293.062 106.523 291.893C106.523 290.725 107.432 289.751 108.599 289.751C109.767 289.686 110.675 290.66 110.675 291.893Z" fill="#408BFF"/>
<path d="M116.644 291.893C116.644 293.062 115.736 294.035 114.568 294.035C113.465 294.035 112.492 293.062 112.492 291.893C112.492 290.725 113.4 289.751 114.568 289.751C115.671 289.686 116.644 290.66 116.644 291.893Z" fill="#408BFF"/>
<path d="M102.696 376.924C103.843 376.924 104.772 375.965 104.772 374.782C104.772 373.599 103.843 372.64 102.696 372.64C101.55 372.64 100.62 373.599 100.62 374.782C100.62 375.965 101.55 376.924 102.696 376.924Z" fill="#246AD6"/>
<path d="M108.664 376.924C109.811 376.924 110.74 375.965 110.74 374.782C110.74 373.599 109.811 372.64 108.664 372.64C107.518 372.64 106.588 373.599 106.588 374.782C106.588 375.965 107.518 376.924 108.664 376.924Z" fill="#408BFF"/>
<path d="M114.568 376.924C115.715 376.924 116.644 375.965 116.644 374.782C116.644 373.599 115.715 372.64 114.568 372.64C113.422 372.64 112.492 373.599 112.492 374.782C112.492 375.965 113.422 376.924 114.568 376.924Z" fill="#408BFF"/>
<path d="M145.253 90.1578H141.685V459.552H145.253V90.1578Z" fill="#2D76E6"/>
<path d="M145.578 459.487H144.994V138.515H8.23926V137.931H145.578V459.487Z" fill="#0B254D"/>
<path d="M142.009 270.084H137.728V293.127H142.009V270.084Z" fill="#265399"/>
<path d="M70.194 103.334H20.9546L17.1919 99.6345H70.194V103.334Z" fill="#265399"/>
<path d="M70.194 108.852H20.9546L17.1919 105.217H70.194V108.852Z" fill="#265399"/>
<path d="M70.194 114.434H20.9546L17.1919 110.734H70.194V114.434Z" fill="#265399"/>
<path d="M70.194 119.951H20.9546L17.1919 116.316H70.194V119.951Z" fill="#265399"/>
<path d="M70.194 125.533H20.9546L17.1919 121.833H70.194V125.533Z" fill="#265399"/>
<path d="M70.194 131.05H20.9546L17.1919 127.415H70.194V131.05Z" fill="#265399"/>
<path d="M132.149 103.334H82.9741L79.1465 99.6345H132.149V103.334Z" fill="#265399"/>
<path d="M132.149 108.852H82.9741L79.1465 105.217H132.149V108.852Z" fill="#265399"/>
<path d="M132.149 114.434H82.9741L79.1465 110.734H132.149V114.434Z" fill="#265399"/>
<path d="M132.149 119.951H82.9741L79.1465 116.316H132.149V119.951Z" fill="#265399"/>
<path d="M132.149 125.533H82.9741L79.1465 121.833H132.149V125.533Z" fill="#265399"/>
<path d="M132.149 131.05H82.9741L79.1465 127.415H132.149V131.05Z" fill="#265399"/>
<path d="M184.696 166.231H150.832V143.642H184.696V166.231ZM151.221 165.841H184.372V144.032H151.221V165.841Z" fill="#408BFF"/>
<path d="M184.696 197.516H150.832V174.928H184.696V197.516ZM151.221 197.127H184.372V175.318H151.221V197.127Z" fill="#408BFF"/>
<path d="M184.696 230.36H150.832V207.772H184.696V230.36ZM151.221 230.036H184.372V208.226H151.221V230.036Z" fill="#408BFF"/>
<path d="M184.696 261.646H150.832V239.058H184.696V261.646ZM151.221 261.321H184.372V239.512H151.221V261.321Z" fill="#408BFF"/>
<path d="M184.696 435.536H150.832V273.654H184.696V435.536ZM151.221 435.146H184.372V274.044H151.221V435.146Z" fill="#408BFF"/>
<path d="M190.989 459.552H39.3135C37.497 459.552 36.0049 461.045 36.0049 462.862V503.3C36.0049 505.118 37.497 506.611 39.3135 506.611H190.989C192.805 506.611 194.298 505.118 194.298 503.3V462.862C194.298 461.045 192.87 459.552 190.989 459.552Z" fill="#113873"/>
<path d="M147.329 459.357C120.86 459.357 27.8958 459.487 4.34656 459.552C1.94622 459.552 0 461.499 0 463.836V502.327C0 504.663 1.94622 506.611 4.34656 506.611C28.0256 506.675 119.887 506.935 147.329 507C149.729 507 151.676 505.053 151.676 502.716V463.706C151.74 461.304 149.729 459.357 147.329 459.357Z" fill="#1951A6"/>
<path d="M189.757 458.708H8.04443V459.487H189.757V458.708Z" fill="#0B254D"/>
<path d="M47.4877 471.56H9.53638C7.84966 471.56 6.4873 470.197 6.4873 468.509C6.4873 466.822 7.84966 465.458 9.53638 465.458H47.4228C49.1095 465.458 50.4719 466.822 50.4719 468.509C50.5368 470.197 49.1744 471.56 47.4877 471.56Z" fill="#408BFF"/>
<path d="M381.2 24.2108H325.603V451.958H381.2V24.2108Z" fill="#1B57B3"/>
<path d="M325.992 24.2758H170.878V452.023H325.992V24.2758Z" fill="#4096FF"/>
<path d="M315.483 86.0037H181.453V424.956H315.483V86.0037Z" fill="#265399"/>
<path d="M176.263 228.802C175.031 228.802 173.993 227.764 173.993 226.531V188.949C173.993 187.715 175.031 186.677 176.263 186.677C177.496 186.677 178.534 187.715 178.534 188.949V226.531C178.534 227.829 177.496 228.802 176.263 228.802Z" fill="#265399"/>
<path d="M325.992 119.172H320.997V145.849H325.992V119.172Z" fill="#265399"/>
<path d="M325.992 354.27H320.997V380.948H325.992V354.27Z" fill="#265399"/>
<path d="M312.239 139.099H186.837V180.316H312.239V139.099Z" fill="#408BFF"/>
<path d="M312.239 187.131H186.837V228.348H312.239V187.131Z" fill="#408BFF"/>
<path d="M312.239 235.098H186.837V276.315H312.239V235.098Z" fill="#408BFF"/>
<path d="M312.239 283.066H186.837V324.283H312.239V283.066Z" fill="#408BFF"/>
<path d="M312.239 331.033H186.837V372.25H312.239V331.033Z" fill="#408BFF"/>
<path d="M312.239 379.065H186.837V420.282H312.239V379.065Z" fill="#408BFF"/>
<path d="M312.239 91.1315H186.837V132.348H312.239V91.1315Z" fill="#408BFF"/>
<path d="M300.367 101.841H196.958V122.353H300.367V101.841Z" fill="#265399"/>
<path d="M275.325 107.424H201.174V116.835H275.325V107.424Z" fill="#40BEFF"/>
<path d="M280.451 114.693C281.776 114.693 282.851 113.56 282.851 112.162C282.851 110.764 281.776 109.63 280.451 109.63C279.125 109.63 278.05 110.764 278.05 112.162C278.05 113.56 279.125 114.693 280.451 114.693Z" fill="#246AD6"/>
<path d="M287.327 114.693C288.653 114.693 289.727 113.56 289.727 112.162C289.727 110.764 288.653 109.63 287.327 109.63C286.001 109.63 284.927 110.764 284.927 112.162C284.927 113.56 286.001 114.693 287.327 114.693Z" fill="#408BFF"/>
<path d="M294.204 114.693C295.53 114.693 296.604 113.56 296.604 112.162C296.604 110.764 295.53 109.63 294.204 109.63C292.878 109.63 291.804 110.764 291.804 112.162C291.804 113.56 292.878 114.693 294.204 114.693Z" fill="#408BFF"/>
<path d="M300.367 150.328H196.958V170.839H300.367V150.328Z" fill="#265399"/>
<path d="M275.325 155.975H201.174V165.387H275.325V155.975Z" fill="#40BEFF"/>
<path d="M300.367 198.88H196.958V219.391H300.367V198.88Z" fill="#265399"/>
<path d="M275.325 204.462H201.174V213.873H275.325V204.462Z" fill="#40BEFF"/>
<path d="M300.367 247.431H196.958V267.942H300.367V247.431Z" fill="#265399"/>
<path d="M275.325 253.013H201.174V262.425H275.325V253.013Z" fill="#40BEFF"/>
<path d="M300.367 294.684H196.958V315.196H300.367V294.684Z" fill="#265399"/>
<path d="M275.325 300.267H201.174V309.678H275.325V300.267Z" fill="#40BEFF"/>
<path d="M282.786 305.135C282.786 306.498 281.748 307.666 280.386 307.666C279.088 307.666 277.985 306.563 277.985 305.135C277.985 303.772 279.023 302.603 280.386 302.603C281.748 302.668 282.786 303.772 282.786 305.135Z" fill="#246AD6"/>
<path d="M289.663 305.135C289.663 306.498 288.625 307.666 287.262 307.666C285.9 307.666 284.862 306.563 284.862 305.135C284.862 303.772 285.9 302.603 287.262 302.603C288.625 302.603 289.663 303.772 289.663 305.135Z" fill="#408BFF"/>
<path d="M296.539 305.135C296.539 306.498 295.501 307.666 294.139 307.666C292.842 307.666 291.739 306.563 291.739 305.135C291.739 303.772 292.777 302.603 294.139 302.603C295.501 302.668 296.539 303.772 296.539 305.135Z" fill="#408BFF"/>
<path d="M300.367 343.366H196.958V363.877H300.367V343.366Z" fill="#265399"/>
<path d="M275.325 348.948H201.174V358.359H275.325V348.948Z" fill="#40BEFF"/>
<path d="M300.367 390.944H196.958V411.455H300.367V390.944Z" fill="#265399"/>
<path d="M275.325 396.591H201.174V406.002H275.325V396.591Z" fill="#40BEFF"/>
<path d="M282.786 401.589C282.786 402.952 281.748 404.12 280.386 404.12C279.088 404.12 277.985 403.017 277.985 401.589C277.985 400.225 279.023 399.057 280.386 399.057C281.748 399.057 282.786 400.161 282.786 401.589Z" fill="#246AD6"/>
<path d="M289.663 401.589C289.663 402.952 288.625 404.12 287.262 404.12C285.9 404.12 284.862 403.017 284.862 401.589C284.862 400.225 285.9 399.057 287.262 399.057C288.625 399.057 289.663 400.161 289.663 401.589Z" fill="#408BFF"/>
<path d="M296.539 401.589C296.539 402.952 295.501 404.12 294.139 404.12C292.842 404.12 291.739 403.017 291.739 401.589C291.739 400.225 292.777 399.057 294.139 399.057C295.501 399.057 296.539 400.161 296.539 401.589Z" fill="#408BFF"/>
<path d="M282.786 161.038C282.786 162.401 281.748 163.569 280.386 163.569C279.088 163.569 277.985 162.466 277.985 161.038C277.985 159.675 279.023 158.506 280.386 158.506C281.748 158.571 282.786 159.675 282.786 161.038Z" fill="#246AD6"/>
<path d="M289.663 161.038C289.663 162.401 288.625 163.569 287.262 163.569C285.9 163.569 284.862 162.466 284.862 161.038C284.862 159.675 285.9 158.506 287.262 158.506C288.625 158.506 289.663 159.675 289.663 161.038Z" fill="#408BFF"/>
<path d="M296.539 161.038C296.539 162.401 295.501 163.569 294.139 163.569C292.842 163.569 291.739 162.466 291.739 161.038C291.739 159.675 292.777 158.506 294.139 158.506C295.501 158.571 296.539 159.675 296.539 161.038Z" fill="#408BFF"/>
<path d="M282.786 209.07C282.786 210.433 281.748 211.602 280.386 211.602C279.088 211.602 277.985 210.498 277.985 209.07C277.985 207.707 279.023 206.539 280.386 206.539C281.748 206.539 282.786 207.707 282.786 209.07Z" fill="#246AD6"/>
<path d="M289.663 209.07C289.663 210.433 288.625 211.602 287.262 211.602C285.9 211.602 284.862 210.498 284.862 209.07C284.862 207.707 285.9 206.539 287.262 206.539C288.625 206.539 289.663 207.707 289.663 209.07Z" fill="#408BFF"/>
<path d="M296.539 209.07C296.539 210.433 295.501 211.602 294.139 211.602C292.842 211.602 291.739 210.498 291.739 209.07C291.739 207.707 292.777 206.539 294.139 206.539C295.501 206.539 296.539 207.707 296.539 209.07Z" fill="#408BFF"/>
<path d="M280.451 260.413C281.776 260.413 282.851 259.279 282.851 257.881C282.851 256.483 281.776 255.35 280.451 255.35C279.125 255.35 278.05 256.483 278.05 257.881C278.05 259.279 279.125 260.413 280.451 260.413Z" fill="#246AD6"/>
<path d="M287.327 260.413C288.653 260.413 289.727 259.279 289.727 257.881C289.727 256.483 288.653 255.35 287.327 255.35C286.001 255.35 284.927 256.483 284.927 257.881C284.927 259.279 286.001 260.413 287.327 260.413Z" fill="#408BFF"/>
<path d="M294.204 260.413C295.53 260.413 296.604 259.279 296.604 257.881C296.604 256.483 295.53 255.35 294.204 255.35C292.878 255.35 291.804 256.483 291.804 257.881C291.804 259.279 292.878 260.413 294.204 260.413Z" fill="#408BFF"/>
<path d="M282.786 353.881C282.786 355.244 281.748 356.412 280.386 356.412C279.088 356.412 277.985 355.309 277.985 353.881C277.985 352.518 279.023 351.349 280.386 351.349C281.748 351.414 282.786 352.518 282.786 353.881Z" fill="#246AD6"/>
<path d="M289.663 353.881C289.663 355.244 288.625 356.412 287.262 356.412C285.9 356.412 284.862 355.309 284.862 353.881C284.862 352.518 285.9 351.349 287.262 351.349C288.625 351.349 289.663 352.518 289.663 353.881Z" fill="#408BFF"/>
<path d="M296.539 353.881C296.539 355.244 295.501 356.412 294.139 356.412C292.842 356.412 291.739 355.309 291.739 353.881C291.739 352.518 292.777 351.349 294.139 351.349C295.501 351.414 296.539 352.518 296.539 353.881Z" fill="#408BFF"/>
<path d="M329.755 24.2108H325.603V451.958H329.755V24.2108Z" fill="#2D76E6"/>
<path d="M330.08 451.958H329.431V80.2268H171.073V79.5778H330.08V451.958Z" fill="#0B254D"/>
<path d="M325.992 232.632H320.997V259.309H325.992V232.632Z" fill="#265399"/>
<path d="M242.759 39.4643H185.8L181.388 35.2452H242.759V39.4643Z" fill="#265399"/>
<path d="M242.759 45.8902H185.8L181.388 41.6711H242.759V45.8902Z" fill="#265399"/>
<path d="M242.759 52.3811H185.8L181.388 48.0972H242.759V52.3811Z" fill="#265399"/>
<path d="M242.759 58.807H185.8L181.388 54.5231H242.759V58.807Z" fill="#265399"/>
<path d="M242.759 65.2329H185.8L181.388 60.949H242.759V65.2329Z" fill="#265399"/>
<path d="M242.759 71.6588H185.8L181.388 67.3749H242.759V71.6588Z" fill="#265399"/>
<path d="M314.574 39.4643H257.55L253.139 35.2452H314.574V39.4643Z" fill="#265399"/>
<path d="M314.574 45.8902H257.55L253.139 41.6711H314.574V45.8902Z" fill="#265399"/>
<path d="M314.574 52.3811H257.55L253.139 48.0972H314.574V52.3811Z" fill="#265399"/>
<path d="M314.574 58.807H257.55L253.139 54.5231H314.574V58.807Z" fill="#265399"/>
<path d="M314.574 65.2329H257.55L253.139 60.949H314.574V65.2329Z" fill="#265399"/>
<path d="M314.574 71.6588H257.55L253.139 67.3749H314.574V71.6588Z" fill="#265399"/>
<path d="M375.167 86.458H336.372V112.162H375.167V86.458Z" fill="#2370E6"/>
<path d="M375.167 122.677H336.372V148.381H375.167V122.677Z" fill="#2370E6"/>
<path d="M375.167 160.713H336.372V186.417H375.167V160.713Z" fill="#2370E6"/>
<path d="M375.167 196.932H336.372V222.636H375.167V196.932Z" fill="#2370E6"/>
<path d="M375.167 236.981H336.372V423.982H375.167V236.981Z" fill="#2370E6"/>
<path d="M382.692 452.087H207.013C204.872 452.087 203.186 453.775 203.186 455.917V502.716C203.186 504.858 204.872 506.546 207.013 506.546H382.692C384.833 506.546 386.52 504.858 386.52 502.716V455.917C386.52 453.775 384.833 452.087 382.692 452.087Z" fill="#113873"/>
<path d="M332.155 451.828C301.47 451.893 193.844 452.022 166.532 452.022C163.742 452.022 161.472 454.229 161.472 457.02V501.548C161.472 504.274 163.677 506.546 166.532 506.546C193.974 506.61 300.302 506.87 332.155 507C334.945 507 337.215 504.793 337.215 502.002V456.826C337.215 454.035 334.945 451.828 332.155 451.828Z" fill="#1951A6"/>
<path d="M381.265 451.049H170.813V451.893H381.265V451.049Z" fill="#0B254D"/>
<path d="M216.485 465.978H172.565C170.619 465.978 168.997 464.355 168.997 462.408C168.997 460.461 170.619 458.838 172.565 458.838H216.485C218.431 458.838 220.053 460.461 220.053 462.408C220.053 464.355 218.431 465.978 216.485 465.978Z" fill="#408BFF"/>
<path d="M601.188 0H387.882V449.231H601.188V0Z" fill="#4096FF"/>
<path d="M582.05 64.8435H402.024V420.802H582.05V64.8435Z" fill="#265399"/>
<path d="M395.407 214.847H394.693C393.201 214.847 391.969 213.614 391.969 212.121V173.241C391.969 171.748 393.201 170.515 394.693 170.515H395.407C396.899 170.515 398.132 171.748 398.132 173.241V212.121C398.132 213.614 396.899 214.847 395.407 214.847Z" fill="#265399"/>
<path d="M577.703 120.665H409.226V163.959H577.703V120.665Z" fill="#408BFF"/>
<path d="M577.703 171.034H409.226V214.328H577.703V171.034Z" fill="#408BFF"/>
<path d="M577.703 221.403H409.226V264.697H577.703V221.403Z" fill="#408BFF"/>
<path d="M577.703 271.837H409.226V315.131H577.703V271.837Z" fill="#408BFF"/>
<path d="M577.703 322.206H409.226V365.5H577.703V322.206Z" fill="#408BFF"/>
<path d="M577.703 372.639H409.226V415.933H577.703V372.639Z" fill="#408BFF"/>
<path d="M577.703 70.231H409.226V113.525H577.703V70.231Z" fill="#408BFF"/>
<path d="M561.745 81.4601H422.85V103.01H561.745V81.4601Z" fill="#265399"/>
<path d="M528.075 87.3668H428.493V97.2329H528.075V87.3668Z" fill="#40BEFF"/>
<path d="M561.745 132.413H422.85V153.963H561.745V132.413Z" fill="#265399"/>
<path d="M528.075 138.32H428.493V148.186H528.075V138.32Z" fill="#40BEFF"/>
<path d="M561.745 183.431H422.85V204.981H561.745V183.431Z" fill="#265399"/>
<path d="M528.075 189.273H428.493V199.139H528.075V189.273Z" fill="#40BEFF"/>
<path d="M561.745 234.385H422.85V255.934H561.745V234.385Z" fill="#265399"/>
<path d="M528.075 240.226H428.493V250.092H528.075V240.226Z" fill="#40BEFF"/>
<path d="M561.745 283.974H422.85V305.524H561.745V283.974Z" fill="#265399"/>
<path d="M528.075 289.881H428.493V299.747H528.075V289.881Z" fill="#40BEFF"/>
<path d="M561.745 335.122H422.85V356.672H561.745V335.122Z" fill="#265399"/>
<path d="M528.075 341.029H428.493V350.895H528.075V341.029Z" fill="#40BEFF"/>
<path d="M561.745 385.167H422.85V406.716H561.745V385.167Z" fill="#265399"/>
<path d="M528.075 391.009H428.493V400.875H528.075V391.009Z" fill="#40BEFF"/>
<path d="M601.253 58.093H388.077V58.8719H601.253V58.093Z" fill="#0B254D"/>
<path d="M484.35 11.5537H404.036V16.0324H484.35V11.5537Z" fill="#265399"/>
<path d="M484.35 18.3042H404.036V22.7829H484.35V18.3042Z" fill="#265399"/>
<path d="M484.35 25.0547H404.036V29.5334H484.35V25.0547Z" fill="#265399"/>
<path d="M484.35 31.8052H404.036V36.2839H484.35V31.8052Z" fill="#265399"/>
<path d="M484.35 38.5557H404.036V43.0344H484.35V38.5557Z" fill="#265399"/>
<path d="M484.35 45.3062H404.036V49.7848H484.35V45.3062Z" fill="#265399"/>
<path d="M604.432 449.037C563.236 449.102 418.697 449.231 382.043 449.231C378.281 449.231 375.296 451.568 375.296 454.489V501.288C375.296 504.144 378.281 506.481 382.043 506.481C418.892 506.546 561.744 506.87 604.432 506.935C608.194 506.935 611.243 504.598 611.243 501.678V454.229C611.178 451.373 608.194 449.037 604.432 449.037Z" fill="#1951A6"/>
<path d="M604.366 448.193H387.752V449.231H604.366V448.193Z" fill="#0B254D"/>
<path d="M450.096 463.901H389.05C386.974 463.901 385.287 462.213 385.287 460.136C385.287 458.059 386.974 456.371 389.05 456.371H450.096C452.172 456.371 453.859 458.059 453.859 460.136C453.859 462.213 452.172 463.901 450.096 463.901Z" fill="#408BFF"/>
</svg>
