<svg width="84" height="70" viewBox="0 0 84 70" fill="none" xmlns="http://www.w3.org/2000/svg">
<path d="M17.9867 34.1926C17.7042 34.1926 17.3275 34.0977 17.045 34.0027C-3.48411 24.5997 0.2827 2.27948 0.2827 2.08953C0.471041 1.04475 1.41275 0.284912 2.44862 0.284912C17.045 0.284912 22.2244 8.83308 22.4127 9.213C23.0719 10.2578 22.6953 11.6825 21.6594 12.2523C20.6235 12.9172 19.211 12.5373 18.6459 11.4925C18.4576 11.2076 14.8791 5.50879 4.4262 4.84393C4.14369 9.59292 4.52037 21.8453 16.48 28.6838C17.6101 25.0746 20.341 21.0855 25.7087 21.3704C26.9329 21.4654 27.8746 22.5101 27.7805 23.7449C27.6863 24.9796 26.6504 25.9294 25.4262 25.8344C20.8119 25.6445 20.1527 31.9131 20.1527 32.1981C20.0585 32.9579 19.6818 33.5278 19.0226 33.9077C18.7401 34.0977 18.3634 34.1926 17.9867 34.1926Z" fill="#FDC00F"/>
<path d="M65.9194 34.1926C66.2019 34.1926 66.5786 34.0977 66.8611 34.0027C87.4845 24.5997 83.7176 2.27948 83.7176 2.08953C83.5293 1.04475 82.5876 0.284912 81.5517 0.284912C66.9553 0.284912 61.7759 8.83308 61.5876 9.213C60.9284 10.2578 61.3051 11.6825 62.3409 12.2523C63.3768 12.9172 64.6952 12.5373 65.3544 11.4925C65.5427 11.2076 69.1212 5.50879 79.5741 4.84393C79.8566 9.59292 79.48 21.8453 67.5203 28.6838C66.3903 25.0746 63.6593 21.0855 58.2916 21.3704C57.0674 21.4654 56.1257 22.5101 56.2199 23.7449C56.314 24.9796 57.3499 25.9294 58.5741 25.8344C63.1885 25.6445 63.8477 31.9131 63.8477 32.1981C63.9418 32.9579 64.3185 33.5278 64.9777 33.9077C65.1661 34.0977 65.5427 34.1926 65.9194 34.1926Z" fill="#FDC00F"/>
<path d="M63.7535 32.1982C63.8477 32.958 64.2244 33.5279 64.8836 33.9078C65.2602 34.0978 65.6369 34.1927 66.0136 34.1927C66.2961 34.1927 66.6728 34.0978 66.9553 34.0028C76.5607 29.6337 80.8925 22.3203 82.7759 15.8617L79.1033 12.2524C78.0674 17.6663 75.1481 24.2199 67.5203 28.6839C66.3903 25.0747 63.6593 21.0856 58.2916 21.3705C57.0674 21.4655 56.1257 22.5102 56.2199 23.745C56.314 24.9797 57.3499 25.9295 58.5741 25.8345C63.0943 25.5496 63.7535 31.9132 63.7535 32.1982Z" fill="#F99B1D"/>
<path d="M61.4935 9.11804C60.8343 10.1628 61.211 11.5875 62.2468 12.1574C63.2827 12.8222 64.6011 12.4423 65.2603 11.3976C65.3545 11.2076 67.4262 7.97828 72.8881 6.07869L69.498 2.65942C63.9419 5.22387 61.6818 8.92808 61.4935 9.11804Z" fill="#F99B1D"/>
<path d="M66.8611 0H43.601H40.3992H17.0449C17.0449 38.7517 38.6099 20.1357 38.6099 40.0814C38.6099 54.8033 29.2871 60.502 29.2871 60.502V63.6364H40.3992H43.601H54.7131V60.502C54.7131 60.502 45.3902 54.8033 45.3902 40.0814C45.3902 20.1357 66.8611 38.7517 66.8611 0Z" fill="#F99B1D"/>
<path d="M66.8611 0H43.601H40.3992H17.0449C17.0449 38.7517 38.6099 20.1357 38.6099 40.0814C38.6099 54.8033 29.2871 60.502 29.2871 60.502V63.6364H40.3992H43.601H54.7131V60.502C54.7131 60.502 45.3902 54.8033 45.3902 40.0814C45.3902 20.1357 66.8611 38.7517 66.8611 0Z" fill="#F99B1D"/>
<path d="M40.87 40.0814C40.87 20.1357 58.9507 38.7517 58.9507 0H43.601H40.3992H39.3633H19.1167H17.0449C17.0449 38.7517 38.6099 20.1357 38.6099 40.0814C38.6099 54.8033 29.2871 60.502 29.2871 60.502V63.6364H39.3633H40.3992H43.601H48.6862V60.502C48.6862 60.502 40.87 54.8033 40.87 40.0814Z" fill="#FDC00F"/>
<path d="M47.7445 5.2239L48.8746 10.6377L42.0001 3.70422L35.4082 31.0584C37.2916 32.673 38.61 35.2375 38.61 39.9864L46.332 47.7748C45.7669 45.4953 45.3903 43.0258 45.3903 40.0814C45.3903 25.5495 56.8791 31.5333 63.0943 20.6106L47.7445 5.2239Z" fill="#F99B1D"/>
<path d="M26.368 1.99463H23.072H21.377C21.377 19.2809 26.4622 22.9851 31.2648 25.0747C28.4397 20.9906 26.368 14.247 26.368 1.99463Z" fill="white"/>
<path d="M57.6322 66.7707C57.6322 68.5753 56.2196 70 54.4304 70H29.4752C27.686 70 26.2734 68.5753 26.2734 66.7707C26.2734 64.9661 27.686 63.5414 29.4752 63.5414H54.5246C56.2196 63.6364 57.6322 65.0611 57.6322 66.7707Z" fill="#0069FF"/>
<path d="M38.61 39.7965C38.5158 35.1425 37.2916 32.673 35.4082 30.9634C37.2916 32.673 38.5158 35.1425 38.61 39.7965Z" fill="#D67503"/>
<path d="M57.5383 15.1018C53.3006 33.5279 40.8701 23.46 40.8701 40.0815C40.8701 40.8413 40.8701 41.6011 40.9643 42.361L46.332 47.7748C45.767 45.4953 45.3903 43.0258 45.3903 40.0815C45.3903 25.5496 56.8791 31.5333 63.0943 20.6106L57.5383 15.1018Z" fill="#D67503"/>
<path d="M47.1797 20.7056V33.5278L49.3456 35.3324V20.7056H47.1797Z" fill="#0069FF"/>
<path d="M36.7266 20.7056V33.5278L42.0001 29.0638L47.1795 33.5278V20.7056H36.7266Z" fill="#9FC8DD"/>
<path d="M34.6548 20.7056V35.3324L36.7265 33.5278V20.7056H34.6548Z" fill="#0069FF"/>
<path d="M36.7266 26.4993L39.0808 25.9294L42.0001 28.5889L44.8252 25.9294L47.1795 26.4993V20.7056H36.7266V26.4993Z" fill="#0069FF"/>
<path d="M47.1797 26.4993L48.5922 26.7843L49.3456 24.5048V20.7056H47.1797V26.4993Z" fill="#0069FF"/>
<path d="M34.6548 24.5048L35.314 26.7843L36.7265 26.4993V20.7056H34.6548V24.5048Z" fill="#0069FF"/>
<path d="M50.6638 15.1967C50.6638 20.0407 46.8028 23.9349 42.0001 23.9349C37.1974 23.9349 33.3364 20.0407 33.3364 15.1967C33.3364 10.3528 37.1974 6.45862 42.0001 6.45862C46.8028 6.45862 50.6638 10.3528 50.6638 15.1967Z" fill="#F99B1D"/>
<path d="M35.1255 15.1968C35.1255 18.996 38.2331 22.1303 41.9999 22.1303C45.7667 22.1303 48.8744 18.996 48.8744 15.1968C48.8744 11.3976 45.7667 8.26331 41.9999 8.26331C38.2331 8.26331 35.1255 11.3976 35.1255 15.1968Z" fill="#FDC00F"/>
<path d="M41.6234 10.2578C41.3409 10.1628 41.0584 10.1628 40.6817 10.1628C38.5158 10.1628 36.7266 11.9675 36.7266 14.152C36.7266 14.4369 36.8207 14.8168 36.8207 15.1018C37.2916 12.6323 39.175 10.7327 41.6234 10.2578Z" fill="white"/>
<path d="M53.3946 15.1968L51.1346 12.7273L51.7937 9.40302L48.5919 8.35824L47.5561 5.12894L44.2601 5.79379L41.8117 3.51428L39.5516 5.88877L36.2556 5.22392L35.2198 8.45322L32.018 9.40302L32.6771 12.7273L30.5112 15.1968L32.7713 17.6663L32.018 20.9905L35.2198 22.0353L36.2556 25.2646L39.5516 24.5998L42 26.8793L44.4485 24.5998L47.7444 25.2646L48.7803 22.0353L51.9821 20.9905L51.3229 17.6663L53.3946 15.1968ZM42 23.8399C37.2915 23.8399 33.4305 19.9458 33.4305 15.1968C33.4305 10.4478 37.2915 6.55363 42 6.55363C46.7085 6.55363 50.5695 10.4478 50.5695 15.1968C50.5695 19.9458 46.7085 23.8399 42 23.8399Z" fill="#D67503"/>
<path d="M39.9283 24.1249L41.9059 25.9295L43.8835 24.1249C42.6593 24.5048 41.2467 24.5048 39.9283 24.1249ZM35.7848 21.9404L36.6324 24.5998L39.2691 24.0299C37.9507 23.555 36.7265 22.8902 35.7848 21.9404ZM44.731 24.0299L47.3678 24.5998L48.2153 21.9404C47.1794 22.8902 45.9552 23.555 44.731 24.0299ZM32.6772 20.6107L35.314 21.4655C34.3723 20.5157 33.7131 19.2809 33.2422 17.9512L32.6772 20.6107ZM50.6637 17.9512C50.2871 19.2809 49.5337 20.5157 48.592 21.4655L51.2288 20.6107L50.6637 17.9512ZM31.2646 15.1968L33.0539 17.1914C32.8655 16.5265 32.8655 15.8617 32.8655 15.1968C32.8655 14.532 32.9597 13.7721 33.0539 13.2022L31.2646 15.1968ZM50.8521 13.2022C51.0404 13.8671 51.0404 14.532 51.0404 15.1968C51.0404 15.8617 50.9463 16.6215 50.8521 17.1914L52.7355 15.1968L50.8521 13.2022ZM32.6772 9.78298L33.2422 12.4424C33.6189 11.1127 34.3723 9.87796 35.314 8.92816L32.6772 9.78298ZM48.6862 8.92816C49.6279 9.97294 50.2871 11.1127 50.7579 12.4424L51.3229 9.78298L48.6862 8.92816ZM36.6324 5.79384L35.7848 8.45327C36.8207 7.50347 37.9507 6.83861 39.2691 6.36371L36.6324 5.79384ZM44.6368 6.36371C45.9552 6.74363 47.1794 7.50347 48.1211 8.45327L47.2736 5.79384L44.6368 6.36371ZM42.0001 4.36914L40.0225 6.17375C41.3409 5.88882 42.7534 5.88882 44.0718 6.17375L42.0001 4.36914Z" fill="#0069FF"/>
<path d="M40.3989 18.5211V19.7559H41.1523H42.7532H43.6007V18.5211H42.7532V10.6378H42.2823H41.1523H40.8698L40.3989 11.8726H41.1523V18.5211H40.3989Z" fill="#F99B1D"/>
<path d="M33.4307 60.4071H36.7266C36.7266 60.4071 38.9867 55.2782 40.1168 46.3501C38.5159 56.4179 33.4307 60.4071 33.4307 60.4071Z" fill="white"/>
</svg>
