<svg width="414" height="226" viewBox="0 0 414 226" fill="none" xmlns="http://www.w3.org/2000/svg">
<path d="M69.1125 40.1887H47.5723V204.85H69.1125V40.1887Z" fill="#1B57B3"/>
<path d="M47.7185 40.1887H-12.3613V204.821H47.7185V40.1887Z" fill="#4096FF"/>
<path d="M43.6434 63.9722H-8.28613V194.434H43.6434V63.9722Z" fill="#265399"/>
<path d="M47.719 76.7318H45.7979V87.0032H47.719V76.7318Z" fill="#265399"/>
<path d="M47.719 167.207H45.7979V177.478H47.719V167.207Z" fill="#265399"/>
<path d="M42.3916 84.3992H-6.19043V100.284H42.3916V84.3992Z" fill="#408BFF"/>
<path d="M42.3916 102.859H-6.19043V118.743H42.3916V102.859Z" fill="#408BFF"/>
<path d="M42.3916 121.347H-6.19043V137.232H42.3916V121.347Z" fill="#408BFF"/>
<path d="M42.3916 139.807H-6.19043V155.691H42.3916V139.807Z" fill="#408BFF"/>
<path d="M42.3916 158.267H-6.19043V174.151H42.3916V158.267Z" fill="#408BFF"/>
<path d="M42.3916 176.755H-6.19043V192.64H42.3916V176.755Z" fill="#408BFF"/>
<path d="M42.3916 65.9396H-6.19043V81.8241H42.3916V65.9396Z" fill="#408BFF"/>
<path d="M37.7925 70.0481H-2.26074V77.947H37.7925V70.0481Z" fill="#265399"/>
<path d="M28.0992 72.2181H-0.630859V75.8348H28.0992V72.2181Z" fill="#40BEFF"/>
<path d="M31.0104 74.0119C31.0104 74.5328 30.6029 74.9668 30.0789 74.9668C29.5841 74.9668 29.1475 74.5328 29.1475 74.0119C29.1475 73.4911 29.555 73.0571 30.0789 73.0571C30.6029 73.0571 31.0104 73.4911 31.0104 74.0119Z" fill="#246AD6"/>
<path d="M33.6598 74.0119C33.6598 74.5328 33.2523 74.9668 32.7283 74.9668C32.2335 74.9668 31.7969 74.5328 31.7969 74.0119C31.7969 73.4911 32.2044 73.0571 32.7283 73.0571C33.2523 73.0571 33.6598 73.4911 33.6598 74.0119Z" fill="#408BFF"/>
<path d="M36.3376 74.0119C36.3376 74.5328 35.93 74.9668 35.4061 74.9668C34.9112 74.9668 34.4746 74.5328 34.4746 74.0119C34.4746 73.4911 34.8821 73.0571 35.4061 73.0571C35.9009 73.0571 36.3376 73.4911 36.3376 74.0119Z" fill="#408BFF"/>
<path d="M37.7925 88.7393H-2.26074V96.6381H37.7925V88.7393Z" fill="#265399"/>
<path d="M28.0992 90.8804H-0.630859V94.4971H28.0992V90.8804Z" fill="#40BEFF"/>
<path d="M37.7925 107.401H-2.26074V115.3H37.7925V107.401Z" fill="#265399"/>
<path d="M28.0992 109.571H-0.630859V113.188H28.0992V109.571Z" fill="#40BEFF"/>
<path d="M37.7925 126.092H-2.26074V133.991H37.7925V126.092Z" fill="#265399"/>
<path d="M28.0992 128.233H-0.630859V131.85H28.0992V128.233Z" fill="#40BEFF"/>
<path d="M37.7925 144.263H-2.26074V152.162H37.7925V144.263Z" fill="#265399"/>
<path d="M28.0992 146.433H-0.630859V150.049H28.0992V146.433Z" fill="#40BEFF"/>
<path d="M31.0104 148.313C31.0104 148.834 30.6029 149.268 30.0789 149.268C29.5841 149.268 29.1475 148.834 29.1475 148.313C29.1475 147.793 29.555 147.359 30.0789 147.359C30.6029 147.359 31.0104 147.764 31.0104 148.313Z" fill="#246AD6"/>
<path d="M33.6598 148.313C33.6598 148.834 33.2523 149.268 32.7283 149.268C32.2335 149.268 31.7969 148.834 31.7969 148.313C31.7969 147.793 32.2044 147.359 32.7283 147.359C33.2523 147.359 33.6598 147.764 33.6598 148.313Z" fill="#408BFF"/>
<path d="M36.3376 148.313C36.3376 148.834 35.93 149.268 35.4061 149.268C34.9112 149.268 34.4746 148.834 34.4746 148.313C34.4746 147.793 34.8821 147.359 35.4061 147.359C35.9009 147.359 36.3376 147.764 36.3376 148.313Z" fill="#408BFF"/>
<path d="M37.7925 163.012H-2.26074V170.911H37.7925V163.012Z" fill="#265399"/>
<path d="M28.0992 165.182H-0.630859V168.798H28.0992V165.182Z" fill="#40BEFF"/>
<path d="M37.7925 181.327H-2.26074V189.225H37.7925V181.327Z" fill="#265399"/>
<path d="M28.0992 183.497H-0.630859V187.113H28.0992V183.497Z" fill="#40BEFF"/>
<path d="M31.0104 185.406C31.0104 185.927 30.6029 186.361 30.0789 186.361C29.5841 186.361 29.1475 185.927 29.1475 185.406C29.1475 184.885 29.555 184.451 30.0789 184.451C30.6029 184.451 31.0104 184.885 31.0104 185.406Z" fill="#246AD6"/>
<path d="M33.6598 185.406C33.6598 185.927 33.2523 186.361 32.7283 186.361C32.2335 186.361 31.7969 185.927 31.7969 185.406C31.7969 184.885 32.2044 184.451 32.7283 184.451C33.2523 184.451 33.6598 184.885 33.6598 185.406Z" fill="#408BFF"/>
<path d="M36.3376 185.406C36.3376 185.927 35.93 186.361 35.4061 186.361C34.9112 186.361 34.4746 185.927 34.4746 185.406C34.4746 184.885 34.8821 184.451 35.4061 184.451C35.9009 184.451 36.3376 184.885 36.3376 185.406Z" fill="#408BFF"/>
<path d="M30.0789 93.8026C30.5934 93.8026 31.0104 93.3751 31.0104 92.8478C31.0104 92.3204 30.5934 91.8929 30.0789 91.8929C29.5645 91.8929 29.1475 92.3204 29.1475 92.8478C29.1475 93.3751 29.5645 93.8026 30.0789 93.8026Z" fill="#246AD6"/>
<path d="M32.7567 93.8026C33.2711 93.8026 33.6881 93.3751 33.6881 92.8478C33.6881 92.3204 33.2711 91.8929 32.7567 91.8929C32.2422 91.8929 31.8252 92.3204 31.8252 92.8478C31.8252 93.3751 32.2422 93.8026 32.7567 93.8026Z" fill="#408BFF"/>
<path d="M35.4061 93.8026C35.9205 93.8026 36.3376 93.3751 36.3376 92.8478C36.3376 92.3204 35.9205 91.8929 35.4061 91.8929C34.8917 91.8929 34.4746 92.3204 34.4746 92.8478C34.4746 93.3751 34.8917 93.8026 35.4061 93.8026Z" fill="#408BFF"/>
<path d="M31.0104 111.336C31.0104 111.857 30.6029 112.291 30.0789 112.291C29.5841 112.291 29.1475 111.857 29.1475 111.336C29.1475 110.815 29.555 110.381 30.0789 110.381C30.6029 110.353 31.0104 110.787 31.0104 111.336Z" fill="#246AD6"/>
<path d="M33.6598 111.336C33.6598 111.857 33.2523 112.291 32.7283 112.291C32.2335 112.291 31.7969 111.857 31.7969 111.336C31.7969 110.815 32.2044 110.381 32.7283 110.381C33.2523 110.353 33.6598 110.787 33.6598 111.336Z" fill="#408BFF"/>
<path d="M36.3376 111.336C36.3376 111.857 35.93 112.291 35.4061 112.291C34.9112 112.291 34.4746 111.857 34.4746 111.336C34.4746 110.815 34.8821 110.381 35.4061 110.381C35.9009 110.353 36.3376 110.787 36.3376 111.336Z" fill="#408BFF"/>
<path d="M31.0104 130.114C31.0104 130.635 30.6029 131.069 30.0789 131.069C29.5841 131.069 29.1475 130.635 29.1475 130.114C29.1475 129.593 29.555 129.159 30.0789 129.159C30.6029 129.131 31.0104 129.565 31.0104 130.114Z" fill="#246AD6"/>
<path d="M33.6598 130.114C33.6598 130.635 33.2523 131.069 32.7283 131.069C32.2335 131.069 31.7969 130.635 31.7969 130.114C31.7969 129.593 32.2044 129.159 32.7283 129.159C33.2523 129.131 33.6598 129.565 33.6598 130.114Z" fill="#408BFF"/>
<path d="M36.3376 130.114C36.3376 130.635 35.93 131.069 35.4061 131.069C34.9112 131.069 34.4746 130.635 34.4746 130.114C34.4746 129.593 34.8821 129.159 35.4061 129.159C35.9009 129.131 36.3376 129.565 36.3376 130.114Z" fill="#408BFF"/>
<path d="M30.0789 168.017C30.5934 168.017 31.0104 167.59 31.0104 167.062C31.0104 166.535 30.5934 166.108 30.0789 166.108C29.5645 166.108 29.1475 166.535 29.1475 167.062C29.1475 167.59 29.5645 168.017 30.0789 168.017Z" fill="#246AD6"/>
<path d="M32.7567 168.017C33.2711 168.017 33.6881 167.59 33.6881 167.062C33.6881 166.535 33.2711 166.108 32.7567 166.108C32.2422 166.108 31.8252 166.535 31.8252 167.062C31.8252 167.59 32.2422 168.017 32.7567 168.017Z" fill="#408BFF"/>
<path d="M35.4061 168.017C35.9205 168.017 36.3376 167.59 36.3376 167.062C36.3376 166.535 35.9205 166.108 35.4061 166.108C34.8917 166.108 34.4746 166.535 34.4746 167.062C34.4746 167.59 34.8917 168.017 35.4061 168.017Z" fill="#408BFF"/>
<path d="M49.1732 40.1887H47.5723V204.85H49.1732V40.1887Z" fill="#2D76E6"/>
<path d="M49.3189 204.821H49.0569V61.7442H-12.3037V61.4838H49.3189V204.821Z" fill="#0B254D"/>
<path d="M47.719 120.393H45.7979V130.664H47.719V120.393Z" fill="#265399"/>
<path d="M15.4955 46.0623H-6.59784L-8.28613 44.4131H15.4955V46.0623Z" fill="#265399"/>
<path d="M15.4955 48.5216H-6.59784L-8.28613 46.9014H15.4955V48.5216Z" fill="#265399"/>
<path d="M15.4955 51.0099H-6.59784L-8.28613 49.3607H15.4955V51.0099Z" fill="#265399"/>
<path d="M15.4955 53.4693H-6.59784L-8.28613 51.849H15.4955V53.4693Z" fill="#265399"/>
<path d="M15.4955 55.9576H-6.59784L-8.28613 54.3083H15.4955V55.9576Z" fill="#265399"/>
<path d="M15.4955 58.4169H-6.59784L-8.28613 56.7966H15.4955V58.4169Z" fill="#265399"/>
<path d="M43.2943 46.0623H21.2301L19.5127 44.4131H43.2943V46.0623Z" fill="#265399"/>
<path d="M43.2943 48.5216H21.2301L19.5127 46.9014H43.2943V48.5216Z" fill="#265399"/>
<path d="M43.2943 51.0099H21.2301L19.5127 49.3607H43.2943V51.0099Z" fill="#265399"/>
<path d="M43.2943 53.4693H21.2301L19.5127 51.849H43.2943V53.4693Z" fill="#265399"/>
<path d="M43.2943 55.9576H21.2301L19.5127 54.3083H43.2943V55.9576Z" fill="#265399"/>
<path d="M43.2943 58.4169H21.2301L19.5127 56.7966H43.2943V58.4169Z" fill="#265399"/>
<path d="M66.8724 74.0988H51.6777V64.0299H66.8724V74.0988ZM51.8524 73.9252H66.7268V64.2035H51.8524V73.9252Z" fill="#408BFF"/>
<path d="M66.8724 88.0447H51.6777V77.9758H66.8724V88.0447ZM51.8524 87.8711H66.7268V78.1494H51.8524V87.8711Z" fill="#408BFF"/>
<path d="M66.8724 102.685H51.6777V92.6162H66.8724V102.685ZM51.8524 102.54H66.7268V92.8187H51.8524V102.54Z" fill="#408BFF"/>
<path d="M66.8724 116.631H51.6777V106.562H66.8724V116.631ZM51.8524 116.486H66.7268V106.765H51.8524V116.486Z" fill="#408BFF"/>
<path d="M66.8724 194.144H51.6777V121.984H66.8724V194.144ZM51.8524 193.97H66.7268V122.157H51.8524V193.97Z" fill="#408BFF"/>
<path d="M69.6954 204.85H1.63981C0.824768 204.85 0.155273 205.515 0.155273 206.325V224.351C0.155273 225.161 0.824768 225.827 1.63981 225.827H69.6954C70.5105 225.827 71.1799 225.161 71.1799 224.351V206.325C71.1799 205.515 70.5396 204.85 69.6954 204.85Z" fill="#113873"/>
<path d="M50.1053 204.763C38.2291 204.763 -3.48336 204.821 -14.0497 204.85C-15.1267 204.85 -16 205.718 -16 206.759V223.917C-16 224.959 -15.1267 225.827 -14.0497 225.827C-3.42514 225.855 37.7925 225.971 50.1053 226C51.1824 226 52.0556 225.132 52.0556 224.091V206.701C52.0847 205.631 51.1824 204.763 50.1053 204.763Z" fill="#1951A6"/>
<path d="M69.1422 204.474H-12.3906V204.821H69.1422V204.474Z" fill="#0B254D"/>
<path d="M5.30768 210.202H-11.7208C-12.4776 210.202 -13.0889 209.595 -13.0889 208.842C-13.0889 208.09 -12.4776 207.483 -11.7208 207.483H5.27858C6.03539 207.483 6.64668 208.09 6.64668 208.842C6.67578 209.595 6.0645 210.202 5.30768 210.202Z" fill="#408BFF"/>
<path d="M344.88 204.812H366.42V40.1512H344.88V204.812Z" fill="#1B57B3"/>
<path d="M366.268 204.835H426.348V40.203H366.268V204.835Z" fill="#4096FF"/>
<path d="M370.343 194.412H422.272V63.9507H370.343V194.412Z" fill="#265399"/>
<path d="M366.28 87.0065H368.201V76.735H366.28V87.0065Z" fill="#265399"/>
<path d="M366.28 177.485H368.201V167.214H366.28V177.485Z" fill="#265399"/>
<path d="M371.594 100.274H420.176V84.389H371.594V100.274Z" fill="#408BFF"/>
<path d="M371.594 118.753H420.176V102.868H371.594V118.753Z" fill="#408BFF"/>
<path d="M371.594 137.203H420.176V121.318H371.594V137.203Z" fill="#408BFF"/>
<path d="M371.594 155.682H420.176V139.797H371.594V155.682Z" fill="#408BFF"/>
<path d="M371.594 174.161H420.176V158.277H371.594V174.161Z" fill="#408BFF"/>
<path d="M371.594 192.611H420.176V176.727H371.594V192.611Z" fill="#408BFF"/>
<path d="M371.594 81.7944H420.176V65.9099H371.594V81.7944Z" fill="#408BFF"/>
<path d="M376.199 77.9436H416.252V70.0448H376.199V77.9436Z" fill="#265399"/>
<path d="M385.912 75.8179H414.643V72.2012H385.912V75.8179Z" fill="#40BEFF"/>
<path d="M382.989 74.0121C382.989 74.5329 383.397 74.9669 383.921 74.9669C384.416 74.9669 384.852 74.5329 384.852 74.0121C384.852 73.4913 384.445 73.0573 383.921 73.0573C383.426 73.0573 382.989 73.4913 382.989 74.0121Z" fill="#246AD6"/>
<path d="M380.341 74.0121C380.341 74.5329 380.748 74.9669 381.272 74.9669C381.796 74.9669 382.204 74.5329 382.204 74.0121C382.204 73.4913 381.796 73.0573 381.272 73.0573C380.748 73.0573 380.341 73.4913 380.341 74.0121Z" fill="#408BFF"/>
<path d="M377.663 74.0121C377.663 74.5329 378.071 74.9669 378.595 74.9669C379.089 74.9669 379.526 74.5329 379.526 74.0121C379.526 73.4913 379.118 73.0573 378.595 73.0573C378.1 73.0573 377.663 73.4913 377.663 74.0121Z" fill="#408BFF"/>
<path d="M376.199 96.6055H416.252V88.7066H376.199V96.6055Z" fill="#265399"/>
<path d="M385.912 94.5085H414.643V90.8918H385.912V94.5085Z" fill="#40BEFF"/>
<path d="M376.199 115.296H416.252V107.397H376.199V115.296Z" fill="#265399"/>
<path d="M385.912 113.17H414.643V109.553H385.912V113.17Z" fill="#40BEFF"/>
<path d="M376.199 133.958H416.252V126.059H376.199V133.958Z" fill="#265399"/>
<path d="M385.912 131.861H414.643V128.244H385.912V131.861Z" fill="#40BEFF"/>
<path d="M376.199 152.16H416.252V144.262H376.199V152.16Z" fill="#265399"/>
<path d="M385.912 150.035H414.643V146.418H385.912V150.035Z" fill="#40BEFF"/>
<path d="M382.989 148.313C382.989 148.834 383.397 149.268 383.921 149.268C384.416 149.268 384.852 148.834 384.852 148.313C384.852 147.793 384.445 147.359 383.921 147.359C383.426 147.359 382.989 147.764 382.989 148.313Z" fill="#246AD6"/>
<path d="M380.341 148.313C380.341 148.834 380.748 149.268 381.272 149.268C381.796 149.268 382.204 148.834 382.204 148.313C382.204 147.793 381.796 147.359 381.272 147.359C380.748 147.359 380.341 147.764 380.341 148.313Z" fill="#408BFF"/>
<path d="M377.663 148.313C377.663 148.834 378.071 149.268 378.595 149.268C379.089 149.268 379.526 148.834 379.526 148.313C379.526 147.793 379.118 147.359 378.595 147.359C378.1 147.359 377.663 147.764 377.663 148.313Z" fill="#408BFF"/>
<path d="M376.199 170.904H416.252V163.005H376.199V170.904Z" fill="#265399"/>
<path d="M385.912 168.778H414.643V165.162H385.912V168.778Z" fill="#40BEFF"/>
<path d="M376.199 189.242H416.252V181.343H376.199V189.242Z" fill="#265399"/>
<path d="M385.912 187.116H414.643V183.499H385.912V187.116Z" fill="#40BEFF"/>
<path d="M382.989 185.406C382.989 185.927 383.397 186.361 383.921 186.361C384.416 186.361 384.852 185.927 384.852 185.406C384.852 184.886 384.445 184.452 383.921 184.452C383.426 184.452 382.989 184.886 382.989 185.406Z" fill="#246AD6"/>
<path d="M380.341 185.406C380.341 185.927 380.748 186.361 381.272 186.361C381.796 186.361 382.204 185.927 382.204 185.406C382.204 184.886 381.796 184.452 381.272 184.452C380.748 184.452 380.341 184.886 380.341 185.406Z" fill="#408BFF"/>
<path d="M377.663 185.406C377.663 185.927 378.071 186.361 378.595 186.361C379.089 186.361 379.526 185.927 379.526 185.406C379.526 184.886 379.118 184.452 378.595 184.452C378.1 184.452 377.663 184.886 377.663 185.406Z" fill="#408BFF"/>
<path d="M383.922 93.8026C384.436 93.8026 384.853 93.3751 384.853 92.8478C384.853 92.3204 384.436 91.8929 383.922 91.8929C383.407 91.8929 382.99 92.3204 382.99 92.8478C382.99 93.3751 383.407 93.8026 383.922 93.8026Z" fill="#246AD6"/>
<path d="M381.272 93.8026C381.787 93.8026 382.204 93.3751 382.204 92.8478C382.204 92.3204 381.787 91.8929 381.272 91.8929C380.758 91.8929 380.341 92.3204 380.341 92.8478C380.341 93.3751 380.758 93.8026 381.272 93.8026Z" fill="#408BFF"/>
<path d="M378.595 93.8026C379.109 93.8026 379.526 93.3751 379.526 92.8478C379.526 92.3204 379.109 91.8929 378.595 91.8929C378.08 91.8929 377.663 92.3204 377.663 92.8478C377.663 93.3751 378.08 93.8026 378.595 93.8026Z" fill="#408BFF"/>
<path d="M382.99 111.336C382.99 111.857 383.398 112.291 383.922 112.291C384.417 112.291 384.853 111.857 384.853 111.336C384.853 110.815 384.446 110.381 383.922 110.381C383.427 110.353 382.99 110.787 382.99 111.336Z" fill="#246AD6"/>
<path d="M380.341 111.336C380.341 111.857 380.748 112.291 381.272 112.291C381.796 112.291 382.204 111.857 382.204 111.336C382.204 110.815 381.796 110.381 381.272 110.381C380.748 110.381 380.341 110.787 380.341 111.336Z" fill="#408BFF"/>
<path d="M377.663 111.336C377.663 111.857 378.071 112.291 378.595 112.291C379.089 112.291 379.526 111.857 379.526 111.336C379.526 110.815 379.118 110.381 378.595 110.381C378.1 110.353 377.663 110.787 377.663 111.336Z" fill="#408BFF"/>
<path d="M382.99 130.114C382.99 130.635 383.398 131.069 383.922 131.069C384.417 131.069 384.853 130.635 384.853 130.114C384.853 129.593 384.446 129.159 383.922 129.159C383.427 129.13 382.99 129.564 382.99 130.114Z" fill="#246AD6"/>
<path d="M380.341 130.114C380.341 130.635 380.748 131.069 381.272 131.069C381.796 131.069 382.204 130.635 382.204 130.114C382.204 129.593 381.796 129.159 381.272 129.159C380.748 129.159 380.341 129.564 380.341 130.114Z" fill="#408BFF"/>
<path d="M377.663 130.114C377.663 130.635 378.071 131.069 378.595 131.069C379.089 131.069 379.526 130.635 379.526 130.114C379.526 129.593 379.118 129.159 378.595 129.159C378.1 129.13 377.663 129.564 377.663 130.114Z" fill="#408BFF"/>
<path d="M383.922 168.017C384.436 168.017 384.853 167.59 384.853 167.062C384.853 166.535 384.436 166.108 383.922 166.108C383.407 166.108 382.99 166.535 382.99 167.062C382.99 167.59 383.407 168.017 383.922 168.017Z" fill="#246AD6"/>
<path d="M381.272 168.017C381.787 168.017 382.204 167.59 382.204 167.062C382.204 166.535 381.787 166.108 381.272 166.108C380.758 166.108 380.341 166.535 380.341 167.062C380.341 167.59 380.758 168.017 381.272 168.017Z" fill="#408BFF"/>
<path d="M378.595 168.017C379.109 168.017 379.526 167.59 379.526 167.062C379.526 166.535 379.109 166.108 378.595 166.108C378.08 166.108 377.663 166.535 377.663 167.062C377.663 167.59 378.08 168.017 378.595 168.017Z" fill="#408BFF"/>
<path d="M364.807 204.812H366.408V40.1512H364.807V204.812Z" fill="#2D76E6"/>
<path d="M364.943 204.821H364.681V61.4839H426.303V61.7443H364.943V204.821Z" fill="#0B254D"/>
<path d="M366.28 130.671H368.201V120.399H366.28V130.671Z" fill="#265399"/>
<path d="M398.505 46.0623H420.598L422.316 44.4131H398.505V46.0623Z" fill="#265399"/>
<path d="M398.505 48.5216H420.598L422.316 46.9014H398.505V48.5216Z" fill="#265399"/>
<path d="M398.505 51.0099H420.598L422.316 49.3607H398.505V51.0099Z" fill="#265399"/>
<path d="M398.505 53.4693H420.598L422.316 51.849H398.505V53.4693Z" fill="#265399"/>
<path d="M398.505 55.9576H420.598L422.316 54.3083H398.505V55.9576Z" fill="#265399"/>
<path d="M398.505 58.4169H420.598L422.316 56.7966H398.505V58.4169Z" fill="#265399"/>
<path d="M370.706 46.0623H392.77L394.488 44.4131H370.706V46.0623Z" fill="#265399"/>
<path d="M370.706 48.5216H392.77L394.488 46.9014H370.706V48.5216Z" fill="#265399"/>
<path d="M370.706 51.0099H392.77L394.488 49.3607H370.706V51.0099Z" fill="#265399"/>
<path d="M370.706 53.4693H392.77L394.488 51.849H370.706V53.4693Z" fill="#265399"/>
<path d="M370.706 55.9576H392.77L394.488 54.3083H370.706V55.9576Z" fill="#265399"/>
<path d="M370.706 58.4169H392.77L394.488 56.7966H370.706V58.4169Z" fill="#265399"/>
<path d="M362.323 74.0989H347.128V64.03H362.323V74.0989ZM347.303 73.9253H362.177V64.2036H347.303V73.9253Z" fill="#408BFF"/>
<path d="M362.323 88.0449H347.128V77.9761H362.323V88.0449ZM347.303 87.8713H362.177V78.1497H347.303V87.8713Z" fill="#408BFF"/>
<path d="M362.323 102.685H347.128V92.6163H362.323V102.685ZM347.303 102.541H362.177V92.8189H347.303V102.541Z" fill="#408BFF"/>
<path d="M362.323 116.631H347.128V106.562H362.323V116.631ZM347.303 116.486H362.177V106.765H347.303V116.486Z" fill="#408BFF"/>
<path d="M362.323 194.144H347.128V121.984H362.323V194.144ZM347.303 193.971H362.177V122.157H347.303V193.971Z" fill="#408BFF"/>
<path d="M344.305 204.851H412.36C413.175 204.851 413.845 205.517 413.845 206.327V224.352C413.845 225.162 413.175 225.828 412.36 225.828H344.305C343.49 225.828 342.82 225.162 342.82 224.352V206.327C342.82 205.517 343.49 204.851 344.305 204.851Z" fill="#113873"/>
<path d="M363.895 204.763C375.771 204.763 417.483 204.821 428.05 204.849C429.127 204.849 430 205.717 430 206.759V223.917C430 224.958 429.127 225.826 428.05 225.826C417.425 225.855 376.207 225.971 363.895 226C362.818 226 361.944 225.132 361.944 224.09V206.701C361.944 205.631 362.818 204.763 363.895 204.763Z" fill="#1951A6"/>
<path d="M426.391 204.473H344.858V204.821H426.391V204.473Z" fill="#0B254D"/>
<path d="M408.693 210.202H425.693C426.449 210.202 427.061 209.595 427.061 208.842C427.061 208.09 426.449 207.483 425.693 207.483H408.693C407.936 207.483 407.325 208.09 407.325 208.842C407.325 209.595 407.936 210.202 408.693 210.202Z" fill="#408BFF"/>
<path d="M155.042 10.7922H130.096V201.464H155.042V10.7922Z" fill="#1B57B3"/>
<path d="M130.27 10.8223H60.6719V201.494H130.27V10.8223Z" fill="#4096FF"/>
<path d="M125.555 38.3369H65.417V189.428H125.555V38.3369Z" fill="#265399"/>
<path d="M63.0881 101.991C62.5351 101.991 62.0693 101.528 62.0693 100.978V84.2256C62.0693 83.6758 62.5351 83.2129 63.0881 83.2129C63.6412 83.2129 64.1069 83.6758 64.1069 84.2256V100.978C64.1069 101.557 63.6412 101.991 63.0881 101.991Z" fill="#265399"/>
<path d="M130.271 53.1219H128.029V65.0136H130.271V53.1219Z" fill="#265399"/>
<path d="M130.271 157.919H128.029V169.811H130.271V157.919Z" fill="#265399"/>
<path d="M124.1 62.0045H67.833V80.3773H124.1V62.0045Z" fill="#408BFF"/>
<path d="M124.1 83.4154H67.833V101.788H124.1V83.4154Z" fill="#408BFF"/>
<path d="M124.1 104.797H67.833V123.17H124.1V104.797Z" fill="#408BFF"/>
<path d="M124.1 126.179H67.833V144.552H124.1V126.179Z" fill="#408BFF"/>
<path d="M124.1 147.561H67.833V165.934H124.1V147.561Z" fill="#408BFF"/>
<path d="M124.1 168.972H67.833V187.345H124.1V168.972Z" fill="#408BFF"/>
<path d="M124.1 40.6227H67.833V58.9955H124.1V40.6227Z" fill="#408BFF"/>
<path d="M118.773 45.3967H72.374V54.5397H118.773V45.3967Z" fill="#265399"/>
<path d="M107.537 47.885H74.2656V52.0804H107.537V47.885Z" fill="#40BEFF"/>
<path d="M109.836 51.1256C110.431 51.1256 110.913 50.6204 110.913 49.9972C110.913 49.374 110.431 48.8688 109.836 48.8688C109.241 48.8688 108.759 49.374 108.759 49.9972C108.759 50.6204 109.241 51.1256 109.836 51.1256Z" fill="#246AD6"/>
<path d="M112.921 51.1256C113.516 51.1256 113.998 50.6204 113.998 49.9972C113.998 49.374 113.516 48.8688 112.921 48.8688C112.326 48.8688 111.844 49.374 111.844 49.9972C111.844 50.6204 112.326 51.1256 112.921 51.1256Z" fill="#408BFF"/>
<path d="M116.007 51.1256C116.602 51.1256 117.084 50.6204 117.084 49.9972C117.084 49.374 116.602 48.8688 116.007 48.8688C115.412 48.8688 114.93 49.374 114.93 49.9972C114.93 50.6204 115.412 51.1256 116.007 51.1256Z" fill="#408BFF"/>
<path d="M118.773 67.0101H72.374V76.1531H118.773V67.0101Z" fill="#265399"/>
<path d="M107.537 69.5273H74.2656V73.7227H107.537V69.5273Z" fill="#40BEFF"/>
<path d="M118.773 88.6523H72.374V97.7954H118.773V88.6523Z" fill="#265399"/>
<path d="M107.537 91.1406H74.2656V95.336H107.537V91.1406Z" fill="#40BEFF"/>
<path d="M118.773 110.295H72.374V119.438H118.773V110.295Z" fill="#265399"/>
<path d="M107.537 112.783H74.2656V116.978H107.537V112.783Z" fill="#40BEFF"/>
<path d="M118.773 131.358H72.374V140.501H118.773V131.358Z" fill="#265399"/>
<path d="M107.537 133.847H74.2656V138.042H107.537V133.847Z" fill="#40BEFF"/>
<path d="M110.885 136.017C110.885 136.624 110.419 137.145 109.807 137.145C109.225 137.145 108.73 136.653 108.73 136.017C108.73 135.409 109.196 134.888 109.807 134.888C110.419 134.917 110.885 135.409 110.885 136.017Z" fill="#246AD6"/>
<path d="M113.969 136.017C113.969 136.624 113.504 137.145 112.892 137.145C112.281 137.145 111.815 136.653 111.815 136.017C111.815 135.409 112.281 134.888 112.892 134.888C113.504 134.888 113.969 135.409 113.969 136.017Z" fill="#408BFF"/>
<path d="M117.055 136.017C117.055 136.624 116.59 137.145 115.978 137.145C115.396 137.145 114.901 136.653 114.901 136.017C114.901 135.409 115.367 134.888 115.978 134.888C116.59 134.917 117.055 135.409 117.055 136.017Z" fill="#408BFF"/>
<path d="M118.773 153.059H72.374V162.202H118.773V153.059Z" fill="#265399"/>
<path d="M107.537 155.547H74.2656V159.742H107.537V155.547Z" fill="#40BEFF"/>
<path d="M118.773 174.267H72.374V183.41H118.773V174.267Z" fill="#265399"/>
<path d="M107.537 176.784H74.2656V180.979H107.537V176.784Z" fill="#40BEFF"/>
<path d="M110.885 179.012C110.885 179.62 110.419 180.14 109.807 180.14C109.225 180.14 108.73 179.648 108.73 179.012C108.73 178.404 109.196 177.884 109.807 177.884C110.419 177.884 110.885 178.375 110.885 179.012Z" fill="#246AD6"/>
<path d="M113.969 179.012C113.969 179.62 113.504 180.14 112.892 180.14C112.281 180.14 111.815 179.648 111.815 179.012C111.815 178.404 112.281 177.884 112.892 177.884C113.504 177.884 113.969 178.375 113.969 179.012Z" fill="#408BFF"/>
<path d="M117.055 179.012C117.055 179.62 116.59 180.14 115.978 180.14C115.396 180.14 114.901 179.648 114.901 179.012C114.901 178.404 115.367 177.884 115.978 177.884C116.59 177.884 117.055 178.375 117.055 179.012Z" fill="#408BFF"/>
<path d="M110.885 71.7842C110.885 72.3918 110.419 72.9126 109.807 72.9126C109.225 72.9126 108.73 72.4207 108.73 71.7842C108.73 71.1766 109.196 70.6558 109.807 70.6558C110.419 70.6847 110.885 71.1766 110.885 71.7842Z" fill="#246AD6"/>
<path d="M113.969 71.7842C113.969 72.3918 113.504 72.9126 112.892 72.9126C112.281 72.9126 111.815 72.4207 111.815 71.7842C111.815 71.1766 112.281 70.6558 112.892 70.6558C113.504 70.6558 113.969 71.1766 113.969 71.7842Z" fill="#408BFF"/>
<path d="M117.055 71.7842C117.055 72.3918 116.59 72.9126 115.978 72.9126C115.396 72.9126 114.901 72.4207 114.901 71.7842C114.901 71.1766 115.367 70.6558 115.978 70.6558C116.59 70.6847 117.055 71.1766 117.055 71.7842Z" fill="#408BFF"/>
<path d="M110.885 93.1949C110.885 93.8025 110.419 94.3233 109.807 94.3233C109.225 94.3233 108.73 93.8315 108.73 93.1949C108.73 92.5873 109.196 92.0665 109.807 92.0665C110.419 92.0665 110.885 92.5873 110.885 93.1949Z" fill="#246AD6"/>
<path d="M113.969 93.1949C113.969 93.8025 113.504 94.3233 112.892 94.3233C112.281 94.3233 111.815 93.8315 111.815 93.1949C111.815 92.5873 112.281 92.0665 112.892 92.0665C113.504 92.0665 113.969 92.5873 113.969 93.1949Z" fill="#408BFF"/>
<path d="M117.055 93.1949C117.055 93.8025 116.59 94.3233 115.978 94.3233C115.396 94.3233 114.901 93.8315 114.901 93.1949C114.901 92.5873 115.367 92.0665 115.978 92.0665C116.59 92.0665 117.055 92.5873 117.055 93.1949Z" fill="#408BFF"/>
<path d="M109.837 116.081C110.432 116.081 110.914 115.576 110.914 114.953C110.914 114.33 110.432 113.825 109.837 113.825C109.242 113.825 108.76 114.33 108.76 114.953C108.76 115.576 109.242 116.081 109.837 116.081Z" fill="#246AD6"/>
<path d="M112.922 116.081C113.517 116.081 113.999 115.576 113.999 114.953C113.999 114.33 113.517 113.825 112.922 113.825C112.327 113.825 111.845 114.33 111.845 114.953C111.845 115.576 112.327 116.081 112.922 116.081Z" fill="#408BFF"/>
<path d="M116.008 116.081C116.603 116.081 117.085 115.576 117.085 114.953C117.085 114.33 116.603 113.825 116.008 113.825C115.413 113.825 114.931 114.33 114.931 114.953C114.931 115.576 115.413 116.081 116.008 116.081Z" fill="#408BFF"/>
<path d="M110.885 157.746C110.885 158.353 110.419 158.874 109.807 158.874C109.225 158.874 108.73 158.382 108.73 157.746C108.73 157.138 109.196 156.617 109.807 156.617C110.419 156.646 110.885 157.138 110.885 157.746Z" fill="#246AD6"/>
<path d="M113.969 157.746C113.969 158.353 113.504 158.874 112.892 158.874C112.281 158.874 111.815 158.382 111.815 157.746C111.815 157.138 112.281 156.617 112.892 156.617C113.504 156.617 113.969 157.138 113.969 157.746Z" fill="#408BFF"/>
<path d="M117.055 157.746C117.055 158.353 116.59 158.874 115.978 158.874C115.396 158.874 114.901 158.382 114.901 157.746C114.901 157.138 115.367 156.617 115.978 156.617C116.59 156.646 117.055 157.138 117.055 157.746Z" fill="#408BFF"/>
<path d="M131.959 10.7922H130.096V201.464H131.959V10.7922Z" fill="#2D76E6"/>
<path d="M132.105 201.464H131.814V35.7619H60.7598V35.4725H132.105V201.464Z" fill="#0B254D"/>
<path d="M130.271 103.698H128.029V115.59H130.271V103.698Z" fill="#265399"/>
<path d="M92.9243 17.5916H67.3671L65.3877 15.7109H92.9243V17.5916Z" fill="#265399"/>
<path d="M92.9243 20.456H67.3671L65.3877 18.5753H92.9243V20.456Z" fill="#265399"/>
<path d="M92.9243 23.3494H67.3671L65.3877 21.4398H92.9243V23.3494Z" fill="#265399"/>
<path d="M92.9243 26.2138H67.3671L65.3877 24.3042H92.9243V26.2138Z" fill="#265399"/>
<path d="M92.9243 29.0782H67.3671L65.3877 27.1686H92.9243V29.0782Z" fill="#265399"/>
<path d="M92.9243 31.9427H67.3671L65.3877 30.0331H92.9243V31.9427Z" fill="#265399"/>
<path d="M125.147 17.5916H99.5604L97.5811 15.7109H125.147V17.5916Z" fill="#265399"/>
<path d="M125.147 20.456H99.5604L97.5811 18.5753H125.147V20.456Z" fill="#265399"/>
<path d="M125.147 23.3494H99.5604L97.5811 21.4398H125.147V23.3494Z" fill="#265399"/>
<path d="M125.147 26.2138H99.5604L97.5811 24.3042H125.147V26.2138Z" fill="#265399"/>
<path d="M125.147 29.0782H99.5604L97.5811 27.1686H125.147V29.0782Z" fill="#265399"/>
<path d="M125.147 31.9427H99.5604L97.5811 30.0331H125.147V31.9427Z" fill="#265399"/>
<path d="M152.335 38.5396H134.928V49.9972H152.335V38.5396Z" fill="#2370E6"/>
<path d="M152.335 54.6844H134.928V66.1421H152.335V54.6844Z" fill="#2370E6"/>
<path d="M152.335 71.6395H134.928V83.0972H152.335V71.6395Z" fill="#2370E6"/>
<path d="M152.335 87.7844H134.928V99.2421H152.335V87.7844Z" fill="#2370E6"/>
<path d="M152.335 105.636H134.928V188.994H152.335V105.636Z" fill="#2370E6"/>
<path d="M155.711 201.522H76.8854C75.9248 201.522 75.168 202.274 75.168 203.229V224.09C75.168 225.045 75.9248 225.797 76.8854 225.797H155.711C156.672 225.797 157.429 225.045 157.429 224.09V203.229C157.429 202.274 156.672 201.522 155.711 201.522Z" fill="#113873"/>
<path d="M133.036 201.406C119.267 201.435 70.9763 201.493 58.7216 201.493C57.47 201.493 56.4512 202.477 56.4512 203.721V223.57C56.4512 224.785 57.4409 225.797 58.7216 225.797C71.0345 225.826 118.743 225.942 133.036 226C134.287 226 135.306 225.016 135.306 223.772V203.634C135.306 202.39 134.287 201.406 133.036 201.406Z" fill="#1951A6"/>
<path d="M155.07 201.059H60.6426V201.435H155.07V201.059Z" fill="#0B254D"/>
<path d="M81.1355 207.714H61.4291C60.5558 207.714 59.8281 206.991 59.8281 206.123C59.8281 205.255 60.5558 204.531 61.4291 204.531H81.1355C82.0088 204.531 82.7365 205.255 82.7365 206.123C82.7365 206.991 82.0088 207.714 81.1355 207.714Z" fill="#408BFF"/>
<path d="M256.993 201.48H281.939V10.8077H256.993V201.48Z" fill="#1B57B3"/>
<path d="M281.751 201.477H351.35V10.8053H281.751V201.477Z" fill="#4096FF"/>
<path d="M286.495 189.435H346.633V38.3438H286.495V189.435Z" fill="#265399"/>
<path d="M348.961 101.991C349.514 101.991 349.98 101.528 349.98 100.978V84.2256C349.98 83.6758 349.514 83.2129 348.961 83.2129C348.408 83.2129 347.942 83.6758 347.942 84.2256V100.978C347.942 101.557 348.379 101.991 348.961 101.991Z" fill="#265399"/>
<path d="M281.767 65.0381H284.008V53.1464H281.767V65.0381Z" fill="#265399"/>
<path d="M281.767 169.808H284.008V157.916H281.767V169.808Z" fill="#265399"/>
<path d="M287.933 80.4001H344.199V62.0274L287.933 62.0274V80.4001Z" fill="#408BFF"/>
<path d="M287.933 101.769H344.199V83.3961H287.933V101.769Z" fill="#408BFF"/>
<path d="M287.933 123.167H344.199V104.794H287.933V123.167Z" fill="#408BFF"/>
<path d="M287.933 144.564H344.199V126.192H287.933V144.564Z" fill="#408BFF"/>
<path d="M287.933 165.962H344.199V147.589H287.933V165.962Z" fill="#408BFF"/>
<path d="M287.933 187.331H344.199V168.958H287.933V187.331Z" fill="#408BFF"/>
<path d="M287.933 59.0024L344.199 59.0024V40.6296L287.933 40.6296V59.0024Z" fill="#408BFF"/>
<path d="M293.255 54.527L339.654 54.527V45.384L293.255 45.384V54.527Z" fill="#265399"/>
<path d="M304.509 52.0898L337.78 52.0898V47.8945L304.509 47.8945V52.0898Z" fill="#40BEFF"/>
<path d="M302.213 51.1256C302.808 51.1256 303.29 50.6204 303.29 49.9972C303.29 49.374 302.808 48.8688 302.213 48.8688C301.618 48.8688 301.136 49.374 301.136 49.9972C301.136 50.6204 301.618 51.1256 302.213 51.1256Z" fill="#246AD6"/>
<path d="M299.127 51.1256C299.722 51.1256 300.204 50.6204 300.204 49.9972C300.204 49.374 299.722 48.8688 299.127 48.8688C298.532 48.8688 298.05 49.374 298.05 49.9972C298.05 50.6204 298.532 51.1256 299.127 51.1256Z" fill="#408BFF"/>
<path d="M296.042 51.1256C296.637 51.1256 297.119 50.6204 297.119 49.9972C297.119 49.374 296.637 48.8688 296.042 48.8688C295.447 48.8688 294.965 49.374 294.965 49.9972C294.965 50.6204 295.447 51.1256 296.042 51.1256Z" fill="#408BFF"/>
<path d="M293.255 76.1729H339.654V67.0298H293.255V76.1729Z" fill="#265399"/>
<path d="M304.509 73.7067H337.78V69.5113H304.509V73.7067Z" fill="#40BEFF"/>
<path d="M293.255 97.7896H339.654V88.6466H293.255V97.7896Z" fill="#265399"/>
<path d="M304.509 95.3524H337.78V91.1571H304.509V95.3524Z" fill="#40BEFF"/>
<path d="M293.255 119.406H339.654V110.263H293.255V119.406Z" fill="#265399"/>
<path d="M304.509 116.969H337.78V112.774H304.509V116.969Z" fill="#408BFF"/>
<path d="M293.255 140.467H339.654V131.324H293.255V140.467Z" fill="#265399"/>
<path d="M304.509 138.03H337.78V133.835H304.509V138.03Z" fill="#408BFF"/>
<path d="M301.136 136.017C301.136 136.624 301.601 137.145 302.213 137.145C302.795 137.145 303.29 136.653 303.29 136.017C303.29 135.409 302.824 134.888 302.213 134.888C301.631 134.917 301.136 135.409 301.136 136.017Z" fill="#246AD6"/>
<path d="M298.05 136.017C298.05 136.624 298.516 137.145 299.127 137.145C299.709 137.145 300.204 136.653 300.204 136.017C300.204 135.409 299.738 134.888 299.127 134.888C298.545 134.917 298.05 135.409 298.05 136.017Z" fill="#408BFF"/>
<path d="M294.965 136.017C294.965 136.624 295.431 137.145 296.042 137.145C296.624 137.145 297.119 136.653 297.119 136.017C297.119 135.409 296.653 134.888 296.042 134.888C295.46 134.917 294.965 135.409 294.965 136.017Z" fill="#408BFF"/>
<path d="M293.255 162.188H339.654V153.045H293.255V162.188Z" fill="#265399"/>
<path d="M304.509 159.751H337.78V155.556H304.509V159.751Z" fill="#408BFF"/>
<path d="M293.255 183.428H339.654V174.285H293.255V183.428Z" fill="#265399"/>
<path d="M304.509 180.962H337.78V176.767H304.509V180.962Z" fill="#408BFF"/>
<path d="M301.136 179.012C301.136 179.62 301.601 180.14 302.213 180.14C302.795 180.14 303.29 179.649 303.29 179.012C303.29 178.404 302.824 177.884 302.213 177.884C301.631 177.884 301.136 178.375 301.136 179.012Z" fill="#246AD6"/>
<path d="M298.05 179.012C298.05 179.62 298.516 180.14 299.127 180.14C299.709 180.14 300.204 179.649 300.204 179.012C300.204 178.404 299.738 177.884 299.127 177.884C298.545 177.884 298.05 178.375 298.05 179.012Z" fill="#408BFF"/>
<path d="M294.965 179.012C294.965 179.62 295.431 180.14 296.042 180.14C296.624 180.14 297.119 179.649 297.119 179.012C297.119 178.404 296.653 177.884 296.042 177.884C295.46 177.884 294.965 178.375 294.965 179.012Z" fill="#408BFF"/>
<path d="M301.137 71.7842C301.137 72.3918 301.602 72.9126 302.214 72.9126C302.796 72.9126 303.291 72.4207 303.291 71.7842C303.291 71.1766 302.825 70.6558 302.214 70.6558C301.632 70.6847 301.137 71.1766 301.137 71.7842Z" fill="#246AD6"/>
<path d="M298.051 71.7842C298.051 72.3918 298.517 72.9126 299.128 72.9126C299.71 72.9126 300.205 72.4207 300.205 71.7842C300.205 71.1766 299.739 70.6558 299.128 70.6558C298.546 70.6847 298.051 71.1766 298.051 71.7842Z" fill="#408BFF"/>
<path d="M294.966 71.7842C294.966 72.3918 295.432 72.9126 296.043 72.9126C296.625 72.9126 297.12 72.4207 297.12 71.7842C297.12 71.1766 296.654 70.6558 296.043 70.6558C295.461 70.6847 294.966 71.1766 294.966 71.7842Z" fill="#408BFF"/>
<path d="M301.137 93.1951C301.137 93.8027 301.602 94.3235 302.214 94.3235C302.796 94.3235 303.291 93.8316 303.291 93.1951C303.291 92.5875 302.825 92.0667 302.214 92.0667C301.632 92.0667 301.137 92.5875 301.137 93.1951Z" fill="#246AD6"/>
<path d="M298.051 93.1951C298.051 93.8027 298.517 94.3235 299.128 94.3235C299.71 94.3235 300.205 93.8316 300.205 93.1951C300.205 92.5875 299.739 92.0667 299.128 92.0667C298.546 92.0667 298.051 92.5875 298.051 93.1951Z" fill="#408BFF"/>
<path d="M294.966 93.1951C294.966 93.8027 295.432 94.3235 296.043 94.3235C296.625 94.3235 297.12 93.8316 297.12 93.1951C297.12 92.5875 296.654 92.0667 296.043 92.0667C295.461 92.0667 294.966 92.5875 294.966 93.1951Z" fill="#408BFF"/>
<path d="M302.214 116.081C302.809 116.081 303.291 115.576 303.291 114.953C303.291 114.33 302.809 113.825 302.214 113.825C301.619 113.825 301.137 114.33 301.137 114.953C301.137 115.576 301.619 116.081 302.214 116.081Z" fill="#246AD6"/>
<path d="M299.128 116.081C299.723 116.081 300.205 115.576 300.205 114.953C300.205 114.33 299.723 113.825 299.128 113.825C298.533 113.825 298.051 114.33 298.051 114.953C298.051 115.576 298.533 116.081 299.128 116.081Z" fill="#408BFF"/>
<path d="M296.043 116.081C296.638 116.081 297.12 115.576 297.12 114.953C297.12 114.33 296.638 113.825 296.043 113.825C295.448 113.825 294.966 114.33 294.966 114.953C294.966 115.576 295.448 116.081 296.043 116.081Z" fill="#408BFF"/>
<path d="M301.137 157.746C301.137 158.353 301.602 158.874 302.214 158.874C302.796 158.874 303.291 158.382 303.291 157.746C303.291 157.138 302.825 156.617 302.214 156.617C301.632 156.646 301.137 157.138 301.137 157.746Z" fill="#246AD6"/>
<path d="M298.051 157.746C298.051 158.353 298.517 158.874 299.128 158.874C299.71 158.874 300.205 158.382 300.205 157.746C300.205 157.138 299.739 156.617 299.128 156.617C298.546 156.646 298.051 157.138 298.051 157.746Z" fill="#408BFF"/>
<path d="M294.966 157.746C294.966 158.353 295.432 158.874 296.043 158.874C296.625 158.874 297.12 158.382 297.12 157.746C297.12 157.138 296.654 156.617 296.043 156.617C295.461 156.646 294.966 157.138 294.966 157.746Z" fill="#408BFF"/>
<path d="M280.073 201.48H281.936V10.8077H280.073V201.48Z" fill="#2D76E6"/>
<path d="M280.236 201.464H279.945V35.4725H351.29V35.7619H280.236V201.464Z" fill="#0B254D"/>
<path d="M281.767 115.595H284.008V103.704H281.767V115.595Z" fill="#265399"/>
<path d="M319.096 17.5916H344.682L346.661 15.7109H319.096V17.5916Z" fill="#265399"/>
<path d="M319.096 20.456H344.682L346.661 18.5753H319.096V20.456Z" fill="#265399"/>
<path d="M319.096 23.3494H344.682L346.661 21.4398H319.096V23.3494Z" fill="#265399"/>
<path d="M319.096 26.2138H344.682L346.661 24.3042H319.096V26.2138Z" fill="#265399"/>
<path d="M319.096 29.0782H344.682L346.661 27.1686H319.096V29.0782Z" fill="#265399"/>
<path d="M319.096 31.9427H344.682L346.661 30.0331H319.096V31.9427Z" fill="#265399"/>
<path d="M286.902 17.5916H312.489L314.439 15.7109H286.902V17.5916Z" fill="#265399"/>
<path d="M286.902 20.456H312.489L314.439 18.5753H286.902V20.456Z" fill="#265399"/>
<path d="M286.902 23.3494H312.489L314.439 21.4398H286.902V23.3494Z" fill="#265399"/>
<path d="M286.902 26.2138H312.489L314.439 24.3042H286.902V26.2138Z" fill="#265399"/>
<path d="M286.902 29.0782H312.489L314.439 27.1686H286.902V29.0782Z" fill="#265399"/>
<path d="M286.902 31.9427H312.489L314.439 30.0331H286.902V31.9427Z" fill="#265399"/>
<path d="M259.698 49.9801H277.104V38.5224H259.698V49.9801Z" fill="#2370E6"/>
<path d="M259.698 66.1268H277.104V54.6691H259.698V66.1268Z" fill="#2370E6"/>
<path d="M259.698 83.1188H277.104V71.6611H259.698V83.1188Z" fill="#2370E6"/>
<path d="M259.698 99.2655H277.104V87.8078H259.698V99.2655Z" fill="#2370E6"/>
<path d="M259.698 189.018H277.104V105.66H259.698V189.018Z" fill="#2370E6"/>
<path d="M256.309 201.522H335.135C336.096 201.522 336.852 202.274 336.852 203.229V224.09C336.852 225.045 336.096 225.797 335.135 225.797H256.309C255.349 225.797 254.592 225.045 254.592 224.09V203.229C254.592 202.274 255.378 201.522 256.309 201.522Z" fill="#113873"/>
<path d="M279.014 201.406C292.782 201.435 341.073 201.493 353.328 201.493C354.579 201.493 355.598 202.477 355.598 203.721V223.57C355.598 224.785 354.608 225.797 353.328 225.797C341.015 225.826 293.306 225.942 279.014 226C277.762 226 276.743 225.016 276.743 223.772V203.634C276.743 202.39 277.762 201.406 279.014 201.406Z" fill="#1951A6"/>
<path d="M351.377 201.059H256.949V201.435H351.377V201.059Z" fill="#0B254D"/>
<path d="M330.914 207.714H350.621C351.494 207.714 352.222 206.991 352.222 206.123C352.222 205.255 351.494 204.531 350.621 204.531H330.914C330.041 204.531 329.313 205.255 329.313 206.123C329.313 206.991 330.041 207.714 330.914 207.714Z" fill="#408BFF"/>
<path d="M253.748 0H158.039V200.249H253.748V0Z" fill="#4096FF"/>
<path d="M245.161 28.9047H164.385V187.576H245.161V28.9047Z" fill="#265399"/>
<path d="M161.416 95.7701H161.096C160.426 95.7701 159.873 95.2204 159.873 94.5549V77.2237C159.873 76.5583 160.426 76.0085 161.096 76.0085H161.416C162.085 76.0085 162.638 76.5583 162.638 77.2237V94.5549C162.638 95.2204 162.085 95.7701 161.416 95.7701Z" fill="#265399"/>
<path d="M243.21 53.7875H167.615V73.0862H243.21V53.7875Z" fill="#408BFF"/>
<path d="M243.21 76.24H167.615V95.5387H243.21V76.24Z" fill="#408BFF"/>
<path d="M243.21 98.6924H167.615V117.991H243.21V98.6924Z" fill="#408BFF"/>
<path d="M243.21 121.174H167.615V140.473H243.21V121.174Z" fill="#408BFF"/>
<path d="M243.21 143.626H167.615V162.925H243.21V143.626Z" fill="#408BFF"/>
<path d="M243.21 166.108H167.615V185.406H243.21V166.108Z" fill="#408BFF"/>
<path d="M243.21 31.3062H167.615V50.6048H243.21V31.3062Z" fill="#408BFF"/>
<path d="M236.049 36.3116H173.728V45.9176H236.049V36.3116Z" fill="#265399"/>
<path d="M220.941 38.9446H176.26V43.3425H220.941V38.9446Z" fill="#40BEFF"/>
<path d="M224.027 42.6192C224.815 42.6192 225.453 41.9585 225.453 41.1436C225.453 40.3286 224.815 39.668 224.027 39.668C223.239 39.668 222.601 40.3286 222.601 41.1436C222.601 41.9585 223.239 42.6192 224.027 42.6192Z" fill="#40BEFF"/>
<path d="M228.189 42.6192C228.977 42.6192 229.615 41.9585 229.615 41.1436C229.615 40.3286 228.977 39.668 228.189 39.668C227.401 39.668 226.763 40.3286 226.763 41.1436C226.763 41.9585 227.401 42.6192 228.189 42.6192Z" fill="#40BEFF"/>
<path d="M233.749 41.1436C233.749 41.9537 233.109 42.6192 232.323 42.6192C231.537 42.6192 230.896 41.9537 230.896 41.1436C230.896 40.3334 231.537 39.668 232.323 39.668C233.109 39.668 233.749 40.3334 233.749 41.1436Z" fill="#408BFF"/>
<path d="M236.049 59.0245H173.728V68.6305H236.049V59.0245Z" fill="#265399"/>
<path d="M220.941 61.6575H176.26V66.0554H220.941V61.6575Z" fill="#40BEFF"/>
<path d="M236.049 81.7662H173.728V91.3722H236.049V81.7662Z" fill="#265399"/>
<path d="M220.941 84.3702H176.26V88.7681H220.941V84.3702Z" fill="#40BEFF"/>
<path d="M236.049 104.479H173.728V114.085H236.049V104.479Z" fill="#265399"/>
<path d="M220.941 107.083H176.26V111.481H220.941V107.083Z" fill="#40BEFF"/>
<path d="M236.049 126.584H173.728V136.19H236.049V126.584Z" fill="#265399"/>
<path d="M220.941 129.217H176.26V133.615H220.941V129.217Z" fill="#40BEFF"/>
<path d="M236.049 149.384H173.728V158.99H236.049V149.384Z" fill="#265399"/>
<path d="M220.941 152.017H176.26V156.415H220.941V152.017Z" fill="#40BEFF"/>
<path d="M236.049 171.692H173.728V181.298H236.049V171.692Z" fill="#265399"/>
<path d="M220.941 174.296H176.26V178.694H220.941V174.296Z" fill="#40BEFF"/>
<path d="M224.32 65.4477C225.108 65.4477 225.746 64.787 225.746 63.9721C225.746 63.1571 225.108 62.4965 224.32 62.4965C223.532 62.4965 222.894 63.1571 222.894 63.9721C222.894 64.787 223.532 65.4477 224.32 65.4477Z" fill="#246AD6"/>
<path d="M228.454 65.4477C229.241 65.4477 229.88 64.787 229.88 63.9721C229.88 63.1571 229.241 62.4965 228.454 62.4965C227.666 62.4965 227.027 63.1571 227.027 63.9721C227.027 64.787 227.666 65.4477 228.454 65.4477Z" fill="#40BEFF"/>
<path d="M232.587 65.4477C233.375 65.4477 234.014 64.787 234.014 63.9721C234.014 63.1571 233.375 62.4965 232.587 62.4965C231.8 62.4965 231.161 63.1571 231.161 63.9721C231.161 64.787 231.8 65.4477 232.587 65.4477Z" fill="#40BEFF"/>
<path d="M223.999 87.987C224.786 87.987 225.425 87.3263 225.425 86.5114C225.425 85.6964 224.786 85.0358 223.999 85.0358C223.211 85.0358 222.572 85.6964 222.572 86.5114C222.572 87.3263 223.211 87.987 223.999 87.987Z" fill="#40BEFF"/>
<path d="M228.131 87.987C228.919 87.987 229.558 87.3263 229.558 86.5114C229.558 85.6964 228.919 85.0358 228.131 85.0358C227.344 85.0358 226.705 85.6964 226.705 86.5114C226.705 87.3263 227.344 87.987 228.131 87.987Z" fill="#40BEFF"/>
<path d="M232.294 87.987C233.082 87.987 233.721 87.3263 233.721 86.5114C233.721 85.6964 233.082 85.0358 232.294 85.0358C231.507 85.0358 230.868 85.6964 230.868 86.5114C230.868 87.3263 231.507 87.987 232.294 87.987Z" fill="#408BFF"/>
<path d="M223.999 110.729C224.786 110.729 225.425 110.068 225.425 109.253C225.425 108.438 224.786 107.777 223.999 107.777C223.211 107.777 222.572 108.438 222.572 109.253C222.572 110.068 223.211 110.729 223.999 110.729Z" fill="#40BEFF"/>
<path d="M228.131 110.729C228.919 110.729 229.558 110.068 229.558 109.253C229.558 108.438 228.919 107.777 228.131 107.777C227.344 107.777 226.705 108.438 226.705 109.253C226.705 110.068 227.344 110.729 228.131 110.729Z" fill="#40BEFF"/>
<path d="M232.294 110.729C233.082 110.729 233.721 110.068 233.721 109.253C233.721 108.438 233.082 107.777 232.294 107.777C231.507 107.777 230.868 108.438 230.868 109.253C230.868 110.068 231.507 110.729 232.294 110.729Z" fill="#408BFF"/>
<path d="M223.795 132.805C224.583 132.805 225.222 132.144 225.222 131.329C225.222 130.514 224.583 129.854 223.795 129.854C223.008 129.854 222.369 130.514 222.369 131.329C222.369 132.144 223.008 132.805 223.795 132.805Z" fill="#246AD6"/>
<path d="M227.958 132.805C228.745 132.805 229.384 132.144 229.384 131.329C229.384 130.514 228.745 129.854 227.958 129.854C227.17 129.854 226.531 130.514 226.531 131.329C226.531 132.144 227.17 132.805 227.958 132.805Z" fill="#40BEFF"/>
<path d="M232.091 132.805C232.879 132.805 233.518 132.144 233.518 131.329C233.518 130.514 232.879 129.854 232.091 129.854C231.304 129.854 230.665 130.514 230.665 131.329C230.665 132.144 231.304 132.805 232.091 132.805Z" fill="#40BEFF"/>
<path d="M224.057 155.547C224.845 155.547 225.483 154.886 225.483 154.071C225.483 153.256 224.845 152.596 224.057 152.596C223.269 152.596 222.631 153.256 222.631 154.071C222.631 154.886 223.269 155.547 224.057 155.547Z" fill="#40BEFF"/>
<path d="M228.191 155.547C228.979 155.547 229.617 154.886 229.617 154.071C229.617 153.256 228.979 152.596 228.191 152.596C227.403 152.596 226.765 153.256 226.765 154.071C226.765 154.886 227.403 155.547 228.191 155.547Z" fill="#40BEFF"/>
<path d="M232.324 155.547C233.111 155.547 233.75 154.886 233.75 154.071C233.75 153.256 233.111 152.596 232.324 152.596C231.536 152.596 230.897 153.256 230.897 154.071C230.897 154.886 231.536 155.547 232.324 155.547Z" fill="#408BFF"/>
<path d="M224.057 177.797C224.845 177.797 225.483 177.136 225.483 176.321C225.483 175.506 224.845 174.845 224.057 174.845C223.269 174.845 222.631 175.506 222.631 176.321C222.631 177.136 223.269 177.797 224.057 177.797Z" fill="#246AD6"/>
<path d="M228.191 177.797C228.979 177.797 229.617 177.136 229.617 176.321C229.617 175.506 228.979 174.845 228.191 174.845C227.403 174.845 226.765 175.506 226.765 176.321C226.765 177.136 227.403 177.797 228.191 177.797Z" fill="#40BEFF"/>
<path d="M232.324 177.797C233.111 177.797 233.75 177.136 233.75 176.321C233.75 175.506 233.111 174.845 232.324 174.845C231.536 174.845 230.897 175.506 230.897 176.321C230.897 177.136 231.536 177.797 232.324 177.797Z" fill="#40BEFF"/>
<path d="M253.777 25.8955H158.127V26.2427H253.777V25.8955Z" fill="#0B254D"/>
<path d="M201.323 5.15015H165.287V7.14656H201.323V5.15015Z" fill="#265399"/>
<path d="M201.323 8.15918H165.287V10.1556H201.323V8.15918Z" fill="#265399"/>
<path d="M201.323 11.1683H165.287V13.1647H201.323V11.1683Z" fill="#265399"/>
<path d="M201.323 14.1774H165.287V16.1738H201.323V14.1774Z" fill="#265399"/>
<path d="M201.323 17.1865H165.287V19.1829H201.323V17.1865Z" fill="#265399"/>
<path d="M201.323 20.1956H165.287V22.192H201.323V20.1956Z" fill="#265399"/>
<path d="M244.608 5.15015H208.63V7.14656H244.608V5.15015Z" fill="#265399"/>
<path d="M244.608 8.15918H208.63V10.1556H244.608V8.15918Z" fill="#265399"/>
<path d="M244.608 11.1683H208.63V13.1647H244.608V11.1683Z" fill="#265399"/>
<path d="M244.608 14.1774H208.63V16.1738H244.608V14.1774Z" fill="#265399"/>
<path d="M244.608 17.1865H208.63V19.1829H244.608V17.1865Z" fill="#265399"/>
<path d="M244.608 20.1956H208.63V22.192H244.608V20.1956Z" fill="#265399"/>
<path d="M255.204 200.162C236.72 200.191 171.866 200.249 155.42 200.249C153.732 200.249 152.393 201.291 152.393 202.593V223.454C152.393 224.727 153.732 225.769 155.42 225.769C171.953 225.797 236.05 225.942 255.204 225.971C256.892 225.971 258.26 224.929 258.26 223.627V202.477C258.231 201.204 256.892 200.162 255.204 200.162Z" fill="#1951A6"/>
<path d="M255.175 199.786H157.981V200.249H255.175V199.786Z" fill="#0B254D"/>
<path d="M185.955 206.788H158.564C157.633 206.788 156.876 206.036 156.876 205.11C156.876 204.184 157.633 203.432 158.564 203.432H185.955C186.887 203.432 187.644 204.184 187.644 205.11C187.644 206.036 186.887 206.788 185.955 206.788Z" fill="#408BFF"/>
</svg>
