<svg width="414" height="212" viewBox="0 0 414 212" fill="none" xmlns="http://www.w3.org/2000/svg">
<g clip-path="url(#clip0)">
<path d="M183.533 185.155C186.059 181.788 186.902 176.737 186.902 172.529C186.902 158.22 175.953 147.278 161.636 147.278C159.109 147.278 156.583 147.278 154.056 148.119C154.056 145.594 154.898 143.911 154.898 141.386C154.898 121.185 143.95 104.351 127.106 95.9335C129.633 90.8833 130.475 85.8331 130.475 79.9411C130.475 58.8984 112.789 41.2226 91.7339 41.2226C76.5745 41.2226 63.0994 50.4813 56.3618 63.9487C51.3087 58.8984 43.729 55.5316 35.307 55.5316C21.832 55.5316 10.0413 64.7904 6.67252 76.5743C3.30374 75.7326 -0.907227 75.7326 -4.276 75.7326C-36.2793 75.7326 -63.2294 101.825 -63.2294 134.652C-63.2294 138.861 -62.3872 143.069 -61.545 147.278C-62.3872 147.278 -62.3872 147.278 -63.2294 147.278C-68.2826 141.386 -75.8623 136.336 -84.2842 134.652C-81.7577 130.444 -80.0733 126.235 -80.0733 121.185C-80.0733 106.876 -91.864 95.0918 -106.181 95.0918C-112.919 95.0918 -118.814 97.617 -123.867 101.826C-130.605 91.725 -141.553 84.1496 -155.028 84.1496C-162.608 84.1496 -169.346 86.6748 -175.241 90.0416C-176.925 58.8984 -203.033 34.4889 -235.037 34.4889C-257.776 34.4889 -277.146 46.2728 -288.095 63.9487C-293.148 61.4235 -298.201 59.7401 -304.096 59.7401C-324.309 59.7401 -341.153 76.5743 -341.153 96.7753C-341.153 102.667 -339.468 108.559 -336.942 113.609C-338.626 113.609 -339.468 113.609 -341.153 113.609C-368.103 113.609 -390 135.494 -390 162.428C-390 189.363 -368.103 211.247 -341.153 211.247C-314.203 211.247 -114.603 211.247 -91.864 211.247C-81.7577 211.247 165.847 211.247 173.427 211.247C181.849 211.247 188.586 204.514 188.586 196.097C188.586 191.888 186.902 188.521 183.533 185.155Z" fill="white"/>
</g>
<g clip-path="url(#clip1)">
<path d="M91.2328 179.852C88.2131 175.833 87.2065 169.805 87.2065 164.781C87.2065 147.7 100.292 134.638 117.404 134.638C120.423 134.638 123.443 134.638 126.463 135.643C126.463 132.629 125.456 130.619 125.456 127.605C125.456 103.49 138.542 83.3952 158.673 73.3476C155.653 67.319 154.647 61.2905 154.647 54.2571C154.647 29.1381 175.785 8.0381 200.949 8.0381C219.067 8.0381 235.172 19.0905 243.225 35.1667C249.264 29.1381 258.323 25.119 268.389 25.119C284.494 25.119 298.586 36.1714 302.612 50.2381C306.639 49.2333 311.671 49.2333 315.698 49.2333C353.947 49.2333 386.157 80.3809 386.157 119.567C386.157 124.59 385.151 129.614 384.144 134.638C385.151 134.638 385.151 134.638 386.157 134.638C392.197 127.605 401.256 121.576 411.322 119.567C408.302 114.543 406.289 109.519 406.289 103.49C406.289 86.4095 420.381 72.3429 437.492 72.3429C445.545 72.3429 452.591 75.3571 458.63 80.381C466.683 68.3238 479.768 59.281 495.873 59.281C504.933 59.281 512.985 62.2952 520.031 66.3143C522.044 29.1381 553.248 0 591.497 0C618.675 0 641.826 14.0667 654.911 35.1667C660.951 32.1524 666.99 30.1429 674.036 30.1429C698.194 30.1429 718.325 50.2381 718.325 74.3524C718.325 81.3857 716.312 88.419 713.292 94.4476C715.305 94.4476 716.312 94.4476 718.325 94.4476C750.535 94.4476 776.706 120.571 776.706 152.724C776.706 184.876 750.535 211 718.325 211C686.115 211 447.558 211 420.381 211C408.302 211 112.371 211 103.312 211C93.246 211 85.1934 202.962 85.1934 192.914C85.1934 187.89 87.2065 183.871 91.2328 179.852Z" fill="white"/>
</g>
<defs>
<clipPath id="clip0">
<rect width="578.586" height="176.759" fill="white" transform="translate(-390 34.4889)"/>
</clipPath>
<clipPath id="clip1">
<rect width="691.513" height="211" fill="white" transform="matrix(-1 0 0 1 776.706 0)"/>
</clipPath>
</defs>
</svg>
