<svg version="1.2" baseProfile="tiny-ps" xmlns="http://www.w3.org/2000/svg" viewBox="0 0 1920 356" width="1920" height="356">
	<title>clouds-svg</title>
	<defs>
		<clipPath clipPathUnits="userSpaceOnUse" id="cp1">
			<path d="M-67 77.93L844.88 77.93L844.88 356.51L-67 356.51L-67 77.93Z" />
		</clipPath>
		<clipPath clipPathUnits="userSpaceOnUse" id="cp2">
			<path d="M2004 0L703.35 0L703.35 396.82L2004 396.82L2004 0Z" />
		</clipPath>
	</defs>
	<style>
		tspan { white-space:pre }
		.shp0 { fill: #ffffff } 
	</style>
	<g id="Clip-Path" clip-path="url(#cp1)">
		<g id="Layer">
			<path id="Layer" class="shp0" d="M836.92 315.39C840.9 310.08 842.23 302.12 842.23 295.49C842.23 272.94 824.98 255.69 802.41 255.69C798.43 255.69 794.45 255.69 790.46 257.02C790.46 253.04 791.79 250.39 791.79 246.41C791.79 214.57 774.54 188.04 747.99 174.77C751.97 166.81 753.3 158.85 753.3 149.57C753.3 116.4 725.42 88.54 692.24 88.54C668.35 88.54 647.11 103.14 636.49 124.36C628.53 116.4 616.58 111.1 603.31 111.1C582.07 111.1 563.49 125.69 558.18 144.26C552.87 142.93 546.23 142.93 540.92 142.93C490.48 142.93 448.01 184.06 448.01 235.79C448.01 242.43 449.34 249.06 450.66 255.69C449.34 255.69 449.34 255.69 448.01 255.69C440.05 246.41 428.1 238.45 414.83 235.79C418.81 229.16 421.46 222.53 421.46 214.57C421.46 192.02 402.88 173.44 380.31 173.44C369.7 173.44 360.4 177.43 352.44 184.06C341.82 168.14 324.57 156.2 303.33 156.2C291.38 156.2 280.76 160.18 271.47 165.49C268.82 116.4 227.67 77.93 177.23 77.93C141.39 77.93 110.86 96.5 93.61 124.36C85.64 120.38 77.68 117.73 68.39 117.73C36.53 117.73 9.99 144.26 9.99 176.1C9.99 185.38 12.64 194.67 16.62 202.63C13.97 202.63 12.64 202.63 9.99 202.63C-32.49 202.63 -67 237.12 -67 279.57C-67 322.02 -32.49 356.51 9.99 356.51C52.46 356.51 367.04 356.51 402.88 356.51C418.81 356.51 809.05 356.51 820.99 356.51C834.27 356.51 844.88 345.9 844.88 332.63C844.88 326 842.23 320.69 836.92 315.39Z" />
		</g>
	</g>
	<g id="Clip-Path" clip-path="url(#cp2)">
		<g id="Layer">
			<path id="Layer" class="shp0" d="M714.71 338.24C709.03 330.69 707.14 319.35 707.14 309.9C707.14 277.78 731.75 253.21 763.94 253.21C769.62 253.21 775.3 253.21 780.98 255.1C780.98 249.43 779.08 245.65 779.08 239.98C779.08 194.63 803.7 156.84 841.56 137.94C835.88 126.61 833.99 115.27 833.99 102.04C833.99 54.8 873.75 15.12 921.08 15.12C955.15 15.12 985.45 35.9 1000.59 66.14C1011.95 54.8 1028.99 47.24 1047.92 47.24C1078.21 47.24 1104.72 68.03 1112.29 94.48C1119.86 92.59 1129.33 92.59 1136.9 92.59C1208.85 92.59 1269.43 151.17 1269.43 224.87C1269.43 234.31 1267.54 243.76 1265.64 253.21C1267.54 253.21 1267.54 253.21 1269.43 253.21C1280.79 239.98 1297.83 228.65 1316.76 224.87C1311.08 215.42 1307.29 205.97 1307.29 194.63C1307.29 162.51 1333.8 136.05 1365.98 136.05C1381.13 136.05 1394.38 141.72 1405.74 151.17C1420.89 128.5 1445.5 111.49 1475.79 111.49C1492.83 111.49 1507.98 117.16 1521.23 124.72C1525.01 54.8 1583.7 0 1655.65 0C1706.76 0 1750.31 26.45 1774.92 66.14C1786.28 60.47 1797.64 56.69 1810.89 56.69C1856.33 56.69 1894.19 94.48 1894.19 139.83C1894.19 153.06 1890.41 166.29 1884.73 177.63C1888.51 177.63 1890.41 177.63 1894.19 177.63C1954.78 177.63 2004 226.76 2004 287.22C2004 347.69 1954.78 396.82 1894.19 396.82C1833.61 396.82 1384.92 396.82 1333.8 396.82C1311.08 396.82 754.47 396.82 737.43 396.82C718.5 396.82 703.36 381.7 703.36 362.81C703.36 353.36 707.14 345.8 714.71 338.24Z" />
		</g>
	</g>
</svg>