<svg width="77" height="76" viewBox="0 0 77 76" fill="none" xmlns="http://www.w3.org/2000/svg">
<g clip-path="url(#clip0)">
<path d="M70.7 18.8L67.4 15L60 21.6V75.7H76.2V6.69995L70.7 18.8Z" fill="#F99B1D"/>
<path d="M41.9002 48.3L36.2002 48.8V75.7H52.4002V30.3L41.9002 48.3Z" fill="#FDC00F"/>
<path d="M20.7004 49.9001L12.4004 65.8001V75.7H28.6004V49.3L20.7004 49.9001Z" fill="#9FC8DD"/>
<path d="M61.6002 4.3L63.9002 7L48.6002 20.7L37.0002 40.4L15.5002 42L2.2002 67.5V73.7H5.3002L19.1002 47.4L40.3002 45.8L52.9002 24.5L67.6002 11.3L70.0002 14.1L76.4002 0L61.6002 4.3Z" fill="#0069FF"/>
<path d="M67.9001 6.80002L69.2001 8.30002L70.7001 4.90002L67.1001 6.00002L67.9001 6.80002Z" fill="white"/>
</g>
<defs>
<clipPath id="clip0">
<rect width="76.4" height="75.7" fill="white"/>
</clipPath>
</defs>
</svg>
