<svg width="481" height="227" viewBox="0 0 481 227" fill="none" xmlns="http://www.w3.org/2000/svg">
<g clip-path="url(#clip0)">
<path d="M231.941 97.7378H217.075V211.767H231.941V97.7378Z" fill="#1B57B3"/>
<path d="M217.175 97.7378H175.712V211.747H217.175V97.7378Z" fill="#4096FF"/>
<path d="M214.363 114.208H178.525V204.554H214.363V114.208Z" fill="#265399"/>
<path d="M177.139 152.258C176.797 152.258 176.536 151.977 176.536 151.657V141.638C176.536 141.298 176.817 141.037 177.139 141.037C177.48 141.037 177.741 141.318 177.741 141.638V151.657C177.762 151.997 177.48 152.258 177.139 152.258Z" fill="#265399"/>
<path d="M217.175 123.044H215.85V130.157H217.175V123.044Z" fill="#265399"/>
<path d="M217.175 185.699H215.85V192.812H217.175V185.699Z" fill="#265399"/>
<path d="M213.499 128.354H179.971V139.355H213.499V128.354Z" fill="#408BFF"/>
<path d="M213.499 141.138H179.971V152.138H213.499V141.138Z" fill="#408BFF"/>
<path d="M213.499 153.941H179.971V164.942H213.499V153.941Z" fill="#408BFF"/>
<path d="M213.499 166.725H179.971V177.725H213.499V166.725Z" fill="#408BFF"/>
<path d="M213.499 179.508H179.971V190.509H213.499V179.508Z" fill="#408BFF"/>
<path d="M213.499 192.312H179.971V203.312H213.499V192.312Z" fill="#408BFF"/>
<path d="M213.499 115.571H179.971V126.571H213.499V115.571Z" fill="#408BFF"/>
<path d="M210.325 118.416H182.683V123.886H210.325V118.416Z" fill="#265399"/>
<path d="M203.636 119.919H183.808V122.424H203.636V119.919Z" fill="#40BEFF"/>
<path d="M205.645 121.161C205.645 121.522 205.363 121.822 205.002 121.822C204.66 121.822 204.359 121.522 204.359 121.161C204.359 120.801 204.64 120.5 205.002 120.5C205.363 120.5 205.645 120.801 205.645 121.161Z" fill="#246AD6"/>
<path d="M207.473 121.161C207.473 121.522 207.191 121.822 206.83 121.822C206.488 121.822 206.187 121.522 206.187 121.161C206.187 120.801 206.468 120.5 206.83 120.5C207.191 120.5 207.473 120.801 207.473 121.161Z" fill="#408BFF"/>
<path d="M209.321 121.161C209.321 121.522 209.04 121.822 208.678 121.822C208.336 121.822 208.035 121.522 208.035 121.161C208.035 120.801 208.316 120.5 208.678 120.5C209.02 120.5 209.321 120.801 209.321 121.161Z" fill="#408BFF"/>
<path d="M210.325 131.36H182.683V136.83H210.325V131.36Z" fill="#265399"/>
<path d="M203.636 132.843H183.808V135.347H203.636V132.843Z" fill="#40BEFF"/>
<path d="M210.325 144.284H182.683V149.754H210.325V144.284Z" fill="#265399"/>
<path d="M203.636 145.787H183.808V148.291H203.636V145.787Z" fill="#40BEFF"/>
<path d="M210.325 157.228H182.683V162.698H210.325V157.228Z" fill="#265399"/>
<path d="M203.636 158.71H183.808V161.215H203.636V158.71Z" fill="#40BEFF"/>
<path d="M210.325 169.811H182.683V175.281H210.325V169.811Z" fill="#265399"/>
<path d="M203.636 171.313H183.808V173.818H203.636V171.313Z" fill="#40BEFF"/>
<path d="M205.645 172.616C205.645 172.976 205.363 173.277 205.002 173.277C204.66 173.277 204.359 172.976 204.359 172.616C204.359 172.255 204.64 171.955 205.002 171.955C205.363 171.955 205.645 172.235 205.645 172.616Z" fill="#246AD6"/>
<path d="M207.473 172.616C207.473 172.976 207.191 173.277 206.83 173.277C206.488 173.277 206.187 172.976 206.187 172.616C206.187 172.255 206.468 171.955 206.83 171.955C207.191 171.955 207.473 172.235 207.473 172.616Z" fill="#408BFF"/>
<path d="M209.321 172.616C209.321 172.976 209.04 173.277 208.678 173.277C208.336 173.277 208.035 172.976 208.035 172.616C208.035 172.255 208.316 171.955 208.678 171.955C209.02 171.955 209.321 172.235 209.321 172.616Z" fill="#408BFF"/>
<path d="M210.325 182.794H182.683V188.264H210.325V182.794Z" fill="#265399"/>
<path d="M203.636 184.297H183.808V186.802H203.636V184.297Z" fill="#40BEFF"/>
<path d="M210.325 195.478H182.683V200.948H210.325V195.478Z" fill="#265399"/>
<path d="M203.636 196.98H183.808V199.485H203.636V196.98Z" fill="#40BEFF"/>
<path d="M205.645 198.303C205.645 198.663 205.363 198.964 205.002 198.964C204.66 198.964 204.359 198.663 204.359 198.303C204.359 197.942 204.64 197.642 205.002 197.642C205.363 197.642 205.645 197.942 205.645 198.303Z" fill="#246AD6"/>
<path d="M207.473 198.303C207.473 198.663 207.191 198.964 206.83 198.964C206.488 198.964 206.187 198.663 206.187 198.303C206.187 197.942 206.468 197.642 206.83 197.642C207.191 197.642 207.473 197.942 207.473 198.303Z" fill="#408BFF"/>
<path d="M209.321 198.303C209.321 198.663 209.04 198.964 208.678 198.964C208.336 198.964 208.035 198.663 208.035 198.303C208.035 197.942 208.316 197.642 208.678 197.642C209.02 197.642 209.321 197.942 209.321 198.303Z" fill="#408BFF"/>
<path d="M205.002 134.866C205.357 134.866 205.645 134.57 205.645 134.205C205.645 133.84 205.357 133.544 205.002 133.544C204.647 133.544 204.359 133.84 204.359 134.205C204.359 134.57 204.647 134.866 205.002 134.866Z" fill="#246AD6"/>
<path d="M206.85 134.866C207.205 134.866 207.493 134.57 207.493 134.205C207.493 133.84 207.205 133.544 206.85 133.544C206.495 133.544 206.207 133.84 206.207 134.205C206.207 134.57 206.495 134.866 206.85 134.866Z" fill="#408BFF"/>
<path d="M208.678 134.866C209.033 134.866 209.321 134.57 209.321 134.205C209.321 133.84 209.033 133.544 208.678 133.544C208.323 133.544 208.035 133.84 208.035 134.205C208.035 134.57 208.323 134.866 208.678 134.866Z" fill="#408BFF"/>
<path d="M205.645 147.009C205.645 147.37 205.363 147.67 205.002 147.67C204.66 147.67 204.359 147.37 204.359 147.009C204.359 146.648 204.64 146.348 205.002 146.348C205.363 146.328 205.645 146.628 205.645 147.009Z" fill="#246AD6"/>
<path d="M207.473 147.009C207.473 147.37 207.191 147.67 206.83 147.67C206.488 147.67 206.187 147.37 206.187 147.009C206.187 146.648 206.468 146.348 206.83 146.348C207.191 146.328 207.473 146.628 207.473 147.009Z" fill="#408BFF"/>
<path d="M209.321 147.009C209.321 147.37 209.04 147.67 208.678 147.67C208.336 147.67 208.035 147.37 208.035 147.009C208.035 146.648 208.316 146.348 208.678 146.348C209.02 146.328 209.321 146.628 209.321 147.009Z" fill="#408BFF"/>
<path d="M205.645 160.012C205.645 160.373 205.363 160.674 205.002 160.674C204.66 160.674 204.359 160.373 204.359 160.012C204.359 159.652 204.64 159.351 205.002 159.351C205.363 159.331 205.645 159.632 205.645 160.012Z" fill="#246AD6"/>
<path d="M207.473 160.012C207.473 160.373 207.191 160.674 206.83 160.674C206.488 160.674 206.187 160.373 206.187 160.012C206.187 159.652 206.468 159.351 206.83 159.351C207.191 159.331 207.473 159.632 207.473 160.012Z" fill="#408BFF"/>
<path d="M209.321 160.012C209.321 160.373 209.04 160.674 208.678 160.674C208.336 160.674 208.035 160.373 208.035 160.012C208.035 159.652 208.316 159.351 208.678 159.351C209.02 159.331 209.321 159.632 209.321 160.012Z" fill="#408BFF"/>
<path d="M205.002 186.261C205.357 186.261 205.645 185.965 205.645 185.6C205.645 185.235 205.357 184.938 205.002 184.938C204.647 184.938 204.359 185.235 204.359 185.6C204.359 185.965 204.647 186.261 205.002 186.261Z" fill="#246AD6"/>
<path d="M206.85 186.261C207.205 186.261 207.493 185.965 207.493 185.6C207.493 185.235 207.205 184.938 206.85 184.938C206.495 184.938 206.207 185.235 206.207 185.6C206.207 185.965 206.495 186.261 206.85 186.261Z" fill="#408BFF"/>
<path d="M208.678 186.261C209.033 186.261 209.321 185.965 209.321 185.6C209.321 185.235 209.033 184.938 208.678 184.938C208.323 184.938 208.035 185.235 208.035 185.6C208.035 185.965 208.323 186.261 208.678 186.261Z" fill="#408BFF"/>
<path d="M218.18 97.7378H217.075V211.767H218.18V97.7378Z" fill="#2D76E6"/>
<path d="M218.28 211.747H218.099V112.665H175.752V112.485H218.28V211.747Z" fill="#0B254D"/>
<path d="M217.175 153.28H215.85V160.393H217.175V153.28Z" fill="#265399"/>
<path d="M194.937 101.805H179.69L178.525 100.663H194.937V101.805Z" fill="#265399"/>
<path d="M194.937 103.508H179.69L178.525 102.386H194.937V103.508Z" fill="#265399"/>
<path d="M194.937 105.231H179.69L178.525 104.089H194.937V105.231Z" fill="#265399"/>
<path d="M194.937 106.935H179.69L178.525 105.812H194.937V106.935Z" fill="#265399"/>
<path d="M194.937 108.658H179.69L178.525 107.516H194.937V108.658Z" fill="#265399"/>
<path d="M194.937 110.361H179.69L178.525 109.239H194.937V110.361Z" fill="#265399"/>
<path d="M214.122 101.805H198.895L197.709 100.663H214.122V101.805Z" fill="#265399"/>
<path d="M214.122 103.508H198.895L197.709 102.386H214.122V103.508Z" fill="#265399"/>
<path d="M214.122 105.231H198.895L197.709 104.089H214.122V105.231Z" fill="#265399"/>
<path d="M214.122 106.935H198.895L197.709 105.812H214.122V106.935Z" fill="#265399"/>
<path d="M214.122 108.658H198.895L197.709 107.516H214.122V108.658Z" fill="#265399"/>
<path d="M214.122 110.361H198.895L197.709 109.239H214.122V110.361Z" fill="#265399"/>
<path d="M230.394 121.221H219.908V114.248H230.394V121.221ZM220.028 121.101H230.294V114.368H220.028V121.101Z" fill="#408BFF"/>
<path d="M230.394 130.879H219.908V123.906H230.394V130.879ZM220.028 130.758H230.294V124.026H220.028V130.758Z" fill="#408BFF"/>
<path d="M230.394 141.017H219.908V134.044H230.394V141.017ZM220.028 140.917H230.294V134.185H220.028V140.917Z" fill="#408BFF"/>
<path d="M230.394 150.675H219.908V143.702H230.394V150.675ZM220.028 150.575H230.294V143.842H220.028V150.575Z" fill="#408BFF"/>
<path d="M230.394 204.354H219.908V154.382H230.394V204.354ZM220.028 204.233H230.294V154.502H220.028V204.233Z" fill="#408BFF"/>
<path d="M232.343 211.767H185.376C184.813 211.767 184.351 212.228 184.351 212.789V225.272C184.351 225.833 184.813 226.294 185.376 226.294H232.343C232.905 226.294 233.367 225.833 233.367 225.272V212.789C233.367 212.228 232.925 211.767 232.343 211.767Z" fill="#113873"/>
<path d="M218.823 211.707C210.627 211.707 181.84 211.747 174.548 211.767C173.804 211.767 173.202 212.368 173.202 213.09V224.971C173.202 225.693 173.804 226.294 174.548 226.294C181.88 226.314 210.325 226.394 218.823 226.414C219.566 226.414 220.169 225.813 220.169 225.092V213.049C220.189 212.308 219.566 211.707 218.823 211.707Z" fill="#1951A6"/>
<path d="M231.961 211.507H175.693V211.747H231.961V211.507Z" fill="#0B254D"/>
<path d="M187.906 215.474H176.155C175.632 215.474 175.21 215.054 175.21 214.533C175.21 214.012 175.632 213.591 176.155 213.591H187.886C188.409 213.591 188.831 214.012 188.831 214.533C188.851 215.054 188.429 215.474 187.906 215.474Z" fill="#408BFF"/>
<path d="M422.256 211.741H437.122V97.7117H422.256V211.741Z" fill="#1B57B3"/>
<path d="M437.017 211.758H478.479V97.7483H437.017V211.758Z" fill="#4096FF"/>
<path d="M439.829 204.54H475.667V114.194H439.829V204.54Z" fill="#265399"/>
<path d="M477.063 152.258C477.404 152.258 477.665 151.978 477.665 151.657V141.639C477.665 141.298 477.384 141.038 477.063 141.038C476.721 141.038 476.46 141.318 476.46 141.639V151.657C476.44 151.998 476.721 152.258 477.063 152.258Z" fill="#265399"/>
<path d="M437.025 130.16H438.351V123.047H437.025V130.16Z" fill="#265399"/>
<path d="M437.025 192.817H438.351V185.704H437.025V192.817Z" fill="#265399"/>
<path d="M440.692 139.348H474.22V128.347H440.692V139.348Z" fill="#408BFF"/>
<path d="M440.692 152.145H474.22V141.144H440.692V152.145Z" fill="#408BFF"/>
<path d="M440.692 164.921H474.22V153.921H440.692V164.921Z" fill="#408BFF"/>
<path d="M440.692 177.719H474.22V166.719H440.692V177.719Z" fill="#408BFF"/>
<path d="M440.692 190.516H474.22V179.515H440.692V190.516Z" fill="#408BFF"/>
<path d="M440.692 203.292H474.22V192.292H440.692V203.292Z" fill="#408BFF"/>
<path d="M440.692 126.55H474.22V115.55H440.692V126.55Z" fill="#408BFF"/>
<path d="M443.87 123.884H471.512V118.414H443.87V123.884Z" fill="#265399"/>
<path d="M450.574 122.412H470.401V119.907H450.574V122.412Z" fill="#40BEFF"/>
<path d="M448.557 121.161C448.557 121.522 448.838 121.822 449.2 121.822C449.541 121.822 449.843 121.522 449.843 121.161C449.843 120.801 449.562 120.5 449.2 120.5C448.858 120.5 448.557 120.801 448.557 121.161Z" fill="#246AD6"/>
<path d="M446.729 121.161C446.729 121.522 447.01 121.822 447.372 121.822C447.733 121.822 448.015 121.522 448.015 121.161C448.015 120.801 447.733 120.5 447.372 120.5C447.01 120.5 446.729 120.801 446.729 121.161Z" fill="#408BFF"/>
<path d="M444.881 121.161C444.881 121.522 445.162 121.822 445.524 121.822C445.865 121.822 446.167 121.522 446.167 121.161C446.167 120.801 445.885 120.5 445.524 120.5C445.182 120.5 444.881 120.801 444.881 121.161Z" fill="#408BFF"/>
<path d="M443.87 136.808H471.512V131.338H443.87V136.808Z" fill="#265399"/>
<path d="M450.574 135.355H470.401V132.85H450.574V135.355Z" fill="#40BEFF"/>
<path d="M443.87 149.751H471.512V144.281H443.87V149.751Z" fill="#265399"/>
<path d="M450.574 148.278H470.401V145.774H450.574V148.278Z" fill="#40BEFF"/>
<path d="M443.87 162.674H471.512V157.204H443.87V162.674Z" fill="#265399"/>
<path d="M450.574 161.222H470.401V158.717H450.574V161.222Z" fill="#40BEFF"/>
<path d="M443.87 175.279H471.512V169.809H443.87V175.279Z" fill="#265399"/>
<path d="M450.574 173.807H470.401V171.303H450.574V173.807Z" fill="#40BEFF"/>
<path d="M448.557 172.615C448.557 172.976 448.838 173.277 449.2 173.277C449.541 173.277 449.843 172.976 449.843 172.615C449.843 172.255 449.562 171.954 449.2 171.954C448.858 171.954 448.557 172.235 448.557 172.615Z" fill="#246AD6"/>
<path d="M446.729 172.615C446.729 172.976 447.01 173.277 447.372 173.277C447.733 173.277 448.015 172.976 448.015 172.615C448.015 172.255 447.733 171.954 447.372 171.954C447.01 171.954 446.729 172.235 446.729 172.615Z" fill="#408BFF"/>
<path d="M444.881 172.615C444.881 172.976 445.162 173.277 445.524 173.277C445.865 173.277 446.167 172.976 446.167 172.615C446.167 172.255 445.885 171.954 445.524 171.954C445.182 171.954 444.881 172.235 444.881 172.615Z" fill="#408BFF"/>
<path d="M443.87 188.26H471.512V182.79H443.87V188.26Z" fill="#265399"/>
<path d="M450.574 186.788H470.401V184.283H450.574V186.788Z" fill="#40BEFF"/>
<path d="M443.87 200.959H471.512V195.489H443.87V200.959Z" fill="#265399"/>
<path d="M450.574 199.487H470.401V196.982H450.574V199.487Z" fill="#40BEFF"/>
<path d="M448.557 198.303C448.557 198.663 448.838 198.964 449.2 198.964C449.541 198.964 449.843 198.663 449.843 198.303C449.843 197.942 449.562 197.642 449.2 197.642C448.858 197.642 448.557 197.942 448.557 198.303Z" fill="#246AD6"/>
<path d="M446.729 198.303C446.729 198.663 447.01 198.964 447.372 198.964C447.733 198.964 448.015 198.663 448.015 198.303C448.015 197.942 447.733 197.642 447.372 197.642C447.01 197.642 446.729 197.942 446.729 198.303Z" fill="#408BFF"/>
<path d="M444.881 198.303C444.881 198.663 445.162 198.964 445.524 198.964C445.865 198.964 446.167 198.663 446.167 198.303C446.167 197.942 445.885 197.642 445.524 197.642C445.182 197.642 444.881 197.942 444.881 198.303Z" fill="#408BFF"/>
<path d="M449.2 134.866C449.555 134.866 449.843 134.57 449.843 134.205C449.843 133.84 449.555 133.544 449.2 133.544C448.845 133.544 448.557 133.84 448.557 134.205C448.557 134.57 448.845 134.866 449.2 134.866Z" fill="#246AD6"/>
<path d="M447.372 134.866C447.727 134.866 448.015 134.57 448.015 134.205C448.015 133.84 447.727 133.544 447.372 133.544C447.017 133.544 446.729 133.84 446.729 134.205C446.729 134.57 447.017 134.866 447.372 134.866Z" fill="#408BFF"/>
<path d="M445.524 134.866C445.879 134.866 446.167 134.57 446.167 134.205C446.167 133.84 445.879 133.544 445.524 133.544C445.169 133.544 444.881 133.84 444.881 134.205C444.881 134.57 445.169 134.866 445.524 134.866Z" fill="#408BFF"/>
<path d="M448.557 147.009C448.557 147.369 448.838 147.67 449.2 147.67C449.541 147.67 449.843 147.369 449.843 147.009C449.843 146.648 449.562 146.348 449.2 146.348C448.858 146.328 448.557 146.628 448.557 147.009Z" fill="#246AD6"/>
<path d="M446.729 147.009C446.729 147.37 447.01 147.67 447.372 147.67C447.733 147.67 448.015 147.37 448.015 147.009C448.015 146.648 447.733 146.348 447.372 146.348C447.01 146.348 446.729 146.628 446.729 147.009Z" fill="#408BFF"/>
<path d="M444.881 147.009C444.881 147.369 445.162 147.67 445.524 147.67C445.865 147.67 446.167 147.369 446.167 147.009C446.167 146.648 445.885 146.348 445.524 146.348C445.182 146.328 444.881 146.628 444.881 147.009Z" fill="#408BFF"/>
<path d="M448.557 160.013C448.557 160.373 448.838 160.674 449.2 160.674C449.541 160.674 449.843 160.373 449.843 160.013C449.843 159.652 449.562 159.352 449.2 159.352C448.858 159.331 448.557 159.632 448.557 160.013Z" fill="#246AD6"/>
<path d="M446.729 160.013C446.729 160.373 447.01 160.674 447.372 160.674C447.733 160.674 448.015 160.373 448.015 160.013C448.015 159.652 447.733 159.352 447.372 159.352C447.01 159.352 446.729 159.632 446.729 160.013Z" fill="#408BFF"/>
<path d="M444.881 160.013C444.881 160.373 445.162 160.674 445.524 160.674C445.865 160.674 446.167 160.373 446.167 160.013C446.167 159.652 445.885 159.352 445.524 159.352C445.182 159.331 444.881 159.632 444.881 160.013Z" fill="#408BFF"/>
<path d="M449.2 186.261C449.555 186.261 449.843 185.965 449.843 185.6C449.843 185.235 449.555 184.938 449.2 184.938C448.845 184.938 448.557 185.235 448.557 185.6C448.557 185.965 448.845 186.261 449.2 186.261Z" fill="#246AD6"/>
<path d="M447.372 186.261C447.727 186.261 448.015 185.965 448.015 185.6C448.015 185.235 447.727 184.938 447.372 184.938C447.017 184.938 446.729 185.235 446.729 185.6C446.729 185.965 447.017 186.261 447.372 186.261Z" fill="#408BFF"/>
<path d="M445.524 186.261C445.879 186.261 446.167 185.965 446.167 185.6C446.167 185.235 445.879 184.938 445.524 184.938C445.169 184.938 444.881 185.235 444.881 185.6C444.881 185.965 445.169 186.261 445.524 186.261Z" fill="#408BFF"/>
<path d="M436.008 211.741H437.113V97.7117H436.008V211.741Z" fill="#2D76E6"/>
<path d="M436.102 211.747H435.921V112.485H478.449V112.665H436.102V211.747Z" fill="#0B254D"/>
<path d="M437.025 160.397H438.351V153.284H437.025V160.397Z" fill="#265399"/>
<path d="M459.264 101.805H474.511L475.697 100.663H459.264V101.805Z" fill="#265399"/>
<path d="M459.264 103.508H474.511L475.697 102.386H459.264V103.508Z" fill="#265399"/>
<path d="M459.264 105.231H474.511L475.697 104.089H459.264V105.231Z" fill="#265399"/>
<path d="M459.264 106.935H474.511L475.697 105.812H459.264V106.935Z" fill="#265399"/>
<path d="M459.264 108.658H474.511L475.697 107.516H459.264V108.658Z" fill="#265399"/>
<path d="M459.264 110.361H474.511L475.697 109.239H459.264V110.361Z" fill="#265399"/>
<path d="M440.08 101.805H455.307L456.492 100.663H440.08V101.805Z" fill="#265399"/>
<path d="M440.08 103.508H455.307L456.492 102.386H440.08V103.508Z" fill="#265399"/>
<path d="M440.08 105.231H455.307L456.492 104.089H440.08V105.231Z" fill="#265399"/>
<path d="M440.08 106.935H455.307L456.492 105.812H440.08V106.935Z" fill="#265399"/>
<path d="M440.08 108.658H455.307L456.492 107.516H440.08V108.658Z" fill="#265399"/>
<path d="M440.08 110.361H455.307L456.492 109.239H440.08V110.361Z" fill="#265399"/>
<path d="M434.294 121.221H423.808V114.248H434.294V121.221ZM423.928 121.101H434.193V114.368H423.928V121.101Z" fill="#408BFF"/>
<path d="M434.294 130.879H423.808V123.906H434.294V130.879ZM423.928 130.758H434.193V124.026H423.928V130.758Z" fill="#408BFF"/>
<path d="M434.294 141.017H423.808V134.044H434.294V141.017ZM423.928 140.917H434.193V134.185H423.928V140.917Z" fill="#408BFF"/>
<path d="M434.294 150.675H423.808V143.702H434.294V150.675ZM423.928 150.575H434.193V143.842H423.928V150.575Z" fill="#408BFF"/>
<path d="M434.294 204.354H423.808V154.382H434.294V204.354ZM423.928 204.233H434.193V154.502H423.928V204.233Z" fill="#408BFF"/>
<path d="M421.859 211.768H468.826C469.389 211.768 469.851 212.229 469.851 212.79V225.273C469.851 225.834 469.389 226.295 468.826 226.295H421.859C421.297 226.295 420.834 225.834 420.834 225.273V212.79C420.834 212.229 421.297 211.768 421.859 211.768Z" fill="#113873"/>
<path d="M435.379 211.707C443.575 211.707 472.362 211.747 479.654 211.767C480.397 211.767 481 212.368 481 213.09V224.971C481 225.693 480.397 226.294 479.654 226.294C472.322 226.314 443.876 226.394 435.379 226.414C434.635 226.414 434.033 225.813 434.033 225.092V213.049C434.033 212.308 434.635 211.707 435.379 211.707Z" fill="#1951A6"/>
<path d="M478.509 211.507H422.241V211.747H478.509V211.507Z" fill="#0B254D"/>
<path d="M466.295 215.474H478.027C478.549 215.474 478.971 215.054 478.971 214.533C478.971 214.012 478.549 213.591 478.027 213.591H466.295C465.773 213.591 465.351 214.012 465.351 214.533C465.351 215.054 465.773 215.474 466.295 215.474Z" fill="#408BFF"/>
<path d="M291.242 77.3804H274.026V209.423H291.242V77.3804Z" fill="#1B57B3"/>
<path d="M274.147 77.4004H226.115V209.443H274.147V77.4004Z" fill="#4096FF"/>
<path d="M270.893 96.4551H229.39V201.087H270.893V96.4551Z" fill="#265399"/>
<path d="M227.783 140.536C227.401 140.536 227.08 140.216 227.08 139.835V128.234C227.08 127.853 227.401 127.532 227.783 127.532C228.164 127.532 228.486 127.853 228.486 128.234V139.835C228.486 140.236 228.164 140.536 227.783 140.536Z" fill="#265399"/>
<path d="M274.147 106.694H272.6V114.929H274.147V106.694Z" fill="#265399"/>
<path d="M274.147 179.268H272.6V187.503H274.147V179.268Z" fill="#265399"/>
<path d="M269.888 112.845H231.057V125.569H269.888V112.845Z" fill="#408BFF"/>
<path d="M269.888 127.673H231.057V140.396H269.888V127.673Z" fill="#408BFF"/>
<path d="M269.888 142.48H231.057V155.203H269.888V142.48Z" fill="#408BFF"/>
<path d="M269.888 157.287H231.057V170.01H269.888V157.287Z" fill="#408BFF"/>
<path d="M269.888 172.094H231.057V184.818H269.888V172.094Z" fill="#408BFF"/>
<path d="M269.888 186.921H231.057V199.645H269.888V186.921Z" fill="#408BFF"/>
<path d="M269.888 98.0381H231.057V110.761H269.888V98.0381Z" fill="#408BFF"/>
<path d="M266.212 101.344H234.191V107.676H266.212V101.344Z" fill="#265399"/>
<path d="M258.458 103.067H235.497V105.973H258.458V103.067Z" fill="#40BEFF"/>
<path d="M260.045 105.311C260.455 105.311 260.788 104.962 260.788 104.53C260.788 104.098 260.455 103.749 260.045 103.749C259.634 103.749 259.301 104.098 259.301 104.53C259.301 104.962 259.634 105.311 260.045 105.311Z" fill="#246AD6"/>
<path d="M262.174 105.311C262.584 105.311 262.917 104.962 262.917 104.53C262.917 104.098 262.584 103.749 262.174 103.749C261.763 103.749 261.431 104.098 261.431 104.53C261.431 104.962 261.763 105.311 262.174 105.311Z" fill="#408BFF"/>
<path d="M264.303 105.311C264.714 105.311 265.047 104.962 265.047 104.53C265.047 104.098 264.714 103.749 264.303 103.749C263.893 103.749 263.56 104.098 263.56 104.53C263.56 104.962 263.893 105.311 264.303 105.311Z" fill="#408BFF"/>
<path d="M266.212 116.312H234.191V122.643H266.212V116.312Z" fill="#265399"/>
<path d="M258.458 118.055H235.497V120.96H258.458V118.055Z" fill="#40BEFF"/>
<path d="M266.212 131.299H234.191V137.631H266.212V131.299Z" fill="#265399"/>
<path d="M258.458 133.022H235.497V135.928H258.458V133.022Z" fill="#40BEFF"/>
<path d="M266.212 146.287H234.191V152.618H266.212V146.287Z" fill="#265399"/>
<path d="M258.458 148.01H235.497V150.915H258.458V148.01Z" fill="#40BEFF"/>
<path d="M266.212 160.874H234.191V167.205H266.212V160.874Z" fill="#265399"/>
<path d="M258.458 162.597H235.497V165.502H258.458V162.597Z" fill="#40BEFF"/>
<path d="M260.768 164.099C260.768 164.52 260.447 164.881 260.025 164.881C259.623 164.881 259.282 164.54 259.282 164.099C259.282 163.679 259.603 163.318 260.025 163.318C260.447 163.338 260.768 163.679 260.768 164.099Z" fill="#246AD6"/>
<path d="M262.898 164.099C262.898 164.52 262.576 164.881 262.154 164.881C261.733 164.881 261.411 164.54 261.411 164.099C261.411 163.679 261.733 163.318 262.154 163.318C262.576 163.318 262.898 163.679 262.898 164.099Z" fill="#408BFF"/>
<path d="M265.027 164.099C265.027 164.52 264.706 164.881 264.284 164.881C263.882 164.881 263.541 164.54 263.541 164.099C263.541 163.679 263.862 163.318 264.284 163.318C264.706 163.338 265.027 163.679 265.027 164.099Z" fill="#408BFF"/>
<path d="M266.212 175.901H234.191V182.233H266.212V175.901Z" fill="#265399"/>
<path d="M258.458 177.625H235.497V180.53H258.458V177.625Z" fill="#40BEFF"/>
<path d="M266.212 190.588H234.191V196.92H266.212V190.588Z" fill="#265399"/>
<path d="M258.458 192.331H235.497V195.236H258.458V192.331Z" fill="#40BEFF"/>
<path d="M260.768 193.874C260.768 194.294 260.447 194.655 260.025 194.655C259.623 194.655 259.282 194.315 259.282 193.874C259.282 193.453 259.603 193.092 260.025 193.092C260.447 193.092 260.768 193.433 260.768 193.874Z" fill="#246AD6"/>
<path d="M262.898 193.874C262.898 194.294 262.576 194.655 262.154 194.655C261.733 194.655 261.411 194.315 261.411 193.874C261.411 193.453 261.733 193.092 262.154 193.092C262.576 193.092 262.898 193.433 262.898 193.874Z" fill="#408BFF"/>
<path d="M265.027 193.874C265.027 194.294 264.706 194.655 264.284 194.655C263.882 194.655 263.541 194.315 263.541 193.874C263.541 193.453 263.862 193.092 264.284 193.092C264.706 193.092 265.027 193.433 265.027 193.874Z" fill="#408BFF"/>
<path d="M260.768 119.618C260.768 120.039 260.447 120.399 260.025 120.399C259.623 120.399 259.282 120.059 259.282 119.618C259.282 119.197 259.603 118.836 260.025 118.836C260.447 118.856 260.768 119.197 260.768 119.618Z" fill="#246AD6"/>
<path d="M262.898 119.618C262.898 120.039 262.576 120.399 262.154 120.399C261.733 120.399 261.411 120.059 261.411 119.618C261.411 119.197 261.733 118.836 262.154 118.836C262.576 118.836 262.898 119.197 262.898 119.618Z" fill="#408BFF"/>
<path d="M265.027 119.618C265.027 120.039 264.706 120.399 264.284 120.399C263.882 120.399 263.541 120.059 263.541 119.618C263.541 119.197 263.862 118.836 264.284 118.836C264.706 118.856 265.027 119.197 265.027 119.618Z" fill="#408BFF"/>
<path d="M260.768 134.445C260.768 134.866 260.447 135.226 260.025 135.226C259.623 135.226 259.282 134.886 259.282 134.445C259.282 134.024 259.603 133.664 260.025 133.664C260.447 133.664 260.768 134.024 260.768 134.445Z" fill="#246AD6"/>
<path d="M262.898 134.445C262.898 134.866 262.576 135.226 262.154 135.226C261.733 135.226 261.411 134.886 261.411 134.445C261.411 134.024 261.733 133.664 262.154 133.664C262.576 133.664 262.898 134.024 262.898 134.445Z" fill="#408BFF"/>
<path d="M265.027 134.445C265.027 134.866 264.706 135.226 264.284 135.226C263.882 135.226 263.541 134.886 263.541 134.445C263.541 134.024 263.862 133.664 264.284 133.664C264.706 133.664 265.027 134.024 265.027 134.445Z" fill="#408BFF"/>
<path d="M260.045 150.294C260.456 150.294 260.788 149.944 260.788 149.513C260.788 149.081 260.456 148.731 260.045 148.731C259.635 148.731 259.302 149.081 259.302 149.513C259.302 149.944 259.635 150.294 260.045 150.294Z" fill="#246AD6"/>
<path d="M262.174 150.294C262.585 150.294 262.918 149.944 262.918 149.513C262.918 149.081 262.585 148.731 262.174 148.731C261.764 148.731 261.431 149.081 261.431 149.513C261.431 149.944 261.764 150.294 262.174 150.294Z" fill="#408BFF"/>
<path d="M264.304 150.294C264.714 150.294 265.047 149.944 265.047 149.513C265.047 149.081 264.714 148.731 264.304 148.731C263.893 148.731 263.561 149.081 263.561 149.513C263.561 149.944 263.893 150.294 264.304 150.294Z" fill="#408BFF"/>
<path d="M260.768 179.147C260.768 179.568 260.447 179.929 260.025 179.929C259.623 179.929 259.282 179.588 259.282 179.147C259.282 178.726 259.603 178.366 260.025 178.366C260.447 178.386 260.768 178.726 260.768 179.147Z" fill="#246AD6"/>
<path d="M262.898 179.147C262.898 179.568 262.576 179.929 262.154 179.929C261.733 179.929 261.411 179.588 261.411 179.147C261.411 178.726 261.733 178.366 262.154 178.366C262.576 178.366 262.898 178.726 262.898 179.147Z" fill="#408BFF"/>
<path d="M265.027 179.147C265.027 179.568 264.706 179.929 264.284 179.929C263.882 179.929 263.541 179.588 263.541 179.147C263.541 178.726 263.862 178.366 264.284 178.366C264.706 178.386 265.027 178.726 265.027 179.147Z" fill="#408BFF"/>
<path d="M275.312 77.3804H274.026V209.423H275.312V77.3804Z" fill="#2D76E6"/>
<path d="M275.413 209.423H275.212V94.672H226.175V94.4717H275.413V209.423Z" fill="#0B254D"/>
<path d="M274.147 141.719H272.6V149.954H274.147V141.719Z" fill="#265399"/>
<path d="M248.373 82.089H230.736L229.37 80.7866H248.373V82.089Z" fill="#265399"/>
<path d="M248.373 84.0729H230.736L229.37 82.7705H248.373V84.0729Z" fill="#265399"/>
<path d="M248.373 86.0763H230.736L229.37 84.7539H248.373V86.0763Z" fill="#265399"/>
<path d="M248.373 88.0602H230.736L229.37 86.7378H248.373V88.0602Z" fill="#265399"/>
<path d="M248.373 90.0436H230.736L229.37 88.7212H248.373V90.0436Z" fill="#265399"/>
<path d="M248.373 92.027H230.736L229.37 90.7046H248.373V92.027Z" fill="#265399"/>
<path d="M270.612 82.089H252.954L251.588 80.7866H270.612V82.089Z" fill="#265399"/>
<path d="M270.612 84.0729H252.954L251.588 82.7705H270.612V84.0729Z" fill="#265399"/>
<path d="M270.612 86.0763H252.954L251.588 84.7539H270.612V86.0763Z" fill="#265399"/>
<path d="M270.612 88.0602H252.954L251.588 86.7378H270.612V88.0602Z" fill="#265399"/>
<path d="M270.612 90.0436H252.954L251.588 88.7212H270.612V90.0436Z" fill="#265399"/>
<path d="M270.612 92.027H252.954L251.588 90.7046H270.612V92.027Z" fill="#265399"/>
<path d="M289.374 96.5957H277.361V104.53H289.374V96.5957Z" fill="#2370E6"/>
<path d="M289.374 107.776H277.361V115.711H289.374V107.776Z" fill="#2370E6"/>
<path d="M289.374 119.518H277.361V127.452H289.374V119.518Z" fill="#2370E6"/>
<path d="M289.374 130.698H277.361V138.633H289.374V130.698Z" fill="#2370E6"/>
<path d="M289.374 143.061H277.361V200.787H289.374V143.061Z" fill="#2370E6"/>
<path d="M291.704 209.463H237.304C236.641 209.463 236.119 209.984 236.119 210.646V225.092C236.119 225.753 236.641 226.274 237.304 226.274H291.704C292.367 226.274 292.89 225.753 292.89 225.092V210.646C292.89 209.984 292.367 209.463 291.704 209.463Z" fill="#113873"/>
<path d="M276.055 209.383C266.553 209.403 233.226 209.443 224.769 209.443C223.905 209.443 223.202 210.125 223.202 210.986V224.731C223.202 225.573 223.885 226.274 224.769 226.274C233.267 226.294 266.192 226.375 276.055 226.415C276.919 226.415 277.622 225.733 277.622 224.872V210.926C277.622 210.065 276.919 209.383 276.055 209.383Z" fill="#1951A6"/>
<path d="M291.262 209.143H226.095V209.403H291.262V209.143Z" fill="#0B254D"/>
<path d="M240.237 213.751H226.637C226.034 213.751 225.532 213.25 225.532 212.649C225.532 212.048 226.034 211.547 226.637 211.547H240.237C240.84 211.547 241.342 212.048 241.342 212.649C241.342 213.25 240.84 213.751 240.237 213.751Z" fill="#408BFF"/>
<path d="M361.602 209.434H378.818V77.3914H361.602V209.434Z" fill="#1B57B3"/>
<path d="M378.689 209.432H426.721V77.3895H378.689V209.432Z" fill="#4096FF"/>
<path d="M381.964 201.093H423.467V96.4605H381.964V201.093Z" fill="#265399"/>
<path d="M425.073 140.537C425.455 140.537 425.776 140.216 425.776 139.835V128.234C425.776 127.853 425.455 127.533 425.073 127.533C424.692 127.533 424.37 127.853 424.37 128.234V139.835C424.37 140.236 424.671 140.537 425.073 140.537Z" fill="#265399"/>
<path d="M378.7 114.946H380.247V106.711H378.7V114.946Z" fill="#265399"/>
<path d="M378.7 187.501H380.247V179.266H378.7V187.501Z" fill="#265399"/>
<path d="M382.956 125.585H421.787V112.862H382.956V125.585Z" fill="#408BFF"/>
<path d="M382.956 140.383H421.787V127.659H382.956V140.383Z" fill="#408BFF"/>
<path d="M382.956 155.201H421.787V142.478H382.956V155.201Z" fill="#408BFF"/>
<path d="M382.956 170.02H421.787V157.296H382.956V170.02Z" fill="#408BFF"/>
<path d="M382.956 184.837H421.787V172.114H382.956V184.837Z" fill="#408BFF"/>
<path d="M382.956 199.636H421.787V186.912H382.956V199.636Z" fill="#408BFF"/>
<path d="M382.956 110.767H421.787V98.0432H382.956V110.767Z" fill="#408BFF"/>
<path d="M386.629 107.667H418.65V101.336H386.629V107.667Z" fill="#265399"/>
<path d="M394.396 105.98H417.357V103.075H394.396V105.98Z" fill="#40BEFF"/>
<path d="M392.811 105.312C393.221 105.312 393.554 104.963 393.554 104.531C393.554 104.099 393.221 103.75 392.811 103.75C392.4 103.75 392.067 104.099 392.067 104.531C392.067 104.963 392.4 105.312 392.811 105.312Z" fill="#246AD6"/>
<path d="M390.681 105.312C391.092 105.312 391.425 104.963 391.425 104.531C391.425 104.099 391.092 103.75 390.681 103.75C390.271 103.75 389.938 104.099 389.938 104.531C389.938 104.963 390.271 105.312 390.681 105.312Z" fill="#408BFF"/>
<path d="M388.552 105.312C388.962 105.312 389.295 104.963 389.295 104.531C389.295 104.099 388.962 103.75 388.552 103.75C388.141 103.75 387.809 104.099 387.809 104.531C387.809 104.963 388.141 105.312 388.552 105.312Z" fill="#408BFF"/>
<path d="M386.629 122.657H418.65V116.326H386.629V122.657Z" fill="#265399"/>
<path d="M394.396 120.95H417.357V118.044H394.396V120.95Z" fill="#40BEFF"/>
<path d="M386.629 137.627H418.65V131.296H386.629V137.627Z" fill="#265399"/>
<path d="M394.396 135.94H417.357V133.035H394.396V135.94Z" fill="#40BEFF"/>
<path d="M386.629 152.597H418.65V146.266H386.629V152.597Z" fill="#265399"/>
<path d="M394.396 150.91H417.357V148.004H394.396V150.91Z" fill="#408BFF"/>
<path d="M386.629 167.182H418.65V160.85H386.629V167.182Z" fill="#265399"/>
<path d="M394.396 165.494H417.357V162.589H394.396V165.494Z" fill="#408BFF"/>
<path d="M392.067 164.1C392.067 164.521 392.389 164.881 392.811 164.881C393.212 164.881 393.554 164.541 393.554 164.1C393.554 163.679 393.233 163.318 392.811 163.318C392.409 163.338 392.067 163.679 392.067 164.1Z" fill="#246AD6"/>
<path d="M389.938 164.1C389.938 164.521 390.259 164.881 390.681 164.881C391.083 164.881 391.425 164.541 391.425 164.1C391.425 163.679 391.103 163.318 390.681 163.318C390.279 163.338 389.938 163.679 389.938 164.1Z" fill="#408BFF"/>
<path d="M387.809 164.1C387.809 164.521 388.13 164.881 388.552 164.881C388.954 164.881 389.295 164.541 389.295 164.1C389.295 163.679 388.974 163.318 388.552 163.318C388.15 163.338 387.809 163.679 387.809 164.1Z" fill="#408BFF"/>
<path d="M386.629 182.224H418.65V175.892H386.629V182.224Z" fill="#265399"/>
<path d="M394.396 180.537H417.357V177.631H394.396V180.537Z" fill="#408BFF"/>
<path d="M386.629 196.933H418.65V190.601H386.629V196.933Z" fill="#265399"/>
<path d="M394.396 195.226H417.357V192.32H394.396V195.226Z" fill="#408BFF"/>
<path d="M392.067 193.875C392.067 194.295 392.389 194.656 392.811 194.656C393.212 194.656 393.554 194.316 393.554 193.875C393.554 193.454 393.233 193.093 392.811 193.093C392.409 193.093 392.067 193.434 392.067 193.875Z" fill="#246AD6"/>
<path d="M389.938 193.875C389.938 194.295 390.259 194.656 390.681 194.656C391.083 194.656 391.425 194.316 391.425 193.875C391.425 193.454 391.103 193.093 390.681 193.093C390.279 193.093 389.938 193.434 389.938 193.875Z" fill="#408BFF"/>
<path d="M387.809 193.875C387.809 194.295 388.13 194.656 388.552 194.656C388.954 194.656 389.295 194.316 389.295 193.875C389.295 193.454 388.974 193.093 388.552 193.093C388.15 193.093 387.809 193.434 387.809 193.875Z" fill="#408BFF"/>
<path d="M392.067 119.618C392.067 120.039 392.389 120.4 392.811 120.4C393.212 120.4 393.554 120.059 393.554 119.618C393.554 119.198 393.233 118.837 392.811 118.837C392.409 118.857 392.067 119.198 392.067 119.618Z" fill="#246AD6"/>
<path d="M389.938 119.618C389.938 120.039 390.259 120.4 390.681 120.4C391.083 120.4 391.425 120.059 391.425 119.618C391.425 119.198 391.103 118.837 390.681 118.837C390.28 118.857 389.938 119.198 389.938 119.618Z" fill="#408BFF"/>
<path d="M387.809 119.618C387.809 120.039 388.13 120.4 388.552 120.4C388.954 120.4 389.295 120.059 389.295 119.618C389.295 119.198 388.974 118.837 388.552 118.837C388.15 118.857 387.809 119.198 387.809 119.618Z" fill="#408BFF"/>
<path d="M392.067 134.445C392.067 134.866 392.389 135.227 392.811 135.227C393.212 135.227 393.554 134.886 393.554 134.445C393.554 134.025 393.233 133.664 392.811 133.664C392.409 133.664 392.067 134.025 392.067 134.445Z" fill="#246AD6"/>
<path d="M389.938 134.445C389.938 134.866 390.259 135.227 390.681 135.227C391.083 135.227 391.425 134.886 391.425 134.445C391.425 134.025 391.103 133.664 390.681 133.664C390.28 133.664 389.938 134.025 389.938 134.445Z" fill="#408BFF"/>
<path d="M387.809 134.445C387.809 134.866 388.13 135.227 388.552 135.227C388.954 135.227 389.295 134.886 389.295 134.445C389.295 134.025 388.974 133.664 388.552 133.664C388.15 133.664 387.809 134.025 387.809 134.445Z" fill="#408BFF"/>
<path d="M392.811 150.295C393.221 150.295 393.554 149.945 393.554 149.513C393.554 149.082 393.221 148.732 392.811 148.732C392.4 148.732 392.067 149.082 392.067 149.513C392.067 149.945 392.4 150.295 392.811 150.295Z" fill="#246AD6"/>
<path d="M390.681 150.295C391.092 150.295 391.425 149.945 391.425 149.513C391.425 149.082 391.092 148.732 390.681 148.732C390.271 148.732 389.938 149.082 389.938 149.513C389.938 149.945 390.271 150.295 390.681 150.295Z" fill="#408BFF"/>
<path d="M388.552 150.295C388.962 150.295 389.295 149.945 389.295 149.513C389.295 149.082 388.962 148.732 388.552 148.732C388.141 148.732 387.809 149.082 387.809 149.513C387.809 149.945 388.141 150.295 388.552 150.295Z" fill="#408BFF"/>
<path d="M392.067 179.148C392.067 179.568 392.389 179.929 392.811 179.929C393.212 179.929 393.554 179.588 393.554 179.148C393.554 178.727 393.233 178.366 392.811 178.366C392.409 178.386 392.067 178.727 392.067 179.148Z" fill="#246AD6"/>
<path d="M389.938 179.148C389.938 179.568 390.259 179.929 390.681 179.929C391.083 179.929 391.425 179.588 391.425 179.148C391.425 178.727 391.103 178.366 390.681 178.366C390.28 178.386 389.938 178.727 389.938 179.148Z" fill="#408BFF"/>
<path d="M387.809 179.148C387.809 179.568 388.13 179.929 388.552 179.929C388.954 179.929 389.295 179.588 389.295 179.148C389.295 178.727 388.974 178.366 388.552 178.366C388.15 178.386 387.809 178.727 387.809 179.148Z" fill="#408BFF"/>
<path d="M377.53 209.434H378.816V77.3914H377.53V209.434Z" fill="#2D76E6"/>
<path d="M377.644 209.423H377.443V94.4722H426.68V94.6725H377.644V209.423Z" fill="#0B254D"/>
<path d="M378.7 149.958H380.247V141.723H378.7V149.958Z" fill="#265399"/>
<path d="M404.462 82.089H422.12L423.486 80.7866H404.462V82.089Z" fill="#265399"/>
<path d="M404.462 84.0729H422.12L423.486 82.7705H404.462V84.0729Z" fill="#265399"/>
<path d="M404.462 86.0763H422.12L423.486 84.7539H404.462V86.0763Z" fill="#265399"/>
<path d="M404.462 88.0602H422.12L423.486 86.7378H404.462V88.0602Z" fill="#265399"/>
<path d="M404.462 90.0436H422.12L423.486 88.7212H404.462V90.0436Z" fill="#265399"/>
<path d="M404.462 92.027H422.12L423.486 90.7046H404.462V92.027Z" fill="#265399"/>
<path d="M382.244 82.089H399.902L401.248 80.7866H382.244V82.089Z" fill="#265399"/>
<path d="M382.244 84.0729H399.902L401.248 82.7705H382.244V84.0729Z" fill="#265399"/>
<path d="M382.244 86.0763H399.902L401.248 84.7539H382.244V86.0763Z" fill="#265399"/>
<path d="M382.244 88.0602H399.902L401.248 86.7378H382.244V88.0602Z" fill="#265399"/>
<path d="M382.244 90.0436H399.902L401.248 88.7212H382.244V90.0436Z" fill="#265399"/>
<path d="M382.244 92.027H399.902L401.248 90.7046H382.244V92.027Z" fill="#265399"/>
<path d="M363.469 104.519H375.482V96.584H363.469V104.519Z" fill="#2370E6"/>
<path d="M363.469 115.7H375.482V107.766H363.469V115.7Z" fill="#2370E6"/>
<path d="M363.469 127.467H375.482V119.533H363.469V127.467Z" fill="#2370E6"/>
<path d="M363.469 138.649H375.482V130.714H363.469V138.649Z" fill="#2370E6"/>
<path d="M363.469 200.804H375.482V143.078H363.469V200.804Z" fill="#2370E6"/>
<path d="M361.131 209.463H415.531C416.194 209.463 416.716 209.984 416.716 210.645V225.092C416.716 225.753 416.194 226.274 415.531 226.274H361.131C360.468 226.274 359.946 225.753 359.946 225.092V210.645C359.946 209.984 360.488 209.463 361.131 209.463Z" fill="#113873"/>
<path d="M376.8 209.383C386.302 209.403 419.629 209.443 428.087 209.443C428.95 209.443 429.654 210.124 429.654 210.986V224.731C429.654 225.573 428.971 226.274 428.087 226.274C419.589 226.294 386.664 226.374 376.8 226.414C375.936 226.414 375.233 225.733 375.233 224.871V210.926C375.233 210.064 375.936 209.383 376.8 209.383Z" fill="#1951A6"/>
<path d="M426.74 209.143H361.573V209.403H426.74V209.143Z" fill="#0B254D"/>
<path d="M412.618 213.751H426.218C426.821 213.751 427.323 213.25 427.323 212.649C427.323 212.048 426.821 211.547 426.218 211.547H412.618C412.015 211.547 411.513 212.048 411.513 212.649C411.513 213.25 412.015 213.751 412.618 213.751Z" fill="#408BFF"/>
<path d="M359.363 69.9067H293.312V208.582H359.363V69.9067Z" fill="#4096FF"/>
<path d="M353.437 89.9233H297.691V199.805H353.437V89.9233Z" fill="#265399"/>
<path d="M295.642 136.229H295.421C294.959 136.229 294.578 135.848 294.578 135.387V123.385C294.578 122.924 294.959 122.543 295.421 122.543H295.642C296.104 122.543 296.486 122.924 296.486 123.385V135.387C296.486 135.848 296.104 136.229 295.642 136.229Z" fill="#265399"/>
<path d="M352.091 107.155H299.921V120.52H352.091V107.155Z" fill="#408BFF"/>
<path d="M352.091 122.704H299.921V136.068H352.091V122.704Z" fill="#408BFF"/>
<path d="M352.091 138.252H299.921V151.617H352.091V138.252Z" fill="#408BFF"/>
<path d="M352.091 153.821H299.921V167.185H352.091V153.821Z" fill="#408BFF"/>
<path d="M352.091 169.37H299.921V182.734H352.091V169.37Z" fill="#408BFF"/>
<path d="M352.091 184.938H299.921V198.303H352.091V184.938Z" fill="#408BFF"/>
<path d="M352.091 91.5864H299.921V104.951H352.091V91.5864Z" fill="#408BFF"/>
<path d="M347.149 95.0527H304.14V101.705H347.149V95.0527Z" fill="#265399"/>
<path d="M336.723 96.876H305.887V99.9216H336.723V96.876Z" fill="#40BEFF"/>
<path d="M338.853 99.4207C339.396 99.4207 339.837 98.9632 339.837 98.3988C339.837 97.8345 339.396 97.377 338.853 97.377C338.309 97.377 337.868 97.8345 337.868 98.3988C337.868 98.9632 338.309 99.4207 338.853 99.4207Z" fill="#40BEFF"/>
<path d="M341.725 99.4207C342.269 99.4207 342.709 98.9632 342.709 98.3988C342.709 97.8345 342.269 97.377 341.725 97.377C341.181 97.377 340.741 97.8345 340.741 98.3988C340.741 98.9632 341.181 99.4207 341.725 99.4207Z" fill="#40BEFF"/>
<path d="M345.562 98.3988C345.562 98.9599 345.12 99.4207 344.578 99.4207C344.035 99.4207 343.593 98.9599 343.593 98.3988C343.593 97.8378 344.035 97.377 344.578 97.377C345.12 97.377 345.562 97.8378 345.562 98.3988Z" fill="#408BFF"/>
<path d="M347.149 110.782H304.14V117.434H347.149V110.782Z" fill="#265399"/>
<path d="M336.723 112.605H305.887V115.651H336.723V112.605Z" fill="#40BEFF"/>
<path d="M347.149 126.531H304.14V133.183H347.149V126.531Z" fill="#265399"/>
<path d="M336.723 128.334H305.887V131.38H336.723V128.334Z" fill="#40BEFF"/>
<path d="M347.149 142.259H304.14V148.911H347.149V142.259Z" fill="#265399"/>
<path d="M336.723 144.062H305.887V147.108H336.723V144.062Z" fill="#40BEFF"/>
<path d="M347.149 157.568H304.14V164.22H347.149V157.568Z" fill="#265399"/>
<path d="M336.723 159.391H305.887V162.437H336.723V159.391Z" fill="#40BEFF"/>
<path d="M347.149 173.357H304.14V180.009H347.149V173.357Z" fill="#265399"/>
<path d="M336.723 175.18H305.887V178.226H336.723V175.18Z" fill="#40BEFF"/>
<path d="M347.149 188.805H304.14V195.457H347.149V188.805Z" fill="#265399"/>
<path d="M336.723 190.608H305.887V193.654H336.723V190.608Z" fill="#40BEFF"/>
<path d="M339.054 115.23C339.597 115.23 340.038 114.772 340.038 114.208C340.038 113.644 339.597 113.186 339.054 113.186C338.51 113.186 338.069 113.644 338.069 114.208C338.069 114.772 338.51 115.23 339.054 115.23Z" fill="#246AD6"/>
<path d="M341.906 115.23C342.45 115.23 342.891 114.772 342.891 114.208C342.891 113.644 342.45 113.186 341.906 113.186C341.363 113.186 340.922 113.644 340.922 114.208C340.922 114.772 341.363 115.23 341.906 115.23Z" fill="#40BEFF"/>
<path d="M344.759 115.23C345.302 115.23 345.743 114.772 345.743 114.208C345.743 113.644 345.302 113.186 344.759 113.186C344.215 113.186 343.774 113.644 343.774 114.208C343.774 114.772 344.215 115.23 344.759 115.23Z" fill="#40BEFF"/>
<path d="M338.833 130.839C339.377 130.839 339.817 130.381 339.817 129.817C339.817 129.252 339.377 128.795 338.833 128.795C338.289 128.795 337.849 129.252 337.849 129.817C337.849 130.381 338.289 130.839 338.833 130.839Z" fill="#40BEFF"/>
<path d="M341.686 130.839C342.229 130.839 342.67 130.381 342.67 129.817C342.67 129.252 342.229 128.795 341.686 128.795C341.142 128.795 340.701 129.252 340.701 129.817C340.701 130.381 341.142 130.839 341.686 130.839Z" fill="#40BEFF"/>
<path d="M344.558 130.839C345.102 130.839 345.542 130.381 345.542 129.817C345.542 129.252 345.102 128.795 344.558 128.795C344.014 128.795 343.574 129.252 343.574 129.817C343.574 130.381 344.014 130.839 344.558 130.839Z" fill="#408BFF"/>
<path d="M338.833 146.588C339.377 146.588 339.817 146.13 339.817 145.566C339.817 145.001 339.377 144.544 338.833 144.544C338.289 144.544 337.849 145.001 337.849 145.566C337.849 146.13 338.289 146.588 338.833 146.588Z" fill="#40BEFF"/>
<path d="M341.686 146.588C342.229 146.588 342.67 146.13 342.67 145.566C342.67 145.001 342.229 144.544 341.686 144.544C341.142 144.544 340.701 145.001 340.701 145.566C340.701 146.13 341.142 146.588 341.686 146.588Z" fill="#40BEFF"/>
<path d="M344.558 146.588C345.102 146.588 345.542 146.13 345.542 145.566C345.542 145.001 345.102 144.544 344.558 144.544C344.014 144.544 343.574 145.001 343.574 145.566C343.574 146.13 344.014 146.588 344.558 146.588Z" fill="#408BFF"/>
<path d="M338.692 161.876C339.236 161.876 339.677 161.418 339.677 160.854C339.677 160.29 339.236 159.832 338.692 159.832C338.149 159.832 337.708 160.29 337.708 160.854C337.708 161.418 338.149 161.876 338.692 161.876Z" fill="#246AD6"/>
<path d="M341.565 161.876C342.109 161.876 342.55 161.418 342.55 160.854C342.55 160.29 342.109 159.832 341.565 159.832C341.022 159.832 340.581 160.29 340.581 160.854C340.581 161.418 341.022 161.876 341.565 161.876Z" fill="#40BEFF"/>
<path d="M344.417 161.876C344.961 161.876 345.402 161.418 345.402 160.854C345.402 160.29 344.961 159.832 344.417 159.832C343.874 159.832 343.433 160.29 343.433 160.854C343.433 161.418 343.874 161.876 344.417 161.876Z" fill="#40BEFF"/>
<path d="M338.873 177.625C339.417 177.625 339.857 177.167 339.857 176.603C339.857 176.039 339.417 175.581 338.873 175.581C338.329 175.581 337.889 176.039 337.889 176.603C337.889 177.167 338.329 177.625 338.873 177.625Z" fill="#40BEFF"/>
<path d="M341.726 177.625C342.269 177.625 342.71 177.167 342.71 176.603C342.71 176.039 342.269 175.581 341.726 175.581C341.182 175.581 340.741 176.039 340.741 176.603C340.741 177.167 341.182 177.625 341.726 177.625Z" fill="#40BEFF"/>
<path d="M344.578 177.625C345.122 177.625 345.562 177.167 345.562 176.603C345.562 176.039 345.122 175.581 344.578 175.581C344.034 175.581 343.594 176.039 343.594 176.603C343.594 177.167 344.034 177.625 344.578 177.625Z" fill="#408BFF"/>
<path d="M338.873 193.033C339.417 193.033 339.857 192.576 339.857 192.011C339.857 191.447 339.417 190.989 338.873 190.989C338.329 190.989 337.889 191.447 337.889 192.011C337.889 192.576 338.329 193.033 338.873 193.033Z" fill="#246AD6"/>
<path d="M341.726 193.033C342.269 193.033 342.71 192.576 342.71 192.011C342.71 191.447 342.269 190.989 341.726 190.989C341.182 190.989 340.741 191.447 340.741 192.011C340.741 192.576 341.182 193.033 341.726 193.033Z" fill="#40BEFF"/>
<path d="M344.578 193.033C345.122 193.033 345.562 192.576 345.562 192.011C345.562 191.447 345.122 190.989 344.578 190.989C344.034 190.989 343.594 191.447 343.594 192.011C343.594 192.576 344.034 193.033 344.578 193.033Z" fill="#40BEFF"/>
<path d="M359.383 87.8398H293.372V88.0803H359.383V87.8398Z" fill="#0B254D"/>
<path d="M323.184 73.4731H298.314V74.8557H323.184V73.4731Z" fill="#265399"/>
<path d="M323.184 75.5571H298.314V76.9397H323.184V75.5571Z" fill="#265399"/>
<path d="M323.184 77.6406H298.314V79.0232H323.184V77.6406Z" fill="#265399"/>
<path d="M323.184 79.7246H298.314V81.1071H323.184V79.7246Z" fill="#265399"/>
<path d="M323.184 81.8086H298.314V83.1911H323.184V81.8086Z" fill="#265399"/>
<path d="M323.184 83.8921H298.314V85.2746H323.184V83.8921Z" fill="#265399"/>
<path d="M353.056 73.4731H328.226V74.8557H353.056V73.4731Z" fill="#265399"/>
<path d="M353.056 75.5571H328.226V76.9397H353.056V75.5571Z" fill="#265399"/>
<path d="M353.056 77.6406H328.226V79.0232H353.056V77.6406Z" fill="#265399"/>
<path d="M353.056 79.7246H328.226V81.1071H353.056V79.7246Z" fill="#265399"/>
<path d="M353.056 81.8086H328.226V83.1911H353.056V81.8086Z" fill="#265399"/>
<path d="M353.056 83.8921H328.226V85.2746H353.056V83.8921Z" fill="#265399"/>
<path d="M360.368 208.521C347.611 208.542 302.854 208.582 291.504 208.582C290.339 208.582 289.415 209.303 289.415 210.205V224.651C289.415 225.533 290.339 226.254 291.504 226.254C302.914 226.274 347.149 226.374 360.368 226.394C361.533 226.394 362.477 225.673 362.477 224.771V210.124C362.457 209.243 361.533 208.521 360.368 208.521Z" fill="#1951A6"/>
<path d="M360.347 208.261H293.271V208.582H360.347V208.261Z" fill="#0B254D"/>
<path d="M312.576 213.11H293.673C293.03 213.11 292.508 212.589 292.508 211.948C292.508 211.307 293.03 210.786 293.673 210.786H312.576C313.219 210.786 313.742 211.307 313.742 211.948C313.742 212.589 313.219 213.11 312.576 213.11Z" fill="#408BFF"/>
</g>
<g clip-path="url(#clip1)">
<path d="M378.886 0L355.893 17.3838L364.662 17.945L309.778 114.477L279.399 68.9453L236.408 169.161L208.75 129.904L174.297 178.601L176.471 187.322L208.736 141.934L237.963 183.422L280.796 83.5661L310.282 127.76L371.04 20.8663L376.683 26.9392L378.886 0Z" fill="#FFA412"/>
<path d="M148.007 156.958C115.022 130.709 87.2925 96.7332 66.3152 56.8569C51.1834 69.0026 36.0659 81.1482 20.9341 93.2939C45.2084 139.401 77.2574 178.673 115.397 209.037C126.267 191.682 137.137 174.327 148.007 156.958Z" fill="#3C8F7C"/>
<path d="M59.2025 66.3838C49.8009 74.054 40.4137 81.7097 31.012 89.3799C33.2437 93.5532 32.4374 99.1799 29.0972 102.029C50.4344 139.733 77.1707 172.485 108.298 199.079C110.847 195.266 115.641 194.517 119.096 197.309C125.95 186.531 132.803 175.752 139.656 164.974C136.489 162.398 136.028 157.145 138.576 153.332C111.235 129.99 87.7529 101.223 69.0216 68.1107C65.6958 70.96 61.2614 70.2117 59.2025 66.3838Z" fill="#96D9C9"/>
<path d="M97.1689 152.569C104.209 143.488 104.152 130.076 97.5 122.061C90.834 114.059 79.4599 113.685 71.5844 121.773C63.7233 129.846 62.9746 144.179 70.4614 153.187C77.9481 162.21 90.1429 161.649 97.1689 152.569Z" fill="#50BFA5"/>
<path d="M96.7082 126.781C95.83 127.759 94.9373 128.752 94.0591 129.731C96.1755 133.616 95.7292 137.617 93.44 140.236C91.1364 142.869 88.5592 143.114 84.6143 140.783C81.7636 139.171 80.3814 138.696 79.5175 139.631C78.7833 140.423 78.5385 141.876 80.0934 143.848C80.9429 144.913 81.7924 145.632 82.541 146.136C83.5345 146.812 83.8512 148.323 83.2465 149.489C82.6562 150.611 81.3892 150.986 80.4246 150.309C79.6327 149.748 78.7833 148.985 77.8474 147.92C77.0843 148.769 76.3213 149.604 75.5438 150.453C74.7375 149.446 73.9457 148.439 73.1538 147.417C73.9889 146.51 74.8239 145.618 75.659 144.711C73.6433 140.811 74.0321 136.926 76.3789 134.465C78.9704 131.745 81.9651 132.58 85.4061 134.739C87.7817 136.221 89.1639 136.466 90.1573 135.357C91.194 134.192 90.8628 132.436 89.5526 130.767C88.66 129.616 87.609 128.752 86.5868 128.105C85.5789 127.471 85.3054 125.917 85.982 124.752C86.0108 124.708 86.0252 124.665 86.054 124.622C86.6731 123.572 87.8537 123.212 88.7464 123.787C89.8262 124.493 90.978 125.5 92.0002 126.68C92.8353 125.773 93.656 124.867 94.491 123.96C95.2253 124.924 95.9596 125.86 96.7082 126.781Z" fill="#3C8F7C"/>
<path d="M123.171 175.953C115.655 169.521 108.413 162.699 101.459 155.519C100.264 157.073 99.0693 158.613 97.8887 160.167C104.943 167.448 112.286 174.37 119.917 180.889C120.982 179.249 122.077 177.594 123.171 175.953Z" fill="#50BFA5"/>
<path d="M141.283 146.381C99.8472 141.128 59.2028 127.27 21.4956 105.541C14.34 122.32 7.16999 139.099 0 155.879C43.5958 181.005 90.5751 197.036 138.49 203.109C139.426 184.199 140.348 165.29 141.283 146.381Z" fill="#3C8F7C"/>
<path d="M19.9985 116.449C15.6072 126.968 11.216 137.488 6.82471 148.007C10.7984 150.252 12.8573 155.102 11.3599 158.944C48.2897 178.789 87.4943 192.157 127.476 198.547C127.807 194.316 131.608 191.452 135.971 192.042C136.633 180.256 137.31 168.456 137.972 156.67C133.97 156.123 131.004 152.166 131.335 147.935C96.2192 142.323 61.7946 130.594 29.3713 113.167C27.874 117.01 23.6699 118.521 19.9985 116.449Z" fill="#96D9C9"/>
<path d="M95.0817 166.902C96.7374 156.368 90.129 145.762 80.4394 142.539C70.7498 139.344 60.7003 144.424 57.8352 154.555C54.9701 164.671 61.3338 176.414 72.2328 180.026C83.1317 183.638 93.426 177.421 95.0817 166.902Z" fill="#50BFA5"/>
<path d="M82.0523 146.669C81.7643 147.863 81.4764 149.058 81.1884 150.266C84.9174 152.339 86.5012 155.735 85.7957 158.901C85.0902 162.081 82.9737 163.491 78.4241 163.506C75.1559 163.578 73.7305 163.851 73.4425 165.002C73.1978 165.981 73.6873 167.247 76.0053 168.068C77.2579 168.514 78.3521 168.686 79.2448 168.73C80.4398 168.787 81.462 169.852 81.4908 171.061C81.5196 172.241 80.6125 173.133 79.4463 173.047C78.4961 172.975 77.3731 172.773 76.0485 172.37C75.8038 173.407 75.5446 174.428 75.2998 175.464C74.1192 175.047 72.9242 174.615 71.7436 174.184C72.0316 173.076 72.3051 171.967 72.5787 170.845C68.9217 168.701 67.3668 165.434 68.2018 162.369C69.1233 158.987 72.118 158.239 76.1493 158.325C78.9424 158.383 80.2526 157.908 80.5693 156.57C80.9005 155.159 79.7487 153.922 77.7906 153.217C76.4516 152.727 75.1127 152.526 73.9033 152.497C72.7227 152.468 71.7148 151.36 71.7292 150.123C71.7292 150.079 71.7292 150.036 71.7292 149.993C71.7436 148.871 72.5931 148.022 73.6585 148.065C74.9399 148.108 76.4372 148.367 77.9058 148.827C78.1793 147.719 78.4673 146.597 78.7409 145.489C79.8639 145.877 80.9581 146.28 82.0523 146.669Z" fill="#3C8F7C"/>
<path d="M122.25 62.7858C121.242 62.4549 120.248 62.0663 119.298 61.6058C118.218 61.0878 116.822 60.4834 115.929 60.3394C114.072 60.0516 110.876 60.2387 109.105 62.1527C106.902 64.5271 103 62.5844 103.778 75.0322C104.67 89.1206 112.531 87.5808 112.719 87.3362C112.906 87.0916 119.73 78.3277 119.73 78.3277C119.73 78.3277 122.12 83.5227 122.12 83.3356C122.149 83.1485 134.329 66.844 122.25 62.7858Z" fill="#0E2E35"/>
<path d="M130.543 155.677C97.9322 168.557 61.9671 174.443 24.519 173.018C27.0098 188.948 29.4862 204.879 31.977 220.795C75.2705 222.435 116.865 215.628 154.572 200.734C146.553 185.725 138.548 170.701 130.543 155.677Z" fill="#3C8F7C"/>
<path d="M28.4351 182.084C30.062 192.028 31.7033 201.972 33.3302 211.916C37.2608 212.031 40.9753 214.952 41.652 218.535C77.6748 218.794 112.373 213.124 144.436 201.713C142.737 198.302 144.192 194.532 147.633 193.208C142.709 183.811 137.77 174.399 132.846 165.002C129.679 166.225 125.691 164.369 124.006 160.958C95.8445 170.974 65.3792 175.953 33.7478 175.723C34.4244 179.306 32.0632 182.199 28.4351 182.084Z" fill="#96D9C9"/>
<path d="M106.312 190.459C102.683 181.623 92.9937 176.112 84.456 177.58C75.9326 179.062 70.9367 187.106 73.4994 196.129C76.0622 205.138 86.0829 211.628 95.6861 209.959C105.275 208.304 109.94 199.295 106.312 190.459Z" fill="#50BFA5"/>
<path d="M87.5226 180.112C87.8681 181.163 88.1992 182.199 88.5448 183.249C92.2162 183.336 94.9229 185.322 95.8587 188.042C96.809 190.79 95.9163 192.762 92.6049 194.618C90.2581 196.014 89.351 196.805 89.6678 197.813C89.9413 198.676 90.8772 199.453 92.9504 199.137C94.0734 198.964 94.9373 198.662 95.614 198.331C96.5066 197.885 97.7448 198.288 98.3207 199.223C98.8822 200.115 98.6375 201.18 97.7448 201.597C97.0106 201.928 96.1035 202.231 94.9517 202.461C95.2396 203.367 95.5276 204.26 95.8299 205.166C94.7789 205.325 93.7135 205.483 92.6481 205.627C92.3457 204.648 92.0434 203.684 91.7266 202.706C88.0697 202.547 85.4493 200.648 84.643 197.928C83.7504 194.935 85.5933 193.121 88.5736 191.538C90.6324 190.445 91.3667 189.538 90.9924 188.372C90.5892 187.149 89.1783 186.66 87.4218 186.905C86.2268 187.077 85.1614 187.466 84.2687 187.941C83.3905 188.401 82.1523 187.955 81.6052 186.991C81.5908 186.962 81.562 186.919 81.5476 186.89C81.0437 186.012 81.274 185.005 82.0659 184.602C83.0161 184.113 84.2255 183.696 85.5069 183.451C85.2046 182.472 84.8878 181.508 84.5855 180.53C85.5645 180.4 86.5435 180.256 87.5226 180.112Z" fill="#3C8F7C"/>
<path d="M133.941 181.437C126.18 184.185 118.262 186.574 110.213 188.603C110.832 190.1 111.466 191.611 112.085 193.107C120.263 191.049 128.282 188.617 136.143 185.84C135.409 184.372 134.675 182.904 133.941 181.437Z" fill="#50BFA5"/>
<path d="M76.7534 208.203V219.873C76.7534 221.759 97.8027 223.284 123.776 223.284C149.749 223.284 170.798 221.759 170.798 219.873V208.203H76.7534Z" fill="#EFB118"/>
<path d="M110.775 223.154V208.203H76.7534V219.873C76.7534 221.428 91.1366 222.737 110.775 223.154Z" fill="#EAB054"/>
<path d="M112.358 223.183C116.015 223.255 119.831 223.284 123.761 223.284C129.621 223.284 135.236 223.212 140.419 223.068V208.203H112.358V223.183Z" fill="#EAB054"/>
<path d="M142.306 223.01C159.064 222.492 170.798 221.284 170.798 219.873V208.203H142.306V223.01Z" fill="#EAB054"/>
<path d="M123.776 211.484C149.746 211.484 170.798 209.957 170.798 208.073C170.798 206.19 149.746 204.663 123.776 204.663C97.8061 204.663 76.7534 206.19 76.7534 208.073C76.7534 209.957 97.8061 211.484 123.776 211.484Z" fill="#EFB118"/>
<path d="M162.491 208.073C162.491 209.383 145.156 210.448 123.776 210.448C102.395 210.448 85.0605 209.383 85.0605 208.073C85.0605 206.764 102.395 205.699 123.776 205.699C145.156 205.699 162.491 206.764 162.491 208.073Z" fill="#F7CC7F"/>
<path d="M68.7051 195.856V207.527C68.7051 209.412 89.7543 210.937 115.728 210.937C141.701 210.937 162.75 209.412 162.75 207.527V195.856H68.7051Z" fill="#EFB118"/>
<path d="M102.741 210.808V195.856H68.7051V207.527C68.7051 209.081 83.0882 210.39 102.741 210.808Z" fill="#EAB054"/>
<path d="M104.325 210.837C107.982 210.909 111.797 210.937 115.728 210.937C121.587 210.937 127.202 210.865 132.386 210.721V195.856H104.325V210.837Z" fill="#EAB054"/>
<path d="M134.257 210.664C151.016 210.146 162.75 208.937 162.75 207.527V195.856H134.257V210.664Z" fill="#EAB054"/>
<path d="M115.728 199.137C141.697 199.137 162.75 197.61 162.75 195.726C162.75 193.843 141.697 192.316 115.728 192.316C89.7577 192.316 68.7051 193.843 68.7051 195.726C68.7051 197.61 89.7577 199.137 115.728 199.137Z" fill="#EFB118"/>
<path d="M154.442 195.727C154.442 197.036 137.108 198.101 115.727 198.101C94.3469 198.101 77.0122 197.036 77.0122 195.727C77.0122 194.417 94.3469 193.352 115.727 193.352C137.108 193.366 154.442 194.431 154.442 195.727Z" fill="#F7CC7F"/>
<path d="M74.061 183.178V194.849C74.061 196.734 95.1103 198.259 121.083 198.259C147.057 198.259 168.106 196.734 168.106 194.849V183.178H74.061Z" fill="#EFB118"/>
<path d="M108.097 198.13V183.178H74.061V194.848C74.061 196.403 88.4442 197.727 108.097 198.13Z" fill="#EAB054"/>
<path d="M109.681 198.158C113.338 198.23 117.153 198.259 121.084 198.259C126.943 198.259 132.558 198.187 137.741 198.043V183.178H109.681V198.158Z" fill="#EAB054"/>
<path d="M139.627 197.986C156.386 197.468 168.12 196.259 168.12 194.848V183.178H139.627V197.986Z" fill="#EAB054"/>
<path d="M121.083 186.473C147.053 186.473 168.106 184.946 168.106 183.062C168.106 181.179 147.053 179.652 121.083 179.652C95.1137 179.652 74.061 181.179 74.061 183.062C74.061 184.946 95.1137 186.473 121.083 186.473Z" fill="#EFB118"/>
<path d="M159.813 183.062C159.813 184.372 142.478 185.437 121.098 185.437C99.7175 185.437 82.3828 184.372 82.3828 183.062C82.3828 181.753 99.7175 180.688 121.098 180.688C142.478 180.688 159.813 181.753 159.813 183.062Z" fill="#F7CC7F"/>
<path d="M68.7051 170.687V182.357C68.7051 184.242 89.7543 185.768 115.728 185.768C141.701 185.768 162.75 184.242 162.75 182.357V170.687H68.7051Z" fill="#EFB118"/>
<path d="M102.741 185.638V170.687H68.7051V182.357C68.7051 183.911 83.0882 185.221 102.741 185.638Z" fill="#EAB054"/>
<path d="M104.325 185.667C107.982 185.739 111.797 185.768 115.728 185.768C121.587 185.768 127.202 185.696 132.386 185.552V170.687H104.325V185.667Z" fill="#EAB054"/>
<path d="M134.257 185.494C151.016 184.976 162.75 183.768 162.75 182.357V170.687H134.257V185.494Z" fill="#EAB054"/>
<path d="M115.728 173.968C141.697 173.968 162.75 172.441 162.75 170.557C162.75 168.673 141.697 167.146 115.728 167.146C89.7577 167.146 68.7051 168.673 68.7051 170.557C68.7051 172.441 89.7577 173.968 115.728 173.968Z" fill="#EFB118"/>
<path d="M154.442 170.557C154.442 171.867 137.108 172.932 115.727 172.932C94.3469 172.932 77.0122 171.867 77.0122 170.557C77.0122 169.248 94.3469 168.183 115.727 168.183C137.108 168.183 154.442 169.248 154.442 170.557Z" fill="#F7CC7F"/>
<path d="M397.934 207.21V218.435C397.934 220.248 377.691 221.716 352.712 221.716C327.732 221.716 307.489 220.248 307.489 218.435V207.21H397.934Z" fill="#EFB118"/>
<path d="M365.208 221.586V207.209H397.934V218.434C397.934 219.931 384.098 221.183 365.208 221.586Z" fill="#EAB054"/>
<path d="M363.682 221.614C360.169 221.672 356.498 221.715 352.711 221.715C347.067 221.715 341.683 221.643 336.701 221.499V207.209H363.682V221.614Z" fill="#EAB054"/>
<path d="M334.887 221.442C318.776 220.938 307.489 219.773 307.489 218.42V207.195H334.887V221.442Z" fill="#EAB054"/>
<path d="M352.712 210.361C377.687 210.361 397.934 208.892 397.934 207.08C397.934 205.268 377.687 203.799 352.712 203.799C327.736 203.799 307.489 205.268 307.489 207.08C307.489 208.892 327.736 210.361 352.712 210.361Z" fill="#EFB118"/>
<path d="M315.465 207.08C315.465 208.332 332.137 209.354 352.697 209.354C373.257 209.354 389.929 208.332 389.929 207.08C389.929 205.828 373.257 204.807 352.697 204.807C332.137 204.807 315.465 205.828 315.465 207.08Z" fill="#F7CC7F"/>
<path d="M405.666 195.337V206.562C405.666 208.375 385.423 209.843 360.443 209.843C335.463 209.843 315.22 208.375 315.22 206.562V195.337H405.666Z" fill="#EFB118"/>
<path d="M372.94 209.714V195.337H405.666V206.562C405.666 208.044 391.83 209.311 372.94 209.714Z" fill="#EAB054"/>
<path d="M371.414 209.742C367.901 209.8 364.23 209.843 360.443 209.843C354.799 209.843 349.415 209.771 344.433 209.627V195.337H371.414V209.742Z" fill="#EAB054"/>
<path d="M342.619 209.57C326.508 209.066 315.22 207.901 315.22 206.548V195.323H342.619V209.57Z" fill="#EAB054"/>
<path d="M360.443 198.489C385.419 198.489 405.666 197.02 405.666 195.208C405.666 193.396 385.419 191.927 360.443 191.927C335.467 191.927 315.22 193.396 315.22 195.208C315.22 197.02 335.467 198.489 360.443 198.489Z" fill="#EFB118"/>
<path d="M360.443 197.482C381.006 197.482 397.675 196.464 397.675 195.208C397.675 193.952 381.006 192.934 360.443 192.934C339.88 192.934 323.211 193.952 323.211 195.208C323.211 196.464 339.88 197.482 360.443 197.482Z" fill="#F7CC7F"/>
<path d="M400.511 183.149V194.374C400.511 196.187 380.268 197.655 355.289 197.655C330.309 197.655 310.066 196.187 310.066 194.374V183.149H400.511Z" fill="#EFB118"/>
<path d="M367.786 197.525V183.148H400.511V194.373C400.511 195.87 386.675 197.122 367.786 197.525Z" fill="#EAB054"/>
<path d="M366.26 197.553C362.747 197.611 359.075 197.654 355.289 197.654C349.645 197.654 344.26 197.582 339.279 197.438V183.148H366.26V197.553Z" fill="#EAB054"/>
<path d="M337.464 197.381C321.354 196.877 310.066 195.712 310.066 194.359V183.134H337.464V197.381Z" fill="#EAB054"/>
<path d="M355.289 186.3C380.265 186.3 400.511 184.831 400.511 183.019C400.511 181.207 380.265 179.738 355.289 179.738C330.313 179.738 310.066 181.207 310.066 183.019C310.066 184.831 330.313 186.3 355.289 186.3Z" fill="#EFB118"/>
<path d="M355.289 185.293C375.851 185.293 392.521 184.275 392.521 183.019C392.521 181.764 375.851 180.746 355.289 180.746C334.726 180.746 318.057 181.764 318.057 183.019C318.057 184.275 334.726 185.293 355.289 185.293Z" fill="#F7CC7F"/>
<path d="M405.666 171.118V182.343C405.666 184.156 385.423 185.624 360.443 185.624C335.463 185.624 315.22 184.156 315.22 182.343V171.118H405.666Z" fill="#EFB118"/>
<path d="M372.94 185.494V171.118H405.666V182.343C405.666 183.839 391.83 185.106 372.94 185.494Z" fill="#EAB054"/>
<path d="M371.414 185.523C367.901 185.581 364.23 185.624 360.443 185.624C354.799 185.624 349.415 185.552 344.433 185.408V171.118H371.414V185.523Z" fill="#EAB054"/>
<path d="M342.619 185.365C326.508 184.861 315.22 183.696 315.22 182.343V171.118H342.619V185.365Z" fill="#EAB054"/>
<path d="M360.443 174.284C385.419 174.284 405.666 172.815 405.666 171.003C405.666 169.191 385.419 167.722 360.443 167.722C335.467 167.722 315.22 169.191 315.22 171.003C315.22 172.815 335.467 174.284 360.443 174.284Z" fill="#EFB118"/>
<path d="M360.443 173.277C381.006 173.277 397.675 172.259 397.675 171.003C397.675 169.747 381.006 168.729 360.443 168.729C339.88 168.729 323.211 169.747 323.211 171.003C323.211 172.259 339.88 173.277 360.443 173.277Z" fill="#F7CC7F"/>
<path d="M426.7 157.49L423.979 166.974C423.533 168.499 406.083 164.858 384.991 158.814C363.898 152.77 347.14 146.64 347.586 145.1L350.307 135.617L426.7 157.49Z" fill="#EFB118"/>
<path d="M395.573 161.721L399.057 149.575L426.701 157.49L423.98 166.973C423.62 168.24 411.641 165.952 395.573 161.721Z" fill="#EAB054"/>
<path d="M394.277 161.376C391.296 160.584 388.187 159.721 384.99 158.8C380.225 157.433 375.689 156.066 371.514 154.742L374.97 142.668L397.761 149.201L394.277 161.376Z" fill="#EAB054"/>
<path d="M370.003 154.267C356.512 149.95 347.269 146.237 347.586 145.085L350.307 135.602L373.444 142.222L370.003 154.267Z" fill="#EAB054"/>
<path d="M350.335 135.516C349.903 137.041 366.648 143.186 387.74 149.23C408.833 155.274 426.297 158.93 426.729 157.39C427.161 155.864 410.416 149.72 389.324 143.676C368.232 137.632 350.767 133.976 350.335 135.516Z" fill="#EFB118"/>
<path d="M357.074 137.444C356.772 138.509 370.608 143.402 387.986 148.381C405.364 153.36 419.689 156.526 419.991 155.461C420.294 154.396 406.458 149.504 389.08 144.524C371.716 139.56 357.377 136.379 357.074 137.444Z" fill="#F7CC7F"/>
<path d="M401.995 92.2578L404.888 101.684C405.349 103.209 388.72 109.656 367.743 116.089C346.765 122.521 329.373 126.493 328.912 124.968L326.019 115.542L401.995 92.2578Z" fill="#EFB118"/>
<path d="M378.21 112.764L374.51 100.691L402.01 92.2578L404.904 101.684C405.278 102.936 393.99 107.555 378.21 112.764Z" fill="#EAB054"/>
<path d="M376.943 113.182C374.006 114.146 370.925 115.11 367.758 116.088C363.021 117.542 358.471 118.866 354.253 120.031L350.567 108.03L373.243 101.079L376.943 113.182Z" fill="#EAB054"/>
<path d="M352.698 120.449C339.034 124.176 329.258 126.104 328.898 124.967L326.004 115.542L349.026 108.49L352.698 120.449Z" fill="#EAB054"/>
<path d="M325.99 115.441C326.451 116.967 343.843 112.981 364.82 106.562C385.797 100.13 402.427 93.6827 401.966 92.1573C401.505 90.6319 384.113 94.6181 363.136 101.036C342.144 107.469 325.515 113.916 325.99 115.441Z" fill="#EFB118"/>
<path d="M332.699 113.384C333.03 114.434 347.298 111.009 364.575 105.713C381.853 100.418 395.602 95.2658 395.271 94.2153C394.94 93.1647 380.672 96.5897 363.395 101.885C346.118 107.181 332.368 112.333 332.699 113.384Z" fill="#F7CC7F"/>
<path d="M154.068 209.527C154.068 209.527 155.191 215.456 155.191 215.47C155.249 216.247 155.235 218.19 155.393 218.866C156.026 221.399 166.695 215.24 163.888 214.751C163.628 214.708 161.8 212.851 161.382 212.06C160.648 210.693 159.971 208.146 159.971 208.146L154.068 209.527Z" fill="#F7A491"/>
<path d="M163.355 214.376C163.355 214.376 160.605 215.053 159.194 215.197C157.797 215.34 155.998 213.167 154.99 213.57C153.881 214.017 153.276 220.924 153.276 220.924C153.276 220.924 170.87 221.73 175.031 220.579C176.687 220.133 168.84 216.477 163.355 214.376Z" fill="#0069FF"/>
<path d="M178.602 209.254C178.602 209.254 179.725 215.183 179.725 215.197C179.783 215.974 179.768 217.917 179.927 218.593C180.56 221.126 191.027 215.37 188.22 214.88C187.96 214.837 186.334 212.578 185.902 211.786C185.167 210.419 184.491 207.872 184.491 207.872L178.602 209.254Z" fill="#F7A491"/>
<path d="M187.629 214.376C187.629 214.376 184.879 215.053 183.468 215.197C182.072 215.34 180.272 213.167 179.264 213.57C178.155 214.017 177.551 220.924 177.551 220.924C177.551 220.924 195.145 221.73 199.306 220.579C200.961 220.133 193.1 216.477 187.629 214.376Z" fill="#0069FF"/>
<path d="M117.599 149.921L149.605 142.496C149.605 142.496 163.959 138.696 167.429 143.157C170.899 147.604 185.613 209.066 185.613 209.066C185.613 209.066 178.026 209.728 177.522 209.397L159.755 177.882C158.071 174.889 156.948 171.593 156.473 168.183L155.206 159.16L142.176 162.959C142.176 162.959 127.159 166.254 121.055 162.47C114.95 158.656 117.599 149.921 117.599 149.921Z" fill="#0E2E35"/>
<path d="M129.895 94.7618C130.399 94.7762 131.781 95.2511 133.811 99.0646C136.403 103.929 140.175 118.65 140.175 118.65L128.887 122.838L127.433 119.773L125.043 96.1289C125.043 96.1145 129.751 94.7474 129.895 94.7618Z" fill="#EAB054"/>
<path d="M114.965 92.6318C118.19 92.6318 126.18 93.5672 129.881 94.7473C129.881 94.7473 132.602 118.06 127.433 135.775C126.281 139.747 128.398 152.209 128.398 152.209L94.9521 151.763C94.9521 151.763 98.9115 121.614 97.4285 116.736C95.9312 111.886 95.888 94.9199 95.888 94.9199C95.888 94.9199 96.1184 94.8911 103.404 93.6248C106.801 93.0348 111.524 92.6318 114.965 92.6318Z" fill="#F7CC7F"/>
<path d="M95.5276 97.5108C98.6519 96.3452 100.178 124.407 100.61 135.962C106.153 136.495 115.799 135.962 118.204 135.79C119.341 135.703 121.947 134.754 123.07 134.61C124.222 134.466 125.273 134.379 125.835 134.48C126.036 134.523 131.81 136.869 132.313 137.387C132.933 138.02 134.588 139.646 134.3 140.337C134.027 141.028 131.118 138.394 131.118 138.394L129.693 137.603C131.464 139.315 134.833 141.589 134.343 142.409C133.868 143.215 130.83 140.913 128.656 139.344C130.514 141.014 132.817 144.007 132.299 144.482C131.824 144.899 129.189 141.431 126.382 140.438C125.345 140.064 124.308 141.085 123.488 141.215C122.883 141.301 121.962 141.503 121.371 141.33L118.549 141.057C117.513 141.143 117.268 141.172 116.217 141.402C115.008 141.661 113.006 141.935 111.466 142.309C102.568 144.482 99.6021 145.475 96.8666 145.475C88.6168 145.46 88.1417 100.274 95.5276 97.5108Z" fill="#F7A491"/>
<path d="M89.5962 123.86C89.0059 112.031 89.0923 97.4388 95.7583 94.9492C98.3787 93.9707 103.015 99.8708 102.18 124.09C98.6235 124.392 93.3971 124.623 89.5962 123.86Z" fill="#EAB054"/>
<path d="M163.758 116.621L132.242 118.679C131.407 118.737 130.687 119.284 130.428 120.075L122.264 144.366L104.886 145.503C104.397 145.532 104.037 145.949 104.066 146.439C104.094 146.928 104.512 147.288 105.001 147.259L154.443 144.035C155.796 143.949 156.977 143.071 157.452 141.79L165.802 119.399C166.349 118.003 165.255 116.535 163.758 116.621Z" fill="#0069FF"/>
<path d="M148.065 131.631C148.007 132.71 147.187 133.545 146.236 133.502C145.286 133.444 144.566 132.523 144.624 131.444C144.681 130.364 145.502 129.53 146.452 129.573C147.403 129.63 148.122 130.551 148.065 131.631Z" fill="white"/>
<path d="M94.9661 151.029L129.851 145.013C129.851 145.013 144.94 142.711 148.395 147.172C151.865 151.619 161.929 209.354 161.929 209.354C161.929 209.354 154.342 210.016 153.838 209.685C153.449 209.426 144.263 190.186 140.131 181.522C138.821 178.774 137.9 175.852 137.396 172.845L136.071 164.988L131.68 166.499C123.963 169.146 115.742 170.067 107.65 169.075C104.267 168.657 101.099 167.923 99.1414 166.714C93.0369 162.887 94.9661 151.029 94.9661 151.029Z" fill="#184655"/>
<path d="M116.289 88.387L116.966 93.4236C116.966 93.4236 118.492 100.676 116.534 102.072C114.576 103.468 108.212 93.2078 108.212 93.2078L108.889 80.4434L116.289 88.387Z" fill="#F7A491"/>
<path d="M108.658 84.5878C110.271 88.9338 114.129 91.6104 116.85 92.6466L116.275 88.3726L108.874 80.4434L108.658 84.5878Z" fill="#0069FF"/>
<path d="M115.886 66.571C120.033 65.909 123.747 69.2188 123.647 73.3633C123.603 75.1622 123.459 77.4071 123.085 79.8247C122.178 85.6385 118.204 90.7471 115.57 90.301C112.935 89.8405 106.312 84.8326 107.478 76.558C108.198 71.4494 111.538 67.2761 115.886 66.571Z" fill="#F7A491"/>
<path d="M109.306 77.5364C109.09 78.8172 108.054 79.7094 107.017 79.5223C105.966 79.3352 105.304 78.1552 105.52 76.8744C105.736 75.5937 106.772 74.7015 107.809 74.8886C108.86 75.0756 109.522 76.2557 109.306 77.5364Z" fill="#F7A491"/>
<path d="M107.809 74.8886C107.809 74.8886 110.991 75.6801 112.172 73.6366C113.352 71.5932 117.571 67.204 122.941 69.0172C128.311 70.8448 118.219 64.5849 117.787 64.5849C117.355 64.5849 112.2 64.5562 112.2 64.5562C112.2 64.5562 108.227 67.8084 108.083 68.1682C107.939 68.528 106.801 72.4278 106.801 72.4278L107.809 74.8886Z" fill="#0E2E35"/>
<path d="M263.748 221.192H342.964V192.368H263.748V221.192Z" fill="#50BFA5"/>
<path d="M263.748 200.293H342.964V196.58H263.748V200.293Z" fill="#96D9C9"/>
<path d="M263.748 207.523H342.964V203.811H263.748V207.523Z" fill="#96D9C9"/>
<path d="M263.748 214.768H342.964V211.055H263.748V214.768Z" fill="#96D9C9"/>
<path d="M263.748 221.205H342.964V217.492H263.748V221.205Z" fill="#96D9C9"/>
<path d="M293.244 221.192H309.715V192.368H293.244V221.192Z" fill="#F7CC7F"/>
<path d="M342.006 221.192H353.971V192.368H342.006V221.192Z" fill="#3C8F7C"/>
<path d="M162.649 70.6724L163.211 77.4936L167.185 73.0325L180.013 62.5273L169.071 65.9667C169.071 65.9667 163.686 68.5858 163.441 68.9312C163.182 69.2765 162.649 70.6724 162.649 70.6724Z" fill="#50BFA5"/>
<path d="M156.833 67.7367L180.013 62.5273L162.65 70.6724L156.833 67.7367Z" fill="#96D9C9"/>
<path d="M171.562 75.7235L164.42 72.169L180.013 62.5273L171.562 75.7235Z" fill="#96D9C9"/>
<path d="M159.942 74.4566C161.008 74.0537 161.8 73.9673 161.814 73.9673L161.756 73.478C161.728 73.478 160.893 73.5788 159.77 73.9961L159.942 74.4566Z" fill="#3C8F7C"/>
<path d="M148.511 114.822C149.447 113.959 150.296 113.038 151.03 112.074L151.433 112.376C150.685 113.369 149.821 114.319 148.856 115.197L148.511 114.822ZM152.945 108.893C153.19 108.375 153.42 107.843 153.622 107.296C153.852 106.677 154.054 106.044 154.212 105.382L154.702 105.512C154.529 106.174 154.327 106.836 154.097 107.469C153.895 108.03 153.665 108.577 153.406 109.109L152.945 108.893ZM154.961 97.9854L155.465 97.971C155.494 99.3237 155.45 100.576 155.335 101.77L154.831 101.727C154.961 100.533 155.004 99.3094 154.961 97.9854ZM154.255 90.5023L154.745 90.4304C154.961 91.8838 155.105 93.0782 155.22 94.1863L154.716 94.2295C154.615 93.1358 154.471 91.9558 154.255 90.5023ZM153.694 86.732C153.492 85.3937 153.435 84.1129 153.507 82.9473L154.011 82.976C153.939 84.1129 153.996 85.3505 154.198 86.66V86.6888L153.708 86.7608L153.694 86.732ZM154.327 79.2057C154.831 77.9825 155.566 76.9032 156.501 76.0254L156.847 76.3852C155.969 77.2198 155.278 78.2272 154.802 79.3928L154.327 79.2057Z" fill="#3C8F7C"/>
</g>
<defs>
<clipPath id="clip0">
<rect width="307.798" height="156.508" fill="white" transform="translate(173.202 69.9067)"/>
</clipPath>
<clipPath id="clip1">
<rect width="426.744" height="223.284" fill="white"/>
</clipPath>
</defs>
</svg>
