<svg width="51" height="51" viewBox="0 0 51 51" fill="none" xmlns="http://www.w3.org/2000/svg">
<path d="M50.9999 34.6939C50.9999 31.9765 48.7877 29.7643 46.0718 29.7643C45.9539 29.7643 45.8391 29.785 45.7244 29.7914C46.2121 28.6375 46.4799 27.3529 46.4799 25.9424C46.4799 22.6512 42.2722 15.1014 39.5261 12.6055C38.0216 12.929 36.4214 13.1043 34.7622 13.1043C33.0505 13.1043 31.4089 12.9179 29.8629 12.5752C27.1502 14.7667 22.3991 22.5492 22.3991 25.944C22.3991 26.5162 22.4517 27.0612 22.5458 27.5808C21.7265 27.525 20.893 27.4932 20.0435 27.4932C17.8456 27.4932 15.7291 27.7306 13.7273 28.1689C13.6683 27.4406 13.6269 26.9959 13.6269 26.9959H0.573639C0.573639 26.9959 0.00146484 31.7773 0.00146484 37.6696C0.00146484 43.5618 0.573639 48.3401 0.573639 48.3401H13.6253C13.6253 48.3401 13.74 47.0921 13.8643 45.3214C15.8072 44.9947 17.7962 45.5079 20.0929 46.9359C23.0064 48.8357 26.5956 49.9657 30.4813 49.9657C34.4212 49.9657 37.8048 48.8039 40.6179 46.8499L40.621 46.853C40.6545 46.8291 40.6864 46.8052 40.7294 46.767C41.5263 46.206 42.2802 45.586 42.9831 44.9054C43.5345 44.3412 44.282 43.6192 45.4024 42.5227C49.1654 38.8251 49.6292 38.0935 49.6292 38.0935C49.6292 38.0935 49.6212 38.0935 49.6149 38.0935C50.4707 37.2121 50.9999 36.0168 50.9999 34.6939ZM31.6065 21.867C31.7276 21.5738 31.9014 21.3124 32.1149 21.0861C32.3381 20.855 32.5963 20.6653 32.8927 20.5171C33.1923 20.3641 33.5159 20.2653 33.8681 20.2127V19.3568H35.6819V20.3434C35.9496 20.4183 36.1903 20.5235 36.407 20.651V20.2653H38.2224V22.9827H36.3959C36.2493 22.8201 36.1042 22.6751 35.9671 22.5508C35.8269 22.4265 35.6803 22.3197 35.5273 22.24C35.3695 22.1603 35.2037 22.0966 35.0188 22.0535C34.8324 22.0105 34.6172 21.9882 34.3654 21.9882C34.002 21.9882 33.7263 22.0758 33.5302 22.2464C33.3374 22.4201 33.2386 22.605 33.2386 22.8042C33.2386 23.3652 33.8426 23.735 35.0555 23.9183C35.8062 24.0298 36.4039 24.2147 36.8485 24.4665C37.2884 24.7215 37.6279 24.9973 37.8638 25.2969C38.0965 25.5934 38.2463 25.8882 38.3116 26.1783C38.377 26.4699 38.4104 26.701 38.4104 26.8811C38.4104 27.227 38.3419 27.5505 38.2017 27.8438C38.063 28.1434 37.8749 28.408 37.6327 28.6279C37.3952 28.8527 37.1035 29.0328 36.7752 29.173C36.4421 29.3101 36.0787 29.3914 35.6898 29.4185V30.2345H33.8761V29.173C33.7773 29.13 33.6912 29.0886 33.5956 29.0487C33.5031 29.0152 33.4203 28.9706 33.331 28.9276V29.326H31.5173V26.6086H33.331C33.4888 26.7823 33.637 26.929 33.7916 27.0565C33.9414 27.1808 34.0944 27.2876 34.2586 27.3641C34.4196 27.4485 34.5949 27.5075 34.7877 27.5473C34.9838 27.5824 35.2053 27.6015 35.4571 27.6015C35.7839 27.6015 36.0548 27.5362 36.2732 27.4023C36.4899 27.2684 36.5967 27.0963 36.5967 26.878C36.5967 26.6979 36.5377 26.5401 36.4278 26.403C36.3178 26.2707 36.1727 26.1592 35.9958 26.0603C35.8205 25.9663 35.6277 25.8914 35.4157 25.8356C35.2021 25.7798 34.9933 25.7336 34.7846 25.6985C34.0498 25.587 33.4649 25.4101 33.025 25.179C32.5867 24.9463 32.2472 24.6929 32.0082 24.4155C31.7739 24.1382 31.6129 23.8545 31.5412 23.566C31.4663 23.2792 31.4312 23.021 31.4312 22.7978C31.4232 22.4743 31.4854 22.1619 31.6065 21.867ZM48.0051 36.624C47.3453 37.2775 44.5561 40.1543 43.7975 40.897C41.8403 42.8175 40.9271 43.718 40.4999 44.2153L40.4888 44.2073C40.1891 44.4767 39.8751 44.7174 39.5548 44.9532C37.0302 46.6602 33.8856 47.6834 30.4797 47.6834C27.0403 47.6834 23.8718 46.6474 21.3377 44.9134H21.3217C19.1271 43.5778 16.5563 42.7554 14.0126 43.0056C14.1146 41.2492 14.1958 39.3255 14.1958 37.6728C14.1958 35.3729 14.0365 32.5551 13.8914 30.3891C15.8247 29.954 17.8919 29.7101 20.0387 29.7101C26.6004 29.7101 32.4066 31.8793 35.9624 35.2789C36.3815 35.7459 36.6461 36.3595 36.6461 37.0352C36.6461 38.492 35.4603 39.6778 34.0036 39.6778C33.9526 39.6778 33.9 39.6618 33.8394 39.6586L33.8331 39.6873C32.4735 39.6411 30.3458 39.0705 26.7534 37.6951L25.9374 39.8371C29.7354 41.2811 32.2377 41.9346 34.0116 41.9792V41.9633C36.2349 41.9601 38.1108 40.4747 38.7212 38.4553V38.4585C39.4894 37.1819 42.3663 34.5234 43.9999 33.0699V33.0731C44.019 33.0507 44.0334 33.0396 44.0461 33.0268C44.3473 32.7591 44.6103 32.5296 44.7968 32.3686C45.1427 32.1486 45.4997 32.0578 46.0702 32.0578C47.5238 32.0578 48.7096 33.2436 48.7096 34.7003C48.7128 35.4255 48.3892 36.1108 48.0051 36.624Z" fill="white"/>
<path d="M30.4858 10.9559C30.4858 10.9559 32.7012 11.4819 34.872 11.4819C37.0411 11.4819 38.4692 11.1743 38.4692 11.1743C39.7299 10.5543 42.5637 4.0181 40.9013 1.71346C39.0429 -0.857335 35.9366 4.73053 34.5022 4.15676C33.0742 3.58458 30.0268 0.60418 28.017 1.81865C26.2702 2.87534 29.112 9.93428 30.4858 10.9559Z" fill="white"/>
</svg>
