<svg width="63" height="92" viewBox="0 0 63 92" fill="none" xmlns="http://www.w3.org/2000/svg">
<g clip-path="url(#clip0)">
<path d="M45.2391 4.77926L53.2344 86.1113C53.3527 87.3211 52.5285 88.3805 51.4003 88.4659L12.4538 91.7672C10.0792 91.8526 8.79902 90.5574 8.67066 89.2758L0.0098933 3.18331C-0.121842 1.88809 1.06378 0.743243 3.46204 0.794505L42.9388 2.47931C44.0873 2.52032 45.1209 3.55581 45.2391 4.77926Z" fill="url(#paint0_linear)"/>
<path d="M47.0126 4.67254L55.0383 86.4249C55.1566 87.6416 54.329 88.7078 53.1974 88.7898L12.8222 91.7835C11.5622 91.8758 10.4205 90.8984 10.2922 89.61L1.59087 3.06633C1.45913 1.7677 2.40493 0.742461 3.68513 0.790305L44.7022 2.36234C45.8506 2.40676 46.891 3.44567 47.0126 4.67254Z" fill="#26264F"/>
<path d="M46.1609 9.18362L53.6056 84.9555C53.7171 86.0935 52.9436 87.0845 51.8829 87.1631L13.9059 89.8937C12.7338 89.9791 11.6732 89.0667 11.5516 87.8671L3.52248 7.926C3.40088 6.71622 4.27912 5.75591 5.46811 5.79692L44.0024 7.03746C45.0766 7.07163 46.0494 8.03877 46.1609 9.18362Z" fill="#D8DEE8"/>
<path d="M25.7351 4.17358C25.779 4.61101 25.475 4.95276 25.0528 4.93909C24.6306 4.92542 24.2556 4.55634 24.2117 4.1189C24.1678 3.68147 24.4752 3.3363 24.894 3.35339C25.3163 3.37048 25.6912 3.73615 25.7351 4.17358Z" fill="white"/>
<g opacity="0.3">
<path opacity="0.3" d="M21.9964 44.0792C17.9835 32.084 24.9689 26.0419 21.0134 14.9283C18.8617 8.88285 14.555 4.37864 9.8159 1.02612L3.68513 0.793728C2.40493 0.745884 1.45913 1.7677 1.59087 3.06975L10.2888 89.6169C10.4172 90.9052 11.5589 91.8826 12.8188 91.7904L47.6781 89.2068C47.57 80.171 45.3001 73.7393 42.7768 69.1668C35.8421 56.5974 26.1511 56.4983 21.9964 44.0792Z" fill="#F4F7FA"/>
</g>
<path d="M44.9654 15.311C50.9779 20.3484 56.9904 25.3891 62.9996 30.4264C47.492 37.4835 49.2957 59.0476 33.7881 66.1047C27.7756 61.0673 21.7631 56.0266 15.7539 50.9893C31.2615 43.9322 29.4578 22.3647 44.9654 15.311Z" fill="url(#paint1_linear)"/>
<path d="M59.9596 30.1667C46.803 37.668 47.2995 56.611 34.1428 64.1089C29.0254 59.82 23.908 55.5311 18.7939 51.2422C31.9506 43.7408 31.4541 24.7978 44.6107 17.2999C49.7282 21.5923 54.8422 25.8778 59.9596 30.1667Z" fill="white"/>
<path d="M21.5199 49.0346C21.5875 49.0926 21.6483 49.1439 21.7091 49.2054C21.7158 49.2123 21.7192 49.2157 21.726 49.2225C22.4252 49.9026 22.7528 50.7638 22.6718 51.5908C22.6008 52.3119 22.2158 52.9988 21.4861 53.508C21.3781 53.5832 21.2632 53.6515 21.145 53.7165C20.689 53.9659 20.162 54.13 19.6081 54.2222C18.3245 53.1457 17.0409 52.0692 15.7573 50.9928C17.4057 50.2443 18.8582 49.3285 20.1587 48.2861C20.6214 48.4194 21.1146 48.6962 21.5199 49.0346Z" fill="url(#paint2_linear)"/>
<path d="M37.2301 62.1985C37.6524 62.5505 37.9327 62.94 38.1692 63.4116C36.8755 64.4471 35.4298 65.3562 33.7881 66.1011C32.4741 65.0007 31.1602 63.9003 29.8462 62.7965C30.1502 62.4958 30.5353 62.2121 30.9947 61.9627C31.1163 61.8977 31.2379 61.8362 31.3662 61.7781C33.2375 60.9101 35.5345 60.9101 37.0646 62.0618C37.0714 62.0652 37.0748 62.072 37.0815 62.0754C37.1288 62.1164 37.1829 62.1609 37.2301 62.1985Z" fill="url(#paint3_linear)"/>
<path d="M44.9658 15.311C46.2493 16.3875 47.5329 17.464 48.8165 18.5405C48.5125 18.8413 48.1274 19.1249 47.668 19.3744C47.5464 19.4393 47.4248 19.5008 47.2965 19.5589C45.442 20.4201 43.1823 20.4304 41.6521 19.3129C41.5812 19.2616 41.5238 19.2172 41.4562 19.1591C41.0509 18.8208 40.7232 18.4038 40.5645 18.0177C41.8649 16.9753 43.3174 16.0595 44.9658 15.311Z" fill="url(#paint4_linear)"/>
<path d="M59.0616 27.1218C60.3756 28.2222 61.6896 29.3227 63.0036 30.4265C61.3653 31.1715 59.9162 32.0806 58.6224 33.116C58.0516 32.9144 57.5888 32.6786 57.1666 32.3232C57.1193 32.2822 57.0686 32.2412 57.0247 32.1967C57.0179 32.1899 57.0146 32.1865 57.0078 32.1831C56.3255 31.5474 55.9742 30.7409 55.9877 29.9549C56.0012 29.1655 56.3863 28.3931 57.1835 27.8395C57.2915 27.7643 57.403 27.6925 57.5246 27.6276C57.9806 27.3816 58.5042 27.2141 59.0616 27.1218Z" fill="url(#paint5_linear)"/>
<path d="M42.5198 34.4078C45.3977 36.8205 46.2489 41.5332 44.5904 45.0772C42.9319 48.6211 39.0947 49.4037 36.1897 46.967C33.3118 44.5543 32.4606 39.8416 34.1191 36.2976C35.7776 32.7571 39.6149 31.9745 42.5198 34.4078Z" fill="url(#paint6_linear)"/>
<path d="M40.4124 38.6385C39.9057 38.7581 39.3822 39.1067 38.7742 39.821C38.3486 39.4621 37.9196 39.1067 37.494 38.7479C37.5109 38.7171 37.5277 38.6898 37.5446 38.659C37.7135 38.3686 37.8993 38.1088 38.102 37.8901C38.2168 37.7637 38.3418 37.6475 38.4702 37.5415C38.612 37.4253 38.612 37.1724 38.4735 37.0289C38.2979 36.8512 38.1222 36.6701 37.9466 36.4924C37.8351 36.3796 37.6764 36.3762 37.575 36.4821C37.4028 36.6598 37.2305 36.8546 37.0751 37.0494C36.8623 37.3126 36.6664 37.5894 36.4806 37.8935C36.332 37.7671 36.1834 37.6441 36.0347 37.5176C35.903 37.4083 35.7341 37.4253 35.6463 37.5723C35.5585 37.7192 35.599 37.9175 35.7307 38.0268C35.8827 38.1533 36.0347 38.2831 36.1867 38.4096C35.8219 39.1717 35.6699 39.8859 35.7375 40.5318C35.8084 41.1811 36.0955 41.7211 36.6022 42.1448C37.092 42.5549 37.5919 42.6985 38.0952 42.5788C38.5951 42.4558 39.1187 42.0662 39.6524 41.4169C40.1253 41.8168 40.6016 42.2166 41.0745 42.6164C40.8887 42.9445 40.6793 43.2453 40.4428 43.5186C40.2942 43.6929 40.1321 43.857 39.9632 44.0108C39.8179 44.1406 39.8145 44.4072 39.9632 44.5541C40.1895 44.7831 40.4192 45.0086 40.6455 45.2376C40.7603 45.3504 40.9191 45.347 41.0204 45.2342C41.1893 45.0462 41.3548 44.8446 41.5102 44.6259C41.7196 44.332 41.9223 44.0005 42.1115 43.6451C42.1351 43.6007 42.1588 43.5597 42.179 43.5152C42.3412 43.6519 42.5033 43.7886 42.6654 43.9219C42.7972 44.0313 42.9661 44.0176 43.0404 43.8604C43.0404 43.8604 43.0404 43.857 43.0438 43.857C43.1181 43.6998 43.0775 43.505 42.9458 43.3956C42.7803 43.2589 42.6182 43.1188 42.4526 42.9821C42.6857 42.4148 42.8174 41.8714 42.8377 41.3657C42.8478 41.1469 42.8377 40.9282 42.8073 40.7198C42.706 40.0329 42.3952 39.4826 41.8852 39.052C41.4089 38.6522 40.9157 38.5189 40.4124 38.6385ZM40.0341 40.9521C40.2368 40.7403 40.4394 40.5933 40.6185 40.5591C40.7941 40.5215 40.9731 40.5762 41.1454 40.7198C41.3346 40.8804 41.446 41.0786 41.4798 41.3041C41.517 41.5331 41.4731 41.7757 41.3413 42.0491C40.9056 41.6801 40.4698 41.3178 40.0341 40.9521ZM37.8723 40.6446C37.7101 40.6856 37.5514 40.6412 37.3994 40.5113C37.2372 40.3746 37.1427 40.2003 37.1123 39.985C37.0819 39.7697 37.1292 39.51 37.2204 39.281C37.6122 39.6091 38.004 39.9372 38.3958 40.2652C38.2033 40.4874 38.0344 40.6036 37.8723 40.6446Z" fill="white"/>
<path opacity="0.2" d="M62.9423 30.3752C62.9626 30.3923 62.9828 30.4094 62.9997 30.423C47.4921 37.4801 49.2959 59.0443 33.7883 66.1014C27.9041 61.17 22.0199 56.2385 16.1357 51.3037C16.9903 51.2115 17.9159 51.1568 18.9123 51.1739C20.0642 51.1944 21.3106 51.3106 22.6752 51.5805C24.1885 51.8847 25.8436 52.3802 27.6778 53.1662C36.7405 57.0587 39.3448 53.7814 40.9155 48.2485C41.3478 46.7824 41.7194 45.166 42.172 43.5256C42.3713 42.8045 42.5943 42.0766 42.8408 41.3521C43.3273 39.9372 43.9116 38.5429 44.6176 37.2477C46.9246 32.8153 50.978 29.8181 55.9907 29.9514C56.9095 29.9651 57.8452 30.0744 58.7842 30.2795C59.0274 30.3342 59.2841 30.3752 59.5543 30.4025C60.5271 30.5119 61.6621 30.4709 62.9423 30.3752Z" fill="url(#paint7_linear)"/>
<path d="M47.8194 33.6014C48.3565 33.8167 48.6369 34.3943 48.4376 34.883L35.9767 65.8793C35.7639 66.4056 35.0174 66.7849 34.4601 66.5525L14.1627 58.0123C13.6188 57.7833 13.3925 56.9871 13.6188 56.471L26.181 25.9634C26.3871 25.485 26.9883 25.2663 27.5153 25.4782L47.8194 33.6014Z" fill="url(#paint8_linear)"/>
<path d="M48.1539 32.9862C48.6943 33.2049 48.9747 33.7859 48.7754 34.278L36.0849 65.6673C35.8721 66.197 35.237 66.4397 34.6797 66.2039L14.2539 57.6192C13.7067 57.3902 13.4432 56.7751 13.6696 56.2591L26.3668 25.3072C26.5763 24.8253 27.1809 24.6032 27.7112 24.8151L48.1539 32.9862Z" fill="url(#paint9_linear)"/>
<g opacity="0.7">
<path opacity="0.7" d="M32.822 54.4649L30.6737 59.5604C30.5791 59.7894 30.3089 59.909 30.0792 59.8304L28.8125 59.3998C28.5794 59.3212 28.4713 59.0717 28.5659 58.8427L30.7311 53.7507C30.8257 53.5251 31.0925 53.4089 31.3222 53.4841L32.5788 53.9113C32.8085 53.9933 32.9165 54.2394 32.822 54.4649Z" fill="#F4F7FA"/>
<path opacity="0.7" d="M35.6527 47.7599L33.5416 52.763C33.447 52.9852 33.1836 53.1048 32.9539 53.0262L31.6973 52.599C31.4676 52.5204 31.3596 52.2743 31.4541 52.0522L33.5788 47.0525C33.6733 46.8338 33.9334 46.7176 34.1631 46.7928L35.4062 47.22C35.6358 47.2986 35.7439 47.5412 35.6527 47.7599Z" fill="#F4F7FA"/>
<path opacity="0.7" d="M38.4289 41.1779L36.3549 46.0888C36.2637 46.3075 36.0002 46.4237 35.7739 46.3451L34.5309 45.9179C34.3046 45.8393 34.1931 45.5967 34.2877 45.378L36.3752 40.4705C36.4664 40.2552 36.7265 40.1424 36.9528 40.2176L38.1857 40.6414C38.412 40.7234 38.5201 40.9626 38.4289 41.1779Z" fill="#F4F7FA"/>
<path opacity="0.7" d="M41.1587 34.7155L39.1252 39.5375C39.034 39.7529 38.7773 39.8656 38.551 39.787L37.3215 39.3633C37.0951 39.2847 36.987 39.0454 37.0782 38.8301L39.1286 34.0115C39.2198 33.7996 39.4765 33.6902 39.6961 33.7654L40.9155 34.1892C41.1385 34.2678 41.2465 34.5036 41.1587 34.7155Z" fill="#F4F7FA"/>
</g>
<path d="M26.7518 54.8135L25.7385 57.2296C25.5527 57.6704 25.0224 57.8687 24.5562 57.6739L22.0229 56.6145C21.5601 56.4197 21.3338 55.9036 21.5196 55.4662L22.5431 53.0603C22.7288 52.6263 23.2558 52.4281 23.7185 52.6195L26.2418 53.6686C26.7045 53.86 26.9342 54.376 26.7518 54.8135Z" fill="url(#paint10_linear)"/>
<path d="M26.4377 54.8818L25.5663 56.9561C25.394 57.3628 24.9076 57.5473 24.4752 57.3662L22.2999 56.4572C21.8709 56.2795 21.6615 55.801 21.8338 55.3978L22.712 53.3303C22.8843 52.927 23.3707 52.7459 23.7963 52.9236L25.9648 53.8258C26.3938 54.0035 26.6066 54.4751 26.4377 54.8818ZM21.9418 55.4422C21.7932 55.7908 21.9723 56.2009 22.3438 56.3546L24.5191 57.2637C24.8907 57.4175 25.3095 57.2603 25.4582 56.9083L26.3296 54.8339C26.4749 54.4853 26.2959 54.0787 25.9243 53.9249L23.7557 53.0227C23.3876 52.8689 22.9687 53.0261 22.8201 53.3747L21.9418 55.4422Z" fill="url(#paint11_linear)"/>
<path d="M22.5898 56.5189L24.0457 53.0844L22.5898 56.5189Z" fill="#F4F7FA"/>
<path d="M24.1001 53.1081L22.6442 56.5427L22.5361 56.4948L23.992 53.0637L24.1001 53.1081Z" fill="url(#paint12_linear)"/>
<path d="M23.4072 56.8603L24.8597 53.4224L23.4072 56.8603Z" fill="#F4F7FA"/>
<path d="M24.9141 53.4464L23.4616 56.8845L23.3535 56.8366L24.806 53.402L24.9141 53.4464Z" fill="url(#paint13_linear)"/>
<path d="M24.2251 57.2022L25.6742 53.7607L24.2251 57.2022Z" fill="#F4F7FA"/>
<path d="M25.7315 53.7848L24.279 57.2261L24.1709 57.1816L25.6234 53.7404L25.7315 53.7848Z" fill="url(#paint14_linear)"/>
<path d="M25.7549 55.2509L25.3496 56.2113C25.2482 56.4573 24.951 56.5667 24.6909 56.4607L22.7925 55.6679C22.5358 55.5585 22.4074 55.2714 22.5122 55.0288L22.9175 54.0685C23.0222 53.8258 23.3161 53.713 23.5728 53.8224L25.4678 54.6118C25.7313 54.7178 25.8596 55.0049 25.7549 55.2509Z" fill="#FEC045"/>
<path d="M25.8092 55.2714L25.4038 56.2317C25.289 56.5051 24.9613 56.6281 24.6708 56.5085L22.7725 55.7157C22.4854 55.5961 22.3435 55.2748 22.4583 55.0014L22.8637 54.0411C22.9785 53.7677 23.3062 53.6447 23.5967 53.7677L25.4916 54.5572C25.7821 54.6802 25.924 55.0014 25.8092 55.2714ZM22.5698 55.0493C22.4786 55.2646 22.5901 55.5209 22.8198 55.6166L24.7181 56.4094C24.9478 56.5051 25.2079 56.406 25.2991 56.1907L25.7044 55.2304C25.7956 55.0151 25.6842 54.7622 25.4545 54.6665L23.5595 53.8771C23.3298 53.7814 23.0697 53.8805 22.9785 54.0958L22.5698 55.0493Z" fill="url(#paint15_linear)"/>
<path opacity="0.15" d="M35.0781 53.1219C34.3384 55.8456 33.6831 57.5031 32.2779 59.0956C30.3491 61.2794 27.9475 62.2773 26.4443 62.7455L34.6795 66.2074C35.2369 66.4432 35.8719 66.2005 36.0847 65.6708L48.7753 34.2781C48.9745 33.7859 48.6942 33.205 48.1537 32.9863L44.8806 31.674C39.8915 35.1153 38.0067 38.6251 37.223 41.2565C36.2739 44.4382 36.8346 46.6527 35.0781 53.1219Z" fill="url(#paint16_linear)"/>
<g opacity="0.42">
<path opacity="0.42" d="M37.3855 54.5503L34.5211 61.5765C34.467 61.7098 34.3049 61.7713 34.163 61.7132L32.9977 61.2245C32.8558 61.1664 32.7849 61.0092 32.8389 60.8725L35.7168 53.8565C35.7709 53.7267 35.9296 53.6652 36.0715 53.7233L37.2301 54.2017C37.3686 54.2632 37.4395 54.4204 37.3855 54.5503Z" fill="url(#paint17_linear)"/>
<path opacity="0.42" d="M42.9216 41.0719L39.108 50.4186C39.054 50.5518 38.8918 50.6133 38.7534 50.5553L37.588 50.0768C37.4461 50.0187 37.3752 49.8615 37.4292 49.7282L41.2563 40.3952C41.3103 40.2654 41.4691 40.2039 41.6076 40.262L42.7628 40.7301C42.9047 40.7882 42.9756 40.942 42.9216 41.0719Z" fill="url(#paint18_linear)"/>
</g>
<path opacity="0.26" d="M31.0854 29.8012C32.4906 30.3685 33.1391 32.0123 32.5345 33.4613C31.9366 34.8966 30.3355 35.5972 28.9574 35.0367C27.5792 34.4763 26.9239 32.8666 27.4981 31.4245C28.0758 29.9686 29.6836 29.2373 31.0854 29.8012Z" fill="url(#paint19_linear)"/>
<g opacity="0.53">
<path opacity="0.53" d="M25.8429 51.6969C25.9341 51.9225 25.8261 52.1856 25.6031 52.2813C25.3768 52.3769 25.1167 52.271 25.0255 52.0421C24.9343 51.8131 25.0458 51.5534 25.2721 51.4577C25.495 51.3655 25.7517 51.4714 25.8429 51.6969Z" fill="#F4F7FA"/>
<g opacity="0.53">
<path opacity="0.53" d="M27.9745 51.0646C27.961 51.1022 27.9306 51.1364 27.8867 51.1535C27.8023 51.1877 27.7077 51.1501 27.6705 51.0646C27.1334 49.8104 25.6979 49.2191 24.4278 49.7249C24.3434 49.7591 24.2454 49.7181 24.2116 49.6361C24.1778 49.5541 24.2218 49.4584 24.3062 49.4242C25.7384 48.8569 27.3598 49.5267 27.9678 50.9382C27.9914 50.9792 27.9914 51.027 27.9745 51.0646Z" fill="#F4F7FA"/>
<path opacity="0.53" d="M27.3733 51.3244C27.3564 51.3655 27.326 51.3962 27.2855 51.4167C27.201 51.4543 27.1031 51.4133 27.0693 51.3279C26.6775 50.3983 25.6134 49.9575 24.6778 50.3402C24.59 50.3744 24.4954 50.3334 24.4616 50.2514C24.4278 50.1659 24.4718 50.0703 24.5562 50.0361C25.6607 49.5918 26.9105 50.1078 27.3733 51.2014C27.3868 51.239 27.3868 51.2834 27.3733 51.3244Z" fill="#F4F7FA"/>
<path opacity="0.53" d="M26.7618 51.5842C26.7449 51.6252 26.7145 51.6593 26.6706 51.6764C26.5862 51.714 26.4882 51.673 26.4511 51.5842C26.2045 50.9861 25.5188 50.7024 24.9209 50.9519C24.8331 50.9861 24.7351 50.9485 24.7014 50.863C24.6676 50.7776 24.7115 50.6785 24.7959 50.6443C25.1709 50.4905 25.5796 50.4905 25.9478 50.6443C26.316 50.7981 26.6031 51.0852 26.7584 51.4577C26.7787 51.4987 26.7787 51.5431 26.7618 51.5842Z" fill="#F4F7FA"/>
</g>
</g>
<path d="M32.0725 48.6995C32.0725 54.3076 27.7387 58.7195 22.1991 58.5452C16.4331 58.3675 11.5859 53.3302 11.5859 47.3018C11.5859 41.2733 16.4331 36.899 22.1991 37.5039C27.7387 38.0917 32.0725 43.0949 32.0725 48.6995Z" fill="url(#paint20_linear)"/>
<path d="M33.5691 48.2177C33.5691 53.8257 29.2353 58.2376 23.6957 58.0633C17.9297 57.8856 13.0825 52.8483 13.0825 46.8199C13.0825 40.7915 17.9297 36.4172 23.6957 37.0221C29.2353 37.6065 33.5691 42.6096 33.5691 48.2177Z" fill="url(#paint21_linear)"/>
<path d="M33.1364 48.1869C33.1364 53.5489 28.9884 57.7558 23.6987 57.5849C18.2029 57.4038 13.5854 52.5989 13.5854 46.8541C13.5854 41.1094 18.1996 36.9332 23.6987 37.504C28.9884 38.0508 33.1364 42.8284 33.1364 48.1869Z" fill="url(#paint22_linear)"/>
<path d="M32.822 48.1664C32.822 53.3507 28.8091 57.4175 23.6951 57.2432C18.3885 57.062 13.9399 52.4211 13.9399 46.878C13.9399 41.3349 18.3885 37.3023 23.6951 37.8457C28.8125 38.3686 32.822 42.9821 32.822 48.1664Z" fill="url(#paint23_linear)"/>
<path d="M23.6446 39.6091C23.9182 39.6364 24.1378 39.8825 24.1378 40.1627V41.1162C24.6816 41.1777 25.2254 41.2734 25.7726 41.4033C26.1746 41.4989 26.5732 41.6117 26.9718 41.745C27.2082 41.8236 27.3704 42.0662 27.3467 42.3191L27.2319 43.5152C27.2015 43.8331 26.8907 44.0176 26.6002 43.8877C26.3401 43.7681 26.0699 43.669 25.7963 43.5836C25.3166 43.4366 24.81 43.341 24.2796 43.2965L24.1412 43.2863V46.0202C25.5598 46.4235 26.6036 46.9634 27.2758 47.6435C27.948 48.3202 28.279 49.1643 28.279 50.1758C28.279 51.2694 27.9108 52.1477 27.1677 52.8073C26.4212 53.4737 25.3774 53.8462 24.0263 53.9282V54.9808C24.0263 55.261 23.8067 55.4797 23.5331 55.466H23.523C23.2494 55.4558 23.0298 55.22 23.0298 54.9363V53.8974L22.8103 53.8872C22.1753 53.8598 21.5706 53.7915 20.9896 53.6924C20.5606 53.6172 20.1418 53.5181 19.7297 53.3985C19.4831 53.3267 19.3108 53.0875 19.3345 52.8312L19.4696 51.2933C19.5 50.9619 19.8277 50.7671 20.1418 50.8935C20.5066 51.0405 20.8748 51.1601 21.2497 51.2626C21.8307 51.4164 22.4218 51.5189 23.0197 51.5633L23.0298 48.5218C21.6686 48.18 20.6451 47.6743 19.9763 47.0045C19.3041 46.3312 18.9663 45.47 18.9663 44.4243C18.9663 43.341 19.3311 42.5071 20.0641 41.9193C20.7903 41.3349 21.824 41.0444 23.1548 41.0444V40.067C23.1514 39.7902 23.371 39.5818 23.6446 39.6091ZM23.1514 43.2589C22.7292 43.2897 22.4016 43.4059 22.1651 43.6109C21.9287 43.816 21.8104 44.0894 21.8104 44.4311C21.8104 44.7558 21.9185 45.0292 22.1381 45.2479C22.3543 45.4666 22.6921 45.6409 23.1481 45.7708V43.2589H23.1514ZM24.0229 48.7644V51.5531C24.4823 51.5531 24.8302 51.4437 25.0768 51.2216C25.32 50.9994 25.445 50.6885 25.445 50.2818C25.445 49.9127 25.3301 49.6085 25.1038 49.3625C24.8775 49.1199 24.5161 48.9216 24.0229 48.7644Z" fill="url(#paint24_linear)"/>
<path opacity="0.3" d="M22.0434 49.4377C22.3507 46.3552 25.151 45.0531 24.7862 42.2166C24.5599 40.4703 23.2526 38.9974 21.7934 37.8491C17.3651 38.3173 13.9399 42.0287 13.9399 46.8815C13.9399 52.4212 18.3885 57.0655 23.6951 57.2466C24.2119 57.2637 24.7119 57.2364 25.2016 57.1715C23.0972 55.0458 21.7799 52.0829 22.0434 49.4377Z" fill="url(#paint25_linear)"/>
<path d="M26.7926 26.3495C26.7926 30.1258 23.8741 33.099 20.1416 32.9828C16.2605 32.8632 12.9941 29.4696 12.9941 25.4097C12.9941 21.3498 16.2605 18.4039 20.1416 18.8106C23.8708 19.2036 26.7926 22.5732 26.7926 26.3495Z" fill="url(#paint26_linear)"/>
<path d="M27.7994 26.0214C27.7994 29.7977 24.881 32.7708 21.1485 32.6546C17.2673 32.535 14.001 29.1415 14.001 25.0816C14.001 21.0216 17.2673 18.0758 21.1485 18.4825C24.881 18.8755 27.7994 22.2451 27.7994 26.0214Z" fill="url(#paint27_linear)"/>
<path d="M27.5057 26.0042C27.5057 29.6131 24.7122 32.4496 21.1486 32.3334C17.4465 32.2138 14.3389 28.974 14.3389 25.1054C14.3389 21.2369 17.4465 18.4243 21.1486 18.8071C24.7156 19.1762 27.5057 22.392 27.5057 26.0042Z" fill="url(#paint28_linear)"/>
<path d="M27.2962 25.9873C27.2962 29.4799 24.5939 32.2173 21.1485 32.1011C17.5748 31.9781 14.5786 28.8511 14.5786 25.1192C14.5786 21.3874 17.5748 18.6705 21.1485 19.0362C24.5939 19.3916 27.2962 22.498 27.2962 25.9873Z" fill="url(#paint29_linear)"/>
<path d="M21.1148 20.2253C21.2972 20.2424 21.4458 20.4099 21.4458 20.5978V21.2403C21.814 21.2813 22.1788 21.3462 22.547 21.4351C22.8172 21.5 23.0874 21.5752 23.3543 21.6641C23.513 21.7188 23.6245 21.8794 23.6076 22.0502L23.5299 22.8568C23.5097 23.0721 23.3002 23.1951 23.1043 23.1062C22.9287 23.0276 22.7463 22.9593 22.5639 22.9012C22.2396 22.8021 21.9018 22.7372 21.5404 22.7064L21.4458 22.6996V24.5416C22.4017 24.8116 23.1043 25.1772 23.557 25.6352C24.0096 26.0897 24.2325 26.6604 24.2325 27.3405C24.2325 28.0787 23.9826 28.6699 23.4826 29.1142C22.9793 29.5618 22.2768 29.8147 21.3647 29.8694V30.5803C21.3647 30.7682 21.2161 30.9152 21.0337 30.9083H21.027C20.8445 30.9015 20.6925 30.7409 20.6925 30.5529V29.8523L20.5439 29.8455C20.1183 29.825 19.7096 29.7806 19.3178 29.7122C19.0273 29.661 18.7469 29.596 18.4699 29.514C18.3044 29.4662 18.1896 29.3055 18.2031 29.1312L18.2943 28.0958C18.3146 27.8702 18.5375 27.7403 18.7469 27.8258C18.9935 27.9249 19.2401 28.0069 19.4934 28.0718C19.8852 28.1778 20.2838 28.2427 20.6858 28.2735L20.6925 26.2264C19.7738 25.9974 19.0881 25.6557 18.6354 25.2046C18.1828 24.7501 17.9531 24.1725 17.9531 23.4685C17.9531 22.7406 18.1997 22.1767 18.6929 21.7803C19.1827 21.3873 19.8785 21.1925 20.7736 21.1925V20.5363C20.7804 20.3449 20.9324 20.2082 21.1148 20.2253ZM20.7804 22.6825C20.4966 22.703 20.2771 22.7816 20.1183 22.9183C19.9596 23.055 19.8819 23.2395 19.8819 23.4719C19.8819 23.6906 19.9562 23.8752 20.1014 24.0221C20.2467 24.1691 20.4764 24.2853 20.7837 24.3741V22.6825H20.7804ZM21.3715 26.3904V28.27C21.6789 28.27 21.9153 28.1949 22.0808 28.0479C22.2464 27.8975 22.3274 27.6891 22.3274 27.4157C22.3274 27.1662 22.2497 26.9612 22.0977 26.7971C21.9457 26.6297 21.7025 26.4964 21.3715 26.3904Z" fill="url(#paint30_linear)"/>
<path opacity="0.3" d="M20.0372 26.845C20.2433 24.7706 22.1315 23.8923 21.8849 21.982C21.7329 20.8064 20.8513 19.8153 19.8683 19.0396C16.8857 19.3574 14.5786 21.8555 14.5786 25.1226C14.5786 28.8545 17.5748 31.9814 21.1485 32.1045C21.4964 32.1147 21.8342 32.0976 22.1653 32.0532C20.7466 30.6213 19.8582 28.6255 20.0372 26.845Z" fill="url(#paint31_linear)"/>
<path d="M48.31 54.6287L50.536 80.9124C50.5934 81.5891 50.3907 82.2281 49.9617 82.6827C49.5969 83.0757 49.1071 83.3422 48.5329 83.3901L15.7578 86.1821C14.3695 86.3018 13.1805 85.3004 13.0825 83.9608L11.022 55.9991C10.9241 54.6834 11.9577 53.5386 13.3392 53.4907L45.9117 52.4176C47.1446 52.38 48.2053 53.3916 48.31 54.6287Z" fill="url(#paint32_linear)"/>
<path opacity="0.2" d="M49.9949 82.6826C49.6301 83.0756 49.1268 83.3387 48.5526 83.39L15.764 86.1821C14.3757 86.3017 13.1732 85.3004 13.0752 83.9607L11.0147 55.999C10.9168 54.6833 11.9504 53.5384 13.3319 53.4906L13.7102 53.4769C13.8487 54.198 14.0311 55.008 14.2068 55.7871C14.2304 55.8965 14.2574 56.0127 14.2811 56.1152C14.4871 57.014 14.6594 57.7522 14.6932 57.8445C15.7167 60.9407 17.159 64.4983 20.2126 66.2309C24.8774 68.8794 30.7818 68.401 35.6898 69.8534C38.919 70.8069 42.2361 72.0987 44.8066 74.2585C46.6847 75.8374 48.2689 77.7819 49.1978 80.058C49.5356 80.8816 49.799 81.7701 49.9949 82.6826Z" fill="url(#paint33_linear)"/>
<g opacity="0.7">
<path opacity="0.7" d="M45.9077 82.2454L44.7761 82.3171C44.6478 82.3274 44.5329 82.2215 44.5228 82.0916C44.5126 81.9617 44.6072 81.866 44.7356 81.8558L45.8638 81.7806C46.0563 81.7806 46.2455 81.702 46.4245 81.6439C46.5461 81.6029 46.6778 81.6576 46.7184 81.7806C46.7589 81.9036 46.6947 82.054 46.5731 82.095C46.3603 82.1634 46.1408 82.2454 45.9077 82.2454ZM43.0095 82.4402L41.2328 82.5871C41.1044 82.5974 40.9896 82.5017 40.9794 82.3718C40.9693 82.242 41.0639 82.1258 41.1956 82.1155L42.9724 81.9686C43.1007 81.9583 43.2156 82.054 43.2257 82.1839C43.2358 82.3171 43.1412 82.4299 43.0095 82.4402ZM39.4459 82.7375L37.6489 82.8879C37.5172 82.8981 37.4023 82.8024 37.3922 82.6691C37.382 82.5393 37.48 82.4231 37.6117 82.4128L39.4087 82.2659C39.5405 82.2556 39.6553 82.3513 39.6655 82.4846C39.6722 82.611 39.5776 82.7238 39.4459 82.7375ZM35.8384 83.0348L34.0177 83.1852C33.886 83.1954 33.7678 83.0997 33.7576 82.9665C33.7475 82.8332 33.8454 82.7204 33.9806 82.7067L35.8012 82.5564C35.9329 82.5461 36.0478 82.6418 36.0579 82.7751C36.0681 82.9084 35.9701 83.0246 35.8384 83.0348ZM32.1869 83.3355L30.346 83.4893C30.2109 83.4996 30.0927 83.4005 30.0825 83.2706C30.0724 83.1408 30.1737 83.0211 30.3089 83.0109L32.1498 82.8605C32.2849 82.8503 32.3997 82.9494 32.4099 83.0792C32.42 83.2091 32.322 83.3253 32.1869 83.3355ZM28.4916 83.6431L26.627 83.7969C26.4919 83.8072 26.3703 83.7081 26.3602 83.5748C26.35 83.4415 26.4514 83.3253 26.5899 83.3116L28.4544 83.1578C28.5895 83.1476 28.7078 83.2467 28.7179 83.38C28.728 83.5133 28.6267 83.6329 28.4916 83.6431ZM24.7523 83.9541L22.8641 84.1113C22.7256 84.1216 22.6074 84.0225 22.5973 83.8892C22.5871 83.7559 22.6918 83.6363 22.8269 83.626L24.7152 83.4722C24.8537 83.462 24.9719 83.5611 24.982 83.6944C24.9921 83.8242 24.8908 83.9404 24.7523 83.9541ZM20.9658 84.2651L19.0539 84.4223C18.9154 84.4326 18.7938 84.3335 18.7837 84.1968C18.7735 84.0601 18.8783 83.9439 19.0168 83.9302L20.9286 83.773C21.0671 83.7627 21.1887 83.8618 21.1988 83.9951C21.209 84.1352 21.1043 84.2549 20.9658 84.2651ZM17.1353 84.5282C17.1184 84.5282 17.1015 84.5282 17.0846 84.5282C16.3888 84.4496 15.7301 84.1421 15.2336 83.6568C15.1356 83.5611 15.1356 83.4039 15.237 83.3082C15.3383 83.2125 15.5004 83.2125 15.5984 83.3082C16.0139 83.7115 16.5644 83.9712 17.1488 84.0396C17.2873 84.0566 17.3853 84.1762 17.3684 84.3129C17.3515 84.4291 17.2535 84.518 17.1353 84.5282ZM47.8837 81.0151C47.8331 81.0185 47.7824 81.0082 47.7385 80.9775C47.6304 80.9057 47.6034 80.7622 47.6743 80.6528C47.9716 80.1983 48.1033 79.6652 48.0594 79.1184C48.0492 78.9885 48.1438 78.8792 48.2688 78.8689C48.3938 78.8587 48.5053 78.9544 48.5188 79.0842C48.5728 79.737 48.4141 80.3692 48.0628 80.9126C48.0155 80.9741 47.9513 81.0117 47.8837 81.0151ZM14.6188 82.0677C14.4803 82.0779 14.3553 81.9891 14.3418 81.8558C14.3384 81.8182 14.3317 81.7874 14.3283 81.7498L14.1966 79.9864C14.1864 79.8497 14.2709 79.7301 14.4128 79.7199C14.5546 79.7096 14.656 79.8087 14.6661 79.9454L14.7978 81.7088C14.8012 81.7396 14.8282 81.7669 14.8316 81.7977C14.8451 81.9344 14.7573 82.0574 14.6154 82.0677C14.6121 82.0643 14.6222 82.0677 14.6188 82.0677ZM48.2553 78.4486C48.1269 78.4588 48.0594 78.3631 48.0492 78.2333L47.9006 76.4699C47.8905 76.34 47.9412 76.2306 48.0661 76.2204C48.1911 76.2101 48.262 76.3058 48.2722 76.4357L48.4208 78.1957C48.4343 78.3255 48.3836 78.4383 48.2553 78.4486ZM14.3114 78.3495C14.1696 78.3597 14.0682 78.2606 14.0581 78.1239L13.9196 76.2648C13.9095 76.1281 13.9939 76.0119 14.1358 76.0017C14.2776 75.9914 14.379 76.0939 14.3891 76.2272L14.5276 78.0863C14.5377 78.2196 14.4533 78.3392 14.3114 78.3495ZM47.958 74.9252C47.8331 74.9354 47.7621 74.8363 47.752 74.7099L47.6034 72.9499C47.5932 72.8234 47.6439 72.7106 47.7689 72.7038C47.8939 72.697 47.9648 72.7927 47.9749 72.9191L48.1236 74.6757C48.1371 74.8055 48.0864 74.9183 47.958 74.9252ZM14.0378 74.6313C13.896 74.6415 13.7946 74.539 13.7845 74.4057L13.646 72.55C13.6359 72.4133 13.7203 72.2971 13.8622 72.2869C14.004 72.2766 14.1054 72.3791 14.1155 72.5158L14.254 74.3715C14.2608 74.5048 14.1763 74.6244 14.0378 74.6313ZM47.6642 71.412C47.5392 71.4188 47.4683 71.3231 47.4581 71.1967L47.3095 69.4401C47.2994 69.3137 47.35 69.2009 47.475 69.1941C47.6 69.1872 47.6709 69.2829 47.6811 69.4128L47.8297 71.1659C47.8432 71.2924 47.7892 71.4017 47.6642 71.412ZM13.7608 70.9233C13.619 70.9335 13.5176 70.831 13.5075 70.6943L13.369 68.8421C13.3589 68.7088 13.4433 68.5892 13.5852 68.5823C13.7271 68.5755 13.8284 68.678 13.8385 68.8113L13.977 70.6601C13.9872 70.7968 13.9027 70.913 13.7608 70.9233ZM47.3703 67.9057C47.2453 67.9125 47.1744 67.8168 47.1642 67.6869L47.0156 65.9372C47.0055 65.8108 47.0562 65.7014 47.1811 65.6946C47.3061 65.6877 47.3771 65.7868 47.3872 65.9133L47.5358 67.663C47.5459 67.7895 47.4953 67.8954 47.3703 67.9057ZM13.4872 67.2222C13.3454 67.229 13.244 67.1265 13.2339 66.9932L13.0954 65.1444C13.0853 65.0111 13.1697 64.8949 13.3116 64.888C13.4535 64.8812 13.5548 64.9837 13.5615 65.117L13.7 66.9624C13.7135 67.0991 13.6291 67.2153 13.4872 67.2222ZM47.0764 64.4062C46.9514 64.413 46.8805 64.3139 46.8704 64.1875L46.7251 62.4411C46.715 62.3147 46.7657 62.2053 46.8906 62.1985C47.0156 62.1917 47.0866 62.2908 47.0967 62.4172L47.2419 64.1635C47.2521 64.29 47.2014 64.3993 47.0764 64.4062ZM13.2136 63.5279C13.0718 63.5347 12.9704 63.4322 12.9603 63.2955L12.8252 61.4501C12.815 61.3168 12.8995 61.2006 13.0414 61.1938C13.1832 61.1869 13.2812 61.2894 13.2913 61.4261L13.4264 63.2682C13.4399 63.4083 13.3555 63.5211 13.2136 63.5279ZM46.7826 60.9135C46.6576 60.9204 46.5866 60.8212 46.5765 60.6948L46.4313 58.9519C46.4211 58.8254 46.4718 58.7195 46.5968 58.7127C46.7218 58.7058 46.7927 58.8049 46.8028 58.9348L46.9481 60.6777C46.9582 60.8007 46.9075 60.9067 46.7826 60.9135ZM12.94 59.8439C12.7982 59.8507 12.6968 59.7447 12.6901 59.6115L12.5887 58.2274C12.5752 58.0633 12.582 57.8959 12.5989 57.7319C12.6124 57.5986 12.7407 57.5063 12.8792 57.52C13.0211 57.5371 13.0988 57.6567 13.0853 57.79C13.0718 57.9267 13.0447 58.0668 13.0549 58.2069L13.1562 59.591C13.1663 59.7242 13.0819 59.837 12.94 59.8439ZM46.4887 57.4277C46.3637 57.4345 46.2928 57.332 46.2826 57.2056L46.2556 56.8672C46.2185 56.4366 46.0361 56.0197 45.7861 55.6609C45.7118 55.5549 45.7185 55.4114 45.8232 55.343C45.928 55.2747 46.0529 55.3055 46.1273 55.4114C46.4245 55.8386 46.5866 56.3375 46.6306 56.8501L46.6576 57.1885C46.6643 57.3149 46.6137 57.4209 46.4887 57.4277ZM13.6595 56.3854C13.5919 56.3888 13.521 56.3649 13.467 56.3136C13.3656 56.2179 13.3623 56.0641 13.4568 55.9719C13.9432 55.5002 14.5918 55.2029 15.2842 55.1312C15.4227 55.1175 15.5511 55.2132 15.5714 55.343C15.5916 55.4763 15.497 55.5959 15.3586 55.6096C14.7776 55.6711 14.2337 55.9206 13.8284 56.317C13.7811 56.358 13.7203 56.382 13.6595 56.3854ZM44.5599 54.7142C44.5329 54.7142 44.5025 54.7108 44.4755 54.7006C44.1918 54.6049 43.9013 54.5604 43.604 54.5741L42.8204 54.6015C42.692 54.6049 42.5805 54.5058 42.5704 54.3793C42.5603 54.2529 42.6548 54.1435 42.7832 54.1401L43.5669 54.1128C43.9215 54.0991 44.2694 54.1503 44.6072 54.2665C44.7288 54.3075 44.7998 54.4374 44.7626 54.5604C44.7356 54.6527 44.6545 54.7108 44.5599 54.7142ZM41.0639 54.6664L39.2973 54.7313C39.1689 54.7347 39.0541 54.6356 39.0439 54.5092C39.0338 54.3827 39.1284 54.2734 39.2601 54.27L41.0267 54.2084C41.1551 54.205 41.2666 54.3041 41.2767 54.4306C41.2868 54.5536 41.1922 54.663 41.0639 54.6664ZM37.5172 54.7962L35.7303 54.8612C35.5985 54.8646 35.4837 54.7655 35.4736 54.6356C35.4634 54.5058 35.5614 54.3998 35.6897 54.393L37.4766 54.3281C37.605 54.3246 37.7198 54.4237 37.73 54.5536C37.7468 54.6835 37.6489 54.7928 37.5172 54.7962ZM33.9299 54.9261L32.1227 54.991C31.991 54.9945 31.8762 54.8954 31.866 54.7655C31.8559 54.6356 31.9539 54.5263 32.0856 54.5229L33.8961 54.4579C34.0278 54.4545 34.1427 54.5536 34.1528 54.6835C34.1596 54.8133 34.0616 54.9227 33.9299 54.9261ZM30.3021 55.0594L28.4713 55.1243C28.3362 55.1277 28.2214 55.0286 28.2112 54.8954C28.2011 54.7655 28.3024 54.6561 28.4342 54.6493L30.2649 54.5844C30.3967 54.5809 30.5149 54.6801 30.525 54.8099C30.5352 54.9432 30.4338 55.0526 30.3021 55.0594ZM26.627 55.1927L24.7726 55.261C24.6375 55.2644 24.5192 55.1619 24.5091 55.0321C24.499 54.9022 24.6003 54.7894 24.7354 54.786L26.5899 54.7211C26.725 54.7176 26.8432 54.8168 26.8533 54.95C26.8635 55.0765 26.7621 55.1858 26.627 55.1927ZM22.9114 55.326L21.0367 55.3943C20.8982 55.3977 20.78 55.2952 20.7698 55.1653C20.7597 55.0321 20.8644 54.9227 20.9995 54.9159L22.8742 54.8475C23.0094 54.8441 23.1276 54.9466 23.1377 55.0765C23.1478 55.2132 23.0465 55.3225 22.9114 55.326ZM19.1485 55.4627L17.2501 55.531C17.1117 55.5344 16.9901 55.4319 16.9799 55.2986C16.9698 55.1653 17.0745 55.0526 17.213 55.0491L19.1113 54.9808C19.2498 54.9774 19.368 55.0799 19.3782 55.2132C19.3883 55.3465 19.2836 55.4592 19.1485 55.4627Z" fill="white"/>
</g>
<path d="M49.63 61.8672C49.4307 61.7441 49.1908 61.7236 48.9814 61.8159L42.3169 64.7002C41.361 65.1172 40.709 66.098 40.7935 67.1506L41.0232 69.9495C41.1144 71.0704 42.0129 72.0068 43.1107 72.2529L50.0083 73.7805C50.2278 73.8283 50.4609 73.7702 50.6298 73.6233C50.7953 73.4763 50.8933 73.2576 50.873 73.032L49.9711 62.431C49.9509 62.2021 49.8293 61.9902 49.63 61.8672Z" fill="url(#paint34_linear)"/>
<path d="M45.2255 68.2336C45.2897 69.0093 44.7188 69.6757 43.9453 69.7236C43.1718 69.7714 42.4895 69.1802 42.4253 68.401C42.3611 67.6219 42.9387 66.9555 43.7122 66.911C44.4824 66.8666 45.1613 67.4612 45.2255 68.2336Z" fill="url(#paint35_linear)"/>
</g>
<defs>
<linearGradient id="paint0_linear" x1="-0.848801" y1="46.1065" x2="54.0157" y2="47.1859" gradientUnits="userSpaceOnUse">
<stop stop-color="#444B8C"/>
<stop offset="0.9964" stop-color="#26264F"/>
</linearGradient>
<linearGradient id="paint1_linear" x1="14.3121" y1="30.006" x2="75.2572" y2="55.4255" gradientUnits="userSpaceOnUse">
<stop stop-color="#AA80F9"/>
<stop offset="0.9964" stop-color="#6165D7"/>
</linearGradient>
<linearGradient id="paint2_linear" x1="5.94543" y1="45.2891" x2="78.8045" y2="75.6779" gradientUnits="userSpaceOnUse">
<stop stop-color="#AA80F9"/>
<stop offset="0.9964" stop-color="#6165D7"/>
</linearGradient>
<linearGradient id="paint3_linear" x1="-0.965197" y1="48.4841" x2="75.7224" y2="80.47" gradientUnits="userSpaceOnUse">
<stop stop-color="#AA80F9"/>
<stop offset="0.9964" stop-color="#6165D7"/>
</linearGradient>
<linearGradient id="paint4_linear" x1="16.7631" y1="6.03461" x2="93.0793" y2="37.8651" gradientUnits="userSpaceOnUse">
<stop stop-color="#AA80F9"/>
<stop offset="0.9964" stop-color="#6165D7"/>
</linearGradient>
<linearGradient id="paint5_linear" x1="12.625" y1="10.3958" x2="85.8762" y2="40.9485" gradientUnits="userSpaceOnUse">
<stop stop-color="#AA80F9"/>
<stop offset="0.9964" stop-color="#6165D7"/>
</linearGradient>
<linearGradient id="paint6_linear" x1="33.3491" y1="38.1243" x2="45.4017" y2="43.1513" gradientUnits="userSpaceOnUse">
<stop stop-color="#AA80F9"/>
<stop offset="0.9964" stop-color="#6165D7"/>
</linearGradient>
<linearGradient id="paint7_linear" x1="25.7939" y1="59.4045" x2="55.4108" y2="24.0644" gradientUnits="userSpaceOnUse">
<stop stop-color="#AA80F9"/>
<stop offset="0.9964" stop-color="#6165D7"/>
</linearGradient>
<linearGradient id="paint8_linear" x1="41.3629" y1="25.7141" x2="25.7438" y2="65.5279" gradientUnits="userSpaceOnUse">
<stop stop-color="#311944"/>
<stop offset="1" stop-color="#893976"/>
</linearGradient>
<linearGradient id="paint9_linear" x1="24.6211" y1="60.726" x2="43.458" y2="3.69292" gradientUnits="userSpaceOnUse">
<stop offset="0.00359712" stop-color="#E38DDD"/>
<stop offset="1" stop-color="#9571F6"/>
</linearGradient>
<linearGradient id="paint10_linear" x1="16.4902" y1="61.7052" x2="32.7728" y2="46.5819" gradientUnits="userSpaceOnUse">
<stop stop-color="#F57E53"/>
<stop offset="0.00453714" stop-color="#F58152"/>
<stop offset="0.0419817" stop-color="#F99A4D"/>
<stop offset="0.0840169" stop-color="#FCAD49"/>
<stop offset="0.1333" stop-color="#FEBA46"/>
<stop offset="0.1962" stop-color="#FFC244"/>
<stop offset="0.3183" stop-color="#FFC444"/>
<stop offset="0.455" stop-color="#FDB946"/>
<stop offset="0.6941" stop-color="#F99C4C"/>
<stop offset="0.9964" stop-color="#F36F56"/>
</linearGradient>
<linearGradient id="paint11_linear" x1="23.3684" y1="57.0529" x2="24.5056" y2="53.1209" gradientUnits="userSpaceOnUse">
<stop stop-color="#FF9085"/>
<stop offset="1" stop-color="#FB6FBB"/>
</linearGradient>
<linearGradient id="paint12_linear" x1="22.6388" y1="56.5398" x2="23.6713" y2="52.9697" gradientUnits="userSpaceOnUse">
<stop stop-color="#FF9085"/>
<stop offset="1" stop-color="#FB6FBB"/>
</linearGradient>
<linearGradient id="paint13_linear" x1="23.4546" y1="56.8812" x2="24.4878" y2="53.3091" gradientUnits="userSpaceOnUse">
<stop stop-color="#FF9085"/>
<stop offset="1" stop-color="#FB6FBB"/>
</linearGradient>
<linearGradient id="paint14_linear" x1="24.2712" y1="57.2227" x2="25.3048" y2="53.6489" gradientUnits="userSpaceOnUse">
<stop stop-color="#FF9085"/>
<stop offset="1" stop-color="#FB6FBB"/>
</linearGradient>
<linearGradient id="paint15_linear" x1="23.6976" y1="56.2329" x2="24.3481" y2="53.9837" gradientUnits="userSpaceOnUse">
<stop stop-color="#FF9085"/>
<stop offset="1" stop-color="#FB6FBB"/>
</linearGradient>
<linearGradient id="paint16_linear" x1="31.7286" y1="63.1397" x2="49.9903" y2="7.84788" gradientUnits="userSpaceOnUse">
<stop stop-color="#FB6FBB"/>
<stop offset="1" stop-color="#FF9085"/>
</linearGradient>
<linearGradient id="paint17_linear" x1="33.5768" y1="61.5457" x2="35.8565" y2="53.6633" gradientUnits="userSpaceOnUse">
<stop stop-color="#FB6FBB"/>
<stop offset="1" stop-color="#FF9085"/>
</linearGradient>
<linearGradient id="paint18_linear" x1="38.1764" y1="50.3913" x2="41.1449" y2="40.1276" gradientUnits="userSpaceOnUse">
<stop stop-color="#FB6FBB"/>
<stop offset="1" stop-color="#FF9085"/>
</linearGradient>
<linearGradient id="paint19_linear" x1="29.2872" y1="35.1546" x2="30.2125" y2="29.5925" gradientUnits="userSpaceOnUse">
<stop stop-color="#FF9085"/>
<stop offset="1" stop-color="#FB6FBB"/>
</linearGradient>
<linearGradient id="paint20_linear" x1="18.3193" y1="49.1396" x2="6.34603" y2="52.9376" gradientUnits="userSpaceOnUse">
<stop stop-color="#FCB148"/>
<stop offset="0.0520724" stop-color="#FDBA46"/>
<stop offset="0.1424" stop-color="#FFC244"/>
<stop offset="0.3183" stop-color="#FFC444"/>
<stop offset="0.4849" stop-color="#FDB946"/>
<stop offset="0.7754" stop-color="#F99C4D"/>
<stop offset="0.8658" stop-color="#F8924F"/>
<stop offset="1" stop-color="#F8924F"/>
</linearGradient>
<linearGradient id="paint21_linear" x1="27.9843" y1="37.1076" x2="17.1104" y2="60.8193" gradientUnits="userSpaceOnUse">
<stop stop-color="#FFDB44"/>
<stop offset="1" stop-color="#FEEF06"/>
</linearGradient>
<linearGradient id="paint22_linear" x1="26.0219" y1="62.2453" x2="23.9169" y2="50.8793" gradientUnits="userSpaceOnUse">
<stop stop-color="#FCB148"/>
<stop offset="0.0520724" stop-color="#FDBA46"/>
<stop offset="0.1424" stop-color="#FFC244"/>
<stop offset="0.3183" stop-color="#FFC444"/>
<stop offset="0.4849" stop-color="#FDB946"/>
<stop offset="0.7754" stop-color="#F99C4D"/>
<stop offset="0.8658" stop-color="#F8924F"/>
<stop offset="1" stop-color="#F8924F"/>
</linearGradient>
<linearGradient id="paint23_linear" x1="21.6583" y1="43.834" x2="30.3028" y2="61.9718" gradientUnits="userSpaceOnUse">
<stop stop-color="#FCB148"/>
<stop offset="0.0520724" stop-color="#FDBA46"/>
<stop offset="0.1424" stop-color="#FFC244"/>
<stop offset="0.3183" stop-color="#FFC444"/>
<stop offset="0.4849" stop-color="#FDB946"/>
<stop offset="0.7754" stop-color="#F99C4D"/>
<stop offset="0.8658" stop-color="#F8924F"/>
<stop offset="1" stop-color="#F8924F"/>
</linearGradient>
<linearGradient id="paint24_linear" x1="21.3206" y1="39.9143" x2="25.6791" y2="56.0598" gradientUnits="userSpaceOnUse">
<stop stop-color="#FFDB44"/>
<stop offset="1" stop-color="#FEEF06"/>
</linearGradient>
<linearGradient id="paint25_linear" x1="19.1631" y1="45.0129" x2="27.7902" y2="63.1141" gradientUnits="userSpaceOnUse">
<stop stop-color="#FCB148"/>
<stop offset="0.0520724" stop-color="#FDBA46"/>
<stop offset="0.1424" stop-color="#FFC244"/>
<stop offset="0.3183" stop-color="#FFC444"/>
<stop offset="0.4849" stop-color="#FDB946"/>
<stop offset="0.7754" stop-color="#F99C4D"/>
<stop offset="0.8658" stop-color="#F8924F"/>
<stop offset="1" stop-color="#F8924F"/>
</linearGradient>
<linearGradient id="paint26_linear" x1="17.5279" y1="26.6438" x2="9.46375" y2="29.2019" gradientUnits="userSpaceOnUse">
<stop stop-color="#FCB148"/>
<stop offset="0.0520724" stop-color="#FDBA46"/>
<stop offset="0.1424" stop-color="#FFC244"/>
<stop offset="0.3183" stop-color="#FFC444"/>
<stop offset="0.4849" stop-color="#FDB946"/>
<stop offset="0.7754" stop-color="#F99C4D"/>
<stop offset="0.8658" stop-color="#F8924F"/>
<stop offset="1" stop-color="#F8924F"/>
</linearGradient>
<linearGradient id="paint27_linear" x1="24.0375" y1="18.5401" x2="16.7138" y2="34.5103" gradientUnits="userSpaceOnUse">
<stop stop-color="#FFDB44"/>
<stop offset="1" stop-color="#FEEF06"/>
</linearGradient>
<linearGradient id="paint28_linear" x1="22.7162" y1="35.4706" x2="21.2984" y2="27.8154" gradientUnits="userSpaceOnUse">
<stop stop-color="#FCB148"/>
<stop offset="0.0520724" stop-color="#FDBA46"/>
<stop offset="0.1424" stop-color="#FFC244"/>
<stop offset="0.3183" stop-color="#FFC444"/>
<stop offset="0.4849" stop-color="#FDB946"/>
<stop offset="0.7754" stop-color="#F99C4D"/>
<stop offset="0.8658" stop-color="#F8924F"/>
<stop offset="1" stop-color="#F8924F"/>
</linearGradient>
<linearGradient id="paint29_linear" x1="19.7773" y1="23.0705" x2="25.5994" y2="35.2865" gradientUnits="userSpaceOnUse">
<stop stop-color="#FCB148"/>
<stop offset="0.0520724" stop-color="#FDBA46"/>
<stop offset="0.1424" stop-color="#FFC244"/>
<stop offset="0.3183" stop-color="#FFC444"/>
<stop offset="0.4849" stop-color="#FDB946"/>
<stop offset="0.7754" stop-color="#F99C4D"/>
<stop offset="0.8658" stop-color="#F8924F"/>
<stop offset="1" stop-color="#F8924F"/>
</linearGradient>
<linearGradient id="paint30_linear" x1="19.5498" y1="20.4303" x2="22.4853" y2="31.3047" gradientUnits="userSpaceOnUse">
<stop stop-color="#FFDB44"/>
<stop offset="1" stop-color="#FEEF06"/>
</linearGradient>
<linearGradient id="paint31_linear" x1="18.0967" y1="23.8644" x2="23.9071" y2="36.0558" gradientUnits="userSpaceOnUse">
<stop stop-color="#FCB148"/>
<stop offset="0.0520724" stop-color="#FDBA46"/>
<stop offset="0.1424" stop-color="#FFC244"/>
<stop offset="0.3183" stop-color="#FFC444"/>
<stop offset="0.4849" stop-color="#FDB946"/>
<stop offset="0.7754" stop-color="#F99C4D"/>
<stop offset="0.8658" stop-color="#F8924F"/>
<stop offset="1" stop-color="#F8924F"/>
</linearGradient>
<linearGradient id="paint32_linear" x1="36.3422" y1="18.8784" x2="25.6154" y2="112.324" gradientUnits="userSpaceOnUse">
<stop stop-color="#AB316D"/>
<stop offset="1" stop-color="#792D3D"/>
</linearGradient>
<linearGradient id="paint33_linear" x1="140.078" y1="26.7491" x2="-9.41774" y2="82.5082" gradientUnits="userSpaceOnUse">
<stop stop-color="#AB316D"/>
<stop offset="1" stop-color="#792D3D"/>
</linearGradient>
<linearGradient id="paint34_linear" x1="82.2594" y1="55.3543" x2="35.152" y2="72.9245" gradientUnits="userSpaceOnUse">
<stop stop-color="#AB316D"/>
<stop offset="1" stop-color="#792D3D"/>
</linearGradient>
<linearGradient id="paint35_linear" x1="52.7932" y1="64.8944" x2="40.9745" y2="69.3026" gradientUnits="userSpaceOnUse">
<stop stop-color="#FFC444"/>
<stop offset="0.9964" stop-color="#F36F56"/>
</linearGradient>
<clipPath id="clip0">
<rect width="63" height="91" fill="white" transform="translate(0 0.790283)"/>
</clipPath>
</defs>
</svg>
