<svg width="42" height="42" viewBox="0 0 42 42" fill="none" xmlns="http://www.w3.org/2000/svg">
<g clip-path="url(#clip0)">
<path d="M38.7602 3.23976C34.4405 -1.07992 27.4128 -1.07992 23.0931 3.23976L16.6562 9.67667C15.5329 10.7999 14.6228 12.233 14.0362 13.9827C14.0263 13.9859 14.0168 13.9909 14.007 13.9942C12.6728 18.0078 13.6847 22.3722 16.6562 25.3437C17.544 26.2316 18.5886 26.9626 19.7199 27.5023L20.1377 27.0845C21.5826 25.6396 21.5826 23.3071 20.1377 21.8621C17.7354 19.4598 17.7354 15.5604 20.1377 13.1582L26.5746 6.72125C28.9769 4.31897 32.8763 4.31897 35.2786 6.72125C37.6809 9.12354 37.6809 13.0229 35.2786 15.4252L30.391 20.3128C31.0427 22.3279 31.1808 24.4617 30.8654 26.5387C31.3801 26.1799 31.8754 25.7915 32.3232 25.3437L38.7601 18.9068C43.0799 14.5871 43.0799 7.55937 38.7602 3.23976Z" fill="white"/>
<path d="M25.3598 16.6398C24.472 15.752 23.4276 15.0208 22.2787 14.4985L21.8782 14.899C20.4334 16.3438 20.4333 18.6765 21.8782 20.1215C24.2805 22.5237 24.2805 26.4232 21.8782 28.8254C19.8449 30.8588 17.3641 33.34 15.4253 35.2787C13.0231 37.681 9.1237 37.681 6.72142 35.2787C4.31913 32.8764 4.31913 28.9771 6.72142 26.5748L11.625 21.6708C10.9733 19.6557 10.8353 17.5217 11.1507 15.4448C10.6359 15.8037 10.1406 16.192 9.69267 16.6398L3.23976 23.0931C-1.07992 27.4128 -1.07992 34.4405 3.23976 38.7603C7.55945 43.0801 14.5871 43.08 18.9069 38.7603L25.3598 32.307C26.4831 31.1836 27.3932 29.7506 27.9798 28.001C27.9897 27.9977 27.9992 27.9927 28.009 27.9894C29.3432 23.9758 28.3313 19.6113 25.3598 16.6398Z" fill="white"/>
<path d="M35.8048 34.0477L34.064 32.3069C33.5829 31.8258 32.8043 31.8258 32.3232 32.3069C31.8421 32.788 31.8421 33.5666 32.3232 34.0477L34.064 35.7885C34.5451 36.2696 35.3238 36.2696 35.8048 35.7885C36.2858 35.3074 36.2858 34.5288 35.8048 34.0477Z" fill="white"/>
<path d="M9.69307 7.9356L7.95221 6.19482C7.47109 5.71371 6.69245 5.71371 6.21142 6.19482C5.73031 6.67593 5.73031 7.45457 6.21142 7.9356L7.95221 9.67639C8.43332 10.1575 9.21196 10.1575 9.69307 9.67639C10.1742 9.19528 10.1742 8.41664 9.69307 7.9356Z" fill="white"/>
<path d="M40.3506 24.9L37.9723 24.2625C37.3152 24.0865 36.6403 24.4759 36.4644 25.1329C36.2883 25.794 36.6822 26.4662 37.3348 26.6409L39.7131 27.2784C40.3702 27.4543 41.0451 27.065 41.221 26.4079C41.3952 25.7509 41.0076 25.0726 40.3506 24.9Z" fill="white"/>
<path d="M4.6812 15.3429L2.30287 14.7054C1.6458 14.5294 0.970931 14.9187 0.794974 15.5758C0.618853 16.2367 1.01268 16.909 1.66541 17.0837L4.04374 17.7212C4.70081 17.8972 5.37568 17.5079 5.55164 16.8508C5.72669 16.1929 5.33573 15.5145 4.6812 15.3429Z" fill="white"/>
<path d="M27.2944 39.6967L26.6569 37.3184C26.4802 36.6588 25.8061 36.272 25.149 36.448C24.492 36.6239 24.1026 37.2988 24.2786 37.9559L24.9161 40.3342C25.0909 40.9869 25.7631 41.3807 26.424 41.2046C27.0811 41.0287 27.4703 40.3538 27.2944 39.6967Z" fill="white"/>
<path d="M17.7369 4.02768L17.0993 1.64935C16.9242 0.989736 16.2485 0.604681 15.5914 0.778915C14.9343 0.954872 14.545 1.62974 14.721 2.28681L15.3585 4.66515C15.4163 4.88105 15.5286 5.06808 15.6764 5.21598C15.9773 5.51688 16.4261 5.65288 16.8664 5.53558C17.5235 5.3597 17.9128 4.68475 17.7369 4.02768Z" fill="white"/>
</g>
<defs>
<clipPath id="clip0">
<rect width="42" height="42" fill="white"/>
</clipPath>
</defs>
</svg>
