<svg width="51" height="51" viewBox="0 0 51 51" fill="none" xmlns="http://www.w3.org/2000/svg">
<path d="M25.5 8.95651C27.9561 8.95651 29.9472 6.96541 29.9472 4.50926C29.9472 2.05311 27.9561 0.0620117 25.5 0.0620117C23.0438 0.0620117 21.0527 2.05311 21.0527 4.50926C21.0527 6.96541 23.0438 8.95651 25.5 8.95651Z" fill="white"/>
<path d="M27.2234 10.0254C27.2024 10.0248 27.1814 10.0243 27.1604 10.0239H23.8399C20.4346 10.0879 17.7262 12.9004 17.7902 16.3056C17.7905 16.3266 17.7911 16.3476 17.7916 16.3686V17.3173C17.7916 17.7917 17.9695 18.3254 18.5032 18.3254H32.4971C33.0307 18.3254 33.2086 17.7917 33.2086 17.3173V16.3686C33.3074 12.9643 30.6278 10.1243 27.2234 10.0254Z" fill="white"/>
<path d="M6.22871 29.5914C6.71993 29.5914 7.11819 29.1931 7.11819 28.7019C7.10581 23.1207 9.63792 17.8382 13.9965 14.3522C14.3689 14.0848 14.4541 13.5661 14.1867 13.1937C14.1648 13.1632 14.1409 13.1342 14.1151 13.107C13.8027 12.733 13.2473 12.6802 12.87 12.9884C8.10901 16.8149 5.33958 22.5937 5.33936 28.7019C5.33936 29.1932 5.7375 29.5914 6.22871 29.5914Z" fill="white"/>
<path d="M31.3706 46.1353C27.5763 47.38 23.4836 47.38 19.6893 46.1353C19.2219 45.984 18.7205 46.2401 18.5691 46.7074C18.5668 46.7143 18.5647 46.7213 18.5626 46.7282C18.4415 47.2003 18.6979 47.6874 19.1555 47.8549C21.2046 48.521 23.3456 48.8611 25.5002 48.863C27.6986 48.8651 29.8824 48.5045 31.9635 47.7956C32.3999 47.5702 32.5711 47.0336 32.3457 46.5972C32.1618 46.2412 31.7625 46.0521 31.3706 46.1353Z" fill="white"/>
<path d="M36.1024 13.6923C36.1062 13.6949 36.11 13.6975 36.1139 13.7001C40.9761 17.151 43.8699 22.7397 43.8817 28.7021C43.8817 29.1933 44.28 29.5916 44.7712 29.5916C45.2624 29.5916 45.6607 29.1933 45.6607 28.7021C45.6443 22.1506 42.4639 16.0107 37.122 12.2177C36.7072 11.9673 36.1704 12.0695 35.8768 12.455C35.5973 12.859 35.6984 13.413 36.1024 13.6923Z" fill="white"/>
<path d="M7.71092 41.5695C10.1671 41.5695 12.1582 39.5784 12.1582 37.1223C12.1582 34.6661 10.1671 32.675 7.71092 32.675C5.25477 32.675 3.26367 34.6661 3.26367 37.1223C3.26367 39.5784 5.25477 41.5695 7.71092 41.5695Z" fill="white"/>
<path d="M9.43438 42.6382C9.41338 42.6376 9.39238 42.6371 9.37139 42.6367H6.05082C2.64558 42.7007 -0.06301 45.5132 0.00111552 48.9184C0.00145601 48.9394 0.00202349 48.9604 0.00259097 48.9814V49.9301C0.00259097 50.4045 0.18044 50.9382 0.714101 50.9382H14.708C15.2417 50.9382 15.4195 50.4045 15.4195 49.9301V48.9814C15.5185 45.577 12.8388 42.737 9.43438 42.6382Z" fill="white"/>
<path d="M43.289 41.5695C45.7452 41.5695 47.7363 39.5784 47.7363 37.1223C47.7363 34.6661 45.7452 32.675 43.289 32.675C40.8329 32.675 38.8418 34.6661 38.8418 37.1223C38.8418 39.5784 40.8329 41.5695 43.289 41.5695Z" fill="white"/>
<path d="M45.012 42.6382C44.991 42.6376 44.97 42.6371 44.949 42.6367H41.6285C38.2232 42.7007 35.5147 45.5132 35.5787 48.9184C35.5791 48.9394 35.5797 48.9604 35.5802 48.9814V49.9301C35.5802 50.4045 35.7581 50.9382 36.2917 50.9382H50.2857C50.8194 50.9382 50.9973 50.4045 50.9973 49.9301V48.9814C51.0961 45.577 48.4165 42.737 45.012 42.6382Z" fill="white"/>
</svg>
