<svg xmlns="http://www.w3.org/2000/svg" version="1.1" xmlns:xlink="http://www.w3.org/1999/xlink" xmlns:svgjs="http://svgjs.com/svgjs" width="512" height="512" x="0" y="0" viewBox="0 0 512 512" style="enable-background:new 0 0 512 512" xml:space="preserve" class=""><g><g xmlns="http://www.w3.org/2000/svg"><path d="m367 0c-8.284 0-15 6.716-15 15s6.716 15 15 15c57.897 0 105 47.103 105 105 0 8.284 6.716 15 15 15s15-6.716 15-15c0-74.439-60.561-135-135-135z" fill="#ffffff" data-original="#000000" style=""></path><path d="m367 60c-8.284 0-15 6.716-15 15s6.716 15 15 15c24.813 0 45 20.187 45 45 0 8.284 6.716 15 15 15s15-6.716 15-15c0-41.355-33.645-75-75-75z" fill="#ffffff" data-original="#000000" style=""></path><circle cx="175" cy="357" r="15" fill="#ffffff" data-original="#000000" style=""></circle><path d="m296.599 226.614 29.758-29.758c5.875 2.817 12.451 4.398 19.389 4.398 24.813 0 45-20.187 45-45s-20.187-45-45-45-45 20.187-45 45c0 6.939 1.581 13.514 4.398 19.389l-29.758 29.758-97.505-97.505c-2.813-2.813-6.628-4.394-10.606-4.394s-7.793 1.58-10.606 4.394c-27.342 27.342-44.509 62-49.647 100.229-4.438 33.021.777 67.081 14.696 97.166-9.995 10.789-16.54 24.404-18.638 39.086l-11.089 77.623h-6.991c-41.355 0-75 33.645-75 75 0 8.284 6.716 15 15 15h300c8.284 0 15-6.716 15-15 0-41.355-33.645-75-75-75h-6.99l-2.477-17.34c8.296 1.191 16.618 1.797 24.91 1.797 45.821 0 90.592-17.952 123.713-51.074 5.858-5.857 5.858-15.355 0-21.213zm49.148-85.361c8.271 0 15 6.729 15 15s-6.729 15-15 15-15-6.729-15-15 6.729-15 15-15zm-212.969 207.365c2.982-20.876 21.134-36.618 42.222-36.618s39.24 15.742 42.222 36.618l10.483 73.382h-105.41zm132.222 103.382c19.557 0 36.239 12.539 42.43 30h-264.86c6.191-17.461 22.874-30 42.43-30zm-13.926-78.552-4.153-29.072c-2.473-17.311-11.11-33.153-24.32-44.609-13.21-11.457-30.115-17.767-47.601-17.767-9.779 0-19.375 1.977-28.246 5.72-20.509-49-12.358-106.138 21.079-147.448l203.947 203.949c-33.597 27.209-78.023 38.044-120.706 29.227z" fill="#ffffff" data-original="#000000" style=""></path></g></g></svg>