<svg xmlns="http://www.w3.org/2000/svg" version="1.1" xmlns:xlink="http://www.w3.org/1999/xlink" xmlns:svgjs="http://svgjs.com/svgjs" width="512" height="512" x="0" y="0" viewBox="0 0 74 74" style="enable-background:new 0 0 512 512" xml:space="preserve" class=""><g><path xmlns="http://www.w3.org/2000/svg" d="m37 72c-9.813 0-22.858-2.234-27.325-8.529-7.018-9.885 9.825-34.192 17.388-44.184a1 1 0 0 1 .8-.4h18.277a1 1 0 0 1 .8.4c7.566 9.992 24.406 34.3 17.388 44.182-4.47 6.295-17.515 8.531-27.328 8.531zm-8.642-51.11c-11.619 15.429-22.116 34.291-17.052 41.421 3.313 4.669 13.394 7.689 25.694 7.689s22.381-3.018 25.694-7.686c5.064-7.13-5.433-25.992-17.052-41.421z" fill="#fffafa" data-original="#000000" style="" class=""></path><path xmlns="http://www.w3.org/2000/svg" d="m44.92 16.78h-15.84a1 1 0 0 1 -.925-.62l-4-9.74a2.99 2.99 0 0 1 3.692-4.029l1.941.651a1.1 1.1 0 0 0 .65 0l5.614-1.885a3.067 3.067 0 0 1 1.881 0l5.645 1.895a1.112 1.112 0 0 0 .651 0l1.922-.645a2.99 2.99 0 0 1 3.688 4.042l-3.994 9.711a1 1 0 0 1 -.925.62zm-15.17-2h14.5l3.75-9.12c0-.01.008-.02.013-.03a.989.989 0 0 0 -1.222-1.341l-1.937.649a3.145 3.145 0 0 1 -1.891 0l-5.651-1.89a1.064 1.064 0 0 0 -.639 0l-5.614 1.89a3.137 3.137 0 0 1 -1.891 0l-1.956-.655a.99.99 0 0 0 -1.22 1.342z" fill="#fffafa" data-original="#000000" style="" class=""></path><path xmlns="http://www.w3.org/2000/svg" d="m37 58.662a12.112 12.112 0 1 1 12.112-12.113 12.126 12.126 0 0 1 -12.112 12.113zm0-22.224a10.112 10.112 0 1 0 10.112 10.111 10.123 10.123 0 0 0 -10.112-10.111z" fill="#fffafa" data-original="#000000" style="" class=""></path><path xmlns="http://www.w3.org/2000/svg" d="m37 53.233a3.847 3.847 0 0 1 -3.842-3.842 1 1 0 0 1 2 0 1.842 1.842 0 1 0 1.842-1.842 3.842 3.842 0 1 1 3.842-3.841 1 1 0 0 1 -2 0 1.842 1.842 0 1 0 -1.842 1.841 3.842 3.842 0 0 1 0 7.684z" fill="#fffafa" data-original="#000000" style="" class=""></path><path xmlns="http://www.w3.org/2000/svg" d="m37 41.866a1 1 0 0 1 -1-1v-.745a1 1 0 0 1 2 0v.745a1 1 0 0 1 -1 1z" fill="#fffafa" data-original="#000000" style="" class=""></path><path xmlns="http://www.w3.org/2000/svg" d="m37 53.978a1 1 0 0 1 -1-1v-.745a1 1 0 0 1 2 0v.745a1 1 0 0 1 -1 1z" fill="#fffafa" data-original="#000000" style="" class=""></path><path xmlns="http://www.w3.org/2000/svg" d="m46.32 20.89h-18.64a3.055 3.055 0 1 1 0-6.11h18.64a3.055 3.055 0 1 1 0 6.11zm-18.64-4.11a1.077 1.077 0 0 0 -.762.316 1.037 1.037 0 0 0 -.3.734 1.061 1.061 0 0 0 1.06 1.06h18.642a1.077 1.077 0 0 0 .762-.316 1.058 1.058 0 0 0 -.762-1.794z" fill="#fffafa" data-original="#000000" style="" class=""></path></g></svg>