<svg width="290" height="316" viewBox="0 0 290 316" fill="none" xmlns="http://www.w3.org/2000/svg">
<path d="M195.721 248.267L287.428 195.418C289.524 194.197 289.524 191.232 287.428 190.011L195.721 137.163C192.751 135.419 188.908 135.419 185.939 137.163L94.2313 190.011C92.1351 191.232 92.1351 194.197 94.2313 195.418L185.939 248.267C189.083 250.011 192.751 250.011 195.721 248.267Z" stroke="white" stroke-width="0.3726" stroke-miterlimit="10"/>
<path d="M276.424 193.324V190.011L270.485 190.708L269.611 191.755L195.197 148.848C192.577 147.278 189.258 147.278 186.638 148.848L112.748 191.406L112.049 190.359L105.237 190.011V193.324C105.237 194.197 105.761 195.243 106.634 195.766L186.638 241.812C189.258 243.382 192.577 243.382 195.197 241.812L275.201 195.766C276.075 195.243 276.424 194.197 276.424 193.324Z" fill="url(#paint0_linear)"/>
<path d="M195.197 238.499L275.026 192.453C276.773 191.407 276.773 188.79 275.026 187.744L195.022 141.698C192.402 140.128 189.083 140.128 186.463 141.698L106.459 187.744C104.712 188.79 104.712 191.407 106.459 192.453L186.463 238.499C189.258 240.069 192.577 240.069 195.197 238.499Z" fill="url(#paint1_linear)"/>
<path d="M264.894 190.535V159.314L259.654 159.837L258.955 160.709L194.498 123.559C192.227 122.163 189.432 122.163 187.162 123.559L123.403 160.361L122.879 159.489L116.94 159.314V190.535C116.94 191.407 117.289 192.104 118.163 192.628L187.336 232.395C189.607 233.79 192.402 233.79 194.673 232.395L263.846 192.628C264.545 192.104 264.894 191.407 264.894 190.535Z" fill="url(#paint2_linear)"/>
<path d="M194.498 201.175L263.671 161.408C265.243 160.536 265.243 158.268 263.671 157.396L194.498 117.455C192.227 116.059 189.432 116.059 187.161 117.455L117.988 157.222C116.416 158.094 116.416 160.361 117.988 161.233L187.161 201C189.432 202.396 192.227 202.396 194.498 201.175Z" fill="url(#paint3_linear)"/>
<path d="M263.671 189.837L194.498 229.604C192.227 231 189.432 231 187.161 229.604L117.987 189.837C117.289 189.314 116.765 188.616 116.765 187.744V190.36C116.765 191.232 117.114 191.93 117.987 192.453L187.161 232.22C189.432 233.616 192.227 233.616 194.498 232.22L263.671 192.453C264.544 191.93 264.894 191.232 264.894 190.36V187.744C264.894 188.616 264.544 189.488 263.671 189.837Z" fill="url(#paint4_linear)"/>
<path d="M259.655 157.57V143.966L254.764 144.489L254.065 145.361L194.149 110.826C192.053 109.605 189.433 109.605 187.337 110.826L127.945 145.012L127.421 144.14L122.006 143.966V157.57C122.006 158.268 122.356 159.14 123.054 159.489L187.337 196.465C189.433 197.686 192.053 197.686 194.149 196.465L258.432 159.489C259.305 159.14 259.655 158.268 259.655 157.57Z" fill="url(#paint5_linear)"/>
<path d="M132.662 161.233V156.175L184.367 186V191.058L132.662 161.233Z" stroke="white" stroke-width="0.1863" stroke-miterlimit="10"/>
<path d="M129.867 159.838V154.78L124.277 151.466V156.524L129.867 159.838Z" stroke="white" stroke-width="0.1863" stroke-miterlimit="10"/>
<path d="M248.999 161.233V156.175L197.468 186V191.058L248.999 161.233Z" stroke="white" stroke-width="0.1863" stroke-miterlimit="10"/>
<path d="M251.793 159.838V154.78L257.558 151.466V156.524L251.793 159.838Z" stroke="white" stroke-width="0.1863" stroke-miterlimit="10"/>
<path d="M194.325 182.861L258.607 145.884C260.005 145.012 260.005 142.919 258.607 142.047L194.325 105.071C192.229 103.85 189.608 103.85 187.512 105.071L123.23 142.047C121.832 142.919 121.832 145.012 123.23 145.884L187.512 182.861C189.608 184.082 192.229 184.082 194.325 182.861Z" fill="url(#paint6_linear)"/>
<path d="M264.894 142.047V139.257L259.654 139.78L258.955 140.652L194.498 103.501C192.227 102.106 189.432 102.106 187.162 103.501L123.403 140.303L122.879 139.431L116.94 139.257V142.047C116.94 142.919 117.289 143.617 118.163 144.14L187.336 183.907C189.607 185.303 192.402 185.303 194.673 183.907L263.846 144.14C264.545 143.617 264.894 142.745 264.894 142.047Z" fill="url(#paint7_linear)"/>
<path d="M194.498 181.116L263.671 141.35C265.243 140.477 265.243 138.21 263.671 137.338L194.498 97.5709C192.227 96.1756 189.432 96.1756 187.161 97.5709L117.988 137.338C116.416 138.21 116.416 140.477 117.988 141.35L187.161 181.116C189.432 182.337 192.227 182.337 194.498 181.116Z" fill="url(#paint8_linear)"/>
<path d="M259.655 137.861V124.256L254.764 124.779L254.065 125.651L194.149 91.1169C192.053 89.8959 189.433 89.8959 187.337 91.1169L127.945 125.303L127.421 124.43L122.006 124.256V137.861C122.006 138.558 122.356 139.43 123.054 139.779L187.337 176.755C189.433 177.976 192.053 177.976 194.149 176.755L258.432 139.779C259.305 139.43 259.655 138.558 259.655 137.861Z" fill="url(#paint9_linear)"/>
<path d="M132.662 141.349V136.465L184.367 166.116V171.174L132.662 141.349Z" stroke="white" stroke-width="0.1863" stroke-miterlimit="10"/>
<path d="M129.867 139.954V134.896L124.277 131.756V136.64L129.867 139.954Z" stroke="white" stroke-width="0.1863" stroke-miterlimit="10"/>
<path d="M248.999 141.35V136.466L197.468 166.117V171.175L248.999 141.35Z" stroke="white" stroke-width="0.1863" stroke-miterlimit="10"/>
<path d="M251.793 139.954V134.896L257.558 131.757V136.641L251.793 139.954Z" stroke="white" stroke-width="0.1863" stroke-miterlimit="10"/>
<path d="M194.325 163.326L258.607 126.35C260.005 125.478 260.005 123.385 258.607 122.513L194.325 85.5363C192.229 84.3154 189.608 84.3154 187.512 85.5363L123.23 122.513C121.832 123.385 121.832 125.478 123.23 126.35L187.512 163.326C189.608 164.373 192.229 164.373 194.325 163.326Z" fill="url(#paint10_linear)"/>
<path d="M264.894 122.338V119.548L259.654 120.071L258.955 120.943L194.498 83.7921C192.227 82.3968 189.432 82.3968 187.162 83.7921L123.403 120.594L122.879 119.722L116.94 119.548V122.338C116.94 123.21 117.289 123.908 118.163 124.431L187.336 164.198C189.607 165.594 192.402 165.594 194.673 164.198L263.846 124.431C264.545 123.908 264.894 123.036 264.894 122.338Z" fill="url(#paint11_linear)"/>
<path d="M194.498 161.408L263.671 121.641C265.243 120.768 265.243 118.501 263.671 117.629L194.498 77.8619C192.227 76.4666 189.432 76.4666 187.161 77.8619L117.988 117.455C116.416 118.327 116.416 120.594 117.988 121.466L187.161 161.233C189.432 162.628 192.227 162.628 194.498 161.408Z" fill="url(#paint12_linear)"/>
<path d="M259.655 118.153V104.549L254.764 105.072L254.065 105.944L194.149 71.4093C192.053 70.1884 189.433 70.1884 187.337 71.4093L127.945 105.595L127.421 104.723L122.006 104.549V118.153C122.006 118.851 122.356 119.723 123.054 120.072L187.337 157.048C189.433 158.269 192.053 158.269 194.149 157.048L258.432 120.072C259.305 119.723 259.655 119.025 259.655 118.153Z" fill="url(#paint13_linear)"/>
<path d="M132.662 121.64V116.582L184.367 146.407V151.465L132.662 121.64Z" stroke="white" stroke-width="0.1863" stroke-miterlimit="10"/>
<path d="M129.867 120.245V115.187L124.277 112.047V116.931L129.867 120.245Z" stroke="white" stroke-width="0.1863" stroke-miterlimit="10"/>
<path d="M248.999 121.64V116.582L197.468 146.407V151.465L248.999 121.64Z" stroke="white" stroke-width="0.1863" stroke-miterlimit="10"/>
<path d="M251.793 120.245V115.187L257.558 112.047V116.931L251.793 120.245Z" stroke="white" stroke-width="0.1863" stroke-miterlimit="10"/>
<path d="M194.325 143.617L258.607 106.641C260.005 105.769 260.005 103.676 258.607 102.804L194.325 65.8273C192.229 64.6064 189.608 64.6064 187.512 65.8273L123.23 102.804C121.832 103.676 121.832 105.769 123.23 106.641L187.512 143.617C189.608 144.838 192.229 144.838 194.325 143.617Z" fill="url(#paint14_linear)"/>
<path d="M264.894 102.629V99.8381L259.654 100.361L258.955 101.233L194.498 64.0826C192.227 62.6873 189.432 62.6873 187.162 64.0826L123.403 100.885L122.879 100.012L116.94 99.8381V102.629C116.94 103.501 117.289 104.198 118.163 104.722L187.336 144.489C189.607 145.884 192.402 145.884 194.673 144.489L263.846 104.722C264.545 104.198 264.894 103.501 264.894 102.629Z" fill="url(#paint15_linear)"/>
<path d="M194.498 141.698L263.671 101.931C265.243 101.059 265.243 98.7916 263.671 97.9195L194.498 58.1525C192.227 56.7571 189.432 56.7571 187.161 58.1525L117.988 97.9195C116.416 98.7916 116.416 101.059 117.988 101.931L187.161 141.698C189.432 142.919 192.227 142.919 194.498 141.698Z" fill="url(#paint16_linear)"/>
<path d="M259.655 98.4435V84.839L254.764 85.3623L254.065 86.2344L194.149 51.6999C192.053 50.479 189.433 50.479 187.337 51.6999L127.945 85.8855L127.421 85.0134L122.006 84.839V98.4435C122.006 99.1412 122.356 100.013 123.054 100.362L187.337 137.338C189.433 138.559 192.053 138.559 194.149 137.338L258.432 100.362C259.305 100.013 259.655 99.3156 259.655 98.4435Z" fill="url(#paint17_linear)"/>
<path d="M194.325 123.908L258.607 86.9319C260.005 86.0598 260.005 83.9669 258.607 83.0948L194.325 45.944C192.229 44.7231 189.608 44.7231 187.512 45.944L123.23 82.9203C121.832 83.7924 121.832 85.8854 123.23 86.7575L187.512 123.734C189.608 125.129 192.229 125.129 194.325 123.908Z" fill="url(#paint18_linear)"/>
<path d="M132.662 101.931V96.8726L184.367 126.698V131.756L132.662 101.931Z" stroke="white" stroke-width="0.1863" stroke-miterlimit="10"/>
<path d="M129.867 100.536V95.478L124.277 92.1641V97.2221L129.867 100.536Z" stroke="white" stroke-width="0.1863" stroke-miterlimit="10"/>
<path d="M248.999 101.931V96.873L197.468 126.698V131.756L248.999 101.931Z" stroke="white" stroke-width="0.1863" stroke-miterlimit="10"/>
<path d="M251.793 100.536V95.478L257.558 92.1641V97.2221L251.793 100.536Z" stroke="white" stroke-width="0.1863" stroke-miterlimit="10"/>
<path d="M264.894 82.9202V80.1296L259.654 80.6528L258.955 81.5249L194.498 44.3741C192.227 42.9788 189.432 42.9788 187.162 44.3741L123.403 81.176L122.879 80.304L116.94 80.1296V82.9202C116.94 83.7923 117.289 84.49 118.163 85.0132L187.336 124.78C189.607 126.176 192.402 126.176 194.673 124.78L263.846 85.0132C264.545 84.49 264.894 83.7923 264.894 82.9202Z" fill="url(#paint19_linear)"/>
<path d="M194.498 121.989L263.671 82.2221C265.243 81.35 265.243 79.0826 263.671 78.2105L194.498 38.4435C192.227 37.0481 189.432 37.0481 187.161 38.4435L117.988 78.2105C116.416 79.0826 116.416 81.35 117.988 82.2221L187.161 121.989C189.432 123.21 192.227 123.21 194.498 121.989Z" fill="url(#paint20_linear)"/>
<path d="M259.655 78.2109V40.3625L254.764 40.8857L254.065 41.7578L194.149 7.22331C192.053 6.00239 189.433 6.00239 187.337 7.22331L127.945 41.409L127.421 40.5369L122.006 40.3625V78.2109C122.006 78.9086 122.356 79.7807 123.054 80.1295L187.337 117.106C189.433 118.327 192.053 118.327 194.149 117.106L258.432 80.1295C259.305 79.6063 259.655 78.9086 259.655 78.2109Z" fill="url(#paint21_linear)"/>
<path d="M194.325 79.2573L258.607 42.281C260.005 41.4089 260.005 39.3159 258.607 38.4438L194.325 1.46745C192.229 0.246528 189.608 0.246528 187.512 1.46745L123.23 38.4438C121.832 39.3159 121.832 41.4089 123.23 42.281L187.512 79.2573C189.608 80.4783 192.229 80.4783 194.325 79.2573Z" fill="url(#paint22_linear)"/>
<path d="M193.975 75.7689L252.318 42.1065C253.716 41.4089 253.716 39.4903 252.318 38.6182L193.975 4.95577C192.053 3.90927 189.608 3.90927 187.686 4.95577L129.343 38.6182C127.946 39.3159 127.946 41.2344 129.343 42.1065L187.686 75.7689C189.608 76.8154 192.053 76.8154 193.975 75.7689Z" stroke="url(#paint23_linear)" stroke-width="0.1863" stroke-miterlimit="10"/>
<path d="M258.606 77.5128L194.324 114.489C192.228 115.71 189.607 115.71 187.511 114.489L123.229 77.5128C122.53 77.164 122.181 76.2919 122.181 75.5942V78.0361C122.181 78.7337 122.53 79.6058 123.229 79.9547L187.511 116.931C189.607 118.152 192.228 118.152 194.324 116.931L258.606 79.9547C259.305 79.6058 259.654 78.7337 259.654 78.0361V75.5942C259.654 76.4663 259.305 77.164 258.606 77.5128Z" fill="url(#paint24_linear)"/>
<path d="M200.614 86.4085L204.108 84.3155C204.282 84.1411 204.632 84.3155 204.632 84.6643V88.8504C204.632 89.1992 204.457 89.548 204.108 89.548L200.614 91.641C200.439 91.8154 200.09 91.641 200.09 91.2922V87.2806C200.09 86.9317 200.265 86.5829 200.614 86.4085Z" fill="white"/>
<path d="M207.602 82.3973L211.095 80.3043C211.27 80.1298 211.619 80.3043 211.619 80.6531V84.8391C211.619 85.1879 211.445 85.5368 211.095 85.5368L207.602 87.6297C207.427 87.8042 207.078 87.6298 207.078 87.2809V83.2693C207.078 82.9205 207.427 82.5717 207.602 82.3973Z" fill="white"/>
<path d="M214.763 78.3856L218.256 76.2925C218.431 76.1181 218.78 76.2926 218.78 76.6414V80.8274C218.78 81.1762 218.606 81.525 218.256 81.525L214.763 83.618C214.588 83.7925 214.239 83.618 214.239 83.2692V79.0832C214.239 78.7344 214.413 78.56 214.763 78.3856Z" fill="white"/>
<path d="M221.75 74.2L225.243 72.107C225.418 71.9326 225.767 72.107 225.767 72.4558V76.6419C225.767 76.9907 225.593 77.3395 225.243 77.3395L221.75 79.4325C221.575 79.6069 221.226 79.4325 221.226 79.0837V75.0721C221.4 74.7233 221.575 74.3744 221.75 74.2Z" fill="white"/>
<path d="M244.632 61.1185L248.126 59.0255C248.3 58.851 248.65 59.0255 248.65 59.3743V63.5603C248.65 63.9092 248.475 64.258 248.126 64.258L244.632 66.351C244.457 66.5254 244.108 66.351 244.108 66.0021V61.9905C244.108 61.6417 244.283 61.2929 244.632 61.1185Z" fill="white"/>
<path d="M251.619 57.1072L255.112 55.0142C255.287 54.8398 255.636 55.0142 255.636 55.3631V59.5491C255.636 59.8979 255.462 60.2467 255.112 60.2467L251.619 62.3397C251.444 62.5141 251.095 62.3397 251.095 61.9909V57.9793C251.095 57.6305 251.269 57.2816 251.619 57.1072Z" fill="white"/>
<path d="M200.614 96.699L204.108 94.606C204.282 94.4316 204.632 94.606 204.632 94.9549V99.1408C204.632 99.4897 204.457 99.8385 204.108 99.8385L200.614 101.931C200.439 102.106 200.09 101.931 200.09 101.583V97.5711C200.09 97.2223 200.265 96.8734 200.614 96.699Z" fill="white"/>
<path d="M207.602 92.6878L211.095 90.5948C211.27 90.4204 211.619 90.5948 211.619 90.9436V95.1296C211.619 95.4785 211.445 95.8273 211.095 95.8273L207.602 97.9203C207.427 98.0947 207.078 97.9203 207.078 97.5715V93.5599C207.078 93.0366 207.427 92.8622 207.602 92.6878Z" fill="white"/>
<path d="M214.763 88.5008L218.256 86.4078C218.431 86.2334 218.78 86.4078 218.78 86.7566V90.9426C218.78 91.2914 218.606 91.6402 218.256 91.6402L214.763 93.7332C214.588 93.9076 214.239 93.7332 214.239 93.3844V89.3728C214.239 89.024 214.413 88.6752 214.763 88.5008Z" fill="white"/>
<path d="M221.75 84.4896L225.243 82.3965C225.418 82.2221 225.767 82.3966 225.767 82.7454V86.9314C225.767 87.2802 225.593 87.629 225.243 87.629L221.75 89.722C221.575 89.8965 221.226 89.722 221.226 89.3732V85.3616C221.4 85.0128 221.575 84.664 221.75 84.4896Z" fill="white"/>
<path d="M244.632 71.408L248.126 69.315C248.3 69.1406 248.65 69.315 248.65 69.6639V73.8499C248.65 74.1987 248.475 74.5475 248.126 74.5475L244.632 76.6405C244.457 76.8149 244.108 76.6405 244.108 76.2917V72.1057C244.108 71.7568 244.283 71.5824 244.632 71.408Z" fill="white"/>
<path d="M251.619 67.2225L255.112 65.1295C255.287 64.955 255.636 65.1295 255.636 65.4783V69.6643C255.636 70.0132 255.462 70.362 255.112 70.362L251.619 72.455C251.444 72.6294 251.095 72.455 251.095 72.1062V68.0945C251.095 67.7457 251.269 67.3969 251.619 67.2225Z" fill="white"/>
<path d="M181.223 86.4095L177.73 84.3165C177.555 84.1421 177.206 84.3165 177.206 84.6653V88.8513C177.206 89.2002 177.38 89.549 177.73 89.549L181.223 91.642C181.398 91.8164 181.747 91.642 181.747 91.2932V87.2816C181.573 86.9327 181.398 86.5839 181.223 86.4095Z" fill="white"/>
<path d="M174.061 82.3973L170.568 80.3043C170.393 80.1298 170.043 80.3043 170.043 80.6531V84.8391C170.043 85.1879 170.218 85.5368 170.568 85.5368L174.061 87.6297C174.236 87.8042 174.585 87.6298 174.585 87.2809V83.2693C174.585 82.9205 174.411 82.5717 174.061 82.3973Z" fill="white"/>
<path d="M166.9 78.3851L163.406 76.2921C163.231 76.1176 162.882 76.2921 162.882 76.6409V80.8269C162.882 81.1757 163.057 81.5245 163.406 81.5245L166.9 83.6175C167.074 83.792 167.424 83.6175 167.424 83.2687V79.0827C167.424 78.7339 167.249 78.5595 166.9 78.3851Z" fill="white"/>
<path d="M159.913 74.1995L156.419 72.1065C156.244 71.9321 155.895 72.1065 155.895 72.4553V76.6414C155.895 76.9902 156.07 77.339 156.419 77.339L159.913 79.432C160.087 79.6064 160.437 79.432 160.437 79.0832V75.0716C160.437 74.7228 160.262 74.3739 159.913 74.1995Z" fill="white"/>
<path d="M137.204 61.1185L133.71 59.0255C133.535 58.851 133.186 59.0255 133.186 59.3743V63.5603C133.186 63.9092 133.361 64.258 133.71 64.258L137.204 66.351C137.378 66.5254 137.728 66.351 137.728 66.0021V61.9905C137.728 61.6417 137.553 61.2929 137.204 61.1185Z" fill="white"/>
<path d="M130.042 57.1072L126.548 55.0142C126.374 54.8398 126.024 55.0142 126.024 55.3631V59.5491C126.024 59.8979 126.199 60.2467 126.548 60.2467L130.042 62.3397C130.217 62.5141 130.566 62.3397 130.566 61.9909V57.9793C130.566 57.6305 130.391 57.2816 130.042 57.1072Z" fill="white"/>
<path d="M181.223 96.7L177.73 94.607C177.555 94.4326 177.206 94.607 177.206 94.9558V99.1418C177.206 99.4906 177.38 99.8395 177.73 99.8395L181.223 101.932C181.398 102.107 181.747 101.932 181.747 101.584V97.5721C181.573 97.2232 181.398 96.8744 181.223 96.7Z" fill="white"/>
<path d="M174.061 92.6873L170.568 90.5943C170.393 90.4199 170.043 90.5943 170.043 90.9431V95.1291C170.043 95.478 170.218 95.8268 170.568 95.8268L174.061 97.9198C174.236 98.0942 174.585 97.9198 174.585 97.571V93.5594C174.585 93.0361 174.411 92.8617 174.061 92.6873Z" fill="white"/>
<path d="M166.9 88.5022L163.406 86.4092C163.231 86.2348 162.882 86.4092 162.882 86.7581V90.9441C162.882 91.2929 163.057 91.6417 163.406 91.6417L166.9 93.7347C167.074 93.9091 167.424 93.7347 167.424 93.3859V89.3743C167.424 89.0255 167.249 88.6766 166.9 88.5022Z" fill="white"/>
<path d="M159.913 84.491L156.419 82.398C156.244 82.2236 155.895 82.398 155.895 82.7469V86.9328C155.895 87.2817 156.07 87.6305 156.419 87.6305L159.913 89.7235C160.087 89.8979 160.437 89.7235 160.437 89.3747V85.3631C160.437 85.0143 160.262 84.6654 159.913 84.491Z" fill="white"/>
<path d="M137.204 71.409L133.71 69.316C133.535 69.1416 133.186 69.316 133.186 69.6648V73.8508C133.186 74.1997 133.361 74.5485 133.71 74.5485L137.204 76.6415C137.378 76.8159 137.728 76.6415 137.728 76.2927V72.1067C137.728 71.7578 137.553 71.5834 137.204 71.409Z" fill="white"/>
<path d="M130.042 67.223L126.548 65.1299C126.373 64.9555 126.024 65.1299 126.024 65.4788V69.6648C126.024 70.0136 126.199 70.3625 126.548 70.3625L130.042 72.4555C130.216 72.6299 130.566 72.4555 130.566 72.1066V68.095C130.566 67.7462 130.391 67.3974 130.042 67.223Z" fill="white"/>
<path d="M244.108 38.9674V36.8744L240.439 37.2232L239.915 37.9209L193.625 11.2351C192.053 10.363 189.957 10.363 188.384 11.2351L142.269 37.7465L141.919 37.0488L137.727 36.8744V38.9674C137.727 39.4906 138.076 40.1883 138.6 40.5371L188.384 69.1415C189.957 70.0136 192.053 70.0136 193.625 69.1415L243.409 40.5371C243.758 40.1883 244.108 39.4906 244.108 38.9674Z" fill="url(#paint25_linear)"/>
<path d="M193.453 67.049L243.237 38.4447C244.285 37.747 244.285 36.1773 243.237 35.4796L193.453 6.87525C191.881 6.00317 189.784 6.00317 188.212 6.87525L138.603 35.4796C137.555 36.1773 137.555 37.747 138.603 38.4447L188.387 67.049C189.784 68.0955 191.881 68.0955 193.453 67.049Z" fill="url(#paint26_linear)"/>
<path d="M193.276 64.2577L238.518 38.2696C239.566 37.7464 239.566 36.1766 238.518 35.6534L193.276 9.66529C191.703 8.79321 189.957 8.79321 188.559 9.66529L143.317 35.6534C142.269 36.1766 142.269 37.7464 143.317 38.2696L188.559 64.2577C189.957 65.1298 191.878 65.1298 193.276 64.2577Z" stroke="url(#paint27_linear)" stroke-width="0.1863" stroke-miterlimit="10"/>
<path d="M216.158 35.4794V33.212L214.411 33.3864L214.237 33.7352L192.227 21.0028C191.528 20.4795 190.48 20.4795 189.781 21.0028L168.121 33.5608L167.946 33.212L165.85 33.0376V35.305C165.85 35.6538 166.025 35.8282 166.199 36.0027L189.781 49.6072C190.48 50.1304 191.528 50.1304 192.227 49.6072L215.809 36.0027C215.983 36.0027 216.158 35.8282 216.158 35.4794Z" fill="url(#paint28_linear)"/>
<path d="M192.052 47.5128L215.634 33.9084C216.158 33.5595 216.158 32.8619 215.634 32.513L192.052 18.9086C191.354 18.3853 190.305 18.3853 189.607 18.9086L166.025 32.513C165.501 32.8619 165.501 33.5595 166.025 33.9084L189.607 47.5128C190.48 47.8617 191.354 47.8617 192.052 47.5128Z" fill="url(#paint29_linear)"/>
<path d="M200.613 205.534L204.107 203.44C204.281 203.266 204.631 203.441 204.631 203.789V207.975C204.631 208.324 204.456 208.673 204.107 208.673L200.613 210.766C200.438 210.94 200.089 210.766 200.089 210.417V206.406C200.089 206.057 200.264 205.708 200.613 205.534Z" fill="white"/>
<path d="M207.601 201.348L211.094 199.255C211.269 199.081 211.618 199.255 211.618 199.604V203.79C211.618 204.139 211.444 204.487 211.094 204.487L207.601 206.58C207.426 206.755 207.077 206.58 207.077 206.232V202.22C207.077 201.871 207.426 201.522 207.601 201.348Z" fill="white"/>
<path d="M214.762 197.337L218.256 195.244C218.431 195.069 218.78 195.244 218.78 195.593V199.779C218.78 200.127 218.605 200.476 218.256 200.476L214.762 202.569C214.588 202.744 214.238 202.569 214.238 202.22V198.209C214.238 197.86 214.413 197.511 214.762 197.337Z" fill="white"/>
<path d="M221.749 193.325L225.243 191.232C225.417 191.058 225.767 191.233 225.767 191.581V195.767C225.767 196.116 225.592 196.465 225.243 196.465L221.749 198.558C221.574 198.732 221.225 198.558 221.225 198.209V194.198C221.4 193.674 221.574 193.5 221.749 193.325Z" fill="white"/>
<path d="M244.631 180.069L248.125 177.976C248.3 177.802 248.649 177.976 248.649 178.325V182.511C248.649 182.86 248.474 183.209 248.125 183.209L244.631 185.302C244.457 185.476 244.107 185.302 244.107 184.953V180.941C244.107 180.592 244.282 180.244 244.631 180.069Z" fill="white"/>
<path d="M251.618 176.058L255.112 173.965C255.287 173.79 255.636 173.965 255.636 174.314V178.5C255.636 178.849 255.461 179.197 255.112 179.197L251.618 181.29C251.444 181.465 251.094 181.29 251.094 180.942V176.93C251.094 176.581 251.269 176.232 251.618 176.058Z" fill="white"/>
<path d="M200.613 215.65L204.107 213.557C204.281 213.382 204.631 213.557 204.631 213.906V218.092C204.631 218.44 204.456 218.789 204.107 218.789L200.613 220.882C200.438 221.057 200.089 220.882 200.089 220.533V216.522C200.089 216.173 200.264 215.824 200.613 215.65Z" fill="white"/>
<path d="M207.601 211.638L211.094 209.545C211.269 209.371 211.618 209.545 211.618 209.894V214.08C211.618 214.429 211.444 214.778 211.094 214.778L207.601 216.871C207.426 217.045 207.077 216.871 207.077 216.522V212.511C207.077 212.162 207.426 211.813 207.601 211.638Z" fill="white"/>
<path d="M214.762 207.453L218.256 205.36C218.431 205.186 218.78 205.36 218.78 205.709V209.895C218.78 210.244 218.605 210.592 218.256 210.592L214.762 212.685C214.588 212.86 214.238 212.685 214.238 212.337V208.325C214.238 207.976 214.413 207.627 214.762 207.453Z" fill="white"/>
<path d="M221.749 203.442L225.243 201.349C225.417 201.174 225.767 201.349 225.767 201.698V205.884C225.767 206.232 225.592 206.581 225.243 206.581L221.749 208.674C221.574 208.849 221.225 208.674 221.225 208.325V204.314C221.4 203.965 221.574 203.616 221.749 203.442Z" fill="white"/>
<path d="M244.631 190.359L248.125 188.266C248.3 188.092 248.649 188.266 248.649 188.615V192.801C248.649 193.15 248.474 193.499 248.125 193.499L244.631 195.592C244.457 195.766 244.107 195.592 244.107 195.243V191.231C244.107 190.882 244.282 190.534 244.631 190.359Z" fill="white"/>
<path d="M251.618 186.174L255.112 184.081C255.287 183.906 255.636 184.081 255.636 184.429V188.615C255.636 188.964 255.461 189.313 255.112 189.313L251.618 191.406C251.444 191.58 251.094 191.406 251.094 191.057V187.046C251.094 186.697 251.269 186.522 251.618 186.174Z" fill="white"/>
<path d="M181.223 204.837L177.729 202.744C177.554 202.569 177.205 202.744 177.205 203.093V207.279C177.205 207.627 177.38 207.976 177.729 207.976L181.223 210.069C181.397 210.244 181.747 210.069 181.747 209.72V205.709C181.572 205.186 181.397 205.011 181.223 204.837Z" fill="white"/>
<path d="M174.06 200.651L170.567 198.558C170.392 198.383 170.042 198.558 170.042 198.907V203.093C170.042 203.441 170.217 203.79 170.567 203.79L174.06 205.883C174.235 206.058 174.584 205.883 174.584 205.534V201.523C174.584 201.174 174.41 200.825 174.06 200.651Z" fill="white"/>
<path d="M166.898 196.639L163.404 194.546C163.229 194.372 162.88 194.546 162.88 194.895V199.081C162.88 199.43 163.055 199.779 163.404 199.779L166.898 201.872C167.072 202.046 167.422 201.872 167.422 201.523V197.512C167.422 197.163 167.247 196.814 166.898 196.639Z" fill="white"/>
<path d="M159.911 192.453L156.417 190.36C156.242 190.186 155.893 190.36 155.893 190.709V194.895C155.893 195.244 156.068 195.593 156.417 195.593L159.911 197.686C160.085 197.86 160.435 197.686 160.435 197.337V193.326C160.435 192.977 160.26 192.628 159.911 192.453Z" fill="white"/>
<path d="M137.202 179.372L133.708 177.279C133.533 177.105 133.184 177.279 133.184 177.628V181.814C133.184 182.163 133.359 182.512 133.708 182.512L137.202 184.605C137.376 184.779 137.726 184.605 137.726 184.256V180.244C137.726 179.896 137.551 179.547 137.202 179.372Z" fill="white"/>
<path d="M130.041 175.361L126.547 173.268C126.372 173.094 126.023 173.268 126.023 173.617V177.803C126.023 178.152 126.198 178.501 126.547 178.501L130.041 180.594C130.215 180.768 130.565 180.594 130.565 180.245V176.233C130.565 175.884 130.39 175.536 130.041 175.361Z" fill="white"/>
<path d="M181.223 214.953L177.729 212.86C177.554 212.686 177.205 212.86 177.205 213.209V217.395C177.205 217.744 177.38 218.093 177.729 218.093L181.223 220.186C181.397 220.36 181.747 220.186 181.747 219.837V215.825C181.572 215.477 181.397 215.128 181.223 214.953Z" fill="white"/>
<path d="M174.06 210.942L170.567 208.849C170.392 208.675 170.042 208.849 170.042 209.198V213.384C170.042 213.733 170.217 214.082 170.567 214.082L174.06 216.175C174.235 216.349 174.584 216.175 174.584 215.826V211.814C174.584 211.465 174.41 211.117 174.06 210.942Z" fill="white"/>
<path d="M166.898 206.756L163.404 204.663C163.229 204.489 162.88 204.663 162.88 205.012V209.198C162.88 209.547 163.055 209.896 163.404 209.896L166.898 211.989C167.072 212.163 167.422 211.989 167.422 211.64V207.628C167.422 207.279 167.247 206.931 166.898 206.756Z" fill="white"/>
<path d="M159.911 202.744L156.417 200.651C156.242 200.477 155.893 200.651 155.893 201V205.186C155.893 205.535 156.068 205.884 156.417 205.884L159.911 207.977C160.085 208.151 160.435 207.977 160.435 207.628V203.616C160.435 203.268 160.26 202.919 159.911 202.744Z" fill="white"/>
<path d="M137.202 189.663L133.708 187.57C133.533 187.396 133.184 187.57 133.184 187.919V192.105C133.184 192.454 133.359 192.803 133.708 192.803L137.202 194.896C137.376 195.07 137.726 194.896 137.726 194.547V190.535C137.726 190.012 137.551 189.838 137.202 189.663Z" fill="white"/>
<path d="M130.041 185.477L126.547 183.384C126.372 183.209 126.023 183.384 126.023 183.733V187.919C126.023 188.268 126.198 188.616 126.547 188.616L130.041 190.709C130.215 190.884 130.565 190.709 130.565 190.361V186.349C130.565 186 130.39 185.651 130.041 185.477Z" fill="white"/>
<g clip-path="url(#clip0)">
<path d="M171.247 252.031V158.49L166.324 159.018L165.796 159.899L106.018 125.372C103.909 124.315 101.447 124.315 99.1615 125.372L39.7351 159.547L39.2077 158.666L33.7573 158.314V251.854C33.7573 252.735 34.109 253.264 34.8122 253.792L98.9857 290.786C101.096 291.843 103.557 291.843 105.843 290.786L170.016 253.792C170.895 253.616 171.247 252.911 171.247 252.031Z" fill="url(#paint30_linear)"/>
<path d="M106.194 197.421L170.367 160.427C171.774 159.547 171.774 157.433 170.367 156.552L106.194 119.558C104.084 118.501 101.622 118.501 99.3368 119.558L35.1633 156.552C33.7568 157.433 33.7568 159.547 35.1633 160.427L99.3368 197.421C101.271 198.654 103.908 198.654 106.194 197.421Z" fill="url(#paint31_linear)"/>
<path d="M170.016 249.388L105.842 286.381C103.732 287.438 101.271 287.438 98.9852 286.381L34.9875 249.388C34.1084 248.859 33.9326 248.331 33.9326 247.45V254.32C33.9326 255.201 34.2843 255.73 34.9875 256.258L99.161 293.252C101.271 294.309 103.732 294.309 106.018 293.252L170.191 256.258C171.071 255.73 171.246 255.201 171.246 254.32V247.45C171.246 248.331 170.895 249.036 170.016 249.388Z" fill="url(#paint32_linear)"/>
<path d="M34.1084 100.357L171.774 195.836V92.9586L34.1084 13.3345V100.357Z" fill="url(#paint33_linear)" stroke="white" stroke-width="0.1863" stroke-miterlimit="10"/>
<path d="M73.4917 292.547C73.6676 279.687 57.3165 268.942 37.0975 268.765C16.8784 268.589 0.351539 278.807 0.175721 291.666C-9.66936e-05 304.526 16.351 315.272 36.57 315.448C56.7891 315.8 73.3159 305.407 73.4917 292.547Z" fill="#0E4FAD"/>
<path d="M39.559 274.931C39.559 274.931 46.5917 273.875 49.5806 273.875C52.0421 273.875 55.031 275.988 52.2179 277.222C48.8774 279.159 43.2512 282.154 40.2623 283.563C38.6799 284.444 35.8669 284.973 33.757 284.092C31.6472 283.211 30.4165 282.154 30.4165 280.04C30.4165 277.926 30.7681 275.988 31.823 275.108C32.878 274.227 34.8119 274.755 34.8119 274.755L39.559 274.931Z" fill="url(#paint34_linear)"/>
<path d="M55.0312 284.091C55.0312 284.091 62.0639 283.034 65.0528 283.034C67.5142 283.034 70.5032 285.148 67.6901 286.381C64.3495 288.319 58.7234 291.314 55.7345 292.723C54.1521 293.604 51.339 294.132 49.2292 293.251C47.1194 292.371 45.8887 291.314 45.8887 289.2C45.8887 287.086 46.2403 285.148 47.2952 284.267C48.3501 283.386 50.2841 283.915 50.2841 283.915L55.0312 284.091Z" fill="url(#paint35_linear)"/>
<path d="M30.0649 186.499C30.0649 186.499 32.1748 230.01 32.1748 240.932C31.8231 251.854 30.7682 275.988 30.7682 278.278C30.7682 280.392 39.2075 280.744 39.2075 277.75C39.2075 274.403 44.3062 240.756 44.1304 234.238C43.7787 227.897 46.2402 192.665 46.2402 192.665L30.0649 186.499Z" fill="url(#paint36_linear)"/>
<path d="M42.7239 191.608C44.3063 203.058 49.7566 234.238 49.2292 241.989C48.7017 249.564 46.7677 281.977 46.7677 285.501C46.7677 289.376 56.2619 289.376 56.2619 284.972C56.2619 280.568 61.3606 244.103 61.8881 239.347C62.2397 234.767 62.7672 197.949 62.7672 194.955C62.5913 192.488 42.1965 187.908 42.7239 191.608Z" fill="url(#paint37_linear)"/>
<path d="M56.9654 139.993C53.0974 136.118 43.4274 132.066 39.2078 132.066C32.3509 132.066 29.7136 139.993 29.362 146.687C29.362 153.557 29.8894 194.779 28.4829 198.654C27.0763 202.53 31.1202 205.524 36.9221 209.224C47.2954 215.742 64.7014 213.804 64.1739 206.581C64.1739 192.136 62.7674 175.753 62.7674 169.764C62.9432 163.422 64.3497 147.039 56.9654 139.993Z" fill="url(#paint38_linear)"/>
<path d="M59.0751 114.626C57.4927 112.688 54.6796 112.688 54.1522 112.512C51.6907 111.103 48.1744 112.864 46.2404 114.45C45.3613 115.331 44.8338 117.445 44.658 119.911H43.2515V127.31C43.2515 127.31 43.2515 133.299 43.2515 134.884C43.2515 138.76 52.2182 140.874 52.2182 137.351C52.2182 136.822 52.2182 135.237 52.2182 132.242C53.6247 133.299 56.0862 133.651 57.6685 132.77C62.064 130.657 60.4816 116.211 59.0751 114.626Z" fill="url(#paint39_linear)"/>
<path d="M60.8331 116.564C64.1737 115.507 66.2835 108.637 51.8664 108.461C49.7566 108.461 45.8886 108.108 43.4272 109.517C38.5043 113.041 37.4494 117.445 37.9768 121.849C38.8559 127.486 43.4272 132.947 43.4272 134.708C44.3063 136.118 46.7677 137.351 49.0534 136.118C50.6357 135.237 50.4599 128.543 50.9873 128.014C52.3939 127.133 48.8775 122.025 51.8664 122.025C51.8664 122.025 53.273 121.672 53.8004 124.139C53.8004 124.139 57.141 121.144 55.7344 119.559C54.1521 117.973 59.6024 122.553 60.8331 116.564Z" fill="url(#paint40_linear)"/>
<path d="M111.821 148.625C110.941 146.687 107.953 146.159 104.964 147.216C104.612 147.216 104.612 147.216 104.436 147.568C104.436 147.04 104.085 146.687 103.909 146.511C103.03 145.983 101.799 146.511 100.92 147.92C100.041 148.977 100.041 150.387 100.568 150.915C95.6453 153.91 82.6348 161.485 78.591 164.832C78.0635 165.184 77.5361 165.184 77.1844 164.479L68.2177 152.853C68.2177 152.853 53.2732 150.387 57.8445 159.723C62.4157 168.707 76.1295 175.225 77.7119 174.344C90.1949 168.003 101.975 156.376 103.733 154.438C104.788 154.438 106.194 154.438 107.249 153.91C110.766 153.029 112.7 150.563 111.821 148.625Z" fill="url(#paint41_linear)"/>
<path d="M52.5699 142.107C49.581 143.693 48.5261 148.097 50.6359 152.148C52.7457 156.2 65.0529 173.287 78.0634 175.577C79.1184 175.577 93.8871 166.946 102.854 157.081C103.381 155.671 101.447 150.739 98.8099 151.972C98.8099 151.972 85.4478 159.899 78.7667 164.479C78.7667 164.479 78.2393 163.951 77.3602 164.127C77.3602 164.127 66.4595 148.977 62.9431 146.159C59.4268 143.693 57.4928 139.465 52.5699 142.107Z" fill="url(#paint42_linear)"/>
<path d="M166.675 148.096C166.675 147.92 166.499 147.568 166.323 147.568C164.389 146.159 163.334 144.573 162.28 142.812C161.049 140.874 159.818 138.936 157.357 137.175C154.895 135.413 153.664 135.765 152.434 136.118C151.203 136.294 150.148 136.646 148.038 135.061C145.928 133.651 144.698 129.776 143.643 125.9C142.412 121.849 141.181 117.621 138.544 115.859C135.907 114.098 134.676 117.268 133.445 120.792C132.39 123.786 131.16 127.133 129.05 125.724C126.94 124.315 125.709 115.859 124.654 108.989C123.424 100.357 122.193 92.9585 119.556 91.1969C116.919 89.4353 115.688 90.4922 114.457 91.5492C113.226 92.43 112.171 93.3108 110.062 91.9015C107.6 90.1399 106.194 91.0207 105.139 91.9015C103.908 92.6062 102.853 93.3108 100.743 91.9015C98.106 90.1399 96.8753 91.373 95.6446 92.43C94.4138 93.4869 93.3589 94.3677 91.2491 92.9585C89.1393 91.5492 87.9086 88.7306 86.8537 86.2644C85.623 83.622 84.3922 80.8035 81.755 79.0419C79.1177 77.2803 77.887 83.4459 76.6562 90.6684C75.6013 96.3055 74.3706 103.528 72.2608 102.119C70.151 100.709 68.9203 91.373 67.8654 83.9743C66.6346 74.6379 65.4039 66.5345 62.7666 64.7729C60.1294 63.0113 58.8986 65.6537 57.6679 68.12C56.613 70.41 55.3823 72.8763 53.2725 71.467C51.1627 70.0577 49.9319 67.5915 48.877 64.9491C47.6463 62.3067 46.4156 59.4882 43.7783 57.7266V58.4312C45.8881 59.8405 46.943 62.3067 48.1738 64.9491C49.4045 67.5915 50.6352 70.41 53.2725 72.1716C55.9097 73.9332 57.1405 71.2908 58.3712 68.8246C59.4261 66.5345 60.6568 64.0683 62.7666 65.4776C64.8765 66.8869 66.1072 76.0472 67.1621 83.622C68.3928 92.9585 69.6235 101.062 72.2608 102.823C74.8981 104.585 76.1288 98.4194 77.3595 91.1969C78.4144 85.5598 79.6451 78.3372 81.755 79.7465C83.8648 81.1558 85.0955 83.622 86.1504 86.2644C87.3811 88.9068 88.6119 91.7254 91.2491 93.4869C93.8864 95.2485 95.1171 94.0154 96.3478 92.9585C97.5786 91.9015 98.6335 91.0207 100.743 92.43C103.205 94.1916 104.611 93.3108 105.666 92.43C106.897 91.7253 107.952 91.0207 110.062 92.43C112.699 94.1916 113.93 93.1346 115.16 92.0777C116.391 91.1969 117.446 90.3161 119.556 91.7254C121.666 93.1346 122.896 101.59 123.951 108.461C125.182 117.092 126.413 124.491 129.05 126.253C131.687 128.014 132.918 124.843 134.149 121.32C135.204 118.325 136.434 114.978 138.544 116.388C140.654 117.797 141.885 121.672 142.94 125.548C144.17 129.6 145.401 133.827 148.038 135.589C150.5 137.351 151.73 136.998 152.961 136.646C154.192 136.47 155.247 136.118 157.357 137.703C159.642 139.288 160.697 140.874 161.752 142.812C162.983 144.573 164.038 146.511 166.323 148.096C166.499 148.449 166.675 148.449 166.675 148.096Z" fill="url(#paint43_linear)"/>
<path d="M51.1626 98.0669L50.9868 97.8908V97.5384L51.1626 97.7146H51.3385V97.5384V95.7769L51.6901 95.953V97.7146C51.6901 97.8908 51.6901 98.0669 51.5143 98.0669C51.3385 98.0669 51.3385 98.2431 51.1626 98.0669Z" fill="white"/>
<path d="M53.2723 98.9477L53.0964 98.4192L52.3932 97.8907L52.2174 98.243L51.8657 97.8907L52.569 96.4814L53.0964 96.8338L53.7997 99.1238L53.2723 98.9477ZM53.0964 98.0669C52.9206 97.5384 52.9206 97.3622 52.9206 97.1861V97.0099C52.9206 97.0099 52.7448 97.3622 52.7448 97.7146L53.0964 98.0669Z" fill="white"/>
<path d="M55.5584 100.357L55.031 100.005L54.3277 98.0671C54.3277 98.2432 54.3277 98.4194 54.3277 98.5955V99.4763L53.9761 99.3002V97.5386L54.5035 97.8909L55.2068 99.8286C55.2068 99.6525 55.2068 99.4763 55.2068 99.3002V98.4194L55.5584 98.5955V100.357Z" fill="white"/>
<path d="M60.8326 104.056L60.481 103.88V102.119L61.5359 102.823V103.176L60.8326 102.647V103.176L61.36 103.528V103.88L60.8326 103.528V104.056Z" fill="white"/>
<path d="M62.7668 105.289L61.7119 104.585V102.823L62.7668 103.528V103.88L62.0636 103.352V103.704L62.591 104.056V104.585L62.0636 104.233V104.585L62.7668 105.113V105.289Z" fill="white"/>
<path d="M63.1182 103.88L63.6457 104.233C63.8215 104.409 63.9973 104.585 64.1731 104.761C64.3489 104.937 64.3489 105.113 64.3489 105.29C64.3489 105.466 64.3489 105.466 64.3489 105.466H64.1731C64.3489 105.642 64.3489 105.642 64.3489 105.818C64.3489 105.994 64.3489 105.994 64.3489 106.17C64.3489 106.347 64.3489 106.347 64.1731 106.347C63.9973 106.347 63.8215 106.347 63.6457 106.17L62.9424 105.642V103.88H63.1182ZM63.6457 104.761L63.8215 104.937C63.9973 104.937 63.9973 105.113 63.9973 105.113C63.9973 105.113 63.9973 105.113 63.9973 104.937V104.761L63.8215 104.585L63.6457 104.409V104.761ZM63.6457 105.113V105.642L63.8215 105.818C63.9973 105.818 63.9973 105.994 63.9973 105.994C63.9973 105.994 63.9973 105.994 63.9973 105.818C63.9973 105.642 63.8215 105.466 63.6457 105.466V105.113Z" fill="white"/>
<path d="M69.4479 109.87L69.0963 108.108C69.0963 108.46 69.0963 108.637 69.0963 108.637V109.517L68.7446 109.341V107.58L69.2721 107.932L69.6237 109.517L70.1512 108.46L70.6786 108.813V110.574L70.327 110.398V109.517C70.327 109.517 70.327 109.517 70.327 109.341C70.327 109.341 70.327 109.165 70.327 108.989L69.7995 110.046L69.4479 109.87Z" fill="white"/>
<path d="M72.0852 111.631V111.103L71.3819 110.574L71.2061 110.927L70.8545 110.574L71.5578 109.165L72.0852 109.517L72.7885 111.807L72.0852 111.631ZM71.9094 110.75C71.7336 110.222 71.7336 110.046 71.7336 109.87V109.694C71.7336 109.694 71.5578 110.046 71.5578 110.398L71.9094 110.75Z" fill="white"/>
<path d="M73.1397 111.632V112.336L72.7881 112.16V110.398L73.3155 110.751C73.4914 110.927 73.6672 111.103 73.843 111.279C74.0188 111.455 74.0188 111.632 74.0188 111.808C74.0188 111.984 74.0188 111.984 74.0188 111.984H73.843C74.1946 112.512 74.3704 112.865 74.3704 113.041L73.843 112.865L73.4914 111.808L73.1397 111.632ZM73.1397 111.279C73.3155 111.455 73.4914 111.455 73.4914 111.455C73.4914 111.455 73.4914 111.455 73.4914 111.279V111.103C73.4914 111.103 73.3155 110.927 73.1397 110.927H72.9639V111.279H73.1397Z" fill="white"/>
<path d="M80.3484 117.268L80.1726 116.74L79.4693 116.211L79.2935 116.563L79.1177 116.387L79.8209 114.978L80.3484 115.33L81.0517 117.62L80.3484 117.268ZM80.1726 116.387C79.9968 115.859 79.9968 115.683 79.9968 115.507V115.33C79.9968 115.33 79.8209 115.683 79.8209 116.035L80.1726 116.387Z" fill="white"/>
<path d="M82.2825 117.268C82.2825 117.444 82.2825 117.621 82.1067 117.621C81.9309 117.621 81.755 117.621 81.5792 117.444L81.4034 117.268V117.973L81.0518 117.797V116.035L81.5792 116.387C81.755 116.564 81.9309 116.74 82.1067 116.916C82.2825 116.916 82.2825 117.092 82.2825 117.268ZM81.4034 116.916C81.5792 117.092 81.755 117.092 81.755 117.092C81.755 117.092 81.755 117.092 81.755 116.916C81.755 116.74 81.755 116.74 81.755 116.74L81.5792 116.564L81.4034 116.387V116.916Z" fill="white"/>
<path d="M82.9854 118.325V119.03L82.6338 118.678V116.916L83.1612 117.268C83.3371 117.444 83.5129 117.621 83.6887 117.797C83.8645 117.973 83.8645 118.149 83.8645 118.325C83.8645 118.501 83.8645 118.501 83.8645 118.501H83.6887C84.0403 119.03 84.2162 119.382 84.2162 119.558L83.8645 119.206L83.5129 118.149L82.9854 118.325ZM82.9854 117.973C83.1612 118.149 83.3371 118.149 83.3371 118.149C83.3371 118.149 83.3371 118.149 83.3371 117.973V117.797C83.3371 117.797 83.1612 117.621 82.9854 117.621H82.8096V117.973H82.9854Z" fill="white"/>
<path d="M90.546 124.138L90.1944 122.377C90.1944 122.729 90.1944 122.905 90.1944 122.905V123.786L89.8428 123.61V121.848L90.3702 122.2L90.7219 123.786L91.2493 122.729L91.7768 123.081V124.843L91.4251 124.667V123.786C91.4251 123.786 91.4251 123.786 91.4251 123.61C91.4251 123.61 91.4251 123.434 91.4251 123.257L90.8977 124.314L90.546 124.138Z" fill="white"/>
<path d="M93.1834 125.9L93.0076 125.371L92.3043 124.843L92.1285 125.195L91.7769 124.843L92.4801 123.434L93.0076 123.786L93.7108 126.076L93.1834 125.9ZM93.0076 125.019C92.8318 124.491 92.8318 124.314 92.8318 124.138V123.962C92.8318 123.962 92.6559 124.314 92.6559 124.667L93.0076 125.019Z" fill="white"/>
<path d="M94.4142 125.724L94.7658 125.195L95.1175 125.548L94.59 126.252V126.957L94.2384 126.781V126.076L93.7109 124.491L94.0626 124.843L94.4142 125.724Z" fill="white"/>
<path d="M98.9854 130.304L98.8096 130.128V129.775L98.9854 129.951H99.1612V129.775V128.014L99.5128 128.19V129.951C99.5128 130.128 99.5129 130.304 99.337 130.304C99.337 130.48 99.1612 130.48 98.9854 130.304Z" fill="white"/>
<path d="M101.447 129.775V131.008C101.447 131.185 101.447 131.185 101.271 131.361H101.095C100.92 131.361 100.92 131.361 100.744 131.185C100.568 131.008 100.392 130.832 100.216 130.656C100.041 130.48 100.041 130.304 100.041 130.128V128.895L100.392 129.071V130.128C100.392 130.304 100.392 130.304 100.392 130.48C100.392 130.656 100.568 130.656 100.744 130.832C100.92 130.832 100.92 131.008 101.095 130.832V130.656V129.599L101.447 129.775Z" fill="white"/>
<path d="M103.556 132.946L103.029 132.594L102.326 130.656C102.326 130.833 102.326 131.009 102.326 131.185V132.066L101.974 131.89V130.128L102.502 130.48L103.205 132.418C103.205 132.242 103.205 132.066 103.205 131.89V131.009L103.556 131.185V132.946Z" fill="white"/>
<path d="M108.655 136.822L108.479 136.646V136.293L108.655 136.469H108.831V136.293V134.532L109.183 134.708V136.469C109.183 136.646 109.183 136.822 109.007 136.822C109.007 136.998 108.831 136.998 108.655 136.822Z" fill="white"/>
<path d="M111.117 136.293V137.527C111.117 137.703 111.117 137.703 110.941 137.879C110.765 138.055 110.765 137.879 110.765 137.879C110.59 137.879 110.59 137.879 110.414 137.703C110.238 137.527 110.062 137.35 109.886 137.174C109.71 136.998 109.71 136.822 109.71 136.646V135.413L110.062 135.589V136.646C110.062 136.822 110.062 136.822 110.062 136.998C110.062 137.174 110.238 137.174 110.414 137.35C110.59 137.35 110.59 137.527 110.765 137.35V137.174V136.117L111.117 136.293Z" fill="white"/>
<path d="M111.644 138.231V136.47L111.996 136.646V138.055L112.699 138.584V138.936L111.644 138.231Z" fill="white"/>
<path d="M118.149 142.811L117.973 142.283L117.27 141.754L117.094 142.107L116.743 141.754L117.446 140.345L117.973 140.698L118.677 142.988L118.149 142.811ZM117.973 141.931C117.798 141.402 117.798 141.226 117.798 141.05V140.874C117.798 140.874 117.622 141.226 117.622 141.578L117.973 141.931Z" fill="white"/>
<path d="M120.259 142.283V143.516C120.259 143.692 120.259 143.692 120.083 143.869H119.907C119.732 143.869 119.732 143.869 119.556 143.692C119.38 143.516 119.204 143.34 119.028 143.164C118.853 142.988 118.853 142.812 118.853 142.635V141.402L119.204 141.578V142.635C119.204 142.812 119.204 142.812 119.204 142.988C119.204 143.164 119.38 143.164 119.556 143.34C119.732 143.34 119.732 143.516 119.907 143.34V143.164V142.107L120.259 142.283Z" fill="white"/>
<path d="M121.314 143.868L122.017 144.397V145.278C121.842 145.278 121.842 145.278 121.666 145.102C121.49 145.102 121.49 144.925 121.314 144.925C120.963 144.749 120.787 144.573 120.611 144.221C120.435 144.045 120.435 143.692 120.435 143.34C120.435 142.988 120.435 142.812 120.611 142.812C120.787 142.812 120.963 142.812 121.314 142.988C121.49 143.164 121.666 143.34 121.842 143.516L121.666 143.692C121.49 143.516 121.314 143.34 121.314 143.34C121.314 143.34 121.138 143.34 121.138 143.516C120.963 143.516 120.963 143.692 120.963 143.868C120.963 144.045 120.963 144.221 121.138 144.397C121.138 144.573 121.314 144.749 121.49 144.749L121.666 144.925V144.573L121.314 144.221V143.868Z" fill="white"/>
<path d="M128.346 149.153C128.346 149.33 128.346 149.33 128.171 149.506C127.995 149.506 127.819 149.506 127.643 149.33C127.467 149.153 127.292 148.977 127.116 148.801V148.449C127.292 148.625 127.292 148.625 127.467 148.801L127.643 148.977H127.819C127.819 148.977 127.819 148.977 127.819 148.801C127.819 148.801 127.819 148.801 127.819 148.625C127.819 148.625 127.819 148.625 127.819 148.449C127.819 148.449 127.643 148.273 127.643 148.097C127.467 147.92 127.467 147.92 127.467 147.744L127.292 147.568V147.392C127.292 147.216 127.292 147.216 127.467 147.04C127.643 147.04 127.643 147.04 127.995 147.216C128.171 147.216 128.171 147.392 128.346 147.392C128.522 147.392 128.522 147.568 128.698 147.744L128.522 147.92C128.346 147.744 128.346 147.744 128.346 147.744L128.171 147.568H127.995C127.995 147.568 127.995 147.568 127.995 147.744C127.995 147.744 127.995 147.744 127.995 147.92C127.995 147.92 127.995 147.92 127.995 148.097C127.995 148.097 128.171 148.273 128.171 148.449C128.346 148.625 128.522 148.801 128.522 148.977C128.346 148.801 128.346 148.977 128.346 149.153Z" fill="white"/>
<path d="M129.577 150.563L128.522 149.858V148.097L129.577 148.801V149.154L129.049 148.625V148.977L129.577 149.33V149.682L129.049 149.33V149.858L129.753 150.387V150.563H129.577Z" fill="white"/>
<path d="M131.336 150.387C131.336 150.563 131.336 150.739 131.16 150.739C130.984 150.739 130.808 150.739 130.632 150.563L130.457 150.387V151.091L130.105 150.739V148.978L130.632 149.33C130.808 149.506 130.984 149.682 131.16 149.858C131.16 150.034 131.336 150.211 131.336 150.387ZM130.457 150.034C130.632 150.211 130.808 150.211 130.808 150.211C130.808 150.211 130.808 150.211 130.808 150.034C130.808 149.858 130.808 149.858 130.808 149.858L130.632 149.682L130.457 149.506V150.034Z" fill="white"/>
<path d="M138.193 155.495C138.193 155.847 138.193 156.023 138.017 156.023C137.841 156.023 137.665 156.023 137.314 155.847C136.962 155.671 136.786 155.495 136.61 155.143C136.435 154.967 136.435 154.614 136.435 154.262C136.435 153.91 136.435 153.733 136.61 153.733C136.786 153.733 136.962 153.733 137.314 153.91C137.665 154.086 137.841 154.262 138.017 154.614C138.193 154.79 138.193 155.143 138.193 155.495ZM136.962 154.438C136.962 154.614 136.962 154.79 137.138 154.967C137.138 155.143 137.314 155.319 137.489 155.319C137.841 155.495 138.017 155.495 138.017 154.967C138.017 154.614 137.841 154.262 137.489 154.086C137.314 153.91 137.138 153.91 137.138 154.086C136.962 154.262 136.962 154.262 136.962 154.438Z" fill="white"/>
<path d="M139.248 155.495C139.072 155.319 139.072 155.319 138.896 155.495C138.896 155.495 138.72 155.671 138.72 155.848C138.72 156.2 138.896 156.552 139.248 156.728C139.424 156.728 139.599 156.905 139.775 156.905V157.257C139.599 157.257 139.424 157.081 139.248 157.081C139.072 156.905 138.72 156.728 138.72 156.376C138.544 156.2 138.544 155.848 138.544 155.495C138.544 155.319 138.544 155.143 138.72 155.143C138.72 154.967 138.896 154.967 139.072 154.967C139.248 154.967 139.424 154.967 139.599 155.143C139.775 155.319 139.951 155.495 140.127 155.671L139.951 155.848L139.775 155.671C139.424 155.671 139.424 155.671 139.248 155.495Z" fill="white"/>
<path d="M140.83 158.138L140.478 157.961V156.552L139.951 156.2V155.671L141.357 156.552V156.904L140.83 156.552V158.138Z" fill="white"/>
<path d="M146.632 162.013L146.104 161.661L145.401 159.723C145.401 159.899 145.401 160.075 145.401 160.251V161.132L145.049 160.956V159.194L145.577 159.547L146.28 161.484C146.28 161.308 146.28 161.132 146.28 160.956V160.075L146.632 160.251V162.013Z" fill="white"/>
<path d="M148.742 162.541C148.742 162.894 148.742 163.07 148.566 163.07C148.39 163.07 148.214 163.07 147.862 162.894C147.511 162.718 147.335 162.541 147.159 162.189C146.983 162.013 146.983 161.661 146.983 161.308C146.983 160.956 146.983 160.78 147.159 160.78C147.335 160.78 147.511 160.78 147.862 160.956C148.214 161.132 148.39 161.308 148.566 161.661C148.742 162.013 148.742 162.189 148.742 162.541ZM147.511 161.661C147.511 161.837 147.511 162.013 147.687 162.189C147.687 162.365 147.862 162.541 148.038 162.541C148.39 162.718 148.566 162.718 148.566 162.189C148.566 161.837 148.39 161.484 148.038 161.308C147.862 161.132 147.687 161.132 147.687 161.308C147.511 161.308 147.511 161.484 147.511 161.661Z" fill="white"/>
<path d="M150.148 162.541L150.5 162.718L149.972 164.127L149.445 163.951L148.917 161.661L149.269 161.837L149.621 163.07V163.246C149.621 163.422 149.621 163.422 149.621 163.422C149.621 163.422 149.621 163.246 149.797 163.07L150.148 162.541Z" fill="white"/>
<path d="M157.005 168.178C157.005 168.531 157.005 168.707 156.829 168.707C156.654 168.707 156.478 168.707 156.126 168.531L155.599 168.002V166.241L156.126 166.593C156.478 166.769 156.654 166.945 156.829 167.298C157.005 167.65 157.005 167.826 157.005 168.178ZM156.654 167.826C156.654 167.474 156.478 167.122 156.126 166.945L155.95 166.769V168.002L156.126 168.178C156.478 168.355 156.654 168.355 156.654 167.826Z" fill="white"/>
<path d="M158.412 169.94L157.357 169.236V167.474L158.412 168.179V168.531L157.709 168.003V168.355L158.236 168.707V169.06L157.709 168.707V169.236L158.412 169.764V169.94Z" fill="white"/>
<path d="M159.642 169.236C159.466 169.059 159.466 169.059 159.291 169.236C159.291 169.236 159.115 169.412 159.115 169.588C159.115 169.94 159.291 170.292 159.642 170.469C159.818 170.469 159.994 170.645 160.17 170.645V170.997C159.994 170.997 159.818 170.821 159.642 170.821C159.466 170.645 159.115 170.469 159.115 170.116C158.939 169.94 158.939 169.588 158.939 169.236C158.939 169.059 158.939 168.883 159.115 168.883C159.115 168.707 159.291 168.707 159.466 168.707C159.642 168.707 159.818 168.707 159.994 168.883C160.17 169.059 160.345 169.236 160.521 169.412L159.994 169.764L159.818 169.588C159.818 169.412 159.642 169.412 159.642 169.236Z" fill="white"/>
<path d="M41.6688 85.5596C41.6688 85.9119 41.6688 86.088 41.4929 86.088C41.3171 86.088 41.3171 86.088 40.9655 85.9119C40.7897 85.7357 40.6138 85.5596 40.438 85.3834C40.2622 85.2072 40.2622 84.8549 40.2622 84.5026C40.2622 84.1503 40.2622 83.9741 40.438 83.9741C40.6138 83.9741 40.6138 83.9741 40.9655 84.1503C41.1413 84.3264 41.3171 84.5026 41.4929 84.6788C41.4929 85.0311 41.6688 85.3834 41.6688 85.5596ZM40.7897 85.0311C40.7897 85.2072 40.7897 85.3834 40.7897 85.5596C40.7897 85.7357 40.9655 85.7357 40.9655 85.9119C41.1413 85.9119 41.1413 85.9119 41.1413 85.9119C41.1413 85.9119 41.1413 85.7357 41.1413 85.5596C41.1413 85.3834 41.1413 85.2072 41.1413 85.0311C41.1413 84.8549 40.9655 84.8549 40.9655 84.6788C40.7897 84.6788 40.7897 84.6788 40.7897 84.6788C40.7897 84.6788 40.7897 84.8549 40.7897 85.0311Z" fill="white"/>
<path d="M40.4383 75.6942L39.2075 74.8135V74.6373L39.735 74.4611C39.9108 74.4611 39.9108 74.4611 39.9108 74.285C39.9108 74.285 39.9108 74.285 40.0866 74.285C40.0866 74.285 40.0866 74.285 40.0866 74.1088V73.9327L39.9108 73.7565C39.9108 73.7565 39.735 73.7565 39.735 73.5803H39.5592L39.3833 73.228C39.5592 73.228 39.5592 73.228 39.5592 73.228H39.735C39.735 73.228 39.9108 73.228 39.9108 73.4042C40.0866 73.4042 40.0866 73.5803 40.2624 73.5803C40.2624 73.7565 40.4383 73.7565 40.4383 73.9327C40.4383 74.1088 40.4383 74.1088 40.4383 74.285V74.4611C40.4383 74.4611 40.4383 74.6373 40.2624 74.6373C40.2624 74.6373 40.0866 74.6373 39.9108 74.8135H39.735L40.4383 75.3419V75.6942Z" fill="white"/>
<path d="M41.845 75.6943C41.845 76.0466 41.845 76.2228 41.6692 76.2228C41.4934 76.2228 41.4934 76.2228 41.1417 76.0466C40.9659 75.8705 40.7901 75.6943 40.6143 75.5182C40.4385 75.342 40.4385 74.9897 40.4385 74.6374C40.4385 74.285 40.4385 74.1089 40.6143 74.1089C40.7901 74.1089 40.7901 74.1089 41.1417 74.285C41.3176 74.4612 41.4934 74.6374 41.6692 74.8135C41.845 75.1658 41.845 75.342 41.845 75.6943ZM40.9659 75.1658C40.9659 75.342 40.9659 75.5182 40.9659 75.6943C40.9659 75.8705 41.1417 75.8705 41.1417 76.0466C41.3176 76.0466 41.3176 76.0466 41.3176 76.0466C41.3176 76.0466 41.3176 75.8705 41.3176 75.6943C41.3176 75.5182 41.3176 75.342 41.3176 75.1658C41.3176 74.9897 41.1417 74.9897 41.1417 74.8135C40.9659 74.8135 40.9659 74.8135 40.9659 74.8135C40.9659 74.8135 40.9659 74.9897 40.9659 75.1658Z" fill="white"/>
<path d="M40.4383 65.4774L40.2624 65.3013V65.6536L39.9108 65.4774V65.1251L39.2075 64.5966V64.4205L39.9108 63.7158L40.2624 63.892V64.9489L40.4383 65.1251V65.4774ZM39.9108 64.7728V64.4205V64.2443C39.9108 64.0681 39.9108 64.0681 39.9108 64.0681C39.9108 64.0681 39.9108 64.0681 39.735 64.2443L39.3833 64.5966L39.9108 64.7728Z" fill="white"/>
<path d="M41.845 66.0058C41.845 66.3582 41.845 66.5343 41.6692 66.5343C41.4934 66.5343 41.4934 66.5343 41.1417 66.3582C40.9659 66.182 40.7901 66.0058 40.6143 65.8297C40.4385 65.6535 40.4385 65.3012 40.4385 64.9489C40.4385 64.5966 40.4385 64.4204 40.6143 64.4204C40.7901 64.4204 40.7901 64.4204 41.1417 64.5966C41.3176 64.7727 41.4934 64.9489 41.6692 65.125C41.845 65.3012 41.845 65.6535 41.845 66.0058ZM40.9659 65.3012C40.9659 65.4774 40.9659 65.6535 40.9659 65.8297C40.9659 66.0058 41.1417 66.0058 41.1417 66.182C41.3176 66.182 41.3176 66.182 41.3176 66.182C41.3176 66.182 41.3176 66.0058 41.3176 65.8297C41.3176 65.6535 41.3176 65.4774 41.3176 65.3012C41.3176 65.125 41.1417 65.125 41.1417 64.9489C40.9659 64.9489 40.9659 64.9489 40.9659 64.9489C40.9659 64.9489 40.9659 65.125 40.9659 65.3012Z" fill="white"/>
<path d="M39.2075 54.9078C39.2075 54.5554 39.2075 54.3793 39.3833 54.2031C39.5592 54.2031 39.735 54.2031 40.0866 54.3793C40.2624 54.3793 40.2624 54.5554 40.2624 54.5554V54.9078L40.0866 54.7316C39.9108 54.7316 39.9108 54.5554 39.735 54.5554H39.5592C39.5592 54.5554 39.5592 54.7316 39.5592 54.9078C39.5592 54.9078 39.735 54.9078 39.9108 54.9078C40.0866 55.0839 40.2624 55.0839 40.2624 55.2601C40.4383 55.4362 40.4383 55.6124 40.4383 55.7886C40.4383 55.9647 40.4383 56.1409 40.2624 56.1409C40.0866 56.1409 40.0866 56.1409 39.735 55.9647C39.5592 55.7886 39.5592 55.7886 39.3833 55.6124C39.2075 55.4362 39.2075 55.2601 39.2075 55.2601C39.2075 55.2601 39.2075 55.0839 39.2075 54.9078ZM39.735 55.7886H39.9108C39.9108 55.7886 39.9108 55.7886 39.9108 55.6124V55.4362L39.735 55.2601H39.5592C39.5592 55.2601 39.5592 55.2601 39.5592 55.4362C39.5592 55.6124 39.5592 55.6124 39.5592 55.7886C39.735 55.7886 39.735 55.7886 39.735 55.7886Z" fill="white"/>
<path d="M41.845 56.6694C41.845 57.0217 41.845 57.1979 41.6692 57.1979C41.4934 57.1979 41.4934 57.1979 41.1417 57.0217C40.9659 56.8456 40.7901 56.6694 40.6143 56.4933C40.4385 56.3171 40.4385 55.9648 40.4385 55.6125C40.4385 55.2601 40.4385 55.084 40.6143 55.084C40.7901 55.084 40.7901 55.084 41.1417 55.2601C41.3176 55.4363 41.4934 55.6125 41.6692 55.7886C41.845 56.1409 41.845 56.3171 41.845 56.6694ZM40.9659 55.9648C40.9659 56.1409 40.9659 56.3171 40.9659 56.4933C40.9659 56.6694 41.1417 56.6694 41.1417 56.8456C41.3176 56.8456 41.3176 56.8456 41.3176 56.8456C41.3176 56.8456 41.3176 56.6694 41.3176 56.4933C41.3176 56.3171 41.3176 56.1409 41.3176 55.9648C41.3176 55.7886 41.1417 55.7886 41.1417 55.6125C40.9659 55.6125 40.9659 55.6125 40.9659 55.6125C40.9659 55.6125 40.9659 55.7886 40.9659 55.9648Z" fill="white"/>
<path d="M39.735 44.3386C39.9108 44.5148 40.0866 44.5148 40.0866 44.691C40.2625 44.8671 40.2625 45.0433 40.2625 45.0433C40.2625 45.2194 40.2625 45.2194 40.2625 45.2194H40.0866C40.2625 45.3956 40.2625 45.5718 40.4383 45.5718C40.4383 45.7479 40.4383 45.7479 40.4383 45.9241C40.4383 46.1002 40.4383 46.1002 40.2625 46.1002C40.0866 46.1002 39.9108 46.1002 39.735 45.9241C39.5592 45.7479 39.3834 45.5718 39.2076 45.5718C39.0317 45.3956 39.0317 45.2194 39.0317 45.0433C39.0317 44.8671 39.0317 44.8671 39.0317 44.8671H39.2076C39.0317 44.691 39.0317 44.691 39.0317 44.5148C39.0317 44.3386 39.0317 44.3386 39.0317 44.1625C39.0317 43.9863 39.0317 43.9863 39.2076 43.9863C39.3834 44.1625 39.5592 44.3386 39.735 44.3386ZM39.5592 45.5718V45.7479L39.735 45.9241C39.9108 45.9241 39.9108 46.1002 39.9108 45.9241C39.9108 45.9241 39.9108 45.9241 39.9108 45.7479V45.5718C39.9108 45.5718 39.735 45.3956 39.735 45.2194C39.5592 45.3956 39.5592 45.3956 39.5592 45.5718ZM39.735 44.691C39.5592 44.691 39.5592 44.691 39.5592 44.691V44.8671L39.735 45.0433H39.9108C39.9108 45.0433 39.9108 45.0433 39.9108 44.8671C39.9108 44.8671 39.9108 44.8671 39.735 44.691C39.9108 44.691 39.9108 44.691 39.735 44.691Z" fill="white"/>
<path d="M41.8445 46.6289C41.8445 46.9812 41.8445 47.1574 41.6687 47.1574C41.4929 47.1574 41.4929 47.1574 41.1413 46.9812C40.9654 46.8051 40.7896 46.6289 40.6138 46.4527C40.438 46.2766 40.438 45.9243 40.438 45.5719C40.438 45.2196 40.438 45.0435 40.6138 45.0435C40.7896 45.0435 40.7896 45.0435 41.1413 45.2196C41.3171 45.3958 41.4929 45.5719 41.6687 45.7481C41.8445 46.1004 41.8445 46.4527 41.8445 46.6289ZM40.9654 46.1004C40.9654 46.2766 40.9654 46.4527 40.9654 46.6289C40.9654 46.8051 41.1413 46.8051 41.1413 46.9812C41.3171 46.9812 41.3171 46.9812 41.3171 46.9812C41.3171 46.9812 41.3171 46.8051 41.3171 46.6289C41.3171 46.4527 41.3171 46.2766 41.3171 46.1004C41.3171 45.9243 41.1413 45.9243 41.1413 45.7481C40.9654 45.7481 40.9654 45.7481 40.9654 45.7481C40.9654 45.7481 40.9654 45.9243 40.9654 46.1004Z" fill="white"/>
<path d="M38.8557 35.8826L38.504 35.7064V34.6495V34.4733V34.2971H38.3282H38.1524L37.9766 33.9448H38.504L38.8557 34.121V35.8826Z" fill="white"/>
<path d="M40.6141 36.0586C40.6141 36.4109 40.6141 36.5871 40.4382 36.5871C40.2624 36.5871 40.2624 36.5871 39.9108 36.4109C39.735 36.2347 39.5592 36.0586 39.3833 35.8824C39.2075 35.7063 39.2075 35.3539 39.2075 35.0016C39.2075 34.6493 39.2075 34.4731 39.3833 34.4731C39.5592 34.4731 39.5592 34.4731 39.9108 34.6493C40.0866 34.8255 40.2624 35.0016 40.4382 35.1778C40.6141 35.5301 40.6141 35.8824 40.6141 36.0586ZM39.735 35.5301C39.735 35.7063 39.735 35.8824 39.735 36.0586C39.735 36.2347 39.9108 36.2347 39.9108 36.4109C40.0866 36.4109 40.0866 36.4109 40.0866 36.4109C40.0866 36.4109 40.0866 36.2347 40.0866 36.0586C40.0866 35.8824 40.0866 35.7063 40.0866 35.5301C40.0866 35.3539 39.9108 35.3539 39.9108 35.1778C39.735 35.1778 39.735 35.1778 39.735 35.1778C39.735 35.1778 39.735 35.3539 39.735 35.5301Z" fill="white"/>
<path d="M42.0203 37.1157C42.0203 37.468 42.0203 37.6442 41.8445 37.6442C41.6687 37.6442 41.6687 37.6442 41.317 37.468C41.1412 37.2919 40.9654 37.1157 40.7896 36.9395C40.6138 36.7634 40.6138 36.4111 40.6138 36.0588C40.6138 35.7064 40.6138 35.5303 40.7896 35.5303C40.9654 35.5303 40.9654 35.5303 41.317 35.7064C41.4929 35.8826 41.6687 36.0588 41.8445 36.2349C42.0203 36.5872 42.0203 36.7634 42.0203 37.1157ZM41.1412 36.4111C41.1412 36.5872 41.1412 36.7634 41.1412 36.9395C41.1412 37.1157 41.317 37.1157 41.317 37.2919C41.4929 37.2919 41.4929 37.2919 41.4929 37.2919C41.4929 37.2919 41.4929 37.1157 41.4929 36.9395C41.4929 36.7634 41.4929 36.5872 41.4929 36.4111C41.4929 36.2349 41.317 36.2349 41.317 36.0588C41.1412 36.0588 41.1412 36.0588 41.1412 36.0588C41.1412 36.0588 41.1412 36.2349 41.1412 36.4111Z" fill="white"/>
<path d="M75.0743 53.4983C74.5468 53.146 74.0194 53.146 73.6678 53.4983C73.3161 53.8506 73.1403 54.3791 73.1403 55.0837C73.1403 56.8453 73.6678 57.9023 74.8985 58.6069C75.4259 58.9592 76.1292 59.1354 76.8325 59.3116V60.7208C76.1292 60.7208 75.6017 60.3685 74.7227 60.0162C73.6678 59.4877 72.7887 58.6069 72.2612 57.55C71.7338 56.493 71.3821 55.4361 71.5579 54.2029C71.5579 53.3221 71.7338 52.7937 72.0854 52.2652C72.437 51.7367 72.7887 51.5605 73.3161 51.5605C73.8436 51.5605 74.5468 51.7367 75.2501 52.089C75.9534 52.4413 76.6567 53.146 77.3599 53.8506L76.8325 54.9076C76.4808 54.5553 76.305 54.3791 75.9534 54.0268C75.6017 53.8506 75.2501 53.6745 75.0743 53.4983Z" fill="white"/>
<path d="M83.6891 59.3116C83.6891 60.1924 83.3375 60.5448 82.81 60.7209C82.2825 60.8971 81.5793 60.7209 80.7002 60.1924L79.9969 59.8401V62.4825L78.4146 61.6017L78.5904 54.0269L81.0518 55.26C81.9309 55.7885 82.6342 56.3169 83.1616 57.0216C83.6891 57.7262 83.6891 58.607 83.6891 59.3116ZM79.9969 58.607L80.5244 58.9593C81.0518 59.3116 81.4035 59.3116 81.5793 59.3116C81.7551 59.3116 81.9309 58.9593 81.9309 58.607C81.9309 58.2547 81.9309 57.9024 81.5793 57.55C81.2276 57.1977 81.2276 57.0216 80.876 56.6692L80.1727 56.3169L79.9969 58.607Z" fill="white"/>
<path d="M91.2494 61.0731L91.0735 66.0056C91.0735 66.534 90.8977 67.0625 90.7219 67.2387C90.5461 67.591 90.0186 67.591 89.667 67.591C89.1395 67.591 88.6121 67.4148 87.9088 67.0625C87.0297 66.534 86.1506 65.8294 85.6232 65.1248C85.0957 64.4201 84.9199 63.5393 84.9199 62.6585L85.0957 57.7261L86.6781 58.6069L86.5023 63.3632C86.5023 63.8917 86.5023 64.4201 86.8539 64.7724C87.0297 65.1248 87.3814 65.4771 88.0846 65.8294C88.6121 66.1817 88.9637 66.1817 89.3154 66.0056C89.4912 65.8294 89.667 65.4771 89.667 64.9486L89.8428 60.1923L91.2494 61.0731Z" fill="white"/>
<path d="M98.8097 73.0518L97.2274 66.0054C97.2274 67.2385 97.2274 68.1193 97.2274 68.4716L97.0516 71.9948L95.645 71.2902L95.8208 63.7153L97.9306 64.9485L99.513 71.8187L101.623 67.0624L103.733 68.2955V75.6942L102.326 74.8134L102.502 71.114C102.502 70.9379 102.502 70.7617 102.502 70.5856C102.502 70.4094 102.502 69.7048 102.678 68.824L100.568 73.7564L98.8097 73.0518Z" fill="white"/>
<path d="M109.886 79.0417L105.491 76.7516L105.667 69.1768L110.062 71.4668V72.8761L107.249 71.2907V73.0523L109.71 74.4615V75.8708L107.249 74.2854V76.2231L110.062 77.8086L109.886 79.0417Z" fill="white"/>
<path d="M114.457 81.5076L112.875 80.6268L113.051 74.2851L110.941 73.2281V71.8188L116.567 74.9897V76.399L114.457 75.342V81.5076Z" fill="white"/>
<path d="M119.204 81.1553V84.15L117.622 83.2692L117.798 75.6943L119.908 76.9275C120.963 77.4559 121.666 78.1606 122.193 78.689C122.721 79.3937 122.897 80.0983 122.897 80.803C122.897 81.3314 122.721 81.5076 122.545 81.8599C122.369 82.0361 122.017 82.2122 121.49 82.0361C122.545 84.3262 123.248 85.9116 123.6 86.6162L121.842 85.5593L120.084 81.6838L119.204 81.1553ZM119.38 79.9222L119.908 80.2745C120.435 80.6268 120.787 80.6268 120.963 80.6268C121.138 80.6268 121.314 80.4506 121.314 80.0983C121.314 79.746 121.138 79.3937 120.963 79.0414C120.787 78.6891 120.259 78.5129 119.908 78.1606L119.38 77.8083V79.9222Z" fill="white"/>
<path d="M124.479 87.1447L124.655 79.5698L126.237 80.4506L126.061 88.0255L124.479 87.1447Z" fill="white"/>
<path d="M131.336 84.3264C130.809 83.9741 130.281 83.9741 129.929 84.3264C129.578 84.6787 129.402 85.2072 129.402 85.9119C129.402 87.6735 129.929 88.7304 131.16 89.4351C131.688 89.7874 132.391 89.9635 133.094 90.1397V91.549C132.391 91.549 131.863 91.1966 130.984 90.8443C129.929 90.3158 129.05 89.435 128.523 88.3781C127.995 87.3211 127.644 86.2642 127.82 85.0311C127.82 84.1503 127.995 83.6218 128.347 83.0933C128.699 82.5648 129.05 82.3887 129.578 82.3887C130.105 82.3887 130.809 82.5648 131.512 82.9171C132.215 83.2695 132.918 83.9741 133.622 84.6787L133.094 85.7357C132.743 85.3834 132.567 85.2072 132.215 84.8549C132.039 84.6787 131.688 84.5026 131.336 84.3264Z" fill="white"/>
<path d="M139.248 92.9583C139.248 93.6629 138.896 94.0153 138.545 94.1914C138.193 94.3676 137.314 94.1914 136.435 93.6629C135.556 93.3106 134.853 92.606 134.325 92.0775V90.4921C134.853 91.0205 135.204 91.3729 135.556 91.7252C135.908 92.0775 136.259 92.2537 136.435 92.4298C136.787 92.606 137.138 92.7821 137.314 92.606C137.49 92.606 137.666 92.4298 137.666 92.0775C137.666 91.9013 137.666 91.7252 137.49 91.549C137.49 91.3729 137.314 91.1967 137.138 91.0205C136.962 90.8444 136.611 90.4921 136.259 89.9636C135.732 89.4351 135.38 89.0828 135.204 88.7305C135.028 88.3782 134.853 88.0258 134.677 87.6735C134.501 87.3212 134.501 86.9689 134.501 86.6166C134.501 85.9119 134.677 85.5596 135.204 85.3834C135.732 85.2073 136.259 85.3834 137.138 85.9119C137.49 86.0881 137.842 86.4404 138.193 86.6166C138.545 86.7927 138.896 87.3212 139.248 87.6735L138.721 88.7305C138.369 88.3782 138.017 88.0258 137.666 87.8497C137.49 87.6735 137.138 87.4974 136.962 87.3212C136.611 87.145 136.435 87.145 136.259 87.145C136.083 87.145 136.083 87.3212 136.083 87.4974C136.083 87.6735 136.083 87.8497 136.083 87.8497C136.083 88.0258 136.259 88.202 136.435 88.3782C136.611 88.5543 136.962 88.9066 137.49 89.4351C138.193 90.1398 138.721 90.8444 138.896 91.1967C139.072 92.0775 139.248 92.4298 139.248 92.9583Z" fill="white"/>
</g>
<defs>
<linearGradient id="paint0_linear" x1="105.321" y1="195.31" x2="276.433" y2="195.31" gradientUnits="userSpaceOnUse">
<stop stop-color="#003BDA"/>
<stop offset="1" stop-color="#00295A"/>
</linearGradient>
<linearGradient id="paint1_linear" x1="105.317" y1="190.069" x2="276.436" y2="190.069" gradientUnits="userSpaceOnUse">
<stop stop-color="#45E7FF"/>
<stop offset="1" stop-color="#006EDB"/>
</linearGradient>
<linearGradient id="paint2_linear" x1="116.896" y1="178.033" x2="264.857" y2="178.033" gradientUnits="userSpaceOnUse">
<stop stop-color="#003BDA"/>
<stop offset="1" stop-color="#00295A"/>
</linearGradient>
<linearGradient id="paint3_linear" x1="116.892" y1="159.276" x2="264.86" y2="159.276" gradientUnits="userSpaceOnUse">
<stop stop-color="#45E7FF"/>
<stop offset="1" stop-color="#006EDB"/>
</linearGradient>
<linearGradient id="paint4_linear" x1="116.895" y1="210.68" x2="264.856" y2="210.68" gradientUnits="userSpaceOnUse">
<stop stop-color="#0063FF"/>
<stop offset="1" stop-color="#004A8B"/>
</linearGradient>
<linearGradient id="paint5_linear" x1="122.125" y1="153.693" x2="259.629" y2="153.693" gradientUnits="userSpaceOnUse">
<stop stop-color="#AEF3FF"/>
<stop offset="1" stop-color="#0088FF"/>
</linearGradient>
<linearGradient id="paint6_linear" x1="122.122" y1="144.004" x2="259.633" y2="144.004" gradientUnits="userSpaceOnUse">
<stop stop-color="#45E7FF"/>
<stop offset="1" stop-color="#006EDB"/>
</linearGradient>
<linearGradient id="paint7_linear" x1="116.896" y1="143.696" x2="264.857" y2="143.696" gradientUnits="userSpaceOnUse">
<stop stop-color="#003BDA"/>
<stop offset="1" stop-color="#00295A"/>
</linearGradient>
<linearGradient id="paint8_linear" x1="116.892" y1="139.163" x2="264.86" y2="139.163" gradientUnits="userSpaceOnUse">
<stop stop-color="#45E7FF"/>
<stop offset="1" stop-color="#006EDB"/>
</linearGradient>
<linearGradient id="paint9_linear" x1="122.125" y1="133.999" x2="259.629" y2="133.999" gradientUnits="userSpaceOnUse">
<stop stop-color="#AEF3FF"/>
<stop offset="1" stop-color="#0088FF"/>
</linearGradient>
<linearGradient id="paint10_linear" x1="122.122" y1="124.311" x2="259.633" y2="124.311" gradientUnits="userSpaceOnUse">
<stop stop-color="#45E7FF"/>
<stop offset="1" stop-color="#006EDB"/>
</linearGradient>
<linearGradient id="paint11_linear" x1="116.896" y1="124.002" x2="264.857" y2="124.002" gradientUnits="userSpaceOnUse">
<stop stop-color="#003BDA"/>
<stop offset="1" stop-color="#00295A"/>
</linearGradient>
<linearGradient id="paint12_linear" x1="116.892" y1="119.47" x2="264.86" y2="119.47" gradientUnits="userSpaceOnUse">
<stop stop-color="#45E7FF"/>
<stop offset="1" stop-color="#006EDB"/>
</linearGradient>
<linearGradient id="paint13_linear" x1="122.125" y1="114.307" x2="259.629" y2="114.307" gradientUnits="userSpaceOnUse">
<stop stop-color="#AEF3FF"/>
<stop offset="1" stop-color="#0088FF"/>
</linearGradient>
<linearGradient id="paint14_linear" x1="122.122" y1="104.618" x2="259.633" y2="104.618" gradientUnits="userSpaceOnUse">
<stop stop-color="#45E7FF"/>
<stop offset="1" stop-color="#006EDB"/>
</linearGradient>
<linearGradient id="paint15_linear" x1="116.896" y1="104.309" x2="264.857" y2="104.309" gradientUnits="userSpaceOnUse">
<stop stop-color="#003BDA"/>
<stop offset="1" stop-color="#00295A"/>
</linearGradient>
<linearGradient id="paint16_linear" x1="116.892" y1="99.7765" x2="264.86" y2="99.7765" gradientUnits="userSpaceOnUse">
<stop stop-color="#45E7FF"/>
<stop offset="1" stop-color="#006EDB"/>
</linearGradient>
<linearGradient id="paint17_linear" x1="122.125" y1="94.6137" x2="259.629" y2="94.6137" gradientUnits="userSpaceOnUse">
<stop stop-color="#AEF3FF"/>
<stop offset="1" stop-color="#0088FF"/>
</linearGradient>
<linearGradient id="paint18_linear" x1="122.122" y1="84.9247" x2="259.633" y2="84.9247" gradientUnits="userSpaceOnUse">
<stop stop-color="#45E7FF"/>
<stop offset="1" stop-color="#006EDB"/>
</linearGradient>
<linearGradient id="paint19_linear" x1="116.896" y1="84.6161" x2="264.857" y2="84.6161" gradientUnits="userSpaceOnUse">
<stop stop-color="#003BDA"/>
<stop offset="1" stop-color="#00295A"/>
</linearGradient>
<linearGradient id="paint20_linear" x1="116.892" y1="80.0832" x2="264.86" y2="80.0832" gradientUnits="userSpaceOnUse">
<stop stop-color="#45E7FF"/>
<stop offset="1" stop-color="#006EDB"/>
</linearGradient>
<linearGradient id="paint21_linear" x1="122.125" y1="62.144" x2="259.629" y2="62.144" gradientUnits="userSpaceOnUse">
<stop stop-color="#AEF3FF"/>
<stop offset="1" stop-color="#0088FF"/>
</linearGradient>
<linearGradient id="paint22_linear" x1="122.122" y1="40.3622" x2="259.633" y2="40.3622" gradientUnits="userSpaceOnUse">
<stop stop-color="#45E7FF"/>
<stop offset="1" stop-color="#006EDB"/>
</linearGradient>
<linearGradient id="paint23_linear" x1="128.19" y1="40.3622" x2="253.564" y2="40.3622" gradientUnits="userSpaceOnUse">
<stop stop-color="#76E9FF"/>
<stop offset="1" stop-color="#009BFF"/>
</linearGradient>
<linearGradient id="paint24_linear" x1="122.125" y1="96.8406" x2="259.629" y2="96.8406" gradientUnits="userSpaceOnUse">
<stop stop-color="#EEFCFF"/>
<stop offset="1" stop-color="#00D5FF"/>
</linearGradient>
<linearGradient id="paint25_linear" x1="137.673" y1="40.2092" x2="244.08" y2="40.2092" gradientUnits="userSpaceOnUse">
<stop stop-color="#003BDA"/>
<stop offset="1" stop-color="#00295A"/>
</linearGradient>
<linearGradient id="paint26_linear" x1="137.673" y1="36.9503" x2="244.085" y2="36.9503" gradientUnits="userSpaceOnUse">
<stop stop-color="#45E7FF"/>
<stop offset="1" stop-color="#006EDB"/>
</linearGradient>
<linearGradient id="paint27_linear" x1="142.383" y1="36.9498" x2="239.37" y2="36.9498" gradientUnits="userSpaceOnUse">
<stop stop-color="#76E9FF"/>
<stop offset="1" stop-color="#009BFF"/>
</linearGradient>
<linearGradient id="paint28_linear" x1="165.672" y1="35.4238" x2="216.08" y2="35.4238" gradientUnits="userSpaceOnUse">
<stop stop-color="#003BDA"/>
<stop offset="1" stop-color="#00295A"/>
</linearGradient>
<linearGradient id="paint29_linear" x1="165.671" y1="33.2224" x2="216.081" y2="33.2224" gradientUnits="userSpaceOnUse">
<stop stop-color="white"/>
<stop offset="1" stop-color="#A3D6FF"/>
</linearGradient>
<linearGradient id="paint30_linear" x1="34.0541" y1="208.113" x2="171.399" y2="208.113" gradientUnits="userSpaceOnUse">
<stop stop-color="#003786"/>
<stop offset="1" stop-color="#005FC4"/>
</linearGradient>
<linearGradient id="paint31_linear" x1="34.1648" y1="158.559" x2="171.374" y2="158.559" gradientUnits="userSpaceOnUse">
<stop stop-color="#45E7FF"/>
<stop offset="1" stop-color="#006EDB"/>
</linearGradient>
<linearGradient id="paint32_linear" x1="34.0967" y1="270.692" x2="171.442" y2="270.692" gradientUnits="userSpaceOnUse">
<stop stop-color="#45E7FF"/>
<stop offset="1" stop-color="#006EDB"/>
</linearGradient>
<linearGradient id="paint33_linear" x1="34.0966" y1="104.636" x2="171.558" y2="104.636" gradientUnits="userSpaceOnUse">
<stop stop-color="#0063FF"/>
<stop offset="1" stop-color="#004A8B"/>
</linearGradient>
<linearGradient id="paint34_linear" x1="53.398" y1="279.057" x2="30.8406" y2="279.057" gradientUnits="userSpaceOnUse">
<stop stop-color="#0689F8"/>
<stop offset="1" stop-color="#08C7FD"/>
</linearGradient>
<linearGradient id="paint35_linear" x1="68.9764" y1="288.308" x2="46.4186" y2="288.308" gradientUnits="userSpaceOnUse">
<stop stop-color="#0689F8"/>
<stop offset="1" stop-color="#08C7FD"/>
</linearGradient>
<linearGradient id="paint36_linear" x1="30.0656" y1="233.162" x2="46.4239" y2="233.162" gradientUnits="userSpaceOnUse">
<stop stop-color="#FF7829"/>
<stop offset="1" stop-color="#E7FFFF"/>
</linearGradient>
<linearGradient id="paint37_linear" x1="42.731" y1="239.258" x2="62.6719" y2="239.258" gradientUnits="userSpaceOnUse">
<stop stop-color="#FF7829"/>
<stop offset="1" stop-color="#E7FFFF"/>
</linearGradient>
<linearGradient id="paint38_linear" x1="28.3953" y1="172.693" x2="64.3594" y2="172.693" gradientUnits="userSpaceOnUse">
<stop stop-color="#00295A"/>
<stop offset="1" stop-color="#003BDA"/>
</linearGradient>
<linearGradient id="paint39_linear" x1="43.3443" y1="125.495" x2="60.6312" y2="125.495" gradientUnits="userSpaceOnUse">
<stop stop-color="#FDD5E2"/>
<stop offset="1" stop-color="#FDF5F7"/>
</linearGradient>
<linearGradient id="paint40_linear" x1="37.9039" y1="122.404" x2="63.1182" y2="122.404" gradientUnits="userSpaceOnUse">
<stop stop-color="#00295A"/>
<stop offset="1" stop-color="#003BDA"/>
</linearGradient>
<linearGradient id="paint41_linear" x1="57.2634" y1="160.292" x2="112.078" y2="160.292" gradientUnits="userSpaceOnUse">
<stop stop-color="#FDD5E2"/>
<stop offset="1" stop-color="#FDF5F7"/>
</linearGradient>
<linearGradient id="paint42_linear" x1="49.543" y1="158.433" x2="102.712" y2="158.433" gradientUnits="userSpaceOnUse">
<stop stop-color="#45E7FF"/>
<stop offset="1" stop-color="#006EDB"/>
</linearGradient>
<linearGradient id="paint43_linear" x1="44.061" y1="61.8625" x2="176.077" y2="61.8625" gradientUnits="userSpaceOnUse">
<stop stop-color="#069EFC"/>
<stop offset="1" stop-color="#14F4C9"/>
</linearGradient>
<clipPath id="clip0">
<rect width="171.95" height="302.466" fill="white" transform="translate(0 12.9819)"/>
</clipPath>
</defs>
</svg>
