<svg width="17" height="17" viewBox="0 0 17 17" fill="none" xmlns="http://www.w3.org/2000/svg">
<path d="M8.50001 13.4583C8.6401 13.4583 8.77705 13.4168 8.89353 13.3389C9.01002 13.2611 9.10081 13.1505 9.15442 13.021C9.20803 12.8916 9.22206 12.7492 9.19473 12.6118C9.1674 12.4744 9.09993 12.3482 9.00087 12.2491C8.90181 12.15 8.7756 12.0826 8.63819 12.0553C8.50079 12.0279 8.35837 12.042 8.22894 12.0956C8.09951 12.1492 7.98888 12.24 7.91105 12.3565C7.83322 12.4729 7.79167 12.6099 7.79167 12.75C7.79167 12.9378 7.8663 13.118 7.99914 13.2508C8.13198 13.3837 8.31214 13.4583 8.50001 13.4583ZM12.0417 13.4583C12.1818 13.4583 12.3187 13.4168 12.4352 13.3389C12.5517 13.2611 12.6425 13.1505 12.6961 13.021C12.7497 12.8916 12.7637 12.7492 12.7364 12.6118C12.7091 12.4744 12.6416 12.3482 12.5425 12.2491C12.4435 12.15 12.3173 12.0826 12.1799 12.0553C12.0425 12.0279 11.9 12.042 11.7706 12.0956C11.6412 12.1492 11.5305 12.24 11.4527 12.3565C11.3749 12.4729 11.3333 12.6099 11.3333 12.75C11.3333 12.9378 11.408 13.118 11.5408 13.2508C11.6736 13.3837 11.8538 13.4583 12.0417 13.4583ZM12.0417 10.625C12.1818 10.625 12.3187 10.5834 12.4352 10.5056C12.5517 10.4278 12.6425 10.3171 12.6961 10.1877C12.7497 10.0583 12.7637 9.91586 12.7364 9.77846C12.7091 9.64105 12.6416 9.51484 12.5425 9.41578C12.4435 9.31672 12.3173 9.24925 12.1799 9.22192C12.0425 9.19459 11.9 9.20862 11.7706 9.26223C11.6412 9.31584 11.5305 9.40663 11.4527 9.52312C11.3749 9.6396 11.3333 9.77655 11.3333 9.91665C11.3333 10.1045 11.408 10.2847 11.5408 10.4175C11.6736 10.5504 11.8538 10.625 12.0417 10.625ZM8.50001 10.625C8.6401 10.625 8.77705 10.5834 8.89353 10.5056C9.01002 10.4278 9.10081 10.3171 9.15442 10.1877C9.20803 10.0583 9.22206 9.91586 9.19473 9.77846C9.1674 9.64105 9.09993 9.51484 9.00087 9.41578C8.90181 9.31672 8.7756 9.24925 8.63819 9.22192C8.50079 9.19459 8.35837 9.20862 8.22894 9.26223C8.09951 9.31584 7.98888 9.40663 7.91105 9.52312C7.83322 9.6396 7.79167 9.77655 7.79167 9.91665C7.79167 10.1045 7.8663 10.2847 7.99914 10.4175C8.13198 10.5504 8.31214 10.625 8.50001 10.625ZM13.4583 2.12498H12.75V1.41665C12.75 1.22878 12.6754 1.04862 12.5425 0.915779C12.4097 0.782941 12.2295 0.708313 12.0417 0.708313C11.8538 0.708313 11.6736 0.782941 11.5408 0.915779C11.408 1.04862 11.3333 1.22878 11.3333 1.41665V2.12498H5.66667V1.41665C5.66667 1.22878 5.59204 1.04862 5.45921 0.915779C5.32637 0.782941 5.1462 0.708313 4.95834 0.708313C4.77048 0.708313 4.59031 0.782941 4.45747 0.915779C4.32463 1.04862 4.25001 1.22878 4.25001 1.41665V2.12498H3.54167C2.97809 2.12498 2.43758 2.34886 2.03907 2.74738C1.64056 3.14589 1.41667 3.68639 1.41667 4.24998V14.1666C1.41667 14.7302 1.64056 15.2707 2.03907 15.6692C2.43758 16.0678 2.97809 16.2916 3.54167 16.2916H13.4583C14.0219 16.2916 14.5624 16.0678 14.9609 15.6692C15.3595 15.2707 15.5833 14.7302 15.5833 14.1666V4.24998C15.5833 3.68639 15.3595 3.14589 14.9609 2.74738C14.5624 2.34886 14.0219 2.12498 13.4583 2.12498ZM14.1667 14.1666C14.1667 14.3545 14.092 14.5347 13.9592 14.6675C13.8264 14.8004 13.6462 14.875 13.4583 14.875H3.54167C3.35381 14.875 3.17364 14.8004 3.0408 14.6675C2.90797 14.5347 2.83334 14.3545 2.83334 14.1666V7.79165H14.1667V14.1666ZM14.1667 6.37498H2.83334V4.24998C2.83334 4.06212 2.90797 3.88195 3.0408 3.74911C3.17364 3.61627 3.35381 3.54165 3.54167 3.54165H4.25001V4.24998C4.25001 4.43784 4.32463 4.61801 4.45747 4.75085C4.59031 4.88368 4.77048 4.95831 4.95834 4.95831C5.1462 4.95831 5.32637 4.88368 5.45921 4.75085C5.59204 4.61801 5.66667 4.43784 5.66667 4.24998V3.54165H11.3333V4.24998C11.3333 4.43784 11.408 4.61801 11.5408 4.75085C11.6736 4.88368 11.8538 4.95831 12.0417 4.95831C12.2295 4.95831 12.4097 4.88368 12.5425 4.75085C12.6754 4.61801 12.75 4.43784 12.75 4.24998V3.54165H13.4583C13.6462 3.54165 13.8264 3.61627 13.9592 3.74911C14.092 3.88195 14.1667 4.06212 14.1667 4.24998V6.37498ZM4.95834 10.625C5.09843 10.625 5.23538 10.5834 5.35187 10.5056C5.46835 10.4278 5.55914 10.3171 5.61275 10.1877C5.66637 10.0583 5.68039 9.91586 5.65306 9.77846C5.62573 9.64105 5.55827 9.51484 5.45921 9.41578C5.36014 9.31672 5.23393 9.24925 5.09653 9.22192C4.95912 9.19459 4.8167 9.20862 4.68727 9.26223C4.55784 9.31584 4.44721 9.40663 4.36938 9.52312C4.29155 9.6396 4.25001 9.77655 4.25001 9.91665C4.25001 10.1045 4.32463 10.2847 4.45747 10.4175C4.59031 10.5504 4.77048 10.625 4.95834 10.625ZM4.95834 13.4583C5.09843 13.4583 5.23538 13.4168 5.35187 13.3389C5.46835 13.2611 5.55914 13.1505 5.61275 13.021C5.66637 12.8916 5.68039 12.7492 5.65306 12.6118C5.62573 12.4744 5.55827 12.3482 5.45921 12.2491C5.36014 12.15 5.23393 12.0826 5.09653 12.0553C4.95912 12.0279 4.8167 12.042 4.68727 12.0956C4.55784 12.1492 4.44721 12.24 4.36938 12.3565C4.29155 12.4729 4.25001 12.6099 4.25001 12.75C4.25001 12.9378 4.32463 13.118 4.45747 13.2508C4.59031 13.3837 4.77048 13.4583 4.95834 13.4583Z" fill="#637381"/>
</svg>
