<svg width="117" height="117" viewBox="0 0 117 117" fill="none" xmlns="http://www.w3.org/2000/svg">
<circle cx="58.5" cy="58.5" r="58.5" fill="#0069FF"/>
<g clip-path="url(#clip0_2580:170)">
<path d="M87 73.1151V74.188C86.6559 75.3613 85.9792 76.2549 84.7528 76.6924C85.1903 77.6133 85.2661 78.4997 84.8986 79.3934C84.5311 80.287 83.8238 80.888 82.8978 81.2437L83.0086 81.5421C83.713 83.3896 82.8015 85.2428 80.8867 85.861C80.7715 85.8983 80.6621 85.9528 80.5498 86.0044H65.5625C64.9355 85.6903 64.2967 85.3977 63.6842 85.0577C62.799 84.5643 61.943 84.0193 61.0592 83.5344C60.7629 83.3681 60.4303 83.2742 60.0894 83.2605C57.2675 83.2389 54.4471 83.2519 51.6311 83.2433C51.4992 83.2314 51.3667 83.2582 51.2502 83.3202C51.1337 83.3822 51.0384 83.4767 50.9763 83.5918C50.2092 84.7608 49.0892 85.2399 47.7009 85.0262C47.2328 84.953 46.7909 84.7192 46.2994 84.5471C45.8211 85.3432 45.0292 85.7477 44.1367 86.0073H43.043C41.8471 85.6702 40.9386 85.0032 40.4923 83.7969C39.5561 84.2416 38.6534 84.3004 37.7419 83.9404C36.8305 83.5803 36.2223 82.8832 35.8636 81.9968C35.7928 82.0057 35.723 82.021 35.655 82.0427C33.5784 82.9765 31.5105 81.5665 31.1138 79.8466C31.0886 79.7833 31.0542 79.7239 31.0117 79.6702V64.9534C31.3311 64.3366 31.6271 63.707 31.9742 63.1059C32.4759 62.2367 33.033 61.399 33.5273 60.5241C33.697 60.2338 33.7931 59.9076 33.8073 59.5731C33.8292 56.8047 33.8073 54.0378 33.8278 51.2694C33.8278 50.9395 33.7023 50.7731 33.4311 50.5938C32.2819 49.8322 31.789 48.7535 32.0151 47.4095C32.0909 46.9505 32.3257 46.5159 32.5007 46.0353C31.6986 45.5563 31.2801 44.7817 31.0117 43.9067V42.8324C31.353 41.6562 32.0325 40.7611 33.2415 40.3408C32.4628 38.6196 32.9367 36.7119 35.0776 35.7666C35.08 35.7148 35.0741 35.663 35.0601 35.6131C33.9692 33.4615 35.7644 30.9514 38.3967 30.9987C42.8053 31.0805 47.2167 31.0288 51.6267 31.0145C52.3578 31.0063 53.0757 31.2055 53.6946 31.5882C54.7811 32.2438 55.8719 32.8892 56.9803 33.5089C57.2602 33.6686 57.5756 33.7588 57.899 33.7714C60.7428 33.7915 63.5865 33.7714 66.4288 33.7915C66.754 33.7915 66.9028 33.6581 67.0661 33.4128C67.7792 32.347 68.8015 31.835 70.0921 31.987C70.6332 32.0487 71.1553 32.2839 71.7065 32.446C73.1532 30.4092 76.328 30.4651 77.5778 33.2091C78.4528 32.8032 79.3555 32.7257 80.2684 33.0872C81.1813 33.4486 81.7967 34.1414 82.1642 35.0322C82.2335 35.0256 82.3019 35.0121 82.3684 34.992C84.429 34.0525 86.5173 35.451 86.9184 37.1866C86.9436 37.2497 86.9775 37.309 87.019 37.3631V52.0684C86.6996 52.6852 86.4021 53.312 86.055 53.913C85.5723 54.7507 85.0225 55.5539 84.5617 56.4031C84.3573 56.7734 84.243 57.1854 84.2277 57.6065C84.1986 60.2859 84.2205 62.9654 84.2044 65.6391C84.1881 65.8027 84.2208 65.9674 84.2985 66.113C84.3763 66.2585 84.4957 66.3785 84.6419 66.4581C85.6919 67.1523 86.2038 68.1492 86.0419 69.3943C85.9734 69.925 85.7357 70.4342 85.5607 71.0022C86.3234 71.4584 86.7273 72.243 87 73.1151ZM66.4375 35.6131H65.7288C63.1403 35.6131 60.5517 35.6131 57.9646 35.6131C57.2676 35.6247 56.5819 35.4395 55.9886 35.0795C54.9342 34.4427 53.8813 33.8001 52.7963 33.2148C52.4071 33.0012 51.9716 32.8822 51.5261 32.8677C47.1875 32.8419 42.849 32.8519 38.5105 32.8519C38.3101 32.8445 38.1094 32.8493 37.9096 32.8663C37.5908 32.9038 37.2926 33.0412 37.0592 33.2582C36.8257 33.4751 36.6694 33.7601 36.6132 34.0712C36.5751 34.3487 36.6285 34.631 36.7655 34.8765C36.9025 35.122 37.1159 35.3178 37.3744 35.4353C37.6791 35.5488 38.0023 35.6066 38.3282 35.6059C39.6042 35.6246 40.8803 35.6059 42.1563 35.6189C42.7396 35.6189 43.1188 35.9904 43.1348 36.4938C43.1509 36.9973 42.7688 37.3831 42.2117 37.4377C42.0477 37.4491 41.8831 37.452 41.7188 37.4463C39.9148 37.4463 38.1109 37.4463 36.3055 37.4463C35.3969 37.4463 34.7334 38.0458 34.7348 38.8204C34.7363 39.595 35.3663 40.163 36.3113 40.1702C37.4955 40.1788 38.6796 40.1702 39.8653 40.1702C40.8015 40.1702 41.258 40.4671 41.2711 41.0796C41.2842 41.692 40.8336 42.0033 39.8944 42.0033C38.1444 42.0033 36.3944 42.0033 34.6444 42.0033C34.3358 41.9975 34.0282 42.0396 33.733 42.1281C33.4514 42.2383 33.215 42.4375 33.0611 42.6943C32.9072 42.9511 32.8445 43.251 32.8828 43.5467C32.9427 43.886 33.1236 44.1932 33.393 44.4132C33.6624 44.6333 34.0026 44.7517 34.3528 44.7473C36.1932 44.763 38.035 44.7473 39.8755 44.7473C40.8059 44.7473 41.2682 45.0485 41.2711 45.6581C41.274 46.2677 40.8132 46.5761 39.8842 46.5761C38.3355 46.5761 36.7853 46.5661 35.2365 46.5833C34.4592 46.5919 33.8846 47.1169 33.8263 47.8125C33.765 48.5383 34.2638 49.1566 35.0309 49.2943C35.265 49.3283 35.5016 49.3422 35.7382 49.3359C38.9465 49.3359 42.1548 49.3359 45.3632 49.3359C45.49 49.3359 45.6184 49.3359 45.7453 49.3359C46.1973 49.3172 46.5765 49.432 46.7807 49.8738C46.9717 50.2897 46.823 50.6311 46.5488 50.9567C45.7482 51.9091 44.9446 52.8616 44.1615 53.8255C43.7882 54.2816 43.7546 54.8009 44.0463 55.2183C44.338 55.6357 44.7915 55.825 45.2844 55.6758C45.5875 55.5611 45.8596 55.379 46.0792 55.1437C48.923 52.3925 51.7755 49.65 54.5784 46.8601C55.4359 45.9995 56.378 45.585 57.5928 45.6581C58.4021 45.7054 59.2173 45.6667 59.9567 45.6667C59.9917 45.0428 59.929 44.4733 60.0675 43.9555C60.6115 41.923 63.1125 41.1484 64.864 42.4451C65.3788 42.8252 65.8673 43.2412 66.4361 43.693L66.4375 35.6131ZM51.5728 81.4101H52.21C54.7446 81.4101 57.2778 81.4245 59.8109 81.4015C60.6697 81.3798 61.5154 81.6116 62.239 82.0671C63.2521 82.7011 64.2836 83.3059 65.3336 83.8816C65.646 84.054 65.9963 84.149 66.3544 84.1584C70.7644 84.177 75.1759 84.1713 79.5873 84.1699C80.6723 84.1699 81.384 83.6305 81.4 82.8029C81.4175 81.9423 80.7278 81.4115 79.5757 81.4101C78.3186 81.4101 77.06 81.4187 75.803 81.4001C75.6839 81.4047 75.565 81.386 75.4533 81.3451C75.3416 81.3042 75.2393 81.242 75.1522 81.1619C75.0652 81.0819 74.9951 80.9857 74.9461 80.8788C74.8971 80.772 74.8701 80.6566 74.8667 80.5394C74.8604 80.3041 74.9452 80.0753 75.1038 79.899C75.2624 79.7228 75.4831 79.6123 75.7213 79.5899C75.8846 79.5743 76.0488 79.5695 76.2128 79.5755C78.0167 79.5755 79.8221 79.5755 81.6261 79.5755C82.5871 79.5755 83.258 79.0018 83.2667 78.2129C83.2755 77.424 82.6323 76.8545 81.6494 76.8488C80.3923 76.8488 79.1338 76.8488 77.8767 76.8488C77.1563 76.8488 76.71 76.4672 76.7319 75.9021C76.7538 75.3369 77.1621 75.0214 77.8738 75.0199C79.6777 75.0199 81.4817 75.0199 83.2871 75.0199C83.5234 75.0245 83.7596 75.0082 83.993 74.9712C84.2565 74.9322 84.5017 74.8153 84.6961 74.6359C84.8904 74.4566 85.0246 74.2233 85.0809 73.9671C85.1603 73.7249 85.1566 73.4637 85.0704 73.2238C84.9843 72.9838 84.8204 72.7783 84.604 72.6389C84.277 72.4213 83.8946 72.2981 83.5 72.2831C81.6232 72.2487 79.7463 72.2702 77.868 72.2659C77.1782 72.2659 76.745 71.9174 76.7305 71.3723C76.7159 70.8272 77.1607 70.4399 77.8796 70.4385C79.4838 70.4385 81.088 70.4457 82.6921 70.4385C83.538 70.4385 84.1315 69.9092 84.1767 69.1705C84.2234 68.4074 83.6663 67.7935 82.8278 67.6974C82.628 67.6807 82.4273 67.6754 82.2269 67.6816H72.548C72.3846 67.6816 72.195 67.7304 72.0609 67.6658C71.7692 67.5224 71.3842 67.3876 71.2661 67.1409C71.148 66.8941 71.2661 66.5097 71.3609 66.2056C71.4105 66.0307 71.5971 65.8944 71.724 65.7409C72.4386 64.8803 73.1605 64.0297 73.8678 63.159C74.0353 62.9778 74.1358 62.7462 74.153 62.5018C74.1702 62.2574 74.1031 62.0144 73.9625 61.8121C73.8457 61.6047 73.6591 61.4438 73.4348 61.3569C73.2105 61.27 72.9624 61.2626 72.7332 61.3359C72.4442 61.437 72.1838 61.6041 71.9734 61.8236C69.1048 64.5991 66.229 67.3689 63.3955 70.1789C62.5671 71.0022 61.6557 71.4196 60.4788 71.3565C59.6475 71.312 58.8134 71.3479 58.0419 71.3479C58.0098 71.9633 58.0725 72.5327 57.9355 73.0505C57.3915 75.0859 54.8934 75.8662 53.1434 74.5724C52.6271 74.1909 52.1371 73.7749 51.5684 73.3216L51.5728 81.4101ZM72.0638 59.5716C72.2257 59.5501 72.3292 59.5386 72.4328 59.5214C74.2309 59.2116 75.8044 60.3577 76.0013 62.1377C76.0961 62.9984 75.7942 63.7529 75.2313 64.4127C74.855 64.853 74.4905 65.3034 74.0763 65.8026H82.3246V65.2016C82.3246 62.6599 82.3246 60.1196 82.3246 57.5793C82.3088 56.8431 82.5115 56.1183 82.908 55.4937C83.5628 54.4624 84.2073 53.4239 84.8038 52.361C85.0039 52.0097 85.1145 51.616 85.1261 51.2135C85.148 46.9189 85.1407 42.6258 85.1392 38.3327C85.1463 38.1537 85.1409 37.9745 85.1232 37.7962C85.0803 37.4833 84.9367 37.1921 84.7133 36.9652C84.49 36.7383 84.1987 36.5877 83.8821 36.5354C83.5901 36.5036 83.2954 36.5652 83.0419 36.7112C82.7884 36.8572 82.5895 37.0798 82.4748 37.3459C82.3772 37.6147 82.3279 37.8981 82.329 38.1835C82.313 39.4357 82.329 40.688 82.3173 41.9402C82.3173 42.5441 81.9396 42.9328 81.4088 42.9443C80.878 42.9557 80.4973 42.5555 80.458 41.9689C80.4492 41.8254 80.458 41.682 80.458 41.5386C80.458 39.7857 80.458 38.0329 80.458 36.2787C80.458 35.3463 79.8513 34.6865 79.0419 34.7009C78.2325 34.7152 77.6871 35.3262 77.6813 36.26C77.674 37.5122 77.6813 38.7645 77.6813 40.0167C77.6813 40.6908 77.3021 41.1125 76.745 41.1154C76.188 41.1183 75.8234 40.7052 75.819 40.0195C75.819 38.4991 75.819 36.9787 75.819 35.4582C75.8322 35.0114 75.8219 34.5642 75.7884 34.1185C75.7606 33.7755 75.6013 33.4556 75.3427 33.2239C75.084 32.9922 74.7455 32.8659 74.3957 32.8706C74.0476 32.8932 73.7188 33.0362 73.4677 33.2743C73.2165 33.5124 73.0591 33.8303 73.0234 34.1716C73.0105 34.3501 73.0071 34.5291 73.0132 34.708C73.0132 36.5153 73.0132 38.3212 73.0132 40.1286C73.0132 40.7023 72.6019 41.1168 72.0813 41.1154C71.5607 41.114 71.1786 40.7066 71.1567 40.1243C71.1567 39.9808 71.1567 39.8374 71.1567 39.6939C71.1567 38.2094 71.1567 36.7248 71.1567 35.2473C71.1567 34.6148 70.865 34.1457 70.2657 33.8962C69.7567 33.6867 69.0902 33.7943 68.7855 34.2548C68.5287 34.6277 68.3763 35.0606 68.3436 35.5098C68.3028 37.7633 68.3246 40.0181 68.3246 42.273C68.3246 43.3817 68.3246 44.4905 68.3246 45.5993C68.3246 46.0138 68.1788 46.3982 67.7661 46.48C67.4511 46.5431 67.085 46.4198 66.7584 46.3251C66.598 46.2792 66.4667 46.1114 66.3311 45.9981C65.4707 45.3081 64.6175 44.6081 63.7484 43.9282C63.5544 43.7614 63.3101 43.6617 63.053 43.6446C62.7958 43.6275 62.5401 43.6939 62.325 43.8336C61.905 44.1204 61.7169 44.5307 61.8584 44.9983C61.9694 45.2969 62.1497 45.5661 62.3848 45.7843C65.249 48.6397 68.1219 51.4865 71.0036 54.3246C71.7328 55.0418 72.1032 55.848 72.0696 56.8606C72.0405 57.7543 72.0638 58.6464 72.0638 59.5716ZM35.6769 51.2192V51.8231C35.6769 54.3103 35.6623 56.7975 35.6769 59.2819C35.7043 60.1258 35.472 60.9582 35.0105 61.6701C34.3819 62.6326 33.7753 63.6123 33.2123 64.6135C33.0027 64.9821 32.8857 65.3948 32.8711 65.8169C32.8478 70.1129 32.8565 74.4074 32.8565 78.702C32.8516 78.8632 32.8555 79.0246 32.8682 79.1854C32.9513 79.9227 33.59 80.5093 34.2871 80.4993C34.9842 80.4892 35.5617 79.9585 35.6536 79.2083C35.6687 79.0299 35.6736 78.8508 35.6682 78.6719C35.6682 77.4555 35.6682 76.2334 35.6769 75.0214C35.6654 74.7851 35.7497 74.5541 35.9114 74.379C36.073 74.2039 36.2986 74.0991 36.5388 74.0876C37.0405 74.056 37.4605 74.4247 37.5261 74.9669C37.539 75.1272 37.5424 75.2881 37.5363 75.4488C37.5363 77.2748 37.5276 79.0993 37.5465 80.9253C37.5457 81.1095 37.5819 81.292 37.653 81.4625C37.7241 81.6329 37.8287 81.7878 37.9608 81.9184C38.0929 82.049 38.2499 82.1527 38.4228 82.2235C38.5957 82.2943 38.7811 82.3308 38.9684 82.331C39.7267 82.3109 40.2955 81.7328 40.3101 80.9195C40.329 79.8997 40.3101 78.8784 40.3188 77.8586C40.3034 77.4656 40.3165 77.0721 40.3582 76.6809C40.4311 76.1933 40.7767 75.9365 41.2725 75.9222C41.7684 75.9078 42.1184 76.2678 42.1723 76.7613C42.1862 76.9397 42.1906 77.1188 42.1855 77.2977C42.1855 78.9616 42.1855 80.6255 42.1855 82.2894C42.1855 82.4328 42.1855 82.5763 42.1855 82.7197C42.2394 83.5803 42.8023 84.1627 43.568 84.1627C44.3336 84.1627 44.9738 83.5158 44.9825 82.6795C44.9986 81.2308 44.9825 79.7807 44.9825 78.3305C44.9825 77.8299 44.9665 77.3264 44.9825 76.8273C44.9839 76.706 45.0096 76.5862 45.0581 76.4748C45.1067 76.3634 45.1772 76.2625 45.2656 76.178C45.354 76.0935 45.4585 76.027 45.5731 75.9823C45.6877 75.9377 45.8101 75.9158 45.9334 75.9179C46.1726 75.928 46.3989 76.0274 46.5663 76.1958C46.7337 76.3642 46.8297 76.5889 46.8346 76.8244C46.8448 76.9678 46.8346 77.1113 46.8346 77.2547C46.8346 78.7579 46.8346 80.2669 46.8346 81.7644C46.8346 82.5963 47.3728 83.1844 48.1194 83.2289C48.8923 83.2762 49.5223 82.7269 49.6244 81.9064C49.6419 81.7104 49.6478 81.5136 49.6419 81.3169C49.6419 78.1306 49.6419 74.9449 49.6419 71.7596C49.6351 71.5811 49.64 71.4024 49.6565 71.2246C49.6712 71.0722 49.7254 70.9262 49.814 70.8004C49.9026 70.6747 50.0226 70.5734 50.1625 70.5064C50.3023 70.4395 50.4573 70.409 50.6126 70.4179C50.7679 70.4269 50.9183 70.475 51.0492 70.5576C51.2164 70.6659 51.3753 70.7863 51.5246 70.9176C52.4434 71.652 53.3548 72.3964 54.2794 73.1222C54.4677 73.2837 54.7065 73.377 54.9561 73.3866C55.2057 73.3963 55.4511 73.3217 55.6517 73.1753C55.8586 73.0537 56.0161 72.8652 56.0975 72.6421C56.1789 72.419 56.179 72.175 56.098 71.9518C55.9924 71.6769 55.8255 71.4289 55.6094 71.226C52.754 68.3845 49.9015 65.5415 47.0198 62.7273C46.2542 61.9814 45.8823 61.1494 45.9261 60.0923C45.9611 59.2317 45.9261 58.3825 45.9261 57.6037C45.2538 57.5506 44.6136 57.6036 44.0434 57.4373C42.0528 56.8635 41.309 54.5283 42.5573 52.8759C42.9715 52.3266 43.4323 51.8073 43.9019 51.2249L35.6769 51.2192ZM59.4011 47.5242C58.4313 47.5242 57.7721 47.4841 57.1203 47.5415C56.7842 47.5665 56.4649 47.6961 56.2088 47.9115C53.4866 50.5269 50.7809 53.1566 48.0917 55.8006C47.9276 55.9793 47.8317 56.2085 47.8205 56.449C47.7957 57.7399 47.7826 59.0309 47.8205 60.3132C47.8367 60.6618 47.9729 60.9947 48.2069 61.257C50.8698 63.9345 53.5503 66.5905 56.2482 69.225C56.4141 69.379 56.63 69.4705 56.8578 69.4832C58.1878 69.5062 59.5192 69.5205 60.8478 69.476C61.2032 69.4574 61.5416 69.3203 61.8073 69.0873C64.5169 66.4854 67.2085 63.8662 69.8821 61.2298C70.0594 61.0393 70.1626 60.7935 70.1738 60.5355C70.203 59.2833 70.1738 58.0311 70.1942 56.7789C70.201 56.5659 70.1607 56.354 70.0761 56.1579C69.9915 55.9618 69.8646 55.786 69.7042 55.6428C67.5255 53.5056 65.3059 51.4057 63.2146 49.1881C62.0596 47.9632 60.9003 47.0495 59.4011 47.5242Z" fill="white"/>
</g>
<defs>
<clipPath id="clip0_2580:170">
<rect width="56" height="55" fill="white" transform="translate(31 31)"/>
</clipPath>
</defs>
</svg>
