<svg width="117" height="117" viewBox="0 0 117 117" fill="none" xmlns="http://www.w3.org/2000/svg">
<circle cx="58.5" cy="58.5" r="58.5" fill="#0069FF"/>
<g clip-path="url(#clip0_2580:160)">
<path d="M93.9997 66.4185C93.6716 67.6705 92.8604 68.5405 91.8596 69.3173C84.7266 74.857 76.6948 78.1871 67.7133 79.1503C65.8612 79.3495 63.9872 79.3659 62.1224 79.4317C61.251 79.4628 60.7844 79.0753 60.7807 78.4265C60.7771 77.7777 61.2656 77.3847 62.1716 77.3884C72.9013 77.4237 82.4734 74.1107 90.888 67.4494C91.887 66.6598 92.1549 65.9616 91.7995 65.1282C91.4349 64.2363 90.2518 63.571 89.2 63.7519C88.6892 63.8482 88.1993 64.0338 87.7526 64.3002C85.2935 65.7332 82.9237 67.3324 80.3953 68.6227C74.3177 71.7298 67.9831 72.0771 61.5117 69.9624C59.7909 69.4013 58.7299 68.1823 58.431 66.3802C58.1266 64.5525 58.7555 63.0391 60.243 61.9517C62.2099 60.5151 64.226 59.1425 66.213 57.7352C66.9732 57.196 67.2266 56.5874 67.0279 55.8727C66.8 55.0539 66.0435 54.5934 65.0919 54.7889C62.9537 55.2276 60.8227 55.7028 58.6898 56.1743C55.6456 56.8432 52.6068 57.5305 49.5589 58.1848C49.1651 58.2688 49.0375 58.4132 49.0375 58.808C49.0484 64.1437 49.0484 69.4781 49.0375 74.8113C49.0375 75.1951 49.1432 75.3889 49.537 75.4693C52.1638 76.0011 54.7852 76.5659 57.4156 77.085C57.9917 77.2001 58.4966 77.3317 58.5987 77.9988C58.7062 78.7208 58.1904 79.2581 57.3737 79.1338C55.3958 78.8322 53.4253 78.4722 51.4602 78.0993C50.6836 77.9513 49.9253 77.7082 49.1706 77.5108C49.1214 77.5693 49.0758 77.6004 49.0721 77.6351C48.8552 79.6839 48.0349 80.415 45.9659 80.415C45.0089 80.415 44.0518 80.3949 43.0966 80.4315C42.8852 80.4406 42.5625 80.6142 42.4969 80.7824C42.0393 81.9923 41.137 82.4913 39.9083 82.5333L31.3023 82.8258C29.9151 82.8733 28.5224 82.8733 27.1388 82.9793C25.593 83.0999 24.5411 82.5187 23.9997 81.0529V65.3237C24.2677 65.0953 24.4992 64.7535 24.8091 64.6603C25.5383 64.4391 26.0487 64.9911 26.0487 65.9232C26.0487 70.6204 26.0487 75.317 26.0487 80.0129C26.0487 80.9122 26.076 80.9487 26.9766 80.9268C31.2349 80.7879 35.4914 80.6325 39.7497 80.5046C40.3786 80.4863 40.5591 80.2341 40.5573 79.6273C40.5427 71.1907 40.5427 62.7546 40.5573 54.3192C40.5573 53.696 40.3458 53.473 39.737 53.4547C35.4543 53.3231 31.1735 53.1757 26.8945 53.0124C26.2164 52.985 26.0286 53.2317 26.0359 53.8806C26.0633 56.3187 26.0359 58.7587 26.0523 61.1913C26.0523 61.778 25.9758 62.3081 25.3523 62.531C24.7289 62.754 24.3242 62.3848 23.9961 61.9041V52.8753C24.543 51.4132 25.5984 50.8813 27.1406 50.9508C31.3753 51.1445 35.6117 51.2615 39.8464 51.404C41.0987 51.4442 42.0339 51.9194 42.4932 53.1696C42.5513 53.2652 42.6311 53.3457 42.7262 53.4045C42.8212 53.4633 42.9288 53.4986 43.0401 53.5077C43.9953 53.5424 44.9523 53.5242 45.9094 53.5242C47.951 53.5242 48.6893 54.1182 49.1232 56.1177C49.7156 56.209 49.5589 55.7942 49.5497 55.4798C49.5042 54.0487 49.3109 52.603 49.4385 51.1865C50.1477 43.2397 54.1271 37.4295 61.2984 34.0062C67.3469 31.1221 73.4719 31.4072 79.4674 34.3955C79.6732 34.4922 79.8729 34.6015 80.0654 34.7227C80.5794 35.059 80.7362 35.5908 80.4828 36.0788C80.2294 36.5668 79.6625 36.7715 79.0755 36.5028C78.3737 36.1812 77.6846 35.8284 76.9846 35.4994C76.8299 35.434 76.6709 35.379 76.5089 35.3349C77.187 38.6814 77.8669 42.0316 78.587 45.57L86.0336 43.4956C85.1409 41.9099 84.0165 40.467 82.6977 39.2151C82.5664 39.0872 82.4242 38.972 82.2966 38.8496C81.8062 38.3543 81.7497 37.7731 82.1654 37.3308C82.581 36.8885 83.168 36.8848 83.6839 37.3491C85.8912 39.3055 87.635 41.7314 88.788 44.4496C91.1505 50.0546 91.1062 55.6473 88.6549 61.2279C88.5911 61.3741 88.5328 61.5203 88.4617 61.6921C88.9284 61.6921 89.3732 61.6556 89.8016 61.6921C91.9143 61.9078 93.3125 63.0355 93.9943 65.0514L93.9997 66.4185ZM76.332 45.7948C76.2883 45.369 76.2609 45.0546 76.2227 44.7402C75.8125 41.4358 75.2036 38.1752 73.9878 35.0535C73.9241 34.9087 73.8303 34.7792 73.7127 34.6736C73.5952 34.568 73.4565 34.4888 73.306 34.4412C71.0664 33.9998 68.7625 33.9998 66.5229 34.4412C66.3991 34.4728 66.2835 34.5305 66.1839 34.6106C66.0842 34.6907 66.0028 34.7912 65.9451 34.9054C64.556 38.378 63.9398 42.0206 63.5224 45.793C67.7756 46.3282 72.0787 46.3288 76.332 45.7948ZM86.987 59.9686C88.9831 55.0978 88.9812 50.1667 86.9688 45.3598L78.649 47.6847V57.631L86.987 59.9686ZM76.3357 59.5793C76.2487 59.5382 76.1576 59.5064 76.0641 59.4843C73.3862 59.3746 70.7065 59.2613 68.0268 59.1717C67.8056 59.1897 67.5946 59.2723 67.4198 59.4093C66.3497 60.1404 65.2997 60.9026 64.2279 61.6318C63.9307 61.8347 63.8013 62.0248 63.8888 62.4086C64.3409 64.3788 64.7674 66.3546 65.1904 68.3303C65.2742 68.7141 65.462 68.8786 65.8667 68.9389C68.6369 69.3723 71.4632 69.288 74.2029 68.6904C74.3052 68.6621 74.4001 68.6118 74.481 68.543C74.5619 68.4742 74.6269 68.3885 74.6714 68.2919C75.5112 65.4498 76.0687 62.5314 76.3357 59.5793ZM42.6336 78.3662H45.8747C46.9867 78.3662 46.9958 78.357 46.9958 77.2696C46.9958 70.3901 46.9958 63.5113 46.9958 56.6331C46.9958 56.4503 47.0542 56.231 46.974 56.0939C46.8555 55.891 46.6422 55.6041 46.4617 55.5986C45.1966 55.5565 43.9279 55.5767 42.6336 55.5767V78.3662ZM76.5654 47.8437C72.159 48.374 67.7053 48.3771 63.2982 47.8528V53.0672C64.7109 52.7474 66.1419 52.3361 67.5018 53.2683C68.8617 54.2004 69.2609 55.5054 69.1297 57.0132L76.5654 57.397V47.8437ZM51.6406 55.6315L61.2 53.526V47.6774L52.9003 45.3525C51.5021 48.5858 51.0648 52.155 51.6406 55.6315ZM61.2911 45.5061C61.9984 42.0334 62.6784 38.6814 63.362 35.3167C59.3388 36.8739 56.1833 39.5423 53.8828 43.4024C55.0823 43.8008 56.1669 44.2102 57.2771 44.5209C58.6224 44.8993 59.9987 45.1953 61.2911 45.5061ZM78.4995 59.7072C78 62.5475 77.5352 65.1903 77.0667 67.8569C77.2293 67.8091 77.3888 67.7511 77.5443 67.6833C79.7318 66.4916 81.9193 65.2707 84.1232 64.112C85.0346 63.6313 85.4357 62.7942 86.0518 61.8237L78.4995 59.7072ZM62.9682 68.2206C62.6036 66.5648 62.2646 64.9801 61.9201 63.3937C61.4428 63.5752 61.0374 63.9076 60.7651 64.3405C60.4928 64.7734 60.3684 65.2834 60.4107 65.7935C60.5456 67.1222 61.3458 67.9026 62.9682 68.2225V68.2206Z" fill="white"/>
<path d="M37.4198 74.737C37.4198 75.2378 37.4344 75.7404 37.4198 76.2412C37.3961 76.8242 37.0826 77.1733 36.4992 77.2355C36.3677 77.2576 36.2329 77.2514 36.1039 77.2173C35.9749 77.1832 35.8547 77.1219 35.7512 77.0375C35.6477 76.9531 35.5633 76.8475 35.5037 76.7279C35.4441 76.6082 35.4106 76.4772 35.4055 76.3435C35.3544 75.2469 35.3544 74.1503 35.4055 73.0537C35.4107 72.9199 35.4442 72.7888 35.5038 72.669C35.5634 72.5492 35.6477 72.4435 35.7511 72.3588C35.8545 72.2741 35.9747 72.2124 36.1036 72.1779C36.2326 72.1433 36.3675 72.1365 36.4992 72.1581C36.6255 72.1614 36.7498 72.1899 36.8649 72.242C36.98 72.2941 37.0836 72.3688 37.1695 72.4616C37.2554 72.5544 37.322 72.6634 37.3653 72.7824C37.4086 72.9013 37.4277 73.0277 37.4216 73.1542C37.4344 73.6879 37.4198 74.2125 37.4198 74.737Z" fill="white"/>
</g>
<defs>
<clipPath id="clip0_2580:160">
<rect width="70" height="51" fill="white" transform="translate(24 32)"/>
</clipPath>
</defs>
</svg>
