<svg width="117" height="117" viewBox="0 0 117 117" fill="none" xmlns="http://www.w3.org/2000/svg">
<circle cx="58.5" cy="58.5" r="58.5" fill="#0069FF"/>
<g clip-path="url(#clip0_2580:169)">
<path d="M72.5249 28.9978C73.0032 29.334 73.0992 29.8088 73.0947 30.3543C73.0785 32.3889 73.0947 34.4251 73.0947 36.4597V37.1712H73.7591C76.7441 37.1712 79.7302 37.1712 82.7172 37.1712C83.7506 37.1712 83.9898 37.4136 83.9913 38.4338C83.9913 40.7763 83.9913 43.1189 83.9913 45.4614C83.9913 45.6533 84.0459 45.9015 83.947 46.0242C83.7329 46.2868 83.4465 46.6433 83.1704 46.6606C82.8944 46.6779 82.5401 46.372 82.3275 46.1223C82.1917 45.9621 82.2286 45.6447 82.2271 45.4008C82.2271 43.4614 82.2271 41.5219 82.2271 39.5825V38.9331H73.0844V39.6676C73.0844 50.1133 73.0879 60.5594 73.0947 71.006C73.1079 71.2992 73.0555 71.5917 72.9413 71.863C72.8271 72.1344 72.6538 72.3782 72.4334 72.5775C70.1343 74.7902 67.8554 77.0163 65.5967 79.2559C65.4208 79.4456 65.2048 79.5955 64.9635 79.6951C64.7224 79.7948 64.4618 79.8419 64.2001 79.8331C58.2664 79.8158 52.3337 79.8119 46.4019 79.8216H45.7199V86.22H74.6552V85.6428C74.6552 83.7798 74.6552 81.9168 74.6552 80.0553C74.6552 79.1693 74.9504 78.8807 75.8539 78.8778C77.7406 78.8778 79.6269 78.8778 81.5126 78.8778H82.2153V78.087C82.2153 68.6977 82.2153 59.3078 82.2153 49.9175C82.2072 49.6495 82.229 49.3814 82.2802 49.1181C82.3836 48.6592 82.7128 48.437 83.1867 48.4774C83.386 48.4825 83.5761 48.5607 83.7191 48.6965C83.8622 48.8324 83.9477 49.0158 83.9588 49.2104C83.9802 49.4209 83.9876 49.6325 83.9809 49.8439C83.9809 59.6566 83.9849 69.4692 83.9927 79.2819C84.0028 79.5466 83.9539 79.8103 83.8494 80.0547C83.7448 80.2992 83.5872 80.5185 83.3875 80.6975C81.052 82.9486 78.7317 85.2151 76.4267 87.4971C76.2686 87.6645 76.0751 87.7963 75.8598 87.8835C75.6444 87.9707 75.4122 88.0112 75.1793 88.0021C65.1995 87.9906 55.2198 87.9877 45.2401 87.9935C44.1831 87.9935 43.9114 87.7294 43.9114 86.7077C43.9114 84.4436 43.9114 82.178 43.9114 79.8216H34.2417C33.2821 79.8216 33.0164 79.5647 33.0149 78.6282C33.0149 73.54 33.0149 68.4514 33.0149 63.3623C33.0149 63.1906 32.9662 62.9611 33.0577 62.8572C33.2792 62.6018 33.5597 62.2454 33.8357 62.2281C34.1118 62.2107 34.4764 62.5066 34.6787 62.7605C34.8263 62.938 34.7791 63.2743 34.7791 63.5412C34.7791 68.1301 34.7791 72.7194 34.7791 77.3092V78.0452H63.7144C63.7247 77.8561 63.7454 77.6556 63.7454 77.4535C63.7454 75.668 63.7454 73.8825 63.7454 72.097C63.7454 70.9195 63.9595 70.7088 65.142 70.7073H71.2878V30.7684H34.7791V31.526C34.7791 40.6864 34.7791 49.8458 34.7791 59.0043C34.7865 59.2722 34.7617 59.54 34.7053 59.8023C34.6675 59.9948 34.5552 60.1656 34.3919 60.2793C34.2286 60.3929 34.0268 60.4407 33.8283 60.4127C33.6281 60.4111 33.4358 60.3361 33.2896 60.2024C33.1433 60.0688 33.0537 59.8863 33.0385 59.6912C33.018 59.4995 33.0102 59.3067 33.0149 59.114C33.0149 49.5139 33.0149 39.9129 33.0149 30.311C33.0149 29.7568 33.0872 29.2821 33.6379 28.9992L72.5249 28.9978ZM76.4459 84.7236L80.6135 80.6484H76.4415L76.4459 84.7236ZM65.5553 76.618L69.872 72.4722H65.5553V76.618Z" fill="white"/>
<path d="M39.4336 48.5071C39.469 45.3397 40.3105 42.8302 41.9935 40.595C42.4128 40.038 42.8881 39.8994 43.3428 40.1967C43.7975 40.494 43.8507 41.0178 43.4255 41.6051C41.0752 44.8519 40.5718 48.3527 41.9713 52.0873C43.5953 56.4337 48.154 59.34 52.8826 59.0976C58.0895 58.8306 62.2216 55.4496 63.4056 50.4841C64.8539 44.4046 60.363 38.1 54.0282 37.2962C51.2055 36.9383 48.6073 37.4924 46.226 39.0163C46.1773 39.048 46.1286 39.0812 46.0784 39.1101C45.4879 39.4636 44.9845 39.3987 44.6907 38.9413C44.4131 38.5083 44.543 38.0018 45.104 37.6772C45.9116 37.2096 46.728 36.719 47.5886 36.3784C55.1177 33.4216 63.5326 37.8575 65.1772 45.6326C66.6712 52.7035 61.6474 59.6921 54.3486 60.6994C47.444 61.6532 41.1564 57.3645 39.7067 50.6832C39.5236 49.8434 39.4897 48.9718 39.4336 48.5071Z" fill="white"/>
<path d="M50.6758 48.4103C51.7594 47.3496 52.7692 46.3583 53.7761 45.3727C54.5408 44.6281 55.2819 43.856 56.0879 43.1576C56.5422 42.7642 57.1355 42.5592 57.7418 42.5861C58.3481 42.613 58.9199 42.8698 59.3358 43.3019C59.755 43.7153 59.9999 44.2675 60.0221 44.8491C60.0442 45.4308 59.8419 45.9993 59.4554 46.442C59.3299 46.5863 59.1926 46.7306 59.0538 46.8619C56.9171 48.9524 54.7799 51.0419 52.6423 53.1304C51.3549 54.3859 50.0396 54.3801 48.7404 53.1175C47.6819 52.09 46.619 51.0669 45.5797 50.0221C44.8799 49.3194 44.6304 48.4752 44.9892 47.5343C45.3302 46.6296 46.0226 46.1057 47.0102 45.9946C47.3728 45.9535 47.7402 45.9964 48.0826 46.12C48.4251 46.2436 48.7329 46.4444 48.9811 46.706C49.5376 47.2472 50.075 47.8056 50.6758 48.4103ZM50.7231 52.3974C50.9436 52.2602 51.1543 52.1083 51.3535 51.9428C53.5256 49.8264 55.6933 47.7099 57.8565 45.5935C57.9673 45.4852 58.137 45.3683 58.1518 45.2442C58.171 45.0033 58.1813 44.667 58.0381 44.5343C57.8949 44.4015 57.548 44.4001 57.3103 44.4448C57.1464 44.4751 57.0151 44.6757 56.8674 44.8113C55.1018 46.5343 53.3371 48.2578 51.5734 49.9817C50.9002 50.6369 50.5105 50.6325 49.8299 49.9716C49.1494 49.3107 48.4939 48.6729 47.8281 48.0178C47.5136 47.7104 47.1578 47.5618 46.802 47.9095C46.4463 48.2573 46.6279 48.6051 46.9379 48.9081C47.9964 49.9384 49.046 50.9745 50.1104 51.9991C50.3024 52.149 50.5074 52.2823 50.7231 52.3974Z" fill="white"/>
<path d="M53.2488 65.454H42.7021C41.7691 65.454 41.3631 65.2015 41.3454 64.62C41.3247 64.0168 41.7691 63.7209 42.708 63.7209H63.8013C63.881 63.7209 63.9593 63.7209 64.0375 63.7209C64.7757 63.7455 65.1772 64.0745 65.1565 64.6257C65.1359 65.1524 64.7535 65.4497 64.0316 65.4511C60.4373 65.4569 56.843 65.4579 53.2488 65.454Z" fill="white"/>
<path d="M49.8695 67.8164H56.9926C57.1898 67.8076 57.3874 67.8158 57.5832 67.8409C57.7709 67.8601 57.9454 67.9445 58.0749 68.0787C58.2044 68.213 58.2803 68.3882 58.2888 68.5725C58.3346 69.0054 58.15 69.333 57.719 69.4614C57.4726 69.5227 57.2186 69.5494 56.9646 69.5408C52.2168 69.5408 47.4691 69.5408 42.7213 69.5408C41.7809 69.5408 41.338 69.2522 41.3498 68.6519C41.3616 68.0516 41.7676 67.8135 42.6947 67.8135L49.8695 67.8164Z" fill="white"/>
</g>
<defs>
<clipPath id="clip0_2580:169">
<rect width="51" height="59" fill="white" transform="translate(33 29)"/>
</clipPath>
</defs>
</svg>
