<svg width="117" height="117" viewBox="0 0 117 117" fill="none" xmlns="http://www.w3.org/2000/svg">
<circle cx="58.5" cy="58.5" r="58.5" fill="#0069FF"/>
<g clip-path="url(#clip0_2580:171)">
<path d="M22.9994 50.6228C23.6988 49.6886 24.2294 49.6456 25.0619 50.4658C26.6869 52.085 28.3119 53.7042 29.9369 55.3234C30.6756 56.0557 30.9888 56.052 31.7444 55.3047C32.1756 54.8768 32.5975 54.4378 33.04 54.0193C33.5575 53.5317 34.165 53.5149 34.6019 53.9502C35.0388 54.3855 35.0313 54.9833 34.5194 55.5008C34.1444 55.8745 33.7188 56.2108 33.2613 56.6218C34.6525 58.0118 35.9088 59.3196 37.2494 60.5527C37.945 61.1973 38.2788 61.8867 38.1869 62.8301C38.1288 63.3906 38.1869 63.9511 38.1738 64.5116C38.1491 64.956 38.2332 65.3996 38.4187 65.8045C38.6042 66.2093 38.8856 66.5632 39.2387 66.8357C42.2631 64.6218 44.4681 64.9917 45.94 68.0109C47.4138 67.4934 48.8331 67.5868 50.0294 68.7022C51.2256 69.8175 51.4675 71.159 51.01 72.7264C52.6375 73.2496 53.5731 74.3743 53.8225 76.0576C55.6975 76.0464 57.01 76.8535 57.7 78.5574C57.8781 78.9923 57.9627 79.4595 57.9485 79.929C57.9343 80.3985 57.8215 80.8598 57.6175 81.2832C57.4506 81.6419 57.4994 81.8549 57.7844 82.1221C58.5494 82.8432 59.2694 83.6167 60.0344 84.3397C60.7994 85.0627 61.7762 85.0534 62.4269 84.3995C63.0775 83.7456 63.0831 82.7704 62.35 82.0249C61.0713 80.7171 59.7756 79.4392 58.4744 78.1594C58.0713 77.7633 57.85 77.3318 58.075 76.7825C58.3694 76.0632 59.2431 75.9567 59.8769 76.577C61.165 77.8362 62.4194 79.1291 63.7188 80.3752C64.0335 80.6812 64.4203 80.9035 64.8438 81.0216C65.1791 81.0961 65.5299 81.0547 65.8386 80.9043C66.1473 80.7539 66.3955 80.5034 66.5425 80.194C66.88 79.5438 66.7938 78.8488 66.2238 78.264C65.1662 77.173 64.0769 76.1118 63.0006 75.0375C62.7194 74.7554 62.4269 74.477 62.1606 74.1912C61.7087 73.6961 61.6919 73.1094 62.095 72.6966C62.5281 72.2426 63.1431 72.2295 63.6531 72.7264C64.975 74.0174 66.2594 75.342 67.5906 76.6218C67.9069 76.9249 68.2995 77.1372 68.7269 77.2365C69.4394 77.3785 70.0037 77.031 70.3581 76.3995C70.5335 76.0867 70.5972 75.7239 70.539 75.3703C70.4808 75.0168 70.304 74.6933 70.0375 74.4527C68.8094 73.201 67.5569 71.9717 66.3156 70.733C65.5131 69.9334 65.4006 69.3449 65.9406 68.8329C66.4581 68.3472 67.0206 68.4705 67.7987 69.2458C69.025 70.4658 70.2362 71.697 71.4831 72.9058C72.0981 73.5055 72.8069 73.612 73.4744 73.2664C73.7846 73.1192 74.0355 72.8714 74.1857 72.5634C74.336 72.2555 74.3767 71.9059 74.3012 71.5718C74.1692 71.1308 73.9281 70.73 73.6 70.406C71.3162 68.0931 69.0025 65.8082 66.7038 63.5083C66.5163 63.3215 66.2125 63.0749 66.2144 62.8563C66.1986 62.4389 66.3132 62.027 66.5425 61.6774C66.8406 61.2944 67.3431 61.3355 67.7519 61.6251C67.9538 61.7821 68.1419 61.9558 68.3144 62.1445C70.7331 64.5508 73.15 66.959 75.6775 69.4756C76.4988 68.62 77.2938 67.7755 78.115 66.9497C79.1331 65.9165 80.1644 64.8946 81.1956 63.8764C81.7938 63.2841 82.375 63.2131 82.8531 63.6597C83.3312 64.1062 83.2956 64.7507 82.6844 65.3635C80.7494 67.2972 78.805 69.2234 76.8719 71.1664C76.6607 71.3669 76.5177 71.6282 76.4631 71.9137C76.2475 74.0436 75.0475 75.286 72.8894 75.5588C72.8257 75.5718 72.763 75.5892 72.7019 75.6111C72.2781 78.0604 71.2862 79.0506 68.8581 79.4149C68.7719 80.3902 68.4831 81.3056 67.7594 82.0305C67.4095 82.3875 66.9925 82.6723 66.5321 82.8685C66.0717 83.0647 65.577 83.1685 65.0763 83.1739C65.0238 83.4299 64.9731 83.6727 64.9225 83.9212C64.6319 85.3449 63.7975 86.3238 62.4212 86.7778C61.045 87.2318 59.7606 86.9759 58.705 85.9782C57.7881 85.1132 56.9463 84.1716 55.9825 83.1758C55.3263 83.8689 54.7675 84.4612 54.205 85.0441C53.08 86.2155 51.7375 86.6732 50.1869 86.1351C48.6006 85.5859 47.74 84.4051 47.5863 82.7292C47.5761 82.6854 47.5597 82.6433 47.5375 82.6041C45.0156 82.066 44.2375 81.2963 43.7725 78.8208C42.2519 78.6975 41.065 78.0249 40.3975 76.5919C39.9531 75.6335 39.4713 75.1365 38.5225 74.7236C38.0063 74.4974 37.5487 74.1567 37.1846 73.7276C36.8204 73.2985 36.5593 72.7923 36.4212 72.2475C36.2831 71.7026 36.2715 71.1336 36.3874 70.5837C36.5033 70.0337 36.7436 69.5174 37.09 69.0739C37.2775 68.8348 37.4856 68.6162 37.735 68.3266C36.175 67.0431 35.8844 65.3075 36.0475 63.4523C36.1131 62.6545 35.8469 62.1015 35.2638 61.5672C34.1388 60.5377 33.0888 59.4411 32.0256 58.3556C31.7125 58.0361 31.39 57.9483 30.9381 57.896C30.2481 57.8157 29.4156 57.6718 28.9469 57.2327C26.8994 55.3215 24.9625 53.2925 22.9844 51.3065L22.9994 50.6228ZM44.0106 76.6947C44.185 76.6106 44.5731 76.5228 44.83 76.2837C46.1425 75.0226 47.4419 73.7447 48.7019 72.4313C48.9761 72.1352 49.1215 71.743 49.1064 71.3404C49.0913 70.9378 48.9169 70.5576 48.6213 70.2827C48.0438 69.7129 47.1213 69.6045 46.5213 70.1725C45.1656 71.4541 43.8475 72.7881 42.5556 74.1277C42.0962 74.6059 42.0963 75.2486 42.3944 75.8278C42.6925 76.407 43.1781 76.6723 44.0106 76.6947ZM53.9275 78.1893C53.7813 78.2547 53.3819 78.3332 53.1325 78.563C52.0956 79.5364 51.0794 80.534 50.1081 81.5709C49.5175 82.2024 49.5981 83.0992 50.1962 83.7176C50.7944 84.336 51.7113 84.4649 52.3431 83.8932C53.4269 82.903 54.4581 81.853 55.4631 80.7844C55.9188 80.3024 55.9225 79.6634 55.6188 79.0861C55.315 78.5088 54.8256 78.1893 53.9369 78.1893H53.9275ZM51.7019 76.5079C51.6194 75.6522 51.3175 75.1534 50.7025 74.8843C50.4131 74.7467 50.0871 74.7051 49.7723 74.7656C49.4574 74.8262 49.1704 74.9856 48.9531 75.2206C48.1094 76.0296 47.275 76.8498 46.4669 77.6961C45.7863 78.4079 45.7881 79.3103 46.4144 79.9548C47.0406 80.5994 47.9969 80.6256 48.7338 79.925C49.5644 79.1365 50.3875 78.335 51.1619 77.4962C51.445 77.1786 51.5781 76.7358 51.7019 76.5079ZM40.2175 72.9357C40.3412 72.8927 40.6919 72.8666 40.8906 72.6797C41.8394 71.7867 42.7956 70.8918 43.6506 69.9128C44.1663 69.3206 43.9675 68.4182 43.3788 67.9007C42.79 67.3831 41.9575 67.3122 41.3875 67.8259C40.4725 68.6536 39.6025 69.5335 38.7625 70.4415C38.3331 70.9086 38.335 71.5195 38.6237 72.08C38.9125 72.6405 39.3925 72.9301 40.2175 72.9282V72.9357Z" fill="white"/>
<path d="M95.0001 55.8071C93.6814 57.1274 92.3633 58.4476 91.0457 59.7679C89.9695 60.8403 89.1989 60.9785 87.6332 60.2686C87.1889 60.7637 86.7145 61.3372 86.1951 61.866C85.6757 62.3947 85.0214 62.4264 84.5845 61.9743C84.1476 61.5222 84.1851 60.9038 84.7345 60.3713C85.2351 59.8856 85.777 59.4372 86.3432 58.944L74.6807 47.8426C73.4189 49.1878 72.2189 50.4974 70.9832 51.7753C70.1526 52.6348 69.532 52.7786 68.557 52.0817C66.022 50.2676 63.2507 49.653 60.1607 49.9164C58.1845 50.0864 56.1801 49.9164 54.1889 49.9706C53.7582 49.9957 53.3486 50.1648 53.0264 50.4507C51.7814 51.6184 50.5889 52.8403 49.3851 54.0547C48.4214 55.028 48.3557 56.2237 49.1882 57.113C49.9926 57.9724 51.1889 58.0042 52.2182 57.1766C53.2045 56.3844 54.1589 55.5549 55.1657 54.7926C55.4914 54.5448 55.8822 54.3962 56.2907 54.3648C57.8582 54.3181 59.4295 54.3368 60.9989 54.3498C61.9607 54.3498 62.2739 54.7403 62.2307 55.7062C62.2338 55.9224 62.3165 56.1299 62.4632 56.2891C63.157 57.0159 63.8864 57.709 64.5895 58.4302C65.137 58.9907 65.1726 59.5754 64.7207 60.035C64.2689 60.4946 63.6426 60.4517 63.1045 59.9229C62.0508 58.8935 61.027 57.8323 59.9601 56.816C59.7501 56.6161 59.3976 56.5656 59.1089 56.4423C59.0901 56.4423 59.062 56.4423 59.0395 56.4423C57.2282 56.1696 55.6926 56.6534 54.4589 58.0472C54.1428 58.3601 53.7996 58.6446 53.4332 58.8972C51.5957 60.3452 49.1207 60.1808 47.5982 58.5142C46.0757 56.8477 46.1151 54.3853 47.752 52.6927C48.9389 51.4633 50.167 50.2751 51.3745 49.0682C51.5376 48.9057 51.6932 48.7356 51.937 48.4816C51.4814 48.177 51.0801 47.8706 50.6395 47.6315C50.2432 47.4308 49.832 47.2609 49.4095 47.1233C47.9095 46.5834 46.3739 46.1275 45.4551 44.5339C44.5626 45.4456 43.8014 46.234 43.027 47.0093C41.3407 48.697 39.6501 50.3785 37.9551 52.0537C37.3926 52.6142 36.8976 52.6964 36.4045 52.3284C35.8551 51.9211 35.8195 51.2429 36.3576 50.688C37.1714 49.8473 38.0095 49.0308 38.8382 48.205C40.7607 46.2907 42.6832 44.3757 44.6057 42.4601C45.3107 41.7557 45.3089 41.412 44.6057 40.7095C43.3645 39.4689 42.1176 38.234 40.8782 36.9916C40.2595 36.3732 40.192 35.7529 40.6776 35.2858C41.1632 34.8188 41.7539 34.901 42.3426 35.4839C43.6726 36.8004 44.9982 38.1213 46.3195 39.4465C47.242 40.3676 47.422 41.4456 47.047 42.6731C47.0213 42.8037 47.0227 42.9382 47.0511 43.0684C47.0794 43.1985 47.1342 43.3214 47.212 43.4297C47.7305 44.0956 48.4472 44.5809 49.2595 44.816C51.0595 45.3858 52.7545 46.1518 54.0445 47.6184C54.1926 47.7866 54.5489 47.8295 54.8095 47.8314C57.8545 47.8463 60.9032 47.7978 63.9482 47.8688C64.7526 47.8874 65.5907 48.1677 66.3426 48.4928C67.3026 48.9094 68.1839 49.5072 69.1176 49.9874C69.292 50.0771 69.652 50.092 69.7626 49.9874C70.9176 48.8272 72.037 47.6352 73.2032 46.4115C72.6145 44.9505 72.7383 44.3564 73.9776 43.1289L81.2901 35.8426C81.4383 35.6931 81.5845 35.5418 81.7383 35.3979C82.2651 34.9085 82.8632 34.8636 83.3039 35.2784C83.7445 35.6931 83.7482 36.3639 83.2251 36.8888C81.1776 38.944 79.1232 40.9922 77.062 43.0336C76.3701 43.723 75.6707 44.405 74.9151 45.1485L89.1651 58.7067C90.4214 57.4381 91.6326 56.2088 92.8514 54.9869C93.7157 54.1182 94.1639 54.1163 95.0039 54.9608L95.0001 55.8071Z" fill="white"/>
</g>
<defs>
<clipPath id="clip0_2580:171">
<rect width="72" height="52" fill="white" transform="translate(23 35)"/>
</clipPath>
</defs>
</svg>
