<svg width="10" height="14" viewBox="0 0 10 14" fill="none" xmlns="http://www.w3.org/2000/svg">
<path d="M5 0C2.23969 0 0 2.01594 0 4.5C0 8.5 5 14 5 14C5 14 10 8.5 10 4.5C10 2.01594 7.76031 0 5 0ZM5 7C4.60444 7 4.21776 6.8827 3.88886 6.66294C3.55996 6.44318 3.30362 6.13082 3.15224 5.76537C3.00087 5.39991 2.96126 4.99778 3.03843 4.60982C3.1156 4.22186 3.30608 3.86549 3.58579 3.58579C3.86549 3.30608 4.22186 3.1156 4.60982 3.03843C4.99778 2.96126 5.39991 3.00087 5.76537 3.15224C6.13082 3.30362 6.44318 3.55996 6.66294 3.88886C6.8827 4.21776 7 4.60444 7 5C6.99942 5.53026 6.78852 6.03863 6.41357 6.41357C6.03863 6.78852 5.53026 6.99942 5 7Z" fill="#9d9d9d"/>
</svg>
