<svg width="94" height="94" viewBox="0 0 94 94" fill="none" xmlns="http://www.w3.org/2000/svg">
<circle cx="47" cy="47" r="47" fill="#1072FF"/>
<g clip-path="url(#clip0)">
<path d="M32.417 29.2915H36.5837V54.2915H32.417V29.2915Z" fill="white"/>
<path d="M33.9795 34.5H70.4378V38.6667H33.9795V34.5Z" fill="white"/>
<path d="M33.9795 42.8335H70.4378V47.0002H33.9795V42.8335Z" fill="white"/>
<path d="M68.3542 26.1665H25.6458C23.6354 26.1665 22 27.8019 22 29.8123V57.9373C22 59.9478 23.6354 61.5832 25.6458 61.5832H41.6C41.3542 62.6269 40.7062 64.3207 38.9708 66.054C38.6729 66.3519 38.5833 66.7998 38.7458 67.1894C38.9062 67.579 39.2875 67.8332 39.7083 67.8332H54.2917C54.7125 67.8332 55.0938 67.579 55.2542 67.1894C55.4146 66.7998 55.325 66.3519 55.0292 66.054C53.2979 64.3228 52.6313 62.629 52.3729 61.5832H68.3542C70.3646 61.5832 72 59.9478 72 57.9373V29.8123C72 27.8019 70.3646 26.1665 68.3542 26.1665ZM67.8333 53.2498H26.1667V30.3332H67.8333V53.2498Z" fill="white"/>
</g>
<defs>
<clipPath id="clip0">
<rect width="50" height="50" fill="white" transform="translate(22 22)"/>
</clipPath>
</defs>
</svg>
