<svg width="94" height="94" viewBox="0 0 94 94" fill="none" xmlns="http://www.w3.org/2000/svg">
<circle cx="47" cy="47" r="47" fill="#1072FF"/>
<path d="M71.125 64.8421C74.9388 59.7083 77 53.5126 77 47C77 38.9867 73.8795 31.4531 68.2133 25.7867C62.5469 20.1206 55.0133 17 47 17V20.5156C54.0743 20.5156 60.7251 23.2705 65.7273 28.2727C70.7295 33.275 73.4844 39.9257 73.4844 47C73.4844 52.7144 71.6859 58.1519 68.3584 62.668L67.9554 58.0614L64.4531 58.3678L65.3723 68.8745L75.8791 67.9552L75.5728 64.453L71.125 64.8421Z" fill="white"/>
<path d="M20.5156 47.0002C20.5156 41.2858 22.3141 35.8483 25.6416 31.3322L26.0446 35.9387L29.5469 35.6324L28.6277 25.1257L18.1209 26.0448L18.4272 29.5471L22.8748 29.158C19.0612 34.2919 17 40.4876 17 47.0002C17 55.0135 20.1205 62.5471 25.7867 68.2135C31.4531 73.8796 38.9867 77.0002 47 77.0002V73.4846C39.9257 73.4846 33.2749 70.7297 28.2727 65.7275C23.2705 60.7252 20.5156 54.0744 20.5156 47.0002Z" fill="white"/>
<path d="M47 52.3906C49.9772 52.3906 52.3906 49.9772 52.3906 47C52.3906 44.0228 49.9772 41.6094 47 41.6094C44.0228 41.6094 41.6094 44.0228 41.6094 47C41.6094 49.9772 44.0228 52.3906 47 52.3906Z" fill="white"/>
<path d="M63.2859 39.8601L59.8366 40.9809C59.0663 39.3448 57.9926 37.8789 56.6879 36.6562L58.8231 33.7174L55.9788 31.6509L53.8462 34.5862C52.3024 33.7313 50.5835 33.1559 48.7577 32.9292V29.3047H45.2421V32.9292C43.4163 33.1559 41.6974 33.7314 40.1536 34.5862L38.021 31.6509L35.1767 33.7174L37.3119 36.6562C36.0072 37.8789 34.9333 39.3447 34.1632 40.9809L30.7139 39.8601L29.6274 43.2036L33.0746 44.3237C32.9083 45.1907 32.8202 46.0852 32.8202 47C32.8202 47.9148 32.9083 48.8093 33.0746 49.6763L29.6274 50.7964L30.7139 54.1399L34.1632 53.0191C34.9335 54.6552 36.0072 56.1211 37.3119 57.3438L35.1767 60.2826L38.021 62.3491L40.1536 59.4138C41.6974 60.2687 43.4163 60.8441 45.2421 61.0708V64.6953H48.7577V61.0708C50.5835 60.8441 52.3024 60.2686 53.8462 59.4138L55.9788 62.3491L58.8231 60.2826L56.6879 57.3438C57.9926 56.1211 59.0665 54.6553 59.8366 53.0191L63.2859 54.1399L64.3724 50.7964L60.9252 49.6763C61.0915 48.8093 61.1796 47.9148 61.1796 47C61.1796 46.0852 61.0915 45.1907 60.9252 44.3237L64.3724 43.2036L63.2859 39.8601ZM55.9062 47C55.9062 51.9109 51.9109 55.9062 46.9999 55.9062C42.0889 55.9062 38.0937 51.9109 38.0937 47C38.0937 42.0891 42.0889 38.0938 46.9999 38.0938C51.9109 38.0938 55.9062 42.0891 55.9062 47Z" fill="white"/>
</svg>
