<svg width="94" height="94" viewBox="0 0 94 94" fill="none" xmlns="http://www.w3.org/2000/svg">
<circle cx="47" cy="47" r="47" fill="#1072FF"/>
<path d="M71.9999 56.0137C71.9999 53.3495 69.8311 51.1807 67.1685 51.1807C67.0529 51.1807 66.9404 51.201 66.8279 51.2073C67.306 50.076 67.5685 48.8166 67.5685 47.4337C67.5685 44.207 63.4434 36.8053 60.7511 34.3583C59.2761 34.6755 57.7073 34.8474 56.0807 34.8474C54.4025 34.8474 52.7931 34.6646 51.2774 34.3286C48.6179 36.4771 43.96 44.107 43.96 47.4353C43.96 47.9962 44.0115 48.5306 44.1037 49.04C43.3006 48.9853 42.4834 48.9541 41.6505 48.9541C39.4958 48.9541 37.4207 49.1869 35.4581 49.6166C35.4003 48.9025 35.3597 48.4666 35.3597 48.4666H22.5624C22.5624 48.4666 22.0015 53.1542 22.0015 58.9309C22.0015 64.7077 22.5624 69.3922 22.5624 69.3922H35.3581C35.3581 69.3922 35.4706 68.1687 35.5925 66.4327C37.4973 66.1124 39.4473 66.6156 41.699 68.0156C44.5553 69.8782 48.0742 70.986 51.8836 70.986C55.7463 70.986 59.0636 69.8469 61.8215 67.9312L61.8246 67.9344C61.8574 67.9109 61.8887 67.8875 61.9308 67.85C62.7121 67.3 63.4512 66.6921 64.1403 66.0249C64.6809 65.4718 65.4138 64.7639 66.5122 63.6889C70.2014 60.0638 70.6561 59.3466 70.6561 59.3466C70.6561 59.3466 70.6483 59.3466 70.642 59.3466C71.4811 58.4825 71.9999 57.3106 71.9999 56.0137ZM52.9868 43.4383C53.1056 43.1508 53.2759 42.8945 53.4853 42.6726C53.704 42.4461 53.9572 42.2601 54.2478 42.1148C54.5415 41.9648 54.8587 41.8679 55.2041 41.8163V40.9773H56.9822V41.9445C57.2448 42.0179 57.4807 42.121 57.6932 42.246V41.8679H59.4729V44.5321H57.6823C57.5385 44.3727 57.3963 44.2305 57.2619 44.1086C57.1244 43.9867 56.9807 43.882 56.8307 43.8039C56.676 43.7258 56.5135 43.6633 56.3322 43.6211C56.1494 43.5789 55.9385 43.557 55.6916 43.557C55.3353 43.557 55.065 43.643 54.8728 43.8102C54.6837 43.9805 54.5869 44.1617 54.5869 44.3571C54.5869 44.9071 55.1791 45.2696 56.3682 45.4493C57.1041 45.5587 57.6901 45.7399 58.126 45.9868C58.5573 46.2368 58.8901 46.5071 59.1214 46.8009C59.3495 47.0915 59.4964 47.3806 59.5605 47.665C59.6245 47.9509 59.6573 48.1775 59.6573 48.3541C59.6573 48.6931 59.5901 49.0103 59.4526 49.2978C59.3167 49.5916 59.1323 49.851 58.8948 50.0666C58.662 50.2869 58.376 50.4635 58.0542 50.601C57.7276 50.7354 57.3713 50.8151 56.9901 50.8416V51.6417H55.2119V50.601C55.115 50.5588 55.0306 50.5182 54.9369 50.4791C54.8462 50.4463 54.765 50.4026 54.6775 50.3604V50.751H52.8993V48.0869H54.6775C54.8322 48.2572 54.9775 48.4009 55.1291 48.5259C55.2759 48.6478 55.4259 48.7525 55.5869 48.8275C55.7447 48.9103 55.9166 48.9681 56.1057 49.0072C56.2979 49.0416 56.515 49.0603 56.7619 49.0603C57.0822 49.0603 57.3479 48.9963 57.562 48.865C57.7745 48.7338 57.8792 48.565 57.8792 48.3509C57.8792 48.1744 57.8213 48.0197 57.7135 47.8853C57.6057 47.7556 57.4635 47.6462 57.2901 47.5493C57.1182 47.4571 56.9291 47.3837 56.7213 47.329C56.5119 47.2743 56.3072 47.229 56.1025 47.1946C55.3822 47.0853 54.8087 46.9118 54.3775 46.6853C53.9478 46.4571 53.615 46.2087 53.3806 45.9368C53.1509 45.6649 52.9931 45.3868 52.9227 45.104C52.8493 44.8227 52.8149 44.5696 52.8149 44.3508C52.8071 44.0336 52.8681 43.7273 52.9868 43.4383ZM69.0639 57.9059C68.417 58.5466 65.6825 61.367 64.9387 62.0951C63.0199 63.978 62.1246 64.8608 61.7058 65.3483L61.6949 65.3405C61.4011 65.6046 61.0933 65.8405 60.7792 66.0718C58.3042 67.7453 55.2213 68.7484 51.8821 68.7484C48.5101 68.7484 45.4038 67.7328 42.9193 66.0327H42.9037C40.7521 64.7233 38.2317 63.917 35.7378 64.1624C35.8378 62.4404 35.9175 60.5544 35.9175 58.9341C35.9175 56.6793 35.7613 53.9167 35.6191 51.7932C37.5144 51.3666 39.5411 51.1276 41.6458 51.1276C48.0788 51.1276 53.7712 53.2542 57.2573 56.5871C57.6682 57.045 57.9276 57.6465 57.9276 58.3091C57.9276 59.7372 56.7651 60.8998 55.3369 60.8998C55.2869 60.8998 55.2353 60.8841 55.1759 60.881L55.1697 60.9091C53.8368 60.8638 51.7508 60.3044 48.2288 58.9559L47.4288 61.056C51.1524 62.4717 53.6056 63.1123 55.3447 63.1561V63.1405C57.5245 63.1373 59.3636 61.681 59.962 59.7013V59.7044C60.7152 58.4528 63.5356 55.8465 65.1372 54.4214V54.4246C65.1559 54.4027 65.17 54.3917 65.1825 54.3792C65.4778 54.1167 65.7356 53.8917 65.9185 53.7339C66.2575 53.5183 66.6075 53.4292 67.1669 53.4292C68.592 53.4292 69.7545 54.5917 69.7545 56.0199C69.7576 56.7309 69.4405 57.4028 69.0639 57.9059Z" fill="white"/>
<path d="M51.888 32.7411C51.888 32.7411 54.06 33.2567 56.1882 33.2567C58.3148 33.2567 59.7149 32.9552 59.7149 32.9552C60.9508 32.3473 63.729 25.9393 62.0993 23.6799C60.2774 21.1595 57.232 26.6378 55.8257 26.0753C54.4256 25.5143 51.438 22.5923 49.4677 23.783C47.7551 24.819 50.5411 31.7395 51.888 32.7411Z" fill="white"/>
</svg>
