<svg width="94" height="94" viewBox="0 0 94 94" fill="none" xmlns="http://www.w3.org/2000/svg">
<circle cx="47" cy="47" r="47" fill="#1072FF"/>
<path d="M58.7997 36.2H37.1997V57.8H58.7997V36.2Z" fill="white"/>
<path d="M72.3 49.7C73.92 49.7 75 48.62 75 47C75 45.65 73.92 44.3 72.3 44.3H69.6V38.9H72.3C73.92 38.9 75 37.82 75 36.2C75 34.85 73.92 33.5 72.3 33.5H69.6V30.8C69.6 27.83 67.17 25.4 64.2 25.4H61.5V22.7C61.5 21.35 60.42 20 58.8 20C57.45 20 56.1 21.08 56.1 22.7V25.4H50.7V22.7C50.7 21.35 49.62 20 48 20C46.38 20 45.3 21.08 45.3 22.7V25.4H39.9V22.7C39.9 21.35 38.82 20 37.2 20C35.58 20 34.5 21.08 34.5 22.7V25.4H31.8C28.83 25.4 26.4 27.83 26.4 30.8V33.5H23.7C22.08 33.5 21 34.58 21 36.2C21 37.55 22.08 38.9 23.7 38.9H26.4V44.3H23.7C22.08 44.3 21 45.38 21 47C21 48.35 22.08 49.7 23.7 49.7H26.4V55.1H23.7C22.08 55.1 21 56.18 21 57.8C21 59.15 22.08 60.5 23.7 60.5H26.4V63.2C26.4 66.17 28.83 68.6 31.8 68.6H34.5V71.3C34.5 72.65 35.58 74 37.2 74C38.82 74 39.9 72.92 39.9 71.3V68.6H45.3V71.3C45.3 72.65 46.38 74 48 74C49.62 74 50.7 72.92 50.7 71.3V68.6H56.1V71.3C56.1 72.65 57.18 74 58.8 74C60.15 74 61.5 72.92 61.5 71.3V68.6H64.2C67.17 68.6 69.6 66.17 69.6 63.2V60.5H72.3C73.92 60.5 75 59.42 75 57.8C75 56.45 73.92 55.1 72.3 55.1H69.6V49.7H72.3ZM64.2 63.2H31.8V30.8H64.2V63.2Z" fill="white"/>
</svg>
