<svg width="94" height="94" viewBox="0 0 94 94" fill="none" xmlns="http://www.w3.org/2000/svg">
<circle cx="47" cy="47" r="47" fill="#1072FF"/>
<path d="M45.4183 20.7075C39.3199 21.0576 33.6009 23.4273 29.0361 27.4956L36.0958 34.5553C38.7525 32.3435 41.9784 31.0069 45.4183 30.6926V20.7075Z" fill="white"/>
<path d="M33.8573 36.7917L26.7977 29.7322C22.726 34.2957 20.3532 40.0151 20.001 46.1149H29.9864C30.3028 42.6744 31.6423 39.4483 33.8573 36.7917Z" fill="white"/>
<path d="M64.0134 46.1149H73.9989C73.6466 40.0151 71.274 34.2957 67.2021 29.7322L60.1426 36.7917C62.3575 39.4482 63.697 42.6744 64.0134 46.1149Z" fill="white"/>
<path d="M64.0112 49.2791C63.7894 51.7157 63.094 53.7481 62.2716 55.3783C63.0739 56.6156 63.7428 57.6612 64.1847 58.3556C65.3881 60.2469 65.1217 62.6745 63.5367 64.2596C63.1518 64.6445 62.7122 64.9546 62.2358 65.1837L63.88 66.828C64.1894 67.1374 64.5951 67.2922 65.0006 67.2922C65.4062 67.2922 65.8118 67.1374 66.1211 66.828C70.8592 62.0904 73.6219 55.9084 74 49.2791H64.0112Z" fill="white"/>
<path d="M29.9889 49.2791H20C20.3781 55.9084 23.1409 62.0904 27.8788 66.8281C28.1883 67.1376 28.5938 67.2923 28.9993 67.2923C29.4049 67.2923 29.8105 67.1374 30.1199 66.8281L34.92 62.0277C35.5388 61.4088 35.5388 60.4054 34.92 59.7865C33.6674 58.5338 30.5121 55.0268 29.9889 49.2791Z" fill="white"/>
<path d="M64.9642 27.4956C60.3994 23.4272 54.6804 21.0576 48.582 20.7075V30.6926C52.0218 31.0069 55.2478 32.3435 57.9045 34.5553L64.9642 27.4956Z" fill="white"/>
<path d="M50.5155 44.2083C48.5773 42.2701 45.4236 42.2701 43.4854 44.2083C41.5472 46.1465 41.5472 49.3002 43.4854 51.2384C45.934 53.687 57.9674 61.3704 59.3316 62.2384C59.9571 62.6365 60.7752 62.5467 61.2996 62.0224C61.8239 61.4981 61.9137 60.68 61.5156 60.0543C60.6475 58.6903 52.9641 46.6567 50.5155 44.2083Z" fill="white"/>
</svg>
